<svg width="24" height="24" viewBox="0 0 24 24" fill="none" xmlns="http://www.w3.org/2000/svg">
<g clip-path="url(#clip0_4486_1259)">
<path d="M12 24C18.6274 24 24 18.6274 24 12C24 5.37258 18.6274 0 12 0C5.37258 0 0 5.37258 0 12C0 18.6274 5.37258 24 12 24Z" fill="black"/>
<path d="M17.0105 4.26001H6.9895V6.2239H17.0105V4.26001Z" fill="#E50913"/>
<path d="M12.1344 20.26C11.2029 20.26 10.3682 20.1053 9.63016 19.796C8.89218 19.4868 8.29938 19.0289 7.85178 18.4228C7.41621 17.8166 7.18636 17.0866 7.16217 16.233H10.4649C10.5133 16.7156 10.6766 17.0866 10.9549 17.3465C11.2331 17.5939 11.5961 17.7176 12.0436 17.7176C12.5034 17.7176 12.8663 17.6125 13.1325 17.4021C13.3986 17.1794 13.5317 16.8763 13.5317 16.4928C13.5317 16.1711 13.4229 15.9051 13.2051 15.6948C12.9994 15.4845 12.7393 15.3112 12.4247 15.1752C12.1223 15.0391 11.6868 14.8845 11.1182 14.7112C10.2955 14.4515 9.62412 14.1917 9.10388 13.9319C8.58365 13.6721 8.13605 13.2885 7.76101 12.7813C7.38597 12.2741 7.19845 11.6122 7.19845 10.7956C7.19845 9.58318 7.62791 8.63678 8.4869 7.95636C9.34582 7.2635 10.4649 6.91711 11.844 6.91711C13.2474 6.91711 14.3786 7.2635 15.2375 7.95636C16.0964 8.63678 16.5562 9.5894 16.6167 10.8142H13.2595C13.2354 10.3935 13.0841 10.0657 12.8058 9.83067C12.5276 9.58318 12.1707 9.45948 11.7352 9.45948C11.3602 9.45948 11.0577 9.56466 10.8279 9.77495C10.598 9.97294 10.4831 10.2636 10.4831 10.6471C10.4831 11.0678 10.6766 11.3956 11.0637 11.6307C11.4509 11.8658 12.0558 12.1193 12.8785 12.3915C13.7011 12.6762 14.3664 12.9484 14.8745 13.2081C15.3948 13.4679 15.8424 13.8453 16.2174 14.3401C16.5924 14.835 16.78 15.4722 16.78 16.2516C16.78 16.9939 16.5924 17.6681 16.2174 18.2743C15.8545 18.8805 15.3221 19.3631 14.6206 19.7218C13.9188 20.0806 13.0902 20.26 12.1344 20.26Z" fill="white"/>
</g>
<defs>
<clipPath id="clip0_4486_1259">
<rect width="24" height="24" fill="white"/>
</clipPath>
</defs>
</svg>
