<svg width="60" height="60" viewBox="0 0 60 60" fill="none" xmlns="http://www.w3.org/2000/svg">
<g clip-path="url(#clip0_46973_53477)">
<path d="M30 60C46.5686 60 60 46.5686 60 30C60 13.4314 46.5686 0 30 0C13.4314 0 0 13.4314 0 30C0 46.5686 13.4314 60 30 60Z" fill="#7B2BF9"/>
<path fill-rule="evenodd" clip-rule="evenodd" d="M50.6282 30.6134C50.624 30.7529 50.4342 30.7897 50.3793 30.6612C50.3559 30.6057 50.3318 30.5501 50.3073 30.4944C50.2626 30.3927 50.2751 30.2743 50.3419 30.1853C50.3557 30.167 50.3838 30.1302 50.4174 30.0863C50.5076 29.9683 50.6377 29.9859 50.6377 30.1169C50.6377 30.2887 50.6337 30.4374 50.6282 30.6134ZM49.6294 27.8857C49.4756 28.1627 49.0812 28.1755 48.9104 27.9084C48.2793 26.9254 47.541 25.9509 46.7151 25.0097C46.5209 24.7883 46.6797 24.4408 46.9743 24.4406H46.9814C48.8303 24.4406 49.7996 24.8974 50.0954 25.455C50.3423 25.9215 50.2666 26.7371 49.6294 27.8857ZM49.2162 37.5546C49.1171 37.8069 49.0132 38.0576 48.9042 38.3059C48.2318 39.6586 47.0708 40.7313 45.5052 41.4677C45.1629 41.6286 44.7883 41.3153 44.8903 40.9511C45.397 39.1376 45.7804 37.1709 46.0289 35.1091C46.0753 34.7247 46.2649 34.3717 46.5579 34.1184C47.1854 33.5755 47.7714 33.0334 48.3105 32.4951L48.3163 32.489C48.5816 32.2244 49.0341 32.3383 49.1421 32.6973C49.6747 34.4677 49.7043 36.1166 49.2162 37.5546ZM45.0684 44.1019C44.643 44.5567 44.1931 44.9951 43.7298 45.4083C43.5442 45.5736 43.2636 45.3668 43.3686 45.1414C43.5235 44.8086 43.673 44.463 43.817 44.1098C43.8445 44.0426 43.9024 43.9924 43.9728 43.9744C44.2654 43.9002 44.5507 43.8182 44.8286 43.7286C45.0538 43.6561 45.2302 43.9291 45.0684 44.1019ZM42.0223 42.4649C41.4064 42.5541 40.7586 42.6118 40.081 42.6357C38.4275 42.6935 36.6792 42.5509 34.8833 42.2202C34.6644 42.18 34.6223 41.8839 34.8208 41.7836C35.2125 41.5852 35.6045 41.3825 35.9962 41.1749C38.7442 39.7183 41.3082 38.1262 43.5527 36.4938C43.7211 36.3714 43.953 36.5159 43.9188 36.7213C43.6076 38.592 43.1766 40.3531 42.6353 41.9517C42.543 42.2241 42.307 42.4236 42.0223 42.4649ZM41.3871 44.9573C39.9138 47.855 38.0993 49.4819 36.3404 49.4491C34.4288 49.4151 32.5226 47.4244 31.111 43.9878L31.1094 43.9839C30.9659 43.6347 31.3364 43.286 31.678 43.3823C34.7084 44.2328 37.8979 44.6953 41.0476 44.4449C41.3214 44.4233 41.5118 44.7124 41.3871 44.9573ZM32.6625 50.4678C31.7865 50.5803 30.8975 50.6379 29.9999 50.6379C25.9884 50.6379 22.1516 49.5011 18.8575 47.3798C18.6309 47.2337 18.7272 46.8821 18.9965 46.8697C19.0524 46.8671 19.1046 46.8642 19.1505 46.8614C19.9876 46.807 20.9055 46.6844 21.9001 46.4927C24.0157 46.0858 26.3674 45.3877 28.8299 44.4475C29.0507 44.3634 29.2971 44.4728 29.387 44.6914L29.3886 44.6952C30.3429 47.0186 31.5173 48.7743 32.8361 49.8911C33.054 50.0758 32.9458 50.4313 32.6625 50.4678ZM20.7279 36.0076C22.5464 34.5267 24.6772 33.0492 27.0146 31.6503C27.0648 34.6399 27.3926 37.51 27.9727 40.1026C27.1058 39.7329 26.2416 39.3258 25.3848 38.8808C23.7253 38.0184 22.164 37.0523 20.7279 36.0076ZM15.0723 44.0179C14.6384 43.1994 15.1991 41.3034 18.0477 38.4217C18.3451 38.1212 18.318 37.6266 17.986 37.365C17.8718 37.2753 17.7585 37.1847 17.646 37.094C17.3623 36.8647 16.9517 36.8858 16.6941 37.1438C16.6377 37.2002 16.5956 37.2427 16.5832 37.2555C15.1593 38.7171 14.1627 40.07 13.6044 41.287C13.4462 41.6318 12.9682 41.669 12.759 41.3525C10.5491 38.0119 9.36206 34.0974 9.36206 29.9999C9.36206 28.5351 9.51423 27.0935 9.81027 25.6932C9.85499 25.4813 10.1539 25.4678 10.2166 25.675C10.6448 27.0886 11.3417 28.5508 12.3047 30.0294C13.601 32.0202 15.3104 33.9339 17.3362 35.6893C18.0276 36.2884 18.7579 36.868 19.5196 37.4271C21.0636 38.5601 22.7413 39.6056 24.5262 40.533C25.3174 40.9442 26.088 41.3366 26.8772 41.6919C27.3165 41.8896 27.8165 41.905 28.2649 41.7289C28.637 41.5832 29.0118 41.4317 29.3888 41.274C29.7988 41.103 30.0211 40.656 29.9125 40.2252C29.8989 40.1714 29.8882 40.1281 29.8821 40.1026C29.0979 36.8022 28.8166 33.3895 28.8768 30.0009C28.9543 25.6932 29.6137 21.6208 30.7581 18.2678C30.851 17.9957 30.7059 17.7002 30.4337 17.6074C30.1685 17.5167 29.9034 17.4301 29.6387 17.3471C29.371 17.2632 29.0849 17.4076 28.9944 17.6733C27.9063 20.8675 27.2349 24.657 27.0559 28.667C27.033 29.1757 26.7562 29.6387 26.3181 29.8983C23.9431 31.3059 21.7619 32.798 19.8776 34.3021C19.485 34.6156 18.9243 34.6036 18.5447 34.2744C16.6561 32.637 15.0666 30.8585 13.865 29.0132C11.5038 25.3874 10.9426 21.9717 12.2855 19.397C12.2891 19.3909 12.2923 19.3846 12.2958 19.3788C12.467 19.0947 12.645 18.8144 12.8304 18.538C14.3733 16.4956 17.2451 15.3121 21.0538 15.1783C21.2948 15.1698 21.5375 15.1656 21.7823 15.1656C26.6115 15.1656 31.4961 16.7222 35.75 18.9332C38.1282 20.1688 40.3052 21.6172 42.1996 23.2063C38.5841 24.0345 34.3817 25.6323 30.1563 27.7866C29.9615 27.8861 29.8332 28.082 29.8208 28.3005C29.806 28.5624 29.7866 29.0889 29.7727 29.5074C29.764 29.77 30.0418 29.944 30.2745 29.8218L30.2769 29.8204C34.4604 27.6237 38.6355 25.9818 42.221 25.1141C42.8912 24.952 43.3251 24.3083 43.231 23.6254C43.165 23.1482 43.0908 22.6785 43.0086 22.2172C42.9054 21.6376 42.5881 21.1194 42.1199 20.7629C40.4405 19.4836 38.5898 18.3101 36.6086 17.2806C35.2734 16.5869 33.9187 15.979 32.5611 15.4606C32.2707 15.3497 32.1463 15.0065 32.2978 14.7352C33.6965 12.2331 35.36 10.8318 36.9807 10.8318C36.9975 10.8318 37.0143 10.8318 37.0311 10.8322C38.9427 10.8664 40.8489 12.8569 42.2605 16.2935C42.975 18.0331 43.5286 20.0392 43.9071 22.2194L43.9012 22.2141C44.362 24.8696 44.5433 27.5715 44.4947 30.2804C44.4749 31.3929 44.4156 32.4901 44.3197 33.5635C41.7621 35.6304 38.5999 37.6873 35.1241 39.5293C30.8578 41.7906 26.2924 43.7513 21.5482 44.6643C17.4447 45.4543 15.5124 44.8482 15.0723 44.0179ZM18.0196 13.1912C21.4928 10.7041 25.643 9.36206 29.9999 9.36206C31.1499 9.36206 32.2851 9.45615 33.3974 9.63969C33.6953 9.68886 33.7952 10.0691 33.5577 10.2554C32.4797 11.1005 31.4783 12.3508 30.592 13.9723C30.3757 14.3679 29.9169 14.5613 29.4831 14.4391C26.5467 13.6125 23.6577 13.2236 20.9885 13.3173C20.0038 13.3519 19.0714 13.4516 18.1954 13.6131C17.9493 13.6584 17.8162 13.3367 18.0196 13.1912ZM46.3487 28.2321C46.3426 27.9956 46.6461 27.8946 46.7833 28.0873C47.1759 28.6382 47.5346 29.198 47.8481 29.748C47.9596 29.9436 47.9329 30.1891 47.7811 30.3554C47.4522 30.7166 47.0807 31.0998 46.6779 31.4882C46.5443 31.6173 46.3203 31.519 46.3276 31.3332C46.3677 30.3011 46.3745 29.2557 46.3487 28.2321ZM44.2084 15.0318C44.3381 15.1548 44.4664 15.2799 44.5932 15.4068C46.582 17.3955 48.1138 19.7193 49.1381 22.2502C49.2415 22.5053 49.0248 22.7724 48.7538 22.7237C48.1611 22.6172 47.4942 22.5697 46.7558 22.582C46.244 22.5905 45.7993 22.2319 45.7094 21.7281C45.3082 19.4781 44.728 17.3997 43.9829 15.5858C43.9404 15.4824 43.8975 15.3803 43.854 15.2791C43.7593 15.0583 44.0341 14.8663 44.2084 15.0318ZM52.0139 25.3203C51.1248 21.0957 49.0341 17.2142 45.9097 14.0898C41.6601 9.84022 36.01 7.5 29.9999 7.5C23.99 7.5 18.3397 9.84022 14.09 14.0898C13.0564 15.1235 12.1371 16.2403 11.3356 17.4244C11.0972 17.7417 10.8838 18.0768 10.6939 18.4275C8.61193 21.8871 7.5 25.8581 7.5 29.9999C7.5 36.01 9.84042 41.6601 14.09 45.9097C18.3397 50.1594 23.99 52.5 29.9999 52.5C36.01 52.5 41.6601 50.1594 45.9097 45.9097C47.9155 43.9042 49.4952 41.5865 50.605 39.0664C50.7405 38.7871 50.8589 38.5012 50.9607 38.2096C51.9708 35.6284 52.5 32.8549 52.5 29.9999C52.5 28.4081 52.3464 26.84 52.0139 25.3203Z" fill="white"/>
</g>
<defs>
<clipPath id="clip0_46973_53477">
<rect width="60" height="60" fill="white"/>
</clipPath>
</defs>
</svg>
