<svg width="60" height="60" viewBox="0 0 60 60" fill="none" xmlns="http://www.w3.org/2000/svg">
<path fill-rule="evenodd" clip-rule="evenodd" d="M23.7359 19.139C13.557 14.3672 5.45929 12.4964 4.03211 14.9644C2.60485 17.4326 8.25446 23.5161 17.4583 29.9721C8.22162 36.3923 2.54907 42.4576 3.96607 44.9279C5.38478 47.4012 13.5057 45.5514 23.7311 40.8051C24.7006 52.0346 27.137 60 29.9887 60C32.8362 60 35.2695 52.0585 36.242 40.8556C46.4246 45.6308 54.5172 47.5036 55.9448 45.0346C57.3735 42.5704 51.7218 36.4834 42.5194 30.0253C51.7554 23.6054 57.4274 17.5405 56.0105 15.0703C54.5908 12.596 46.4708 14.4462 36.2462 19.1926C35.2765 7.96432 32.8403 0 29.9887 0C27.1417 0 24.7087 7.93898 23.7359 19.139ZM23.6156 20.6427C23.4861 22.4089 23.3922 24.2474 23.3379 26.1412C21.7017 27.1428 20.1349 28.1513 18.6509 29.1546C14.7314 26.3451 11.9891 24.0435 11.9891 24.0435C5.73503 18.7778 5.26519 16.2098 5.26519 16.2098L5.26327 16.2027C4.98882 15.552 5.56817 15.3953 5.56817 15.3953C8.13313 14.9109 11.736 16.0147 11.736 16.0147C15.1248 16.7864 19.4312 18.5999 23.6156 20.6427ZM24.8913 21.2742C24.8513 21.7033 24.8121 22.1417 24.7737 22.5894C24.7737 22.5894 24.7385 23.6124 24.7167 25.3087C25.3502 24.9314 25.9931 24.5556 26.6447 24.1819C27.2631 23.8273 27.8792 23.4805 28.4922 23.1415C27.3299 22.5203 26.1206 21.8908 24.8913 21.2742ZM30.0114 22.3143C28.3197 21.3973 26.6566 20.5442 25.0395 19.7605C26.4773 5.77007 28.7781 2.30843 29.5935 1.50204C29.6822 1.41446 29.7988 1.36093 29.923 1.35089C30.0472 1.34085 30.171 1.37494 30.2725 1.44716C31.5317 2.33938 32.5877 6.07075 32.5877 6.07075C33.9252 11.0355 34.6371 15.8704 35.014 19.7737C33.3877 20.5528 31.7143 21.4015 30.0114 22.3143ZM29.9425 23.9253C28.4593 24.7673 26.6515 25.8176 24.702 27.0024C24.6941 28.7492 24.7062 30.9017 24.7675 33.2492C26.0046 34.0139 27.2729 34.7554 28.5433 35.4406C28.5433 35.4406 29.0483 35.7508 29.9699 36.266C31.3257 35.5439 32.6794 34.7784 33.9801 33.9794C33.9801 33.9794 34.5021 33.6976 35.4104 33.1578C35.4595 31.6147 35.4697 30.0514 35.4239 28.5177C35.4239 28.5177 35.4377 27.9861 35.4255 27.0329C33.9212 26.15 32.0344 25.0679 29.9425 23.9253ZM35.3858 25.3906C34.7201 24.9891 34.0439 24.5891 33.3581 24.1915C32.711 23.8163 32.0662 23.4496 31.4249 23.0917C32.9123 22.2636 33.8207 21.7833 33.8207 21.7833C34.2693 21.5745 34.7087 21.3723 35.139 21.1765C35.2722 22.8102 35.3459 24.2387 35.3858 25.3906ZM36.6764 27.7731C36.6884 28.5084 36.6946 29.251 36.6946 30C36.6946 30.8044 36.6875 31.6014 36.6736 32.3899C37.6603 31.7772 38.8734 30.995 40.2365 30.0567C39.8404 29.7745 39.4336 29.4872 39.0158 29.1948C39.0158 29.1948 38.1423 28.6477 36.6764 27.7731ZM41.395 29.2465C39.8911 28.2183 38.3014 27.184 36.64 26.1566C36.5856 24.2516 36.4912 22.4024 36.3607 20.6264C49.2465 14.8905 53.405 15.1671 54.5087 15.471C54.6292 15.5046 54.7338 15.5798 54.8041 15.6832C54.8745 15.7865 54.9059 15.9115 54.893 16.0358C54.7519 17.5727 52.034 20.3446 52.034 20.3446C48.4089 23.9635 44.5854 26.9792 41.395 29.2465ZM41.3285 30.8417C39.8439 31.8454 38.2766 32.8544 36.6397 33.8565C36.584 35.7967 36.4869 37.6789 36.3525 39.4847C39.9135 41.1103 44.4402 42.9097 49.3906 44.2371C49.3906 44.2371 53.1488 45.1943 54.552 44.5519C54.6657 44.5003 54.7575 44.4103 54.8112 44.2977C54.8649 44.185 54.8772 44.057 54.8457 43.9363C54.5551 42.8299 52.7152 39.1008 41.3285 30.8417ZM35.065 38.8853C35.1815 37.5315 35.282 36.0999 35.3516 34.6349C34.6885 35.0305 34.0149 35.4246 33.3319 35.8163C32.6412 36.2123 31.9533 36.5988 31.2694 36.9753C32.2921 37.521 33.5737 38.1774 35.065 38.8853ZM28.6488 36.956C27.9783 36.5827 27.304 36.1998 26.6271 35.8075C26.0143 35.4525 25.4092 35.0956 24.8125 34.7373C24.8572 36.0385 24.918 37.3833 24.9993 38.7392C26.1772 38.1894 27.4069 37.5924 28.6488 36.956ZM23.3027 32.3245C23.2896 31.5574 23.2829 30.7822 23.2829 30C23.2829 29.2816 23.2886 28.5691 23.2997 27.8634C22.1845 28.5551 21.0389 29.283 19.8943 30.0344C20.971 30.7864 22.1163 31.5603 23.3027 32.3245ZM18.6979 30.8291C20.1675 31.8309 21.7183 32.838 23.3373 33.8387C23.3918 35.7456 23.4862 37.5965 23.6168 39.3741C19.2002 41.3705 15.8137 42.5995 15.8137 42.5995C8.12668 45.3695 5.66736 44.4871 5.66736 44.4871C4.96149 44.3982 5.12067 43.818 5.12067 43.818C5.98655 41.356 8.74199 38.7893 8.74199 38.7893C11.108 36.2438 14.8342 33.4264 18.6979 30.8291ZM29.9695 37.6815C31.6614 38.5985 33.3245 39.4516 34.9414 40.2353C34.4759 45.0371 33.8612 48.5647 33.8612 48.5647C32.4409 56.6114 30.4517 58.3069 30.4517 58.3069C30.0283 58.8718 29.6048 58.448 29.6048 58.448C27.8994 56.472 27.0467 52.801 27.0467 52.801C26.0124 49.4725 25.4221 44.8201 25.0922 40.1621C26.6791 39.3995 28.3103 38.571 29.9695 37.6815Z" fill="#6F7390"/>
<path d="M46.4364 16.3754C46.4364 17.545 45.5198 18.4931 44.3893 18.4931C43.2587 18.4931 42.3422 17.545 42.3422 16.3754C42.3422 15.2059 43.2587 14.2578 44.3893 14.2578C45.5198 14.2578 46.4364 15.2059 46.4364 16.3754Z" fill="#B7B9C8"/>
<path d="M33.4482 29.9284C33.4482 31.8777 31.868 33.4578 29.9188 33.4578C27.9696 33.4578 26.3894 31.8777 26.3894 29.9284C26.3894 27.9792 27.9696 26.3991 29.9188 26.3991C31.868 26.3991 33.4482 27.9792 33.4482 29.9284Z" fill="#B7B9C8"/>
<path d="M10.7893 25.6932C11.9199 25.6932 12.8364 24.7451 12.8364 23.5755C12.8364 22.406 11.9199 21.4579 10.7893 21.4579C9.6587 21.4579 8.74219 22.406 8.74219 23.5755C8.74219 24.7451 9.6587 25.6932 10.7893 25.6932Z" fill="#B7B9C8"/>
<path d="M27.8012 49.5519C27.8012 50.7214 26.8846 51.6695 25.754 51.6695C24.6234 51.6695 23.7068 50.7214 23.7068 49.5519C23.7068 48.3824 24.6234 47.4343 25.754 47.4343C26.8846 47.4343 27.8012 48.3824 27.8012 49.5519Z" fill="#B7B9C8"/>
</svg>
