<svg width="60" height="60" viewBox="0 0 60 60" fill="none" xmlns="http://www.w3.org/2000/svg">
<path d="M1.04787 32.3289C-1.91861 39.7071 1.62869 48.1048 8.97097 51.0858L19.7135 24.3671C12.3712 21.3861 4.01434 24.9507 1.04787 32.3289Z" fill="url(#paint0_linear_46973_53509)"/>
<path d="M18.908 37.3601C15.5177 45.7923 19.5718 55.3898 27.9629 58.7966C36.3541 62.2034 45.9049 58.1295 49.2951 49.6973L18.908 37.3601Z" fill="url(#paint1_linear_46973_53509)"/>
<path d="M47.1843 0C57.6733 4.25854 62.7409 16.2553 58.503 26.7956C54.2652 37.3358 42.3268 42.4282 31.8378 38.1696L47.1843 0Z" fill="url(#paint2_linear_46973_53509)"/>
<path d="M9.853 15.9237C12.3957 9.59951 19.5587 6.54411 25.8521 9.09924C32.1455 11.6544 35.1861 18.8524 32.6434 25.1766L9.853 15.9237Z" fill="url(#paint3_linear_46973_53509)"/>
<defs>
<linearGradient id="paint0_linear_46973_53509" x1="60" y1="30" x2="7.89442e-07" y2="30" gradientUnits="userSpaceOnUse">
<stop stop-color="#482BFF"/>
<stop offset="1" stop-color="#007AFF"/>
</linearGradient>
<linearGradient id="paint1_linear_46973_53509" x1="60" y1="30" x2="7.89442e-07" y2="30" gradientUnits="userSpaceOnUse">
<stop stop-color="#482BFF"/>
<stop offset="1" stop-color="#007AFF"/>
</linearGradient>
<linearGradient id="paint2_linear_46973_53509" x1="60" y1="30" x2="7.89442e-07" y2="30" gradientUnits="userSpaceOnUse">
<stop stop-color="#482BFF"/>
<stop offset="1" stop-color="#007AFF"/>
</linearGradient>
<linearGradient id="paint3_linear_46973_53509" x1="60" y1="30" x2="7.89442e-07" y2="30" gradientUnits="userSpaceOnUse">
<stop stop-color="#482BFF"/>
<stop offset="1" stop-color="#007AFF"/>
</linearGradient>
</defs>
</svg>
