<svg width="60" height="60" viewBox="0 0 60 60" fill="none" xmlns="http://www.w3.org/2000/svg">
<g clip-path="url(#clip0_46973_53525)">
<path d="M3.04691 37.336C1.69985 35.9888 0.796471 34.4329 0.336763 32.6685C-0.112254 30.8936 -0.112254 29.1186 0.336763 27.3434C0.796471 25.5577 1.69449 23.9965 3.03085 22.6599C4.3886 21.3019 5.95483 20.3983 7.7295 19.9492C9.5042 19.5001 11.2789 19.5001 13.0536 19.9492C14.8283 20.3983 16.3891 21.2966 17.7362 22.6439L21.0718 25.9802L26.0109 21.0399L22.6753 17.7037C21.3283 16.3564 20.4249 14.8005 19.9652 13.0362C19.5162 11.2611 19.5109 9.49145 19.9492 7.72709C20.3982 5.95206 21.3016 4.38551 22.6593 3.0275C24.0064 1.68019 25.5674 0.781982 27.3418 0.332874C29.1166 -0.116232 30.886 -0.1109 32.65 0.3489C34.4247 0.798005 35.9854 1.69624 37.3325 3.04356C38.6798 4.39088 39.5778 5.95206 40.0268 7.72709C40.4864 9.49145 40.4916 11.2611 40.0426 13.0362C39.6044 14.8219 38.7116 16.3884 37.3646 17.7358L34.0452 21.056L38.9682 25.9802L42.2877 22.6599C43.6347 21.3126 45.1904 20.409 46.9544 19.9492C48.7291 19.5001 50.4983 19.5055 52.2623 19.9653C54.037 20.4144 55.6033 21.3179 56.9611 22.676C58.3081 24.0233 59.2061 25.5845 59.6552 27.3595C60.1149 29.1239 60.1149 30.8883 59.6552 32.6525C59.2061 34.4277 58.3081 35.9888 56.9611 37.336C55.6033 38.6942 54.037 39.5977 52.2623 40.0468C50.4983 40.4852 48.7291 40.4799 46.9544 40.0308C45.201 39.5816 43.6508 38.6834 42.3037 37.336L38.9843 34.0159L34.0452 38.9561L37.3646 42.2762C38.7116 43.6236 39.6044 45.1795 40.0426 46.9437C40.4916 48.7189 40.4916 50.4938 40.0426 52.269C39.5936 54.044 38.6903 55.6104 37.3325 56.9684C35.9962 58.3052 34.4352 59.2032 32.65 59.6632C30.8752 60.1123 29.1005 60.1123 27.3258 59.6632C25.5726 59.214 24.0224 58.3158 22.6753 56.9684C21.3176 55.6104 20.4089 54.0492 19.9492 52.2848C19.5002 50.5099 19.5002 48.7349 19.9492 46.9597C20.4196 45.1848 21.323 43.6289 22.6593 42.2922L26.0109 38.9401L21.0878 34.0159L17.7362 37.3681C16.3998 38.7047 14.8336 39.5977 13.0375 40.0468C11.2628 40.496 9.48817 40.496 7.7135 40.0468C5.94948 39.5869 4.39397 38.6834 3.04691 37.336ZM7.05598 33.3262C7.66536 33.9356 8.37096 34.3421 9.17276 34.5451C9.98527 34.7591 10.7924 34.7644 11.5943 34.5611C12.3961 34.3582 13.1017 33.9517 13.7111 33.3422L17.0627 29.99L13.7271 26.6536C13.1177 26.0442 12.4068 25.6432 11.5943 25.4508C10.7924 25.2475 9.99064 25.2475 9.18882 25.4508C8.38702 25.654 7.67605 26.0655 7.05598 26.6858C6.44658 27.2952 6.03502 27.9958 5.8212 28.7869C5.61807 29.5891 5.61807 30.391 5.8212 31.1929C6.03502 32.0056 6.44658 32.7167 7.05598 33.3262ZM26.6844 13.6938L30.0201 17.03L33.3395 13.7098C33.9596 13.0897 34.366 12.3839 34.5584 11.5926C34.7613 10.7906 34.7561 9.98331 34.5423 9.17063C34.3392 8.36867 33.9328 7.66293 33.3235 7.05341C32.7142 6.44392 32.0086 6.03759 31.2066 5.83443C30.4049 5.63127 29.603 5.63127 28.8013 5.83443C28.0101 6.0269 27.3045 6.43323 26.6844 7.05341C26.0751 7.66293 25.6582 8.36867 25.4337 9.17063C25.2305 9.97262 25.2305 10.7746 25.4337 11.5766C25.6582 12.3785 26.0751 13.0843 26.6844 13.6938ZM42.0541 30.0061L45.3738 33.3262C45.9831 33.9356 46.6835 34.3474 47.4746 34.5611C48.2763 34.7644 50.0119 34.7591 50.8031 34.5451C51.605 34.3421 52.3159 33.9303 52.936 33.3101C53.5559 32.6901 53.9622 31.9843 54.1546 31.1929C54.3686 30.4018 54.3739 29.6051 54.1707 28.803C53.9675 28.001 53.5614 27.2952 52.9521 26.6858C52.332 26.0655 51.6208 25.654 50.8191 25.4508C50.0172 25.2475 48.2763 25.2475 47.4746 25.4508C46.694 25.654 45.9939 26.0655 45.3738 26.6858L42.0541 30.0061ZM26.6844 52.9585C27.2939 53.568 27.9996 53.9745 28.8013 54.1777C29.603 54.3807 30.3996 54.3754 31.1908 54.1616C31.9925 53.9584 32.6981 53.5519 33.3074 52.9425C33.9275 52.3225 34.3392 51.6114 34.5423 50.8092C34.7561 50.0181 34.7613 49.2214 34.5584 48.4193C34.366 47.6068 33.9649 46.8957 33.3556 46.2863L30.0359 42.9659L26.6844 46.3181C26.0751 46.9279 25.6634 47.6281 25.4497 48.4193C25.2465 49.2214 25.2465 50.0234 25.4497 50.8253C25.6527 51.6272 26.0643 52.3385 26.6844 52.9585ZM25.0968 30.0061L30.0201 34.9302L34.9592 29.99L30.0359 25.0659L25.0968 30.0061Z" fill="#F5F5F7"/>
</g>
<defs>
<clipPath id="clip0_46973_53525">
<rect width="60" height="60" fill="white"/>
</clipPath>
</defs>
</svg>
