<svg width="60" height="60" viewBox="0 0 60 60" fill="none" xmlns="http://www.w3.org/2000/svg">
<g clip-path="url(#clip0_46973_53574)">
<path fill-rule="evenodd" clip-rule="evenodd" d="M51.5805 50.9801C51.9697 50.5356 52.3585 50.0914 52.7258 49.6294C62.058 39.3211 63.6066 20.0909 50.2551 7.65383C49.2515 6.8559 48.2163 6.14253 47.1509 5.51386C52.8976 10.4251 54.3464 14.0004 55.434 18.9052C57.2934 27.5545 51.9426 39.2151 48.8833 43.3357C43.0318 51.2425 35.0834 44.1601 39.9956 37.6176C43.5734 32.8901 50.9763 20.6157 48.2947 12.4049C46.5205 6.99042 41.3052 2.98154 37.9881 1.10917C33.2986 -0.0885581 29.0854 -0.348958 24.5416 0.488136C31.22 2.41804 32.9906 3.80198 35.0768 5.43259C35.1609 5.49829 35.2455 5.5644 35.3309 5.63095C46.6936 14.4836 39.929 24.2901 34.7728 31.7651C34.3626 32.3597 33.9627 32.9395 33.5828 33.5029C29.5032 38.6324 29.0455 46.3496 34.1561 51.1401C37.8163 54.5955 42.4837 55.5025 46.6765 54.0309C47.9839 53.5774 49.2237 52.8884 50.418 51.9814C50.7348 51.7552 51.0122 51.4979 51.2721 51.2568C51.2894 51.2408 51.3066 51.2249 51.3237 51.209L51.3591 51.1641C51.3769 51.1422 51.4001 51.1245 51.4232 51.1067C51.4467 51.0888 51.4701 51.0708 51.4879 51.0486C51.4969 51.0371 51.5116 51.0303 51.5263 51.0235C51.5407 51.0168 51.555 51.0102 51.5637 50.9993L51.5805 50.9801ZM8.43668 9.00069C8.04188 9.45126 7.64708 9.90189 7.27458 10.3702C-2.05743 20.6788 -3.60644 39.909 9.74519 52.3458C10.749 53.1441 11.7838 53.8572 12.8495 54.4862C7.10292 49.5751 5.65357 45.9997 4.56625 41.0947C2.70663 32.4454 8.05792 20.7848 11.1168 16.6641C16.9685 8.75715 24.917 15.8398 20.0047 22.3823C16.4269 27.1097 9.02386 39.3842 11.7056 47.5951C13.4799 53.0096 18.6951 57.0182 22.0123 58.8908C26.7017 60.0883 30.9149 60.3492 35.4587 59.5117C28.7797 57.5815 27.0094 56.1976 24.9229 54.5667C24.8391 54.5011 24.7547 54.4351 24.6694 54.3687C13.3066 45.5163 20.0711 35.71 25.2274 28.2351C25.6376 27.6404 26.0376 27.0604 26.4175 26.4969C30.4971 21.3675 30.9548 13.6502 25.8442 8.85972C22.184 5.40429 17.5166 4.4971 13.3238 5.96911C12.0165 6.42246 10.7767 7.11145 9.58211 8.01833C9.26844 8.24251 8.99332 8.49733 8.73517 8.73644C8.71549 8.75466 8.69592 8.7728 8.67643 8.79082L8.64093 8.83541C8.6232 8.85769 8.5999 8.87555 8.5766 8.89341C8.55327 8.9113 8.52995 8.92918 8.51222 8.95149C8.50335 8.96264 8.4889 8.96937 8.47445 8.97609C8.46 8.98282 8.44555 8.98954 8.43668 9.00069Z" fill="url(#paint0_linear_46973_53574)"/>
</g>
<defs>
<linearGradient id="paint0_linear_46973_53574" x1="0.000391869" y1="30" x2="60.0003" y2="30" gradientUnits="userSpaceOnUse">
<stop stop-color="#0082FA"/>
<stop offset="1" stop-color="#00F2FE"/>
</linearGradient>
<clipPath id="clip0_46973_53574">
<rect width="60" height="60" fill="white"/>
</clipPath>
</defs>
</svg>
