<svg width="60" height="60" viewBox="0 0 60 60" fill="none" xmlns="http://www.w3.org/2000/svg">
<path d="M30 60C46.5685 60 60 46.5685 60 30C60 13.4315 46.5685 0 30 0C13.4315 0 0 13.4315 0 30C0 46.5685 13.4315 60 30 60Z" fill="#22242F"/>
<path d="M30.0031 1.2002C45.9089 1.2002 58.8031 14.0944 58.8031 30.0002C58.8031 45.906 45.9089 58.8002 30.0031 58.8002C14.0973 58.8002 1.20312 45.906 1.20312 30.0002C1.20312 14.0944 14.0973 1.2002 30.0031 1.2002ZM30.0031 3.23314C15.2201 3.23314 3.23607 15.2172 3.23607 30.0002C3.23607 44.7832 15.2201 56.7673 30.0031 56.7673C44.7862 56.7673 56.7702 44.7832 56.7702 30.0002C56.7702 15.2172 44.7862 3.23314 30.0031 3.23314Z" fill="#E53935"/>
<path d="M48.1491 18.6496V16.0334H39.8622C39.4175 14.343 38.9728 12.8538 38.4877 11.4854L35.6985 11.9683C36.1836 13.1758 36.6687 14.5442 37.1133 16.0334H28.3413V18.6496H48.1491ZM26.9264 38.0896V21.3865H22.8436C23.6925 20.1388 24.5414 18.6093 25.3903 16.7579V14.826H18.7203C19.0841 14.021 19.4075 13.216 19.7309 12.3708L17.1438 11.5658C15.931 15.5102 14.0311 18.6898 11.4844 21.145L12.0907 24.0026C12.6163 23.5196 13.1418 23.0367 13.6269 22.5134V38.0896H26.9264ZM20.0543 21.3865H14.6375C15.6885 20.0985 16.6991 18.6496 17.5884 17.1201H22.6819C21.7925 18.7301 20.9436 20.179 20.0543 21.3865ZM36.7091 48.5139C38.7303 48.5139 39.7813 47.387 39.7813 45.1733V33.7025H46.2088V22.2719H30.4837V33.7025H36.9516V44.4891C36.9516 45.4953 36.5474 46.0185 35.7389 46.0185C34.8091 46.0185 33.839 45.938 32.8688 45.8173L33.4347 48.5139H36.7091ZM19.1245 28.5507H16.1332V23.7611H19.1245V28.5507ZM24.4201 28.5507H21.4692V23.7611H24.4201V28.5507ZM43.4599 31.1668H33.2326V24.8478H43.4599V31.1668ZM24.4201 35.6747H21.4692V30.8851H24.4201V35.6747ZM19.1245 35.6747H16.1332V30.8851H19.1245V35.6747ZM46.3705 46.6625L48.5129 45.1733C47.4215 42.5974 45.8854 39.619 43.8642 36.1979L41.7217 37.4858C43.662 40.8265 45.2386 43.8854 46.3705 46.6625ZM29.4327 47.3467C31.2114 44.5696 32.7475 41.2692 34.0411 37.4858L31.6965 36.3589C30.4433 39.9813 28.9476 43.1206 27.2498 45.777L29.4327 47.3467ZM26.0775 44.6098L28.0583 44.1268C27.4924 42.1949 26.9264 40.5045 26.2796 39.0555L24.3797 39.619C25.0265 41.229 25.5924 42.8791 26.0775 44.6098ZM21.7925 46.9442L23.8946 46.7027C23.6521 43.6439 23.2074 41.229 22.5606 39.458L20.5394 39.6995C21.1862 41.3899 21.5904 43.8049 21.7925 46.9442ZM14.0715 48.0309C14.9204 45.6563 15.4459 42.9596 15.6885 39.9008L13.5056 39.619C13.3035 42.5169 12.7375 45.0928 11.8482 47.3467L14.0715 48.0309ZM17.4672 47.548L19.5692 47.3065C19.4884 44.1268 19.2862 41.5912 19.0033 39.7398L17.0629 39.9813C17.265 41.7522 17.3863 44.2878 17.4672 47.548Z" fill="#E53935"/>
</svg>
