<svg width="60" height="60" viewBox="0 0 60 60" fill="none" xmlns="http://www.w3.org/2000/svg">
<g clip-path="url(#clip0_46973_53590)">
<circle cx="30" cy="30" r="30" fill="#E53935"/>
<circle cx="30" cy="30" r="27.5" fill="#263238"/>
<path d="M47.1561 19.2717V16.7989H39.3231C38.9028 15.2011 38.4825 13.7935 38.024 12.5L35.3876 12.9565C35.8461 14.0978 36.3046 15.3913 36.7249 16.7989H28.4334V19.2717H47.1561ZM27.0961 37.6467V21.8587H23.2369C24.0393 20.6793 24.8417 19.2337 25.6441 17.4837V15.6576H19.3395C19.6834 14.8967 19.9891 14.1359 20.2948 13.337L17.8493 12.5761C16.7031 16.3043 14.9072 19.3098 12.5 21.6304L13.0731 24.3315C13.5699 23.875 14.0666 23.4185 14.5251 22.9239V37.6467H27.0961ZM20.6004 21.8587H15.4803C16.4738 20.6413 17.429 19.2717 18.2697 17.8261H23.0841C22.2435 19.3478 21.441 20.7174 20.6004 21.8587ZM36.3428 47.5C38.2533 47.5 39.2467 46.4348 39.2467 44.3424V33.5H45.3221V22.6957H30.4585V33.5H36.5721V43.6957C36.5721 44.6467 36.19 45.1413 35.4258 45.1413C34.5469 45.1413 33.6299 45.0652 32.7129 44.9511L33.2478 47.5H36.3428ZM19.7216 28.6304H16.8941V24.1033H19.7216V28.6304ZM24.7271 28.6304H21.9378V24.1033H24.7271V28.6304ZM42.7238 31.1033H33.0568V25.1304H42.7238V31.1033ZM24.7271 35.3641H21.9378V30.837H24.7271V35.3641ZM19.7216 35.3641H16.8941V30.837H19.7216V35.3641ZM45.4749 45.75L47.5 44.3424C46.4683 41.9076 45.0164 39.0924 43.1059 35.8587L41.0808 37.0761C42.9148 40.2337 44.405 43.125 45.4749 45.75ZM29.4651 46.3967C31.1463 43.7717 32.5983 40.6522 33.821 37.0761L31.6048 36.0109C30.4203 39.4348 29.0065 42.4022 27.4017 44.913L29.4651 46.3967ZM26.2937 43.8098L28.1659 43.3533C27.631 41.5272 27.0961 39.9293 26.4847 38.5598L24.6889 39.0924C25.3002 40.6141 25.8352 42.1739 26.2937 43.8098ZM22.2434 46.0163L24.2303 45.788C24.0011 42.8967 23.5808 40.6141 22.9694 38.9402L21.059 39.1685C21.6703 40.7663 22.0524 43.0489 22.2434 46.0163ZM14.9454 47.0435C15.7478 44.7989 16.2445 42.25 16.4738 39.3587L14.4105 39.0924C14.2194 41.8315 13.6845 44.2663 12.8439 46.3967L14.9454 47.0435ZM18.155 46.587L20.1419 46.3587C20.0655 43.3533 19.8745 40.9565 19.607 39.2065L17.7729 39.4348C17.964 41.1087 18.0786 43.5054 18.155 46.587Z" fill="#E53935"/>
<g style="mix-blend-mode:multiply">
<path fill-rule="evenodd" clip-rule="evenodd" d="M40.6976 21.9492C34.5109 17.1327 28.519 17.3021 22.7217 22.4574C16.9245 27.6126 17.0698 34.111 23.1576 41.9525L24.5718 27.5673L39.8166 24.14L40.6976 21.9492Z" fill="url(#paint0_linear_46973_53590)"/>
<path fill-rule="evenodd" clip-rule="evenodd" d="M27.1783 19.0357C23.1469 17.9973 18.5743 19.4135 19.1937 21.2634C19.3913 21.8538 20.847 20.9013 22.7683 21.5824C23.7063 21.1533 26.8779 19.4481 27.1783 19.0357Z" fill="#263238"/>
<path fill-rule="evenodd" clip-rule="evenodd" d="M31.9553 18.0254C35.4003 18.0254 38.5508 19.2863 40.9704 21.3717L40.5703 22.3298C38.2929 20.2658 35.2709 19.0083 31.9553 19.0083C24.8679 19.0083 19.1224 24.7538 19.1224 31.8412C19.1224 38.9286 24.8679 44.674 31.9553 44.674C32.7255 44.674 33.4798 44.6062 34.2126 44.4761L33.9457 45.5147C33.2958 45.6084 32.6312 45.657 31.9553 45.657C24.325 45.657 18.1395 39.4714 18.1395 31.8412C18.1395 24.2109 24.325 18.0254 31.9553 18.0254Z" fill="url(#paint1_linear_46973_53590)"/>
<path fill-rule="evenodd" clip-rule="evenodd" d="M31.5457 20.2644C34.8206 20.2644 37.7956 21.5742 39.9946 23.7083L39.6881 24.4422C37.6 22.2975 34.7346 20.9743 31.573 20.9743C25.1843 20.9743 20.0052 26.3775 20.0052 33.0426C20.0052 39.7078 25.1843 45.111 31.573 45.111C32.5414 45.111 33.482 44.9868 34.381 44.7529L34.3328 44.9502C33.4375 45.1625 32.5044 45.2748 31.5457 45.2748C24.775 45.2748 19.2862 39.676 19.2862 32.7696C19.2862 25.8631 24.775 20.2644 31.5457 20.2644Z" fill="url(#paint2_linear_46973_53590)"/>
<path fill-rule="evenodd" clip-rule="evenodd" d="M27.0204 41.6941C24.9269 40.6764 22.8192 36.6507 28.1406 32.5805C32.9101 28.9325 41.3199 30.3575 41.3199 22.0726C41.3199 21.8273 40.9204 21.0188 40.5954 21.3479C39.9757 21.9756 38.8624 24.1126 35.9401 23.7389C28.4446 22.7803 19.6618 22.937 20.9478 37.867C20.9478 40.8437 25.2974 42.9604 27.0204 41.6941Z" fill="url(#paint3_linear_46973_53590)"/>
<path fill-rule="evenodd" clip-rule="evenodd" d="M25.7738 24.6132C24.1713 24.2978 22.5933 24.1401 21.0397 24.1401C15.6763 24.1401 15.0499 27.8584 15.4839 28.2326C16.0439 28.7154 19.9994 26.0113 21.9012 29.4357C23.169 31.7187 24.4599 30.1112 25.7738 24.6132Z" fill="#263238"/>
<path fill-rule="evenodd" clip-rule="evenodd" d="M26.9928 41.6981C27.14 40.8293 27.3808 40.1904 27.7152 39.7812C28.3193 39.042 29.5292 38.0933 29.7792 38.3326C29.9502 38.4963 29.7961 38.7686 29.6761 39.1354C29.5489 39.5241 29.4051 39.9801 29.7792 40.7545C30.2638 41.7578 30.4107 42.4575 30.2199 42.8537C31.3576 42.6853 32.3203 42.9688 33.108 43.7043C34.2895 44.8075 35.5293 44.2903 34.9739 45.2845C34.918 45.3846 32.8697 45.9295 29.4325 45.3411C28.7729 45.2282 27.7441 44.7673 26.3459 43.9584C25.1024 43.3043 24.2917 42.814 23.9138 42.4876C23.5359 42.1613 23.2442 41.6993 23.0386 41.1019L25.9302 41.9655C26.5366 41.8429 26.8593 41.7458 26.898 41.6741C26.9019 41.6669 26.9915 41.7056 26.9928 41.6981Z" fill="#263238"/>
</g>
<path fill-rule="evenodd" clip-rule="evenodd" d="M41.4339 21.0293C35.2472 16.2128 29.2553 16.3822 23.4581 21.5375C17.6609 26.6927 17.8062 33.1911 23.8939 41.0326L25.3081 26.6474L40.5529 23.2201L41.4339 21.0293Z" fill="url(#paint4_linear_46973_53590)"/>
<path fill-rule="evenodd" clip-rule="evenodd" d="M27.9146 18.1158C23.8832 17.0774 19.3106 18.4935 19.93 20.3434C20.1276 20.9338 21.5833 19.9813 23.5046 20.6625C24.4426 20.2333 27.6143 18.5282 27.9146 18.1158Z" fill="#546E7A"/>
<path fill-rule="evenodd" clip-rule="evenodd" d="M32.6916 17.1055C36.1366 17.1055 39.2871 18.3664 41.7068 20.4518L41.3066 21.4099C39.0292 19.3459 36.0073 18.0884 32.6916 18.0884C25.6042 18.0884 19.8588 23.8339 19.8588 30.9213C19.8588 38.0086 25.6042 43.7541 32.6916 43.7541C33.4618 43.7541 34.2161 43.6863 34.9489 43.5562L34.6821 44.5947C34.0321 44.6885 33.3675 44.7371 32.6916 44.7371C25.0614 44.7371 18.8758 38.5515 18.8758 30.9213C18.8758 23.291 25.0614 17.1055 32.6916 17.1055Z" fill="url(#paint5_linear_46973_53590)"/>
<path fill-rule="evenodd" clip-rule="evenodd" d="M32.2849 19.3444C35.5598 19.3444 38.5348 20.6543 40.7338 22.7884L40.4273 23.5222C38.3392 21.3776 35.4738 20.0543 32.3122 20.0543C25.9234 20.0543 20.7444 25.4575 20.7444 32.1226C20.7444 38.7878 25.9234 44.191 32.3122 44.191C33.2806 44.191 34.2212 44.0668 35.1202 43.833L35.072 44.0302C34.1766 44.2425 33.2436 44.3548 32.2849 44.3548C25.5141 44.3548 20.0254 38.756 20.0254 31.8496C20.0254 24.9432 25.5141 19.3444 32.2849 19.3444Z" fill="url(#paint6_linear_46973_53590)"/>
<path fill-rule="evenodd" clip-rule="evenodd" d="M27.7567 40.7741C25.6633 39.7564 23.5555 35.7307 28.8769 31.6605C33.6464 28.0125 42.0563 29.4375 42.0563 21.1526C42.0563 20.9073 41.6567 20.0988 41.3317 20.428C40.712 21.0556 39.5987 23.1927 36.6765 22.8189C29.1809 21.8603 20.3981 22.017 21.6841 36.947C21.6841 39.9237 26.0337 42.0404 27.7567 40.7741Z" fill="url(#paint7_linear_46973_53590)"/>
<path fill-rule="evenodd" clip-rule="evenodd" d="M26.5136 23.6932C24.9111 23.3778 23.333 23.2201 21.7795 23.2201C16.416 23.2201 15.7896 26.9385 16.2236 27.3126C16.7837 27.7954 20.7392 25.0913 22.6409 28.5158C23.9087 30.7987 25.1996 29.1912 26.5136 23.6932Z" fill="#607D8B"/>
<path fill-rule="evenodd" clip-rule="evenodd" d="M27.7325 40.7781C27.8797 39.9093 28.1205 39.2703 28.4549 38.8612C29.0591 38.122 30.269 37.1733 30.5189 37.4125C30.6899 37.5762 30.5359 37.8486 30.4158 38.2153C30.2886 38.604 30.1449 39.0601 30.5189 39.8344C31.0035 40.8378 31.1504 41.5375 30.9596 41.9336C32.0974 41.7652 33.0601 42.0488 33.8477 42.7842C35.0293 43.8875 36.2691 43.3703 35.7137 44.3644C35.6577 44.4646 33.6094 45.0095 30.1723 44.4211C29.5127 44.3082 28.4838 43.8473 27.0857 43.0384C25.8421 42.3843 25.0314 41.894 24.6535 41.5676C24.2757 41.2412 23.9839 40.7793 23.7783 40.1818L26.6699 41.0455C27.2764 40.9229 27.599 40.8257 27.6378 40.7541C27.6417 40.7469 27.7313 40.7855 27.7325 40.7781Z" fill="#546E7A"/>
</g>
<defs>
<linearGradient id="paint0_linear_46973_53590" x1="26.7064" y1="20.9165" x2="19.8332" y2="27.6855" gradientUnits="userSpaceOnUse">
<stop stop-color="#263238"/>
<stop offset="1" stop-color="#263238"/>
</linearGradient>
<linearGradient id="paint1_linear_46973_53590" x1="21.0352" y1="25.0745" x2="22.7219" y2="40.871" gradientUnits="userSpaceOnUse">
<stop stop-color="#263238"/>
<stop offset="1" stop-color="#263238"/>
</linearGradient>
<linearGradient id="paint2_linear_46973_53590" x1="22.1982" y1="23.3007" x2="24.0889" y2="42.531" gradientUnits="userSpaceOnUse">
<stop stop-color="#263238"/>
<stop offset="1" stop-color="#263238"/>
</linearGradient>
<linearGradient id="paint3_linear_46973_53590" x1="27.8453" y1="31.8412" x2="28.413" y2="44.2086" gradientUnits="userSpaceOnUse">
<stop stop-color="#263238"/>
<stop offset="1" stop-color="#263238"/>
</linearGradient>
<linearGradient id="paint4_linear_46973_53590" x1="27.4447" y1="19.9966" x2="20.5715" y2="26.7646" gradientUnits="userSpaceOnUse">
<stop stop-color="white"/>
<stop offset="1" stop-color="#CFD8DC"/>
</linearGradient>
<linearGradient id="paint5_linear_46973_53590" x1="21.7742" y1="24.1546" x2="23.4611" y2="39.9511" gradientUnits="userSpaceOnUse">
<stop stop-color="#607D8B"/>
<stop offset="1" stop-color="#546E7A"/>
</linearGradient>
<linearGradient id="paint6_linear_46973_53590" x1="22.937" y1="22.3808" x2="24.828" y2="41.611" gradientUnits="userSpaceOnUse">
<stop stop-color="#607D8B"/>
<stop offset="1" stop-color="#546E7A"/>
</linearGradient>
<linearGradient id="paint7_linear_46973_53590" x1="28.5834" y1="30.9213" x2="29.1511" y2="43.2887" gradientUnits="userSpaceOnUse">
<stop stop-color="#607D8B"/>
<stop offset="1" stop-color="#546E7A"/>
</linearGradient>
<clipPath id="clip0_46973_53590">
<rect width="60" height="60" fill="white"/>
</clipPath>
</defs>
</svg>
