<svg width="60" height="60" viewBox="0 0 60 60" fill="none" xmlns="http://www.w3.org/2000/svg">
<g clip-path="url(#clip0_46973_53606)">
<path d="M30 60C46.5685 60 60 46.5685 60 30C60 13.4315 46.5685 0 30 0C13.4315 0 0 13.4315 0 30C0 46.5685 13.4315 60 30 60Z" fill="#4A126B"/>
<path d="M47.6928 29.0722C47.6997 27.4523 47.2974 25.8551 46.5202 24.4188C46.5202 24.9971 46.384 25.615 46.3021 26.2328C46.1385 27.4553 45.9476 28.7304 45.6475 30.0975C45.2659 31.78 44.8297 33.3179 44.3661 34.6983L44.8297 34.501L45.7705 34.0934C45.7705 34.3431 45.6614 34.6983 45.5523 35.1055C45.4689 35.3484 45.3686 35.5858 45.2524 35.8155C45.1433 36.0653 45.0204 36.3017 44.8977 36.5384C44.7752 36.775 44.6658 36.959 44.5432 37.1696C44.2387 37.6702 43.897 38.1492 43.5207 38.6021C41.6632 40.8248 39.0236 42.3124 36.1036 42.7823H35.7764C35.5237 42.8229 35.2686 42.8494 35.0129 42.8611H34.6993C32.6874 42.8687 30.702 42.4181 28.9045 41.5466C27.2269 40.7421 25.7778 39.5556 24.6826 38.0897C23.5875 36.624 22.8791 34.9231 22.619 33.1341C22.619 32.766 22.5508 32.4109 22.5371 32.0561C22.5371 31.9771 22.5371 31.8982 22.5371 31.8195C22.5467 30.4667 22.8243 29.1282 23.3554 27.8759C23.95 26.3577 24.9506 25.0182 26.2557 23.9933C27.5606 22.9683 29.1236 22.2942 30.7861 22.0396C30.2965 22.4426 29.8407 22.8821 29.4226 23.354C29.2639 23.4806 29.1341 23.6372 29.0409 23.8141L34.7673 23.1831H34.9718C37.1515 23.2643 39.2695 23.904 41.1075 25.0366L42.5663 23.6301L42.8799 24.5765L43.0298 25.0366C43.3142 24.4925 43.5603 23.9303 43.7661 23.354C43.8615 23.1043 43.9571 22.8283 44.0386 22.5392C44.2303 21.9204 44.3669 21.2872 44.4478 20.6462C44.4683 20.3047 44.4683 19.9624 44.4478 19.6209C44.2022 19.7993 43.9251 19.9329 43.6299 20.0152C43.4474 20.0637 43.2597 20.0902 43.0709 20.0942C42.855 20.1042 42.6389 20.082 42.4299 20.0284C41.862 19.8635 41.3553 19.5439 40.971 19.1082C40.686 18.7915 40.4352 18.4479 40.2213 18.083C39.7849 16.7685 34.9038 15.3488 31.1542 13.2587C30.094 12.6993 29.1132 12.01 28.2364 11.2081C27.5178 10.5527 27.0393 9.69009 26.873 8.75C26.876 8.78058 26.876 8.81142 26.873 8.84203C26.873 8.84203 26.873 8.84203 26.873 8.92089C26.8651 8.97317 26.8651 9.02632 26.873 9.0786C26.8649 9.10879 26.8649 9.14045 26.873 9.17063C26.873 9.23636 26.873 9.30208 26.8048 9.36781C26.8112 9.4158 26.8112 9.46441 26.8048 9.51243C26.8048 9.59128 26.8048 9.65698 26.8048 9.73587C26.8113 9.79266 26.8113 9.84997 26.8048 9.90676V10.1565C26.8115 10.2221 26.8115 10.2881 26.8048 10.3537C26.8048 10.4457 26.8048 10.5246 26.8048 10.6298C26.798 10.6997 26.798 10.7701 26.8048 10.84V11.1292C26.7982 11.2079 26.7982 11.2871 26.8048 11.3659C26.8048 11.4579 26.8048 11.563 26.8048 11.6682C26.8048 11.7733 26.8048 11.8259 26.8048 11.9048L26.8866 12.2203L26.9685 12.47L27.0912 12.7855C27.1313 12.8714 27.1768 12.9548 27.2275 13.0353C27.2275 13.1404 27.3229 13.2456 27.3911 13.3507L27.582 13.6005C27.6467 13.7064 27.7196 13.8074 27.8001 13.9028C27.8683 13.9948 27.9638 14.0737 28.0456 14.1657L28.3183 14.4418L28.5773 14.6389C28.6869 14.7369 28.8056 14.8249 28.9318 14.9018L29.2999 15.1385L29.6271 15.3356L29.818 15.4408L26.614 14.0211L25.0187 13.3113C25.163 13.9373 25.4116 14.5367 25.755 15.0859C25.9159 15.3615 26.0984 15.6251 26.3004 15.8745C26.3004 15.8745 19.4831 15.6643 15.72 20.8434H15.9518C16.3394 20.8215 16.7205 20.9468 17.0135 21.1925C17.3066 21.4383 17.4883 21.7847 17.5197 22.1579C17.5341 22.2934 17.5341 22.4299 17.5197 22.5653C17.5322 22.6701 17.5322 22.776 17.5197 22.8808C17.3152 23.2226 17.1243 23.5776 16.9334 23.9324C16.7426 24.2874 16.0472 25.0103 15.4882 25.6413C15.1201 26.0487 14.752 26.4695 14.3838 26.9557C13.1448 28.3729 12.3503 30.1011 12.0932 31.9376C12.0796 32.1345 12.0796 32.3322 12.0932 32.5291C12.2755 32.4177 12.467 32.3211 12.6658 32.24H12.8022H12.9113C13.1378 32.1756 13.3787 32.1746 13.6057 32.2373C13.8327 32.3002 14.0365 32.4243 14.1929 32.5949C14.436 32.8876 14.6083 33.2289 14.6974 33.594C14.9425 34.8435 15.0884 36.1089 15.1337 37.3798C15.1987 38.1214 15.3079 38.8585 15.4609 39.5881C15.7956 41.4942 16.7506 43.2482 18.1878 44.5961C18.1865 44.5746 18.1865 44.5525 18.1878 44.5305C18.1309 44.3158 18.1033 44.095 18.106 43.8732C18.0954 43.6863 18.1264 43.4992 18.197 43.3248C18.2675 43.1501 18.376 42.9922 18.515 42.8611C18.6355 42.7656 18.7746 42.694 18.9241 42.6509H18.9922C19.2048 42.622 19.4204 42.622 19.633 42.6509C20.9965 42.7298 21.8009 44.7935 23.4506 46.5286C24.4593 47.6458 25.8108 48.4239 27.3093 48.75H27.3911C27.3144 48.4567 27.3144 48.1498 27.3911 47.8563C27.4247 47.7308 27.4894 47.6147 27.5796 47.5186C27.6698 47.4226 27.783 47.3492 27.9092 47.3041C28.3671 47.2138 28.8425 47.2596 29.2727 47.4356C30.3168 47.7883 31.3945 48.0391 32.4903 48.185H32.7085C33.0766 48.185 33.4994 48.2769 33.8676 48.2901C34.3914 48.3031 34.9158 48.2769 35.4355 48.2111C36.6816 48.0567 37.8932 47.706 39.0212 47.1729C38.8273 46.9831 38.7152 46.7291 38.7076 46.4629C38.71 46.3039 38.7474 46.1473 38.8167 46.0028C38.9763 45.7772 39.1861 45.5887 39.4302 45.4508C39.8147 45.1975 40.2318 44.9944 40.6709 44.8461C41.0846 44.7158 41.4898 44.5622 41.8847 44.3859L42.1027 44.2676C42.9049 43.8199 43.6353 43.262 44.2707 42.6114C45.8063 40.968 46.8891 38.9793 47.4202 36.8276C47.6441 36.136 47.7814 35.4212 47.8293 34.6983C47.8293 34.501 47.8293 34.3037 47.8293 34.1068C47.9808 32.4289 47.935 30.7399 47.6928 29.0722Z" fill="#F5F5F7"/>
</g>
<defs>
<clipPath id="clip0_46973_53606">
<rect width="60" height="60" fill="white"/>
</clipPath>
</defs>
</svg>
