<svg width="60" height="60" viewBox="0 0 60 60" fill="none" xmlns="http://www.w3.org/2000/svg">
<g clip-path="url(#clip0_46973_53623)">
<path d="M60 30C60 13.4315 46.5685 0 30 0C13.4315 0 0 13.4315 0 30C0 46.5685 13.4315 60 30 60C46.5685 60 60 46.5685 60 30Z" fill="url(#paint0_radial_46973_53623)"/>
<path d="M37.5193 11.25C38.3106 13.3881 39.9963 15.0739 42.1345 15.8651C39.9963 16.6563 38.3106 18.3421 37.5193 20.4803C36.7281 18.3421 35.0424 16.6563 32.9043 15.8651C35.0424 15.0739 36.7281 13.3881 37.5193 11.25Z" fill="white"/>
<path fill-rule="evenodd" clip-rule="evenodd" d="M30.6826 17.0625L22.2842 28.3429C19.5948 31.9553 19.6122 36.8004 22.1438 40.3644C19.4453 40.567 17.4889 40.0493 16.8858 38.756C16.4252 37.7681 16.8187 36.4663 17.8725 35.0432C17.8217 33.9834 17.9098 32.9171 18.1386 31.8709C12.348 35.8968 9.06608 40.0758 10.2348 42.582C11.4807 45.2541 17.4351 45.2729 24.89 43.0191C28.9421 45.7003 34.4762 45.2724 38.0553 41.7353C38.7433 41.0555 39.3168 40.3011 39.7741 39.497L33.037 39.878C36.0045 38.4941 38.7188 36.9661 41.0646 35.4023C47.3476 31.2135 50.9865 26.7677 49.7652 24.1486C48.5433 21.5279 42.792 21.4594 35.538 23.5842L30.6826 17.0625ZM36.5146 24.896L39.0811 28.3429C39.9221 29.4726 40.4984 30.7228 40.8158 32.0165C43.1952 29.829 44.3521 27.7093 43.6776 26.2629C42.9403 24.6817 40.1804 24.2597 36.5146 24.896Z" fill="white"/>
</g>
<defs>
<radialGradient id="paint0_radial_46973_53623" cx="0" cy="0" r="1" gradientUnits="userSpaceOnUse" gradientTransform="translate(60 -1.35) rotate(134.363) scale(85.8126 57.4116)">
<stop stop-color="#5278FF"/>
<stop offset="0.361196" stop-color="#BE7CFF"/>
<stop offset="0.756992" stop-color="#E69EFE"/>
<stop offset="1" stop-color="#F7D4F5"/>
</radialGradient>
<clipPath id="clip0_46973_53623">
<rect width="60" height="60" fill="white"/>
</clipPath>
</defs>
</svg>
