<svg width="60" height="60" viewBox="0 0 60 60" fill="none" xmlns="http://www.w3.org/2000/svg">
<path d="M57.1068 11.0583C56.502 8.76893 54.5582 6.47952 51.0592 3.93092C48.2515 1.90068 45.2709 0.734375 42.8951 0.734375C42.4199 0.734375 41.988 0.777572 41.556 0.863965C40.4761 1.07995 39.5258 1.85749 38.921 3.02379C38.1867 4.40608 38.0139 6.26353 38.4891 7.38664C38.6618 7.73222 38.8778 8.16418 39.137 8.55295C36.8476 9.93524 35.5517 10.324 35.3789 10.3672C41.34 12.3542 46.3076 16.5011 49.4178 21.9007L49.461 21.3823C49.5906 19.9568 50.0225 18.3154 50.6273 16.6307C51.232 16.8035 51.8368 16.8899 52.4415 16.8899C54.0398 16.8899 55.4221 16.2419 56.286 15.0756C57.15 13.9093 57.4955 12.3542 57.1068 11.0583Z" fill="#5E12A0"/>
<path d="M50.8853 15.3782C54.8162 16.4581 56.4145 13.4344 55.8961 11.4041C55.3345 9.37389 53.5203 7.30045 50.3237 4.96784C47.1272 2.63523 43.8875 1.6849 41.814 2.11687C39.7406 2.54883 39.1358 5.70218 39.6542 6.91168C39.8702 7.38684 40.3453 8.07799 40.9933 8.85553C40.1726 9.41708 39.395 9.84905 38.7471 10.2378C42.7212 12.0089 46.1769 14.7735 48.7687 18.2292C49.071 17.0629 49.503 16.0262 49.8918 15.119C50.1942 15.1622 50.5397 15.2486 50.8853 15.3782Z" fill="url(#paint0_radial_46973_53558)"/>
<path d="M28.3793 57.7098C41.7154 57.7098 52.5262 46.899 52.5262 33.5629C52.5262 20.2268 41.7154 9.41602 28.3793 9.41602C15.0432 9.41602 4.23242 20.2268 4.23242 33.5629C4.23242 46.899 15.0432 57.7098 28.3793 57.7098Z" fill="url(#paint1_radial_46973_53558)"/>
<path d="M53.911 9.41776C50.628 5.96203 47.8635 5.0549 44.5373 4.32056C41.9455 3.71581 42.6367 2.24713 45.79 2.5495C44.2781 2.03115 42.8527 1.90156 41.8159 2.11754C39.7425 2.5495 39.1378 5.70285 39.6561 6.91236C39.8721 7.38752 40.3473 8.07866 40.9952 8.8562C39.8289 9.63374 38.8354 10.1953 38.0146 10.6273C38.4034 10.8 38.8786 11.016 39.4401 11.3184C40.9088 12.0959 42.5071 13.3918 42.5071 13.3918C40.0881 11.3184 40.6064 10.3681 43.9326 8.03547C44.9693 7.30112 46.8699 7.38752 48.641 8.29465C50.4121 9.20177 52.4855 11.4912 52.4855 11.4912L50.4985 15.2925C50.628 15.3357 50.7576 15.3789 50.8872 15.4221C52.1399 15.7676 53.1334 15.6813 53.911 15.3789C54.8181 14.8173 57.1939 12.9167 53.911 9.41776Z" fill="#A98698" fill-opacity="0.6"/>
<path d="M44.4929 6.39427C45.3568 6.73984 46.4799 7.34459 47.8622 8.25172C49.5037 9.33163 50.9292 10.5411 51.8363 11.4915C50.3244 13.4785 49.3309 16.1999 48.7262 18.1005C49.0285 18.5325 49.3741 18.9645 49.6765 19.3964C49.9789 18.3165 50.4972 16.7182 51.1884 15.12C51.3611 15.1632 51.5771 15.1632 51.7931 15.1632C52.3115 15.1632 52.9162 15.0768 53.3914 14.688C53.737 14.4288 54.1257 13.9537 54.0825 13.0897C54.0825 12.269 53.4346 11.2323 52.0955 9.97958C51.1452 9.07245 49.8493 8.07893 48.5534 7.17181C44.8385 4.7096 42.2467 4.01846 41.0804 5.18476C40.3028 5.9623 40.3892 6.91263 40.6484 7.60377C39.2661 8.5109 38.0998 9.15885 37.3223 9.59081C37.8406 9.7636 38.3158 9.97958 38.8341 10.1956C40.2164 9.46122 42.2035 8.20852 44.4929 6.39427ZM52.657 12.5714C52.7866 12.7874 52.8298 13.0033 52.8298 13.1329C52.8298 13.5217 52.7002 13.6513 52.6138 13.7377C52.4411 13.8673 52.0955 13.9537 51.7931 13.9537C52.0523 13.4353 52.3547 13.0033 52.657 12.5714ZM41.9875 6.13509C42.1171 6.0055 42.4627 5.91911 43.0242 6.0055C42.5922 6.35107 42.1603 6.65345 41.7283 6.95582C41.6851 6.65345 41.7283 6.35107 41.9875 6.13509Z" fill="#5E12A0"/>
<path d="M28.38 7.99023C14.2547 7.99023 2.80762 19.4373 2.80762 33.5626C2.80762 47.6879 14.2547 59.1349 28.38 59.1349C42.5052 59.1349 53.9523 47.6879 53.9523 33.5626C53.9523 19.4373 42.4621 7.99023 28.38 7.99023ZM28.38 57.7095C15.0322 57.7095 4.2331 46.9103 4.2331 33.5626C4.2331 20.2149 15.0322 9.41572 28.38 9.41572C41.7277 9.41572 52.5268 20.2149 52.5268 33.5626C52.5268 46.9103 41.6845 57.7095 28.38 57.7095Z" fill="#5E12A0"/>
<path d="M28.3793 57.7098C41.7154 57.7098 52.5262 46.899 52.5262 33.5629C52.5262 20.2268 41.7154 9.41602 28.3793 9.41602C15.0432 9.41602 4.23242 20.2268 4.23242 33.5629C4.23242 46.899 15.0432 57.7098 28.3793 57.7098Z" fill="url(#paint2_linear_46973_53558)"/>
<path d="M28.2075 54.7727C15.0325 52.656 6.09082 40.2586 8.25065 27.0837C9.20097 21.2521 12.1383 16.2845 16.2852 12.6992C10.2377 16.1981 5.74525 22.2889 4.53574 29.7187C2.41911 42.8936 11.3608 55.291 24.4925 57.4076C31.836 58.6171 38.9202 56.3277 44.147 51.8353C39.5249 54.5135 33.9094 55.6798 28.2075 54.7727Z" fill="#A98698" fill-opacity="0.6"/>
<path d="M32.2262 9.76159C26.1355 8.76807 20.2176 10.1504 15.3795 13.2173C15.2932 13.3037 15.2068 13.3901 15.2068 13.3901C17.0642 12.267 19.7856 11.2735 19.7856 11.2735C12.7878 15.3339 10.6279 19.956 10.6279 19.956C13.3493 14.686 21.3407 10.9711 27.6042 10.7119C33.8677 10.4527 37.9713 12.3102 42.9821 16.3275C47.9929 20.3879 51.0167 28.6817 50.7143 35.2476C50.4551 41.8134 46.9994 47.1266 46.9994 47.1266C49.3752 44.0597 50.8007 41.8134 51.7078 39.524C51.8806 38.8329 52.0534 38.1417 52.1398 37.4074C54.2996 24.2756 45.4011 11.8782 32.2262 9.76159Z" fill="url(#paint3_linear_46973_53558)"/>
<path d="M51.3193 33.3477C51.3193 46.0042 41.0385 56.285 28.3819 56.285C15.7253 56.285 5.40137 46.0042 5.40137 33.3477H51.3193Z" fill="url(#paint4_linear_46973_53558)"/>
<path d="M49.5048 33.3477C49.5048 45.7019 39.7424 55.8099 27.4746 56.285H28.3817C41.0383 56.285 51.3191 46.0042 51.3191 33.3477H49.5048Z" fill="url(#paint5_linear_46973_53558)"/>
<path d="M8.64111 33.3477H5.40137C5.40137 46.0042 15.6821 56.285 28.3387 56.285C28.9003 56.285 29.4186 56.285 29.937 56.2418C18.058 55.3779 8.64111 45.4427 8.64111 33.3477Z" fill="url(#paint6_linear_46973_53558)"/>
<path d="M51.2761 33.564C51.2761 30.929 46.6973 29.4171 40.6066 28.8988C36.2005 28.5532 31.7513 28.9852 26.6541 30.5402C22.248 31.8361 18.2739 31.6201 15.3798 31.2746C8.94348 30.5402 5.40137 30.4538 5.40137 33.564C5.40137 38.0564 14.559 43.672 28.2955 41.7281C35.2502 40.7346 38.8355 38.7044 42.9392 37.3221C47.3884 35.8534 51.2761 35.8966 51.2761 33.564Z" fill="url(#paint7_linear_46973_53558)"/>
<path d="M35.8955 22.6777C38.0428 22.6777 39.7832 20.9373 39.7832 18.79C39.7832 16.6427 38.0428 14.9023 35.8955 14.9023C33.7482 14.9023 32.0078 16.6427 32.0078 18.79C32.0078 20.9373 33.7482 22.6777 35.8955 22.6777Z" fill="white"/>
<path d="M42.246 25.572C43.1527 25.572 43.8874 24.8372 43.8874 23.9305C43.8874 23.0238 43.1527 22.2891 42.246 22.2891C41.3393 22.2891 40.6045 23.0238 40.6045 23.9305C40.6045 24.8372 41.3393 25.572 42.246 25.572Z" fill="white"/>
<path d="M48.1234 15.6803H48.037C47.7778 15.6371 47.605 15.3779 47.6482 15.0755C48.037 13.0885 49.6785 11.1878 49.7648 11.1014C49.9376 10.8854 50.2832 10.8854 50.456 11.0582C50.672 11.231 50.672 11.5766 50.4992 11.7494C50.456 11.7926 48.9441 13.5636 48.5985 15.2915C48.5553 15.5507 48.3394 15.6803 48.1234 15.6803Z" fill="url(#paint8_linear_46973_53558)"/>
<path d="M42.8935 0.734341C45.3125 0.734341 48.293 1.90065 51.0576 3.93089C54.5565 6.47948 56.5004 8.7257 57.1051 11.0583C57.4507 12.3974 57.1483 13.9093 56.2844 15.0324C55.3773 16.1987 54.0382 16.8467 52.4399 16.8467C51.8784 16.8467 51.2736 16.7603 50.6256 16.5875C50.2369 17.581 49.9345 18.5745 49.7185 19.5248C52.3535 23.5421 53.9086 28.3801 53.9086 33.5637C53.9086 47.689 42.4615 59.1361 28.3362 59.1361C14.211 59.1361 2.80706 47.689 2.80706 33.5637C2.80706 19.4384 14.2541 7.99136 28.3794 7.99136C31.4896 7.99136 34.4701 8.55292 37.2347 9.58963C37.7531 9.33045 38.401 8.98488 39.1354 8.55292C38.8762 8.16415 38.617 7.77538 38.4874 7.38661C38.0123 6.2203 38.185 4.40605 38.9194 3.02376C39.5241 1.90065 40.4313 1.12311 41.5544 0.863931C41.9431 0.777538 42.4183 0.734341 42.8935 0.734341ZM42.8935 0C42.3751 0 41.8567 0.0431965 41.3816 0.172786C40.0857 0.475162 38.9626 1.33909 38.2282 2.72138C37.4075 4.31965 37.1915 6.39309 37.7531 7.73218C37.8395 7.90497 37.9259 8.12095 38.0555 8.33693C37.7531 8.50972 37.4507 8.68251 37.1483 8.8121C34.2974 7.81857 31.36 7.30022 28.3362 7.30022C24.7941 7.30022 21.3384 7.99136 18.0986 9.37365C14.9453 10.7127 12.1375 12.6134 9.71851 15.0324C7.2995 17.4514 5.39886 20.2592 4.05976 23.4125C2.67747 26.6523 1.98633 30.108 1.98633 33.6501C1.98633 37.1922 2.67747 40.6479 4.05976 43.8877C5.39886 47.041 7.2995 49.8488 9.71851 52.2678C12.1375 54.6868 14.9453 56.5875 18.0986 57.9266C21.3384 59.3089 24.7941 60 28.3362 60C31.8783 60 35.3341 59.3089 38.5738 57.9266C41.7272 56.5875 44.5349 54.6868 46.9539 52.2678C49.3729 49.8488 51.2736 47.041 52.6127 43.8877C53.995 40.6479 54.6861 37.1922 54.6861 33.6501C54.6861 28.5961 53.2606 23.7149 50.5393 19.4816C50.6688 18.8337 50.8848 18.1857 51.1008 17.5378C51.5328 17.6242 52.0079 17.6674 52.4399 17.6674C54.2542 17.6674 55.8524 16.933 56.8891 15.5508C57.8827 14.2549 58.2714 12.4406 57.8395 10.9287C57.1483 8.42333 55.1613 6.04752 51.4896 3.41253C48.5954 1.2095 45.4421 0 42.8935 0Z" fill="white"/>
<path d="M26.7818 51.5772C27.4496 51.5772 27.9913 51.0355 27.9913 50.3677C27.9913 49.6999 27.4496 49.1582 26.7818 49.1582C26.114 49.1582 25.5723 49.6999 25.5723 50.3677C25.5723 51.0355 26.114 51.5772 26.7818 51.5772Z" fill="white" fill-opacity="0.2"/>
<path d="M26.0907 51.145C25.6155 50.6699 25.6155 49.8923 26.0907 49.4172C26.1771 49.3308 26.2635 49.2876 26.3499 49.2012C26.1771 49.2444 26.0475 49.3308 25.9179 49.4604C25.4427 49.9355 25.4427 50.7131 25.9179 51.1882C26.3067 51.577 26.9114 51.6634 27.3866 51.4042C26.9546 51.577 26.4363 51.4906 26.0907 51.145Z" fill="url(#paint9_linear_46973_53558)"/>
<path d="M27.2133 50.0223C27.3563 50.0223 27.4725 49.9061 27.4725 49.7631C27.4725 49.6201 27.3563 49.5039 27.2133 49.5039C27.0703 49.5039 26.9541 49.6201 26.9541 49.7631C26.9541 49.9061 27.0703 50.0223 27.2133 50.0223Z" fill="white" fill-opacity="0.3"/>
<path d="M33.0894 50.9717C33.7572 50.9717 34.2989 50.4301 34.2989 49.7622C34.2989 49.0944 33.7572 48.5527 33.0894 48.5527C32.4216 48.5527 31.8799 49.0944 31.8799 49.7622C31.8799 50.4301 32.4216 50.9717 33.0894 50.9717Z" fill="white" fill-opacity="0.2"/>
<path d="M32.3973 50.5395C31.9222 50.0644 31.9222 49.2868 32.3973 48.8117C32.4837 48.7253 32.5701 48.6821 32.6565 48.5957C32.4837 48.6389 32.3541 48.7253 32.2245 48.8549C31.7494 49.33 31.7494 50.1076 32.2245 50.5827C32.6133 50.9715 33.2181 51.0579 33.6932 50.7987C33.2613 50.9715 32.7429 50.8851 32.3973 50.5395Z" fill="url(#paint10_linear_46973_53558)"/>
<path d="M33.5199 49.4168C33.6629 49.4168 33.7791 49.3006 33.7791 49.1576C33.7791 49.0146 33.6629 48.8984 33.5199 48.8984C33.3769 48.8984 33.2607 49.0146 33.2607 49.1576C33.2607 49.3006 33.3769 49.4168 33.5199 49.4168Z" fill="white" fill-opacity="0.3"/>
<path d="M29.9794 53.781C30.4805 53.781 30.8865 53.375 30.8865 52.8739C30.8865 52.3728 30.4805 51.9668 29.9794 51.9668C29.4783 51.9668 29.0723 52.3728 29.0723 52.8739C29.0723 53.375 29.4783 53.781 29.9794 53.781Z" fill="white" fill-opacity="0.2"/>
<path d="M29.461 53.4333C29.1155 53.0877 29.1155 52.483 29.461 52.1374C29.5042 52.0942 29.5906 52.051 29.6338 52.0078C29.5042 52.051 29.4178 52.1374 29.3314 52.2238C28.9859 52.5694 28.9859 53.1741 29.3314 53.5197C29.6338 53.8221 30.0658 53.8653 30.4546 53.6493C30.109 53.7789 29.7202 53.6925 29.461 53.4333Z" fill="url(#paint11_linear_46973_53558)"/>
<path d="M30.2822 52.5702C30.3776 52.5702 30.4549 52.4929 30.4549 52.3974C30.4549 52.3019 30.3776 52.2246 30.2822 52.2246C30.1867 52.2246 30.1094 52.3019 30.1094 52.3974C30.1094 52.4929 30.1867 52.5702 30.2822 52.5702Z" fill="white" fill-opacity="0.3"/>
<path d="M35.5497 53.1326C36.0508 53.1326 36.4568 52.7266 36.4568 52.2255C36.4568 51.7244 36.0508 51.3184 35.5497 51.3184C35.0486 51.3184 34.6426 51.7244 34.6426 52.2255C34.6426 52.7266 35.0486 53.1326 35.5497 53.1326Z" fill="white" fill-opacity="0.2"/>
<path d="M35.0313 52.7868C34.6858 52.4412 34.6858 51.8365 35.0313 51.4909C35.0745 51.4477 35.1609 51.4045 35.2041 51.3613C35.0745 51.4045 34.9882 51.4909 34.9018 51.5773C34.5562 51.9229 34.5562 52.5276 34.9018 52.8732C35.2041 53.1756 35.6361 53.2188 36.0249 53.0028C35.6793 53.1324 35.2905 53.046 35.0313 52.7868Z" fill="url(#paint12_linear_46973_53558)"/>
<path d="M35.8525 51.9217C35.9479 51.9217 36.0253 51.8444 36.0253 51.749C36.0253 51.6535 35.9479 51.5762 35.8525 51.5762C35.757 51.5762 35.6797 51.6535 35.6797 51.749C35.6797 51.8444 35.757 51.9217 35.8525 51.9217Z" fill="white" fill-opacity="0.3"/>
<path d="M21.6413 51.144C22.739 51.144 23.6284 50.2546 23.6284 49.157C23.6284 48.0598 22.739 47.1699 21.6413 47.1699C20.5441 47.1699 19.6543 48.0598 19.6543 49.157C19.6543 50.2546 20.5441 51.144 21.6413 51.144Z" fill="white" fill-opacity="0.2"/>
<path d="M20.5181 50.4109C19.7406 49.6334 19.7406 48.3807 20.5181 47.6032C20.6477 47.4736 20.7773 47.3872 20.9501 47.3008C20.6909 47.3872 20.4749 47.56 20.2589 47.7327C19.4814 48.5103 19.4814 49.763 20.2589 50.5405C20.9069 51.1885 21.9004 51.3181 22.6779 50.8429C21.9436 51.1453 21.0797 51.0157 20.5181 50.4109Z" fill="url(#paint13_linear_46973_53558)"/>
<path d="M22.3324 48.5534C22.5708 48.5534 22.7643 48.3599 22.7643 48.1214C22.7643 47.883 22.5708 47.6895 22.3324 47.6895C22.0939 47.6895 21.9004 47.883 21.9004 48.1214C21.9004 48.3599 22.0939 48.5534 22.3324 48.5534Z" fill="white" fill-opacity="0.3"/>
<path d="M39.3972 46.2631C40.4948 46.2631 41.3842 45.3737 41.3842 44.2761C41.3842 43.1789 40.4948 42.2891 39.3972 42.2891C38.3 42.2891 37.4102 43.1789 37.4102 44.2761C37.4102 45.3737 38.3 46.2631 39.3972 46.2631Z" fill="white" fill-opacity="0.2"/>
<path d="M38.23 45.5301C37.4525 44.7525 37.4525 43.4998 38.23 42.7223C38.3596 42.5927 38.4892 42.5063 38.662 42.4199C38.4028 42.5063 38.1868 42.6791 37.9708 42.8519C37.1933 43.6294 37.1933 44.8821 37.9708 45.6597C38.6188 46.3076 39.6123 46.4372 40.3899 45.962C39.6555 46.2644 38.8348 46.1348 38.23 45.5301Z" fill="url(#paint14_linear_46973_53558)"/>
<path d="M40.0882 43.6725C40.3267 43.6725 40.5202 43.479 40.5202 43.2406C40.5202 43.0021 40.3267 42.8086 40.0882 42.8086C39.8498 42.8086 39.6562 43.0021 39.6562 43.2406C39.6562 43.479 39.8498 43.6725 40.0882 43.6725Z" fill="white" fill-opacity="0.3"/>
<defs>
<radialGradient id="paint0_radial_46973_53558" cx="0" cy="0" r="1" gradientUnits="userSpaceOnUse" gradientTransform="translate(55.1082 8.6827) scale(19.3064 19.3064)">
<stop stop-color="#FFEAFF" stop-opacity="0.6"/>
<stop offset="0.68" stop-color="#A087C9"/>
<stop offset="1" stop-color="#10002F"/>
</radialGradient>
<radialGradient id="paint1_radial_46973_53558" cx="0" cy="0" r="1" gradientUnits="userSpaceOnUse" gradientTransform="translate(44.3666 16.9155) scale(47.2359)">
<stop stop-color="#FFEAFF" stop-opacity="0.6"/>
<stop offset="0.68" stop-color="#A087C9"/>
<stop offset="1" stop-color="#10002F"/>
</radialGradient>
<linearGradient id="paint2_linear_46973_53558" x1="24.5059" y1="57.3672" x2="32.2294" y2="9.71839" gradientUnits="userSpaceOnUse">
<stop stop-color="#81FFFF" stop-opacity="0.6"/>
<stop offset="0.62" stop-color="white" stop-opacity="0"/>
<stop offset="1" stop-color="white" stop-opacity="0"/>
</linearGradient>
<linearGradient id="paint3_linear_46973_53558" x1="45.399" y1="17.164" x2="25.4318" y2="35.4845" gradientUnits="userSpaceOnUse">
<stop stop-color="white" stop-opacity="0.6"/>
<stop offset="0.29" stop-color="white" stop-opacity="0.6"/>
<stop offset="0.78" stop-color="white" stop-opacity="0"/>
<stop offset="1" stop-color="white" stop-opacity="0"/>
</linearGradient>
<linearGradient id="paint4_linear_46973_53558" x1="5.42081" y1="44.8029" x2="51.3081" y2="44.8029" gradientUnits="userSpaceOnUse">
<stop stop-color="#0002E9"/>
<stop offset="1" stop-color="#FF00C7"/>
</linearGradient>
<linearGradient id="paint5_linear_46973_53558" x1="53.4802" y1="35.3604" x2="28.5039" y2="58.9645" gradientUnits="userSpaceOnUse">
<stop stop-color="white" stop-opacity="0.6"/>
<stop offset="0.29" stop-color="white" stop-opacity="0.6"/>
<stop offset="0.78" stop-color="white" stop-opacity="0"/>
<stop offset="1" stop-color="white" stop-opacity="0"/>
</linearGradient>
<linearGradient id="paint6_linear_46973_53558" x1="5.42081" y1="44.8029" x2="29.9703" y2="44.8029" gradientUnits="userSpaceOnUse">
<stop stop-color="#000292" stop-opacity="0.7"/>
<stop offset="1" stop-color="#7D00C7" stop-opacity="0.7"/>
</linearGradient>
<linearGradient id="paint7_linear_46973_53558" x1="5.45161" y1="35.4695" x2="51.2775" y2="35.4695" gradientUnits="userSpaceOnUse">
<stop stop-color="#000292"/>
<stop offset="1" stop-color="#BE00C7"/>
</linearGradient>
<linearGradient id="paint8_linear_46973_53558" x1="50.526" y1="10.8911" x2="47.2327" y2="16.2431" gradientUnits="userSpaceOnUse">
<stop stop-color="white" stop-opacity="0.6"/>
<stop offset="0.29" stop-color="white" stop-opacity="0.6"/>
<stop offset="0.78" stop-color="white" stop-opacity="0"/>
<stop offset="1" stop-color="white" stop-opacity="0"/>
</linearGradient>
<linearGradient id="paint9_linear_46973_53558" x1="25.5603" y1="50.4046" x2="27.3879" y2="50.4046" gradientUnits="userSpaceOnUse">
<stop stop-color="white" stop-opacity="0.6"/>
<stop offset="0.29" stop-color="white" stop-opacity="0.6"/>
<stop offset="0.78" stop-color="white" stop-opacity="0"/>
<stop offset="1" stop-color="white" stop-opacity="0"/>
</linearGradient>
<linearGradient id="paint10_linear_46973_53558" x1="31.8625" y1="49.791" x2="33.6902" y2="49.791" gradientUnits="userSpaceOnUse">
<stop stop-color="white" stop-opacity="0.6"/>
<stop offset="0.29" stop-color="white" stop-opacity="0.6"/>
<stop offset="0.78" stop-color="white" stop-opacity="0"/>
<stop offset="1" stop-color="white" stop-opacity="0"/>
</linearGradient>
<linearGradient id="paint11_linear_46973_53558" x1="29.0666" y1="52.8821" x2="30.4387" y2="52.8821" gradientUnits="userSpaceOnUse">
<stop stop-color="white" stop-opacity="0.6"/>
<stop offset="0.29" stop-color="white" stop-opacity="0.6"/>
<stop offset="0.78" stop-color="white" stop-opacity="0"/>
<stop offset="1" stop-color="white" stop-opacity="0"/>
</linearGradient>
<linearGradient id="paint12_linear_46973_53558" x1="34.6183" y1="52.2339" x2="35.9903" y2="52.2339" gradientUnits="userSpaceOnUse">
<stop stop-color="white" stop-opacity="0.6"/>
<stop offset="0.29" stop-color="white" stop-opacity="0.6"/>
<stop offset="0.78" stop-color="white" stop-opacity="0"/>
<stop offset="1" stop-color="white" stop-opacity="0"/>
</linearGradient>
<linearGradient id="paint13_linear_46973_53558" x1="19.656" y1="49.2088" x2="22.6406" y2="49.2088" gradientUnits="userSpaceOnUse">
<stop stop-color="white" stop-opacity="0.6"/>
<stop offset="0.29" stop-color="white" stop-opacity="0.6"/>
<stop offset="0.78" stop-color="white" stop-opacity="0"/>
<stop offset="1" stop-color="white" stop-opacity="0"/>
</linearGradient>
<linearGradient id="paint14_linear_46973_53558" x1="37.3844" y1="44.3266" x2="40.369" y2="44.3266" gradientUnits="userSpaceOnUse">
<stop stop-color="white" stop-opacity="0.6"/>
<stop offset="0.29" stop-color="white" stop-opacity="0.6"/>
<stop offset="0.78" stop-color="white" stop-opacity="0"/>
<stop offset="1" stop-color="white" stop-opacity="0"/>
</linearGradient>
</defs>
</svg>
