<svg width="60" height="60" viewBox="0 0 60 60" fill="none" xmlns="http://www.w3.org/2000/svg">
<circle cx="30" cy="30" r="30" fill="white"/>
<path d="M2.2327 29.921C2.16503 14.6052 14.7853 2.06389 30.0898 2.09772C45.1124 2.13156 57.9131 14.3233 57.8568 30.0564C57.8004 45.6654 44.9996 57.9248 29.7402 57.7782C14.65 57.6203 2.16503 45.203 2.2327 29.921ZM17.1876 40.8609C17.2552 40.9737 17.2665 41.0075 17.2891 41.03C17.3455 41.0977 17.4131 41.1767 17.4695 41.2443C21.2703 45.1579 25.7816 47.1992 31.3304 46.6128C34.2064 46.3082 36.8793 45.4624 39.2816 43.8045C43.8154 40.6917 43.7816 35.2218 41.0071 31.7932C39.6989 30.1691 37.9733 29.0639 36.1462 28.1504C33.9131 27.0338 31.6237 26.0075 29.3906 24.8571C27.9695 24.124 26.6274 23.2331 25.8605 21.7443C24.7778 19.6579 24.9921 17.2895 27.4959 16.015C28.5222 15.4849 29.6387 15.1917 30.7891 15.1804C33.5184 15.1692 35.9883 15.9812 38.1312 17.6729C39.1575 18.4849 40.071 19.421 41.0861 20.3346C41.5372 19.9398 42.0334 19.5113 42.541 19.0601C42.3718 18.8797 42.259 18.7556 42.1462 18.6316C38.571 14.5601 34.15 12.5752 28.6801 13.2519C25.7703 13.6128 23.165 14.7067 20.9432 16.6579C17.1876 19.9285 17.4357 25.1391 19.9056 28.2519C21.3831 30.1128 23.3906 31.2293 25.4996 32.1879C27.6425 33.1579 29.8192 34.0601 31.9507 35.0639C33.338 35.718 34.6124 36.5977 35.3004 38.0188C36.3492 40.1955 36.1124 42.1579 33.8342 43.4549C32.368 44.2894 30.7778 44.6955 29.1086 44.6391C25.838 44.5263 22.9507 43.3646 20.4695 41.2105C19.838 40.6691 19.2402 40.0827 18.6086 39.5075C18.1237 39.9925 17.6613 40.421 17.1876 40.8609Z" fill="black"/>
<path d="M23.5259 17.2556C23.4357 17.8646 23.3455 18.3496 23.3004 18.8459C23.0635 21.1804 23.9207 23.0977 25.6011 24.6654C27.3605 26.3008 29.5259 27.2481 31.6575 28.2406C33.8568 29.2669 36.1124 30.1917 38.0522 31.7143C39.8568 33.1241 40.8718 34.9286 40.8718 37.2519C40.8605 39.6429 39.541 41.1993 37.6237 42.4512C37.7365 41.8196 37.9056 41.2444 37.9282 40.6579C38.0184 37.7482 36.6876 35.5263 34.2515 34.094C32.368 32.9775 30.2929 32.1654 28.3192 31.1955C26.6726 30.3948 24.9808 29.673 23.4357 28.7143C21.056 27.2369 19.9507 25.0038 20.1763 22.1955C20.3116 20.5037 21.2252 19.1842 22.4771 18.0902C22.7816 17.797 23.1199 17.5601 23.5259 17.2556Z" fill="black"/>
</svg>
