<svg width="60" height="60" viewBox="0 0 60 60" fill="none" xmlns="http://www.w3.org/2000/svg">
<g clip-path="url(#clip0_46973_53655)">
<path d="M30 60C21.9848 60 14.4545 56.8788 8.78788 51.2121C3.12121 45.5455 0 38.0152 0 30C0 21.9848 3.12121 14.4545 8.78788 8.78788C14.4545 3.12121 21.9848 0 30 0C38.0152 0 45.5455 3.12121 51.2121 8.78788C56.8788 14.4545 60 21.9848 60 30C60 38.0152 56.8788 45.5455 51.2121 51.2121C45.5455 56.8788 38.0152 60 30 60ZM30 2.43939C14.803 2.43939 2.43939 14.803 2.43939 30C2.43939 45.197 14.803 57.5606 30 57.5606C45.197 57.5606 57.5606 45.197 57.5606 30C57.5606 14.803 45.197 2.43939 30 2.43939ZM26.4242 21.2121L8.90909 16.8788L20.5455 30.6818L11 46.0152L27.7273 39.2121L39.3636 53.0152L38.0606 35.0152L54.7879 28.2121L37.2727 23.8788L35.9697 5.87879L26.4242 21.2121Z" fill="url(#paint0_linear_46973_53655)"/>
</g>
<defs>
<linearGradient id="paint0_linear_46973_53655" x1="4.46695" y1="23.6907" x2="62.7381" y2="38.0897" gradientUnits="userSpaceOnUse">
<stop stop-color="#FEF5A0"/>
<stop offset="0.6354" stop-color="#93D4CB"/>
<stop offset="1" stop-color="#719AD1"/>
</linearGradient>
<clipPath id="clip0_46973_53655">
<rect width="60" height="60" fill="white"/>
</clipPath>
</defs>
</svg>
