<svg width="60" height="60" viewBox="0 0 60 60" fill="none" xmlns="http://www.w3.org/2000/svg">
<path d="M25.7843 47.7188C27.4718 53.8125 33.2843 58.5 36.2843 58.3125C36.378 58.3125 47.5342 56.25 53.7217 45.9375C58.503 37.9688 56.9093 30.2813 50.3468 30.0938C48.0968 30.1875 22.6905 36.0938 25.7843 47.7188" fill="url(#paint0_linear_47608_90112)"/>
<path d="M49.7808 8.53092C41.437 1.40592 29.812 -0.281582 19.7808 4.21842C19.1245 4.49967 18.562 4.78092 17.9995 5.06217C17.6245 5.24967 17.2495 5.53092 16.8745 5.71842H16.9683C15.7495 6.56217 14.7183 7.49967 13.8745 8.62467C5.81203 19.4059 33.0933 27.2809 47.7183 27.2809C54.4683 32.1559 56.3433 13.6872 49.7808 8.53092V8.53092Z" fill="url(#paint1_linear_47608_90112)"/>
<path d="M21.4688 8.71875C17.7188 14.3437 5.15625 18.375 3.09375 17.7187L3.375 17.1562C4.03125 15.75 4.875 14.4375 5.8125 13.125C7.6875 10.6875 9.84375 8.4375 12.375 6.65625C13.125 6.09375 13.9687 5.53125 14.7187 5.0625C15.9375 4.3125 17.4375 3.9375 18.8438 3.9375C24.4688 4.03125 21.4688 8.53125 21.4688 8.53125" fill="url(#paint2_linear_47608_90112)"/>
<path d="M18.375 48.75C18.6562 50.5312 18.375 57.5625 18 58.125C17.7187 58.125 17.0625 58.2187 15.1875 57.0937C14.1562 56.5312 13.2187 55.875 12.2812 55.2187C11.0625 54.2812 9.9375 53.3437 8.8125 52.2187C7.6875 51.1875 6.75 49.9687 5.8125 48.75C3.9375 46.2187 2.53125 43.5 1.59375 40.5C1.125 39 0.65625 37.4062 0.46875 35.9062C-0.09375 32.7187 -0.09375 29.3437 0.46875 26.1562C0.75 24.5625 1.125 23.0625 1.59375 21.5625C1.6875 21.2812 1.78125 21 1.875 20.625C4.03125 23.5312 6.46875 26.1562 8.625 29.0625C10.7812 31.9687 13.4062 36.375 13.9687 37.3125C17.5312 43.4062 18.0937 47.0625 18.375 48.75Z" fill="url(#paint3_linear_47608_90112)"/>
<path d="M59.9995 31.0312C59.9995 34.7812 59.2495 38.5313 57.937 42.0938C54.3745 45.8438 30.562 36.5625 30.3745 36.4688C27.0932 35.0625 17.1557 30.6562 16.312 23.8125C14.9995 13.9687 34.8745 7.125 43.5932 6.84375C44.6245 6.84375 47.812 6.84375 49.687 8.4375C56.2495 14.1562 59.9995 22.4062 59.9995 31.0312Z" fill="url(#paint4_linear_47608_90112)"/>
<path d="M43.8732 57.75C41.2482 58.9687 38.4357 58.125 39.1857 55.5C40.592 50.625 53.0607 45.6563 55.7795 45.375C56.1545 45.375 56.2482 45.5625 56.1545 45.8438C53.2482 50.9063 48.9357 55.0312 43.8732 57.75" fill="url(#paint5_linear_47608_90112)"/>
<defs>
<linearGradient id="paint0_linear_47608_90112" x1="41.0233" y1="58.2403" x2="41.0233" y2="30.0112" gradientUnits="userSpaceOnUse">
<stop stop-color="#4366C2"/>
<stop offset="0.15" stop-color="#3458B8"/>
<stop offset="0.4" stop-color="#2348AC"/>
<stop offset="0.67" stop-color="#193FA5"/>
<stop offset="1" stop-color="#163CA3"/>
</linearGradient>
<linearGradient id="paint1_linear_47608_90112" x1="33.1523" y1="28.1134" x2="33.1523" y2="1.74248" gradientUnits="userSpaceOnUse">
<stop stop-color="#4366C2"/>
<stop offset="0.15" stop-color="#3458B8"/>
<stop offset="0.4" stop-color="#2348AC"/>
<stop offset="0.67" stop-color="#193FA5"/>
<stop offset="1" stop-color="#163CA3"/>
</linearGradient>
<linearGradient id="paint2_linear_47608_90112" x1="3.10406" y1="10.9472" x2="22.2441" y2="10.9472" gradientUnits="userSpaceOnUse">
<stop stop-color="#58C66B"/>
<stop offset="1" stop-color="#5491F6"/>
</linearGradient>
<linearGradient id="paint3_linear_47608_90112" x1="5.72839e-09" y1="39.4678" x2="18.4847" y2="39.4678" gradientUnits="userSpaceOnUse">
<stop stop-color="#58C66B"/>
<stop offset="1" stop-color="#5491F6"/>
</linearGradient>
<linearGradient id="paint4_linear_47608_90112" x1="16.1901" y1="24.9431" x2="59.9995" y2="24.9431" gradientUnits="userSpaceOnUse">
<stop stop-color="#58C66B"/>
<stop offset="1" stop-color="#5491F6"/>
</linearGradient>
<linearGradient id="paint5_linear_47608_90112" x1="39.0329" y1="51.8372" x2="56.1741" y2="51.8372" gradientUnits="userSpaceOnUse">
<stop stop-color="#58C66B"/>
<stop offset="1" stop-color="#5491F6"/>
</linearGradient>
</defs>
</svg>
