<svg width="24" height="24" viewBox="0 0 24 24" fill="none" xmlns="http://www.w3.org/2000/svg">
<g clip-path="url(#clip0_4040_1184)">
<path d="M11.9998 24C18.6272 24 23.9998 18.6274 23.9998 12C23.9998 5.37258 18.6272 0 11.9998 0C5.3724 0 -0.000183105 5.37258 -0.000183105 12C-0.000183105 18.6274 5.3724 24 11.9998 24Z" fill="black"/>
<path d="M18.3032 14.0735C18.2371 14.4107 18.1331 14.7132 17.9881 14.981C17.8085 15.3151 17.5533 15.6207 17.2162 15.9012C16.8948 16.1659 16.5608 16.3581 16.2205 16.4747C15.8802 16.5913 15.4486 16.6481 14.9287 16.6481C14.2355 16.6481 13.6116 16.5062 13.0571 16.2226C12.5025 15.939 12.0929 15.5199 11.8282 14.9653C11.5384 15.4726 11.135 15.8791 10.6152 16.1785C10.0953 16.4779 9.44934 16.6291 8.67423 16.6291C8.16693 16.6291 7.71006 16.5503 7.30362 16.3959C6.9003 16.2415 6.55371 16.0178 6.26385 15.7279C6.03384 15.4978 5.85105 15.2268 5.71872 14.9212C5.58639 14.6155 5.51706 14.2657 5.51706 13.8718C5.51706 13.4779 5.59269 13.1218 5.74395 12.7972C5.89518 12.4726 6.09999 12.1985 6.3615 11.9747C6.61989 11.7478 6.92235 11.5714 7.26264 11.4453C7.60293 11.3193 7.959 11.2531 8.33079 11.2531C8.80341 11.2405 9.27288 11.2342 9.73605 11.2279C10.1992 11.2216 10.6687 11.2184 11.1413 11.2184V10.2825C11.1413 9.69321 10.9712 9.26148 10.6277 8.99049C10.2843 8.71947 9.84003 8.58396 9.28548 8.58396C8.73093 8.58396 8.27091 8.70687 7.90542 8.95581C7.54308 9.20475 7.34457 9.60498 7.30677 10.1627L5.88888 9.9075C5.93301 9.51675 6.04011 9.1764 6.20712 8.88018C6.40875 8.52093 6.67029 8.23104 6.98538 8.00415C7.30362 7.78041 7.66596 7.61337 8.06928 7.50939C8.47572 7.40541 8.88534 7.35498 9.30123 7.35498C9.55647 7.35498 9.81483 7.38018 10.0827 7.43376C10.3505 7.48734 10.6088 7.56297 10.8641 7.66695C11.1161 7.77093 11.3524 7.90644 11.5667 8.07348C11.781 8.24049 11.9606 8.43585 12.1118 8.65329C12.4017 8.24994 12.764 7.93797 13.202 7.71738C13.6399 7.49679 14.1882 7.38648 14.8499 7.38648C15.6029 7.38648 16.2048 7.52199 16.6616 7.79301C17.1185 8.064 17.5029 8.44215 17.8148 8.92746C18.0795 9.33396 18.2591 9.77514 18.3536 10.2542C18.445 10.7331 18.4923 11.2972 18.4923 11.9464V12.397L12.5624 12.4159V12.4852C12.5624 12.8571 12.6033 13.2163 12.6821 13.5693C12.764 13.9222 12.8964 14.2342 13.0822 14.5052C13.2682 14.7762 13.5076 14.9968 13.8101 15.1638C14.1126 15.3308 14.4812 15.4159 14.9224 15.4159C15.3477 15.4159 15.7542 15.2899 16.1354 15.0346C16.5167 14.7794 16.7719 14.376 16.8979 13.8214L18.3032 14.0735ZM8.66793 12.3466C8.21736 12.3466 7.82664 12.4758 7.49895 12.7373C7.16814 12.9989 7.00428 13.3707 7.00428 13.856C7.00428 14.3413 7.16181 14.7132 7.48005 14.9747C7.79829 15.2363 8.18898 15.3655 8.649 15.3655C8.98299 15.3655 9.31383 15.3151 9.63522 15.2174C9.95976 15.1197 10.237 14.9558 10.4671 14.7226C10.801 14.3886 11.0059 14.0451 11.072 13.6985C11.1413 13.3518 11.176 12.9768 11.176 12.5703V12.3277L8.66793 12.3466ZM16.9925 11.2531C16.9799 10.8497 16.9326 10.481 16.8444 10.1533C16.7593 9.82242 16.6175 9.5388 16.419 9.29616C16.2552 9.08817 16.0472 8.91801 15.7951 8.78565C15.5399 8.65329 15.2185 8.58711 14.8247 8.58711C14.4907 8.58711 14.2008 8.64384 13.9582 8.76045C13.7156 8.87703 13.5013 9.03144 13.3154 9.22998C13.0728 9.48522 12.8901 9.78459 12.7703 10.1312C12.6506 10.4779 12.5876 10.8529 12.5876 11.2594H16.9925V11.2531Z" fill="white"/>
<path d="M11.9984 24C5.38164 24 0 18.6176 0 12C0 5.38236 5.38164 0 11.9984 0C18.6152 0 24 5.38236 24 12C24 18.6176 18.6152 24 11.9984 24ZM11.9984 1.32668C6.11577 1.32668 1.3265 6.11346 1.3265 12C1.3265 17.8866 6.11262 22.6733 11.9984 22.6733C17.8842 22.6733 22.6703 17.8866 22.6703 12C22.6703 6.11346 17.8842 1.32668 11.9984 1.32668Z" fill="white"/>
</g>
<defs>
<clipPath id="clip0_4040_1184">
<rect width="24" height="24" fill="white"/>
</clipPath>
</defs>
</svg>
