<svg width="24" height="24" viewBox="0 0 24 24" fill="none" xmlns="http://www.w3.org/2000/svg">
<g clip-path="url(#clip0_4136_8650)">
<path d="M24 12C24 5.37258 18.6274 0 12 0C5.37258 0 0 5.37258 0 12C0 18.6274 5.37258 24 12 24C18.6274 24 24 18.6274 24 12Z" fill="#6B6FCC"/>
<path d="M12.5581 19.5349C12.6689 19.535 12.7787 19.513 12.8811 19.4701C12.9835 19.4271 13.0765 19.3642 13.1548 19.2848L19.7528 12.6041C19.8312 12.5248 19.8933 12.4306 19.9357 12.3269C19.9781 12.2233 20 12.1122 20 12C20 11.8878 19.9781 11.7767 19.9357 11.673C19.8933 11.5693 19.8312 11.4752 19.7528 11.3958L13.1548 4.71515C13.0765 4.63573 12.9835 4.57275 12.8811 4.52983C12.7787 4.48692 12.6689 4.46492 12.5581 4.46509V19.5349Z" fill="#6667AB"/>
<path d="M12.5581 19.5349C12.6689 19.535 12.7787 19.513 12.8811 19.4701C12.9835 19.4271 13.0765 19.3642 13.1548 19.2848L19.7528 12.6041C19.8312 12.5248 19.8933 12.4306 19.9357 12.3269C19.9781 12.2233 20 12.1122 20 12C20 11.8878 19.9781 11.7767 19.9357 11.673C19.8933 11.5693 19.8312 11.4752 19.7528 11.3958L13.1548 4.71515C13.0765 4.63573 12.9835 4.57275 12.8811 4.52983C12.7787 4.48692 12.6689 4.46492 12.5581 4.46509V19.5349Z" fill="#ECEDFE"/>
<path opacity="0.5" d="M11.4419 16.7441C11.226 16.7441 11.0101 16.6923 10.8455 16.5866L4.24696 12.3802C3.91768 12.1702 3.91768 11.8297 4.24696 11.6197L10.845 7.41332C11.0096 7.30835 11.2255 7.25574 11.4414 7.25574L11.4419 16.7441Z" fill="#ECEDFE"/>
<path opacity="0.5" d="M11.4419 13.9535C11.226 13.9535 11.0101 13.9017 10.8455 13.7962L4.24696 9.58965C3.91768 9.3797 3.91768 9.03911 4.24696 8.82891L10.845 4.62268C11.0086 4.51693 11.2255 4.46509 11.4419 4.46509V13.9535Z" fill="#ECEDFE"/>
<path opacity="0.5" d="M11.4419 19.5348C11.226 19.5348 11.0101 19.483 10.8455 19.3772L4.24696 15.171C3.91768 14.9607 3.91768 14.6201 4.24696 14.4102L10.845 10.2037C11.0096 10.0987 11.2255 10.0464 11.4414 10.0464L11.4419 19.5348Z" fill="#ECEDFE"/>
</g>
<defs>
<clipPath id="clip0_4136_8650">
<rect width="24" height="24" fill="white"/>
</clipPath>
</defs>
</svg>
