<svg width="24" height="24" viewBox="0 0 24 24" fill="none" xmlns="http://www.w3.org/2000/svg">
<g clip-path="url(#clip0_5551_3338)">
<circle cx="12" cy="12" r="12" fill="#FFD274"/>
<circle cx="11.9921" cy="12.0079" r="9.23785" fill="#B17319"/>
<path d="M11.6566 0H12.3281L12.345 0.000466944C13.5915 0.0419611 14.8299 0.267894 16.0053 0.687197C15.8608 0.756096 15.6964 0.786338 15.5381 0.802737C14.9494 0.624611 14.3449 0.483988 13.736 0.396799C13.3765 0.354617 13.0155 0.324608 12.6558 0.286406C12.4249 0.256409 12.1865 0.272353 11.9532 0.264848C11.6947 0.267661 11.4331 0.259455 11.1757 0.287585C10.4536 0.318282 9.75257 0.44344 9.05133 0.612893C8.26032 0.816335 7.4925 1.10204 6.76149 1.46602C6.43266 1.63312 6.11063 1.81454 5.79586 2.00743C5.57555 2.14969 5.35008 2.28914 5.1429 2.44758C4.77609 2.71759 4.42313 3.00727 4.08 3.30681C3.96118 3.42211 3.83391 3.52828 3.71602 3.64454C2.97423 4.37227 2.33742 5.20243 1.81219 6.09869C1.44796 6.72516 1.14843 7.38235 0.907964 8.06556C0.698667 8.67938 0.534606 9.30962 0.427025 9.94923C0.355309 10.2891 0.346173 10.6211 0.301642 10.9644C0.280778 11.2406 0.239297 11.5109 0.247494 11.7891C0.234136 12.4214 0.263432 13.0486 0.348741 13.6754C0.451408 14.37 0.598828 15.0504 0.825939 15.7155C0.912421 16.0064 1.03547 16.2893 1.14726 16.5717C1.18805 16.6765 1.23773 16.7769 1.28531 16.8786C1.46203 17.2807 1.67742 17.6667 1.90172 18.0443C2.20242 18.5506 2.5486 19.0275 2.92735 19.4783C3.45562 20.1342 4.05773 20.7294 4.72031 21.2492C5.46914 21.8326 6.29133 22.3416 7.16063 22.7246C7.5525 22.9006 7.95494 23.0506 8.36368 23.1825C8.86783 23.3344 9.38084 23.4662 9.90072 23.5529C9.94899 23.5622 9.99726 23.5733 10.0458 23.5824C10.0831 23.6742 10.1353 23.7568 10.1916 23.8381C10.1597 23.8425 10.1279 23.8465 10.0957 23.8498C7.60853 23.4525 5.26149 22.2551 3.49172 20.4617C2.77031 19.7431 2.14968 18.9305 1.63617 18.0514C0.79805 16.6184 0.262025 15.0085 0.0757037 13.3587C0.0607037 13.2526 0.0576544 13.1454 0.0403087 13.0397C0.0285926 12.8071 0.00467902 12.5763 0 12.3432V11.6721C0.0077284 11.3482 0.0386668 11.0271 0.0651483 10.7044C0.0885928 10.5586 0.100778 10.4112 0.124445 10.2654C0.428198 8.16681 1.30242 6.15751 2.62805 4.50282C3.06961 3.94993 3.56414 3.43806 4.0943 2.96977C5.27086 1.93899 6.65274 1.14164 8.134 0.638676C9.2686 0.249616 10.459 0.0410151 11.6566 0Z" fill="#8E5E0B"/>
<path d="M16.0053 0.687256C17.3825 1.17264 18.6631 1.91444 19.7778 2.85686C19.7051 2.90421 19.6158 2.9696 19.5279 2.97803C19.4703 2.94405 19.4204 2.89342 19.3685 2.85076C18.9652 2.52804 18.5419 2.23249 18.1036 1.95897C17.3002 1.46983 16.4373 1.0796 15.5381 0.802796C15.6964 0.786397 15.8609 0.756155 16.0053 0.687256Z" fill="#BE883A"/>
<path d="M5.76675 2.00732C5.85257 2.09193 5.91646 2.20232 5.98922 2.30122C6.32759 2.77396 6.66316 3.24904 7.00433 3.7192C7.03674 3.76489 7.061 3.81435 7.08455 3.86498C6.80542 4.03092 6.53187 4.20881 6.27233 4.40475C6.09253 4.536 5.91576 4.66912 5.75066 4.81888C5.5844 4.9731 5.41439 5.1224 5.25838 5.28764C5.21268 5.23795 5.16883 5.18685 5.12592 5.13506C5.03102 5.01998 4.91419 4.92904 4.81974 4.81325C4.70174 4.66537 4.55808 4.54631 4.43193 4.40522C4.31836 4.27701 4.18777 4.16568 4.07607 4.0363C3.96087 3.89638 3.82492 3.77287 3.69736 3.64443C3.81465 3.52818 3.94129 3.42201 4.05952 3.3067C4.40092 3.00716 4.75211 2.71748 5.11707 2.44747C5.32321 2.28904 5.54755 2.14958 5.76675 2.00732Z" fill="#FFDFB0"/>
<path d="M12.5701 2.52058C12.9831 2.54308 13.4 2.6223 13.8058 2.70293C15.6061 3.08613 17.2965 3.99949 18.6007 5.30519C18.799 5.4962 18.9844 5.70153 19.1658 5.90871C19.721 6.59402 20.1861 7.352 20.5419 8.16059C20.7576 8.67223 20.9453 9.18575 21.0743 9.72689C21.2376 10.3794 21.3348 11.0513 21.3572 11.7236C21.3808 12.0016 21.3697 12.2842 21.3533 12.5623C21.356 12.7891 21.3269 13.0124 21.2947 13.2362C21.2638 13.3356 21.2462 13.437 21.2282 13.5395C21.189 13.5248 21.1498 13.5103 21.1109 13.4956C21.1177 13.359 21.1392 13.2256 21.1566 13.0902C21.1804 12.8371 21.2091 12.5828 21.2121 12.3284C21.2245 11.8269 21.2154 11.3261 21.1491 10.828C21.0904 10.3407 20.9946 9.85698 20.86 9.38491C20.3598 7.74645 19.4181 6.24925 18.1483 5.10386C17.7694 4.7598 17.3639 4.4441 16.9327 4.16894C16.6655 3.99105 16.3887 3.82909 16.0957 3.69737C14.9866 3.16113 13.7743 2.85199 12.546 2.7791C12.1888 2.76785 11.8304 2.76503 11.4732 2.7805C10.7963 2.82363 10.121 2.93144 9.46785 3.11659C9.09122 3.23074 8.72229 3.36925 8.36225 3.52863C8.14863 3.62308 7.93969 3.73276 7.73098 3.83801C6.75947 4.3623 5.87939 5.05348 5.14551 5.88129C4.68355 6.39622 4.28058 6.96691 3.94129 7.57043C3.52618 8.3734 3.20694 9.24036 3.03414 10.1293C2.94227 10.5673 2.88886 11.0143 2.85878 11.4609C2.84338 11.9889 2.8385 12.5055 2.89796 13.0313C2.94459 13.4488 3.01339 13.8667 3.11623 14.2741C3.22 14.726 3.38254 15.1654 3.56163 15.592C3.86968 16.3016 4.25354 16.9745 4.72132 17.5904C5.51396 18.6395 6.52512 19.5192 7.67151 20.1571C8.20506 20.4289 8.75681 20.6608 9.33027 20.833C9.50789 20.8909 9.69031 20.9282 9.86965 20.9804C9.8866 21.0684 9.89557 21.1531 9.89323 21.2429C9.85798 21.2439 9.82297 21.2444 9.78796 21.2445C8.24215 20.8666 6.79259 20.1078 5.60654 19.0412C5.34303 18.7989 5.08348 18.5539 4.84795 18.2833C4.62408 18.0477 4.44172 17.7862 4.25073 17.5243C3.87272 16.9841 3.54904 16.4061 3.28623 15.8008C3.19435 15.5762 3.10294 15.3505 3.02248 15.1215C2.73728 14.3033 2.56192 13.4429 2.50339 12.578C2.4705 12.2084 2.48286 11.8316 2.48636 11.4609C2.49453 11.1808 2.52508 10.9018 2.57637 10.6264C2.83896 8.91621 3.57142 7.28894 4.66279 5.95206C4.84935 5.72074 5.0534 5.50534 5.25838 5.28762C5.41439 5.12238 5.5844 4.97308 5.75065 4.81886C5.91576 4.6691 6.09253 4.53598 6.27233 4.40473C6.53187 4.20879 6.80542 4.0309 7.08455 3.86496C7.51084 3.61253 7.95578 3.38823 8.41751 3.20894C9.35189 2.82762 10.3519 2.60379 11.3572 2.53277C11.759 2.50066 12.1671 2.51613 12.5701 2.52058Z" fill="#653912"/>
<path d="M11.59 3.41258C11.8695 3.41212 12.1499 3.41422 12.4294 3.41164C12.5244 3.41094 12.615 3.43203 12.7095 3.43719C13.0334 3.46157 13.3538 3.50938 13.675 3.55672C13.8531 3.58906 14.0301 3.61766 14.2015 3.67837C14.4979 3.75852 14.7908 3.84126 15.079 3.94836C15.3536 4.07726 15.6664 4.17617 15.9309 4.33297C16.0936 4.42766 16.272 4.50173 16.4285 4.60555C16.5948 4.72438 16.7762 4.81087 16.9374 4.93883C17.094 5.06235 17.2689 5.16664 17.415 5.30188C17.5311 5.4057 17.6598 5.48985 17.7664 5.60492C17.8853 5.73055 18.0283 5.82571 18.1351 5.96094C18.2293 6.07086 18.3412 6.15735 18.4294 6.27336C18.5 6.36664 18.59 6.44118 18.6579 6.53704C18.7575 6.6793 18.8818 6.7986 18.9721 6.94789C19.1071 7.12954 19.2341 7.3147 19.3479 7.51063C19.5074 7.73914 19.6184 8.00329 19.7547 8.24704C19.8565 8.45564 19.9387 8.67478 20.0263 8.88946C20.0906 9.01578 20.1207 9.15126 20.1679 9.28391C20.245 9.51053 20.2948 9.74417 20.3672 9.97154C20.4417 10.292 20.4911 10.6184 20.5305 10.9449C20.5477 11.211 20.6068 11.4768 20.5957 11.7422C20.5944 11.9843 20.5977 12.2269 20.5949 12.4688C20.5435 12.9657 20.4968 13.456 20.3908 13.9454C20.3701 14.0727 20.3157 14.1889 20.2917 14.3155C20.2442 14.4927 20.1931 14.6694 20.1336 14.8431C20.1051 14.9371 20.0771 15.0301 20.0333 15.1185C19.925 15.373 19.8333 15.6411 19.6971 15.8823C19.6213 16.0318 19.5426 16.1797 19.4653 16.3286C19.4035 16.4316 19.3337 16.5289 19.2756 16.6347C19.2551 16.5695 19.2304 16.517 19.1847 16.4657C19.1938 16.4494 19.2029 16.4334 19.2122 16.4174C19.2582 16.3415 19.3122 16.2729 19.3531 16.1938C19.445 16.0129 19.5382 15.8326 19.6335 15.6537C19.742 15.4164 19.8332 15.1695 19.9363 14.93C20.0263 14.6679 20.1074 14.4026 20.1744 14.1339C20.2429 13.9269 20.2826 13.7145 20.3159 13.4996C20.3821 13.1262 20.4163 12.7532 20.4389 12.3751C20.4386 12.133 20.4386 11.8906 20.4389 11.6485C20.4099 11.1317 20.3483 10.6124 20.2372 10.1063C20.1394 9.76038 20.0519 9.41374 19.9293 9.07532C19.8258 8.83696 19.7368 8.5904 19.6265 8.35485C19.5242 8.16665 19.43 7.97423 19.3288 7.78532C19.191 7.57766 19.0755 7.35992 18.9256 7.15977C18.8314 7.04001 18.7601 6.90806 18.657 6.79602C18.5749 6.70485 18.5106 6.60079 18.4273 6.51056C18.3017 6.37743 18.195 6.23118 18.0585 6.10813C17.9345 5.96516 17.7878 5.84984 17.6538 5.71766C17.5463 5.60305 17.4168 5.52149 17.3006 5.41719C17.1627 5.2918 17.008 5.19923 16.8616 5.08438C16.7594 5.00423 16.6498 4.93813 16.539 4.87133C16.4061 4.79422 16.2872 4.6986 16.1476 4.63274C15.9428 4.53477 15.7544 4.40984 15.5449 4.32289C15.3666 4.24297 15.1823 4.17875 15.0056 4.09484C14.6653 3.96313 14.3167 3.88063 13.9692 3.77586C13.4396 3.65398 12.9014 3.5893 12.3594 3.55837C11.9859 3.56165 11.6175 3.54407 11.2455 3.59071C10.8598 3.63336 10.4764 3.6889 10.0977 3.77516C9.74975 3.87923 9.40016 3.96336 9.05973 4.09391C8.80881 4.21251 8.53643 4.29898 8.28877 4.43375C8.25356 4.39157 8.21858 4.34962 8.18057 4.30977L8.1969 4.30086C8.39092 4.18766 8.60709 4.11102 8.81393 4.02453C9.14997 3.8661 9.5252 3.77423 9.88155 3.67251C10.0358 3.61931 10.1944 3.59446 10.3537 3.56258C10.7644 3.4843 11.1742 3.44751 11.59 3.41258Z" fill="#FFD274"/>
<path d="M14.1593 3.63058C14.5601 3.75222 14.9936 3.84621 15.3733 4.0248C15.5893 4.11527 15.8154 4.19754 16.0193 4.31355C16.2014 4.42278 16.4012 4.50199 16.5754 4.62199C16.7335 4.73215 16.904 4.81653 17.0566 4.93581C17.2137 5.05887 17.3877 5.16434 17.535 5.29817C17.646 5.39965 17.7708 5.47981 17.8744 5.58996C17.9842 5.70715 18.1158 5.79926 18.2223 5.91902C18.3456 6.06199 18.4893 6.18222 18.6038 6.33363C18.7377 6.46816 18.8412 6.62426 18.9659 6.76629C19.0417 6.85629 19.0996 6.95871 19.1714 7.05223C19.3233 7.25074 19.4403 7.46449 19.5781 7.67449C19.6794 7.8559 19.7689 8.04434 19.8679 8.22715C19.9414 8.36192 19.992 8.50629 20.054 8.64903C20.1226 8.83043 20.2089 9.00247 20.2614 9.18996C20.3546 9.45862 20.4197 9.73414 20.5002 10.0065C20.5925 10.4075 20.6447 10.8278 20.6842 11.237C20.7135 11.4606 20.7058 11.6816 20.7063 11.9061C20.7028 12.2259 20.7205 12.5272 20.6792 12.8441C20.6392 13.2326 20.5902 13.6161 20.5046 13.9974C20.4052 14.349 20.3161 14.7005 20.19 15.0442C20.0902 15.2725 20.0041 15.5081 19.8992 15.7342C19.8126 15.8987 19.7267 16.0635 19.6425 16.2294C19.5738 16.3705 19.4788 16.4944 19.4009 16.6309C19.2784 16.8351 19.1318 17.0207 18.9979 17.2166C18.8984 17.3299 18.8102 17.451 18.7144 17.5672C18.5999 17.6799 18.5107 17.8136 18.3923 17.9223C18.29 18.0163 18.2106 18.1298 18.1047 18.2196C18.0169 18.2952 17.9313 18.3725 17.8506 18.4565C17.7571 18.5528 17.6463 18.6231 17.5477 18.7136C17.4021 18.849 17.2268 18.9545 17.0696 19.0768C16.9082 19.2046 16.7277 19.2924 16.5603 19.4096C16.4054 19.5146 16.2259 19.5889 16.0631 19.6829C15.8434 19.8137 15.5916 19.9065 15.3549 20.0043C15.2778 20.0368 15.2038 20.0757 15.1242 20.1031C15.0468 20.1299 14.9682 20.1534 14.8903 20.1787C14.888 20.1676 14.8859 20.1568 14.8836 20.1459C14.9384 20.125 14.9939 20.1057 15.0489 20.0856C15.3489 19.948 15.6676 19.8468 15.9465 19.6806C16.104 19.5908 16.2772 19.5172 16.4279 19.4173C16.5424 19.3342 16.6667 19.2686 16.7851 19.1912C16.8897 19.1259 16.9824 19.0454 17.0841 18.9754C17.1864 18.8997 17.2969 18.8293 17.3896 18.7428C17.5126 18.6298 17.6517 18.5415 17.7659 18.4183C17.8685 18.3105 17.9907 18.2221 18.091 18.1128C18.1981 17.9765 18.3365 17.8743 18.4398 17.7355C18.4904 17.669 18.5532 17.6153 18.6059 17.5508C18.6938 17.4362 18.7813 17.3232 18.8759 17.2138C19.0082 17.0195 19.153 16.8356 19.2756 16.6345C19.3337 16.5287 19.4035 16.4314 19.4653 16.3284C19.5426 16.1795 19.6213 16.0316 19.697 15.8821C19.8333 15.6409 19.925 15.3728 20.0333 15.1183C20.0771 15.0299 20.1051 14.9369 20.1336 14.8429C20.1931 14.6692 20.2442 14.4925 20.2917 14.3153C20.3157 14.1887 20.3701 14.0725 20.3908 13.9452C20.4968 13.4558 20.5435 12.9655 20.5949 12.4686C20.5977 12.2267 20.5944 11.9841 20.5957 11.742C20.6068 11.4766 20.5477 11.2108 20.5305 10.9447C20.4911 10.6182 20.4417 10.2918 20.3672 9.97134C20.2948 9.74397 20.245 9.51033 20.1679 9.28371C20.1207 9.15106 20.0906 9.01558 20.0262 8.88926C19.9387 8.67458 19.8565 8.45544 19.7547 8.24684C19.6184 8.00309 19.5074 7.73894 19.3479 7.51043C19.2341 7.3145 19.1071 7.12934 18.9721 6.94769C18.8818 6.7984 18.7575 6.6791 18.6579 6.53684C18.59 6.44098 18.5 6.36644 18.4294 6.27316C18.3412 6.15715 18.2293 6.07066 18.1351 5.96074C18.0283 5.82551 17.8853 5.73035 17.7664 5.60472C17.6598 5.48965 17.5311 5.4055 17.415 5.30168C17.2689 5.16644 17.094 5.06215 16.9374 4.93863C16.7762 4.81067 16.5948 4.72418 16.4285 4.60535C16.272 4.50153 16.0936 4.42746 15.9309 4.33277C15.6664 4.17597 15.3535 4.07706 15.079 3.94816C14.7908 3.84106 14.4979 3.75832 14.2015 3.67816C14.0301 3.61746 13.8531 3.58886 13.675 3.55652C13.8357 3.54715 14.0011 3.59988 14.1593 3.63058Z" fill="#653912"/>
<path d="M11.2455 3.59058C11.0634 3.62831 10.8829 3.65994 10.6979 3.68105C10.4794 3.72441 10.2565 3.75908 10.0466 3.83174C9.80847 3.89409 9.57299 3.96183 9.34009 4.04174C9.20687 4.08112 9.08701 4.14744 8.95782 4.19666C8.74164 4.28292 8.53013 4.36846 8.32772 4.48472C8.14723 4.58855 7.96113 4.66519 7.79417 4.78542C7.64306 4.88573 7.48377 4.96682 7.3399 5.08003C7.19508 5.19417 7.0365 5.28885 6.90055 5.41166C6.77999 5.51901 6.64706 5.60667 6.53373 5.72245C6.4211 5.83753 6.29447 5.93503 6.18836 6.0555C6.09998 6.15604 5.99808 6.23784 5.91575 6.34331C5.84206 6.44035 5.74973 6.5191 5.67743 6.61706C5.57809 6.7605 5.45309 6.8805 5.36238 7.03074C5.21616 7.22574 5.08254 7.42519 4.96058 7.63659C4.83069 7.82152 4.74441 8.02542 4.63714 8.2237C4.52077 8.42831 4.43985 8.65472 4.3503 8.87245C4.20105 9.21183 4.10125 9.576 4.0061 9.9337C3.9478 10.1076 3.91725 10.2937 3.88507 10.4742C3.81115 10.9212 3.75168 11.3822 3.76008 11.8359C3.76218 12.058 3.75588 12.2807 3.76382 12.5029C3.78947 12.975 3.85732 13.4456 3.9548 13.9079C4.05297 14.2594 4.14229 14.6107 4.26799 14.9538C4.36943 15.1882 4.45687 15.4303 4.56508 15.6616C4.66395 15.8451 4.75607 16.0319 4.85332 16.2162C5.01142 16.4638 5.15251 16.7198 5.33393 16.9523C5.41905 17.0855 5.51559 17.2027 5.61679 17.3233C5.72173 17.4748 5.85559 17.5982 5.96963 17.7422C6.13637 17.9116 6.29587 18.086 6.4752 18.2424C6.59833 18.3717 6.73941 18.4762 6.87607 18.5899C7.02088 18.7228 7.18575 18.8224 7.34013 18.9431C7.48914 19.0593 7.65355 19.1419 7.80886 19.247C7.98656 19.3715 8.19037 19.4529 8.37809 19.5644C8.65746 19.7263 8.97205 19.8102 9.25445 19.961L9.22832 19.9837C9.13038 19.964 9.042 19.9223 8.95246 19.8794C8.70713 19.7763 8.44105 19.6814 8.21183 19.5459C8.05814 19.4559 7.89211 19.3858 7.74146 19.2909C7.56306 19.1634 7.37511 19.0746 7.20417 18.9398C7.05539 18.8226 6.90241 18.7324 6.76437 18.6069C6.65173 18.5046 6.52813 18.427 6.42366 18.3175C6.31243 18.2013 6.18278 18.1082 6.0755 17.9877C5.98712 17.8886 5.88427 17.8038 5.80172 17.7004C5.71358 17.5856 5.60537 17.4907 5.52282 17.3711C5.4496 17.2654 5.35469 17.179 5.28496 17.0709C5.19005 16.9247 5.07765 16.7915 4.98764 16.6418C4.91395 16.5347 4.85727 16.4175 4.78241 16.3112C4.70686 16.203 4.65743 16.0788 4.59213 15.963C4.51564 15.8041 4.42143 15.6576 4.35964 15.4917C4.27964 15.3058 4.20852 15.1164 4.12783 14.9311C4.04947 14.699 3.97485 14.4651 3.91398 14.2277C3.89184 14.1152 3.8452 14.0104 3.82305 13.8979C3.74166 13.5202 3.68546 13.1351 3.65234 12.75C3.64604 12.5848 3.61783 12.4235 3.62553 12.2578C3.63205 11.977 3.61014 11.6925 3.64349 11.4138C3.66143 11.1076 3.69898 10.8023 3.75191 10.5005C3.77664 10.3359 3.80859 10.1714 3.85196 10.0108C3.89906 9.87952 3.92192 9.74244 3.96459 9.60978C4.03408 9.38179 4.09658 9.14715 4.1971 8.93058C4.26775 8.74542 4.34518 8.56214 4.42446 8.3805C4.52054 8.19722 4.61754 8.01393 4.71083 7.82901C4.7577 7.73784 4.823 7.65933 4.87196 7.56909C5.01142 7.32277 5.18351 7.10198 5.3442 6.86996C5.4433 6.7605 5.52748 6.6405 5.62123 6.52682C5.75345 6.38878 5.86399 6.23549 6.0067 6.10707C6.131 5.96433 6.27675 5.84831 6.41177 5.71706C6.51904 5.60174 6.64823 5.52112 6.76437 5.41612C6.89402 5.29659 7.05049 5.20284 7.19042 5.09338C7.33429 4.97854 7.48914 4.89628 7.64259 4.79854C7.84243 4.65206 8.0754 4.5623 8.28877 4.43362C8.53643 4.29885 8.80881 4.21237 9.05973 4.09378C9.40016 3.96323 9.74975 3.87909 10.0977 3.77503C10.4765 3.68877 10.8598 3.63323 11.2455 3.59058Z" fill="#653912"/>
<path d="M7.73097 3.83813C7.83987 3.89227 7.89444 3.98953 7.97746 4.07579C8.05301 4.15336 8.11318 4.23445 8.1969 4.30079L8.18058 4.30969C7.97629 4.42383 7.75615 4.51595 7.56773 4.65164C7.42035 4.74797 7.26667 4.82789 7.12768 4.93805C6.96585 5.06485 6.78675 5.1729 6.63704 5.31165C6.52511 5.41125 6.40128 5.49305 6.29867 5.60391C6.18463 5.72485 6.04589 5.81814 5.94118 5.94633C5.87705 6.02321 5.80383 6.09024 5.7334 6.16102C5.65621 6.23789 5.59768 6.32978 5.51792 6.40453L5.51606 6.40641C5.39503 6.23017 5.27399 6.05204 5.14551 5.88141C5.87938 5.0536 6.75947 4.36243 7.73097 3.83813Z" fill="#E29E3C"/>
<path d="M8.18057 4.30957C8.21857 4.34942 8.25356 4.39137 8.28876 4.43355C8.07539 4.56223 7.84242 4.65199 7.64258 4.79847C7.48913 4.89621 7.33429 4.97848 7.19041 5.09332C7.05048 5.20278 6.89401 5.29653 6.76436 5.41606C6.64822 5.52106 6.51903 5.60168 6.41176 5.71699C6.27674 5.84825 6.13099 5.96426 6.00669 6.107C5.86398 6.23543 5.75344 6.38871 5.62122 6.52676C5.58694 6.48598 5.55313 6.44426 5.51791 6.40441C5.59767 6.32965 5.6562 6.23777 5.73339 6.1609C5.80382 6.09012 5.87704 6.02309 5.94117 5.94621C6.04588 5.81801 6.18462 5.72473 6.29866 5.60379C6.40127 5.49293 6.5251 5.41113 6.63703 5.31152C6.78674 5.17278 6.96584 5.06473 7.12767 4.93793C7.26666 4.82777 7.42034 4.74785 7.56772 4.65152C7.75614 4.51582 7.97628 4.42371 8.18057 4.30957Z" fill="#FFF2DE"/>
<path d="M8.32773 4.48486C8.41377 4.53736 8.47114 4.6133 8.5355 4.68854C8.91025 5.10104 9.28454 5.51049 9.67139 5.93682C9.83414 6.12361 10.0098 6.29916 10.1689 6.489C8.97135 6.48784 7.77365 6.489 6.57617 6.48854C6.46448 6.48807 6.35931 6.48103 6.24947 6.50916C6.17204 6.53869 6.09952 6.5708 6.04286 6.63385C5.98596 6.69619 5.96216 6.78573 5.93862 6.86541C5.92975 6.9001 5.92603 6.93502 5.92229 6.97064C5.83298 6.85862 5.74973 6.7412 5.67743 6.61721C5.74973 6.51924 5.84207 6.44049 5.91576 6.34345C5.99808 6.23799 6.09999 6.15619 6.18837 6.05565C6.29447 5.93518 6.42111 5.83767 6.53373 5.7226C6.64706 5.60682 6.78 5.51916 6.90055 5.41181C7.0365 5.289 7.19509 5.19432 7.3399 5.08018C7.48378 4.96697 7.64306 4.88588 7.79417 4.78557C7.96113 4.66533 8.14723 4.5887 8.32773 4.48486Z" fill="#E29E3C"/>
<path d="M5.51604 6.40642L5.5179 6.40454C5.55312 6.44439 5.58692 6.4861 5.62121 6.52689C5.52746 6.64056 5.44328 6.76056 5.34417 6.87002C5.18349 7.10204 5.0114 7.32283 4.87194 7.56915C4.82298 7.65939 4.75768 7.73791 4.7108 7.82908C4.61752 8.01399 4.52052 8.19728 4.42444 8.38056C4.34516 8.5622 4.26773 8.74549 4.19708 8.93064C4.09656 9.14721 4.03406 9.38185 3.96457 9.60984C3.9219 9.7425 3.89904 9.87959 3.85194 10.0109C3.80857 10.1714 3.77662 10.3359 3.75189 10.5005C3.69896 10.8023 3.66141 11.1077 3.64347 11.4138C3.61012 11.6925 3.63203 11.977 3.62551 12.2578C3.61781 12.4235 3.64602 12.5848 3.65232 12.75C3.68544 13.1351 3.74164 13.5202 3.82303 13.8979C3.84518 14.0105 3.89182 14.1152 3.91396 14.2278C3.97483 14.4652 4.04945 14.6991 4.12781 14.9311C4.2085 15.1165 4.27962 15.3059 4.35961 15.4917C4.42141 15.6577 4.51562 15.8041 4.59211 15.9631C4.65741 16.0789 4.70684 16.2031 4.78239 16.3113C4.85725 16.4176 4.91393 16.5347 4.98762 16.6419C5.07763 16.7916 5.19003 16.9248 5.28494 17.0709C5.35466 17.179 5.44958 17.2655 5.5228 17.3711C5.60535 17.4908 5.71356 17.5856 5.8017 17.7005C5.88425 17.8039 5.9871 17.8887 6.07548 17.9878C6.18275 18.1083 6.31241 18.2014 6.42364 18.3176C6.52811 18.427 6.65171 18.5047 6.76435 18.607C6.90239 18.7324 7.05537 18.8227 7.20415 18.9399C7.37509 19.0746 7.56304 19.1634 7.74144 19.291C7.89209 19.3859 8.05812 19.4559 8.21181 19.546C8.44103 19.6814 8.70711 19.7764 8.95244 19.8795C9.04198 19.9223 9.13036 19.9641 9.2283 19.9837C9.22131 20.0391 9.21268 20.0937 9.19566 20.1469C9.09748 20.1172 9.00094 20.085 8.90883 20.0398C8.65884 19.9285 8.37853 19.835 8.13508 19.6905C7.96321 19.5906 7.77199 19.5129 7.61015 19.3997C7.46651 19.2992 7.31003 19.2213 7.16917 19.1157C6.97026 18.9624 6.75921 18.8299 6.57498 18.658C6.38913 18.5243 6.24199 18.3522 6.06708 18.2061C5.96704 18.1191 5.89195 18.0087 5.79285 17.9201C5.68884 17.8272 5.61305 17.7115 5.51487 17.6135C5.4209 17.5182 5.35326 17.4038 5.26325 17.3044C5.16787 17.2005 5.10001 17.0794 5.01467 16.9681C4.90226 16.8218 4.80432 16.6582 4.70824 16.5005C4.55317 16.2757 4.44426 16.0167 4.31064 15.7777C4.18984 15.5333 4.10006 15.2716 3.98929 15.0223C3.91001 14.7912 3.83609 14.5573 3.77429 14.3209C3.75049 14.2006 3.7013 14.0886 3.67797 13.9686C3.57957 13.5089 3.52103 13.0386 3.48698 12.5701C3.48162 12.2473 3.48628 11.9243 3.48465 11.6016C3.48092 11.3897 3.5138 11.1776 3.53129 10.965C3.57163 10.6315 3.62014 10.2969 3.69756 9.96987C3.76006 9.77997 3.8004 9.58453 3.8615 9.39426C3.91957 9.21869 3.96621 9.0361 4.04596 8.87018C4.12548 8.67119 4.20383 8.4708 4.29408 8.2765C4.40462 8.07377 4.50396 7.86493 4.61706 7.66385C4.75044 7.46252 4.85958 7.25931 5.00486 7.06853C5.09441 6.95322 5.16391 6.82689 5.26302 6.71861C5.3535 6.6183 5.42182 6.50275 5.51604 6.40642Z" fill="#FFD274"/>
<path d="M6.57616 6.48842C7.77363 6.48889 8.97134 6.48772 10.1689 6.48889C10.728 6.48795 11.2872 6.48912 11.8464 6.48842C11.9523 6.48584 12.0572 6.48795 12.1626 6.50014C12.1724 6.52006 12.1815 6.54022 12.1906 6.56038C12.2077 6.62904 12.2191 6.70193 12.2461 6.76733C12.3033 6.80014 12.3676 6.81021 12.41 6.86459C12.4816 6.94944 12.4497 7.04412 12.4975 7.14139C12.5187 7.02608 12.522 6.90701 12.5262 6.79029C12.5384 6.82545 12.5511 6.8606 12.5636 6.89552C12.6648 6.80389 12.7544 6.7017 12.8496 6.60444C12.8853 6.72209 12.9688 6.82546 13.0298 6.93163C13.0894 6.88076 13.15 6.83858 13.2193 6.80201C13.2115 6.72021 13.1913 6.64146 13.1723 6.56201C13.1723 6.53811 13.1726 6.51444 13.1731 6.49077C14.6427 6.48514 16.1133 6.491 17.583 6.48772C17.6909 6.48772 17.7939 6.49335 17.8916 6.54327C17.8422 6.63046 17.7864 6.71179 17.7428 6.80201C17.8249 6.83483 17.8641 6.88897 17.916 6.956C17.983 6.941 18.0476 6.91686 18.1145 6.90092C18.1246 7.00826 18.1203 7.11139 18.1203 7.21873C18.1203 9.89319 18.1206 12.5676 18.1202 15.2421C18.1208 15.7317 18.1203 16.2214 18.1203 16.711C18.1202 16.8274 18.1267 16.9374 18.1096 17.0533C18.0306 17.0329 17.9544 17.0043 17.8771 16.9772C17.9046 16.7885 17.9191 16.597 17.9147 16.4062C17.9142 16.0077 17.9142 15.6094 17.9144 15.2109C17.9137 15.1107 17.9214 15.0049 17.9038 14.906C17.8972 14.8591 17.8475 14.8216 17.8165 14.7888C17.7349 14.7133 17.6717 14.6222 17.5915 14.545C17.5897 12.0312 17.5903 9.51707 17.591 7.0031L17.5759 7.00498C17.4615 7.00264 17.3475 7.00147 17.2333 7.0024C15.9059 7.00217 14.5781 7.00287 13.2507 7.00194C13.1928 7.00311 13.157 7.00171 13.1155 7.0467C12.7072 7.46436 12.2898 7.87334 11.8823 8.29218C11.7904 8.23568 11.7476 8.14826 11.6704 8.07537C11.5718 7.97811 11.4826 7.87147 11.3798 7.77959C11.5575 7.59935 11.7371 7.42076 11.9147 7.2403C11.9749 7.17865 12.0419 7.13038 12.0969 7.06474C12.0987 7.0474 12.0992 7.03007 12.098 7.01272C12.0518 6.99443 11.9903 7.00943 11.942 7.01506C11.5264 7.00545 11.1104 7.01131 10.6947 7.01084C10.6166 6.93537 10.5489 6.84702 10.4669 6.77624C10.388 6.75373 10.2956 6.76757 10.2141 6.76475C9.03407 6.76499 7.84919 6.76545 6.66921 6.76452C6.57336 6.76334 6.49478 6.80201 6.40919 6.83928C6.36605 6.7242 6.30752 6.61709 6.24945 6.50904C6.35929 6.48092 6.46446 6.48795 6.57616 6.48842Z" fill="#653912"/>
<path d="M13.1456 6.49829C13.1551 6.51916 13.1642 6.54049 13.1723 6.56204C13.1912 6.64149 13.2115 6.72024 13.2193 6.80204C13.15 6.83861 13.0894 6.88079 13.0298 6.93166C12.9688 6.82549 12.8853 6.72212 12.8496 6.60447C12.9361 6.53111 13.0371 6.514 13.1456 6.49829Z" fill="#FFD274"/>
<path d="M6.24945 6.50903C6.30751 6.61708 6.36605 6.72419 6.40919 6.83927C6.38797 6.89599 6.37025 6.95552 6.34203 7.00919C6.31545 7.01223 6.28886 7.01435 6.26204 7.01552C6.16434 6.94239 6.05473 6.89904 5.9386 6.86528C5.96215 6.7856 5.98594 6.69606 6.04284 6.63372C6.0995 6.57067 6.17203 6.53856 6.24945 6.50903Z" fill="#FFD274"/>
<path d="M12.1823 6.51953C12.2093 6.52163 12.2366 6.52421 12.2636 6.52702C12.3872 6.56265 12.4948 6.66297 12.5262 6.79023C12.522 6.90695 12.5187 7.02601 12.4975 7.14133C12.4497 7.04406 12.4816 6.94937 12.41 6.86453C12.3676 6.81015 12.3033 6.80008 12.2462 6.76727C12.2191 6.70187 12.2077 6.62898 12.1906 6.56031L12.1823 6.51953Z" fill="#FFD274"/>
<path d="M17.8916 6.54321C18.0308 6.62196 18.0894 6.74759 18.1145 6.90086C18.0476 6.91681 17.983 6.94095 17.916 6.95594C17.8641 6.88891 17.8249 6.83478 17.7428 6.80196C17.7864 6.71173 17.8422 6.6304 17.8916 6.54321Z" fill="#FFD274"/>
<path d="M6.66922 6.76462C7.8492 6.76555 9.03408 6.76508 10.2141 6.76485C10.2956 6.76766 10.388 6.75383 10.4669 6.77634C10.5489 6.84711 10.6166 6.93547 10.6947 7.01094C10.5035 7.01633 10.3122 7.01329 10.1207 7.01399C8.93497 7.01445 7.74846 7.01282 6.56265 7.01492C6.52743 7.01399 6.49223 7.01234 6.45701 7.01094C6.45958 7.04821 6.46214 7.08547 6.46284 7.12273C6.44792 7.35759 6.45771 7.59172 6.45467 7.82726C6.42249 7.76141 6.35184 7.69298 6.35207 7.61821C6.34508 7.42367 6.3537 7.22843 6.3537 7.03391C6.32315 7.02805 6.29237 7.02243 6.26205 7.01563C6.28887 7.01445 6.31546 7.01234 6.34205 7.00929C6.37026 6.95563 6.38799 6.8961 6.4092 6.83937C6.49479 6.80211 6.57337 6.76344 6.66922 6.76462Z" fill="#B17319"/>
<path d="M5.93862 6.86523C6.05475 6.89899 6.16435 6.94234 6.26206 7.01548C6.29237 7.02227 6.32316 7.02789 6.35371 7.03375C6.35371 7.22828 6.34508 7.42351 6.35207 7.61805C6.35184 7.69282 6.42249 7.76125 6.45468 7.82711C6.45304 8.59282 6.45444 9.35904 6.45398 10.1249C6.45538 10.2919 6.44979 10.4582 6.45865 10.6249L6.45795 10.6385C6.5279 10.6257 6.5981 10.6159 6.66946 10.6157C7.16687 10.6176 7.66451 10.6164 8.16192 10.6164C8.24587 10.6174 8.33261 10.6101 8.41564 10.6223C8.48303 10.6734 8.52408 10.7658 8.56979 10.8358C7.9131 10.8381 7.25595 10.8348 6.5995 10.8374C6.53187 10.8404 6.47567 10.814 6.41364 10.7929C6.38519 10.7343 6.36653 10.6788 6.35324 10.6153C6.22825 10.6755 6.10395 10.7364 5.97546 10.7889C5.93535 10.6607 5.91576 10.5415 5.92322 10.4062C5.92393 9.26103 5.92579 8.11562 5.92229 6.97047C5.92603 6.93485 5.92975 6.89992 5.93862 6.86523Z" fill="#653912"/>
<path d="M6.457 7.01074C6.49222 7.01214 6.52742 7.01379 6.56264 7.01472C6.5743 7.04355 6.58597 7.07261 6.59762 7.10144C6.5778 7.13004 6.55774 7.15864 6.53769 7.18745C6.51273 7.16566 6.48778 7.14411 6.46283 7.12254C6.46213 7.08527 6.45957 7.04801 6.457 7.01074Z" fill="white"/>
<path d="M6.56264 7.01485C7.74845 7.01275 8.93495 7.01438 10.1207 7.01391C10.3122 7.01321 10.5035 7.01626 10.6947 7.01087C11.1104 7.01133 11.5264 7.00548 11.942 7.01508C11.9243 7.03266 11.9049 7.04391 11.8838 7.0493C11.8343 7.02165 11.7858 7.01321 11.7299 7.01485C11.3257 7.01954 10.9214 7.0111 10.5172 7.02024C9.20733 7.02117 7.89746 7.01861 6.58758 7.02165C6.60251 7.05353 6.61743 7.08539 6.63259 7.11704C7.92708 7.11141 9.22249 7.11657 10.5172 7.11446C10.5958 7.11422 10.6741 7.1161 10.7525 7.11704C10.8155 7.22438 10.9027 7.30735 10.9883 7.39571C9.72738 7.39688 8.4667 7.39571 7.2058 7.39618C7.08267 7.39735 6.96537 7.38681 6.84364 7.41235C6.84691 7.65798 6.8441 7.90361 6.8455 8.14923C6.73148 8.04891 6.68273 7.90103 6.56684 7.80563C6.5638 7.60735 6.56684 7.40907 6.5645 7.21055C6.55541 7.20282 6.54655 7.19509 6.53769 7.18758C6.55774 7.15876 6.5778 7.13017 6.59762 7.10157C6.58596 7.07274 6.57429 7.04368 6.56264 7.01485Z" fill="#FFF2DE"/>
<path d="M11.942 7.01504C11.9903 7.00942 12.0518 6.99442 12.098 7.01271C12.0992 7.03005 12.0988 7.04739 12.0969 7.06473C12.0518 7.07082 12.0129 7.08137 11.9721 7.10036C11.8893 7.13787 11.8024 7.16317 11.7205 7.20232C11.7128 7.17396 11.7051 7.14559 11.6974 7.11723C11.7618 7.10036 11.8226 7.07528 11.8838 7.04926C11.9049 7.04387 11.9243 7.03262 11.942 7.01504Z" fill="white"/>
<path d="M13.2507 7.00195C13.2499 7.03125 13.2486 7.06055 13.2473 7.08984L13.2426 7.1107C13.2102 7.12079 13.1775 7.12969 13.1448 7.1386C13.1351 7.10812 13.1253 7.07742 13.1155 7.04672C13.157 7.00172 13.1929 7.00312 13.2507 7.00195Z" fill="#FFF2DE"/>
<path d="M13.2507 7.00195C14.5781 7.00289 15.9059 7.00219 17.2333 7.00242C17.3475 7.00149 17.4615 7.00265 17.5759 7.005C17.5145 7.04578 17.4553 7.08656 17.3856 7.11163C16.3303 7.12007 15.2714 7.11047 14.2159 7.11656C14.0013 7.11305 13.7866 7.11539 13.572 7.11469C13.4774 7.11375 13.3788 7.12102 13.2847 7.10765C13.2722 7.10179 13.2595 7.0957 13.2473 7.08984C13.2486 7.06055 13.2498 7.03125 13.2507 7.00195Z" fill="#E29E3C"/>
<path d="M17.5759 7.00505L17.591 7.00317C17.5903 9.51713 17.5897 12.0312 17.5915 14.5451C17.585 15.331 17.5959 16.1175 17.5861 16.9029C17.484 16.9032 17.3821 16.8985 17.28 16.8964C16.0516 16.8967 14.8236 16.8967 13.5954 16.8964C13.4476 16.8946 13.2997 16.8999 13.1518 16.9022C13.1492 15.8621 13.1518 14.8215 13.151 13.7813C13.1502 13.6381 13.1549 13.4956 13.1458 13.3526C13.0518 13.4155 12.9839 13.5004 12.9047 13.5795C12.4387 14.0518 11.969 14.5208 11.5017 14.9918C10.9598 15.5377 10.4167 16.0821 9.87478 16.6278C9.78474 16.7189 9.69188 16.8061 9.60872 16.9037C9.5758 16.8425 9.54238 16.7818 9.50885 16.7211C10.097 16.1275 10.6875 15.5359 11.2746 14.941C11.3359 14.8787 11.3992 14.8179 11.4615 14.7564C11.9884 14.2229 12.5213 13.6935 13.0469 13.1597C13.1022 13.1595 13.1575 13.1592 13.2127 13.1589C13.2286 13.1747 13.2444 13.1904 13.2603 13.2062C13.2624 14.3586 13.2592 15.5112 13.2621 16.6634C13.2782 16.6829 13.2945 16.7021 13.3106 16.7214C13.2626 16.7668 13.2286 16.8214 13.1957 16.8781C13.3447 16.8851 13.4931 16.8809 13.6421 16.8817C14.8158 16.8818 15.9896 16.8817 17.1633 16.8817C17.2741 16.8833 17.3846 16.884 17.4952 16.8743C17.4679 16.8219 17.4389 16.7705 17.4077 16.7204C17.4044 15.9673 17.4086 15.214 17.4054 14.4611C17.4077 12.8239 17.4067 11.1865 17.4059 9.54969C17.4065 8.83506 17.4061 8.12068 17.4061 7.4063C17.4052 7.30434 17.4171 7.21083 17.3856 7.11169C17.4553 7.08662 17.5145 7.04584 17.5759 7.00505Z" fill="#BE883A"/>
<path d="M6.58759 7.02165C7.89747 7.0186 9.20733 7.02117 10.5172 7.02024C10.9214 7.0111 11.3257 7.01953 11.7299 7.01484C11.7858 7.01321 11.8343 7.02165 11.8838 7.0493C11.8226 7.07532 11.7618 7.1004 11.6974 7.11726C11.3826 7.11398 11.0675 7.11282 10.7525 7.11703C10.6741 7.1161 10.5958 7.11422 10.5172 7.11445C9.22249 7.11656 7.92708 7.1114 6.63259 7.11703C6.61743 7.08539 6.60251 7.05352 6.58759 7.02165Z" fill="#E29E3C"/>
<path d="M13.1155 7.04663C13.1253 7.07734 13.1351 7.10804 13.1448 7.13851C13.0812 7.21608 13.0108 7.2864 12.939 7.35624C12.592 7.70593 12.2436 8.05421 11.8973 8.40483C10.9414 9.3648 9.97897 10.3345 9.02312 11.2924C9.00469 11.3087 8.98628 11.3249 8.96832 11.342C8.93194 11.3373 8.89557 11.3331 8.85895 11.3296C8.87084 11.3177 8.88298 11.3057 8.89463 11.2935C9.82629 10.3515 10.7635 9.4148 11.697 8.47468C11.7576 8.41257 11.8208 8.35305 11.8823 8.29211C12.2898 7.87327 12.7072 7.46429 13.1155 7.04663Z" fill="#E29E3C"/>
<path d="M12.0969 7.0647C12.0419 7.13033 11.9749 7.1786 11.9147 7.24026C11.7371 7.42071 11.5575 7.59931 11.3798 7.77954C11.2655 7.89252 11.1492 8.00268 11.046 8.12642C10.8863 8.31111 10.6945 8.4583 10.5271 8.63478C9.90157 9.26384 9.27519 9.89241 8.64999 10.5217C8.6192 10.5518 8.58725 10.5808 8.55555 10.6099C8.48722 10.5325 8.46133 10.443 8.34497 10.4329L8.4 10.4324C8.42168 10.432 8.44337 10.4318 8.46507 10.4315C9.14973 9.74402 9.83413 9.05618 10.5181 8.36807C10.627 8.24877 10.7613 8.16228 10.8637 8.03619C10.9715 7.89978 11.1005 7.7894 11.2203 7.66329C11.3283 7.55454 11.4367 7.44626 11.544 7.33658C11.5965 7.28244 11.6543 7.23814 11.7205 7.20229C11.8023 7.16314 11.8893 7.13783 11.9721 7.10033C12.0129 7.08134 12.0518 7.07079 12.0969 7.0647Z" fill="#BE883A"/>
<path d="M13.2847 7.10767C13.2847 7.10767 13.4775 7.11376 13.5721 7.11471C13.7867 7.11541 14.0014 7.11306 14.216 7.11657C14.3593 7.24314 14.5191 7.35212 14.6712 7.4679C14.2533 7.47071 13.8347 7.46438 13.417 7.47096L13.403 7.50916C13.8448 7.51244 14.2866 7.50916 14.7283 7.51079C14.8275 7.60056 14.9378 7.67322 15.0438 7.75384C15.2654 7.92166 15.4834 8.09369 15.7071 8.25891C16.002 8.49493 16.3114 8.71196 16.607 8.94775C16.7765 9.07244 16.9423 9.20111 17.1078 9.33095C17.1088 10.9339 17.1088 12.5365 17.1078 14.1394C17.0327 14.0736 16.9691 13.999 16.9061 13.9219C16.6874 13.6883 16.484 13.4416 16.2571 13.2155C15.9428 12.86 15.6236 12.5074 15.3069 12.1551C14.9495 11.7795 14.6126 11.3843 14.2598 11.0042C14.0753 10.8141 13.9058 10.6102 13.7257 10.4159C13.5907 10.2546 13.4357 10.1114 13.3008 9.94948C13.0012 9.62715 12.7155 9.28946 12.4089 8.97306C12.3319 8.88681 12.2604 8.7968 12.1743 8.71877C12.4915 8.39744 12.8094 8.07658 13.1258 7.75455C13.2013 7.67696 13.28 7.60735 13.3426 7.51783C13.251 7.54267 13.2083 7.61463 13.1425 7.67766C12.8126 8.00978 12.4896 8.34868 12.1594 8.68056C12.0661 8.59384 11.9822 8.49963 11.8973 8.40493C12.2436 8.05431 12.5919 7.70603 12.939 7.35634C13.0108 7.28649 13.0812 7.21618 13.1448 7.13861C13.1775 7.1297 13.2102 7.1208 13.2426 7.11071L13.2847 7.10767Z" fill="#FFD274"/>
<path d="M6.46283 7.12256C6.48778 7.14413 6.51273 7.16569 6.53769 7.18748C6.54655 7.19498 6.55541 7.20272 6.5645 7.21045C6.56684 7.40896 6.5638 7.60725 6.56684 7.80553C6.56217 8.60217 6.56684 9.39857 6.56427 10.1952C6.5631 10.2756 6.56544 10.3556 6.57197 10.4357C6.53699 10.5004 6.49688 10.562 6.45863 10.6248C6.44977 10.4582 6.45536 10.2918 6.45396 10.1249C6.45443 9.35902 6.45303 8.5928 6.45466 7.82709C6.4577 7.59155 6.44791 7.35741 6.46283 7.12256Z" fill="#BE883A"/>
<path d="M10.7525 7.11698C11.0675 7.11276 11.3826 7.11393 11.6975 7.11721C11.7051 7.14557 11.7128 7.17393 11.7205 7.2023C11.6543 7.23815 11.5965 7.28245 11.544 7.3366C11.4367 7.44628 11.3283 7.55456 11.2204 7.6633C11.1739 7.60026 11.135 7.53956 11.0597 7.50838C11.0901 7.47253 11.1184 7.43456 11.1467 7.39659C11.094 7.39589 11.041 7.39565 10.9883 7.39565C10.9027 7.30729 10.8155 7.22432 10.7525 7.11698Z" fill="#FFD274"/>
<path d="M14.2159 7.1165C15.2714 7.11041 16.3303 7.12001 17.3856 7.11157C17.4171 7.21071 17.4051 7.30423 17.4061 7.40618C17.4061 8.12056 17.4065 8.83494 17.4059 9.54957C17.3184 9.49122 17.2364 9.426 17.1521 9.36298C17.1505 8.74025 17.1528 8.11728 17.151 7.49431C17.0304 7.454 16.9143 7.47017 16.7902 7.4683C16.0838 7.46782 15.3775 7.46854 14.6712 7.46782C14.5191 7.35205 14.3593 7.24307 14.2159 7.1165Z" fill="#FFF2DE"/>
<path d="M7.20579 7.39621C8.46669 7.39574 9.72737 7.39691 10.9883 7.39574C11.041 7.39574 11.0939 7.39598 11.1466 7.39668C11.1184 7.43464 11.0901 7.47261 11.0597 7.50847C10.9681 7.61207 10.8645 7.70089 10.7636 7.79464C10.4859 8.06981 10.2101 8.3466 9.93042 8.62012C9.45406 9.07855 8.99278 9.55385 8.51635 10.0125C8.4401 10.0863 8.36804 10.1635 8.2862 10.2314C7.80604 10.2213 7.32565 10.2303 6.84573 10.2267C6.84479 9.53419 6.84549 8.8416 6.84549 8.14926C6.84409 7.90363 6.8469 7.65801 6.84363 7.41237C6.96536 7.38684 7.08265 7.39738 7.20579 7.39621Z" fill="#B17319"/>
<path d="M6.88513 7.41406C6.92944 7.42625 6.97259 7.43938 7.01922 7.43843C8.30135 7.43633 9.58464 7.43867 10.8669 7.4375C10.9243 7.43727 10.9819 7.43843 11.0393 7.44031C10.9722 7.53453 10.8819 7.60907 10.8072 7.69766C10.5914 7.9175 10.3698 8.13219 10.1487 8.34687C9.78633 8.70172 9.42974 9.0629 9.06693 9.41754C8.82091 9.65449 8.57838 9.89537 8.33726 10.1372C8.30927 10.1646 8.28666 10.1813 8.24654 10.1858C8.17309 10.0644 8.08564 9.95323 8.00728 9.83518C7.69153 9.38707 7.37905 8.93609 7.06399 8.48751C7.00826 8.4043 6.95253 8.32133 6.88747 8.24493C6.88444 7.9679 6.88863 7.69086 6.88513 7.41406Z" fill="#FFF2DE"/>
<path d="M13.417 7.47105C13.8347 7.46448 14.2533 7.4708 14.6712 7.46799C15.3775 7.4687 16.0838 7.46799 16.7902 7.46847C16.9143 7.47034 17.0304 7.45417 17.151 7.49447C17.1528 8.11745 17.1505 8.74042 17.1521 9.36315C17.151 10.9754 17.1516 12.5877 17.1519 14.1997C17.151 14.9294 17.1526 15.6588 17.151 16.3883C17.1628 16.405 17.1747 16.4218 17.1864 16.4387C17.0698 16.4427 16.9535 16.4415 16.8368 16.4412C15.8031 16.4415 14.7691 16.4412 13.7353 16.4412C13.6751 16.4401 13.6185 16.4256 13.5602 16.4138C13.5588 15.0352 13.5626 13.6559 13.5583 12.2776C13.4687 12.3128 13.4189 12.3927 13.3522 12.459C12.6622 13.1396 11.9838 13.8342 11.297 14.5182C10.7039 15.1175 10.1077 15.7138 9.51425 16.3124C9.4715 16.3541 9.42937 16.4027 9.37827 16.4335C9.32508 16.4471 9.26585 16.4411 9.21129 16.4422C8.46342 16.4389 7.71509 16.4441 6.96722 16.4396C6.97608 16.4242 6.98588 16.4127 6.99661 16.405C7.08802 16.3916 7.1834 16.4014 7.27574 16.3993C7.97813 16.3979 8.68099 16.4017 9.38343 16.3975C9.47089 16.2956 9.56805 16.2045 9.66178 16.1092C10.1961 15.5706 10.7322 15.0337 11.266 14.4945C11.8233 13.9351 12.3795 13.3745 12.9364 12.8144C13.1279 12.6283 13.2964 12.4252 13.5009 12.2518C13.5284 12.2287 13.5767 12.2856 13.6021 12.2971C13.6003 13.5338 13.6021 14.7711 13.6013 16.0079C13.6005 16.1354 13.6075 16.2603 13.5925 16.3876C13.6127 16.3955 13.6327 16.4033 13.653 16.411C13.7509 16.3932 13.8466 16.3991 13.9452 16.3991C14.9998 16.3993 16.0542 16.3986 17.1087 16.3993C17.1071 15.646 17.109 14.8928 17.1078 14.1395C17.1087 12.5366 17.1087 10.934 17.1078 9.33104C17.1095 8.72402 17.1062 8.11698 17.1097 7.50995C16.3158 7.51158 15.5221 7.50995 14.7283 7.51088C14.2866 7.50925 13.8447 7.51253 13.403 7.50925L13.417 7.47105Z" fill="#B17319"/>
<path d="M11.0597 7.50854C11.135 7.53972 11.1739 7.60043 11.2203 7.66347C11.1004 7.78957 10.9715 7.89995 10.8637 8.03636C10.7613 8.16245 10.627 8.24894 10.5181 8.36824C9.83412 9.05636 9.14972 9.74419 8.46506 10.4317C8.44336 10.432 8.42167 10.4322 8.39999 10.4326C8.37317 10.3587 8.3319 10.2947 8.28619 10.2315C8.36804 10.1636 8.4401 10.0864 8.51635 10.0126C8.99277 9.55392 9.45406 9.07863 9.93042 8.62019C10.2101 8.34667 10.4859 8.06988 10.7636 7.79472C10.8645 7.70097 10.9681 7.61215 11.0597 7.50854Z" fill="#FFF2DE"/>
<path d="M13.3426 7.51782C13.2799 7.60735 13.2013 7.67696 13.1258 7.75454C12.8094 8.07657 12.4914 8.39743 12.1743 8.71876L12.1691 8.72415C11.8566 9.04009 11.5444 9.35602 11.2352 9.67505C10.5888 10.3367 9.93473 10.9905 9.28802 11.652C8.60102 12.3614 7.89909 13.0561 7.21093 13.7644C7.13817 13.8415 7.06657 13.9186 6.98076 13.9817C6.97656 14.6725 6.98029 15.3637 6.97889 16.0547C6.97679 16.1473 6.98706 16.2434 6.97283 16.335C6.9628 16.3461 6.95184 16.3564 6.93995 16.366C6.93528 15.5715 6.93832 14.7757 6.93832 13.981C7.72045 13.2 8.48885 12.406 9.26539 11.6197C9.65786 11.2214 10.0519 10.8248 10.4428 10.4252C11.0104 9.83929 11.5876 9.26251 12.1594 8.68056C12.4896 8.34868 12.8125 8.00977 13.1425 7.67766C13.2083 7.61462 13.2509 7.54266 13.3426 7.51782Z" fill="#B17319"/>
<path d="M14.7283 7.5107C15.5221 7.50977 16.3158 7.5114 17.1097 7.50977C17.1062 8.1168 17.1095 8.72383 17.1078 9.33085C16.9423 9.20102 16.7765 9.07235 16.607 8.94765C16.3114 8.71187 16.002 8.49484 15.7071 8.25882C15.4834 8.0936 15.2653 7.92156 15.0437 7.75374C14.9377 7.67313 14.8274 7.60047 14.7283 7.5107Z" fill="#FFF2DE"/>
<path d="M11.3798 7.77954C11.4826 7.87142 11.5718 7.97806 11.6704 8.07532C11.7476 8.14821 11.7904 8.23563 11.8823 8.29213C11.8208 8.35306 11.7576 8.41259 11.697 8.4747C10.7635 9.41481 9.82628 10.3516 8.89463 11.2935C8.86641 11.248 8.83843 11.2026 8.81068 11.1566C8.78922 11.1566 8.76776 11.1569 8.74632 11.1574C8.76683 11.1473 8.78736 11.137 8.80765 11.1262C8.82234 11.0536 8.83773 10.9891 8.80205 10.9189C8.74048 10.8419 8.66167 10.8355 8.56979 10.8358C8.52408 10.7658 8.48303 10.6734 8.41564 10.6223C8.33262 10.6101 8.24587 10.6174 8.16192 10.6164C7.66451 10.6164 7.16687 10.6176 6.66946 10.6157C6.5981 10.6159 6.5279 10.6257 6.45795 10.6385L6.45865 10.6249C6.4969 10.562 6.537 10.5004 6.57199 10.4357C7.16291 10.4298 7.75406 10.435 8.34499 10.4329C8.46135 10.443 8.48723 10.5325 8.55556 10.6099C8.58727 10.5808 8.61922 10.5518 8.65 10.5217C9.2752 9.8924 9.90158 9.26384 10.5271 8.63478C10.6945 8.4583 10.8864 8.3111 11.0461 8.12642C11.1492 8.00267 11.2656 7.89251 11.3798 7.77954Z" fill="#B17319"/>
<path d="M6.56685 7.80566C6.68275 7.90106 6.73149 8.04894 6.84552 8.14926C6.84552 8.84161 6.84482 9.5342 6.84575 10.2267C7.32567 10.2303 7.80606 10.2213 8.28622 10.2314C8.33193 10.2947 8.3732 10.3587 8.40001 10.4325L8.34498 10.433C7.75405 10.4351 7.1629 10.4299 6.57199 10.4358C6.56545 10.3557 6.56312 10.2758 6.56428 10.1953C6.56685 9.39871 6.56218 8.60231 6.56685 7.80566Z" fill="#FFD274"/>
<path d="M0.903387 8.06567C0.963553 8.28951 1.03608 8.51099 1.10977 8.73083C1.32711 9.4354 1.57383 10.1341 1.81963 10.829C2.01295 11.3762 2.22935 11.9141 2.43806 12.4553C2.45648 12.498 2.47934 12.5385 2.50336 12.5783C2.56189 13.4432 2.73725 14.3035 3.02245 15.1217C3.10291 15.3507 3.19433 15.5765 3.28621 15.801C3.54902 16.4064 3.87269 16.9843 4.25071 17.5246C4.44169 17.7864 4.62406 18.048 4.84793 18.2836C5.08345 18.5542 5.34301 18.7991 5.60652 19.0415C5.61118 19.0747 5.61492 19.1068 5.63123 19.1372C6.36441 20.4196 7.17104 21.6595 8.05019 22.8461C8.13298 22.9593 8.21344 23.0938 8.32163 23.1826C7.91495 23.0507 7.51454 22.9007 7.12463 22.7247C6.2597 22.3417 5.44164 21.8327 4.69658 21.2493C4.03733 20.7295 3.43824 20.1343 2.91262 19.4784C2.53577 19.0276 2.19134 18.5507 1.89215 18.0444C1.66898 17.6668 1.45467 17.2808 1.27884 16.8787C1.2315 16.777 1.18207 16.6766 1.14148 16.5718C1.03025 16.2894 0.907822 16.0065 0.821775 15.7157C0.595805 15.0505 0.449126 14.3701 0.346975 13.6755C0.262095 13.0488 0.232946 12.4216 0.246237 11.7892C0.23808 11.511 0.279353 11.2407 0.300113 10.9645C0.34442 10.6213 0.35351 10.2892 0.424866 9.94935C0.531905 9.30974 0.695143 8.6795 0.903387 8.06567Z" fill="#E29E3C"/>
<path d="M6.88747 8.24487C6.95254 8.32128 7.00827 8.40424 7.064 8.48745C7.37905 8.93604 7.69153 9.38702 8.00728 9.83513C8.08564 9.95317 8.17309 10.0643 8.24655 10.1857C7.79228 10.1831 7.33778 10.1869 6.88351 10.1855C6.89074 9.5386 6.88305 8.89151 6.88747 8.24487Z" fill="#FFD274"/>
<path d="M11.8973 8.40503C11.9822 8.49972 12.0661 8.59394 12.1594 8.68066C11.5876 9.26261 11.0104 9.83939 10.4428 10.4253C10.0519 10.8249 9.65786 11.2215 9.2654 11.6198C9.17258 11.5187 9.10449 11.4017 9.0231 11.2925C9.97895 10.3347 10.9414 9.365 11.8973 8.40503Z" fill="#FFF2DE"/>
<path d="M12.1691 8.72414L12.1743 8.71875C12.2604 8.79679 12.3319 8.88679 12.4089 8.97305C12.7155 9.28945 13.0012 9.62714 13.3008 9.94946C13.4357 10.1114 13.5907 10.2546 13.7257 10.4159C13.9058 10.6102 14.0753 10.8141 14.2598 11.0041C14.6126 11.3843 14.9495 11.7795 15.3069 12.1551C15.6235 12.5074 15.9428 12.86 16.2571 13.2154C16.484 13.4416 16.6874 13.6882 16.9061 13.9219C16.9691 13.999 17.0327 14.0736 17.1078 14.1394C17.109 14.8926 17.1072 15.6459 17.1088 16.3992C16.0542 16.3985 14.9998 16.3992 13.9452 16.399C13.8466 16.399 13.7509 16.3931 13.653 16.4109C13.6327 16.4032 13.6127 16.3954 13.5926 16.3874C13.6075 16.2602 13.6005 16.1353 13.6013 16.0078C13.6021 14.771 13.6003 13.5337 13.6021 12.297C13.5767 12.2854 13.5284 12.2286 13.5009 12.2517C13.2964 12.4251 13.1279 12.6282 12.9364 12.8143C12.3796 13.3744 11.8233 13.935 11.266 14.4944C11.1758 14.3684 11.0873 14.2419 11.0024 14.1118C10.8897 13.9593 10.7796 13.8049 10.6737 13.6472C10.3586 13.1986 10.0436 12.7507 9.73107 12.3002C9.58023 12.086 9.42705 11.8746 9.28802 11.652C9.93473 10.9905 10.5888 10.3366 11.2352 9.67504C11.5444 9.35601 11.8566 9.04008 12.1691 8.72414Z" fill="#FFF2DE"/>
<path d="M17.1521 9.36304C17.2364 9.42605 17.3184 9.49128 17.4059 9.54963C17.4068 11.1864 17.4077 12.8238 17.4054 14.461C17.3156 14.3782 17.2466 14.2776 17.1519 14.1996C17.1516 12.5876 17.151 10.9753 17.1521 9.36304Z" fill="#FFD274"/>
<path d="M6.35322 10.6155C6.36651 10.679 6.38517 10.7345 6.41362 10.7931C6.3194 10.8646 6.221 10.9374 6.11419 10.9885C6.04912 10.9358 5.99853 10.8706 5.97543 10.789C6.10393 10.7366 6.22823 10.6757 6.35322 10.6155Z" fill="#FFDFB0"/>
<path d="M6.41362 10.793C6.47566 10.8141 6.53185 10.8405 6.59949 10.8374C7.25594 10.8349 7.91309 10.8382 8.56977 10.8358C8.66165 10.8356 8.74047 10.842 8.80203 10.919C8.6817 10.9742 8.56627 11.0733 8.43568 11.0831C8.31232 11.0452 8.19479 11.0617 8.06862 11.0596C7.62555 11.0588 7.18248 11.0611 6.7394 11.0585C6.6853 11.0588 6.63119 11.062 6.57756 11.0676C6.42295 11.0885 6.25132 11.0651 6.1142 10.9884C6.221 10.9373 6.31941 10.8645 6.41362 10.793Z" fill="#E29E3C"/>
<path d="M8.80203 10.9189C8.83771 10.9891 8.82232 11.0536 8.80763 11.1262C8.78734 11.137 8.76681 11.1473 8.7463 11.1574C8.58958 11.1533 8.46809 11.242 8.30952 11.2206L8.26147 11.2196C8.31488 11.1674 8.36875 11.1176 8.43568 11.0831C8.56627 11.0732 8.6817 10.9741 8.80203 10.9189Z" fill="#FFD274"/>
<path d="M8.7463 11.1575C8.76775 11.157 8.78921 11.1567 8.81067 11.1567C8.83842 11.2027 8.8664 11.2481 8.89461 11.2936C8.88296 11.3059 8.87082 11.3178 8.85893 11.3297C8.12227 12.0697 7.38606 12.8102 6.64938 13.5502C6.58922 13.6109 6.53746 13.6739 6.46003 13.7143C6.45047 13.823 6.4542 13.9304 6.45396 14.0391C6.45396 14.8906 6.45396 15.7423 6.45396 16.5939C6.4542 16.6902 6.45048 16.7878 6.45816 16.8828L6.46073 16.9022C6.57616 16.9098 6.69346 16.907 6.80937 16.9072C7.59454 16.907 8.37947 16.9072 9.16466 16.9072C9.31269 16.907 9.46058 16.9088 9.60872 16.9036C9.69189 16.8061 9.78475 16.7189 9.87479 16.6278C10.4167 16.0821 10.9598 15.5377 11.5018 14.9918C11.5624 15.0837 11.6253 15.1735 11.6939 15.2595C11.4906 15.4646 11.2781 15.66 11.0743 15.8647C10.722 16.2214 10.3542 16.5622 10.0013 16.9186C9.94751 16.9739 9.89641 17.0443 9.8232 17.0727C9.67162 17.1305 9.53121 17.112 9.37448 17.1047C8.45713 17.1052 7.53951 17.1042 6.6221 17.1052C6.54608 17.1063 6.49734 17.089 6.43672 17.0436C6.42528 17.0309 6.41409 17.0183 6.40313 17.0051C6.36069 16.9189 6.35789 16.8296 6.35066 16.7356C6.23219 16.8231 6.12772 16.9153 5.98361 16.9587C5.96915 16.9834 5.95516 17.0082 5.94164 17.033C5.91342 16.9093 5.92531 16.7895 5.92414 16.6641C5.92344 15.7581 5.92531 14.8514 5.92321 13.9454C5.91668 13.7937 5.93744 13.6452 5.99783 13.5054C6.04704 13.4162 6.14615 13.3526 6.21587 13.2784C6.82498 12.6641 7.43643 12.0521 8.04578 11.438C8.12972 11.3544 8.19666 11.268 8.30952 11.2207C8.46809 11.2421 8.58959 11.1534 8.7463 11.1575Z" fill="#653912"/>
<path d="M9.0231 11.2925C9.10449 11.4017 9.17258 11.5186 9.2654 11.6197C8.48885 12.406 7.72046 13.2 6.93832 13.981C6.93832 14.7758 6.93529 15.5715 6.93995 16.366C6.95185 16.3564 6.9628 16.3461 6.97284 16.335C6.98706 16.2434 6.97679 16.1473 6.97889 16.0547C6.98029 15.3638 6.97656 14.6726 6.98076 13.9817C7.06657 13.9186 7.13818 13.8416 7.21093 13.7644C7.8991 13.0562 8.60102 12.3614 9.28803 11.652C9.42705 11.8746 9.58023 12.086 9.73107 12.3002C10.0436 12.7508 10.3586 13.1987 10.6737 13.6473C10.7796 13.805 10.8897 13.9594 11.0024 14.1118C11.0873 14.2419 11.1758 14.3684 11.266 14.4945C10.7322 15.0336 10.1961 15.5705 9.66179 16.1091C9.56807 16.2045 9.4709 16.2955 9.38344 16.3974C8.681 16.4016 7.97815 16.3978 7.27575 16.3993C7.18342 16.4014 7.08803 16.3915 6.99662 16.4049C6.9859 16.4127 6.97609 16.4241 6.96724 16.4396C7.7151 16.444 8.46344 16.4388 9.2113 16.4422C9.26586 16.441 9.3251 16.4471 9.37829 16.4334C9.42939 16.4026 9.47152 16.3541 9.51427 16.3123C10.1077 15.7137 10.7039 15.1175 11.297 14.5182C11.3357 14.6124 11.3896 14.6852 11.4615 14.7563C11.3992 14.8179 11.3359 14.8787 11.2746 14.941C10.6875 15.5359 10.097 16.1274 9.50886 16.7211C8.53339 16.7217 6.56496 16.75 6.56496 16.75C6.50057 15.8768 6.56497 14.961 6.56497 14.086C6.56404 14.0002 6.56987 13.9131 6.56217 13.8275C6.55447 13.7418 6.55937 13.7714 6.55937 13.7714C6.55937 13.7714 6.68507 13.6132 6.75806 13.5425C6.8609 13.4424 6.9607 13.3396 7.06192 13.2382C7.1405 13.1597 7.23121 13.0967 7.30817 13.0165C7.85968 12.4568 8.42006 11.9051 8.96831 11.3421C8.98627 11.325 9.00468 11.3088 9.0231 11.2925Z" fill="#FFD274"/>
<path d="M8.85892 11.3296C8.89554 11.3332 8.93191 11.3373 8.96829 11.342C8.42005 11.905 7.85967 12.4567 7.30816 13.0164C7.2312 13.0966 7.14049 13.1596 7.06191 13.2381C6.96069 13.3394 6.86089 13.4423 6.75805 13.5424C6.68506 13.6131 6.63026 13.6985 6.55936 13.7713C6.54071 13.7605 6.52229 13.7498 6.50386 13.739L6.46002 13.7142C6.53745 13.6738 6.58921 13.6108 6.64937 13.5501C7.38605 12.8101 8.12226 12.0696 8.85892 11.3296Z" fill="#FFF2DE"/>
<path d="M23.9883 11.3626C23.9902 11.4606 23.9958 11.5584 24 11.6563V12.3503C23.9799 12.8594 23.9347 13.372 23.8538 13.8753C23.4618 16.3785 22.2558 18.7421 20.4497 20.5199C19.4623 21.5085 18.2876 22.3157 17.0199 22.9014C15.6918 23.5117 14.2554 23.8801 12.7966 23.9743C12.6605 23.9893 12.5243 23.9903 12.3879 23.9999H11.5842C11.3464 23.9885 11.1103 23.9633 10.8724 23.9558C10.6149 23.9142 10.3531 23.8961 10.0957 23.8497C10.1279 23.8463 10.1597 23.8424 10.1916 23.838C10.1353 23.7567 10.0831 23.6741 10.0458 23.5822C10.4787 23.6369 10.9139 23.6728 11.348 23.7168C11.5882 23.7466 11.8289 23.7247 12.0706 23.7446C12.2736 23.7351 12.4768 23.7355 12.68 23.7268C12.8436 23.7082 13.0082 23.7095 13.1718 23.6906C13.4454 23.6685 13.7178 23.6308 13.9883 23.5856C14.438 23.5035 14.8957 23.4104 15.3326 23.2745C16.0001 23.0814 16.6497 22.8146 17.2718 22.5057C17.7689 22.2457 18.2517 21.9608 18.7116 21.6386C19.2083 21.2757 19.6904 20.8886 20.1365 20.4648C20.3415 20.2804 20.5265 20.0724 20.7179 19.8742C20.9402 19.623 21.1583 19.3677 21.3586 19.0982C21.698 18.6432 22.0158 18.1685 22.287 17.6694C22.766 16.7982 23.1326 15.8625 23.363 14.8951C23.4331 14.6296 23.4884 14.361 23.5351 14.0905C23.598 13.7695 23.6131 13.4517 23.6512 13.1294C23.6885 12.7365 23.7333 12.3488 23.7273 11.9531C23.7336 11.7531 23.718 11.5553 23.7065 11.3558C23.8009 11.353 23.8943 11.3577 23.9883 11.3626Z" fill="#BE883A"/>
<path d="M13.5583 12.2776C13.5626 13.6559 13.5588 15.0353 13.5603 16.4139C13.6185 16.4257 13.6751 16.4401 13.7353 16.4413C14.7691 16.4413 15.8031 16.4415 16.8368 16.4413C16.9535 16.4415 17.0698 16.4427 17.1864 16.4387C17.1747 16.4218 17.1628 16.405 17.151 16.3883C17.1526 15.6588 17.151 14.9294 17.1519 14.1997C17.2466 14.2777 17.3156 14.3783 17.4054 14.4611C17.4086 15.2141 17.4044 15.9674 17.4077 16.7205C16.0424 16.7221 14.6761 16.72 13.3107 16.7214C13.2946 16.7022 13.2782 16.683 13.2621 16.6635C13.2592 15.5113 13.2624 14.3587 13.2603 13.2062C13.2444 13.1905 13.2286 13.1748 13.2128 13.1589C13.1575 13.1593 13.1022 13.1596 13.0469 13.1598C12.5213 13.6935 11.9884 14.2229 11.4615 14.7564C11.3896 14.6853 11.3357 14.6125 11.297 14.5182C11.9838 13.8342 12.6622 13.1397 13.3522 12.459C13.4189 12.3927 13.4687 12.3128 13.5583 12.2776Z" fill="#FFF2DE"/>
<path d="M21.2946 13.2363C21.2869 13.417 21.2359 13.5863 21.2037 13.7629C21.1122 14.2343 20.9826 14.6954 20.8243 15.1484C20.8089 15.1544 20.7932 15.1606 20.7779 15.1667C20.7464 15.1598 20.7153 15.1518 20.6841 15.1446C20.8838 14.6187 21.0106 14.0484 21.1109 13.4958C21.1498 13.5104 21.189 13.5249 21.2282 13.5396C21.2461 13.4372 21.2638 13.3357 21.2946 13.2363Z" fill="#BE883A"/>
<path d="M13.1458 13.3525C13.1549 13.4955 13.1502 13.638 13.151 13.7812C13.1518 14.8214 13.1493 15.8621 13.1518 16.9021C13.2997 16.8998 13.4476 16.8945 13.5954 16.8964C14.8236 16.8966 16.0516 16.8966 17.28 16.8964C17.3821 16.8985 17.484 16.9031 17.5861 16.9029C17.5959 16.1175 17.585 15.3309 17.5915 14.545C17.6717 14.6222 17.7349 14.7133 17.8166 14.7889C17.8475 14.8217 17.8973 14.8591 17.9038 14.9061C17.9215 15.0049 17.9137 15.1107 17.9145 15.2109C17.9142 15.6094 17.9142 16.0078 17.9147 16.4063C17.9191 16.597 17.9046 16.7885 17.8771 16.9772C17.8244 17.0604 17.7275 17.1158 17.63 17.1215C16.3525 17.1223 15.0816 17.1117 13.8053 17.123C13.626 17.1199 13.4448 17.1305 13.2662 17.1158C13.1677 17.1068 13.1022 17.0468 13.0446 16.9718C13.0155 16.844 13.0259 16.7025 13.0241 16.5704C13.0227 15.9375 13.0233 15.3047 13.0222 14.6719C13.0217 14.5782 13.0292 14.483 13.021 14.3896C13.0171 14.3194 12.9579 14.2723 12.9127 14.2262C12.8006 14.1893 12.731 14.2418 12.6591 14.3212C12.5397 14.4342 12.4201 14.5465 12.3046 14.6637C12.1045 14.866 11.8931 15.056 11.6939 15.2595C11.6253 15.1735 11.5625 15.0837 11.5018 14.9918C11.969 14.5207 12.4388 14.0517 12.9047 13.5794C12.9839 13.5003 13.0518 13.4154 13.1458 13.3525Z" fill="#B17319"/>
<path d="M6.46004 13.7144L6.50388 13.7392C6.5279 13.764 6.56195 13.7898 6.56218 13.8275C6.56988 13.9131 6.56405 14.0002 6.56498 14.0861C6.56498 14.8517 6.56475 15.6172 6.56498 16.3829C6.56475 16.4972 6.55728 16.6089 6.58131 16.7218C6.58318 16.7333 6.58504 16.7445 6.5869 16.7558C6.54539 16.7994 6.50225 16.8415 6.45818 16.8828C6.45049 16.7878 6.45421 16.6902 6.45398 16.5939C6.45398 15.7424 6.45398 14.8906 6.45398 14.0391C6.45421 13.9304 6.45049 13.8231 6.46004 13.7144Z" fill="#BE883A"/>
<path d="M12.9127 14.2261C12.845 14.321 12.7825 14.4176 12.7018 14.5021C12.6831 14.5078 12.6648 14.5137 12.6461 14.5193C12.6526 14.4534 12.6568 14.3875 12.6591 14.3212C12.731 14.2417 12.8006 14.1893 12.9127 14.2261Z" fill="#FFDFB0"/>
<path d="M12.9127 14.2261C12.9579 14.2723 13.0171 14.3193 13.021 14.3896C13.0292 14.4829 13.0217 14.5781 13.0222 14.6718C13.0233 15.3046 13.0227 15.9374 13.0241 16.5703C13.0259 16.7025 13.0155 16.844 13.0446 16.9717C13.0057 17.0148 12.9665 17.0781 12.9114 17.1004C12.8554 17.1224 12.7949 17.1337 12.7368 17.1485C12.6671 16.9565 12.6962 16.7814 12.6903 16.5811C12.6916 15.9916 12.6906 15.4019 12.6908 14.8125C12.6916 14.7109 12.6841 14.602 12.7018 14.5021C12.7825 14.4176 12.845 14.3209 12.9127 14.2261Z" fill="#653912"/>
<path d="M12.6591 14.3213C12.6568 14.3876 12.6526 14.4535 12.6461 14.5194C12.6648 14.5138 12.6831 14.5079 12.7018 14.5022C12.6841 14.6021 12.6916 14.711 12.6908 14.8126C12.6906 15.402 12.6916 15.9917 12.6903 16.5812C12.6139 16.494 12.5528 16.397 12.4863 16.3023C12.2659 15.9874 12.0468 15.672 11.8233 15.3594C11.2251 15.9414 10.6439 16.5451 10.0503 17.1324C9.97294 17.2041 9.90501 17.3126 9.80944 17.3582C9.64877 17.4268 9.47484 17.4212 9.30459 17.4193C8.42612 17.4189 7.5479 17.4193 6.66945 17.4191C6.5209 17.4181 6.38051 17.4268 6.23267 17.4039C6.25995 17.3874 6.28374 17.3714 6.30053 17.3436C6.3607 17.2543 6.40034 17.1446 6.43672 17.0436C6.49734 17.089 6.54608 17.1064 6.62211 17.1053C7.53951 17.1043 8.45714 17.1053 9.37448 17.1048C9.53122 17.112 9.67162 17.1306 9.8232 17.0727C9.89641 17.0443 9.94751 16.9739 10.0013 16.9187C10.3542 16.5622 10.722 16.2214 11.0743 15.8647C11.2781 15.6601 11.4906 15.4647 11.6939 15.2595C11.8931 15.0561 12.1045 14.8661 12.3046 14.6638C12.4201 14.5466 12.5397 14.4343 12.6591 14.3213Z" fill="#E29E3C"/>
<path d="M20.6841 15.1445C20.7153 15.1518 20.7464 15.1598 20.7779 15.1666C20.7932 15.1605 20.8089 15.1544 20.8243 15.1483C20.6273 15.6768 20.3957 16.1915 20.1196 16.6832C20.0827 16.6656 20.0456 16.6481 20.0088 16.6305C20.1098 16.4639 20.1983 16.2928 20.2793 16.1156C20.4323 15.7994 20.5629 15.4741 20.6841 15.1445Z" fill="#E29E3C"/>
<path d="M18.1202 15.2422C18.2121 15.3122 18.2832 15.3997 18.359 15.4857C18.6443 15.7953 18.9218 16.1126 19.2122 16.4174C19.2029 16.4333 19.1938 16.4494 19.1847 16.4656C19.0778 16.6526 18.9539 16.827 18.8267 17.0002C18.7263 17.1622 18.591 17.2944 18.4811 17.4498C18.3347 17.6084 18.2048 17.7793 18.0467 17.9267C17.916 18.0789 17.7563 18.1965 17.6183 18.3406C17.5196 18.4377 17.4023 18.5133 17.2998 18.6069C17.1617 18.732 17.0073 18.8241 16.8614 18.9387C16.6988 19.0672 16.5193 19.1542 16.3521 19.2709C16.2455 19.3444 16.1232 19.4014 16.0085 19.4614C15.873 19.5298 15.7476 19.6119 15.6079 19.6719C15.4092 19.764 15.202 19.8354 15.004 19.9285C14.4251 19.093 13.8461 18.2541 13.2647 17.4202C14.6574 17.4184 16.0505 17.42 17.4431 17.4196C17.5763 17.4189 17.7328 17.4305 17.8587 17.3827C17.9972 17.3246 18.0816 17.1987 18.1096 17.0534C18.1267 16.9375 18.1202 16.8275 18.1203 16.7111C18.1203 16.2214 18.1208 15.7318 18.1202 15.2422Z" fill="#E29E3C"/>
<path d="M19.1847 16.4656C19.2304 16.5169 19.2551 16.5694 19.2756 16.6346C19.153 16.8357 19.0082 17.0196 18.8759 17.2139C18.7813 17.3233 18.6939 17.4364 18.6059 17.551C18.5532 17.6154 18.4904 17.6691 18.4398 17.7356C18.3365 17.8744 18.1981 17.9766 18.091 18.1129C17.9907 18.2223 17.8685 18.3106 17.7659 18.4184C17.6517 18.5416 17.5127 18.63 17.3896 18.743C17.297 18.8294 17.1864 18.8998 17.0841 18.9755C16.9824 19.0455 16.8898 19.126 16.7851 19.1913C16.6667 19.2687 16.5424 19.3343 16.4279 19.4175C16.2772 19.5173 16.104 19.5909 15.9465 19.6807C15.6677 19.8469 15.3489 19.9481 15.0489 20.0857C15.0188 20.0393 14.9892 19.9927 14.9601 19.9458L15.004 19.9285C15.202 19.8353 15.4092 19.764 15.608 19.6719C15.7476 19.6118 15.873 19.5297 16.0085 19.4613C16.1233 19.4014 16.2455 19.3444 16.3521 19.2708C16.5193 19.1541 16.6989 19.0671 16.8614 18.9386C17.0073 18.824 17.1617 18.7319 17.2998 18.6069C17.4023 18.5133 17.5197 18.4376 17.6183 18.3406C17.7564 18.1965 17.9161 18.0788 18.0468 17.9266C18.2048 17.7792 18.3347 17.6083 18.4811 17.4497C18.591 17.2944 18.7263 17.1622 18.8268 17.0002C18.9539 16.827 19.0778 16.6525 19.1847 16.4656Z" fill="#FFF2DE"/>
<path d="M19.4009 16.6311C19.5203 16.763 19.642 16.8926 19.7567 17.0288C19.1821 17.9085 18.4527 18.6886 17.6216 19.3282C16.9574 19.8413 16.2203 20.2602 15.4463 20.5815C15.3505 20.4153 15.2318 20.2625 15.1242 20.1033C15.2038 20.0759 15.2778 20.037 15.3549 20.0044C15.5916 19.9067 15.8434 19.8139 16.063 19.6831C16.2259 19.5891 16.4054 19.5148 16.5603 19.4098C16.7277 19.2926 16.9082 19.2048 17.0696 19.077C17.2268 18.9547 17.4021 18.8492 17.5476 18.7138C17.6463 18.6233 17.7571 18.553 17.8506 18.4567C17.9313 18.3727 18.0169 18.2954 18.1047 18.2197C18.2106 18.13 18.29 18.0165 18.3923 17.9225C18.5107 17.8138 18.5999 17.6801 18.7144 17.5674C18.8102 17.4512 18.8984 17.33 18.9979 17.2168C19.1317 17.0209 19.2784 16.8353 19.4009 16.6311Z" fill="#E29E3C"/>
<path d="M6.58129 16.7217C7.55651 16.7201 8.53338 16.7217 9.50885 16.7211C9.54239 16.7818 9.5758 16.8424 9.60872 16.9036C9.46058 16.9088 9.31268 16.9069 9.16465 16.9072C8.37947 16.9072 7.59453 16.9069 6.80936 16.9072C6.69345 16.9069 6.57616 16.9097 6.46073 16.9021L6.45816 16.8827C6.50223 16.8414 6.54537 16.7993 6.58688 16.7557C6.58503 16.7444 6.58316 16.7332 6.58129 16.7217Z" fill="#B17319"/>
<path d="M13.3107 16.7214C14.6761 16.72 16.0424 16.7221 17.4077 16.7205C17.4389 16.7706 17.4679 16.8219 17.4952 16.8744C17.3847 16.8841 17.2741 16.8833 17.1633 16.8817C15.9896 16.8817 14.8158 16.8819 13.6421 16.8817C13.4931 16.881 13.3447 16.8852 13.1957 16.8782C13.2286 16.8214 13.2626 16.7669 13.3107 16.7214Z" fill="#B17319"/>
<path d="M6.35067 16.7356C6.35791 16.8296 6.36071 16.9189 6.40315 17.0051C6.27815 17.0982 6.13124 17.1445 6.00112 17.2292C5.96987 17.1675 5.95284 17.101 5.94165 17.033C5.95517 17.0082 5.96917 16.9834 5.98362 16.9587C6.12774 16.9153 6.23221 16.8231 6.35067 16.7356Z" fill="#FFD274"/>
<path d="M13.0446 16.9719C13.1022 17.047 13.1677 17.1069 13.2662 17.1159C13.4448 17.1306 13.626 17.1201 13.8053 17.1231C15.0816 17.1118 16.3524 17.1224 17.6299 17.1217C17.7275 17.1159 17.8244 17.0605 17.8771 16.9773C17.9544 17.0045 18.0306 17.0331 18.1096 17.0535C18.0816 17.1988 17.9972 17.3247 17.8587 17.3828C17.7328 17.4306 17.5763 17.4189 17.4431 17.4197C16.0505 17.42 14.6574 17.4184 13.2647 17.4203C13.1621 17.4189 13.0583 17.4037 12.9609 17.3715C12.8548 17.3345 12.7793 17.2514 12.7368 17.1487C12.7949 17.1339 12.8554 17.1226 12.9114 17.1007C12.9665 17.0783 13.0056 17.015 13.0446 16.9719Z" fill="#FFDFB0"/>
<path d="M6.40313 17.0051C6.41409 17.0183 6.42528 17.0309 6.43671 17.0436C6.40033 17.1445 6.36069 17.2542 6.30052 17.3435C6.28373 17.3714 6.25994 17.3874 6.23266 17.4039C6.13752 17.3724 6.05963 17.31 6.0011 17.2292C6.13122 17.1445 6.27813 17.0982 6.40313 17.0051Z" fill="#FFDFB0"/>
<path d="M19.5949 17.5088C19.6865 17.5802 19.7563 17.6661 19.8424 17.7441C19.9489 17.8407 20.0478 17.9445 20.1485 18.0467C20.2222 18.122 20.3073 18.1832 20.382 18.2575C20.4766 18.3507 20.5619 18.4487 20.665 18.5332C20.7646 18.614 20.8498 18.7074 20.9393 18.7983C21.04 18.9038 21.1608 18.9823 21.2513 19.0984C21.0519 19.3679 20.835 19.6232 20.6138 19.8744C20.4234 20.0726 20.2393 20.2806 20.0353 20.465C19.5914 20.8888 19.1117 21.2759 18.6176 21.6388C18.16 21.961 17.6796 22.2459 17.185 22.5059C17.1389 22.5097 17.1274 22.5087 17.1004 22.4702C16.9509 22.2436 16.7968 22.0198 16.6556 21.7878C16.4859 21.5436 16.3222 21.2945 16.1622 21.0434C16.064 20.8977 15.9545 20.7573 15.8756 20.6026C16.0056 20.5346 16.1403 20.4763 16.2693 20.4064C16.7376 20.1665 17.1846 19.884 17.6069 19.5697C18.1066 19.2118 18.5501 18.7634 18.9604 18.3064C19.1878 18.0528 19.3913 17.7814 19.5949 17.5088Z" fill="#FFDFB0"/>
<path d="M14.9601 19.9458C14.9892 19.9927 15.0188 20.0393 15.0489 20.0857C14.9939 20.1059 14.9384 20.1251 14.8836 20.146C14.854 20.0973 14.8389 20.0468 14.8283 19.991C14.8724 19.9763 14.9165 19.9618 14.9601 19.9458Z" fill="#FFD274"/>
<path d="M10.3509 19.9927C10.4578 20.0056 10.5637 20.0206 10.6688 20.0428C10.5886 20.0848 10.5221 20.1389 10.4505 20.1935C10.4036 20.1919 10.3568 20.19 10.3099 20.1881C10.3143 20.1586 10.319 20.1293 10.3244 20.1C10.3332 20.0642 10.3421 20.0283 10.3509 19.9927Z" fill="#FFD274"/>
<path d="M13.6854 19.9966C13.6878 20.0069 13.6901 20.0175 13.6922 20.0278C13.6992 20.0662 13.7046 20.1049 13.7096 20.1437C13.5855 20.1752 13.4409 20.1581 13.3263 20.2149C13.4638 20.2276 13.5868 20.1968 13.723 20.1865C13.726 20.2402 13.7293 20.2936 13.7335 20.347C13.6117 20.3554 13.4914 20.3742 13.3699 20.384C13.3706 20.3987 13.3713 20.4134 13.372 20.4281C13.4965 20.4059 13.6221 20.3941 13.747 20.376C13.7496 20.4288 13.7524 20.4815 13.7547 20.5342C13.6922 20.5394 13.6299 20.5462 13.5676 20.553C13.4163 20.5645 13.2664 20.5874 13.1149 20.5961C13.0854 20.4295 13.1025 20.2609 13.0667 20.0946C13.1601 20.0573 13.2522 20.0557 13.3503 20.043C13.462 20.0288 13.5738 20.0126 13.6854 19.9966Z" fill="#FFD274"/>
<path d="M13.75 20.0294C13.7913 20.2155 13.816 20.4108 13.8352 20.6006C13.6621 20.6199 13.4889 20.637 13.3158 20.6576C13.2577 20.6654 13.2024 20.6555 13.1458 20.6442C13.0617 20.7033 12.9761 20.6837 12.8783 20.6894C12.858 20.667 12.8377 20.6442 12.8182 20.621C12.8967 20.6168 12.9751 20.6122 13.0534 20.6088C13.0576 20.4372 13.0415 20.2671 13.0409 20.0955L13.0667 20.0947C13.1024 20.261 13.0854 20.4295 13.1149 20.5962C13.2664 20.5875 13.4163 20.5645 13.5676 20.5531C13.6281 20.5542 13.6948 20.5634 13.7537 20.55C13.8126 20.4945 13.7781 20.401 13.7335 20.3471C13.7293 20.2937 13.726 20.2402 13.723 20.1865C13.5868 20.1969 13.4638 20.2277 13.3263 20.2149C13.4409 20.1582 13.5854 20.1752 13.7096 20.1438C13.7046 20.105 13.6992 20.0663 13.6922 20.0278C13.7116 20.0283 13.7309 20.0288 13.75 20.0294Z" fill="#653912"/>
<path d="M10.6688 20.0427C10.6823 20.0443 10.6956 20.046 10.7091 20.0476C10.6096 20.1328 10.5046 20.2066 10.3945 20.2769C10.3504 20.2427 10.3208 20.2103 10.2922 20.162C10.3034 20.1416 10.314 20.1207 10.3244 20.1C10.319 20.1292 10.3143 20.1586 10.3099 20.188C10.3568 20.1899 10.4036 20.1918 10.4505 20.1934C10.5221 20.1388 10.5886 20.0847 10.6688 20.0427Z" fill="#653912"/>
<path d="M10.7091 20.0479C10.8098 20.0542 10.9015 20.0486 10.9946 20.0953C10.9587 20.2553 10.9577 20.4182 10.9274 20.5792C10.8409 20.5674 10.7544 20.5566 10.6673 20.5494C10.6781 20.4897 10.6886 20.4296 10.6966 20.3694C10.6781 20.38 10.66 20.3906 10.6418 20.4013C10.5759 20.4371 10.5137 20.4923 10.443 20.5166C10.3797 20.5204 10.3127 20.5047 10.2499 20.496C10.2574 20.451 10.2635 20.4035 10.2808 20.3612C10.313 20.3277 10.3561 20.3034 10.3945 20.2771C10.5046 20.2068 10.6096 20.133 10.7091 20.0479Z" fill="#FFD274"/>
<path d="M11.3369 20.1069C11.373 20.1645 11.4092 20.2222 11.4458 20.2798C11.4572 20.2838 11.4686 20.2878 11.4803 20.2918C11.4843 20.2329 11.488 20.1743 11.4927 20.1157C11.5788 20.1193 11.6643 20.1087 11.7431 20.1425C11.7091 20.3059 11.7224 20.465 11.7156 20.6304C11.61 20.6278 11.5046 20.62 11.399 20.6141C11.378 20.5818 11.3538 20.5519 11.3276 20.5236C11.3038 20.5 11.2791 20.477 11.2549 20.4538C11.2523 20.5067 11.2502 20.5597 11.2481 20.6126C11.1613 20.6061 11.075 20.5965 10.9887 20.5871C10.9868 20.4214 11.0223 20.2604 11.0244 20.0953C11.1288 20.0933 11.2326 20.1004 11.3369 20.1069Z" fill="#FFD274"/>
<path d="M12.7228 20.1104C12.8268 20.0946 12.9355 20.0985 13.0409 20.0955C13.0415 20.2671 13.0576 20.4372 13.0534 20.6088C12.9751 20.6121 12.8967 20.6168 12.8182 20.621C12.8102 20.5647 12.8086 20.5071 12.8047 20.4503C12.7911 20.462 12.7778 20.4738 12.7648 20.486C12.7225 20.5288 12.6864 20.5872 12.6351 20.6196C12.5873 20.6353 12.5299 20.6271 12.4798 20.6282C12.4502 20.591 12.4185 20.5579 12.3828 20.5265C12.362 20.5079 12.3412 20.4893 12.3205 20.4707C12.321 20.5254 12.3219 20.5799 12.3224 20.6346C12.2363 20.6385 12.1505 20.6418 12.0645 20.6444C12.065 20.4771 12.0687 20.3097 12.0668 20.1424C12.1734 20.1344 12.2792 20.123 12.3866 20.1217C12.4406 20.1878 12.4933 20.2528 12.5618 20.3045C12.6125 20.2408 12.6582 20.1599 12.7228 20.1104Z" fill="#FFD274"/>
<path d="M10.9946 20.0952L11.0244 20.0953C11.0223 20.2604 10.9868 20.4213 10.9887 20.5871C10.9681 20.5845 10.9479 20.5818 10.9274 20.5792C10.9577 20.4182 10.9587 20.2553 10.9946 20.0952Z" fill="#653912"/>
<path d="M12.0307 20.1434C12.0152 20.3086 12.0216 20.4761 12.0197 20.6419C11.9334 20.6398 11.8472 20.6355 11.7608 20.632C11.7629 20.4682 11.7691 20.3043 11.7688 20.1408C11.8581 20.1173 11.9414 20.1307 12.0307 20.1434Z" fill="#FFD274"/>
<path d="M11.7431 20.1425L11.7688 20.1409C11.769 20.3044 11.7629 20.4682 11.7608 20.6321C11.7457 20.6314 11.7307 20.6309 11.7156 20.6304C11.7224 20.4649 11.7091 20.3058 11.7431 20.1425Z" fill="#653912"/>
<path d="M12.0307 20.1436L12.0668 20.1426C12.0687 20.3099 12.065 20.4773 12.0645 20.6446C12.1505 20.642 12.2363 20.6387 12.3224 20.6348C12.3219 20.5801 12.321 20.5256 12.3205 20.4709C12.3412 20.4895 12.362 20.5081 12.3828 20.5267C12.3786 20.587 12.3754 20.6472 12.3721 20.7074C12.2767 20.7149 12.1831 20.7194 12.0892 20.698C11.9859 20.7269 11.8937 20.7037 11.7914 20.6908C11.6725 20.6919 11.5636 20.7089 11.4444 20.6774C11.4281 20.6573 11.413 20.6361 11.399 20.6141C11.5046 20.62 11.61 20.6279 11.7156 20.6305C11.7307 20.631 11.7457 20.6315 11.7608 20.6322C11.8472 20.6356 11.9334 20.6399 12.0196 20.642C12.0216 20.4763 12.0152 20.3088 12.0307 20.1436Z" fill="#653912"/>
<path d="M13.7335 20.3472C13.7781 20.4011 13.8126 20.4946 13.7537 20.5501C13.6948 20.5635 13.6281 20.5543 13.5676 20.5532C13.6299 20.5463 13.6922 20.5395 13.7547 20.5344C13.7524 20.4817 13.7496 20.429 13.747 20.3762C13.6221 20.3942 13.4965 20.406 13.372 20.4282C13.3713 20.4135 13.3706 20.3989 13.3699 20.3841C13.4914 20.3743 13.6117 20.3555 13.7335 20.3472Z" fill="#653912"/>
<path d="M10.6418 20.4011C10.6896 20.4237 10.6623 20.4797 10.6312 20.5036C10.5839 20.5389 10.5286 20.5743 10.4705 20.5872C10.389 20.588 10.3029 20.5859 10.2478 20.517L10.2499 20.4958C10.3127 20.5046 10.3796 20.5203 10.443 20.5165C10.5137 20.4921 10.5759 20.437 10.6418 20.4011Z" fill="#653912"/>
<path d="M11.2549 20.4536C11.2791 20.4768 11.3037 20.4998 11.3276 20.5234C11.3099 20.5713 11.3047 20.6449 11.2664 20.68C11.1674 20.6875 11.0839 20.6506 10.9899 20.6404C10.8985 20.6336 10.8048 20.6439 10.7152 20.6101C10.6883 20.5987 10.679 20.5736 10.6673 20.5492C10.7544 20.5564 10.8409 20.5672 10.9274 20.579C10.9479 20.5816 10.9682 20.5843 10.9887 20.5869C11.075 20.5964 11.1613 20.6059 11.2481 20.6124C11.2502 20.5595 11.2523 20.5066 11.2549 20.4536Z" fill="#653912"/>
<path d="M12.7648 20.4861C12.7778 20.5253 12.8053 20.5571 12.7825 20.5984C12.7443 20.6593 12.6941 20.7111 12.616 20.7024C12.5458 20.7036 12.5195 20.6811 12.4798 20.6283C12.5299 20.6272 12.5873 20.6355 12.6351 20.6197C12.6864 20.5873 12.7225 20.529 12.7648 20.4861Z" fill="#653912"/>
<path d="M15.1722 20.6907C15.2316 20.7296 15.2859 20.7748 15.3398 20.8208C15.242 20.8742 15.1377 20.9077 15.0336 20.9445C14.4373 21.1584 13.8216 21.2988 13.1969 21.3975C13.2286 21.3886 13.26 21.3781 13.2916 21.368C13.2906 21.2909 13.2642 21.2286 13.2274 21.1625C13.891 21.0738 14.5453 20.9302 15.1722 20.6907Z" fill="#E29E3C"/>
<path d="M9.86962 20.9805C10.0778 21.0429 10.2863 21.0714 10.4996 21.1129C10.9381 21.1874 11.3793 21.2242 11.8231 21.2432C12.0652 21.2411 12.3051 21.253 12.5462 21.2252C12.7748 21.2216 13.0017 21.1973 13.2274 21.1624C13.2642 21.2285 13.2906 21.2908 13.2916 21.3679C13.26 21.378 13.2286 21.3885 13.1969 21.3974C12.8576 21.4436 12.5155 21.4811 12.1729 21.4884C11.8594 21.5125 11.5528 21.4869 11.2401 21.4818C10.9258 21.4689 10.6278 21.4105 10.3187 21.3586C10.1415 21.3232 9.96261 21.2917 9.78793 21.2446C9.82294 21.2444 9.85795 21.244 9.8932 21.243C9.89554 21.1532 9.88657 21.0684 9.86962 20.9805Z" fill="#BE883A"/>
</g>
<defs>
<clipPath id="clip0_5551_3338">
<rect width="24" height="24" fill="white"/>
</clipPath>
</defs>
</svg>
