<svg width="24" height="24" viewBox="0 0 24 24" fill="none" xmlns="http://www.w3.org/2000/svg">
<g clip-path="url(#clip0_4088_1550)">
<path d="M24 12C24 5.37258 18.6274 0 12 0C5.37258 0 0 5.37258 0 12C0 18.6274 5.37258 24 12 24C18.6274 24 24 18.6274 24 12Z" fill="#0B0E11"/>
<path fill-rule="evenodd" clip-rule="evenodd" d="M14.4274 6.59387C14.4988 6.59385 14.5694 6.57934 14.635 6.55121C14.7005 6.52308 14.7597 6.48192 14.8089 6.43023L15.5739 5.63557C15.6209 5.5863 15.6774 5.54703 15.74 5.52014C15.8025 5.49325 15.8699 5.47929 15.938 5.47909H15.9697C16.1139 5.47909 16.253 5.54046 16.3481 5.64989L16.9924 6.37602C17.1152 6.51409 17.29 6.59387 17.4752 6.59387H19.2005C18.3618 5.47694 17.2745 4.57067 16.0248 3.94687C14.7751 3.32308 13.3973 2.99889 12.0005 3C10.6036 2.99873 9.22555 3.32284 7.97563 3.94665C6.72572 4.57045 5.63828 5.4768 4.79949 6.59387H14.4274ZM15.3377 9.0208H20.4994C20.7469 9.72648 20.9085 10.471 20.9729 11.2432H14.2771C14.1856 11.2432 14.0952 11.2237 14.0118 11.1862C13.9284 11.1486 13.854 11.0938 13.7933 11.0253L13.149 10.2992C13.1017 10.2455 13.0435 10.2025 12.9782 10.1731C12.913 10.1436 12.8422 10.1284 12.7706 10.1284H12.7399C12.6717 10.1284 12.6041 10.1423 12.5413 10.1692C12.4786 10.1961 12.4219 10.2354 12.3748 10.2849L11.6108 11.0806C11.5616 11.1322 11.5024 11.1733 11.4369 11.2015C11.3713 11.2296 11.3007 11.2441 11.2294 11.2442H3.0271C3.08943 10.4863 3.24821 9.7395 3.4996 9.02182H12.1877C12.4607 9.02182 12.7195 8.90421 12.9015 8.70068L13.4538 8.07682C13.5011 8.02308 13.5593 7.98004 13.6246 7.95056C13.6898 7.92107 13.7606 7.90582 13.8322 7.90582C13.9038 7.90582 13.9746 7.92107 14.0398 7.95056C14.1051 7.98004 14.1633 8.02308 14.2106 8.07682L14.8549 8.80295C14.9777 8.94102 15.1536 9.0208 15.3377 9.0208ZM8.37289 15.7503C8.32346 15.8019 8.26407 15.8429 8.19833 15.8709C8.13258 15.8988 8.06184 15.9131 7.99039 15.913H3.88721C3.54346 15.2013 3.29584 14.4471 3.15085 13.6701H8.99062C9.26369 13.6701 9.52244 13.5535 9.70346 13.349L10.2557 12.7251C10.303 12.6714 10.3613 12.6283 10.4265 12.5988C10.4918 12.5694 10.5625 12.5541 10.6341 12.5541C10.7057 12.5541 10.7765 12.5694 10.8418 12.5988C10.907 12.6283 10.9652 12.6714 11.0125 12.7251L11.6569 13.4512C11.7796 13.5903 11.9555 13.6691 12.1406 13.6691H20.8491C20.7041 14.4463 20.4565 15.2009 20.1128 15.913H11.0391C10.9477 15.9129 10.8573 15.8935 10.7739 15.856C10.6905 15.8184 10.616 15.7636 10.5554 15.6951L9.91107 14.969C9.86374 14.9153 9.80551 14.8723 9.74026 14.8428C9.67502 14.8134 9.60425 14.7982 9.53266 14.7982H9.50198C9.4337 14.7982 9.36613 14.812 9.30337 14.8389C9.24061 14.8658 9.18396 14.9052 9.13687 14.9547L8.37289 15.7503ZM8.60198 18.1374H18.5838C17.7421 19.0416 16.723 19.7626 15.5901 20.2551C14.4572 20.7477 13.2348 21.0012 11.9995 21C10.7642 21.0014 9.54192 20.748 8.40901 20.2556C7.2761 19.7632 6.25692 19.0425 5.41517 18.1384H5.45199C5.72505 18.1384 5.9838 18.0208 6.16483 17.8173L6.7171 17.1934C6.76442 17.1397 6.82264 17.0966 6.88788 17.0671C6.95313 17.0377 7.02391 17.0224 7.09551 17.0224C7.16711 17.0224 7.23788 17.0377 7.30313 17.0671C7.36838 17.0966 7.4266 17.1397 7.47391 17.1934L8.11823 17.9195C8.24096 18.0576 8.41687 18.1374 8.60198 18.1374Z" fill="white"/>
</g>
<defs>
<clipPath id="clip0_4088_1550">
<rect width="24" height="24" fill="white"/>
</clipPath>
</defs>
</svg>
