<svg width="24" height="24" viewBox="0 0 24 24" fill="none" xmlns="http://www.w3.org/2000/svg">
<circle cx="16" cy="8" r="8" fill="#2E3148"/>
<path d="M16 12.6418C18.5637 12.6418 20.6419 10.5636 20.6419 7.99987C20.6419 5.43619 18.5637 3.35791 16 3.35791C13.4363 3.35791 11.358 5.43619 11.358 7.99987C11.358 10.5636 13.4363 12.6418 16 12.6418Z" fill="#1B1E36"/>
<path fill-rule="evenodd" clip-rule="evenodd" d="M14.5583 5.48365C12.1846 4.37089 10.2963 3.93462 9.96346 4.51016C9.63063 5.08572 10.9481 6.50439 13.0944 8.0099C10.9404 9.50708 9.61762 10.9215 9.94806 11.4975C10.2789 12.0743 12.1727 11.6429 14.5572 10.5361C14.7833 13.1548 15.3514 15.0123 16.0165 15.0123C16.6805 15.0123 17.2479 13.1604 17.4747 10.5479C19.8493 11.6615 21.7364 12.0982 22.0693 11.5224C22.4025 10.9478 21.0845 9.52832 18.9386 8.02232C21.0924 6.52521 22.4151 5.1109 22.0847 4.53486C21.7536 3.95786 19.86 4.38932 17.4757 5.49616C17.2496 2.87776 16.6814 1.02051 16.0165 1.02051C15.3526 1.02051 14.7852 2.87185 14.5583 5.48365ZM14.5303 5.83431C14.5001 6.24619 14.4782 6.67492 14.4655 7.11654C14.0839 7.35011 13.7186 7.5853 13.3725 7.81926C12.4585 7.1641 11.819 6.62738 11.819 6.62738C10.3606 5.39943 10.251 4.80059 10.251 4.80059L10.2506 4.79892C10.1866 4.64718 10.3217 4.61064 10.3217 4.61064C10.9198 4.49768 11.76 4.75508 11.76 4.75508C12.5503 4.93504 13.5545 5.35795 14.5303 5.83431ZM14.8278 5.98157C14.8184 6.08166 14.8093 6.18388 14.8003 6.28828C14.8003 6.28828 14.7921 6.52684 14.787 6.9224C14.9348 6.83443 15.0847 6.74679 15.2366 6.65966C15.3809 6.57697 15.5245 6.49607 15.6675 6.41704C15.3964 6.27217 15.1144 6.12537 14.8278 5.98157ZM16.0218 6.22414C15.6273 6.0103 15.2394 5.81136 14.8623 5.62859C15.1976 2.36607 15.7342 1.55883 15.9243 1.37078C15.945 1.35035 15.9722 1.33787 16.0011 1.33553C16.0301 1.33319 16.059 1.34114 16.0826 1.35798C16.3763 1.56604 16.6225 2.43619 16.6225 2.43619C16.9344 3.59395 17.1004 4.72144 17.1883 5.63168C16.8091 5.81336 16.4189 6.01127 16.0218 6.22414ZM16.0057 6.5998C15.6598 6.79617 15.2382 7.04109 14.7836 7.31739C14.7818 7.72472 14.7846 8.22667 14.7989 8.77412C15.0874 8.95244 15.3831 9.12536 15.6794 9.28514C15.6794 9.28514 15.7972 9.35749 16.0121 9.47761C16.3282 9.30923 16.6439 9.13072 16.9472 8.94439C16.9472 8.94439 17.069 8.87869 17.2808 8.75281C17.2922 8.39296 17.2946 8.02839 17.2839 7.67075C17.2839 7.67075 17.2871 7.54679 17.2843 7.3245C16.9335 7.1186 16.4935 6.86625 16.0057 6.5998ZM17.275 6.94151C17.1198 6.84788 16.9621 6.7546 16.8022 6.66188C16.6513 6.57438 16.5009 6.48888 16.3514 6.40543C16.6982 6.21231 16.9101 6.1003 16.9101 6.1003C17.0147 6.05162 17.1171 6.00447 17.2175 5.9588C17.2486 6.33978 17.2657 6.67289 17.275 6.94151ZM17.576 7.49711C17.5788 7.66857 17.5802 7.84174 17.5802 8.01641C17.5802 8.204 17.5786 8.38986 17.5754 8.57372C17.8054 8.43085 18.0883 8.24845 18.4062 8.02964C18.3138 7.96382 18.219 7.89683 18.1215 7.82865C18.1215 7.82865 17.9178 7.70106 17.576 7.49711ZM18.6764 7.8407C18.3257 7.60091 17.9549 7.35972 17.5675 7.12014C17.5548 6.6759 17.5328 6.24468 17.5024 5.83052C20.5073 4.49291 21.4771 4.55743 21.7344 4.6283C21.7625 4.63614 21.7869 4.65366 21.8033 4.67777C21.8197 4.70188 21.8271 4.73101 21.824 4.76001C21.7912 5.11841 21.1574 5.76481 21.1574 5.76481C20.312 6.60873 19.4204 7.31198 18.6764 7.8407ZM18.6609 8.21269C18.3147 8.44675 17.9492 8.68205 17.5674 8.91573C17.5545 9.36817 17.5318 9.8071 17.5005 10.2282C18.3309 10.6073 19.3865 11.0269 20.5409 11.3365C20.5409 11.3365 21.4173 11.5597 21.7445 11.4099C21.7711 11.3978 21.7925 11.3768 21.805 11.3506C21.8175 11.3243 21.8204 11.2945 21.813 11.2663C21.7453 11.0083 21.3162 10.1387 18.6609 8.21269ZM17.2002 10.0884C17.2274 9.77274 17.2508 9.4389 17.2671 9.09725C17.1124 9.18951 16.9554 9.2814 16.7961 9.37275C16.635 9.46511 16.4746 9.55522 16.3151 9.64302C16.5536 9.77029 16.8525 9.92334 17.2002 10.0884ZM15.704 9.63853C15.5476 9.55148 15.3904 9.46218 15.2325 9.37071C15.0896 9.28791 14.9485 9.20468 14.8094 9.12114C14.8198 9.42456 14.834 9.73818 14.8529 10.0544C15.1276 9.92615 15.4144 9.78694 15.704 9.63853ZM14.4573 8.55848C14.4542 8.37959 14.4527 8.19881 14.4527 8.01641C14.4527 7.84889 14.454 7.68274 14.4566 7.51816C14.1965 7.67946 13.9294 7.8492 13.6625 8.02444C13.9136 8.19981 14.1806 8.38026 14.4573 8.55848ZM13.3835 8.20977C13.7262 8.44336 14.0878 8.67823 14.4654 8.91159C14.4781 9.35627 14.5001 9.7879 14.5306 10.2024C13.5006 10.668 12.7109 10.9546 12.7109 10.9546C10.9183 11.6005 10.3448 11.3948 10.3448 11.3948C10.1802 11.374 10.2173 11.2387 10.2173 11.2387C10.4192 10.6646 11.0618 10.0661 11.0618 10.0661C11.6135 9.47245 12.4825 8.81544 13.3835 8.20977ZM16.012 9.80772C16.4065 10.0215 16.7944 10.2205 17.1714 10.4033C17.0629 11.523 16.9195 12.3456 16.9195 12.3456C16.5883 14.2221 16.1244 14.6175 16.1244 14.6175C16.0257 14.7492 15.9269 14.6504 15.9269 14.6504C15.5292 14.1896 15.3304 13.3335 15.3304 13.3335C15.0892 12.5573 14.9515 11.4724 14.8746 10.3862C15.2447 10.2083 15.6251 10.0151 16.012 9.80772Z" fill="#6F7390"/>
<path d="M19.8518 4.83953C19.8518 5.11226 19.6381 5.33335 19.3745 5.33335C19.1108 5.33335 18.8971 5.11226 18.8971 4.83953C18.8971 4.5668 19.1108 4.3457 19.3745 4.3457C19.6381 4.3457 19.8518 4.5668 19.8518 4.83953Z" fill="#B7B9C8"/>
<path d="M16.823 8.00004C16.823 8.45459 16.4545 8.82308 16 8.82308C15.5454 8.82308 15.177 8.45459 15.177 8.00004C15.177 7.54549 15.5454 7.177 16 7.177C16.4545 7.177 16.823 7.54549 16.823 8.00004Z" fill="#B7B9C8"/>
<path d="M11.5391 7.01239C11.8027 7.01239 12.0164 6.7913 12.0164 6.51856C12.0164 6.24583 11.8027 6.02474 11.5391 6.02474C11.2754 6.02474 11.0617 6.24583 11.0617 6.51856C11.0617 6.7913 11.2754 7.01239 11.5391 7.01239Z" fill="#B7B9C8"/>
<path d="M15.5062 12.5762C15.5062 12.8489 15.2924 13.07 15.0288 13.07C14.7651 13.07 14.5514 12.8489 14.5514 12.5762C14.5514 12.3034 14.7651 12.0823 15.0288 12.0823C15.2924 12.0823 15.5062 12.3034 15.5062 12.5762Z" fill="#B7B9C8"/>
<g clip-path="url(#clip0_5249_15645)">
<path fill-rule="evenodd" clip-rule="evenodd" d="M8.0655 8C12.4843 8 16.0662 11.5817 16.0662 16C16.0662 20.4183 12.4843 24 8.0655 24C3.647 24 0.0650024 20.4183 0.0650024 16C0.0650024 11.5817 3.647 8 8.0655 8Z" fill="#6039FF"/>
<path fill-rule="evenodd" clip-rule="evenodd" d="M8.06599 12.0732C10.235 12.0732 11.9935 13.8317 11.9935 16.0007C11.9935 18.17 10.235 19.9285 8.06599 19.9285C5.89674 19.9285 4.13824 18.17 4.13824 16.001C4.13824 13.8317 5.89699 12.0732 8.06599 12.0732Z" fill="white" fill-opacity="0.2"/>
<path fill-rule="evenodd" clip-rule="evenodd" d="M7.855 10.2466C7.9335 10.1696 8.028 10.1121 8.13425 10.1121C8.24025 10.1121 8.335 10.1696 8.4135 10.2466C8.4935 10.3248 8.57126 10.4366 8.64526 10.5776C8.80401 10.8796 8.94675 11.3163 9.06625 11.8536C9.19875 12.4501 9.30075 13.1586 9.36675 13.9338C10.0718 13.6033 10.7365 13.3376 11.3193 13.1541C11.8448 12.9891 12.2945 12.8941 12.6355 12.8803C12.7948 12.8741 12.9305 12.8853 13.0385 12.9153C13.1443 12.9448 13.2415 12.9981 13.2945 13.0898C13.3475 13.1818 13.345 13.2923 13.3178 13.3988C13.29 13.5076 13.2318 13.6306 13.1468 13.7651C12.9643 14.0536 12.6573 14.3951 12.2513 14.7676C11.801 15.1801 11.238 15.6226 10.5993 16.0676C11.238 16.5126 11.801 16.9551 12.2513 17.3676C12.6573 17.7401 12.9645 18.0818 13.1468 18.3701C13.2318 18.5046 13.29 18.6276 13.3178 18.7363C13.3453 18.8426 13.3478 18.9533 13.2945 19.0453C13.2415 19.1371 13.1445 19.1903 13.0385 19.2198C12.9303 19.2498 12.7945 19.2613 12.6355 19.2548C12.2945 19.2413 11.8448 19.1463 11.3193 18.9811C10.7365 18.7976 10.0718 18.5318 9.36675 18.2011C9.30075 18.9763 9.19875 19.6843 9.06625 20.2806C8.94675 20.8181 8.80401 21.2546 8.64526 21.5566C8.57126 21.6973 8.49375 21.8091 8.4135 21.8878C8.335 21.9646 8.24025 22.0221 8.13425 22.0221C8.028 22.0221 7.9335 21.9646 7.85475 21.8878C7.77475 21.8093 7.69725 21.6973 7.623 21.5566C7.46425 21.2546 7.32175 20.8181 7.20225 20.2806C7.06975 19.6843 6.96775 18.9763 6.9015 18.2011C6.19651 18.5316 5.53175 18.7976 4.94875 18.9811C4.42325 19.1463 3.97375 19.2411 3.6325 19.2548C3.4735 19.2613 3.3375 19.2498 3.22975 19.2198C3.12375 19.1903 3.0265 19.1371 2.9735 19.0453C2.9205 18.9533 2.923 18.8428 2.95025 18.7363C2.97825 18.6276 3.03625 18.5046 3.1215 18.3701C3.30375 18.0818 3.61075 17.7401 4.01675 17.3676C4.46725 16.9551 5.03 16.5126 5.66875 16.0676C5.03 15.6226 4.46725 15.1801 4.01675 14.7676C3.61075 14.3951 3.30375 14.0536 3.1215 13.7651C3.0365 13.6306 2.97825 13.5076 2.95025 13.3991C2.923 13.2926 2.9205 13.1816 2.9735 13.0901C3.0265 12.9981 3.12375 12.9451 3.22975 12.9153C3.33775 12.8853 3.4735 12.8741 3.6325 12.8803C3.9735 12.8938 4.42325 12.9888 4.94875 13.1541C5.53175 13.3376 6.19651 13.6036 6.9015 13.9341C6.9675 13.1586 7.0695 12.4501 7.20225 11.8536C7.32175 11.3161 7.46425 10.8796 7.623 10.5776C7.697 10.4368 7.775 10.3251 7.855 10.2466ZM6.88 14.2066C6.1515 13.8611 5.46651 13.5851 4.87201 13.3981C4.35576 13.2356 3.93075 13.1481 3.6225 13.1358C3.47825 13.1301 3.3715 13.1413 3.2985 13.1618C3.22325 13.1828 3.2005 13.2086 3.195 13.2178C3.18975 13.2273 3.17875 13.2598 3.198 13.3353C3.217 13.4088 3.2605 13.5066 3.33775 13.6286C3.50225 13.8891 3.79076 14.2131 4.18976 14.5788C4.64901 14.9998 5.2305 15.4548 5.89425 15.9126C6.19992 15.7055 6.51017 15.5053 6.82475 15.3121C6.83525 14.9336 6.854 14.5638 6.88 14.2066ZM7.0855 15.1536C7.0955 14.8716 7.1095 14.5953 7.128 14.3261C7.3705 14.4448 7.617 14.5706 7.86625 14.7031C7.60352 14.8489 7.34323 14.9991 7.0855 15.1536ZM6.818 15.6171C6.5785 15.7666 6.346 15.9171 6.122 16.0676C6.35145 16.2216 6.58348 16.3718 6.818 16.5181C6.81298 16.2177 6.81298 15.9174 6.818 15.6171ZM7.077 16.6776C7.06773 16.2709 7.06773 15.8642 7.077 15.4576C7.42466 15.2462 7.77708 15.0428 8.134 14.8476C8.4911 15.0428 8.8437 15.2462 9.1915 15.4576C9.20082 15.8642 9.20082 16.2709 9.1915 16.6776C8.8437 16.8889 8.4911 17.0923 8.134 17.2876C7.77699 17.0923 7.42448 16.8889 7.07675 16.6776H7.077ZM6.8245 16.8233C6.51009 16.63 6.20002 16.4297 5.8945 16.2226C5.23075 16.6803 4.649 17.1351 4.1895 17.5563C3.79075 17.9221 3.5025 18.2461 3.33775 18.5066C3.2605 18.6286 3.217 18.7266 3.198 18.7998C3.17875 18.8753 3.18975 18.9078 3.195 18.9173C3.2005 18.9266 3.22325 18.9523 3.2985 18.9736C3.3715 18.9938 3.4785 19.0051 3.6225 18.9993C3.93075 18.9868 4.35576 18.8993 4.87201 18.7368C5.46651 18.5501 6.1515 18.2741 6.88 17.9286C6.85338 17.5606 6.83471 17.1921 6.8245 16.8233ZM7.128 17.8091C7.10917 17.5335 7.09501 17.2576 7.0855 16.9816C7.34321 17.1361 7.6035 17.2863 7.86625 17.4321C7.62231 17.5619 7.37619 17.6876 7.128 17.8091ZM7.1485 18.0836C7.2135 18.8866 7.31675 19.6171 7.452 20.2251C7.5695 20.7531 7.706 21.1646 7.8495 21.4376C7.9165 21.5651 7.9795 21.6518 8.03375 21.7048C8.0895 21.7593 8.12325 21.7663 8.13425 21.7663C8.14525 21.7663 8.17875 21.7593 8.23475 21.7048C8.289 21.6518 8.35175 21.5651 8.419 21.4373C8.5625 21.1646 8.699 20.7531 8.8165 20.2248C8.9515 19.6173 9.055 18.8866 9.11975 18.0836C8.78746 17.9226 8.4588 17.7542 8.134 17.5786C7.80929 17.7542 7.48071 17.9226 7.1485 18.0836ZM8.40201 17.4321C8.65101 17.5646 8.89775 17.6906 9.14025 17.8091C9.15875 17.5398 9.173 17.2633 9.18275 16.9816C8.92501 17.136 8.66472 17.2862 8.40201 17.4321ZM9.44376 16.8231C9.43346 17.1919 9.41496 17.5605 9.38826 17.9286C10.1168 18.2741 10.8018 18.5501 11.396 18.7371C11.9125 18.8996 12.3375 18.9871 12.6458 18.9993C12.7898 19.0051 12.8965 18.9938 12.9695 18.9736C13.0448 18.9526 13.0675 18.9266 13.073 18.9173C13.0785 18.9078 13.0895 18.8753 13.07 18.7998C13.0513 18.7263 13.0075 18.6286 12.9305 18.5068C12.7655 18.2461 12.4773 17.9218 12.0785 17.5563C11.6193 17.1353 11.0375 16.6803 10.3738 16.2226C10.0682 16.4296 9.75817 16.6298 9.44376 16.8231ZM10.3738 15.9126C11.0375 15.4548 11.6193 15.0001 12.0785 14.5788C12.4773 14.2131 12.7658 13.8891 12.9305 13.6286C13.0075 13.5066 13.0513 13.4088 13.07 13.3353C13.0895 13.2598 13.0785 13.2273 13.073 13.2178C13.0675 13.2086 13.0448 13.1828 12.9695 13.1618C12.8965 13.1413 12.7898 13.1301 12.6458 13.1358C12.3375 13.1483 11.9125 13.2358 11.396 13.3983C10.8018 13.5851 10.1168 13.8611 9.3885 14.2066C9.4145 14.5638 9.433 14.9338 9.4435 15.3121C9.75801 15.5053 10.0682 15.7055 10.3738 15.9126ZM9.4505 15.6173C9.68975 15.7666 9.92225 15.9171 10.1463 16.0676C9.91689 16.2216 9.68494 16.3717 9.4505 16.5178C9.45553 16.2177 9.45553 15.9175 9.4505 15.6173ZM9.183 15.1538C9.1735 14.8777 9.15933 14.6017 9.1405 14.3261C8.89222 14.4475 8.64602 14.5732 8.40201 14.7031C8.66471 14.849 8.92525 14.9993 9.183 15.1538ZM8.134 14.5563C7.80929 14.3808 7.48071 14.2125 7.1485 14.0516C7.2135 13.2483 7.31675 12.5173 7.452 11.9091C7.5695 11.3811 7.706 10.9696 7.8495 10.6966C7.9165 10.5691 7.9795 10.4823 8.03375 10.4293C8.0895 10.3748 8.12325 10.3678 8.13425 10.3678C8.14525 10.3678 8.17875 10.3748 8.23475 10.4293C8.289 10.4823 8.35175 10.5693 8.419 10.6968C8.5625 10.9696 8.699 11.3811 8.8165 11.9093C8.9515 12.5173 9.055 13.2481 9.12 14.0516C8.79725 14.2076 8.4675 14.3763 8.134 14.5563Z" fill="white"/>
<path fill-rule="evenodd" clip-rule="evenodd" d="M4.117 14.3582C4.3485 14.3582 4.53625 14.5357 4.53625 14.7545C4.53625 14.9732 4.34875 15.1505 4.117 15.1505C3.88575 15.1505 3.698 14.973 3.698 14.7545C3.698 14.5357 3.8855 14.3582 4.117 14.3582ZM10.777 13.137C11.0085 13.137 11.1962 13.3142 11.1962 13.533C11.1962 13.7517 11.0087 13.929 10.777 13.929C10.5455 13.929 10.3577 13.7515 10.3577 13.533C10.3577 13.3142 10.5452 13.137 10.777 13.137ZM7.22975 19.2175C7.46125 19.2175 7.649 19.3947 7.649 19.6132C7.649 19.832 7.4615 20.0092 7.22975 20.0092C6.998 20.0092 6.81025 19.8317 6.81025 19.6132C6.81025 19.3947 6.998 19.2175 7.22975 19.2175ZM8.167 15.2412C8.26024 15.2412 8.35256 15.2596 8.4387 15.2953C8.52484 15.3309 8.60311 15.3832 8.66904 15.4492C8.73497 15.5151 8.78727 15.5934 8.82295 15.6795C8.85863 15.7656 8.877 15.858 8.877 15.9512C8.877 16.0445 8.85863 16.1368 8.82295 16.2229C8.78727 16.3091 8.73497 16.3873 8.66904 16.4533C8.60311 16.5192 8.52484 16.5715 8.4387 16.6072C8.35256 16.6428 8.26024 16.6612 8.167 16.6612C7.97869 16.6612 7.7981 16.5864 7.66495 16.4533C7.5318 16.3201 7.457 16.1395 7.457 15.9512C7.457 15.7629 7.5318 15.5823 7.66495 15.4492C7.7981 15.316 7.97869 15.2412 8.167 15.2412Z" fill="#F3E7FF"/>
</g>
<defs>
<clipPath id="clip0_5249_15645">
<rect width="16" height="16" fill="white" transform="translate(0 8)"/>
</clipPath>
</defs>
</svg>
