<svg width="24" height="24" viewBox="0 0 24 24" fill="none" xmlns="http://www.w3.org/2000/svg">
<g clip-path="url(#clip0_5507_1643)">
<path d="M12 24C18.6274 24 24 18.6274 24 12C24 5.37258 18.6274 0 12 0C5.37258 0 0 5.37258 0 12C0 18.6274 5.37258 24 12 24Z" fill="url(#paint0_linear_5507_1643)"/>
<path fill-rule="evenodd" clip-rule="evenodd" d="M3.9661 4.48575C2.05675 6.52165 0.995944 9.20922 1.00001 12.0004C0.996079 14.6589 1.95883 17.2283 3.70888 19.2296L4.42001 18.5184C2.87379 16.7104 2.02578 14.4086 2.0294 12.0296C2.02592 9.50358 2.98184 7.07052 4.70384 5.22245L3.96662 4.48575H3.9661ZM18.8357 19.3553C16.9876 21.0773 14.5545 22.0332 12.0285 22.0298C9.53453 22.0334 7.12989 21.1014 5.28975 19.4179L4.58332 20.1244C6.60799 21.9778 9.25442 23.004 11.9993 23.0002C14.7906 23.004 17.4782 21.9428 19.5139 20.0331L18.8357 19.3553ZM20.3779 19.1278L19.6976 18.4475C21.2064 16.6498 22.032 14.3771 22.0287 12.0301C22.0287 9.4334 21.0395 7.06836 19.4169 5.29079L20.1238 4.58436C21.9771 6.60911 23.0031 9.25553 22.9991 12.0004C23.0029 14.6125 22.0733 17.1406 20.3779 19.1278ZM5.61062 4.36053L4.87184 3.62175C6.859 1.92619 9.38657 0.996386 11.9988 1.00001C14.6578 0.99597 17.2275 1.95893 19.2291 3.7094L18.5179 4.42053C16.7097 2.87419 14.4078 2.02617 12.0285 2.02993C9.68163 2.02646 7.40836 2.85185 5.61062 4.36053Z" fill="white"/>
<path d="M11.9988 5L11.9088 5.30623V14.1922L11.9988 14.2822L16.1151 11.844L11.9988 5Z" fill="#333333"/>
<path d="M11.9988 5L7.88242 11.844L11.9988 14.2822V9.9692V5Z" fill="#8C8C8C"/>
<path d="M11.9988 15.6249L11.9481 15.6868V18.8522L11.9988 19.0005L16.1176 13.188L11.9988 15.6249Z" fill="#333333"/>
<path d="M11.9988 19.0005V15.6249L7.88242 13.188L11.9988 19.0005Z" fill="#8C8C8C"/>
<path d="M11.9987 14.2822L16.115 11.8441L11.9987 9.96924V14.2822Z" fill="#141414"/>
<path d="M7.88242 11.8441L11.9987 14.2822V9.96924L7.88242 11.8441Z" fill="#383838"/>
</g>
<defs>
<linearGradient id="paint0_linear_5507_1643" x1="12" y1="0" x2="12" y2="24" gradientUnits="userSpaceOnUse">
<stop stop-color="#F0B90B"/>
<stop offset="1" stop-color="#F8D33A"/>
</linearGradient>
<clipPath id="clip0_5507_1643">
<rect width="24" height="24" fill="white"/>
</clipPath>
</defs>
</svg>
