<svg width="24" height="24" viewBox="0 0 24 24" fill="none" xmlns="http://www.w3.org/2000/svg">
<g clip-path="url(#clip0_3949_1163)">
<path d="M24 12C24 5.37258 18.6274 0 12 0C5.37258 0 0 5.37258 0 12C0 18.6274 5.37258 24 12 24C18.6274 24 24 18.6274 24 12Z" fill="black"/>
<path d="M19.5 8.22093L18.657 10.7791L16.2733 11.9128L17.9012 13.1337L17.0316 15.7915L14.5538 17H5.40372L7.90116 9.23837L9.52907 10.4593L8.04907 15.0503L15.2488 15.0814L16.1014 12.5233H10.927L11.4139 11.0407L16.5665 10.9826L17.2642 8.84616C13.0096 8.86526 8.75464 8.84133 4.5 8.8314L6.97052 7H17.8291L19.5 8.22093Z" fill="#FDFE03"/>
</g>
<defs>
<clipPath id="clip0_3949_1163">
<rect width="24" height="24" fill="white"/>
</clipPath>
</defs>
</svg>
