<svg width="24" height="24" viewBox="0 0 24 24" fill="none" xmlns="http://www.w3.org/2000/svg">
<g clip-path="url(#clip0_4490_8920)">
<path d="M12 24C18.6274 24 24 18.6274 24 12C24 5.37258 18.6274 0 12 0C5.37258 0 0 5.37258 0 12C0 18.6274 5.37258 24 12 24Z" fill="#0254FE"/>
<path fill-rule="evenodd" clip-rule="evenodd" d="M23.8901 10.3694H12.0036V14.7394H23.6859C23.8914 13.8595 24 12.9425 24 12C24 11.4469 23.9626 10.9026 23.8901 10.3694Z" fill="white"/>
<path d="M12.01 21.5845C17.2318 21.5845 21.465 17.3551 21.465 12.1378C21.465 6.92057 17.2318 2.69116 12.01 2.69116C6.78814 2.69116 2.55499 6.92057 2.55499 12.1378C2.55499 17.3551 6.78814 21.5845 12.01 21.5845Z" fill="#2116E5"/>
<path d="M12.01 21.5845C17.2318 21.5845 21.465 17.3551 21.465 12.1378C21.465 6.92057 17.2318 2.69116 12.01 2.69116C6.78814 2.69116 2.55499 6.92057 2.55499 12.1378C2.55499 17.3551 6.78814 21.5845 12.01 21.5845Z" fill="#5DDEFE"/>
<path fill-rule="evenodd" clip-rule="evenodd" d="M11.0346 8.39518C10.817 8.43278 10.604 8.48458 10.3956 8.55058C10.37 8.55898 10.36 8.54998 10.3656 8.52358C10.6404 7.23718 10.1832 5.33638 8.6352 5.08738C7.6092 4.92238 6.5694 5.50618 6.1416 6.45058C5.673 7.48378 5.9826 8.66818 6.684 9.53638C6.7206 9.58198 6.747 9.64618 6.7416 9.70498C6.6902 10.3005 6.55104 10.8925 6.4136 11.4772C6.3184 11.8822 6.22403 12.2836 6.1602 12.6804C6.0074 13.63 6.094 14.535 6.42 15.3954C6.8736 16.5942 7.7316 17.7084 8.8632 18.3348C9.8304 18.8694 10.8936 19.008 12.0186 18.93C12.413 18.9028 12.7886 18.8694 13.1454 18.8298C14.451 18.6858 15.6102 18.0246 16.1544 16.803C16.1687 16.7706 16.1949 16.745 16.2276 16.7316C16.8114 16.4904 17.211 16.0782 17.2518 15.4212C17.2646 15.2144 17.2116 15.0292 17.0928 14.8656C17.0805 14.8483 17.0925 14.82 17.1132 14.8176C17.3676 14.7836 17.5944 14.7004 17.7936 14.568C18.051 14.397 18.0798 14.0958 17.8716 13.8798C17.7468 13.7508 17.5914 13.7022 17.4204 13.6584C17.396 13.6524 17.3864 13.6372 17.3916 13.6128C17.4228 13.4684 17.4258 13.324 17.4006 13.1796C17.3981 13.1661 17.3985 13.1522 17.4016 13.1388C17.4074 13.1137 17.4238 13.0945 17.4388 13.0744C17.5327 12.9483 17.6225 12.8276 17.6382 12.663C17.6402 12.641 17.6482 12.6216 17.6622 12.6048C17.7142 12.5408 17.7662 12.48 17.8182 12.4224C18.339 11.85 18.0852 11.1786 17.5596 10.7436C17.5352 10.7236 17.5236 10.6978 17.5248 10.6662C17.5392 10.2282 17.301 9.88978 16.9266 9.67438C16.9002 9.65918 16.8792 9.63838 16.8636 9.61198L16.6398 9.22798C16.6266 9.20558 16.6208 9.18138 16.6224 9.15538C16.6407 8.80231 16.7953 8.51197 16.949 8.22342C17.012 8.10498 17.0749 7.98684 17.1282 7.86478C17.2854 7.50418 17.2902 7.05058 17.1432 6.67618C16.8438 5.91178 16.0398 5.64058 15.285 5.88418C14.3454 6.18778 13.6884 7.11838 13.443 8.04598C13.4382 8.06438 13.4264 8.07538 13.4076 8.07898C13.3708 8.08618 13.334 8.09138 13.2972 8.09458C12.6336 8.15018 11.8794 8.25038 11.0346 8.39518Z" fill="#01ACDB"/>
<path d="M10.3956 8.55058C10.604 8.48458 10.817 8.43278 11.0346 8.39518C11.8794 8.25038 12.6336 8.15018 13.2972 8.09458C13.334 8.09138 13.3708 8.08618 13.4076 8.07898C13.4264 8.07538 13.4382 8.06438 13.443 8.04598C13.6884 7.11838 14.3454 6.18778 15.285 5.88418C16.0398 5.64058 16.8438 5.91178 17.1432 6.67618C17.2902 7.05058 17.2854 7.50418 17.1282 7.86478C16.9452 8.28418 16.6482 8.65738 16.6224 9.15538C16.6208 9.18138 16.6266 9.20558 16.6398 9.22798L16.8636 9.61198C16.8792 9.63838 16.9002 9.65918 16.9266 9.67438C17.301 9.88978 17.5392 10.2282 17.5248 10.6662C17.5236 10.6978 17.5352 10.7236 17.5596 10.7436C18.0852 11.1786 18.339 11.85 17.8182 12.4224C17.7662 12.48 17.7142 12.5408 17.6622 12.6048C17.6482 12.6216 17.6402 12.641 17.6382 12.663C17.6214 12.8394 17.5194 12.9654 17.4186 13.1016C17.4105 13.1127 17.4047 13.1254 17.4016 13.1388C17.3985 13.1522 17.3981 13.1661 17.4006 13.1796C17.4258 13.324 17.4228 13.4684 17.3916 13.6128C17.3864 13.6372 17.396 13.6524 17.4204 13.6584C17.5914 13.7022 17.7468 13.7508 17.8716 13.8798C18.0798 14.0958 18.051 14.397 17.7936 14.568C17.5944 14.7004 17.3676 14.7836 17.1132 14.8176C17.108 14.8182 17.1031 14.8202 17.0989 14.8233C17.0948 14.8264 17.0915 14.8306 17.0894 14.8355C17.0874 14.8403 17.0866 14.8457 17.0872 14.8509C17.0878 14.8562 17.0897 14.8613 17.0928 14.8656C17.2116 15.0292 17.2646 15.2144 17.2518 15.4212C17.211 16.0782 16.8114 16.4904 16.2276 16.7316C16.1949 16.745 16.1687 16.7706 16.1544 16.803C15.6102 18.0246 14.451 18.6858 13.1454 18.8298C12.7886 18.8694 12.413 18.9028 12.0186 18.93C10.8936 19.008 9.8304 18.8694 8.8632 18.3348C7.7316 17.7084 6.8736 16.5942 6.42 15.3954C6.094 14.535 6.0074 13.63 6.1602 12.6804C6.3162 11.7108 6.6546 10.713 6.7416 9.70498C6.747 9.64618 6.7206 9.58198 6.684 9.53638C5.9826 8.66818 5.673 7.48378 6.1416 6.45058C6.5694 5.50618 7.6092 4.92238 8.6352 5.08738C10.1832 5.33638 10.6404 7.23718 10.3656 8.52358C10.36 8.54998 10.37 8.55898 10.3956 8.55058ZM9.891 18.621C10.4726 18.7806 11.0708 18.8486 11.6856 18.825C12.1508 18.8074 12.5916 18.78 13.008 18.7428C13.5846 18.6912 14.199 18.5052 14.7012 18.1932C14.9096 18.0636 15.0722 17.9552 15.189 17.868C15.5206 17.62 15.8034 17.2844 16.0374 16.8612C16.0574 16.8248 16.047 16.8108 16.0062 16.8192C15.936 16.8336 15.8742 16.8636 15.801 16.8792C14.7238 17.1064 13.5928 17.2032 12.408 17.1696C11.6796 17.1492 10.9792 17.053 10.3068 16.881C9.2694 16.6152 8.3418 16.095 7.8222 15.1572C7.5834 14.7264 7.4298 14.1378 7.9986 13.8684C8.2054 13.7704 8.4226 13.7086 8.6502 13.683C9.1774 13.6238 9.7014 13.612 10.2222 13.6476C11.059 13.7052 11.94 13.7578 12.8652 13.8054C13.5168 13.839 14.4176 13.8592 15.5676 13.866C15.9688 13.8688 16.3154 13.8374 16.6074 13.7718C16.825 13.723 17.0418 13.676 17.2578 13.6308C17.2686 13.6284 17.2746 13.6216 17.2758 13.6104L17.3064 13.2162C17.3076 13.2026 17.302 13.1986 17.2896 13.2042C16.934 13.363 16.5542 13.4506 16.1502 13.467C15.4866 13.4938 14.8498 13.3854 14.2398 13.1418C14.2362 13.1406 14.2358 13.1386 14.2386 13.1358L14.2524 13.122C14.2572 13.1168 14.263 13.1152 14.2698 13.1172C15.1626 13.398 16.2408 13.5042 17.1204 13.1538C17.3072 13.0794 17.435 12.9558 17.5038 12.783C17.5254 12.7278 17.5098 12.7134 17.457 12.7398C16.4818 13.2218 15.5062 13.2122 14.5302 12.711C14.3018 12.5934 14.0978 12.4128 13.9182 12.1692C13.4382 11.5176 13.7916 10.8126 14.4384 10.4802C14.7032 10.3444 14.8796 10.2849 15.1728 10.2312C15.5922 10.155 15.9918 10.1442 16.4118 10.2324C16.6854 10.29 16.9536 10.3962 17.2248 10.4946L17.397 10.6134C17.4012 10.6163 17.4062 10.618 17.4113 10.6182C17.4164 10.6184 17.4215 10.6173 17.426 10.6148C17.4305 10.6123 17.4342 10.6086 17.4367 10.6041C17.4392 10.5996 17.4404 10.5945 17.4402 10.5894C17.4174 10.0326 16.848 9.69058 16.383 9.60238C15.9418 9.51878 15.5002 9.55658 15.0582 9.71578C14.799 9.80938 14.5216 9.91198 14.226 10.0236C14.1064 10.0688 14.0992 10.055 14.2044 9.98218C14.3132 9.90698 14.4332 9.83078 14.5644 9.75358C14.9868 9.59358 15.312 9.49738 15.54 9.46498C15.8988 9.41338 16.3332 9.40918 16.65 9.55558C16.7348 9.59478 16.7516 9.57518 16.7004 9.49678C16.6352 9.39678 16.552 9.29258 16.4508 9.18418C16.0156 8.72938 15.4966 8.43238 14.8938 8.29318C14.1312 8.11738 13.3914 8.17918 12.5994 8.27218C11.9818 8.34498 11.4202 8.42878 10.9146 8.52358C10.5786 8.58658 10.2462 8.67898 9.9174 8.77258C9.89305 8.77922 9.8675 8.74783 9.8964 8.73718L10.2612 8.59318C10.2784 8.58638 10.2884 8.57398 10.2912 8.55598C10.4352 7.57858 10.2612 6.43018 9.5868 5.69878C9.4872 5.59078 9.3372 5.48238 9.1368 5.37358C8.8652 5.22598 8.5596 5.15858 8.22 5.17138C7.7456 5.18938 7.328 5.33398 6.9672 5.60518C5.8926 6.41278 5.7768 7.72918 6.3666 8.87998C6.5918 9.31998 6.8642 9.65658 7.1838 9.88978C7.1918 9.89578 7.193 9.90278 7.1874 9.91078L7.1772 9.92638L7.173 9.92758C7.0594 9.86118 6.9484 9.78118 6.84 9.68758C6.83721 9.68508 6.83377 9.68342 6.83008 9.6828C6.82639 9.68217 6.8226 9.68261 6.81914 9.68405C6.81569 9.6855 6.81271 9.68789 6.81056 9.69096C6.80841 9.69403 6.80718 9.69764 6.807 9.70138C6.7782 10.185 6.7072 10.6628 6.594 11.1348C6.4122 11.8956 6.231 12.6438 6.2058 13.443C6.1494 15.2394 7.0818 16.9098 8.493 17.9652C8.9098 18.2772 9.3758 18.4958 9.891 18.621ZM14.4162 8.09818C15.221 8.17378 15.9018 8.48558 16.4586 9.03358C16.4707 9.04524 16.4946 9.03701 16.497 9.02038C16.545 8.62918 16.7514 8.30938 16.9446 7.97698C17.1438 7.63378 17.2026 7.21618 17.1006 6.84118C17.0054 6.49238 16.8068 6.24278 16.5048 6.09238C16.0232 5.84878 15.5382 5.85538 15.0498 6.11218C14.3778 6.46618 13.9482 7.04998 13.659 7.73638C13.6182 7.83358 13.588 7.93338 13.5684 8.03578C13.5636 8.06058 13.5738 8.07338 13.599 8.07418L14.4162 8.09818ZM17.9898 11.7852C18.0023 11.6107 17.9606 11.434 17.8669 11.2652C17.7733 11.0964 17.6296 10.9388 17.4441 10.8014C17.2585 10.664 17.0347 10.5496 16.7856 10.4646C16.5364 10.3796 16.2666 10.3257 15.9917 10.306C15.7168 10.2863 15.4421 10.3012 15.1833 10.3497C14.9245 10.3983 14.6867 10.4797 14.4835 10.5892C14.2803 10.6987 14.1155 10.8342 13.9988 10.9879C13.882 11.1416 13.8155 11.3106 13.803 11.4851C13.7905 11.6597 13.8322 11.8364 13.9259 12.0052C14.0195 12.174 14.1632 12.3316 14.3487 12.469C14.5343 12.6063 14.7581 12.7208 15.0073 12.8058C15.2565 12.8908 15.5262 12.9447 15.8011 12.9644C16.076 12.9841 16.3507 12.9692 16.6095 12.9206C16.8683 12.872 17.1061 12.7907 17.3093 12.6812C17.5125 12.5717 17.6773 12.4362 17.794 12.2825C17.9108 12.1288 17.9773 11.9598 17.9898 11.7852ZM10.6686 16.3218C10.0584 16.2036 9.4134 16.0056 8.9088 15.6414C8.6754 15.4734 8.3844 15.1464 8.4588 14.844C8.532 14.5458 8.8968 14.4246 9.1638 14.3922C9.5218 14.3498 9.901 14.3342 10.3014 14.3454C10.8478 14.361 11.3612 14.3858 11.8416 14.4198C12.8812 14.4934 14.1126 14.5924 15.5358 14.7168C15.9282 14.751 16.3404 14.766 16.7304 14.7582C17.0664 14.7522 17.3812 14.6728 17.6748 14.52C17.8924 14.4068 17.9544 14.2476 17.8608 14.0424C17.7288 13.7538 17.244 13.7286 16.9854 13.8024C16.2582 14.0106 15.567 13.9896 14.8098 13.98C13.5114 13.9632 12.578 13.9344 12.0096 13.8936C11.342 13.8456 10.6438 13.8062 9.915 13.7754C9.469 13.7562 9.0628 13.77 8.6964 13.8168C8.4872 13.8432 8.2804 13.9014 8.076 13.9914C7.5774 14.2098 7.7112 14.6952 7.9038 15.0654C8.364 15.9498 9.2238 16.4472 10.1766 16.7226C10.6234 16.8518 11.052 16.9366 11.4624 16.977C12.4956 17.0786 13.5826 17.066 14.7234 16.9392C15.147 16.892 15.5504 16.8146 15.9336 16.707C16.473 16.5558 16.9524 16.2372 17.1144 15.6762C17.2012 15.3738 17.1598 15.1032 16.9902 14.8644C16.9842 14.8564 16.976 14.8524 16.9656 14.8524C16.7412 14.858 16.5254 14.862 16.3182 14.8644L16.3171 14.8648L16.3163 14.8657L16.3161 14.8668L16.3164 14.868C16.6608 15.27 16.5468 15.7476 16.1046 16.0272C15.627 16.3296 14.9604 16.4544 14.4168 16.5072C13.1832 16.628 11.9338 16.5662 10.6686 16.3218ZM12.0825 15.6234C12.6334 15.787 13.4565 16.0061 14.1852 15.8208C14.6664 15.6984 15 15.3018 14.6808 14.814C14.6364 14.7462 14.5506 14.727 14.4756 14.7204C13.0074 14.5914 11.523 14.4642 10.0524 14.4504C9.9772 14.4496 9.969 14.4724 10.0278 14.5188C10.6614 15.0204 11.4265 15.4285 12.0825 15.6234ZM10.4214 14.9358C10.2534 14.8018 10.08 14.6668 9.9012 14.5308C9.8368 14.4816 9.7632 14.458 9.6804 14.46C9.4044 14.4666 8.4132 14.5488 8.5704 15.048C8.6334 15.2484 8.7708 15.4218 8.9502 15.5418C9.5274 15.9276 10.182 16.1136 10.857 16.2408C11.9686 16.45 13.1038 16.5046 14.2626 16.4046C14.659 16.3702 15.0704 16.2918 15.4968 16.1694C15.96 16.0362 16.5252 15.7578 16.404 15.1956C16.3788 15.0798 16.3026 15.0018 16.2498 14.8998C16.2378 14.8766 16.219 14.864 16.1934 14.862L14.745 14.7318C14.7078 14.7286 14.7024 14.742 14.7288 14.772C14.8096 14.8656 14.8646 14.9622 14.8938 15.0618C14.9246 15.167 14.9144 15.278 14.8632 15.3948C14.752 15.6488 14.5442 15.8194 14.2398 15.9066C13.8542 16.0174 13.47 16.037 13.0872 15.9654C12.2236 15.807 11.1233 15.4924 10.4214 14.9358Z" fill="black"/>
<path d="M9.13677 5.37365C9.15157 5.48805 9.15397 5.59185 9.14397 5.68505C9.11557 5.95305 9.03897 6.20625 8.91417 6.44465C8.61937 6.21145 8.30277 6.09885 7.96437 6.10685C7.25397 6.12365 6.89877 6.78785 6.89397 7.42385C6.89117 7.74225 6.97857 8.02065 7.15617 8.25905C7.16977 8.27665 7.17037 8.29485 7.15797 8.31365C7.12237 8.36885 7.08577 8.42465 7.04817 8.48105C6.81777 8.82425 6.78297 9.33785 7.31097 9.41525C7.37097 9.42405 7.42557 9.43245 7.47477 9.44045C7.51277 9.51645 7.52357 9.57945 7.50717 9.62945C7.37337 10.0399 7.19997 10.4641 7.09617 10.8463C6.72417 12.2115 6.78137 13.6019 7.26777 15.0175C7.65457 16.1431 8.22977 17.0561 8.99337 17.7565C9.22537 17.9693 9.47677 18.1809 9.74757 18.3913C9.76296 18.4031 9.77549 18.4185 9.78417 18.4363C9.79817 18.4655 9.81637 18.4883 9.83877 18.5047C9.92237 18.5663 9.93977 18.6051 9.89097 18.6211C9.37577 18.4959 8.90977 18.2773 8.49297 17.9653C7.08177 16.9099 6.14937 15.2395 6.20577 13.4431C6.23097 12.6439 6.41217 11.8957 6.59397 11.1349C6.70717 10.6629 6.77817 10.1851 6.80697 9.70145C6.80768 9.68649 6.82882 9.67765 6.83997 9.68765C6.94837 9.78125 7.05937 9.86125 7.17297 9.92765C7.17297 9.92765 7.17597 9.92805 7.17717 9.92645C7.18442 9.91537 7.19851 9.90091 7.18377 9.88985C6.86417 9.65665 6.59177 9.32005 6.36657 8.88005C5.77677 7.72925 5.89257 6.41285 6.96717 5.60525C7.32797 5.33405 7.74557 5.18945 8.21997 5.17145C8.55957 5.15865 8.86517 5.22605 9.13677 5.37365Z" fill="#027898"/>
<path d="M16.5048 6.09243C16.068 6.17443 15.69 6.33723 15.3708 6.58083C14.9888 6.87203 14.7164 7.24403 14.5536 7.69683C14.5076 7.82523 14.4618 7.95903 14.4162 8.09823L13.599 8.07423C13.5738 8.07343 13.5636 8.06063 13.5684 8.03583C13.588 7.93343 13.6182 7.83363 13.659 7.73643C13.9482 7.05003 14.3778 6.46623 15.0498 6.11223C15.5382 5.85543 16.0232 5.84883 16.5048 6.09243Z" fill="#027898"/>
<path d="M16.5048 6.09241C16.8068 6.24281 17.0054 6.49241 17.1006 6.84121C17.2026 7.21621 17.1438 7.63381 16.9446 7.97701C16.7514 8.30941 16.545 8.62921 16.497 9.02041C16.4964 9.02457 16.4947 9.02848 16.492 9.03172C16.4893 9.03496 16.4858 9.03739 16.4818 9.03876C16.4779 9.04012 16.4736 9.04036 16.4695 9.03946C16.4654 9.03855 16.4616 9.03652 16.4586 9.03361C15.9018 8.48561 15.221 8.17381 14.4162 8.09821C14.4618 7.95901 14.5076 7.82521 14.5536 7.69681C14.7164 7.24401 14.9888 6.87201 15.3708 6.58081C15.69 6.33721 16.068 6.17441 16.5048 6.09241Z" fill="#01ACDB"/>
<path d="M8.9142 6.44464C9.095 6.57864 9.2464 6.74304 9.3684 6.93784C9.4648 7.09184 9.4244 7.20644 9.2472 7.28164C8.8936 7.43204 8.5332 7.58544 8.166 7.74184C7.6866 7.94584 6.9264 8.42704 6.963 9.00244C6.9912 9.45304 7.5732 9.37384 7.8756 9.28384C8.296 9.15904 8.811 8.91884 9.4206 8.56324C9.4222 8.56244 9.4236 8.56284 9.4248 8.56444L9.4326 8.57764C9.4382 8.58644 9.4366 8.59344 9.4278 8.59864C8.859 8.96644 8.1516 9.34204 7.4748 9.44044C7.4256 9.43244 7.371 9.42404 7.311 9.41524C6.783 9.33784 6.8178 8.82424 7.0482 8.48104C7.0858 8.42464 7.1224 8.36884 7.158 8.31364C7.1704 8.29484 7.1698 8.27664 7.1562 8.25904C6.9786 8.02064 6.8912 7.74224 6.894 7.42384C6.8988 6.78784 7.254 6.12364 7.9644 6.10684C8.3028 6.09884 8.6194 6.21144 8.9142 6.44464ZM7.26 8.20204C7.824 7.69624 8.5866 7.48804 9.2892 7.14784C9.29812 7.14354 9.30606 7.13746 9.31253 7.12997C9.31901 7.12248 9.32389 7.11375 9.32687 7.10431C9.32985 7.09487 9.33086 7.08492 9.32985 7.07507C9.32884 7.06522 9.32583 7.05568 9.321 7.04704C9.1298 6.70864 8.8572 6.46064 8.5032 6.30304C7.7784 5.97964 7.1496 6.40264 7.0122 7.14364C6.9414 7.52404 7.0018 7.87364 7.1934 8.19244C7.2114 8.22284 7.2336 8.22604 7.26 8.20204Z" fill="black"/>
<path d="M9.28918 7.14783C8.58658 7.48803 7.82397 7.69623 7.25997 8.20203C7.23357 8.22603 7.21137 8.22283 7.19337 8.19243C7.00177 7.87363 6.94138 7.52403 7.01218 7.14363C7.14958 6.40263 7.77838 5.97963 8.50318 6.30303C8.85717 6.46063 9.12978 6.70863 9.32098 7.04703C9.32581 7.05567 9.32882 7.06521 9.32983 7.07506C9.33083 7.0849 9.32982 7.09485 9.32684 7.10429C9.32386 7.11374 9.31898 7.12247 9.31251 7.12995C9.30603 7.13744 9.29809 7.14352 9.28918 7.14783Z" fill="#DF3490"/>
<path d="M16.4508 9.18418C16.552 9.29258 16.6352 9.39678 16.7004 9.49678C16.7516 9.57518 16.7348 9.59478 16.65 9.55558C16.3332 9.40918 15.8988 9.41338 15.54 9.46498C15.312 9.49738 14.9868 9.59358 14.5644 9.75358C14.6072 9.64358 14.6928 9.56538 14.8212 9.51898C15.0604 9.43218 15.3 9.34418 15.54 9.25498C15.6448 9.21618 15.8302 9.18838 16.0962 9.17158C16.1713 9.16653 16.3216 9.19764 16.4508 9.18418Z" fill="#027898"/>
<path d="M11.9202 9.78539C11.449 9.59859 11.0406 9.49939 10.695 9.48779C10.3662 9.47699 9.899 9.51499 9.2934 9.60179C9.7006 9.38939 10.1576 9.28099 10.6644 9.27659C11.2144 9.27179 11.633 9.44139 11.9202 9.78539Z" fill="#027898"/>
<path d="M11.9202 9.78535C12.0206 9.86415 12.1294 9.95495 12.2466 10.0578C12.453 10.2394 12.5554 10.4626 12.5538 10.7274C12.5538 10.7508 12.563 10.7734 12.5796 10.7904C13.008 11.2242 13.1364 11.7144 12.7356 12.2046C12.656 12.3022 12.5634 12.3852 12.4578 12.4536C12.2382 12.5952 12.0696 12.7998 11.862 12.9588C11.706 13.0776 11.5454 13.1678 11.3802 13.2294C10.6142 13.5146 9.8494 13.5266 9.0858 13.2654C8.8114 13.1718 8.5688 13.0154 8.358 12.7962C8.3556 12.7938 8.3556 12.7912 8.358 12.7884L8.3682 12.7764C8.37295 12.771 8.37956 12.7676 8.38669 12.767C8.39382 12.7663 8.40094 12.7684 8.4066 12.7728C9.324 13.5012 10.7808 13.5042 11.7546 12.9054C11.8062 12.8738 11.8528 12.8376 11.8944 12.7968C11.9468 12.7452 11.9376 12.7294 11.8668 12.7494C11.1972 12.939 10.5232 12.9378 9.8448 12.7458C9.352 12.607 8.9688 12.3826 8.6952 12.0726C8.34 11.67 8.3262 11.1666 8.6826 10.7664C8.9784 10.434 9.444 10.248 9.8706 10.1682C10.7382 10.0068 11.6784 10.1424 12.4116 10.6602C12.4648 10.6978 12.485 10.6846 12.4722 10.6206C12.3774 10.1466 11.7732 9.82855 11.3448 9.71995C10.8592 9.59635 10.3626 9.57235 9.855 9.64795C9.5302 9.69635 9.1764 9.75535 8.7936 9.82495C8.7904 9.82535 8.788 9.82435 8.7864 9.82195C8.7836 9.81715 8.7822 9.81215 8.7822 9.80695C8.7826 9.80335 8.7844 9.80095 8.7876 9.79975C8.9744 9.73055 9.143 9.66455 9.2934 9.60175C9.899 9.51495 10.3662 9.47695 10.695 9.48775C11.0406 9.49935 11.449 9.59855 11.9202 9.78535ZM12.8753 11.6376C12.8859 11.4697 12.8401 11.2999 12.7405 11.138C12.6409 10.976 12.4895 10.8249 12.295 10.6935C12.1004 10.5621 11.8665 10.4528 11.6066 10.372C11.3467 10.2911 11.0659 10.2403 10.7802 10.2223C10.4945 10.2043 10.2096 10.2196 9.94159 10.2672C9.6736 10.3149 9.42785 10.3939 9.21837 10.5C9.00889 10.606 8.83977 10.7368 8.72068 10.8851C8.6016 11.0333 8.53487 11.196 8.5243 11.3639C8.51374 11.5318 8.55955 11.7016 8.65912 11.8636C8.75869 12.0255 8.91007 12.1766 9.10461 12.308C9.29916 12.4394 9.53306 12.5487 9.79296 12.6295C10.0529 12.7104 10.3337 12.7613 10.6194 12.7792C10.9051 12.7972 11.19 12.7819 11.458 12.7343C11.726 12.6866 11.9718 12.6076 12.1812 12.5016C12.3907 12.3955 12.5598 12.2647 12.6789 12.1165C12.798 11.9682 12.8647 11.8055 12.8753 11.6376Z" fill="black"/>
<path d="M17.2248 10.4947C16.9536 10.3963 16.6854 10.2901 16.4118 10.2325C15.9918 10.1443 15.5922 10.1551 15.1728 10.2313C15.044 10.2549 14.7305 10.3477 14.5664 10.4141C15.1728 9.94141 15.9149 9.76494 16.4916 9.95827C16.7112 10.0321 17.175 10.2349 17.2248 10.4947Z" fill="#027898"/>
<path d="M12.8753 11.6376C12.8647 11.8055 12.798 11.9682 12.6789 12.1164C12.5598 12.2647 12.3907 12.3955 12.1812 12.5015C11.9718 12.6076 11.726 12.6866 11.458 12.7343C11.19 12.7819 10.9051 12.7972 10.6194 12.7792C10.3337 12.7612 10.0529 12.7104 9.79297 12.6295C9.53307 12.5487 9.29917 12.4394 9.10462 12.308C8.91008 12.1766 8.7587 12.0255 8.65913 11.8635C8.55956 11.7016 8.51375 11.5318 8.52431 11.3639C8.53488 11.196 8.60161 11.0333 8.72069 10.885C8.83978 10.7368 9.0089 10.606 9.21838 10.4999C9.42786 10.3939 9.67361 10.3149 9.9416 10.2672C10.2096 10.2196 10.4946 10.2043 10.7802 10.2223C11.0659 10.2402 11.3468 10.2911 11.6067 10.372C11.8666 10.4528 12.1005 10.5621 12.295 10.6935C12.4895 10.8249 12.6409 10.976 12.7405 11.1379C12.8401 11.2999 12.8859 11.4697 12.8753 11.6376Z" fill="white"/>
<path d="M17.9898 11.7853C17.9773 11.9599 17.9108 12.1288 17.794 12.2825C17.6772 12.4363 17.5125 12.5717 17.3093 12.6812C17.106 12.7907 16.8682 12.8721 16.6095 12.9207C16.3507 12.9693 16.076 12.9841 15.8011 12.9644C15.5262 12.9447 15.2564 12.8908 15.0072 12.8058C14.758 12.7208 14.5343 12.6064 14.3487 12.469C14.1632 12.3317 14.0195 12.1741 13.9258 12.0053C13.8322 11.8365 13.7904 11.6597 13.8029 11.4852C13.8155 11.3106 13.882 11.1417 13.9988 10.9879C14.1155 10.8342 14.2802 10.6987 14.4835 10.5893C14.6867 10.4798 14.9245 10.3984 15.1833 10.3498C15.4421 10.3012 15.7167 10.2863 15.9917 10.3061C16.2666 10.3258 16.5363 10.3797 16.7855 10.4647C17.0347 10.5497 17.2585 10.6641 17.444 10.8015C17.6296 10.9388 17.7733 11.0964 17.8669 11.2652C17.9606 11.434 18.0023 11.6108 17.9898 11.7853Z" fill="white"/>
<path d="M11.8528 11.5525C11.848 11.8035 11.7143 12.0418 11.4812 12.2149C11.248 12.3881 10.9345 12.4818 10.6096 12.4756C10.2848 12.4693 9.9751 12.3636 9.74878 12.1817C9.52246 11.9997 9.39802 11.7565 9.40284 11.5054C9.40767 11.2544 9.54135 11.0161 9.77448 10.843C10.0076 10.6698 10.3211 10.5761 10.646 10.5823C10.9709 10.5886 11.2805 10.6943 11.5069 10.8762C11.7332 11.0582 11.8576 11.3014 11.8528 11.5525Z" fill="black"/>
<path d="M16.9402 11.4081C16.9742 11.6327 16.8829 11.867 16.6863 12.0592C16.4897 12.2515 16.204 12.386 15.8919 12.4331C15.5799 12.4803 15.2672 12.4363 15.0226 12.3108C14.7779 12.1853 14.6214 11.9886 14.5874 11.7639C14.5534 11.5392 14.6448 11.305 14.8414 11.1128C15.038 10.9205 15.3237 10.786 15.6357 10.7388C15.9477 10.6916 16.2604 10.7356 16.5051 10.8611C16.7497 10.9867 16.9063 11.1834 16.9402 11.4081Z" fill="black"/>
<path d="M11.2563 11.3388C11.2525 11.3697 11.2413 11.3994 11.2233 11.4262C11.2053 11.4529 11.1809 11.4762 11.1514 11.4948C11.122 11.5134 11.0881 11.5268 11.0516 11.5343C11.0152 11.5418 10.977 11.5433 10.9391 11.5387C10.8627 11.5293 10.7924 11.4955 10.7438 11.4447C10.6951 11.394 10.6721 11.3304 10.6798 11.268C10.6836 11.2372 10.6948 11.2075 10.7128 11.1807C10.7308 11.154 10.7552 11.1306 10.7846 11.1121C10.8141 11.0935 10.848 11.0801 10.8844 11.0726C10.9208 11.065 10.9591 11.0636 10.9969 11.0682C11.0734 11.0776 11.1436 11.1114 11.1923 11.1621C11.2409 11.2129 11.2639 11.2764 11.2563 11.3388Z" fill="white"/>
<path d="M16.5349 11.352C16.5399 11.3777 16.5376 11.4047 16.5281 11.4312C16.5186 11.4577 16.5021 11.4834 16.4796 11.5067C16.457 11.5299 16.4289 11.5504 16.3967 11.5669C16.3645 11.5834 16.329 11.5955 16.2921 11.6027C16.2176 11.6172 16.1421 11.6104 16.0823 11.5839C16.0224 11.5574 15.9831 11.5132 15.973 11.4612C15.968 11.4354 15.9703 11.4085 15.9798 11.382C15.9893 11.3555 16.0058 11.3298 16.0284 11.3065C16.0509 11.2832 16.0791 11.2628 16.1112 11.2463C16.1434 11.2298 16.179 11.2176 16.2159 11.2105C16.2904 11.196 16.3658 11.2028 16.4257 11.2293C16.4855 11.2558 16.5248 11.3 16.5349 11.352Z" fill="white"/>
<path d="M10.6686 16.3217C11.9338 16.5661 13.1832 16.6279 14.4168 16.5071C14.9604 16.4543 15.627 16.3295 16.1046 16.0271C16.5468 15.7475 16.6608 15.2699 16.3164 14.8679C16.3162 14.8676 16.3161 14.8672 16.3161 14.8668C16.3161 14.8664 16.3162 14.866 16.3164 14.8657C16.3165 14.8653 16.3168 14.865 16.3171 14.8648C16.3175 14.8645 16.3178 14.8644 16.3182 14.8643C16.5254 14.8619 16.7412 14.8579 16.9656 14.8523C16.976 14.8523 16.9842 14.8563 16.9902 14.8643C17.1598 15.1031 17.2012 15.3737 17.1144 15.6761C16.9524 16.2371 16.473 16.5557 15.9336 16.7069C15.5504 16.8145 15.147 16.8919 14.7234 16.9391C13.5826 17.0659 12.4956 17.0785 11.4624 16.9769C11.052 16.9365 10.6234 16.8517 10.1766 16.7225C9.22383 16.4471 8.36403 15.9497 7.90383 15.0653C7.71123 14.6951 7.57743 14.2097 8.07603 13.9913C8.28043 13.9013 8.48723 13.8431 8.69643 13.8167C9.06283 13.7699 9.46903 13.7561 9.91503 13.7753C10.6438 13.8061 11.342 13.8455 12.0096 13.8935C12.578 13.9343 13.5114 13.9631 14.8098 13.9799C15.567 13.9895 16.2582 14.0105 16.9854 13.8023C17.244 13.7285 17.7288 13.7537 17.8608 14.0423C17.9544 14.2475 17.8924 14.4067 17.6748 14.5199C17.3812 14.6727 17.0664 14.7521 16.7304 14.7581C16.3404 14.7659 15.9282 14.7509 15.5358 14.7167C14.1126 14.5923 12.8812 14.4933 11.8416 14.4197C11.3612 14.3857 10.8478 14.3609 10.3014 14.3453C9.90103 14.3341 9.52183 14.3497 9.16383 14.3921C8.89683 14.4245 8.53203 14.5457 8.45883 14.8439C8.38443 15.1463 8.67543 15.4733 8.90883 15.6413C9.41343 16.0055 10.0584 16.2035 10.6686 16.3217Z" fill="#DF3490"/>
<path d="M14.1852 15.8207C13.5738 15.9767 12.6958 15.8426 12.0778 15.6374C11.3074 15.3812 10.6614 15.0203 10.0278 14.5187C9.96898 14.4723 9.97718 14.4495 10.0524 14.4503C11.523 14.4641 13.0074 14.5913 14.4756 14.7203C14.5506 14.7269 14.6364 14.7461 14.6808 14.8139C15 15.3017 14.6664 15.6983 14.1852 15.8207Z" fill="#DF3490"/>
<path d="M13.0872 15.9654C13.47 16.037 13.8542 16.0174 14.2398 15.9066C14.5442 15.8194 14.752 15.6488 14.8632 15.3948C14.9144 15.278 14.9246 15.167 14.8938 15.0618C14.8646 14.9622 14.8096 14.8656 14.7288 14.772C14.7024 14.742 14.7078 14.7286 14.745 14.7318L16.1934 14.862C16.219 14.864 16.2378 14.8766 16.2498 14.8998C16.3026 15.0018 16.3788 15.0798 16.404 15.1956C16.5252 15.7578 15.96 16.0362 15.4968 16.1694C15.0704 16.2918 14.659 16.3702 14.2626 16.4046C13.1038 16.5046 11.9686 16.45 10.857 16.2408C10.182 16.1136 9.52738 15.9276 8.95018 15.5418C8.77078 15.4218 8.63338 15.2484 8.57038 15.048C8.41318 14.5488 9.40438 14.4666 9.68038 14.46C9.76318 14.458 9.83678 14.4816 9.90118 14.5308C10.08 14.6668 10.2534 14.8018 10.4214 14.9358C11.124 15.493 12.2221 15.8067 13.0872 15.9654Z" fill="#810B52"/>
<path d="M15.2169 17.7929C15.2144 17.7962 15.2107 17.7984 15.2067 17.799C15.2026 17.7996 15.1984 17.7986 15.1951 17.7961L15.1768 17.7825C15.1751 17.7813 15.1737 17.7798 15.1727 17.778C15.1716 17.7763 15.1709 17.7743 15.1706 17.7723C15.1703 17.7702 15.1704 17.7682 15.1709 17.7662C15.1714 17.7642 15.1723 17.7623 15.1735 17.7607L15.7431 16.9938C15.7455 16.9905 15.7492 16.9883 15.7533 16.9877C15.7574 16.9871 15.7616 16.9882 15.7649 16.9906L15.7832 17.0042C15.7848 17.0054 15.7862 17.007 15.7873 17.0087C15.7883 17.0105 15.789 17.0124 15.7893 17.0145C15.7896 17.0165 15.7895 17.0186 15.789 17.0205C15.7885 17.0225 15.7876 17.0244 15.7864 17.026L15.2169 17.7929Z" fill="#027898"/>
</g>
<defs>
<clipPath id="clip0_4490_8920">
<rect width="24" height="24" fill="white"/>
</clipPath>
</defs>
</svg>
