<svg width="24" height="24" viewBox="0 0 24 24" fill="none" xmlns="http://www.w3.org/2000/svg">
<path d="M12 24C18.6274 24 24 18.6274 24 12C24 5.37258 18.6274 0 12 0C5.37258 0 0 5.37258 0 12C0 18.6274 5.37258 24 12 24Z" fill="#F0B90B"/>
<path fill-rule="evenodd" clip-rule="evenodd" d="M3.9661 4.48575C2.05675 6.52165 0.995944 9.20922 1.00001 12.0004C0.996079 14.6589 1.95883 17.2283 3.70888 19.2296L4.42001 18.5184C2.87379 16.7104 2.02578 14.4086 2.0294 12.0296C2.02592 9.50358 2.98184 7.07052 4.70384 5.22245L3.96662 4.48575H3.9661ZM18.8357 19.3553C16.9876 21.0773 14.5545 22.0332 12.0285 22.0298C9.53453 22.0334 7.12989 21.1014 5.28975 19.4179L4.58332 20.1244C6.60799 21.9778 9.25442 23.004 11.9993 23.0002C14.7906 23.004 17.4782 21.9428 19.5139 20.0331L18.8357 19.3553ZM20.3779 19.1278L19.6976 18.4475C21.2064 16.6498 22.032 14.3771 22.0287 12.0301C22.0287 9.4334 21.0395 7.06836 19.4169 5.29079L20.1238 4.58436C21.9771 6.60911 23.0031 9.25553 22.9991 12.0004C23.0029 14.6125 22.0733 17.1406 20.3779 19.1278ZM5.61062 4.36053L4.87184 3.62175C6.859 1.92619 9.38657 0.996386 11.9988 1.00001C14.6578 0.99597 17.2275 1.95893 19.2291 3.7094L18.5179 4.42053C16.7097 2.87419 14.4078 2.02617 12.0285 2.02993C9.68163 2.02646 7.40836 2.85185 5.61062 4.36053Z" fill="white"/>
<path fill-rule="evenodd" clip-rule="evenodd" d="M12.0125 12.6689C13.7343 12.6689 15.1733 12.3778 15.525 11.9888C15.2264 11.6589 14.1463 11.3991 12.7747 11.328V12.1498C12.5291 12.1626 12.2738 12.1688 12.0122 12.1688C11.7507 12.1688 11.4953 12.1626 11.2493 12.1498V11.328C9.87812 11.3991 8.79755 11.6589 8.49893 11.9888C8.85111 12.3778 10.2904 12.6689 12.0122 12.6689H12.0125ZM15.0717 8.80095V9.93258H12.7747V10.7173C14.3881 10.8011 15.5989 11.1461 15.6079 11.5588V12.4194C15.5989 12.8321 14.3881 13.1763 12.7747 13.2604V15.1863H11.2495V13.2604C9.63607 13.1765 8.42584 12.8321 8.41683 12.4194V11.5588C8.42584 11.1461 9.63607 10.8011 11.2495 10.7173V9.93258H8.95248V8.80095H15.072H15.0717ZM8.04913 7H16.113C16.3057 7 16.4832 7.10137 16.5793 7.26608L18.9284 11.3C19.0501 11.5093 19.014 11.7733 18.8403 11.9428L12.3739 18.255C12.1642 18.4595 11.8272 18.4595 11.618 18.255L5.1596 11.9513C4.98213 11.7776 4.94859 11.506 5.0795 11.2957L7.59082 7.25356C7.68869 7.09637 7.8624 7.00025 8.04938 7.00025L8.04913 7Z" fill="white"/>
</svg>
