<svg width="24" height="24" viewBox="0 0 24 24" fill="none" xmlns="http://www.w3.org/2000/svg">
<circle cx="12" cy="12" r="12" fill="white"/>
<path d="M17.5558 10.432C17.8069 8.75084 16.5269 7.84711 14.7766 7.24422L15.3444 4.96691L13.9578 4.62144L13.405 6.83874C13.041 6.74793 12.6667 6.66226 12.2948 6.57737L12.8515 4.34547L11.4661 4L10.898 6.27652C10.5963 6.20782 10.3002 6.13991 10.0128 6.06845L10.0143 6.06134L8.10264 5.58401L7.73388 7.06458C7.73388 7.06458 8.76238 7.30028 8.74067 7.31489C9.3021 7.45505 9.40396 7.82658 9.38659 8.12111L7.83101 14.3596C7.76231 14.5302 7.58819 14.786 7.19574 14.6889C7.20956 14.709 6.18817 14.4374 6.18817 14.4374L5.5 16.0246L7.30432 16.4743C7.63991 16.5584 7.9688 16.6464 8.29215 16.7293L7.71848 19.0331L9.10311 19.3786L9.67165 17.0997C10.0495 17.2023 10.4167 17.2971 10.776 17.3863L10.2098 19.6545L11.596 20L12.1697 17.701C14.5334 18.1483 16.3113 17.9679 17.0587 15.8303C17.6616 14.1089 17.0291 13.116 15.7854 12.4681C16.6911 12.2584 17.3738 11.6626 17.5558 10.432ZM14.3881 14.8733C13.9594 16.5947 11.0614 15.6645 10.1213 15.4308L10.8826 12.3792C11.8222 12.6137 14.8347 13.0781 14.3881 14.8733ZM11.2304 10.9824L11.9205 8.21468C12.7035 8.40972 15.224 8.77374 14.8165 10.4071C14.4257 11.973 12.0133 11.1774 11.2304 10.9824Z" fill="#0052FF"/>
<path fill-rule="evenodd" clip-rule="evenodd" d="M24 12C24 18.6274 18.6274 24 12 24C5.37258 24 0 18.6274 0 12C0 5.37258 5.37258 0 12 0C18.6274 0 24 5.37258 24 12ZM22.9 12C22.9 18.0199 18.0199 22.9 12 22.9C5.9801 22.9 1.1 18.0199 1.1 12C1.1 5.9801 5.9801 1.1 12 1.1C18.0199 1.1 22.9 5.9801 22.9 12Z" fill="#0052FF"/>
</svg>
