<svg width="24" height="24" viewBox="0 0 24 24" fill="none" xmlns="http://www.w3.org/2000/svg">
<circle cx="12" cy="12" r="12" fill="white"/>
<path d="M11.9985 3.5L11.8893 3.87185V14.6622L11.9985 14.7714L16.997 11.8107L11.9985 3.5Z" fill="#6697FF"/>
<path d="M11.9985 3.5L7 11.8107L11.9985 14.7714V9.53413V3.5Z" fill="#0052FF"/>
<path d="M11.9985 16.4011L11.937 16.4762V20.32L11.9985 20.5L17 13.4419L11.9985 16.4011Z" fill="#6697FF"/>
<path d="M11.9985 20.5001V16.4011L7 13.4419L11.9985 20.5001Z" fill="#0052FF"/>
<path d="M11.9985 14.7714L16.9969 11.8108L11.9985 9.53418V14.7714Z" fill="#CCDCFF"/>
<path d="M7 11.8108L11.9984 14.7714V9.53418L7 11.8108Z" fill="#6697FF"/>
<path fill-rule="evenodd" clip-rule="evenodd" d="M24 12C24 18.6274 18.6274 24 12 24C5.37258 24 0 18.6274 0 12C0 5.37258 5.37258 0 12 0C18.6274 0 24 5.37258 24 12ZM22.9 12C22.9 18.0199 18.0199 22.9 12 22.9C5.9801 22.9 1.1 18.0199 1.1 12C1.1 5.9801 5.9801 1.1 12 1.1C18.0199 1.1 22.9 5.9801 22.9 12Z" fill="#0052FF"/>
</svg>
