<svg width="24" height="24" viewBox="0 0 24 24" fill="none" xmlns="http://www.w3.org/2000/svg">
<path d="M6.89212 0.910658C8.34832 0.307554 9.90937 -0.00193341 11.4855 9.08759e-06C13.4589 8.40875e-05 15.4018 0.486819 17.1421 1.41713C18.8824 2.34743 20.3665 3.69256 21.4628 5.33341C22.5592 6.97418 23.2339 8.86005 23.4273 10.8239C23.6207 12.7878 23.3268 14.7691 22.5716 16.5922C21.8164 18.4154 20.6233 20.0242 19.0978 21.2761C17.5723 22.528 15.7617 23.3844 13.8262 23.7694C11.8908 24.1544 9.89025 24.0562 8.00182 23.4833C6.11347 22.9105 4.39545 21.8809 3 20.4855L7.245 16.2405C8.08387 17.0802 9.153 17.6523 10.317 17.8843C11.4811 18.1162 12.6877 17.9978 13.7845 17.5438C14.8812 17.0899 15.8186 16.3209 16.4782 15.3341C17.1377 14.3472 17.4898 13.187 17.4898 12C17.4898 10.8131 17.1377 9.6528 16.4782 8.66595C15.8186 7.6791 14.8812 6.91013 13.7845 6.45615C12.6877 6.00218 11.4811 5.88376 10.317 6.11573C9.153 6.3477 8.08387 6.91981 7.245 7.7595L3 3.51451C4.11322 2.39866 5.43592 1.51381 6.89212 0.910658Z" fill="white"/>
<path d="M9.81883 9.50558C10.3122 9.17596 10.8922 9.00001 11.4856 9.00001C12.2812 9.00001 13.0442 9.31606 13.6069 9.87871C14.1694 10.4413 14.4856 11.2043 14.4856 12C14.4856 12.5933 14.3096 13.1734 13.9799 13.6667C13.6503 14.1601 13.1818 14.5446 12.6336 14.7716C12.0854 14.9987 11.4822 15.0581 10.9003 14.9423C10.3183 14.8266 9.78373 14.5409 9.36418 14.1213C8.94463 13.7018 8.65896 13.1672 8.54316 12.5853C8.42743 12.0033 8.48683 11.4002 8.71386 10.852C8.94096 10.3038 9.32548 9.83521 9.81883 9.50558Z" fill="white"/>
</svg>
