<svg width="24" height="24" viewBox="0 0 24 24" fill="none" xmlns="http://www.w3.org/2000/svg">
<path d="M11.9775 13.3832C12.7572 13.3832 13.3893 12.7511 13.3893 11.9714C13.3893 11.1917 12.7572 10.5597 11.9775 10.5597C11.1978 10.5597 10.5658 11.1917 10.5658 11.9714C10.5658 12.7511 11.1978 13.3832 11.9775 13.3832Z" fill="white"/>
<path fill-rule="evenodd" clip-rule="evenodd" d="M1.62066 5.98576C2.19153 4.99855 5.43062 5.74687 9.50218 7.65559C9.8913 3.17559 10.8645 0 12.0033 0C13.1439 0 14.1184 3.18573 14.5063 7.67703C15.364 7.27886 16.1848 6.93164 16.9515 6.64065C16.9484 6.61094 16.9469 6.58077 16.9469 6.55023C16.9469 6.08242 17.3135 5.70318 17.7657 5.70318C18.0646 5.70318 18.3261 5.86886 18.4691 6.11629C20.568 5.47084 22.0462 5.39054 22.412 6.02813C22.9788 7.0162 20.71 9.44217 17.0156 12.0101C20.6965 14.5934 22.9572 17.0282 22.3858 18.0138C21.8147 19.0014 18.5777 18.2523 14.5046 16.3422C14.1156 20.8234 13.1423 24 12.0033 24C11.2816 24 10.6264 22.7246 10.1443 20.6502C9.77227 20.5703 9.49274 20.2293 9.49274 19.8208C9.49274 19.5325 9.63201 19.2778 9.84477 19.1248C9.7036 18.2703 9.58718 17.329 9.50024 16.322C5.41009 18.2206 2.16173 18.9605 1.59424 17.9712C1.02744 16.983 3.29646 14.5569 6.99112 11.9888C6.12556 11.3817 5.33858 10.7828 4.6485 10.209C4.54946 10.253 4.44034 10.2773 4.32572 10.2773C3.87349 10.2773 3.50688 9.89808 3.50688 9.43026C3.50688 9.35863 3.51548 9.28907 3.53166 9.22264C2.01549 7.78901 1.2632 6.60391 1.62066 5.98576ZM5.05205 9.82173C5.11114 9.70465 5.14456 9.57149 5.14456 9.43026C5.14456 8.96245 4.77795 8.58321 4.32572 8.58321C4.14213 8.58321 3.97266 8.64571 3.8361 8.75126C2.25021 7.22901 2.11389 6.48393 2.11389 6.48393L2.11312 6.48107C2.00334 6.22079 2.23508 6.15811 2.23508 6.15811C3.26106 5.96435 4.70222 6.40588 4.70222 6.40588C6.05775 6.71456 7.78029 7.43997 9.45405 8.25707C9.40225 8.96355 9.36471 9.69895 9.34296 10.4565C8.68848 10.8571 8.06179 11.2605 7.46819 11.6618C6.34336 10.8556 5.46093 10.1539 5.05205 9.82173ZM10.6751 20.58C10.945 20.4415 11.1305 20.1536 11.1305 19.8208C11.1305 19.3689 10.7884 18.9997 10.3576 18.9751C10.2159 18.0596 10.1154 17.0625 10.0447 16.0648C10.6795 15.7598 11.3319 15.4284 11.9956 15.0726C12.6724 15.4394 13.3376 15.7806 13.9844 16.0941C13.7982 18.0149 13.5523 19.4259 13.5523 19.4259C12.9842 22.6446 12.1885 23.3228 12.1885 23.3228C12.0191 23.5487 11.8497 23.3792 11.8497 23.3792C11.1676 22.5888 10.8265 21.1204 10.8265 21.1204C10.7731 20.9487 10.7227 20.7682 10.6751 20.58ZM17.1979 7.16051C17.3451 7.30713 17.5452 7.39728 17.7657 7.39728C18.1734 7.39728 18.5115 7.08909 18.5741 6.68563C20.6653 6.02987 21.5145 6.10668 21.8113 6.1884C21.8595 6.20185 21.9013 6.23191 21.9295 6.27326C21.9576 6.31461 21.9702 6.36459 21.965 6.41433C21.9086 7.02909 20.8214 8.13785 20.8214 8.13785C19.3714 9.58541 17.842 10.7917 16.5658 11.6986C15.9642 11.2873 15.3284 10.8736 14.6638 10.4626C14.642 9.70063 14.6043 8.96096 14.5521 8.25057C15.5625 7.80081 16.4387 7.44347 17.1979 7.16051ZM9.9173 9.03576C9.93264 8.85668 9.94833 8.68134 9.96433 8.50966C10.4561 8.75633 10.9398 9.00813 11.4047 9.25661C11.1595 9.39218 10.913 9.53094 10.6657 9.67278C10.405 9.82224 10.1479 9.97255 9.89448 10.1235C9.9032 9.44495 9.9173 9.03576 9.9173 9.03576ZM10.0236 7.9042C10.6704 8.21769 11.3357 8.55894 12.0124 8.92573C12.6935 8.5606 13.3629 8.22112 14.0134 7.9095C13.8626 6.34818 13.5779 4.4142 13.0429 2.4283C13.0429 2.4283 12.6205 0.935752 12.1168 0.578862C12.0762 0.549976 12.0267 0.536341 11.977 0.540357C11.9273 0.544373 11.8807 0.565783 11.8452 0.600818C11.5191 0.923373 10.5987 2.30803 10.0236 7.9042ZM9.88863 10.801C10.6684 10.327 11.3915 9.90694 11.9848 9.57011C12.8216 10.0271 13.5763 10.46 14.178 10.8132C14.1829 11.1945 14.1774 11.4071 14.1774 11.4071C14.1957 12.0206 14.1916 12.6459 14.172 13.2631C13.8087 13.4791 13.5999 13.5918 13.5999 13.5918C13.0796 13.9114 12.5381 14.2176 11.9958 14.5064C11.6271 14.3003 11.4251 14.1762 11.4251 14.1762C10.917 13.9022 10.4097 13.6056 9.91482 13.2997C9.89027 12.3607 9.88545 11.4997 9.88863 10.801ZM13.3511 9.67658C13.6254 9.83563 13.8959 9.99563 14.1621 10.1562C14.1462 9.69547 14.1167 9.12409 14.0634 8.4706C13.8913 8.54893 13.7156 8.62981 13.5361 8.71331C13.5361 8.71331 13.1727 8.90544 12.5778 9.2367C12.8343 9.37984 13.0922 9.52651 13.3511 9.67658ZM14.6856 12C14.6856 11.7004 14.6832 11.4033 14.6784 11.1092C15.2647 11.4591 15.6141 11.6779 15.6141 11.6779C15.7812 11.7949 15.944 11.9098 16.1024 12.0227C15.5572 12.398 15.0719 12.7109 14.6772 12.9559C14.6828 12.6406 14.6856 12.3218 14.6856 12ZM14.6637 13.5426C15.3184 13.1418 15.9454 12.7382 16.5392 12.3367C21.0939 15.6403 21.8298 17.132 21.9461 17.5745C21.9587 17.6228 21.9538 17.674 21.9323 17.7191C21.9108 17.7641 21.8741 17.8001 21.8286 17.8207C21.2673 18.0777 19.764 17.6948 19.764 17.6948C17.7839 17.1639 15.9732 16.4441 14.5488 15.7939C14.6026 15.0715 14.6414 14.3187 14.6637 13.5426ZM14.1485 13.854C14.1206 14.44 14.0804 15.0126 14.0338 15.5541C13.4373 15.2709 12.9246 15.0084 12.5156 14.7901C12.7891 14.6395 13.0643 14.4849 13.3406 14.3265C13.6138 14.1698 13.8832 14.0122 14.1485 13.854ZM10.6586 14.323C10.9294 14.4799 11.1991 14.6331 11.4673 14.7824C10.9706 15.037 10.4787 15.2758 10.0075 15.4957C9.97499 14.9533 9.95069 14.4154 9.93281 13.8949C10.1715 14.0382 10.4135 14.181 10.6586 14.323ZM9.32098 12C9.32098 12.3129 9.32365 12.623 9.32891 12.9298C8.85433 12.6241 8.39622 12.3146 7.96554 12.0138C8.42338 11.7132 8.88161 11.422 9.32768 11.1454C9.32324 11.4277 9.32098 11.7126 9.32098 12ZM9.34274 13.5355C8.69515 13.1352 8.07483 12.7323 7.48697 12.3317C5.94151 13.3706 4.451 14.4975 3.50461 15.5157C3.50461 15.5157 2.40243 16.5424 2.05608 17.5272C2.05608 17.5272 1.99241 17.7593 2.27476 17.7949C2.27476 17.7949 3.25849 18.1478 6.33328 17.0398C6.33328 17.0398 7.68787 16.5482 9.45454 15.7497C9.4023 15.0386 9.36451 14.2982 9.34274 13.5355Z" fill="white"/>
</svg>
