<svg width="24" height="24" viewBox="0 0 24 24" fill="none" xmlns="http://www.w3.org/2000/svg">
<g clip-path="url(#clip0_5213_1562)">
<path fill-rule="evenodd" clip-rule="evenodd" d="M12.0983 0C18.7264 0 24.0994 5.37262 24.0994 12C24.0994 18.6274 18.7264 24 12.0983 24C5.4705 24 0.0975037 18.6274 0.0975037 12C0.0975037 5.37262 5.4705 0 12.0983 0Z" fill="#6039FF"/>
<path fill-rule="evenodd" clip-rule="evenodd" d="M12.099 6.10986C15.3525 6.10986 17.9902 8.74761 17.9902 12.0011C17.9902 15.255 15.3525 17.8927 12.099 17.8927C8.84512 17.8927 6.20737 15.255 6.20737 12.0015C6.20737 8.74761 8.84549 6.10986 12.099 6.10986Z" fill="white" fill-opacity="0.2"/>
<path fill-rule="evenodd" clip-rule="evenodd" d="M11.7825 3.36972C11.9003 3.25422 12.042 3.16797 12.2014 3.16797C12.3604 3.16797 12.5025 3.25422 12.6203 3.36972C12.7403 3.48709 12.8569 3.65472 12.9679 3.86622C13.206 4.31922 13.4201 4.97434 13.5994 5.78022C13.7981 6.67497 13.9511 7.73772 14.0501 8.90059C15.1076 8.40484 16.1048 8.00622 16.9789 7.73097C17.7671 7.48347 18.4418 7.34097 18.9533 7.32034C19.1921 7.31097 19.3958 7.32784 19.5578 7.37284C19.7164 7.41709 19.8623 7.49697 19.9418 7.63459C20.0213 7.77259 20.0175 7.93834 19.9766 8.09809C19.935 8.26122 19.8476 8.44572 19.7201 8.64747C19.4464 9.08022 18.9859 9.59247 18.3769 10.1512C17.7015 10.77 16.857 11.4337 15.8989 12.1012C16.857 12.7687 17.7015 13.4325 18.3769 14.0512C18.9859 14.61 19.4468 15.1226 19.7201 15.555C19.8476 15.7567 19.935 15.9412 19.9766 16.1043C20.0179 16.2637 20.0216 16.4298 19.9418 16.5678C19.8623 16.7055 19.7168 16.7853 19.5578 16.8296C19.3954 16.8746 19.1918 16.8918 18.9533 16.8821C18.4418 16.8618 17.7671 16.7193 16.9789 16.4715C16.1048 16.1962 15.1076 15.7976 14.0501 15.3015C13.9511 16.4643 13.7981 17.5263 13.5994 18.4207C13.4201 19.227 13.206 19.8817 12.9679 20.3347C12.8569 20.5458 12.7406 20.7135 12.6203 20.8316C12.5025 20.9467 12.3604 21.033 12.2014 21.033C12.042 21.033 11.9003 20.9467 11.7821 20.8316C11.6621 20.7138 11.5459 20.5458 11.4345 20.3347C11.1964 19.8817 10.9826 19.227 10.8034 18.4207C10.6046 17.5263 10.4516 16.4643 10.3523 15.3015C9.29476 15.7972 8.29763 16.1962 7.42313 16.4715C6.63488 16.7193 5.96063 16.8615 5.44876 16.8821C5.21026 16.8918 5.00626 16.8746 4.84463 16.8296C4.68563 16.7853 4.53976 16.7055 4.46026 16.5678C4.38076 16.4298 4.38451 16.2641 4.42538 16.1043C4.46738 15.9412 4.55438 15.7567 4.68226 15.555C4.95563 15.1226 5.41613 14.61 6.02513 14.0512C6.70088 13.4325 7.54501 12.7687 8.50313 12.1012C7.54501 11.4337 6.70088 10.77 6.02513 10.1512C5.41613 9.59247 4.95563 9.08022 4.68226 8.64747C4.55476 8.44572 4.46738 8.26122 4.42538 8.09847C4.38451 7.93872 4.38076 7.77222 4.46026 7.63497C4.53976 7.49697 4.68563 7.41747 4.84463 7.37284C5.00663 7.32784 5.21026 7.31097 5.44876 7.32034C5.96026 7.34059 6.63488 7.48309 7.42313 7.73097C8.29763 8.00622 9.29476 8.40522 10.3523 8.90097C10.4513 7.73772 10.6043 6.67497 10.8034 5.78022C10.9826 4.97397 11.1964 4.31922 11.4345 3.86622C11.5455 3.65509 11.6625 3.48747 11.7825 3.36972ZM10.32 9.30972C9.22726 8.79147 8.19976 8.37747 7.30801 8.09697C6.53363 7.85322 5.89613 7.72197 5.43376 7.70359C5.21738 7.69497 5.05726 7.71184 4.94776 7.74259C4.83488 7.77409 4.80076 7.81272 4.79251 7.82659C4.78463 7.84084 4.76813 7.88959 4.79701 8.00284C4.82551 8.11309 4.89076 8.25972 5.00663 8.44272C5.25338 8.83347 5.68613 9.31947 6.28463 9.86809C6.97351 10.4996 7.84576 11.1821 8.84138 11.8687C9.29989 11.5581 9.76525 11.2578 10.2371 10.968C10.2529 10.4002 10.281 9.84559 10.32 9.30972ZM10.6283 10.7302C10.6433 10.3072 10.6643 9.89284 10.692 9.48897C11.0558 9.66709 11.4255 9.85572 11.7994 10.0545C11.4053 10.2732 11.0148 10.4985 10.6283 10.7302ZM10.227 11.4255C9.86776 11.6497 9.51901 11.8755 9.18301 12.1012C9.52718 12.3323 9.87523 12.5576 10.227 12.777C10.2195 12.3265 10.2195 11.8759 10.227 11.4255ZM10.6155 13.0162C10.6016 12.4063 10.6016 11.7961 10.6155 11.1862C11.137 10.8692 11.6656 10.5641 12.201 10.2712C12.7367 10.5641 13.2655 10.8692 13.7873 11.1862C13.8012 11.7961 13.8012 12.4063 13.7873 13.0162C13.2655 13.3333 12.7367 13.6383 12.201 13.9312C11.6655 13.6383 11.1367 13.3333 10.6151 13.0162H10.6155ZM10.2368 13.2348C9.76514 12.9448 9.30003 12.6444 8.84176 12.3337C7.84613 13.0203 6.97351 13.7025 6.28426 14.3343C5.68613 14.883 5.25376 15.369 5.00663 15.7597C4.89076 15.9427 4.82551 16.0897 4.79701 16.1996C4.76813 16.3128 4.78463 16.3616 4.79251 16.3758C4.80076 16.3897 4.83488 16.4283 4.94776 16.4602C5.05726 16.4906 5.21776 16.5075 5.43376 16.4988C5.89613 16.4801 6.53363 16.3488 7.30801 16.1051C8.19976 15.825 9.22726 15.411 10.32 14.8927C10.2801 14.3408 10.2521 13.788 10.2368 13.2348ZM10.692 14.7135C10.6638 14.3001 10.6425 13.8863 10.6283 13.4722C11.0148 13.704 11.4053 13.9293 11.7994 14.148C11.4335 14.3427 11.0643 14.5312 10.692 14.7135ZM10.7228 15.1252C10.8203 16.3297 10.9751 17.4255 11.178 18.3375C11.3543 19.1295 11.559 19.7467 11.7743 20.1562C11.8748 20.3475 11.9693 20.4776 12.0506 20.5571C12.1343 20.6388 12.1849 20.6493 12.2014 20.6493C12.2179 20.6493 12.2681 20.6388 12.3521 20.5571C12.4335 20.4776 12.5276 20.3475 12.6285 20.1558C12.8438 19.7467 13.0485 19.1295 13.2248 18.3371C13.4273 17.4258 13.5825 16.3297 13.6796 15.1252C13.1812 14.8837 12.6882 14.6312 12.201 14.3677C11.7139 14.6312 11.2211 14.8837 10.7228 15.1252ZM12.603 14.148C12.9765 14.3467 13.3466 14.5357 13.7104 14.7135C13.7381 14.3096 13.7595 13.8948 13.7741 13.4722C13.3875 13.7039 12.9971 13.9292 12.603 14.148ZM14.1656 13.2345C14.1502 13.7878 14.1224 14.3407 14.0824 14.8927C15.1751 15.411 16.2026 15.825 17.094 16.1055C17.8688 16.3492 18.5063 16.4805 18.9686 16.4988C19.1846 16.5075 19.3448 16.4906 19.4543 16.4602C19.5671 16.4287 19.6013 16.3897 19.6095 16.3758C19.6178 16.3616 19.6343 16.3128 19.605 16.1996C19.5769 16.0893 19.5113 15.9427 19.3958 15.7601C19.1483 15.369 18.7159 14.8826 18.1178 14.3343C17.4289 13.7028 16.5563 13.0203 15.5606 12.3337C15.1024 12.6443 14.6373 12.9446 14.1656 13.2345ZM15.5606 11.8687C16.5563 11.1821 17.4289 10.5 18.1178 9.86809C18.7159 9.31947 19.1486 8.83347 19.3958 8.44272C19.5113 8.25972 19.5769 8.11309 19.605 8.00284C19.6343 7.88959 19.6178 7.84084 19.6095 7.82659C19.6013 7.81272 19.5671 7.77409 19.4543 7.74259C19.3448 7.71184 19.1846 7.69497 18.9686 7.70359C18.5063 7.72234 17.8688 7.85359 17.094 8.09734C16.2026 8.37747 15.1751 8.79147 14.0828 9.30972C14.1218 9.84559 14.1495 10.4006 14.1653 10.968C14.637 11.2578 15.1023 11.5581 15.5606 11.8687ZM14.1758 11.4258C14.5346 11.6497 14.8834 11.8755 15.2194 12.1012C14.8753 12.3322 14.5274 12.5574 14.1758 12.7766C14.1833 12.3264 14.1833 11.8761 14.1758 11.4258ZM13.7745 10.7306C13.7603 10.3164 13.739 9.90246 13.7108 9.48897C13.3383 9.67119 12.969 9.85972 12.603 10.0545C12.9971 10.2734 13.3879 10.4988 13.7745 10.7306ZM12.201 9.83434C11.7139 9.57103 11.2211 9.31859 10.7228 9.07722C10.8203 7.87234 10.9751 6.77584 11.178 5.86347C11.3543 5.07147 11.559 4.45422 11.7743 4.04472C11.8748 3.85347 11.9693 3.72334 12.0506 3.64384C12.1343 3.56209 12.1849 3.55159 12.2014 3.55159C12.2179 3.55159 12.2681 3.56209 12.3521 3.64384C12.4335 3.72334 12.5276 3.85384 12.6285 4.04509C12.8438 4.45422 13.0485 5.07147 13.2248 5.86384C13.4273 6.77584 13.5825 7.87197 13.68 9.07722C13.1959 9.31122 12.7013 9.56434 12.201 9.83434Z" fill="white"/>
<path fill-rule="evenodd" clip-rule="evenodd" d="M6.1755 9.53732C6.52275 9.53732 6.80437 9.80357 6.80437 10.1317C6.80437 10.4598 6.52312 10.7257 6.1755 10.7257C5.82862 10.7257 5.547 10.4594 5.547 10.1317C5.547 9.80357 5.82825 9.53732 6.1755 9.53732ZM16.1655 7.70544C16.5127 7.70544 16.7944 7.97132 16.7944 8.29944C16.7944 8.62757 16.5131 8.89344 16.1655 8.89344C15.8182 8.89344 15.5366 8.62719 15.5366 8.29944C15.5366 7.97132 15.8179 7.70544 16.1655 7.70544ZM10.8446 16.8262C11.1919 16.8262 11.4735 17.0921 11.4735 17.4198C11.4735 17.7479 11.1922 18.0138 10.8446 18.0138C10.497 18.0138 10.2154 17.7476 10.2154 17.4198C10.2154 17.0921 10.497 16.8262 10.8446 16.8262ZM12.2505 10.8618C12.3904 10.8618 12.5288 10.8894 12.6581 10.9429C12.7873 10.9964 12.9047 11.0749 13.0036 11.1738C13.1025 11.2726 13.1809 11.39 13.2344 11.5193C13.288 11.6485 13.3155 11.787 13.3155 11.9268C13.3155 12.0667 13.288 12.2052 13.2344 12.3344C13.1809 12.4636 13.1025 12.581 13.0036 12.6799C12.9047 12.7788 12.7873 12.8572 12.6581 12.9108C12.5288 12.9643 12.3904 12.9918 12.2505 12.9918C11.968 12.9918 11.6972 12.8796 11.4974 12.6799C11.2977 12.4802 11.1855 12.2093 11.1855 11.9268C11.1855 11.6444 11.2977 11.3735 11.4974 11.1738C11.6972 10.974 11.968 10.8618 12.2505 10.8618Z" fill="#F3E7FF"/>
</g>
<defs>
<clipPath id="clip0_5213_1562">
<rect width="24" height="24" fill="white"/>
</clipPath>
</defs>
</svg>
