<svg width="24" height="24" viewBox="0 0 24 24" fill="none" xmlns="http://www.w3.org/2000/svg">
<g clip-path="url(#clip0_4509_8923)">
<path d="M12 24C18.6274 24 24 18.6274 24 12C24 5.37258 18.6274 0 12 0C5.37258 0 0 5.37258 0 12C0 18.6274 5.37258 24 12 24Z" fill="#2116E5"/>
<path d="M12 24C18.6274 24 24 18.6274 24 12C24 5.37258 18.6274 0 12 0C5.37258 0 0 5.37258 0 12C0 18.6274 5.37258 24 12 24Z" fill="#A36EFD"/>
<path fill-rule="evenodd" clip-rule="evenodd" d="M16.2947 6.25644C15.2538 6.13687 14.5597 6.07709 11.9996 6.07709C9.80327 6.07709 8.73277 6.15666 7.70457 6.25644C7.22393 6.30303 6.84056 6.66874 6.87586 7.15237L7.25928 12.3755C7.37937 12.4102 7.51034 12.4542 7.65722 12.5035C8.42632 12.7616 9.63196 13.1662 11.9996 13.1662C14.3673 13.1662 15.5729 12.7616 16.342 12.5035C16.4887 12.4542 16.6196 12.4103 16.7396 12.3756L17.123 7.15237C17.1587 6.66874 16.7741 6.31169 16.2943 6.25644H16.2947ZM7.443 14.8783L7.443 14.8783L7.4708 14.9027L7.4707 14.9027C8.07537 15.4287 9.46829 16.284 11.9991 16.284C14.555 16.284 15.9391 15.423 16.5362 14.8972C16.5408 14.8932 16.5454 14.8891 16.5499 14.8851C16.677 14.772 16.7671 14.6751 16.8241 14.6068C16.8726 14.5487 16.9005 14.4765 16.905 14.4007L16.961 13.3813C17.3337 13.1767 17.7185 12.9456 17.7185 12.9456C18.3236 12.6179 18.9988 13.0887 19 13.7793C19.0021 14.8967 18.129 16.0449 16.9514 16.7685C15.6235 17.5844 13.6414 17.9229 12 17.9229C10.3586 17.9229 8.37646 17.5844 7.04862 16.7685C5.871 16.0449 4.99795 14.8971 5 13.7793C5.00123 13.0887 5.67644 12.6179 6.28146 12.9456C6.28146 12.9456 6.66561 13.1762 7.03806 13.3806L7.09455 14.4097C7.09824 14.4798 7.12452 14.5458 7.16885 14.5998C7.22435 14.667 7.31447 14.7641 7.443 14.8783Z" fill="#4C2897"/>
</g>
<defs>
<clipPath id="clip0_4509_8923">
<rect width="24" height="24" fill="white"/>
</clipPath>
</defs>
</svg>
