<svg width="24" height="24" viewBox="0 0 24 24" fill="none" xmlns="http://www.w3.org/2000/svg">
<g clip-path="url(#clip0_46380_561759)">
<path d="M0.419148 12.9316C-0.767443 15.8828 0.651475 19.2419 3.58839 20.4343L7.88541 9.74683C4.9485 8.55444 1.60574 9.9803 0.419148 12.9316Z" fill="white"/>
<path d="M7.56319 14.944C6.20709 18.3169 7.82871 22.1559 11.1852 23.5186C14.5417 24.8814 18.362 23.2518 19.7181 19.8789L7.56319 14.944Z" fill="white"/>
<path d="M18.8737 0C23.0693 1.70342 25.0963 6.50213 23.4012 10.7182C21.7061 14.9343 16.9307 16.9713 12.7351 15.2678L18.8737 0Z" fill="white"/>
<path d="M3.9412 6.36947C4.95828 3.83981 7.8235 2.61765 10.3409 3.63969C12.8582 4.66174 14.0744 7.54097 13.0573 10.0706L3.9412 6.36947Z" fill="white"/>
</g>
<defs>
<clipPath id="clip0_46380_561759">
<rect width="24" height="24" fill="white"/>
</clipPath>
</defs>
</svg>
