<svg width="24" height="24" viewBox="0 0 24 24" fill="none" xmlns="http://www.w3.org/2000/svg">
<g clip-path="url(#clip0_2072_26047)">
<path d="M21.5 12.0048C21.5 17.2436 17.2525 21.5 12.0048 21.5C6.75613 21.5 2.5 17.2522 2.5 12.0048C2.5 6.75676 6.75676 2.5 12.0048 2.5C17.2522 2.5 21.5 6.75613 21.5 12.0048Z" fill="black" stroke="black"/>
<path d="M24 12C24 18.6274 18.6274 24 12 24C5.37258 24 0 18.6274 0 12C0 5.37258 5.37258 0 12 0C18.6274 0 24 5.37258 24 12ZM1.008 12C1.008 18.0707 5.92929 22.992 12 22.992C18.0707 22.992 22.992 18.0707 22.992 12C22.992 5.92929 18.0707 1.008 12 1.008C5.92929 1.008 1.008 5.92929 1.008 12Z" fill="url(#paint0_linear_2072_26047)"/>
<path d="M4.87188 15.628L4.74738 15.3906H6.84234L6.8934 15.4638C7.55998 16.4375 8.4911 17.2003 9.57698 17.6623C10.6629 18.1244 11.8582 18.2663 13.0221 18.0715C16.1645 17.5366 18.3862 14.6738 18.1358 11.5046L14.3936 11.4979L15.4852 14.5872L14.1492 16.4247L11.7498 9.62258L19.6446 9.63592L19.675 9.75359C19.7666 10.054 19.8381 10.3602 19.889 10.6701C19.9647 11.1114 20.0018 11.5584 19.9999 12.0061C19.9999 15.8322 17.2384 19.2299 13.3362 19.889C12.8877 19.9605 12.4345 19.9976 11.9805 20C10.5068 20.0015 9.06163 19.5935 7.80639 18.8215C6.55114 18.0495 5.53517 16.9438 4.87188 15.628ZM6.21484 14.3496H4.34401L4.31062 14.232C4.22572 13.9354 4.15982 13.6338 4.11331 13.3289C3.37595 8.98341 6.31514 4.8489 10.6631 4.11648C12.3405 3.82655 14.0668 4.08121 15.589 4.84318C17.1112 5.60515 18.3494 6.8344 19.1224 8.35091L19.2471 8.58842H17.1395L17.0855 8.51516C16.4203 7.54285 15.4906 6.78126 14.4063 6.32036C13.322 5.85946 12.1284 5.71852 10.9666 5.91419C7.82401 6.44898 5.59556 9.31189 5.84588 12.4744L9.60186 12.481L8.50726 9.39176L9.85234 7.55426L12.2457 14.3564L6.21484 14.3496Z" fill="url(#paint1_linear_2072_26047)"/>
</g>
<defs>
<linearGradient id="paint0_linear_2072_26047" x1="0" y1="12" x2="24" y2="12" gradientUnits="userSpaceOnUse">
<stop stop-color="#077AFF"/>
<stop offset="1" stop-color="#482BFF"/>
</linearGradient>
<linearGradient id="paint1_linear_2072_26047" x1="4" y1="12" x2="20" y2="12" gradientUnits="userSpaceOnUse">
<stop stop-color="#077AFF"/>
<stop offset="1" stop-color="#482BFF"/>
</linearGradient>
<clipPath id="clip0_2072_26047">
<rect width="24" height="24" fill="white"/>
</clipPath>
</defs>
</svg>
