<svg width="24" height="24" viewBox="0 0 24 24" fill="none" xmlns="http://www.w3.org/2000/svg">
<g clip-path="url(#clip0_4263_1191)">
<path d="M12 24C18.6274 24 24 18.6274 24 12C24 5.37258 18.6274 0 12 0C5.37258 0 0 5.37258 0 12C0 18.6274 5.37258 24 12 24Z" fill="black"/>
<path d="M3.48516 4.64939C3.62597 4.47515 3.77242 4.30653 3.91886 4.1379C3.92449 4.13228 3.94139 4.12666 3.94702 4.12104C3.95828 4.10418 3.98081 4.09294 3.99771 4.07608L4.00898 4.05921C4.11036 3.96366 4.22301 3.86249 4.34692 3.76694C4.79751 3.42969 5.25936 3.17114 5.74938 2.9969C7.32644 2.44607 9.07811 2.78331 10.4524 4.0817C12.3731 5.8747 12.1984 8.76937 10.6664 10.6917C8.72891 13.5582 5.4058 17.5545 10.0075 21.1349C10.8354 21.7813 11.4493 22.3097 14.0571 23.0628C12.3505 23.3776 10.7678 23.2764 9.01052 22.8324C7.76577 22.1298 5.8057 20.6291 5.14108 18.6C4.13289 15.5255 6.91528 10.9221 8.25579 9.15158C10.0976 6.70095 7.11805 4.04797 4.91579 7.01009C3.77805 8.55578 1.76729 12.9231 2.46571 16.1662C2.87124 18.0042 3.41758 19.3419 5.57478 21.1855C5.17488 20.9494 4.78624 20.6853 4.40887 20.3818C-0.598306 15.7222 -0.0181716 8.51644 3.48516 4.64939Z" fill="url(#paint0_linear_4263_1191)"/>
<path d="M20.5138 19.3562C20.373 19.5304 20.2266 19.699 20.0801 19.8676C20.0745 19.8733 20.0576 19.8789 20.052 19.8845C20.0407 19.9014 20.0182 19.9126 20.0013 19.9295L19.99 19.9463C19.8887 20.0419 19.776 20.1431 19.6521 20.233C19.2016 20.5702 18.7398 20.8288 18.2498 21.003C16.6729 21.5539 14.9214 21.2166 13.5472 19.9182C11.6268 18.1252 11.8014 15.2306 13.3332 13.3083C15.2706 10.4417 18.5933 6.44539 13.9921 2.86499C13.1643 2.21861 12.5504 1.69027 9.94287 0.93709C11.6493 0.62233 13.2319 0.723503 14.989 1.16754C16.2336 1.87013 18.1935 3.37086 18.858 5.39993C19.8661 8.47446 17.084 13.0778 15.7436 14.8483C13.902 17.299 16.8813 19.952 19.0833 16.9898C20.2322 15.4441 22.2428 11.0769 21.5444 7.8337C21.1389 5.99573 20.5926 4.658 18.4356 2.81441C18.8355 3.05048 19.2241 3.31465 19.6014 3.61817C24.5968 8.28336 24.0168 15.4891 20.5138 19.3562Z" fill="url(#paint1_linear_4263_1191)"/>
</g>
<defs>
<linearGradient id="paint0_linear_4263_1191" x1="0.673368" y1="1028.28" x2="2253.62" y2="1028.28" gradientUnits="userSpaceOnUse">
<stop stop-color="#5D00FA"/>
<stop offset="1" stop-color="#E802D7"/>
</linearGradient>
<linearGradient id="paint1_linear_4263_1191" x1="-912.548" y1="1026.06" x2="1340.18" y2="1026.06" gradientUnits="userSpaceOnUse">
<stop stop-color="#5D00FA"/>
<stop offset="1" stop-color="#E802D7"/>
</linearGradient>
<clipPath id="clip0_4263_1191">
<rect width="24" height="24" fill="white"/>
</clipPath>
</defs>
</svg>
