<svg width="24" height="24" viewBox="0 0 24 24" fill="none" xmlns="http://www.w3.org/2000/svg">
<circle cx="12" cy="12" r="12" fill="url(#paint0_linear_3395_7909)"/>
<path fill-rule="evenodd" clip-rule="evenodd" d="M6.98842 7.58362C6.99643 7.53538 7.03816 7.5 7.08707 7.5H8.73029C8.79204 7.5 8.83903 7.55541 8.82894 7.61634L7.95636 12.8861C7.94627 12.9471 7.99326 13.0025 8.05501 13.0025H11.0604C11.1222 13.0025 11.1692 13.0581 11.159 13.119L10.9369 14.4404C10.9288 14.4885 10.8871 14.5238 10.8383 14.5238H5.95421C5.89244 14.5238 5.84545 14.4683 5.85556 14.4074L6.98842 7.58362ZM13.1115 18.1858C13.1604 18.1858 13.2021 18.1505 13.2101 18.1023L14.5281 10.2094C14.5361 10.1612 14.5779 10.1258 14.6267 10.1258H15.7864C16.1415 10.1258 16.4241 10.1869 16.6344 10.3091C16.8474 10.4284 16.9937 10.596 17.0733 10.8119C17.1528 11.0278 17.1685 11.2821 17.1202 11.5747C17.0747 11.8616 16.9767 12.1159 16.8261 12.3375C16.6756 12.5562 16.4724 12.7281 16.2168 12.8531C15.9639 12.9753 15.6585 13.0363 15.3006 13.0363H14.9892C14.9402 13.0363 14.8984 13.0718 14.8905 13.1201L14.6805 14.3988C14.6704 14.4597 14.7174 14.515 14.7791 14.515H15.356C16.0293 14.515 16.623 14.3915 17.1372 14.1443C17.6514 13.8971 18.069 13.5534 18.3901 13.113C18.7139 12.6699 18.9241 12.1571 19.0207 11.5747C19.1145 10.9952 19.0747 10.4838 18.9014 10.0406C18.731 9.59458 18.4327 9.24657 18.0065 8.99657C17.5832 8.74373 17.042 8.61731 16.383 8.61731H13.0245C12.9756 8.61731 12.9339 8.65268 12.9259 8.70092L11.3694 18.0694C11.3593 18.1303 11.4063 18.1858 11.4681 18.1858H13.1115Z" fill="white"/>
<defs>
<linearGradient id="paint0_linear_3395_7909" x1="24" y1="12" x2="3.15777e-07" y2="12" gradientUnits="userSpaceOnUse">
<stop stop-color="#482BFF"/>
<stop offset="1" stop-color="#007AFF"/>
</linearGradient>
</defs>
</svg>
