<svg width="24" height="24" viewBox="0 0 24 24" fill="none" xmlns="http://www.w3.org/2000/svg">
<path d="M12 24C18.6274 24 24 18.6274 24 12C24 5.37258 18.6274 0 12 0C5.37258 0 0 5.37258 0 12C0 18.6274 5.37258 24 12 24Z" fill="black"/>
<path d="M16.9957 16.7308C16.9957 17.2528 16.8011 17.7105 16.4889 18.0615C16.4852 18.0656 16.4827 18.0706 16.4816 18.0761C16.4768 18.0985 16.4969 18.1183 16.5192 18.1128C17.4195 17.8909 18.1475 17.1218 18.1475 16.1119V10.8763C18.1475 9.32861 17.283 7.89847 15.8797 7.12463L10.2135 4L9.09106 4.6351L14.7279 7.74349C16.1312 8.51734 16.9957 9.94747 16.9957 11.4952V16.7308Z" fill="url(#paint0_linear_4037_1174)"/>
<path d="M16.9957 16.7308C16.9957 17.2528 16.8011 17.7105 16.4889 18.0615C16.4852 18.0656 16.4827 18.0706 16.4816 18.0761C16.4768 18.0985 16.4969 18.1183 16.5192 18.1128C17.4195 17.8909 18.1475 17.1218 18.1475 16.1119V10.8763C18.1475 9.32861 17.283 7.89847 15.8797 7.12463L10.2135 4L9.09106 4.6351L14.7279 7.74349C16.1312 8.51734 16.9957 9.94747 16.9957 11.4952V16.7308Z" fill="url(#paint1_linear_4037_1174)"/>
<path d="M16.9957 16.7308C16.9957 17.2528 16.8011 17.7105 16.4889 18.0615C16.4852 18.0656 16.4827 18.0706 16.4816 18.0761C16.4768 18.0985 16.4969 18.1183 16.5192 18.1128C17.4195 17.8909 18.1475 17.1218 18.1475 16.1119V10.8763C18.1475 9.32861 17.283 7.89847 15.8797 7.12463L10.2135 4L9.09106 4.6351L14.7279 7.74349C16.1312 8.51734 16.9957 9.94747 16.9957 11.4952V16.7308Z" fill="url(#paint2_radial_4037_1174)" fill-opacity="0.2"/>
<path d="M16.9957 16.7308C16.9957 17.2528 16.8011 17.7105 16.4889 18.0615C16.4852 18.0656 16.4827 18.0706 16.4816 18.0761C16.4768 18.0985 16.4969 18.1183 16.5192 18.1128C17.4195 17.8909 18.1475 17.1218 18.1475 16.1119V10.8763C18.1475 9.32861 17.283 7.89847 15.8797 7.12463L10.2135 4L9.09106 4.6351L14.7279 7.74349C16.1312 8.51734 16.9957 9.94747 16.9957 11.4952V16.7308Z" fill="url(#paint3_radial_4037_1174)" fill-opacity="0.1"/>
<path d="M16.9957 16.7308C16.9957 17.2528 16.8011 17.7105 16.4889 18.0615C16.4852 18.0656 16.4827 18.0706 16.4816 18.0761C16.4768 18.0985 16.4969 18.1183 16.5192 18.1128C17.4195 17.8909 18.1475 17.1218 18.1475 16.1119V10.8763C18.1475 9.32861 17.283 7.89847 15.8797 7.12463L10.2135 4L9.09106 4.6351L14.7279 7.74349C16.1312 8.51734 16.9957 9.94747 16.9957 11.4952V16.7308Z" fill="url(#paint4_linear_4037_1174)" fill-opacity="0.2"/>
<path d="M15.4133 17.6247V12.3891C15.4133 10.8414 14.5487 9.41126 13.1455 8.63741L7.50867 5.52902L8.63111 4.89392L14.2973 8.01855C15.7007 8.79239 16.5651 10.2225 16.5651 11.7702V17.0058C16.5651 18.0158 15.8372 18.7848 14.9368 19.0067C14.9146 19.0122 14.8944 18.9925 14.8991 18.97C14.9003 18.9645 14.9028 18.9595 14.9065 18.9554C15.2188 18.6044 15.4133 18.1467 15.4133 17.6247Z" fill="url(#paint5_linear_4037_1174)"/>
<path d="M15.4133 17.6247V12.3891C15.4133 10.8414 14.5487 9.41126 13.1455 8.63741L7.50867 5.52902L8.63111 4.89392L14.2973 8.01855C15.7007 8.79239 16.5651 10.2225 16.5651 11.7702V17.0058C16.5651 18.0158 15.8372 18.7848 14.9368 19.0067C14.9146 19.0122 14.8944 18.9925 14.8991 18.97C14.9003 18.9645 14.9028 18.9595 14.9065 18.9554C15.2188 18.6044 15.4133 18.1467 15.4133 17.6247Z" fill="url(#paint6_linear_4037_1174)"/>
<path d="M15.4133 17.6247V12.3891C15.4133 10.8414 14.5487 9.41126 13.1455 8.63741L7.50867 5.52902L8.63111 4.89392L14.2973 8.01855C15.7007 8.79239 16.5651 10.2225 16.5651 11.7702V17.0058C16.5651 18.0158 15.8372 18.7848 14.9368 19.0067C14.9146 19.0122 14.8944 18.9925 14.8991 18.97C14.9003 18.9645 14.9028 18.9595 14.9065 18.9554C15.2188 18.6044 15.4133 18.1467 15.4133 17.6247Z" fill="url(#paint7_radial_4037_1174)" fill-opacity="0.2"/>
<path d="M15.4133 17.6247V12.3891C15.4133 10.8414 14.5487 9.41126 13.1455 8.63741L7.50867 5.52902L8.63111 4.89392L14.2973 8.01855C15.7007 8.79239 16.5651 10.2225 16.5651 11.7702V17.0058C16.5651 18.0158 15.8372 18.7848 14.9368 19.0067C14.9146 19.0122 14.8944 18.9925 14.8991 18.97C14.9003 18.9645 14.9028 18.9595 14.9065 18.9554C15.2188 18.6044 15.4133 18.1467 15.4133 17.6247Z" fill="url(#paint8_radial_4037_1174)" fill-opacity="0.1"/>
<path d="M15.4133 17.6247V12.3891C15.4133 10.8414 14.5487 9.41126 13.1455 8.63741L7.50867 5.52902L8.63111 4.89392L14.2973 8.01855C15.7007 8.79239 16.5651 10.2225 16.5651 11.7702V17.0058C16.5651 18.0158 15.8372 18.7848 14.9368 19.0067C14.9146 19.0122 14.8944 18.9925 14.8991 18.97C14.9003 18.9645 14.9028 18.9595 14.9065 18.9554C15.2188 18.6044 15.4133 18.1467 15.4133 17.6247Z" fill="url(#paint9_linear_4037_1174)" fill-opacity="0.2"/>
<path fill-rule="evenodd" clip-rule="evenodd" d="M5.85242 6.4654L6.98949 5.82202L12.6557 8.94666C14.059 9.7205 14.9235 11.1506 14.9235 12.6983V17.9598C14.9042 19.5327 13.1159 20.5102 11.6838 19.7205L6.54835 16.8885L5.85242 16.5147V6.4654ZM13.7716 13.3335V16.373L9.95601 14.2689V8.72831L11.5038 9.58186C12.9072 10.3557 13.7716 11.7858 13.7716 13.3335ZM8.51615 7.9343L9.09209 8.2519V14.745L9.15255 14.7774L13.7716 17.3245V17.9126L8.52357 15.0186L8.51615 15.0228V7.9343ZM7.58025 7.4182V15.5222L7.60731 15.537L7.58025 15.5523L13.7645 18.9626C13.7128 19.2346 13.388 19.3898 13.1237 19.2441L7.0043 15.8696V7.1006L7.58025 7.4182Z" fill="url(#paint10_linear_4037_1174)"/>
<path fill-rule="evenodd" clip-rule="evenodd" d="M5.85242 6.4654L6.98949 5.82202L12.6557 8.94666C14.059 9.7205 14.9235 11.1506 14.9235 12.6983V17.9598C14.9042 19.5327 13.1159 20.5102 11.6838 19.7205L6.54835 16.8885L5.85242 16.5147V6.4654ZM13.7716 13.3335V16.373L9.95601 14.2689V8.72831L11.5038 9.58186C12.9072 10.3557 13.7716 11.7858 13.7716 13.3335ZM8.51615 7.9343L9.09209 8.2519V14.745L9.15255 14.7774L13.7716 17.3245V17.9126L8.52357 15.0186L8.51615 15.0228V7.9343ZM7.58025 7.4182V15.5222L7.60731 15.537L7.58025 15.5523L13.7645 18.9626C13.7128 19.2346 13.388 19.3898 13.1237 19.2441L7.0043 15.8696V7.1006L7.58025 7.4182Z" fill="url(#paint11_linear_4037_1174)"/>
<path fill-rule="evenodd" clip-rule="evenodd" d="M5.85242 6.4654L6.98949 5.82202L12.6557 8.94666C14.059 9.7205 14.9235 11.1506 14.9235 12.6983V17.9598C14.9042 19.5327 13.1159 20.5102 11.6838 19.7205L6.54835 16.8885L5.85242 16.5147V6.4654ZM13.7716 13.3335V16.373L9.95601 14.2689V8.72831L11.5038 9.58186C12.9072 10.3557 13.7716 11.7858 13.7716 13.3335ZM8.51615 7.9343L9.09209 8.2519V14.745L9.15255 14.7774L13.7716 17.3245V17.9126L8.52357 15.0186L8.51615 15.0228V7.9343ZM7.58025 7.4182V15.5222L7.60731 15.537L7.58025 15.5523L13.7645 18.9626C13.7128 19.2346 13.388 19.3898 13.1237 19.2441L7.0043 15.8696V7.1006L7.58025 7.4182Z" fill="url(#paint12_radial_4037_1174)" fill-opacity="0.2"/>
<path fill-rule="evenodd" clip-rule="evenodd" d="M5.85242 6.4654L6.98949 5.82202L12.6557 8.94666C14.059 9.7205 14.9235 11.1506 14.9235 12.6983V17.9598C14.9042 19.5327 13.1159 20.5102 11.6838 19.7205L6.54835 16.8885L5.85242 16.5147V6.4654ZM13.7716 13.3335V16.373L9.95601 14.2689V8.72831L11.5038 9.58186C12.9072 10.3557 13.7716 11.7858 13.7716 13.3335ZM8.51615 7.9343L9.09209 8.2519V14.745L9.15255 14.7774L13.7716 17.3245V17.9126L8.52357 15.0186L8.51615 15.0228V7.9343ZM7.58025 7.4182V15.5222L7.60731 15.537L7.58025 15.5523L13.7645 18.9626C13.7128 19.2346 13.388 19.3898 13.1237 19.2441L7.0043 15.8696V7.1006L7.58025 7.4182Z" fill="url(#paint13_radial_4037_1174)" fill-opacity="0.1"/>
<path fill-rule="evenodd" clip-rule="evenodd" d="M5.85242 6.4654L6.98949 5.82202L12.6557 8.94666C14.059 9.7205 14.9235 11.1506 14.9235 12.6983V17.9598C14.9042 19.5327 13.1159 20.5102 11.6838 19.7205L6.54835 16.8885L5.85242 16.5147V6.4654ZM13.7716 13.3335V16.373L9.95601 14.2689V8.72831L11.5038 9.58186C12.9072 10.3557 13.7716 11.7858 13.7716 13.3335ZM8.51615 7.9343L9.09209 8.2519V14.745L9.15255 14.7774L13.7716 17.3245V17.9126L8.52357 15.0186L8.51615 15.0228V7.9343ZM7.58025 7.4182V15.5222L7.60731 15.537L7.58025 15.5523L13.7645 18.9626C13.7128 19.2346 13.388 19.3898 13.1237 19.2441L7.0043 15.8696V7.1006L7.58025 7.4182Z" fill="url(#paint14_linear_4037_1174)" fill-opacity="0.2"/>
<defs>
<linearGradient id="paint0_linear_4037_1174" x1="5.64665" y1="12" x2="18.0104" y2="10.8948" gradientUnits="userSpaceOnUse">
<stop stop-color="#FF3873"/>
<stop offset="0.473958" stop-color="#711EFF"/>
<stop offset="1" stop-color="#3FE5FF"/>
</linearGradient>
<linearGradient id="paint1_linear_4037_1174" x1="6.6135" y1="4.73636" x2="15.2453" y2="12.0694" gradientUnits="userSpaceOnUse">
<stop stop-color="#F6F063"/>
<stop offset="1" stop-color="#E07774" stop-opacity="0"/>
</linearGradient>
<radialGradient id="paint2_radial_4037_1174" cx="0" cy="0" r="1" gradientUnits="userSpaceOnUse" gradientTransform="translate(6.17558 9.62446) rotate(65.584) scale(3.58421 3.07577)">
<stop offset="0.925861" stop-color="white"/>
<stop offset="1" stop-color="white" stop-opacity="0"/>
</radialGradient>
<radialGradient id="paint3_radial_4037_1174" cx="0" cy="0" r="1" gradientUnits="userSpaceOnUse" gradientTransform="translate(7.96141 8.14064) rotate(59.0024) scale(2.27494 3.10705)">
<stop offset="0.0864251" stop-color="white"/>
<stop offset="0.94115" stop-color="white" stop-opacity="0"/>
</radialGradient>
<linearGradient id="paint4_linear_4037_1174" x1="7.25902" y1="8.44406" x2="13.665" y2="10.7056" gradientUnits="userSpaceOnUse">
<stop stop-color="white"/>
<stop offset="1" stop-opacity="0"/>
</linearGradient>
<linearGradient id="paint5_linear_4037_1174" x1="5.64809" y1="12" x2="18.0118" y2="10.8948" gradientUnits="userSpaceOnUse">
<stop stop-color="#FF3873"/>
<stop offset="0.473958" stop-color="#711EFF"/>
<stop offset="1" stop-color="#3FE5FF"/>
</linearGradient>
<linearGradient id="paint6_linear_4037_1174" x1="6.61494" y1="4.73636" x2="15.2468" y2="12.0694" gradientUnits="userSpaceOnUse">
<stop stop-color="#F6F063"/>
<stop offset="1" stop-color="#E07774" stop-opacity="0"/>
</linearGradient>
<radialGradient id="paint7_radial_4037_1174" cx="0" cy="0" r="1" gradientUnits="userSpaceOnUse" gradientTransform="translate(6.17701 9.62446) rotate(65.584) scale(3.58421 3.07577)">
<stop offset="0.925861" stop-color="white"/>
<stop offset="1" stop-color="white" stop-opacity="0"/>
</radialGradient>
<radialGradient id="paint8_radial_4037_1174" cx="0" cy="0" r="1" gradientUnits="userSpaceOnUse" gradientTransform="translate(7.96285 8.14064) rotate(59.0024) scale(2.27494 3.10705)">
<stop offset="0.0864251" stop-color="white"/>
<stop offset="0.94115" stop-color="white" stop-opacity="0"/>
</radialGradient>
<linearGradient id="paint9_linear_4037_1174" x1="7.26046" y1="8.44407" x2="13.6665" y2="10.7056" gradientUnits="userSpaceOnUse">
<stop stop-color="white"/>
<stop offset="1" stop-opacity="0"/>
</linearGradient>
<linearGradient id="paint10_linear_4037_1174" x1="5.64767" y1="11.9999" x2="18.0114" y2="10.8946" gradientUnits="userSpaceOnUse">
<stop stop-color="#FF3873"/>
<stop offset="0.473958" stop-color="#711EFF"/>
<stop offset="1" stop-color="#3FE5FF"/>
</linearGradient>
<linearGradient id="paint11_linear_4037_1174" x1="6.61452" y1="4.73618" x2="15.2464" y2="12.0692" gradientUnits="userSpaceOnUse">
<stop stop-color="#F6F063"/>
<stop offset="1" stop-color="#E07774" stop-opacity="0"/>
</linearGradient>
<radialGradient id="paint12_radial_4037_1174" cx="0" cy="0" r="1" gradientUnits="userSpaceOnUse" gradientTransform="translate(6.1766 9.62427) rotate(65.584) scale(3.58421 3.07577)">
<stop offset="0.925861" stop-color="white"/>
<stop offset="1" stop-color="white" stop-opacity="0"/>
</radialGradient>
<radialGradient id="paint13_radial_4037_1174" cx="0" cy="0" r="1" gradientUnits="userSpaceOnUse" gradientTransform="translate(7.96244 8.14045) rotate(59.0024) scale(2.27494 3.10705)">
<stop offset="0.0864251" stop-color="white"/>
<stop offset="0.94115" stop-color="white" stop-opacity="0"/>
</radialGradient>
<linearGradient id="paint14_linear_4037_1174" x1="7.26005" y1="8.44388" x2="13.6661" y2="10.7054" gradientUnits="userSpaceOnUse">
<stop stop-color="white"/>
<stop offset="1" stop-opacity="0"/>
</linearGradient>
</defs>
</svg>
