<svg width="24" height="24" viewBox="0 0 24 24" fill="none" xmlns="http://www.w3.org/2000/svg">
<g clip-path="url(#clip0_5535_11002)">
<path d="M20.4853 3.51472C25.1716 8.20101 25.1716 15.799 20.4853 20.4853C15.799 25.1716 8.20101 25.1716 3.51472 20.4853C-1.17157 15.799 -1.17157 8.20101 3.51472 3.51472C8.20101 -1.17157 15.799 -1.17157 20.4853 3.51472Z" fill="#F6F6F6"/>
<path d="M9.78614 4.45143C11.0085 3.22908 12.9903 3.22908 14.2127 4.45143L17.3379 7.57665C20.2862 10.525 20.2862 15.3052 17.3379 18.2536C14.3895 21.202 9.60928 21.202 6.66091 18.2536C3.71256 15.3052 3.71256 10.525 6.66091 7.57665L9.78614 4.45143Z" fill="#6039FF"/>
<path fill-rule="evenodd" clip-rule="evenodd" d="M14.5914 4.07343L17.7167 7.19865C20.874 10.3559 20.874 15.4748 17.7167 18.6321C14.5594 21.7893 9.44053 21.7893 6.28328 18.6321C3.12603 15.4748 3.12603 10.3559 6.28328 7.19864L9.4085 4.07343C10.8397 2.64219 13.1603 2.64219 14.5914 4.07343ZM14.2133 4.45165C12.9909 3.22931 11.0091 3.22931 9.78673 4.45165L6.66151 7.57688C3.71315 10.5252 3.71315 15.3054 6.66151 18.2538C9.60987 21.2022 14.3901 21.2022 17.3384 18.2538C20.2868 15.3054 20.2868 10.5252 17.3384 7.57688L14.2133 4.45165Z" fill="#6039FF"/>
<path fill-rule="evenodd" clip-rule="evenodd" d="M12.5602 6.51705C12.1912 6.17531 11.6213 6.17531 11.2524 6.51705L8.38305 9.1745C8.24071 9.30634 8.14154 9.4781 8.09854 9.66728L7.23177 13.481C7.19621 13.6374 7.201 13.7942 7.2396 13.9399C7.2413 14.0504 7.26229 14.1628 7.30497 14.273L7.92188 15.8659C8.00423 16.0784 8.1594 16.2549 8.35973 16.3638L11.4471 18.0418C11.7337 18.1976 12.0796 18.1976 12.3662 18.0418L15.4536 16.3638C15.6539 16.2549 15.8091 16.0784 15.8914 15.8659L16.5084 14.273C16.5514 14.1618 16.5724 14.0483 16.5737 13.9369C16.6116 13.792 16.6161 13.6363 16.5808 13.481L15.7141 9.66728C15.671 9.4781 15.5719 9.30634 15.4296 9.1745L12.5602 6.51705ZM12.8068 9.44072C13.1549 9.82154 13.6083 9.97379 13.8195 9.78075C14.0306 9.58773 13.9196 9.12254 13.5715 8.74171C13.2234 8.36089 12.77 8.20865 12.5588 8.40168C12.3477 8.59471 12.4587 9.0599 12.8068 9.44072ZM14.8523 10.8761C14.7142 11.0023 14.4177 10.9028 14.19 10.6537C13.9624 10.4047 13.8898 10.1005 14.0279 9.97423C14.166 9.84799 14.4624 9.94755 14.6901 10.1966C14.9177 10.4456 14.9904 10.7498 14.8523 10.8761Z" fill="#F6F6F6"/>
</g>
<defs>
<clipPath id="clip0_5535_11002">
<rect width="24" height="24" fill="white"/>
</clipPath>
</defs>
</svg>
