<svg width="24" height="24" viewBox="0 0 24 24" fill="none" xmlns="http://www.w3.org/2000/svg">
<circle cx="12" cy="12" r="10" fill="black"/>
<path d="M24 12C24 18.6274 18.6274 24 12 24C5.37258 24 0 18.6274 0 12C0 5.37258 5.37258 0 12 0C18.6274 0 24 5.37258 24 12ZM1.008 12C1.008 18.0707 5.92929 22.992 12 22.992C18.0707 22.992 22.992 18.0707 22.992 12C22.992 5.92929 18.0707 1.008 12 1.008C5.92929 1.008 1.008 5.92929 1.008 12Z" fill="url(#paint0_linear_5675_1591)"/>
<g opacity="0.3">
<path fill-rule="evenodd" clip-rule="evenodd" d="M6.98842 7.58362C6.99643 7.53538 7.03816 7.5 7.08707 7.5H8.73029C8.79204 7.5 8.83903 7.55541 8.82894 7.61634L7.95636 12.8861C7.94627 12.9471 7.99326 13.0025 8.05501 13.0025H11.0604C11.1222 13.0025 11.1692 13.0581 11.159 13.119L10.9369 14.4404C10.9288 14.4885 10.8871 14.5238 10.8383 14.5238H5.95421C5.89244 14.5238 5.84545 14.4683 5.85556 14.4074L6.98842 7.58362ZM13.1115 18.1858C13.1604 18.1858 13.2021 18.1505 13.2101 18.1023L14.5281 10.2094C14.5361 10.1612 14.5779 10.1258 14.6267 10.1258H15.7864C16.1415 10.1258 16.4241 10.1869 16.6344 10.3091C16.8474 10.4284 16.9937 10.596 17.0733 10.8119C17.1528 11.0278 17.1685 11.2821 17.1202 11.5747C17.0747 11.8616 16.9767 12.1159 16.8261 12.3375C16.6756 12.5562 16.4724 12.7281 16.2168 12.8531C15.9639 12.9753 15.6585 13.0363 15.3006 13.0363H14.9892C14.9402 13.0363 14.8984 13.0718 14.8905 13.1201L14.6805 14.3988C14.6704 14.4597 14.7174 14.515 14.7791 14.515H15.356C16.0293 14.515 16.623 14.3915 17.1372 14.1443C17.6514 13.8971 18.069 13.5534 18.3901 13.113C18.7139 12.6699 18.9241 12.1571 19.0207 11.5747C19.1145 10.9952 19.0747 10.4838 18.9014 10.0406C18.731 9.59458 18.4327 9.24657 18.0065 8.99657C17.5832 8.74373 17.042 8.61731 16.383 8.61731H13.0245C12.9756 8.61731 12.9339 8.65268 12.9259 8.70092L11.3694 18.0694C11.3593 18.1303 11.4063 18.1858 11.4681 18.1858H13.1115Z" fill="url(#paint1_linear_5675_1591)"/>
<path fill-rule="evenodd" clip-rule="evenodd" d="M6.98842 7.58362C6.99643 7.53538 7.03816 7.5 7.08707 7.5H8.73029C8.79204 7.5 8.83903 7.55541 8.82894 7.61634L7.95636 12.8861C7.94627 12.9471 7.99326 13.0025 8.05501 13.0025H11.0604C11.1222 13.0025 11.1692 13.0581 11.159 13.119L10.9369 14.4404C10.9288 14.4885 10.8871 14.5238 10.8383 14.5238H5.95421C5.89244 14.5238 5.84545 14.4683 5.85556 14.4074L6.98842 7.58362ZM13.1115 18.1858C13.1604 18.1858 13.2021 18.1505 13.2101 18.1023L14.5281 10.2094C14.5361 10.1612 14.5779 10.1258 14.6267 10.1258H15.7864C16.1415 10.1258 16.4241 10.1869 16.6344 10.3091C16.8474 10.4284 16.9937 10.596 17.0733 10.8119C17.1528 11.0278 17.1685 11.2821 17.1202 11.5747C17.0747 11.8616 16.9767 12.1159 16.8261 12.3375C16.6756 12.5562 16.4724 12.7281 16.2168 12.8531C15.9639 12.9753 15.6585 13.0363 15.3006 13.0363H14.9892C14.9402 13.0363 14.8984 13.0718 14.8905 13.1201L14.6805 14.3988C14.6704 14.4597 14.7174 14.515 14.7791 14.515H15.356C16.0293 14.515 16.623 14.3915 17.1372 14.1443C17.6514 13.8971 18.069 13.5534 18.3901 13.113C18.7139 12.6699 18.9241 12.1571 19.0207 11.5747C19.1145 10.9952 19.0747 10.4838 18.9014 10.0406C18.731 9.59458 18.4327 9.24657 18.0065 8.99657C17.5832 8.74373 17.042 8.61731 16.383 8.61731H13.0245C12.9756 8.61731 12.9339 8.65268 12.9259 8.70092L11.3694 18.0694C11.3593 18.1303 11.4063 18.1858 11.4681 18.1858H13.1115Z" fill="white" fill-opacity="0.3"/>
</g>
<path d="M15.75 16.5H8.25C8.25 14.2621 9.91667 13.1667 12 13.1667C14.0833 13.1667 15.75 14.2621 15.75 16.5ZM12 12.2143C10.4467 12.2143 9.1875 10.9351 9.1875 9.35714C9.1875 7.77919 10.4467 6.5 12 6.5C13.5533 6.5 14.8125 7.77919 14.8125 9.35714C14.8125 10.9351 13.5533 12.2143 12 12.2143Z" fill="url(#paint2_linear_5675_1591)"/>
<path d="M15.75 16.5H8.25C8.25 14.2621 9.91667 13.1667 12 13.1667C14.0833 13.1667 15.75 14.2621 15.75 16.5ZM12 12.2143C10.4467 12.2143 9.1875 10.9351 9.1875 9.35714C9.1875 7.77919 10.4467 6.5 12 6.5C13.5533 6.5 14.8125 7.77919 14.8125 9.35714C14.8125 10.9351 13.5533 12.2143 12 12.2143Z" fill="white" fill-opacity="0.3"/>
<defs>
<linearGradient id="paint0_linear_5675_1591" x1="0" y1="12" x2="24" y2="12" gradientUnits="userSpaceOnUse">
<stop stop-color="#077AFF"/>
<stop offset="1" stop-color="#482BFF"/>
</linearGradient>
<linearGradient id="paint1_linear_5675_1591" x1="19.0701" y1="12.8429" x2="5.85419" y2="12.8429" gradientUnits="userSpaceOnUse">
<stop stop-color="#482BFF"/>
<stop offset="1" stop-color="#007AFF"/>
</linearGradient>
<linearGradient id="paint2_linear_5675_1591" x1="15.75" y1="11.5" x2="8.25" y2="11.5" gradientUnits="userSpaceOnUse">
<stop stop-color="#482BFF"/>
<stop offset="1" stop-color="#007AFF"/>
</linearGradient>
</defs>
</svg>
