<svg width="24" height="24" viewBox="0 0 24 24" fill="none" xmlns="http://www.w3.org/2000/svg">
<g clip-path="url(#clip0_4060_1166)">
<path d="M24 12C24 5.37258 18.6274 0 12 0C5.37258 0 0 5.37258 0 12C0 18.6274 5.37258 24 12 24C18.6274 24 24 18.6274 24 12Z" fill="#24201F"/>
<path d="M5.25992 13.834C4.92306 13.4972 4.69716 13.1082 4.5822 12.6671C4.46991 12.2234 4.46991 11.7797 4.5822 11.3359C4.69716 10.8894 4.92172 10.4991 5.2559 10.165C5.59543 9.82547 5.98709 9.59958 6.43088 9.48731C6.87468 9.37503 7.31847 9.37503 7.76226 9.48731C8.20605 9.59958 8.59637 9.82414 8.93323 10.161L9.76734 10.995L11.0025 9.75998L10.1683 8.92592C9.83149 8.58909 9.60559 8.20013 9.49063 7.75904C9.37834 7.31528 9.37702 6.87286 9.48663 6.43177C9.59891 5.98801 9.82482 5.59638 10.1643 5.25688C10.5012 4.92005 10.8915 4.6955 11.3353 4.58322C11.7791 4.47094 12.2216 4.47227 12.6627 4.58722C13.1065 4.6995 13.4968 4.92406 13.8336 5.26089C14.1705 5.59772 14.3951 5.98801 14.5074 6.43177C14.6223 6.87286 14.6236 7.31528 14.5113 7.75904C14.4017 8.20548 14.1785 8.59711 13.8416 8.93394L13.0116 9.76399L14.2427 10.995L15.0727 10.165C15.4096 9.82814 15.7986 9.60225 16.2397 9.48731C16.6835 9.37503 17.126 9.37636 17.5671 9.49131C18.0109 9.60359 18.4025 9.82949 18.7421 10.169C19.0789 10.5058 19.3035 10.8961 19.4158 11.3399C19.5308 11.781 19.5308 12.2221 19.4158 12.6631C19.3035 13.1069 19.0789 13.4972 18.7421 13.834C18.4025 14.1735 18.0109 14.3994 17.5671 14.5117C17.126 14.6213 16.6835 14.62 16.2397 14.5077C15.8013 14.3954 15.4136 14.1708 15.0768 13.834L14.2467 13.004L13.0116 14.239L13.8416 15.069C14.1785 15.4059 14.4017 15.7949 14.5113 16.2359C14.6236 16.6797 14.6236 17.1235 14.5113 17.5673C14.3991 18.011 14.1732 18.4026 13.8336 18.7421C13.4995 19.0763 13.1091 19.3008 12.6627 19.4158C12.2189 19.5281 11.7751 19.5281 11.3313 19.4158C10.8929 19.3035 10.5052 19.0789 10.1683 18.7421C9.82882 18.4026 9.60158 18.0123 9.48663 17.5712C9.37435 17.1275 9.37435 16.6837 9.48663 16.2399C9.60426 15.7962 9.83016 15.4072 10.1643 15.0731L11.0025 14.235L9.77135 13.004L8.93323 13.842C8.59905 14.1762 8.20738 14.3994 7.75824 14.5117C7.31446 14.624 6.87067 14.624 6.42688 14.5117C5.98576 14.3967 5.59677 14.1708 5.25992 13.834ZM6.26246 12.8315C6.41484 12.9839 6.59129 13.0855 6.79179 13.1363C6.99498 13.1898 7.19682 13.1911 7.39733 13.1403C7.59784 13.0895 7.77429 12.9879 7.92668 12.8356L8.7648 11.9975L7.93068 11.1634C7.7783 11.011 7.60051 10.9108 7.39733 10.8627C7.19682 10.8119 6.99632 10.8119 6.79581 10.8627C6.5953 10.9135 6.41751 11.0164 6.26246 11.1714C6.11006 11.3238 6.00715 11.4989 5.95368 11.6967C5.90288 11.8973 5.90288 12.0977 5.95368 12.2982C6.00715 12.5014 6.11006 12.6792 6.26246 12.8315ZM11.1709 7.92345L12.005 8.7575L12.8351 7.92746C12.9902 7.77241 13.0918 7.59598 13.1399 7.39815C13.1907 7.19766 13.1893 6.99583 13.1359 6.79266C13.0851 6.59217 12.9835 6.41573 12.8311 6.26335C12.6787 6.11098 12.5023 6.0094 12.3017 5.95861C12.1013 5.90782 11.9007 5.90782 11.7002 5.95861C11.5024 6.00673 11.3259 6.10831 11.1709 6.26335C11.0185 6.41573 10.9143 6.59217 10.8581 6.79266C10.8073 6.99316 10.8073 7.19365 10.8581 7.39415C10.9143 7.59464 11.0185 7.77107 11.1709 7.92345ZM15.0143 12.0015L15.8445 12.8315C15.9969 12.9839 16.172 13.0868 16.3698 13.1403C16.5703 13.1911 17.0043 13.1898 17.2022 13.1363C17.4027 13.0855 17.5805 12.9826 17.7356 12.8275C17.8906 12.6725 17.9922 12.4961 18.0403 12.2982C18.0938 12.1004 18.0951 11.9013 18.0443 11.7007C17.9935 11.5003 17.8919 11.3238 17.7396 11.1714C17.5845 11.0164 17.4067 10.9135 17.2062 10.8627C17.0057 10.8119 16.5703 10.8119 16.3698 10.8627C16.1746 10.9135 15.9996 11.0164 15.8445 11.1714L15.0143 12.0015ZM11.1709 17.7396C11.3233 17.892 11.4998 17.9936 11.7002 18.0444C11.9007 18.0952 12.0999 18.0939 12.2978 18.0404C12.4983 17.9896 12.6747 17.888 12.8271 17.7356C12.9821 17.5806 13.0851 17.4028 13.1359 17.2023C13.1893 17.0045 13.1907 16.8054 13.1399 16.6048C13.0918 16.4017 12.9915 16.2239 12.8391 16.0716L12.009 15.2415L11.1709 16.0795C11.0185 16.232 10.9156 16.407 10.8621 16.6048C10.8113 16.8054 10.8113 17.0058 10.8621 17.2063C10.9129 17.4068 11.0158 17.5846 11.1709 17.7396ZM10.7739 12.0015L12.005 13.2326L13.2401 11.9975L12.009 10.7665L10.7739 12.0015Z" fill="#F1E1D4"/>
</g>
<defs>
<clipPath id="clip0_4060_1166">
<rect width="24" height="24" fill="white"/>
</clipPath>
</defs>
</svg>
