<svg width="24" height="24" viewBox="0 0 24 24" fill="none" xmlns="http://www.w3.org/2000/svg">
<path d="M24.0007 12C24.0007 5.37258 18.6281 0 12.0007 0C5.37325 0 0.000671387 5.37258 0.000671387 12C0.000671387 18.6274 5.37325 24 12.0007 24C18.6281 24 24.0007 18.6274 24.0007 12Z" fill="white"/>
<path fill-rule="evenodd" clip-rule="evenodd" d="M5.00348 4H9.00348V16H11.0007V12H13.0007V16H17.0007V20H13.0007H11.0007H5.00348V19V16V4ZM17.0007 8V12H15.0007H13.0007V6H11.0007V4H13.0007H15.0007V8H17.0007ZM17.0007 8V4H19.0007V8H17.0007Z" fill="#1A0C6D"/>
</svg>
