<svg width="24" height="24" viewBox="0 0 24 24" fill="none" xmlns="http://www.w3.org/2000/svg">
<g clip-path="url(#clip0_4645_2300)">
<path d="M11.9998 0H12.0002C18.6275 0 24 5.37248 24 11.9998V12.0002C24 18.6275 18.6275 24 12.0002 24H11.9998C5.37248 24 0 18.6275 0 12.0002V11.9998C0 5.37248 5.37248 0 11.9998 0Z" fill="#111111"/>
<path d="M11.9998 0H12.0002C18.6275 0 24 5.37248 24 11.9998V12.0002C24 18.6275 18.6275 24 12.0002 24H11.9998C5.37248 24 0 18.6275 0 12.0002V11.9998C0 5.37248 5.37248 0 11.9998 0Z" fill="url(#paint0_radial_4645_2300)" fill-opacity="0.7"/>
<path fill-rule="evenodd" clip-rule="evenodd" d="M0 11.9998C0 5.37248 5.37248 0 11.9998 0C18.6271 0 24 5.37248 24 11.9998C24 18.6271 18.6275 24 12.0002 24C5.37292 24 0 18.6271 0 11.9998ZM0.5 11.9998C0.5 5.64862 5.64863 0.5 11.9998 0.5C18.3509 0.5 23.5 5.64862 23.5 11.9998C23.5 18.3509 18.3514 23.5 12.0002 23.5C5.64906 23.5 0.5 18.3509 0.5 11.9998Z" fill="url(#paint1_linear_4645_2300)"/>
<path fill-rule="evenodd" clip-rule="evenodd" d="M9.39215 6.38953H9.13764L8.97258 6.5833L4.71233 11.5873L4.40822 11.9445L4.71233 12.3017L8.97258 17.3057L9.13764 17.4996H9.39215H17.0621H17.6131V16.9485V13.7674H16.5111V16.3975H10.5972L14.1367 12.305L14.4485 11.9445L14.1367 11.5841L10.5972 7.49157H16.5111V10.1217H17.6131V6.94055V6.38953H17.0621H9.39215ZM9.39539 7.78673L5.85556 11.9445L9.39539 16.1024L12.9914 11.9445L9.39539 7.78673Z" fill="white"/>
</g>
<defs>
<radialGradient id="paint0_radial_4645_2300" cx="0" cy="0" r="1" gradientUnits="userSpaceOnUse" gradientTransform="translate(12.0258 3.50431) rotate(90) scale(25.3013 17.8095)">
<stop offset="0.03125" stop-color="#3A3A3A"/>
<stop offset="1" stop-color="#1C1C1C"/>
</radialGradient>
<linearGradient id="paint1_linear_4645_2300" x1="12" y1="-0.45452" x2="12" y2="24.4546" gradientUnits="userSpaceOnUse">
<stop stop-color="white"/>
<stop offset="1" stop-color="#111111"/>
</linearGradient>
<clipPath id="clip0_4645_2300">
<rect width="24" height="24" fill="white"/>
</clipPath>
</defs>
</svg>
