<svg width="24" height="24" viewBox="0 0 24 24" fill="none" xmlns="http://www.w3.org/2000/svg">
<circle cx="12" cy="12" r="12" fill="#0B0B0B"/>
<path d="M6.52834 6V13.9563L10.0567 11.8664L6.52834 6Z" fill="#D3D3D3"/>
<path d="M6.52837 6L3 11.8664L6.52837 13.9563V10.2594V6Z" fill="white"/>
<path d="M6.52834 15.1067V18L10.0588 13.0178L6.52834 15.1067Z" fill="#D3D3D3"/>
<path d="M6.52837 18.0001V15.1067L3 13.0178L6.52837 18.0001Z" fill="white"/>
<path d="M6.52834 13.9561L10.0566 11.8663L6.52834 10.2593V13.9561Z" fill="#8D8D8D"/>
<path d="M3 11.8663L6.52831 13.9562V10.2593L3 11.8663Z" fill="#BCBCBC"/>
<path d="M21.0182 9.6907C20.8925 8.37947 19.7614 7.93961 18.3308 7.80555V6H17.2248V7.77204C16.9337 7.77204 16.6362 7.77204 16.3409 7.77204V6H15.2433V7.81812H13V9.00157C13 9.00157 13.8169 8.98691 13.8043 9.00157C13.9516 8.98537 14.0995 9.02697 14.2167 9.11762C14.3339 9.20827 14.4113 9.34089 14.4327 9.48752V14.4643C14.4296 14.516 14.4161 14.5666 14.3931 14.613C14.37 14.6594 14.3379 14.7007 14.2987 14.7345C14.2601 14.7689 14.215 14.7952 14.1661 14.8118C14.1171 14.8283 14.0653 14.8348 14.0138 14.8309C14.0285 14.8434 13.2095 14.8309 13.2095 14.8309L13 16.1526H15.2224V18H16.3283V16.1798H17.2123V17.9916H18.3203V16.1651C20.1887 16.052 21.4915 15.5912 21.6549 13.8422C21.7869 12.4346 21.125 11.8062 20.0672 11.5528C20.7102 11.2365 21.1082 10.65 21.0182 9.6907ZM19.4681 13.6244C19.4681 14.9984 17.1138 14.8413 16.3639 14.8413V12.4032C17.1138 12.4053 19.4681 12.1896 19.4681 13.6244ZM18.955 10.1892C18.955 11.446 16.9902 11.2931 16.366 11.2931V9.07698C16.9902 9.07698 18.955 8.88008 18.955 10.1892Z" fill="white"/>
</svg>
