<svg width="24" height="24" viewBox="0 0 24 24" fill="none" xmlns="http://www.w3.org/2000/svg">
<g clip-path="url(#clip0_5454_2006)">
<path d="M12 0C18.627 0 24 5.373 24 12C24 18.627 18.627 24 12 24C5.373 24 0 18.627 0 12C0 5.373 5.373 0 12 0Z" fill="#141414"/>
<path d="M2.32506 9.52783H2.73567V9.6647H2.32506V9.52783Z" fill="#919191"/>
<path d="M5.93499 10.4859H6.34559V10.6228H5.93499V10.4859Z" fill="#919191"/>
<path d="M6.34559 11.444H5.93499V11.5809H6.34559V11.444Z" fill="#919191"/>
<path d="M5.93499 12.4021H6.34559V12.539H5.93499V12.4021Z" fill="#919191"/>
<path d="M2.13687 14.4209L2.13687 13.5997H2L2 14.4209H2.13687Z" fill="#919191"/>
<path d="M3.04363 14.4209L3.04363 13.5997H2.90676L2.90676 14.4209H3.04363Z" fill="#919191"/>
<path d="M2.30796 14.3354H2.71856V14.4722H2.30796V14.3354Z" fill="#919191"/>
<path d="M5.43884 14.3354H5.02823V14.4722H5.43884V14.3354Z" fill="#919191"/>
<path d="M7.7485 14.3354H8.15911V14.4722H7.7485V14.3354Z" fill="#919191"/>
<path d="M10.5714 14.3354H10.1608V14.4722H10.5714V14.3354Z" fill="#919191"/>
<path d="M11.3413 14.3354H11.7519V14.4722H11.3413V14.3354Z" fill="#919191"/>
<path d="M13.497 14.3354H13.0864V14.4722H13.497V14.3354Z" fill="#919191"/>
<path d="M13.5654 14.3354H13.976V14.4722H13.5654V14.3354Z" fill="#919191"/>
<path d="M15.8238 14.3354H15.4132V14.4722H15.8238V14.3354Z" fill="#919191"/>
<path d="M16.3541 14.3354H16.7648V14.4722H16.3541V14.3354Z" fill="#919191"/>
<path d="M7.25235 14.3354H6.84175V14.4722H7.25235V14.3354Z" fill="#919191"/>
<path d="M3.5911 12.4021H3.1805V12.539H3.5911V12.4021Z" fill="#919191"/>
<path d="M3.1805 11.444H3.5911V11.5809H3.1805V11.444Z" fill="#919191"/>
<path d="M3.5911 10.4859H3.1805V10.6228H3.5911V10.4859Z" fill="#919191"/>
<path d="M4.07015 12.4021H3.65954V12.539H4.07015V12.4021Z" fill="#919191"/>
<path d="M3.65954 11.444H4.07015V11.5809H3.65954V11.444Z" fill="#919191"/>
<path d="M4.07015 10.4859H3.65954V10.6228H4.07015V10.4859Z" fill="#919191"/>
<path d="M2.80411 9.52783H3.21471V9.6647H2.80411V9.52783Z" fill="#919191"/>
<path d="M10.4346 9.52783H10.024V9.6647H10.4346V9.52783Z" fill="#919191"/>
<path d="M4.13858 10.4859H4.54919V10.6228H4.13858V10.4859Z" fill="#919191"/>
<path d="M3.69376 9.52783H3.28315V9.6647H3.69376V9.52783Z" fill="#919191"/>
<path d="M10.503 9.52783H10.9136V9.6647H10.503V9.52783Z" fill="#919191"/>
<path d="M5.02823 10.4859H4.61762V10.6228H4.70317V11.444H4.84003V10.6228H5.02823V10.4859Z" fill="#919191"/>
<path d="M3.76219 9.52783H4.1728V9.6647H3.76219V9.52783Z" fill="#919191"/>
<path d="M11.3926 9.52783H10.982V9.6647H11.3926V9.52783Z" fill="#919191"/>
<path d="M4.24123 9.52783H4.65184V9.6647H4.24123V9.52783Z" fill="#919191"/>
<path d="M11.8717 9.52783H11.4611V9.6647H11.8717V9.52783Z" fill="#919191"/>
<path d="M4.72027 9.52783H5.13088V9.6647H4.72027V9.52783Z" fill="#919191"/>
<path d="M12.3507 9.52783H11.9401V9.6647H12.3507V9.52783Z" fill="#919191"/>
<path d="M12.6929 9.52783H13.1035V9.6647H12.6929V9.52783Z" fill="#919191"/>
<path d="M14.917 9.52783H14.5064V9.6647H14.917V9.52783Z" fill="#919191"/>
<path d="M15.4132 9.52783H15.8238V9.6647H15.6869V10.4517H15.55V9.6647H15.4132V9.52783Z" fill="#919191"/>
<path d="M16.3028 9.52783H15.8922V9.6647H16.3028V9.52783Z" fill="#919191"/>
<path d="M16.3713 9.52783H16.7819V9.6647H16.3713V9.52783Z" fill="#919191"/>
<path d="M16.7305 10.4859H16.3199V10.6228H16.4568V11.444H16.5937V10.6228H16.7305V10.4859Z" fill="#919191"/>
<path d="M16.799 10.4859H17.2096V10.6228H16.799V10.4859Z" fill="#919191"/>
<path d="M17.2096 11.444H16.799V11.5809H17.2096V11.444Z" fill="#919191"/>
<path d="M16.799 12.3679H17.2096V12.5047H16.799V12.3679Z" fill="#919191"/>
<path d="M17.6886 10.4859H17.278V10.6228H17.6886V10.4859Z" fill="#919191"/>
<path d="M17.278 11.444H17.6886V11.5809H17.278V11.444Z" fill="#919191"/>
<path d="M17.6886 12.3679H17.278V12.5047H17.6886V12.3679Z" fill="#919191"/>
<path d="M17.7571 10.4859H18.1677V10.6228H17.7571V10.4859Z" fill="#919191"/>
<path d="M17.2609 9.52783H16.8503V9.6647H17.2609V9.52783Z" fill="#919191"/>
<path d="M17.3293 9.52783H17.7399V9.6647H17.3293V9.52783Z" fill="#919191"/>
<path d="M18.219 9.52783H17.8084V9.6647H18.219V9.52783Z" fill="#919191"/>
<path d="M18.5612 9.52783H18.9718V9.6647H18.5612V9.52783Z" fill="#919191"/>
<path d="M18.9718 10.4859H18.5612V10.6228H18.9718V10.4859Z" fill="#919191"/>
<path d="M19.0402 9.52783H19.4508V9.6647H19.0402V9.52783Z" fill="#919191"/>
<path d="M19.4508 10.4859H19.0402V10.6228H19.4508V10.4859Z" fill="#919191"/>
<path d="M19.5192 9.52783H19.9299V9.6647H19.5192V9.52783Z" fill="#919191"/>
<path d="M20.4089 9.52783H19.9983V9.6647H20.4089V9.52783Z" fill="#919191"/>
<path d="M20.4773 9.52783H20.8879V9.6647H20.4773V9.52783Z" fill="#919191"/>
<path d="M21.367 9.52783H20.9564V9.6647H21.367V9.52783Z" fill="#919191"/>
<path d="M20.8366 10.4859H21.2472V10.6228H20.8366V10.4859Z" fill="#919191"/>
<path d="M20.4089 14.3354H19.9983V14.4722H20.4089V14.3354Z" fill="#919191"/>
<path d="M21.4354 9.52783H21.846V9.6647H21.4354V9.52783Z" fill="#919191"/>
<path d="M21.7263 10.4859H21.3157V10.6228H21.7263V10.4859Z" fill="#919191"/>
<path d="M5.49016 9.52783H5.90077V9.6647H5.49016V9.52783Z" fill="#919191"/>
<path d="M8.60393 9.52783H8.19333V9.6647H8.60393V9.52783Z" fill="#919191"/>
<path d="M7.71429 9.52783H8.12489V9.6647H7.71429V9.52783Z" fill="#919191"/>
<path d="M7.64585 9.52783H7.23524V9.6647H7.64585V9.52783Z" fill="#919191"/>
<path d="M5.9692 9.52783H6.37981V9.6647H5.9692V9.52783Z" fill="#919191"/>
<path d="M9.08298 9.52783H8.67237V9.6647H9.08298V9.52783Z" fill="#919191"/>
<path d="M8.67237 12.4021H9.08298V12.539H8.67237V12.4021Z" fill="#919191"/>
<path d="M9.08298 11.444H8.67237V11.5809H9.08298V11.444Z" fill="#919191"/>
<path d="M8.67237 10.4859H9.08298V10.6228H8.67237V10.4859Z" fill="#919191"/>
<path d="M9.56202 11.444H9.15141V11.5809H9.56202V11.444Z" fill="#919191"/>
<path d="M9.15141 10.4859H9.56202V10.6228H9.15141V10.4859Z" fill="#919191"/>
<path d="M10.4346 10.4859H10.024V10.6228H10.4346V10.4859Z" fill="#919191"/>
<path d="M11.7861 10.4859H12.1967V10.6228H12.0599V11.444H11.923V10.6228H11.7861V10.4859Z" fill="#919191"/>
<path d="M6.85885 9.52783H6.44825V9.6647H6.85885V9.52783Z" fill="#919191"/>
<path d="M9.15141 9.52783H9.56202V9.6647H9.15141V9.52783Z" fill="#919191"/>
<path d="M4.84003 14.4209V13.5997H4.70317V14.4209H4.84003Z" fill="#919191"/>
<path d="M5.7639 13.5997V14.4209H5.62703V13.5997H5.7639Z" fill="#919191"/>
<path d="M6.67066 14.4209V13.5997H6.53379V14.4209H6.67066Z" fill="#919191"/>
<path d="M7.56031 13.5997V14.4209H7.42344V13.5997H7.56031Z" fill="#919191"/>
<path d="M8.48417 14.4209V13.5997H8.34731V14.4209H8.48417Z" fill="#919191"/>
<path d="M14.3011 13.5997V14.4209H14.1642V13.5997H14.3011Z" fill="#919191"/>
<path d="M16.166 14.4209V13.5997H16.0291V14.4209H16.166Z" fill="#919191"/>
<path d="M17.0727 13.5997V14.4209H16.9358V13.5997H17.0727Z" fill="#919191"/>
<path d="M4.84003 13.4286V12.6074H4.70317V13.4286H4.84003Z" fill="#919191"/>
<path d="M5.7639 12.6074V13.4286H5.62703V12.6074H5.7639Z" fill="#919191"/>
<path d="M6.67066 13.4286V12.6074H6.53379V13.4286H6.67066Z" fill="#919191"/>
<path d="M7.56031 12.6074V13.4286H7.42344V12.6074H7.56031Z" fill="#919191"/>
<path d="M8.48417 13.4286V12.6074H8.34731V13.4286H8.48417Z" fill="#919191"/>
<path d="M11.1531 12.6074V13.4286H11.0163V12.6074H11.1531Z" fill="#919191"/>
<path d="M11.1531 14.4209V13.5997H11.0163V14.4209H11.1531Z" fill="#919191"/>
<path d="M12.0599 12.6074V13.4286H11.923V12.6074H12.0599Z" fill="#919191"/>
<path d="M12.0599 14.4209V13.5997H11.923V14.4209H12.0599Z" fill="#919191"/>
<path d="M12.9666 12.6074V13.4286H12.8298V12.6074H12.9666Z" fill="#919191"/>
<path d="M12.9666 14.4209V13.5997H12.8298V14.4209H12.9666Z" fill="#919191"/>
<path d="M15.6869 12.6074V13.4286H15.55V12.6074H15.6869Z" fill="#919191"/>
<path d="M19.8101 13.4286V12.6074H19.6732V13.4286H19.8101Z" fill="#919191"/>
<path d="M19.8101 13.5997V14.4209H19.6732V13.5997H19.8101Z" fill="#919191"/>
<path d="M20.7169 14.4209V13.5997H20.58V14.4209H20.7169Z" fill="#919191"/>
<path d="M20.7169 12.6074V13.4286H20.58V12.6074H20.7169Z" fill="#919191"/>
<path d="M16.5937 13.4286V12.6074H16.4568V13.4286H16.5937Z" fill="#919191"/>
<path d="M4.84003 11.6151V12.4363H4.70317V11.6151H4.84003Z" fill="#919191"/>
<path d="M7.56031 12.4363V11.6151H7.42344V12.4363H7.56031Z" fill="#919191"/>
<path d="M8.48417 11.6151V12.4363H8.34731V11.6151H8.48417Z" fill="#919191"/>
<path d="M11.1531 12.4363V11.6151H11.0163V12.4363H11.1531Z" fill="#919191"/>
<path d="M12.0599 11.6151V12.4363H11.923V11.6151H12.0599Z" fill="#919191"/>
<path d="M12.9666 12.4363V11.6151H12.8298V12.4363H12.9666Z" fill="#919191"/>
<path d="M15.6869 11.6151V12.4363H15.55V11.6151H15.6869Z" fill="#919191"/>
<path d="M19.8101 12.4363V11.6151H19.6732V12.4363H19.8101Z" fill="#919191"/>
<path d="M20.7169 11.6151V12.4363H20.58V11.6151H20.7169Z" fill="#919191"/>
<path d="M17.9453 12.4363V11.6151H17.8084V12.4363H17.9453Z" fill="#919191"/>
<path d="M5.7639 11.444V10.6228H5.62703V11.444H5.7639Z" fill="#919191"/>
<path d="M5.48001 9.76097L5.14599 10.5112L5.02095 10.4555L5.35497 9.7053L5.48001 9.76097Z" fill="#919191"/>
<path d="M7.16457 10.4997L6.83055 9.74946L6.95559 9.69379L7.28961 10.444L7.16457 10.4997Z" fill="#919191"/>
<path d="M9.4995 13.6617L9.83352 14.412L9.95856 14.3563L9.62454 13.6061L9.4995 13.6617Z" fill="#919191"/>
<path d="M10.7403 14.412L10.4063 13.6617L10.5313 13.6061L10.8653 14.3563L10.7403 14.412Z" fill="#919191"/>
<path d="M9.05468 12.7037L9.38869 13.4539L9.51373 13.3982L9.17971 12.648L9.05468 12.7037Z" fill="#919191"/>
<path d="M10.2955 13.4539L9.96143 12.7037L10.0865 12.648L10.4205 13.3982L10.2955 13.4539Z" fill="#919191"/>
<path d="M14.0333 12.7037L14.3673 13.4539L14.4923 13.3982L14.1583 12.648L14.0333 12.7037Z" fill="#919191"/>
<path d="M13.529 10.7165L13.195 9.96627L13.32 9.9106L13.654 10.6608L13.529 10.7165Z" fill="#919191"/>
<path d="M14.7347 13.6275L15.0688 14.3777L15.1938 14.3221L14.8598 13.5719L14.7347 13.6275Z" fill="#919191"/>
<path d="M14.3673 11.6404L14.0333 10.8901L14.1583 10.8345L14.4923 11.5847L14.3673 11.6404Z" fill="#919191"/>
<path d="M10.4205 11.7114L10.0865 12.4616L9.96144 12.4059L10.2955 11.6557L10.4205 11.7114Z" fill="#919191"/>
<path d="M9.83352 10.4997L9.4995 9.74946L9.62454 9.69379L9.95856 10.444L9.83352 10.4997Z" fill="#919191"/>
<path d="M6.67066 10.6228V11.444H6.53379V10.6228H6.67066Z" fill="#919191"/>
<path d="M12.5218 10.5544V9.73314H12.3849V10.5544H12.5218Z" fill="#919191"/>
<path d="M7.56031 10.6228V11.444H7.42344V10.6228H7.56031Z" fill="#919191"/>
<path d="M8.48417 11.444V10.6228H8.34731V11.444H8.48417Z" fill="#919191"/>
<path d="M9.71336 10.5747C9.9678 10.8323 9.9678 11.2345 9.71336 11.4921L9.61598 11.3959C9.81777 11.1916 9.81777 10.8752 9.61598 10.6709L9.71336 10.5747Z" fill="#919191"/>
<path d="M11.1531 11.444V10.6228H11.0163V11.444H11.1531Z" fill="#919191"/>
<path d="M10.7425 10.6228V11.444H10.6056V10.6228H10.7425Z" fill="#919191"/>
<path d="M12.9666 10.6228V11.444H12.8298V10.6228H12.9666Z" fill="#919191"/>
<path d="M14.7802 11.444V10.6228H14.6433V11.444H14.7802Z" fill="#919191"/>
<path d="M15.6869 10.6228V11.444H15.55V10.6228H15.6869Z" fill="#919191"/>
<path d="M15.2421 9.63048V10.4517H15.1052V9.63048H15.2421Z" fill="#919191"/>
<path d="M14.3524 10.4517V9.63048H14.2156V10.4517H14.3524Z" fill="#919191"/>
<path d="M19.8101 10.6228V11.444H19.6732V10.6228H19.8101Z" fill="#919191"/>
<path d="M20.7169 11.444V10.6228H20.58V11.444H20.7169Z" fill="#919191"/>
<path d="M18.3901 10.5544V9.73314H18.2532V10.5544H18.3901Z" fill="#919191"/>
<path d="M22 9.73314V10.5544H21.8631V9.73314H22Z" fill="#919191"/>
<path d="M2.13687 13.4286L2.13687 12.6074H2L2 13.4286H2.13687Z" fill="#919191"/>
<path d="M3.04363 12.6074L3.04363 13.4286H2.90676L2.90676 12.6074H3.04363Z" fill="#919191"/>
<path d="M2.13687 12.4363L2.13687 11.6151H2L2 12.4363H2.13687Z" fill="#919191"/>
<path d="M4.3781 11.6151V12.4363H4.24123V11.6151H4.3781Z" fill="#919191"/>
<path d="M2.13687 11.444L2.13687 10.6228H2L2 11.444H2.13687Z" fill="#919191"/>
<path d="M3.04363 10.6228L3.04363 11.444H2.90676L2.90676 10.6228H3.04363Z" fill="#919191"/>
<path d="M2.13687 10.4517L2.13687 9.63048H2L2 10.4517H2.13687Z" fill="#919191"/>
</g>
<defs>
<clipPath id="clip0_5454_2006">
<rect width="24" height="24" fill="white"/>
</clipPath>
</defs>
</svg>
