<svg width="24" height="24" viewBox="0 0 24 24" fill="none" xmlns="http://www.w3.org/2000/svg">
<g clip-path="url(#clip0_2046_6946)">
<path d="M12 24C18.6274 24 24 18.6274 24 12C24 5.37259 18.6274 0 12 0C5.37259 0 0 5.37259 0 12C0 18.6274 5.37259 24 12 24Z" fill="black"/>
<path d="M3.08984 16.5356L2.93422 16.2388H5.55292L5.61675 16.3303C6.44997 17.5476 7.61387 18.5013 8.97123 19.0789C10.3286 19.6565 11.8228 19.834 13.2777 19.5903C17.2057 18.9217 19.9827 15.3427 19.6698 11.3806L14.992 11.3723L16.3566 15.2344L14.6864 17.5316L11.6872 9.02783L21.5557 9.04449L21.5938 9.19161C21.7082 9.56718 21.7976 9.94994 21.8613 10.3374C21.9559 10.8891 22.0023 11.4479 21.9999 12.0077C21.9999 16.7909 18.548 21.0386 13.6702 21.8626C13.1097 21.9519 12.5432 21.9983 11.9756 22.0013C10.1334 22.0032 8.32704 21.4931 6.75798 20.528C5.18893 19.5628 3.91897 18.1806 3.08984 16.5356V16.5356ZM4.76855 14.9374H2.43001L2.38827 14.7903C2.28215 14.4196 2.19978 14.0425 2.14164 13.6613C1.21993 8.22875 4.89392 3.05992 10.3289 2.14428C12.4257 1.78181 14.5834 2.10018 16.4862 3.05277C18.389 4.00536 19.9368 5.54213 20.903 7.43802L21.0588 7.73495H18.4244L18.3569 7.64335C17.5254 6.42781 16.3633 5.47569 15.0079 4.89949C13.6525 4.32329 12.1606 4.14709 10.7083 4.39171C6.78001 5.06029 3.99445 8.63941 4.30736 12.5931L9.00232 12.6014L7.63408 8.73926L9.31542 6.44207L12.3071 14.9459L4.76855 14.9374Z" fill="url(#paint0_linear_2046_6946)"/>
</g>
<defs>
<linearGradient id="paint0_linear_2046_6946" x1="18.5" y1="4.09894" x2="6.19806" y2="18.9193" gradientUnits="userSpaceOnUse">
<stop stop-color="#03D1CF" stop-opacity="0.988"/>
<stop offset="1" stop-color="#4E09F8"/>
</linearGradient>
<clipPath id="clip0_2046_6946">
<rect width="24" height="24" fill="white"/>
</clipPath>
</defs>
</svg>
