<svg width="24" height="24" viewBox="0 0 24 24" fill="none" xmlns="http://www.w3.org/2000/svg">
<circle cx="12.0002" cy="12" r="12" fill="#1969FF"/>
<path fill-rule="evenodd" clip-rule="evenodd" d="M11.3074 4.15327L7.34087 6.23854C7.10183 6.36421 6.97909 6.54293 6.96147 6.73434H6.9597V6.76103C6.9591 6.7756 6.9591 6.79024 6.9597 6.80491V17.1627C6.95902 17.1771 6.95907 17.1947 6.9597 17.2159C6.96572 17.4216 7.08738 17.6282 7.34087 17.7614L11.3074 19.8468C11.6961 20.0511 12.2876 20.0511 12.6763 19.8468L16.6428 17.7614C16.8973 17.6276 17.0272 17.4225 17.0321 17.2159L17.0323 17.2035V6.73434H17.0285C17.0055 6.54501 16.8769 6.36162 16.6428 6.23854L12.6763 4.15327C12.2876 3.94891 11.6961 3.94891 11.3074 4.15327ZM7.58403 17.1954L11.3074 19.1424C11.5316 19.2617 11.765 19.3778 11.9918 19.3785C12.2007 19.3792 12.4039 19.2801 12.6092 19.1799L12.6489 19.1606L16.408 17.1786V12.582L12.6763 14.5438C12.2876 14.7482 11.6961 14.7482 11.3074 14.5438L7.58403 12.5864V17.1954ZM7.58403 11.2148L11.134 9.34852L7.58403 7.48225V11.2148ZM16.408 7.47788V11.2192L12.8497 9.34852L16.408 7.47788ZM12.3847 4.70277L16.3512 6.78804L16.3602 6.79293L16.3665 6.79648L16.3631 6.79842C16.3593 6.80056 16.3554 6.80272 16.3512 6.80491L12.3847 8.8902C12.1784 8.99865 11.8052 8.99865 11.599 8.8902L7.63245 6.80491L7.62341 6.80003L7.61718 6.79648L7.62054 6.79454C7.62432 6.7924 7.62829 6.79023 7.63245 6.78804L11.599 4.70277C11.8052 4.59433 12.1784 4.59433 12.3847 4.70277ZM12.3847 9.80685L16.3512 11.8922L16.3602 11.897L16.3665 11.9006L16.3631 11.9025L16.3549 11.9071L16.3512 11.909L12.3847 13.9943C12.36 14.0073 12.3329 14.0187 12.304 14.0286V9.77257C12.3329 9.78246 12.36 9.79388 12.3847 9.80685ZM11.6797 9.77257C11.6508 9.78246 11.6236 9.79388 11.599 9.80685L7.63245 11.8922C7.62829 11.8943 7.62432 11.8965 7.62054 11.8986L7.61718 11.9006L7.62341 11.9041L7.63245 11.909L11.599 13.9943C11.6236 14.0073 11.6508 14.0187 11.6797 14.0286V9.77257ZM16.9941 4.93144L16.6709 5.46317L16.8963 5.5985L16.9696 5.64323C17.0318 5.68156 17.0829 5.71418 17.1293 5.74531L17.1414 5.75346C17.3528 5.89678 17.4686 6.01457 17.5458 6.1687C17.6389 6.35465 17.6858 6.6186 17.6858 7.0202H18.3101L18.31 6.99226C18.3056 6.07522 18.0809 5.63438 17.4783 5.23004C17.422 5.19222 17.3615 5.15373 17.2886 5.10893L17.2462 5.08303L16.9941 4.93144ZM7.32938 18.5451L7.00624 19.0769L6.75408 18.9252L6.71169 18.8994C6.63878 18.8546 6.57835 18.8161 6.52198 18.7782C5.91944 18.3739 5.69472 17.9331 5.69028 17.016L5.69022 16.9881H6.31455C6.31455 17.3897 6.36144 17.6536 6.45454 17.8396C6.53171 17.9937 6.6475 18.1115 6.85892 18.2548L6.87099 18.263C6.91738 18.2941 6.9685 18.3267 7.03071 18.3651L7.10408 18.4098L7.32938 18.5451Z" fill="white"/>
</svg>
