<svg width="24" height="24" viewBox="0 0 24 24" fill="none" xmlns="http://www.w3.org/2000/svg">
<path d="M12 24C18.6274 24 24 18.6274 24 12C24 5.37257 18.6274 0 12 0C5.37257 0 0 5.37257 0 12C0 18.6274 5.37257 24 12 24Z" fill="#111111"/>
<path d="M17.7245 4.53772C17.0185 4.53772 16.4461 5.11066 16.4461 5.81753C16.4461 5.93732 16.4624 6.05315 16.4932 6.16317C17.2162 5.86429 18.041 5.68929 18.9952 5.67423C18.9241 5.03498 18.3823 4.53772 17.7245 4.53772ZM19 5.90813C18.0736 5.92266 17.2754 6.09212 16.5767 6.38163C16.7005 6.63411 16.904 6.83875 17.1559 6.96385C17.4077 7.08895 17.6938 7.12753 17.9697 7.07362C18.2457 7.01971 18.4962 6.87632 18.6825 6.66565C18.8687 6.45498 18.9803 6.18864 19 5.90813ZM16.1827 6.30198V5.83866C14.7698 5.83866 13.6244 6.98508 13.6244 8.39934V8.48585C13.8322 8.21147 14.0553 7.94906 14.2927 7.69987C14.8366 7.13168 15.456 6.65185 16.1827 6.30198ZM13.6244 8.87917C13.8841 8.51676 14.161 8.17521 14.4612 7.8618C14.9611 7.3397 15.5255 6.89527 16.1827 6.5627V14.5881C16.1827 16.0024 15.0372 17.1489 13.6244 17.1489V8.87917ZM12.9042 9.54483C12.4492 8.83598 11.6545 8.36646 10.7503 8.36646V13.6635C10.9854 13.2134 11.2142 12.751 11.4444 12.2857L11.4448 12.2847L11.5321 12.1083C11.9637 11.2366 12.4038 10.3591 12.9042 9.54483ZM10.7503 14.1614C11.0605 13.5889 11.3543 12.9949 11.6476 12.4016L11.7414 12.2122C12.1548 11.3771 12.5714 10.5472 13.0364 9.77676C13.2159 10.1336 13.3091 10.5277 13.3085 10.9271V19.4622C11.8957 19.4622 10.7502 18.3157 10.7502 16.9016L10.7503 14.1614ZM10.4344 14.2515V10.6214C9.02157 10.6214 7.87608 11.7678 7.87608 13.1822V17.4184C8.25949 17.1441 8.60685 16.8214 8.92753 16.4618C9.49836 15.8216 9.98347 15.0649 10.4344 14.2515ZM7.87608 17.703C8.32857 17.3984 8.73298 17.0313 9.10174 16.6176C9.60032 16.0585 10.0342 15.4137 10.4344 14.725V16.0753C10.4344 17.4896 9.28902 18.6361 7.87608 18.6361V17.703ZM7.42953 17.706C7.513 17.453 7.5583 17.1826 7.5583 16.9016V14.9719C6.14536 14.9719 5 16.1185 5 17.5329V18.4029C5.94777 18.35 6.7434 18.1007 7.42953 17.706ZM5 18.6372C5.87645 18.5899 6.62942 18.3807 7.28821 18.0479C6.86808 18.8865 6.00113 19.4622 5 19.4622V18.6372Z" fill="#ABF600"/>
</svg>
