<svg width="24" height="24" viewBox="0 0 24 24" fill="none" xmlns="http://www.w3.org/2000/svg">
<path d="M12 24C18.6274 24 24 18.6274 24 12C24 5.37257 18.6274 0 12 0C5.37257 0 0 5.37257 0 12C0 18.6274 5.37257 24 12 24Z" fill="#072723"/>
<path d="M20 11.9231C20 17.1911 16.7657 18.8818 15.0505 17.3871C13.6539 16.162 13.2374 13.5648 11.1302 13.2953C8.45942 12.9767 8.21439 16.5296 6.45023 16.5296C4.39204 16.5296 4 13.5648 4 12.0211C4 10.453 4.44104 8.32128 6.1807 8.32128C8.21439 8.32128 8.33691 11.3841 10.8851 11.2126C13.4089 11.041 13.4579 7.85573 15.124 6.50811C16.5697 5.3075 20 6.58161 20 11.9231Z" fill="#97FCE4"/>
</svg>
