<svg width="24" height="24" viewBox="0 0 24 24" fill="none" xmlns="http://www.w3.org/2000/svg">
<g clip-path="url(#clip0_5679_4902)">
<path d="M12.0005 0C5.37312 0 0.000244141 5.37249 0.000244141 11.9998C0.000244141 18.6271 5.37273 24 12.0001 24C18.6274 24 24.0002 18.6276 24.0002 12.0003C24.0002 5.37295 18.6278 0 12.0005 0Z" fill="white"/>
<path d="M13.0005 9.43146C13.0173 8.40739 13.7495 7.54383 14.75 7.35009V5.34619C13.7272 5.45137 12.7769 5.92743 12.0782 6.69135L12 6.77991L11.9218 6.69135C11.2231 5.92189 10.2784 5.45137 9.24998 5.34619V7.35009C10.2505 7.54383 10.9827 8.40739 10.9995 9.42596V14.5685C10.9827 15.5926 10.2505 16.4562 9.24998 16.6499V18.6539C10.2728 18.5487 11.2231 18.0726 11.9218 17.3087L12 17.2201L12.0782 17.3087C12.7769 18.0781 13.7216 18.5487 14.75 18.6539V16.6499C13.7495 16.4562 13.0173 15.5926 13.0005 14.5741V9.43146Z" fill="black"/>
</g>
<defs>
<clipPath id="clip0_5679_4902">
<rect width="24" height="24" fill="white"/>
</clipPath>
</defs>
</svg>
