<svg width="24" height="24" viewBox="0 0 24 24" fill="none" xmlns="http://www.w3.org/2000/svg">
<path d="M20.6252 20.3997C20.7831 20.2195 20.941 20.0392 21.0901 19.8519C24.823 15.7285 25.4426 8.03641 20.1018 3.06157C19.7003 2.74237 19.2863 2.45707 18.86 2.20555C21.1587 4.17007 21.7385 5.60017 22.1734 7.56211C22.9173 11.0218 20.7767 15.6861 19.5531 17.3343C17.2123 20.4971 14.0329 17.6641 15.9978 15.0471C17.429 13.1561 20.3903 8.24629 19.3176 4.96201C18.6079 2.79619 16.5217 1.19262 15.1948 0.443704C13.3189 -0.0354268 11.6336 -0.139581 9.81598 0.195244C12.4875 0.96725 13.1957 1.52081 14.0303 2.17309C14.0639 2.19936 14.0977 2.22579 14.1319 2.25241C18.6772 5.79341 15.9713 9.71594 13.9087 12.7059C13.7446 12.9438 13.5846 13.1758 13.4326 13.4012C11.8007 15.453 11.6176 18.5399 13.6619 20.4561C15.126 21.8383 16.9931 22.2012 18.6703 21.6123C19.1932 21.431 19.6892 21.1554 20.167 20.7927C20.292 20.7034 20.4016 20.6019 20.5045 20.5067C20.5128 20.4989 20.5211 20.4913 20.5293 20.4837L20.5435 20.4658C20.5506 20.4569 20.56 20.4497 20.5693 20.4425C20.5786 20.4354 20.5879 20.4283 20.595 20.4194C20.5985 20.4149 20.6043 20.4123 20.6101 20.4096C20.6159 20.4069 20.6216 20.4042 20.6252 20.3997Z" fill="white"/>
<path d="M3.37481 3.6003C3.21689 3.78053 3.05897 3.96077 2.90992 4.14809C-0.823 8.27153 -1.44263 15.9636 3.89822 20.9385C4.29975 21.2577 4.71371 21.543 5.13996 21.7945C2.84128 19.83 2.26154 18.3998 1.82659 16.4379C1.08268 12.9782 3.22332 8.31395 4.44688 6.66569C6.78768 3.50291 9.96714 6.33593 8.00219 8.95295C6.57102 10.8439 3.60967 15.7537 4.68239 19.038C5.39215 21.2038 7.47831 22.8074 8.80519 23.5563C10.6811 24.0354 12.3664 24.1396 14.184 23.8048C11.5125 23.0328 10.8043 22.4792 9.96973 21.8269C9.93611 21.8007 9.90229 21.7742 9.86813 21.7476C5.32285 18.2066 8.02872 14.2841 10.0913 11.2941C10.2554 11.0562 10.4154 10.8242 10.5674 10.5988C12.1993 8.54705 12.3824 5.46011 10.3381 3.54389C8.87396 2.16172 7.00693 1.79884 5.32969 2.38768C4.80677 2.569 4.31085 2.84458 3.833 3.20735C3.70805 3.2966 3.59845 3.39807 3.49557 3.49334C3.48724 3.50105 3.47895 3.50872 3.47071 3.51635L3.45648 3.53417C3.44938 3.54314 3.44002 3.55032 3.43066 3.55749C3.42137 3.56461 3.41209 3.57173 3.405 3.58061C3.40146 3.58508 3.39569 3.58776 3.38991 3.59045C3.38414 3.59313 3.37835 3.59583 3.37481 3.6003Z" fill="white"/>
</svg>
