<svg width="24" height="24" viewBox="0 0 24 24" fill="none" xmlns="http://www.w3.org/2000/svg">
<g clip-path="url(#clip0_5606_1610)">
<path d="M6.83304 3.56635C8.79228 -1.25539 15.5567 -1.16387 17.3929 3.70934C17.9449 5.17645 19.089 6.34614 20.5163 6.90953C25.227 8.75129 25.1412 15.6092 20.379 17.3223C18.9289 17.8428 17.759 18.9867 17.1698 20.4367C15.202 25.2785 8.39757 25.1555 6.59278 20.2508C6.03504 18.8066 4.89954 17.6483 3.48374 17.0964C-1.22702 15.2546 -1.14122 8.39666 3.62103 6.6836C5.07115 6.16311 6.24098 5.01916 6.83018 3.56921L6.83304 3.56635Z" fill="url(#paint0_linear_5606_1610)"/>
<path d="M6.97034 3.67789C8.8781 -1.01515 15.4623 -0.926495 17.2471 3.81516C17.7819 5.2451 18.8974 6.38332 20.2875 6.92956C24.8724 8.7227 24.7866 15.3948 20.1559 17.0649C18.743 17.5711 17.6075 18.6836 17.0325 20.0964C15.1162 24.8094 8.49483 24.6893 6.73866 19.9162C6.19808 18.5092 5.09118 17.3852 3.71256 16.8447C-0.87235 15.0516 -0.786543 8.37951 3.84413 6.70935C5.25708 6.20315 6.39258 5.09066 6.96748 3.67789H6.97034Z" fill="url(#paint1_linear_5606_1610)"/>
<path d="M4.05578 6.95527C5.46873 6.44907 6.60423 5.33659 7.17913 3.92381C8.79801 -0.0571214 13.7719 -0.597636 16.3375 2.21647C13.8434 -0.869324 8.63211 -0.411745 6.97033 3.67786C6.39543 5.09064 5.25993 6.20313 3.84699 6.70932C0.0343312 8.08492 -0.700742 12.8466 1.71613 15.4891C-0.443323 12.8094 0.357535 8.28797 4.05578 6.95527Z" fill="#FFE8AE"/>
<path d="M6.95316 19.6816C6.45548 18.286 5.36288 17.1649 3.97568 16.5958C0.0629191 14.9971 -0.469079 10.0839 2.29388 7.55005C-0.737939 10.0153 -0.286026 15.1602 3.72971 16.8017C5.11691 17.3737 6.21237 18.4948 6.70718 19.8904C8.0572 23.6568 12.7365 24.3804 15.3336 21.9924C12.6993 24.1258 8.25741 23.3365 6.94744 19.6845L6.95316 19.6816Z" fill="#FFEDC0"/>
<path d="M19.9471 16.8188C18.5341 17.325 17.3986 18.4375 16.8237 19.8503C15.2077 23.8312 10.231 24.3717 7.66534 21.5576C10.1594 24.6434 15.3707 24.183 17.0325 20.0962C17.6074 18.6835 18.7429 17.571 20.1559 17.0648C23.9685 15.692 24.7007 10.9275 22.2839 8.28784C24.4433 10.9704 23.6453 15.489 19.9471 16.8217V16.8188Z" fill="#826711"/>
<path opacity="0.3" d="M20.0815 16.9962C18.6428 17.5109 17.4844 18.6435 16.8981 20.0791C15.2506 24.1258 10.1795 24.6778 7.56525 21.8179C10.108 24.9552 15.4194 24.489 17.1126 20.3308C17.699 18.8951 18.8573 17.7626 20.296 17.2478C24.1802 15.8494 24.9267 11.0076 22.4641 8.31934C24.6664 11.0476 23.8513 15.6435 20.0815 16.999V16.9962Z" fill="#FEE7A2"/>
<path fill-rule="evenodd" clip-rule="evenodd" d="M7.66251 14.8371H9.53022V8.93433H7.66251V14.8371ZM10.9975 14.8371H12.8624V13.144H14.7959C16.2917 13.144 17.2785 12.4205 17.2785 11.0392C17.2785 9.65787 16.2917 8.93433 14.7959 8.93433H10.9975V14.8371ZM15.4394 11.0392C15.4394 11.3738 15.182 11.5969 14.6986 11.5969V11.5997H12.8652V10.4815H14.6986C15.1848 10.4815 15.4394 10.7046 15.4394 11.0392Z" fill="black"/>
</g>
<defs>
<linearGradient id="paint0_linear_5606_1610" x1="2.29103" y1="6.39476" x2="21.7107" y2="17.6074" gradientUnits="userSpaceOnUse">
<stop stop-color="#FEE089"/>
<stop offset="0.6" stop-color="#6A5300"/>
</linearGradient>
<linearGradient id="paint1_linear_5606_1610" x1="6.0894" y1="5.97722" x2="20.1514" y2="20.038" gradientUnits="userSpaceOnUse">
<stop stop-color="#F7DC8F"/>
<stop offset="1" stop-color="#CCA831"/>
</linearGradient>
<clipPath id="clip0_5606_1610">
<rect width="24" height="24" fill="white"/>
</clipPath>
</defs>
</svg>
