<svg width="24" height="24" viewBox="0 0 24 24" fill="none" xmlns="http://www.w3.org/2000/svg">
<path d="M12 24C18.6274 24 24 18.6274 24 12C24 5.37258 18.6274 0 12 0C5.37258 0 0 5.37258 0 12C0 18.6274 5.37258 24 12 24Z" fill="white"/>
<path fill-rule="evenodd" clip-rule="evenodd" d="M24 12C24 18.6274 18.6274 24 12 24C5.37258 24 0 18.6274 0 12C0 5.37258 5.37258 0 12 0C18.6274 0 24 5.37258 24 12ZM22 12C22 17.5228 17.5228 22 12 22C6.47715 22 2 17.5228 2 12C2 6.47715 6.47715 2 12 2C17.5228 2 22 6.47715 22 12Z" fill="black"/>
<path d="M12 21C16.9706 21 21 16.9706 21 12C21 7.02944 16.9706 3 12 3C7.02944 3 3 7.02944 3 12C3 16.9706 7.02944 21 12 21Z" fill="black"/>
<path fill-rule="evenodd" clip-rule="evenodd" d="M10.1449 9.91444C9.65506 9.6939 9.21765 9.28155 8.71142 8.5632C8.4775 8.23119 8.28608 7.93997 8.28608 7.91599C8.28608 7.89202 8.49478 7.73064 8.7498 7.55744L9.21352 7.24255L9.53915 7.72971C10.1817 8.69094 10.5947 8.98084 11.322 8.98131C11.8458 8.98162 12.0008 8.90424 13.3062 7.99119C14.2935 7.30063 14.3302 7.28272 14.761 7.28272C15.1936 7.28272 15.5844 7.45873 15.6607 7.68798C15.6968 7.79611 12.7755 9.8056 12.334 9.98403C11.5273 10.31 10.6553 10.1442 10.1449 9.91444ZM8.6061 15.3059C9.32446 14.7997 9.73681 14.3623 9.95734 13.8725C10.1871 13.362 10.3529 12.49 10.0269 11.6833C9.84851 11.2418 7.83902 8.32055 7.73089 8.35659C7.50164 8.43296 7.32563 8.82374 7.32563 9.25633C7.32563 9.68712 7.34354 9.72387 8.0341 10.7112C8.94715 12.0165 9.02452 12.1716 9.02421 12.6953C9.02375 13.4227 8.73385 13.8357 7.77262 14.4782L7.28546 14.8038L7.60034 15.2675C7.77355 15.5226 7.93493 15.7313 7.9589 15.7313C7.98288 15.7313 8.27409 15.5398 8.6061 15.3059ZM15.2772 15.4368C14.771 14.7184 14.3335 14.3061 13.8437 14.0855C13.3333 13.8557 12.4613 13.6899 11.6546 14.0159C11.2131 14.1944 8.29182 16.2039 8.32786 16.312C8.40423 16.5412 8.79501 16.7173 9.2276 16.7173C9.65839 16.7173 9.69514 16.6993 10.6824 16.0088C11.9878 15.0957 12.1428 15.0184 12.6666 15.0187C13.394 15.0191 13.8069 15.309 14.4495 16.2703L14.7751 16.7574L15.2388 16.4425C15.4938 16.2693 15.7025 16.108 15.7025 16.084C15.7025 16.06 15.5111 15.7688 15.2772 15.4368ZM15.3939 8.69408C14.6755 9.20031 14.2632 9.63773 14.0426 10.1275C13.8128 10.638 13.647 11.51 13.973 12.3167C14.1515 12.7582 16.161 15.6794 16.2691 15.6434C16.4983 15.567 16.6743 15.1763 16.6743 14.7437C16.6743 14.3129 16.6564 14.2761 15.9659 13.2888C15.0528 11.9835 14.9754 11.8284 14.9758 11.3047C14.9762 10.5773 15.2661 10.1643 16.2274 9.52181L16.7145 9.19619L16.3996 8.73246C16.2264 8.47744 16.065 8.26874 16.0411 8.26874C16.0171 8.26874 15.7259 8.46016 15.3939 8.69408Z" fill="#FEFEFE"/>
</svg>
