<svg width="24" height="24" viewBox="0 0 24 24" fill="none" xmlns="http://www.w3.org/2000/svg">
<path d="M2.29761 18.7083C3.3026 20.1062 4.59173 21.2758 6.08046 22.1406C7.56922 23.0053 9.2239 23.5455 10.9361 23.726C10.0552 22.4004 8.77475 21.1809 7.17623 20.2524C5.5777 19.3239 3.88485 18.8167 2.29761 18.7083Z" fill="url(#paint0_linear_3991_8552)"/>
<path d="M9.32415 16.5553C6.24446 14.7661 2.91115 14.3101 0.526062 15.1156C0.756313 15.8766 1.05997 16.6135 1.43277 17.3157C3.505 17.2677 5.76752 17.8305 7.87279 19.0533C9.9781 20.2761 11.5883 21.9637 12.5737 23.788C13.3688 23.7636 14.1597 23.6623 14.9354 23.4856C14.4531 21.0151 12.4031 18.3449 9.32415 16.5553Z" fill="url(#paint1_linear_3991_8552)"/>
<path d="M24 9.29285C23.6085 7.70017 22.9 6.20274 21.9169 4.88995C20.9338 3.57716 19.6962 2.47594 18.2781 1.65204C16.8599 0.828142 15.2903 0.298468 13.663 0.0946385C12.0356 -0.10919 10.3838 0.0170082 8.80627 0.465698C11.4417 0.788223 14.367 1.77757 17.2358 3.44423C20.1048 5.11089 22.4152 7.16175 24 9.29285Z" fill="url(#paint2_linear_3991_8552)"/>
<path d="M20.1656 15.1339C18.8166 12.8936 16.5058 10.7483 13.659 9.09463C10.8123 7.44084 7.80477 6.49624 5.19271 6.43375C2.89471 6.37932 1.17 7.04735 0.46205 8.26614C0.458018 8.27335 0.452374 8.28019 0.447939 8.28747C0.38424 8.51606 0.329411 8.74502 0.279419 8.97487C1.26797 8.5846 2.41334 8.36731 3.68692 8.34308C6.5191 8.28993 9.68871 9.1958 12.6137 10.8951C15.5385 12.5944 17.8974 14.9001 19.2536 17.3859C19.8616 18.5059 20.241 19.6085 20.3914 20.662C20.5664 20.5056 20.7381 20.3439 20.9046 20.1758C20.9091 20.1682 20.9119 20.1601 20.9163 20.152C21.6243 18.9321 21.3505 17.1033 20.1656 15.1339Z" fill="url(#paint3_linear_3991_8552)"/>
<path d="M11.4932 12.8221C7.13389 10.2895 2.31655 9.89275 0 11.6602C0.00455017 12.2134 0.046845 12.7657 0.126591 13.3132C0.808041 13.1066 1.51037 12.9765 2.22059 12.9253C4.80928 12.7306 7.66323 13.4519 10.2531 14.9572C12.843 16.4626 14.8846 18.5857 15.9981 20.9292C16.3059 21.5712 16.5407 22.2458 16.698 22.9402C17.2132 22.7382 17.7142 22.5015 18.1974 22.2318C18.5852 19.3436 15.8538 15.3551 11.4932 12.8221Z" fill="url(#paint4_linear_3991_8552)"/>
<path d="M22.4078 11.3841C21.0436 9.14619 18.7125 6.99493 15.8456 5.33029C12.9788 3.66565 9.95951 2.70613 7.33902 2.62913C5.34137 2.57148 3.79405 3.05567 2.99176 3.97044C6.32305 3.40601 10.7171 4.35465 14.976 6.82883C19.235 9.30304 22.2369 12.6508 23.3956 15.8241C23.7927 14.6747 23.4472 13.0907 22.4078 11.3841Z" fill="url(#paint5_linear_3991_8552)"/>
<defs>
<linearGradient id="paint0_linear_3991_8552" x1="15.9826" y1="4.83197" x2="4.95586" y2="23.788" gradientUnits="userSpaceOnUse">
<stop offset="0.0001" stop-color="#C7F284"/>
<stop offset="1" stop-color="#00BEF0"/>
</linearGradient>
<linearGradient id="paint1_linear_3991_8552" x1="15.9826" y1="4.83194" x2="4.95584" y2="23.788" gradientUnits="userSpaceOnUse">
<stop offset="0.0001" stop-color="#C7F284"/>
<stop offset="1" stop-color="#00BEF0"/>
</linearGradient>
<linearGradient id="paint2_linear_3991_8552" x1="15.9826" y1="4.83194" x2="4.95587" y2="23.788" gradientUnits="userSpaceOnUse">
<stop offset="0.0001" stop-color="#C7F284"/>
<stop offset="1" stop-color="#00BEF0"/>
</linearGradient>
<linearGradient id="paint3_linear_3991_8552" x1="15.9826" y1="4.83197" x2="4.95584" y2="23.788" gradientUnits="userSpaceOnUse">
<stop offset="0.0001" stop-color="#C7F284"/>
<stop offset="1" stop-color="#00BEF0"/>
</linearGradient>
<linearGradient id="paint4_linear_3991_8552" x1="15.9826" y1="4.83193" x2="4.95583" y2="23.788" gradientUnits="userSpaceOnUse">
<stop offset="0.0001" stop-color="#C7F284"/>
<stop offset="1" stop-color="#00BEF0"/>
</linearGradient>
<linearGradient id="paint5_linear_3991_8552" x1="15.9826" y1="4.83194" x2="4.95583" y2="23.788" gradientUnits="userSpaceOnUse">
<stop offset="0.0001" stop-color="#C7F284"/>
<stop offset="1" stop-color="#00BEF0"/>
</linearGradient>
</defs>
</svg>
