<svg width="24" height="24" viewBox="0 0 24 24" fill="none" xmlns="http://www.w3.org/2000/svg">
<g clip-path="url(#clip0_5626_1631)">
<path d="M12.0005 0C5.37312 0 0.000244141 5.37249 0.000244141 11.9998C0.000244141 18.6271 5.37273 24 12.0001 24C18.6274 24 24.0002 18.6276 24.0002 12.0003C24.0002 5.37295 18.6278 0 12.0005 0Z" fill="url(#paint0_linear_5626_1631)"/>
<path fill-rule="evenodd" clip-rule="evenodd" d="M6.00005 7.10504C6.00005 6.49474 6.48551 6 7.08434 6H9.43363C10.0325 6 10.5179 6.49474 10.5179 7.10504V8.61751C10.5179 9.22781 11.0034 9.72255 11.6022 9.72255H13.1463C13.4303 9.72255 13.703 9.60899 13.9057 9.40626L14.6752 8.63673C14.883 8.42892 15.0001 8.14468 15.0001 7.84798V7.10504C15.0001 6.49474 15.4856 6 16.0844 6H16.9157C17.5146 6 18 6.49474 18 7.10504V7.89486C18 8.50515 17.5146 8.99989 16.9157 8.99989H16.1864C15.9024 8.99989 15.6297 9.11348 15.427 9.31618L14.5661 10.1771C14.3583 10.3848 14.2413 10.6691 14.2413 10.9658V13.0505C14.2413 13.3472 14.3583 13.6315 14.5661 13.8393L15.4102 14.6833C15.6129 14.8861 15.8856 14.9996 16.1696 14.9996H16.9157C17.5146 14.9996 18 15.4944 18 16.1047V16.8945C18 17.5048 17.5146 17.9995 16.9157 17.9995H16.0844C15.4856 17.9995 15.0001 17.5048 15.0001 16.8945V16.1683C15.0001 15.8716 14.883 15.5874 14.6752 15.3796L13.8524 14.5568C13.6497 14.354 13.377 14.2405 13.093 14.2405H11.6021C11.0033 14.2405 10.5179 14.7352 10.5179 15.3455V16.895C10.5179 17.5053 10.0324 18 9.43357 18H7.08429C6.48545 18 6 17.5053 6 16.895V14.5871C6 13.9768 6.48545 13.4821 7.08429 13.4821H8.63911C9.23796 13.4821 9.72341 12.9873 9.72341 12.377V11.623C9.72341 11.0127 9.23796 10.5179 8.63911 10.5179H7.08434C6.4855 10.5179 6.00005 10.0232 6.00005 9.41289V7.10504Z" fill="#32FFDC"/>
</g>
<defs>
<linearGradient id="paint0_linear_5626_1631" x1="4.88585e-07" y1="-4.65399e-07" x2="24" y2="24" gradientUnits="userSpaceOnUse">
<stop stop-color="#17383B"/>
<stop offset="0.495" stop-color="#050505"/>
<stop offset="1" stop-color="#17383B"/>
</linearGradient>
<clipPath id="clip0_5626_1631">
<rect width="24" height="24" fill="white"/>
</clipPath>
</defs>
</svg>
