<svg width="24" height="24" viewBox="0 0 24 24" fill="none" xmlns="http://www.w3.org/2000/svg">
<path d="M22.8902 7.25453C22.288 5.80741 21.3454 4.46432 20.2545 3.37662C19.1636 2.28576 17.7701 1.46919 16.323 0.867012C14.9263 0.290055 13.3752 0 11.7704 0C10.1656 0 8.51674 0.05675 7.12321 0.63686C5.67609 1.23589 4.46543 2.37404 3.37457 3.4649C2.28371 4.5526 1.01945 5.70967 0.420419 7.15679C-0.159691 8.55347 0.0294754 10.2528 0.0294754 11.8576C0.0294754 13.4623 0.146128 15.0387 0.726238 16.4354C1.32526 17.8794 2.54539 18.904 3.63625 19.9917C4.72711 21.0826 5.71392 22.3878 7.16105 22.9869C8.55772 23.567 10.1656 23.9611 11.7704 23.9611C13.3752 23.9611 14.9515 23.485 16.3451 22.9049C17.7922 22.3059 19.1006 21.3695 20.1883 20.2786C21.2792 19.1878 22.1588 17.8573 22.7578 16.4102C23.3379 15.0135 24 13.4623 24 11.8576C24 10.2528 23.4672 8.64805 22.8902 7.25453ZM15.1313 18.6991L12.587 18.3208L13.3153 13.4024L7.99022 17.501L6.42645 15.4549L11.0957 11.8576L6.42645 8.26341L7.99022 6.21727L13.3153 10.3159L12.587 5.39755L15.1313 5.01921L16.1401 11.8576L15.1313 18.6991Z" fill="#6FC7BA"/>
</svg>
