<svg width="24" height="24" viewBox="0 0 24 24" fill="none" xmlns="http://www.w3.org/2000/svg">
<g clip-path="url(#clip0_4405_1191)">
<path d="M12 24C18.6274 24 24 18.6274 24 12C24 5.37258 18.6274 0 12 0C5.37258 0 0 5.37258 0 12C0 18.6274 5.37258 24 12 24Z" fill="black"/>
<path d="M19.1375 17.795C18.9375 20.17 16.1375 22.17 11.9375 22.07C7.9875 21.97 5.2125 20.32 5.0375 17.945C5.0125 17.645 5.0375 17.345 5.0625 17.02C5.1875 16.095 5.5125 15.22 5.9875 14.42L6.2875 14.545C7.0625 14.245 7.8625 14.02 8.6875 13.87C9.7625 13.72 10.8875 13.52 11.9625 13.62L12.0625 13.595C13.1375 13.52 14.1125 13.745 15.1875 13.895C16.0125 14.045 16.8125 14.27 17.5875 14.57L17.8875 14.445L18.0875 14.345C18.5625 15.145 18.8875 16.02 19.0625 16.945C19.1125 17.22 19.1375 17.52 19.1125 17.795" fill="#F4A427"/>
<path d="M19.1375 17.795C18.9625 20.145 16.1875 22.07 11.9625 22.045C8.01249 21.945 5.23749 20.295 5.06249 17.92C5.03749 17.62 5.06249 17.32 5.08749 16.995C5.51249 16.895 5.93749 16.895 6.36249 16.97C7.16249 17.095 7.61249 17.595 8.18749 17.845C8.51249 17.995 8.83749 17.745 9.13749 17.47C9.93749 16.695 11.0125 16.245 12.1125 16.22C13.2375 16.195 14.1625 16.645 15.1375 17.545C15.3375 17.745 15.6125 17.87 15.8875 17.845C16.1375 17.77 16.3875 17.645 16.5875 17.47C17.3375 16.97 18.2375 16.77 19.1125 16.895C19.1625 17.22 19.1875 17.495 19.1375 17.795Z" fill="white"/>
<path d="M7.53749 11.945C7.26249 12.22 6.91249 12.42 6.53749 12.495L6.38749 12.52C6.23749 12.57 6.08749 12.595 5.91249 12.595C5.88749 12.595 5.83749 12.595 5.81249 12.595C5.73749 12.57 5.63749 12.545 5.56249 12.52C5.28749 12.395 5.03749 12.245 4.81249 12.045C4.36249 11.67 3.93749 11.245 3.61249 10.745C2.23749 8.74496 2.66249 6.04496 4.56249 4.54496C4.66249 4.46996 4.83749 4.46996 4.93749 4.59496C4.98749 4.66996 5.01249 4.74496 4.98749 4.81996C4.78749 5.61996 4.66249 6.86996 5.38749 7.94496C6.03749 8.86996 7.38749 9.74496 8.21249 9.71996C8.41249 10.72 8.11249 11.395 7.53749 11.945Z" fill="#F79422"/>
<path d="M11.1375 8.495L10.8125 11.695H10.7875C10.2875 11.77 9.61251 11.87 8.68751 12.02C7.83751 12.145 6.68751 12.745 6.01251 13.145L5.91251 12.645C6.06251 12.62 6.23751 12.595 6.38751 12.57L6.53751 12.545C6.91251 12.47 7.26251 12.27 7.53751 11.995C8.11251 11.42 8.41251 10.77 8.21251 9.745L8.31251 9.77C8.61251 9.445 8.96251 9.195 9.36251 8.995C9.91251 8.67 10.5125 8.52 11.1375 8.495Z" fill="#5A595C"/>
<path d="M18.4375 14.245L18.2375 14.345L18.0375 14.445L17.7375 14.57C16.9625 14.27 16.1625 14.045 15.3375 13.895C14.2625 13.695 13.1875 13.595 12.0875 13.595C10.9875 13.595 9.9125 13.67 8.8375 13.895C8.0125 14.045 7.2125 14.27 6.4375 14.57C6.3375 14.52 6.2375 14.47 6.1375 14.445L5.6875 14.245C5.7125 13.895 5.6875 13.695 5.6875 13.345C5.7625 13.295 5.8875 13.22 6.0125 13.145L6.0375 13.12C6.6625 12.72 7.8125 12.145 8.6625 11.995C9.5875 11.845 10.2375 11.745 10.7625 11.67C11.0875 11.645 11.4375 11.645 11.7875 11.645C12.3125 11.645 12.7875 11.645 13.2625 11.67C13.7625 11.745 14.4375 11.845 15.3875 11.995C16.2625 12.12 17.4125 12.72 18.0875 13.12H18.1125C18.2375 13.195 18.3375 13.245 18.4125 13.32C18.4125 13.695 18.4125 13.895 18.4375 14.245Z" fill="#929497"/>
<path d="M13.2875 11.695C12.8375 11.67 12.3375 11.645 11.8125 11.67C11.4625 11.67 11.1125 11.695 10.7875 11.695H10.8125L11.1375 8.495L11.2125 7.845C11.4625 7.695 11.7625 7.62 12.0375 7.62H12.0875C12.3875 7.62 12.6625 7.695 12.9125 7.845L12.9875 8.495V8.52L13.2875 11.695Z" fill="#929497"/>
<circle cx="18.2125" cy="14.3199" r="0.125" fill="#221F1F"/>
<path d="M20.3625 10.745C20.0125 11.22 19.6125 11.67 19.1375 12.045C18.9125 12.245 18.6625 12.395 18.3875 12.52L18.2625 12.57L18.1875 12.595C18.0125 12.645 17.9125 12.595 17.5875 12.545L17.4375 12.495C17.0625 12.42 16.7125 12.22 16.4375 11.945C15.8625 11.37 15.5625 10.72 15.7625 9.69504C16.5625 9.72004 17.9375 8.84504 18.5875 7.92004C19.3375 6.87004 19.1875 5.62004 19.0125 4.82004C18.9875 4.67004 19.0625 4.54504 19.2125 4.49504C19.2875 4.47004 19.3875 4.49504 19.4375 4.54504C21.3375 6.04504 21.7375 8.74504 20.3625 10.745Z" fill="#F79422"/>
<path d="M18.2125 12.595L18.1125 13.145C17.4375 12.745 16.2875 12.145 15.4125 12.02C14.4625 11.87 13.8125 11.77 13.2875 11.695L12.9625 8.495C13.5375 8.52 14.1125 8.695 14.6375 8.97C15.0375 9.17 15.3875 9.445 15.6875 9.745L15.7875 9.72C15.5875 10.72 15.8875 11.395 16.4625 11.97C16.7375 12.245 17.0875 12.445 17.4625 12.52C17.4875 12.52 17.5875 12.57 17.6125 12.57C17.7875 12.645 18.0125 12.645 18.2125 12.595Z" fill="#5A595C"/>
<path d="M12.9625 8.495H12.8625" stroke="#221F1F" stroke-width="0.25" stroke-linejoin="round"/>
<path d="M18.1375 13.145C18.1125 13.17 18.1125 13.17 18.0875 13.195L18.1375 13.145Z" fill="#F79422"/>
<path d="M18.1375 13.145C18.1125 13.17 18.1125 13.17 18.0875 13.195" stroke="#221F1F" stroke-width="0.25" stroke-miterlimit="10"/>
<path d="M5.96249 13.145C5.98749 13.17 5.98749 13.17 6.01249 13.195L5.96249 13.145Z" fill="#F79422"/>
<path d="M5.96249 13.145C5.98749 13.17 5.98749 13.17 6.01249 13.195" stroke="#221F1F" stroke-width="0.25" stroke-miterlimit="10"/>
<path d="M11.1375 18.77C11.3125 18.82 11.5125 18.795 11.6875 18.695C11.9625 18.595 12.1375 18.32 12.1125 18.02C12.0875 18.32 12.2625 18.595 12.5375 18.695C12.7125 18.77 12.8875 18.795 13.0625 18.77" stroke="#171717" stroke-width="0.25" stroke-linecap="round" stroke-linejoin="round"/>
<path d="M13.0625 17.17C13.0625 17.47 12.6125 17.87 12.0625 17.87C11.5125 17.87 11.0625 17.47 11.0625 17.17C11.0625 16.87 11.5125 16.77 12.0625 16.77C12.6125 16.77 13.0625 16.895 13.0625 17.17Z" fill="#171717"/>
<path d="M12.4875 17.07C12.4875 17.145 12.2875 17.245 12.0625 17.245C11.8375 17.245 11.6375 17.145 11.6375 17.095C11.6375 17.045 11.8375 17.045 12.0625 17.045C12.2875 17.045 12.4875 16.995 12.4875 17.07Z" fill="white"/>
<path d="M10.5125 18.02C10.4875 18.37 10.7125 18.67 11.0625 18.745H11.1375" stroke="#171717" stroke-width="0.25" stroke-linecap="round" stroke-linejoin="round"/>
<path d="M12.0875 17.67C12.0875 17.795 12.0875 17.895 12.0875 18.02" stroke="#171717" stroke-width="0.25" stroke-linecap="round" stroke-linejoin="round"/>
<path d="M13.0625 18.77H13.1375C13.4875 18.695 13.7375 18.395 13.6875 18.045" stroke="#171717" stroke-width="0.25" stroke-linecap="round" stroke-linejoin="round"/>
<path d="M19.4375 4.54504C21.3375 6.04504 21.7375 8.74504 20.3625 10.72" stroke="#221F1F" stroke-width="0.25" stroke-linejoin="round"/>
<path fill-rule="evenodd" clip-rule="evenodd" d="M19.252 4.61362C19.2633 4.60988 19.283 4.60834 19.3063 4.61371C19.3301 4.6192 19.3446 4.62887 19.3491 4.63342C19.3526 4.63688 19.3562 4.64012 19.36 4.64315C21.2074 6.1016 21.5973 8.72652 20.2607 10.6725C19.9154 11.1409 19.5233 11.5812 19.06 11.9469L19.0599 11.9468L19.0545 11.9516C18.8417 12.1408 18.6039 12.2842 18.3384 12.4051L18.2195 12.4526L18.1507 12.4755C18.116 12.4853 18.0856 12.49 18.0535 12.4907C18.029 12.4903 18.0047 12.4878 17.9777 12.4838C17.9442 12.4789 17.9079 12.4718 17.8612 12.4626L17.8611 12.4626L17.8393 12.4583C17.7829 12.4472 17.7156 12.4344 17.6323 12.4216L17.5925 12.4149L17.477 12.3765C17.4721 12.3748 17.4671 12.3735 17.462 12.3725C17.1193 12.3039 16.7957 12.122 16.5382 11.8688C16.2667 11.5946 16.0654 11.302 15.953 10.9648C15.8448 10.6402 15.8164 10.2665 15.8964 9.81675C16.3124 9.7859 16.8208 9.57054 17.298 9.2695C17.8334 8.93169 18.3529 8.47115 18.6895 7.9923C19.471 6.8978 19.3113 5.60276 19.1354 4.79672C19.128 4.74928 19.1369 4.71248 19.1535 4.68522C19.1706 4.65733 19.2012 4.63055 19.252 4.61362ZM18.4339 12.6361L18.3241 12.68L18.2552 13.0588C18.3436 13.1102 18.432 13.1628 18.5009 13.2316C18.5223 13.253 18.5352 13.2815 18.5372 13.3117C18.55 13.5033 18.55 13.6254 18.55 13.7418V13.7419C18.55 13.8568 18.55 13.9657 18.5622 14.1361C18.5658 14.1866 18.5386 14.2342 18.4934 14.2568L18.2934 14.3568L18.2902 14.3584C18.7484 15.1504 19.0633 16.0127 19.2353 16.9219L19.2358 16.9245L19.2358 16.9245C19.2867 17.2301 19.3133 17.5415 19.287 17.831C19.1824 19.0712 18.3422 20.1705 17.0427 20.9552C15.7419 21.7408 13.9687 22.2201 11.9625 22.2201H11.9593L11.9593 22.2201C9.96934 22.1697 8.2655 21.7288 7.03281 20.993C5.79926 20.2567 5.02939 19.2187 4.93788 17.9799C4.91304 17.681 4.93603 17.3832 4.9598 17.0753L4.96287 17.0355L4.96342 17.0283L4.96363 17.0284C5.0911 16.085 5.42236 15.1942 5.90502 14.3813L5.90636 14.3791L5.63674 14.2592C5.58863 14.2379 5.55907 14.1886 5.56282 14.1361C5.5783 13.9195 5.57427 13.8079 5.56909 13.6646V13.6646C5.566 13.579 5.56251 13.4822 5.56251 13.345C5.56251 13.3032 5.58339 13.2642 5.61817 13.241C5.6804 13.1995 5.77443 13.1423 5.87266 13.0832L5.79991 12.7194C5.79076 12.7185 5.78172 12.7166 5.77297 12.7137C5.73856 12.7022 5.69762 12.6905 5.65316 12.6778L5.65155 12.6773L5.65145 12.6773C5.60889 12.6651 5.56303 12.652 5.52297 12.6387L5.51049 12.6345L5.51078 12.6339C5.22791 12.5053 4.96706 12.3494 4.73096 12.1398C4.27647 11.7609 3.84234 11.3276 3.50858 10.8146C2.09698 8.75985 2.53436 5.98698 4.48505 4.44697L4.48748 4.44505L4.4875 4.44508C4.63478 4.33462 4.88786 4.33294 5.03511 4.51699L5.0419 4.52548L5.04151 4.52574C5.09932 4.61247 5.14778 4.72752 5.10775 4.85448C4.9115 5.64206 4.79715 6.8453 5.49047 7.8742C5.80422 8.32032 6.29075 8.75919 6.80136 9.08329C7.31632 9.41015 7.83394 9.60649 8.20871 9.59514C8.23664 9.59429 8.26298 9.60274 8.28448 9.61788C8.5805 9.31394 8.92052 9.07669 9.30269 8.88515C9.84047 8.56825 10.4228 8.41345 11.0254 8.37559L11.0883 7.83067C11.0928 7.7921 11.1149 7.75778 11.1482 7.73781C11.419 7.57531 11.7415 7.49499 12.0375 7.49499H12.0875C12.4095 7.49499 12.7068 7.5758 12.9768 7.73781C13.0101 7.75778 13.0322 7.7921 13.0367 7.83067L13.0999 8.37837C13.6511 8.4233 14.1961 8.59782 14.6945 8.85872C15.0764 9.04983 15.4124 9.30588 15.703 9.58511C15.7219 9.57486 15.7436 9.56938 15.7664 9.5701C16.1283 9.58141 16.6458 9.38538 17.1645 9.05807C17.679 8.73348 18.1718 8.29418 18.4852 7.84817L18.4858 7.84738C19.2028 6.8435 19.0641 5.64086 18.8904 4.84675L18.889 4.84061L18.8892 4.84059C18.8723 4.73936 18.8885 4.63956 18.9402 4.55485C18.9919 4.47024 19.0738 4.40952 19.173 4.37645C19.2368 4.35519 19.3045 4.35674 19.3625 4.37011C19.4174 4.38279 19.4752 4.4088 19.5199 4.4508C21.4677 5.99269 21.8763 8.76376 20.4655 10.8159L20.4632 10.8192L20.4631 10.8192C20.1094 11.2993 19.7028 11.7575 19.2178 12.1409C18.982 12.3499 18.7216 12.5055 18.4392 12.6338L18.434 12.6362L18.4339 12.6361ZM8.36491 10.7584C8.41307 10.4926 8.41504 10.2024 8.36763 9.88218C8.38124 9.8755 8.39372 9.86629 8.40435 9.85478C8.69271 9.54239 9.02995 9.30102 9.4184 9.1068L9.41854 9.10707L9.42609 9.10261C9.91348 8.81461 10.443 8.66836 10.9983 8.628L10.7013 11.5525C10.1829 11.6269 9.54257 11.7257 8.6425 11.8716L8.6425 11.8716L8.64078 11.8719C8.27052 11.9373 7.84771 12.08 7.43538 12.2535C7.50206 12.2004 7.56572 12.1436 7.62589 12.0834C7.92234 11.7869 8.15427 11.4648 8.28411 11.0786C8.31863 10.9759 8.3457 10.8694 8.36491 10.7584ZM8.10359 9.84359C7.67318 9.82057 7.15296 9.60257 6.66739 9.29437C6.13463 8.9562 5.6215 8.49549 5.28523 8.01695L5.28385 8.01498L5.28387 8.01497C4.52912 6.89587 4.66317 5.60201 4.86623 4.78976L4.86857 4.78043L4.86892 4.78055C4.87573 4.76011 4.87495 4.7283 4.83677 4.66939C4.78374 4.60758 4.69043 4.60632 4.63852 4.64432C2.79085 6.10421 2.37856 8.72961 3.71551 10.6743L3.71734 10.6769L3.71731 10.677C4.03306 11.1627 4.44797 11.5786 4.89252 11.9491L4.89559 11.9516L4.89555 11.9517C5.10742 12.14 5.34406 12.2829 5.60814 12.4035C5.64125 12.4143 5.67999 12.4254 5.72184 12.4374L5.72339 12.4378C5.75916 12.4481 5.79727 12.4589 5.83231 12.4701H5.83237H5.83256H5.83276H5.83296H5.83316H5.83336H5.83356H5.83375H5.83395H5.83415H5.83435H5.83455H5.83475H5.83496H5.83516H5.83536H5.83556H5.83576H5.83597H5.83617H5.83637H5.83657H5.83678H5.83698H5.83719H5.83739H5.83759H5.8378H5.838H5.83821H5.83841H5.83862H5.83883H5.83903H5.83924H5.83945H5.83965H5.83986H5.84007H5.84028H5.84048H5.84069H5.8409H5.84111H5.84132H5.84153H5.84174H5.84195H5.84216H5.84237H5.84258H5.84279H5.843H5.84321H5.84342H5.84363H5.84384H5.84405H5.84426H5.84448H5.84469H5.8449H5.84511H5.84533H5.84554H5.84575H5.84596H5.84618H5.84639H5.84661H5.84682H5.84703H5.84725H5.84746H5.84768H5.84789H5.84811H5.84832H5.84854H5.84875H5.84897H5.84918H5.8494H5.84961H5.84983H5.85005H5.85026H5.85048H5.85069H5.85091H5.85113H5.85134H5.85156H5.85178H5.85199H5.85221H5.85243H5.85265H5.85286H5.85308H5.8533H5.85352H5.85374H5.85395H5.85417H5.85439H5.85461H5.85483H5.85504H5.85526H5.85548H5.8557H5.85592H5.85614H5.85636H5.85658H5.85679H5.85701H5.85723H5.85745H5.85767H5.85789H5.85811H5.85833H5.85855H5.85877H5.85899H5.85921H5.85943H5.85965H5.85986H5.86008H5.8603H5.86052H5.86074H5.86096H5.86118H5.8614H5.86162H5.86184H5.86206H5.86228H5.8625H5.86272H5.86294H5.86316H5.86338H5.8636H5.86382H5.86404H5.86426H5.86448H5.8647H5.86492H5.86514H5.86536H5.86558H5.8658H5.86601H5.86623H5.86645H5.86667H5.86689H5.86711H5.86733H5.86755H5.86777H5.86799H5.86821H5.86843H5.86864H5.86886H5.86908H5.8693H5.86952H5.86974H5.86996H5.87018H5.87039H5.87061H5.87083H5.87105H5.87127H5.87148H5.8717H5.87192H5.87214H5.87235H5.87257H5.87279H5.87301H5.87322H5.87344H5.87366H5.87387H5.87409H5.87431H5.87452H5.87474H5.87496H5.87517H5.87539H5.8756H5.87582H5.87604H5.87625H5.87647H5.87668H5.8769H5.87711H5.87733H5.87754H5.87775H5.87797H5.87818H5.8784H5.87861H5.87882H5.87904H5.87925H5.87946H5.87968H5.87989H5.8801H5.88031H5.88053H5.88074H5.88095H5.88116H5.88137H5.88158H5.88179H5.882H5.88222H5.88243H5.88264H5.88285H5.88306H5.88327H5.88347H5.88368H5.88389H5.8841H5.88431H5.88452H5.88473H5.88493H5.88514H5.88535H5.88556H5.88576H5.88597H5.88617H5.88638H5.88659H5.88679H5.887H5.8872H5.88741H5.88761H5.88782H5.88802H5.88822H5.88843H5.88863H5.88883H5.88904H5.88924H5.88944H5.88964H5.88984H5.89005H5.89025H5.89045H5.89065H5.89085H5.89105H5.89125H5.89145H5.89165H5.89184H5.89204H5.89224H5.89244H5.89264H5.89283H5.89303H5.89323H5.89342H5.89362H5.89381H5.89401H5.8942H5.8944H5.89459H5.89478H5.89498H5.89517H5.89536H5.89556H5.89575H5.89594H5.89613H5.89632H5.89651H5.8967H5.89689H5.89708H5.89727H5.89746H5.89765H5.89784H5.89802H5.89821H5.8984H5.89858H5.89877H5.89896H5.89914H5.89933H5.89951H5.8997H5.89988H5.90006H5.90025H5.90043H5.90061H5.90079H5.90097H5.90115H5.90133H5.90151H5.90169H5.90187H5.90205H5.90223H5.90241H5.90259H5.90276H5.90294H5.90311H5.90329H5.90347H5.90364H5.90381H5.90399H5.90416H5.90434H5.90451H5.90468H5.90485H5.90502H5.90519H5.90536H5.90553H5.9057H5.90587H5.90604H5.90621H5.90637H5.90654H5.90671H5.90687H5.90704H5.9072H5.90737H5.90753H5.9077H5.90786H5.90802H5.90818H5.90834H5.90851H5.90867H5.90883H5.90898H5.90914H5.9093H5.90946H5.90962H5.90977H5.90993H5.91009H5.91024H5.91039H5.91055H5.9107H5.91086H5.91101H5.91116H5.91131H5.91146H5.91161H5.91176H5.91191H5.91206H5.91221H5.91235H5.9125C6.07444 12.4701 6.21107 12.4471 6.34797 12.4015C6.35417 12.3994 6.36051 12.3979 6.36695 12.3968L6.51493 12.3721C6.86239 12.3022 7.19006 12.1157 7.44911 11.8567L7.45296 11.8528L7.45304 11.8529C7.74094 11.589 7.94556 11.3002 8.05621 10.9624C8.08219 10.8831 8.10316 10.8006 8.11879 10.7145C8.16256 10.4606 8.16111 10.1747 8.10359 9.84359ZM17.548 12.6636L17.532 12.6583L17.509 12.6545C17.6955 12.752 17.8693 12.8486 18.0232 12.9375L18.059 12.7407L18.0545 12.7407C18.0122 12.7413 17.9704 12.7376 17.9261 12.7313C17.8832 12.7251 17.8365 12.7163 17.786 12.7067L17.7705 12.7038C17.7131 12.6929 17.6476 12.6807 17.5685 12.6686C17.5615 12.6675 17.5547 12.6659 17.548 12.6636ZM15.393 12.1435C14.4463 11.994 13.7983 11.8943 13.2752 11.8195C12.8266 11.7946 12.3343 11.7703 11.8184 11.7949L11.8125 11.7951V11.795C11.6401 11.795 11.4673 11.8012 11.2952 11.8074L11.2846 11.8078L11.2845 11.8078C11.1268 11.8135 10.9693 11.8193 10.8165 11.8199L10.8125 11.82H10.7875C10.7638 11.82 10.7417 11.8134 10.7228 11.802C10.2091 11.8759 9.57407 11.9738 8.68339 12.1183C7.8622 12.2634 6.73783 12.8222 6.11626 13.218L6.10089 13.2334C6.09367 13.2406 6.08558 13.2469 6.07682 13.2522C5.97915 13.3108 5.88415 13.3678 5.81286 13.4128C5.81376 13.5 5.81626 13.5724 5.81862 13.6406C5.8232 13.7734 5.82722 13.8898 5.81772 14.0661L6.17879 14.2266C6.27161 14.2512 6.36214 14.2932 6.44399 14.3336C7.21024 14.0407 8.00058 13.8202 8.8149 13.6721C9.89909 13.4704 10.9819 13.395 12.0875 13.395C13.1952 13.395 14.2769 13.4957 15.3576 13.6716L15.3599 13.672L15.3599 13.672C16.1759 13.8204 16.9679 14.0415 17.7357 14.3354L17.9855 14.2313L18.1816 14.1332L18.3075 14.0703C18.3 13.9363 18.3 13.8393 18.3 13.7421V13.7419C18.3 13.638 18.3 13.5335 18.2909 13.3787C18.2502 13.3457 18.2007 13.3168 18.133 13.2773L18.133 13.2773L18.1202 13.2698C18.0956 13.2713 18.0706 13.2655 18.0488 13.2525C17.3733 12.8522 16.2425 12.2648 15.3948 12.1437L15.393 12.1435L15.393 12.1435ZM12.8381 8.50762C12.8355 8.48115 12.8413 8.45478 12.8544 8.43219L12.7956 7.92202C12.5798 7.80411 12.3445 7.74499 12.0875 7.74499H12.0375C11.8026 7.74499 11.5477 7.80457 11.3294 7.92225L11.2619 8.50762L11.2618 8.50847L10.9546 11.533C11.2249 11.52 11.5067 11.52 11.7847 11.52H11.7847H11.7875H11.7894C12.2681 11.52 12.7085 11.52 13.146 11.5393L12.8381 8.50762ZM15.4061 11.8714C15.7542 11.9212 16.1419 12.043 16.5256 12.1967C16.473 12.1529 16.4224 12.1067 16.3741 12.0584L16.3617 12.0459L16.3491 12.0334C16.0527 11.737 15.8207 11.4148 15.6909 11.0286C15.5752 10.6845 15.5432 10.2974 15.6102 9.84325C15.6064 9.84021 15.6026 9.83692 15.5991 9.83338C15.3062 9.54048 14.9669 9.27444 14.5816 9.0818L14.5795 9.08074L14.5795 9.08072C14.1192 8.8396 13.6219 8.67878 13.1236 8.63143L13.4007 11.5643L13.4682 11.5744L13.4682 11.5744C13.9464 11.646 14.5697 11.7394 15.4061 11.8714ZM6.56201 12.6676L6.57157 12.6656C6.39858 12.7578 6.23844 12.8493 6.09796 12.9349L6.06054 12.7478L6.169 12.731L6.1696 12.7309L6.16982 12.7309C6.25063 12.7185 6.33239 12.7059 6.40805 12.6933L6.55805 12.6683L6.55806 12.6684L6.56201 12.6676ZM11.9639 13.7201C10.868 13.745 9.80082 13.8198 8.73536 14.018L8.73486 14.0181C7.91757 14.1667 7.12519 14.3895 6.35763 14.6867C6.32757 14.6983 6.29418 14.6979 6.26442 14.6855L6.06531 14.6025C5.62836 15.3629 5.32987 16.1887 5.21186 17.0583L5.20967 17.0867C5.18542 17.4013 5.16385 17.6811 5.18707 17.9597L5.18717 17.9609C5.27086 19.0968 5.97594 20.0711 7.16094 20.7784C8.34668 21.4861 10.0048 21.9203 11.9641 21.9701C13.9322 21.9698 15.6584 21.4992 16.9135 20.7412C18.1702 19.9823 18.9424 18.9443 19.0379 17.8096L19.038 17.8088C19.0617 17.5488 19.0383 17.2608 18.9894 16.967C18.8243 16.0948 18.5239 15.2685 18.0886 14.5093L17.9934 14.5569L17.9826 14.5623L17.9824 14.5618L17.6574 14.6868C17.6284 14.6979 17.5963 14.6979 17.5674 14.6867C16.7998 14.3895 16.0074 14.1667 15.1901 14.0181L15.1896 14.018C14.1226 13.8195 13.0557 13.7202 11.9639 13.7201Z" fill="#221F1F"/>
<path d="M10.2375 15.5449C10.2375 16.0949 9.91251 16.5199 9.51251 16.5199C9.11251 16.5199 8.78751 16.0699 8.78751 15.5449C8.78751 15.0699 9.03751 14.6699 9.36251 14.5699L10.1625 15.1699C10.2125 15.2949 10.2375 15.4199 10.2375 15.5449Z" fill="#221F1F"/>
<path d="M9.9875 15.4199C9.9875 15.6199 9.8625 15.7699 9.7375 15.7699C9.6125 15.7699 9.4875 15.6199 9.4875 15.4199C9.4875 15.2199 9.6125 15.0699 9.7375 15.0699C9.8625 15.0699 9.9875 15.2199 9.9875 15.4199Z" fill="white"/>
<path d="M9.3625 16.295C9.0875 16.52 8.8375 16.77 8.6125 17.045C8.5125 17.17 8.4125 17.32 8.3375 17.495C8.2625 17.645 8.2125 17.82 8.1875 17.995C8.1625 18.07 8.1625 18.17 8.1625 18.245V18.37V18.495C8.1625 18.67 8.1625 18.845 8.1625 19.045C8.1875 19.22 8.2125 19.42 8.2375 19.595C8.2625 19.695 8.2625 19.77 8.2875 19.87C8.3125 19.945 8.3375 20.045 8.3875 20.12C8.3375 20.045 8.3125 19.945 8.2625 19.87C8.2375 19.795 8.1875 19.695 8.1625 19.62C8.1125 19.445 8.0625 19.27 8.0125 19.07C7.9875 18.895 7.9625 18.695 7.9375 18.52V18.395V18.245C7.9375 18.145 7.9375 18.045 7.9375 17.97C7.9625 17.77 7.9875 17.57 8.0625 17.395C8.1375 17.22 8.2125 17.045 8.3125 16.87C8.5375 16.545 8.7625 16.245 9.0375 15.995C9.1375 15.92 9.2625 15.92 9.3625 15.995C9.4625 16.045 9.4625 16.195 9.3625 16.295Z" fill="#221F1F"/>
<path d="M9.2125 16.22C9.1875 16.22 9.1875 16.22 9.1625 16.22H9.1375H9.0875L8.9625 16.195C8.8875 16.17 8.8125 16.17 8.7375 16.17C8.5875 16.17 8.4125 16.17 8.2625 16.22C8.1875 16.245 8.1125 16.27 8.0375 16.295C7.8125 16.395 7.6125 16.57 7.4875 16.77C7.5625 16.595 7.6375 16.445 7.7625 16.32C7.8125 16.245 7.8875 16.195 7.9625 16.145C8.0375 16.095 8.1125 16.045 8.1875 15.995C8.3375 15.895 8.5125 15.845 8.7125 15.795C8.8125 15.77 8.8875 15.77 8.9875 15.77C9.0375 15.77 9.0875 15.77 9.1375 15.77H9.2375C9.3625 15.77 9.4625 15.87 9.4875 15.995C9.5125 16.12 9.3625 16.22 9.2125 16.22Z" fill="#221F1F"/>
<path d="M15.3875 15.5449C15.3875 16.0949 15.0625 16.5199 14.6875 16.5199C14.3125 16.5199 13.9375 16.0949 13.9375 15.5449C13.9375 15.4199 13.9625 15.2949 13.9875 15.1699L14.7875 14.5699C15.1375 14.6699 15.3875 15.0699 15.3875 15.5449Z" fill="#221F1F"/>
<path d="M14.2125 15.4199C14.2125 15.6199 14.3375 15.7699 14.4625 15.7699C14.5875 15.7699 14.7125 15.6199 14.7125 15.4199C14.7125 15.2199 14.5875 15.0699 14.4625 15.0699C14.3375 15.0699 14.2125 15.2199 14.2125 15.4199Z" fill="white"/>
<path d="M15.1375 15.945C15.4125 16.22 15.6375 16.495 15.8375 16.82C15.9375 16.97 16.0375 17.145 16.1125 17.32C16.1875 17.495 16.2375 17.695 16.2625 17.87C16.2875 18.07 16.2875 18.245 16.2625 18.445C16.2375 18.62 16.2125 18.82 16.1875 18.995C16.1625 19.17 16.1125 19.345 16.0625 19.52C16.0375 19.595 16.0125 19.695 15.9625 19.77C15.9375 19.845 15.8875 19.945 15.8375 20.02C15.8625 19.945 15.9125 19.845 15.9375 19.77C15.9625 19.695 15.9875 19.595 16.0125 19.52C16.0375 19.345 16.0875 19.17 16.0875 18.995C16.1125 18.82 16.1125 18.645 16.1125 18.445C16.1125 18.27 16.0875 18.095 16.0625 17.92C16.0125 17.745 15.9625 17.595 15.8875 17.445C15.8125 17.295 15.7125 17.145 15.5875 17.02C15.3625 16.745 15.1125 16.495 14.8375 16.27C14.7375 16.17 14.7375 16.045 14.8375 15.945C14.9125 15.87 15.0375 15.845 15.1375 15.92V15.945Z" fill="#221F1F"/>
<path d="M14.9625 15.77H15.0875C15.1375 15.77 15.1875 15.77 15.2375 15.77C15.3375 15.77 15.4375 15.77 15.5375 15.795C15.7375 15.82 15.9125 15.87 16.0875 15.945C16.2625 16.02 16.4125 16.145 16.5625 16.27C16.6875 16.395 16.7875 16.57 16.8625 16.72C16.7625 16.57 16.6375 16.445 16.4875 16.345C16.3375 16.245 16.1875 16.17 16.0125 16.145C15.8375 16.12 15.6875 16.12 15.5125 16.12C15.4375 16.12 15.3375 16.145 15.2625 16.145L15.1375 16.17H15.0875H15.0625H15.0375H15.0125C14.8875 16.195 14.7625 16.095 14.7625 15.97C14.7375 15.845 14.8375 15.72 14.9625 15.72C14.9875 15.72 14.9875 15.72 15.0125 15.72" fill="#221F1F"/>
</g>
<defs>
<clipPath id="clip0_4405_1191">
<rect width="24" height="24" fill="white"/>
</clipPath>
</defs>
</svg>
