<svg width="24" height="24" viewBox="0 0 24 24" fill="none" xmlns="http://www.w3.org/2000/svg">
<g clip-path="url(#clip0_4302_10969)">
<path d="M12 24C18.6274 24 24 18.6274 24 12C24 5.37258 18.6274 0 12 0C5.37258 0 0 5.37258 0 12C0 18.6274 5.37258 24 12 24Z" fill="#4C9540"/>
<mask id="mask0_4302_10969" style="mask-type:alpha" maskUnits="userSpaceOnUse" x="0" y="0" width="24" height="24">
<path d="M12 24C18.6274 24 24 18.6274 24 12C24 5.37258 18.6274 0 12 0C5.37258 0 0 5.37258 0 12C0 18.6274 5.37258 24 12 24Z" fill="#D9D9D9"/>
</mask>
<g mask="url(#mask0_4302_10969)">
<path fill-rule="evenodd" clip-rule="evenodd" d="M14.1127 4.1513H14.5455C14.6702 4.1513 14.7619 4.17331 14.872 4.17331C15.07 4.17331 15.3671 4.16597 15.5285 4.23566L16.2437 4.58778C16.3978 4.66481 16.5372 4.76751 16.6582 4.88855C16.7829 5.01325 16.8746 5.13429 16.9737 5.28101C16.9993 5.31769 17.0177 5.34703 17.0433 5.38371C17.1204 5.48641 17.2084 5.58545 17.2671 5.70282L17.5385 6.14663C17.5642 6.18698 17.5789 6.21632 17.6009 6.25667C17.7366 6.48408 17.898 6.70048 17.9567 6.96457C17.9677 7.01592 17.953 7.08194 17.9897 7.11495C18.008 7.13329 18.0777 7.1553 18.107 7.17364C18.1437 7.19565 18.1804 7.22132 18.2171 7.247C18.3198 7.31669 18.7563 7.61746 18.8406 7.69815C18.914 7.76417 19.1304 7.99525 19.1854 8.07227C19.2111 8.10895 19.2294 8.1383 19.2588 8.17131C19.3761 8.30335 19.4495 8.45373 19.5265 8.60779C19.5632 8.68114 19.6732 8.71416 19.7429 8.74717L20.2858 9.10295C20.3995 9.18731 20.5865 9.36704 20.5865 9.53943C20.5865 9.59445 20.5682 9.66781 20.5425 9.70082C20.4875 9.77051 20.4472 9.72649 20.3811 9.75584C20.3701 9.76684 20.3811 10.1226 20.3811 10.1593C20.3811 10.3097 20.3481 10.4197 20.3481 10.5738C20.3481 10.6691 20.3738 10.7315 20.3811 10.8122C20.3848 10.8562 20.3775 10.8929 20.3848 10.9369C20.4215 11.19 20.3811 11.3147 20.3518 11.5531C20.3408 11.6338 20.3298 11.6925 20.2894 11.7622C20.1097 12.1143 20.2417 11.9162 19.974 12.272C19.93 12.3307 19.8933 12.3637 19.8456 12.4151C19.6952 12.5654 19.6292 12.5581 19.9043 12.7855C19.963 12.8332 20.04 12.9469 20.095 13.0056C20.128 13.0386 20.1464 13.0789 20.1794 13.1193C20.2711 13.2367 20.3481 13.376 20.4031 13.5154C20.4215 13.5668 20.4288 13.6181 20.4472 13.6695C20.4728 13.7465 20.5425 13.7722 20.5939 13.8272C20.6415 13.8785 20.6966 13.9372 20.7369 13.9996C20.7883 14.0803 20.9827 14.4691 20.9827 14.5681C20.9827 14.8835 20.8983 14.9716 20.7442 15.199C20.6929 15.2797 20.6159 15.3347 20.5499 15.397L20.3628 15.5988C20.0877 15.9619 20.1464 15.9106 20.2234 16.0096C20.2748 16.0793 20.3518 16.248 20.3518 16.336C20.3518 16.5781 20.3298 16.7065 20.1831 16.8935C20.1244 16.9669 20.084 17.0439 20.018 17.11C19.9593 17.1686 19.7759 17.3887 19.7759 17.4547C19.7759 17.4877 19.8199 17.5794 19.8273 17.6088C19.875 17.7408 19.853 18.0526 19.8199 18.1846L19.7613 18.3534C19.6476 18.6321 19.5742 18.6908 19.3981 18.9146C19.2478 19.109 19.09 19.1236 19.2698 19.3437C19.2918 19.373 19.3064 19.384 19.3284 19.4134C19.4348 19.5601 19.5779 19.5931 19.7282 19.6848C19.8383 19.7508 19.9667 19.7985 20.073 19.8719C20.1794 19.9452 20.2821 20.0113 20.3921 20.0846L20.6159 20.2533C20.6415 20.2717 20.6746 20.29 20.7002 20.312L20.979 20.5651C21.2394 20.8145 21.4411 21.1703 21.5769 21.3024L21.8299 21.5811C21.874 21.6361 21.9033 21.6875 21.9436 21.7388C22.138 21.9956 22.1527 22.2157 22.3178 22.4394C22.3581 22.4944 22.3911 22.5311 22.4278 22.5898C22.4975 22.7072 22.5672 22.8025 22.6259 22.9236C22.7176 23.107 22.7726 23.305 22.8643 23.4884C22.89 23.5398 23 23.8442 23 23.8992C23 24.1266 22.8863 24.332 22.7212 24.4567C22.6956 24.4751 22.6662 24.4861 22.6369 24.5044C22.5268 24.5814 22.5635 24.5741 22.3985 24.6585C22.2811 24.7172 22.1857 24.7979 22.0647 24.8455L21.885 24.9262C21.7676 24.9812 21.6355 25.0363 21.4998 25.0619C21.4191 25.0803 21.3861 25.1023 21.2944 25.1206C21.2211 25.1316 21.1551 25.1463 21.0817 25.1683C20.9423 25.2087 20.8176 25.2527 20.6709 25.2783L20.1867 25.326H19.7429C19.6659 25.326 19.6402 25.304 19.5705 25.304C19.4495 25.3004 19.3064 25.3187 19.1927 25.2893C19.0167 25.2453 18.7929 25.271 18.6132 25.271C18.4261 25.271 18.2391 25.2417 18.0594 25.227C17.9897 25.2197 17.9567 25.205 17.887 25.205C17.7146 25.205 17.6962 25.1866 17.5312 25.1573C17.3881 25.1316 17.3625 25.1426 17.2157 25.0839L16.9333 24.9629C16.8159 24.9079 16.5665 24.7318 16.4492 24.6548C16.4088 24.6255 16.3721 24.6071 16.3354 24.5741C16.2474 24.5008 16.1447 24.4347 16.0457 24.3724C16.0163 24.354 16.009 24.3467 15.9833 24.3284L15.7376 24.1853C15.6789 24.1596 15.6716 24.1413 15.6202 24.1046C15.5799 24.0753 15.5322 24.0569 15.4882 24.0313C15.3231 23.9322 15.2864 23.7818 15.2241 23.6131C15.2131 23.5838 15.2021 23.5691 15.1947 23.5361C15.1727 23.5361 15.1654 23.5361 15.1434 23.5398C15.0554 23.5618 14.9747 23.8992 14.6262 24.0753C14.5969 24.0899 14.5785 24.101 14.5529 24.1083C14.5125 24.123 14.5052 24.123 14.4685 24.145C14.4135 24.178 14.1274 24.2587 13.9953 24.3357C13.944 24.365 13.8743 24.365 13.8156 24.3834C13.7239 24.4127 13.3645 24.5008 13.2728 24.5008C13.06 24.5008 12.5539 24.4861 12.3815 24.5008C12.3008 24.5081 12.2898 24.5338 12.1871 24.5338H10.852C10.7272 24.5338 10.5218 24.5118 10.4191 24.5484C10.2724 24.5998 10.0634 24.5411 9.8983 24.5851C9.86896 24.5925 9.85429 24.6071 9.81761 24.6108C9.74792 24.6181 9.66722 24.6071 9.59387 24.6145C9.51684 24.6255 9.47283 24.6438 9.3958 24.6438C9.29677 24.6438 9.26742 24.6768 9.2014 24.6768H7.93965C7.86262 24.6768 7.85162 24.6438 7.62421 24.6438C7.50684 24.6438 7.38213 24.6475 7.26476 24.6438C7.2024 24.6438 7.18039 24.6255 7.12171 24.6145C7.01167 24.5961 6.87963 24.6291 6.76959 24.6071C6.6889 24.5888 6.75492 24.5851 6.61554 24.5778C6.56786 24.5741 6.51284 24.5704 6.45048 24.5668C6.3918 24.5631 6.36245 24.5374 6.30744 24.5338C6.24141 24.5301 6.20107 24.5374 6.14605 24.5228C6.12037 24.5154 6.09837 24.5081 6.08003 24.5044C6.04702 24.5008 6.01767 24.5044 5.98466 24.5008C5.90397 24.4934 5.50417 24.3907 5.37579 24.3907C5.17773 24.3944 5.01267 24.2807 4.82561 24.2367C4.77059 24.2257 4.73758 24.233 4.67889 24.211C4.54318 24.156 4.4038 24.134 4.26442 24.0826L4.00767 23.9836C3.95999 23.9689 3.91964 23.9616 3.87563 23.9432C3.79126 23.9102 3.71424 23.8662 3.64455 23.8149C3.5932 23.7782 3.57119 23.7818 3.5125 23.7598C3.42814 23.7305 3.35478 23.6791 3.27409 23.6388C3.14938 23.5691 3.05402 23.5691 2.91464 23.4737C2.80827 23.4004 2.68356 23.3417 2.57719 23.2683C2.54051 23.2427 2.51484 23.2243 2.47449 23.1987C2.42681 23.173 2.39013 23.173 2.34978 23.1363C2.22141 23.0189 2.11504 22.9089 1.99033 22.7878C1.91697 22.7145 1.85829 22.6228 1.79593 22.5348C1.66389 22.3514 1.66756 22.4137 1.54652 22.168C1.52451 22.1203 1.50617 22.102 1.48416 22.0543C1.45849 22.0029 1.45115 21.9699 1.43648 21.9186C1.4108 21.8305 1.37046 21.7462 1.33378 21.6655C1.26409 21.5114 1.24575 21.4234 1.1944 21.273C1.12471 21.0676 1.13571 21.0163 1.09537 20.8292C1.08436 20.7705 1.06969 20.7668 1.06602 20.6861C1.06235 20.6275 1.05135 20.5798 1.03668 20.5321L1 20.0039C1 19.9306 1.01834 19.9049 1.02201 19.8425C1.02568 19.7692 1.01467 19.7178 1.03301 19.6591C1.05502 19.5821 1.05869 19.4794 1.07703 19.4097C1.10637 19.2997 1.09537 19.252 1.09903 19.1383C1.1027 19.0723 1.12838 19.0356 1.13204 18.9769C1.13938 18.8485 1.13204 18.9219 1.16139 18.8082C1.17239 18.7642 1.17606 18.6798 1.17606 18.6285C1.17606 18.4121 1.16872 18.4671 1.20173 18.2727C1.20907 18.2287 1.20173 18.148 1.21274 18.0856L1.23841 17.9169C1.24575 17.8105 1.22374 17.6895 1.25308 17.5831C1.27509 17.5098 1.26776 17.4988 1.27876 17.4107C1.28976 17.3227 1.2971 17.3667 1.2971 17.2347C1.30077 17.121 1.41814 16.7468 1.41814 16.5854C1.41814 16.4901 1.41447 16.4827 1.44015 16.4094C1.45849 16.3507 1.44381 16.2957 1.46215 16.237C1.48783 16.1563 1.47316 16.1563 1.48416 16.0646C1.49883 15.9582 1.53918 15.8555 1.54652 15.7492C1.55018 15.7015 1.55752 15.6208 1.56852 15.5768C1.59053 15.4998 1.58319 15.3897 1.59053 15.3054L1.61621 15.1366C1.62354 15.1073 1.63454 15.0889 1.64188 15.0633C1.66022 15.0046 1.64922 14.9459 1.66389 14.8909C1.67122 14.8652 1.67856 14.8395 1.6859 14.8139C1.72624 14.5864 1.80694 14.3517 1.86929 14.1316C1.88763 14.0693 1.90597 14.0509 1.92798 13.9959L2.06369 13.5448C2.07102 13.5118 2.07102 13.4971 2.08203 13.4641C2.08936 13.4421 2.0967 13.4237 2.1077 13.3944C2.14071 13.299 2.19206 13.2183 2.21774 13.123C2.24708 13.0203 2.30577 12.9579 2.34612 12.8589L2.40113 12.7158C2.52217 12.4261 2.57352 12.3307 2.70924 12.0593C2.73124 12.0116 2.75325 11.9786 2.77893 11.9346C2.82661 11.8429 2.85228 11.7585 2.91097 11.6741C2.93665 11.6375 2.96232 11.5861 2.98433 11.5494L3.24842 11.0323C3.29243 10.9406 3.32911 10.8599 3.38046 10.7755C3.4098 10.7278 3.41347 10.6838 3.43915 10.6398L3.78393 10.0163C3.90864 9.80719 3.993 9.57978 4.12137 9.37437C4.27909 9.11762 4.32678 8.98558 4.45882 8.74717C4.4845 8.70315 4.51017 8.67014 4.53951 8.62979L4.84762 8.16764C4.87696 8.12362 4.88796 8.08328 4.91731 8.04293C4.94298 8.00258 4.96866 7.96591 4.99433 7.92556C5.03468 7.8632 5.10437 7.74216 5.15572 7.69448C5.22541 7.62846 5.26576 7.55143 5.33545 7.48174C5.37212 7.44507 5.3978 7.41939 5.43448 7.38271C5.51884 7.29835 5.58853 7.20665 5.67289 7.13329C5.74258 7.07094 5.83428 6.92789 5.87463 6.8472C5.93331 6.72983 6.06169 6.63813 6.14238 6.52809C6.20107 6.4474 6.26709 6.40705 6.32578 6.33003C6.38446 6.253 6.43581 6.18331 6.50183 6.11729C6.5862 6.03293 6.62287 5.91189 6.67789 5.80552C6.79527 5.58178 6.93831 5.35437 7.09603 5.1563C7.28676 4.91422 7.13638 5.04627 7.45182 4.73083C7.52151 4.66114 7.57653 4.60979 7.65355 4.55477C7.69023 4.52909 7.73424 4.51075 7.78193 4.48508L8.15972 4.27601C8.40547 4.12929 8.61821 4.05594 8.91531 4.05594C8.98133 4.05594 9.03268 4.0376 9.0877 4.03393C9.2124 4.02292 9.34078 4.03393 9.46182 4.01559C9.6012 3.99358 9.87996 3.99725 10.0193 4.01192C10.3164 4.04493 10.6172 4.0486 10.9106 4.09995C10.929 4.10362 10.973 4.11462 10.9913 4.11462C11.0794 4.12563 11.1601 4.1403 11.2407 4.16964C11.5452 4.27968 11.7322 4.38971 11.989 4.59512C12.0293 4.62813 12.055 4.64647 12.099 4.67948C12.1907 4.74183 12.3264 4.89955 12.3888 4.98758C12.4108 5.02426 12.4328 5.08294 12.4878 5.08294C12.5282 5.08294 12.7996 4.89221 12.8436 4.85554C12.917 4.79318 13.0087 4.7565 13.0784 4.68681C13.2141 4.55844 13.1664 4.5621 13.3828 4.40438C13.4635 4.3457 13.5405 4.30535 13.6322 4.265C13.7679 4.19898 13.944 4.1513 14.1127 4.1513Z" fill="#3D8130"/>
<path fill-rule="evenodd" clip-rule="evenodd" d="M16.8489 16.6515H16.5995C16.5298 16.6515 16.4601 16.6369 16.4161 16.6369C16.2914 16.6405 16.1483 16.6405 16.0273 16.6589C15.7962 16.6919 15.5285 16.6515 15.3011 16.6258L14.8316 16.5745C14.6959 16.5745 14.4795 16.5562 14.3621 16.5231C14.2961 16.5048 14.2044 16.5011 14.1347 16.4865C13.9953 16.4608 13.8523 16.4094 13.7165 16.3838C13.6248 16.3654 13.5955 16.3544 13.5111 16.3324L13.0673 16.2554C12.9059 16.2444 12.7335 16.2371 12.5832 16.2224C12.3998 16.2004 12.231 16.2297 12.0403 16.2297L11.6185 16.182C11.5708 16.171 11.5378 16.1564 11.4938 16.1454C11.4168 16.1233 11.2994 16.116 11.2224 16.105C11.1453 16.094 11.0426 16.072 10.9546 16.0537C10.9069 16.0463 10.8776 16.028 10.8409 16.0133C10.7969 15.9986 10.7566 15.9913 10.7162 15.9766C10.6795 15.9656 10.6502 15.9473 10.6062 15.9326C10.5585 15.9143 10.5365 15.8959 10.4961 15.8813C10.4118 15.8519 10.3457 15.8373 10.2541 15.8079L9.9056 15.6795C9.77356 15.6319 9.69286 15.5842 9.54982 15.5585C9.38476 15.5291 9.21237 15.4778 9.05098 15.4264C8.7979 15.3458 8.47879 15.0156 8.35775 15.012C8.3064 15.012 8.26972 15.0377 8.26972 15.089C8.26605 15.232 8.84191 15.5988 8.9923 15.6282L9.72954 15.8373C9.7919 15.8629 9.89093 15.9143 9.95695 15.9363C10.0707 15.973 10.3531 16.0463 10.4338 16.0903C10.5071 16.1344 10.8116 16.2444 10.9106 16.2554C10.995 16.2664 11.0903 16.2994 11.1637 16.3141C11.2737 16.3324 11.3324 16.3214 11.4314 16.3618C11.4865 16.3838 11.9083 16.4461 11.9853 16.4461C12.3374 16.4461 12.6602 16.4314 13.0123 16.4645C13.1113 16.4718 13.159 16.4938 13.236 16.5048C13.3204 16.5158 13.3938 16.5195 13.4671 16.5452L14.1163 16.7029C14.4134 16.7396 14.4501 16.7762 14.8316 16.7946C14.9269 16.7982 14.971 16.8166 15.0627 16.8202C15.147 16.8239 15.235 16.8239 15.3157 16.8386C15.976 16.934 16.4711 16.8312 17.1057 16.8936C17.3771 16.9193 17.6559 16.8936 17.9309 16.8863C18.1107 16.8826 18.2684 16.8459 18.4518 16.8496C18.6132 16.8496 18.8589 16.8459 19.002 16.8092C19.0533 16.7946 19.0717 16.7982 19.1157 16.7799C19.2184 16.7396 19.3284 16.6919 19.4054 16.6258L19.5558 16.4828C19.5962 16.4388 19.7319 16.3104 19.7906 16.2811C19.8529 16.2517 19.8419 16.2591 19.8823 16.2224C19.9079 16.2004 19.9336 16.182 19.963 16.16C20.0436 16.0903 20.051 16.0463 20.106 16.1747C20.1537 16.2884 20.2124 16.2407 20.1794 16.5268C20.172 16.5855 20.117 16.7396 20.0803 16.7762L20.0436 16.8166C20.018 16.8423 20.0253 16.8239 20.0033 16.8533L19.9153 16.9853C19.8933 17.0146 19.8713 17.022 19.8382 17.0513C19.7942 17.0917 19.8126 17.0843 19.7796 17.1357C19.7245 17.22 19.6145 17.3961 19.5338 17.4548C19.5081 17.4731 19.4715 17.4951 19.4421 17.5135C19.3834 17.5538 19.3394 17.5978 19.2807 17.6345C19.222 17.6712 19.1634 17.7005 19.101 17.7372C19.0533 17.7666 18.9543 17.7922 18.8919 17.8142C18.5582 17.9133 18.5471 17.9096 18.1363 17.8729L17.5201 17.8436C17.3918 17.8436 17.2781 17.8729 17.1497 17.8766C16.6288 17.8949 16.1153 17.95 15.5945 17.9426L15.2791 17.9316C15.1727 17.9316 15.103 17.9096 14.9966 17.9059C14.5932 17.8803 14.186 17.8913 13.7789 17.8839C13.6652 17.8803 13.6175 17.8583 13.5185 17.8363C13.4011 17.8069 13.4525 17.7922 13.2727 17.7666C13.181 17.7519 13.1187 17.7225 13.0086 17.7152C12.9133 17.7079 12.8142 17.7152 12.7225 17.7005C12.6162 17.6822 12.5722 17.6602 12.4548 17.6529C12.3704 17.6492 12.2677 17.6382 12.187 17.6162C12.0183 17.5722 11.8422 17.5722 11.6809 17.5025C11.6075 17.4695 11.5305 17.4438 11.4571 17.4108C11.3764 17.3741 11.3214 17.3484 11.248 17.3044C11.1343 17.2384 10.8482 17.1357 10.7272 17.055L10.4154 16.9009C10.3494 16.8753 10.2504 16.8459 10.188 16.8129L9.78089 16.6002C9.74788 16.5818 9.70753 16.5708 9.67452 16.5525C9.63418 16.5305 9.60117 16.5195 9.56449 16.5011C9.43611 16.4314 9.08033 16.182 8.98496 16.149C8.84558 16.105 8.94828 16.16 8.75755 16.061C8.69153 16.0243 8.62551 15.9803 8.55215 15.951L8.40177 15.8703C8.37976 15.8556 8.38343 15.8556 8.35775 15.8409C8.29173 15.8042 8.2147 15.7822 8.16335 15.7199C8.06432 15.6098 7.91027 15.5402 7.80023 15.4521C7.7122 15.3861 7.62784 15.3201 7.58383 15.2137C7.5068 15.0303 7.50313 15.1037 7.54348 14.8359C7.55815 14.7442 7.5985 14.7002 7.64985 14.6268C7.75622 14.4801 8.23304 14.6745 8.4091 14.6892C8.46045 14.6929 8.48613 14.7039 8.52647 14.7222L8.99596 14.8726C9.03998 14.8836 9.08766 14.8909 9.12801 14.9019C9.1977 14.9239 9.3004 14.946 9.36275 14.9753C9.42878 15.0046 9.52414 15.045 9.59016 15.0633C9.72221 15.1 9.96429 15.1734 10.0853 15.188C10.1844 15.199 10.2577 15.2174 10.3494 15.2394C10.4301 15.2577 10.5401 15.2577 10.6282 15.2724C10.6795 15.2834 10.6942 15.2944 10.7492 15.3054C10.7969 15.3127 10.8409 15.3127 10.8886 15.3201C10.9803 15.3311 11.0463 15.3604 11.149 15.3751C11.237 15.3898 11.2957 15.4264 11.3911 15.4375L11.8973 15.5512C11.9743 15.5732 12.3411 15.6208 12.4254 15.6539C12.4768 15.6722 12.4805 15.6759 12.5465 15.6869C12.5942 15.6942 12.6382 15.7015 12.6859 15.7089C12.8656 15.7309 13.049 15.7676 13.2397 15.7786L13.7862 15.8593C13.9623 15.8923 14.164 15.8813 14.3364 15.9289C14.5235 15.984 14.8499 15.9583 15.0627 15.9583C15.158 15.9583 15.2424 15.9693 15.3341 15.973C15.4294 15.9803 15.4991 16.0023 15.5945 16.0023C15.8623 16.006 16.1117 16.0243 16.3758 16.0573C16.4638 16.0683 16.5335 16.0683 16.6252 16.072C16.7939 16.0757 16.9479 16.1123 17.113 16.1123C17.201 16.1123 17.2854 16.1123 17.3734 16.1123C17.5531 16.1123 17.8833 16.0683 18.1327 16.0683C18.2317 16.0683 18.3307 16.072 18.4261 16.061L19.1047 15.9143L19.2954 15.8373C19.4421 15.7676 19.5815 15.6502 19.6952 15.5402C19.7319 15.5071 19.7282 15.5255 19.7686 15.4741C19.8456 15.3714 20.0473 15.1147 20.117 15.0046C20.194 14.8799 20.3517 14.5755 20.3884 14.4398C20.4214 14.3297 20.4545 14.2234 20.4728 14.1097L20.4948 14.0033C20.4948 13.9996 20.4985 13.996 20.4985 13.996C20.5425 14.007 20.5718 14.0767 20.5975 14.117C20.6195 14.15 20.6599 14.2197 20.6745 14.2564C20.7332 14.4178 20.7736 14.4031 20.8066 14.5608C20.8469 14.7662 20.6892 15.023 20.5535 15.1697C20.5315 15.1917 20.5205 15.2064 20.5021 15.2284C20.4691 15.2724 20.4765 15.2504 20.4434 15.2797L20.3334 15.3898C20.1904 15.5255 20.0803 15.7529 19.9446 15.8703C19.9006 15.9069 19.8786 15.94 19.8346 15.9803C19.8052 16.006 19.7392 16.061 19.7062 16.083C19.6842 16.0977 19.6622 16.1087 19.6402 16.1233L19.4605 16.2701C19.4164 16.3067 19.3944 16.3434 19.3541 16.3801C19.3137 16.4168 19.2771 16.4461 19.2404 16.4828C19.2037 16.5195 19.145 16.5342 19.0973 16.5562C19.0717 16.5708 18.958 16.6038 18.9286 16.6075C18.6278 16.6589 18.0557 16.6295 17.6889 16.6882C17.4028 16.7285 17.0323 16.6515 16.8489 16.6515Z" fill="#983C1F"/>
<path fill-rule="evenodd" clip-rule="evenodd" d="M12.8473 11.9895C12.8583 11.9308 12.84 11.9748 12.873 11.9382C13.038 11.7254 13.1407 11.432 13.1591 11.1606C13.2067 10.3279 12.9573 10.3903 12.9133 10.2546C13.1591 10.2583 13.3755 10.2179 13.6286 10.2179C13.6872 10.2179 13.7313 10.2069 13.8009 10.2069C13.8743 10.2069 13.922 10.2179 13.9843 10.2216C14.1311 10.2289 14.098 10.2142 14.2448 10.3353C14.3548 10.427 14.5309 10.6177 14.5785 10.7498L14.9013 11.5604C15.004 11.8134 14.8059 11.7584 14.7619 11.7621C14.6446 11.7768 14.5712 11.8244 14.4722 11.8538C14.3915 11.8795 14.2961 11.9308 14.2044 11.9638C13.944 12.0592 13.4745 12.0665 13.1737 12.0409L12.8473 11.9895Z" fill="white"/>
<path fill-rule="evenodd" clip-rule="evenodd" d="M18.7159 11.909C18.7269 11.865 18.7856 11.81 18.8186 11.7587C18.8516 11.7036 18.8736 11.6413 18.9029 11.5826C19.035 11.3149 18.991 10.9847 18.8846 10.7096L18.7085 10.4272C18.6829 10.3979 18.6939 10.4236 18.6792 10.3869C18.7452 10.3429 19.024 10.4676 19.0827 10.4969C19.1487 10.5299 19.1964 10.5666 19.2514 10.5996C19.3431 10.6583 19.6952 10.827 19.7906 10.8637C19.9263 10.9151 20.1427 10.9481 20.0803 11.1058C20.062 11.1535 19.985 11.2011 19.952 11.2378C19.8089 11.4029 19.7429 11.5092 19.5485 11.6486C19.4495 11.7183 19.3137 11.788 19.189 11.8284C19.1303 11.854 18.7782 11.9201 18.7159 11.909Z" fill="white"/>
<path fill-rule="evenodd" clip-rule="evenodd" d="M10.6209 10.2804C10.6062 10.3428 10.5878 10.3061 10.4925 10.4308C10.3861 10.5702 10.2834 10.7059 10.2357 10.8819C10.2247 10.9186 10.2284 10.9663 10.2064 10.9956H10.188C10.1404 10.981 10.1184 10.8929 9.96797 10.8269C9.86894 10.7829 9.78824 10.7499 9.67821 10.7022C9.57184 10.6582 9.48014 10.6435 9.3701 10.5958L9.15003 10.5078C9.10235 10.4931 9.09868 10.5042 9.08768 10.4675C9.1427 10.4271 9.71489 10.3501 9.82492 10.3464L10.5768 10.2731C10.5805 10.2731 10.5842 10.2731 10.5878 10.2731C10.6209 10.2731 10.6025 10.2657 10.6209 10.2804Z" fill="white"/>
<path fill-rule="evenodd" clip-rule="evenodd" d="M12.3925 10.7021C12.4768 10.7388 12.5355 10.7168 12.6199 10.8268C12.7042 10.9369 12.6382 11.223 12.4585 11.3073C12.3411 11.3624 12.2898 11.3514 12.1467 11.3514C11.9376 11.3514 11.7543 10.9332 12.1247 10.7608C12.1797 10.7315 12.3191 10.6691 12.3925 10.7021Z" fill="white"/>
<path fill-rule="evenodd" clip-rule="evenodd" d="M16.5116 11.8427C16.4602 11.8537 16.3355 11.7987 16.2768 11.784C15.9467 11.7033 15.9944 11.7327 16.0237 11.4833C16.0384 11.3659 16.3062 11.0028 16.3758 10.9331C16.4089 10.9001 16.6399 10.647 16.6729 10.6396C16.6803 10.669 16.6436 10.713 16.6253 10.7497C16.5996 10.801 16.5996 10.8414 16.5812 10.8927C16.5519 10.9918 16.5189 10.9808 16.4932 11.1788C16.4785 11.3035 16.4492 11.3696 16.4529 11.5126C16.4639 11.63 16.5152 11.7694 16.5116 11.8427Z" fill="white"/>
<path fill-rule="evenodd" clip-rule="evenodd" d="M18.2281 10.8637C18.3088 10.893 18.4225 10.8417 18.5215 10.9737C18.5435 11.0067 18.5435 11.0361 18.5472 11.0911C18.5509 11.1865 18.5582 11.2672 18.5032 11.3259C18.4555 11.3809 18.4225 11.4212 18.3161 11.4212C18.2207 11.4212 18.0997 11.4359 18.041 11.2928C17.9383 11.0508 18.107 10.8197 18.2281 10.8637Z" fill="white"/>
<path fill-rule="evenodd" clip-rule="evenodd" d="M11.1564 10.4271C11.2407 10.4601 11.3177 10.5151 11.2884 10.6325C11.2774 10.6765 11.193 10.7718 11.0573 10.7535C10.9913 10.7425 10.9069 10.6435 10.9436 10.5554C10.9656 10.5004 10.973 10.4894 11.017 10.4564C11.061 10.4234 11.1013 10.4087 11.1564 10.4271Z" fill="white"/>
<path fill-rule="evenodd" clip-rule="evenodd" d="M11.2885 11.0362C11.4645 11.1096 11.3288 11.4397 11.1308 11.326C10.929 11.205 11.1308 10.9739 11.2885 11.0362Z" fill="white"/>
<path fill-rule="evenodd" clip-rule="evenodd" d="M17.2561 10.6068C17.4982 10.6729 17.3698 10.97 17.1974 10.9333C17.124 10.9186 17.0653 10.8342 17.0947 10.7352C17.113 10.6655 17.1791 10.5848 17.2561 10.6068Z" fill="white"/>
<path fill-rule="evenodd" clip-rule="evenodd" d="M17.3551 11.3255C17.4211 11.3585 17.4248 11.4649 17.3881 11.5236C17.3074 11.6593 17.069 11.5566 17.146 11.3805C17.1607 11.3438 17.1753 11.3255 17.2157 11.3182C17.2597 11.3108 17.3221 11.3108 17.3551 11.3255Z" fill="white"/>
<path fill-rule="evenodd" clip-rule="evenodd" d="M7.40414 13.5301C7.35279 13.3981 7.45182 13.365 7.52884 13.321C7.58386 13.2917 7.71957 13.2477 7.7966 13.2403C7.8993 13.2293 7.99833 13.2073 8.1047 13.2C8.25509 13.1926 8.41647 13.1523 8.40547 13.3027C8.4018 13.376 8.40547 13.3834 8.24041 13.4054C8.04968 13.4311 7.84428 13.4201 7.65355 13.5118C7.56919 13.5521 7.47749 13.6218 7.40414 13.5301ZM18.6205 20.5761C18.6205 20.4697 18.5435 20.4514 18.4261 20.4257C18.3748 20.5028 18.2097 20.7522 18.1511 20.8145L17.8136 21.152C17.7402 21.24 17.6742 21.2987 17.5899 21.383C17.5679 21.4051 17.5569 21.4197 17.5348 21.4381C17.3478 21.5884 17.1827 21.7902 17.014 21.9259C16.97 21.9626 16.937 21.9919 16.8893 22.0286L16.7022 22.179C16.6692 22.2047 16.6619 22.2047 16.6399 22.2377C16.6546 22.2597 16.6912 22.3074 16.7132 22.3257L16.882 22.4944C16.937 22.5494 16.9627 22.5311 16.9993 22.5311C17.047 22.3294 17.0287 22.3844 17.1277 22.2157C17.2451 22.0176 17.3441 21.8672 17.5055 21.7022C17.7549 21.4527 17.7256 21.5408 17.909 21.4454L18.052 21.361C18.1364 21.3134 18.1877 21.2033 18.2574 21.1226C18.3528 21.0089 18.6205 20.7412 18.6205 20.5761ZM16.5629 21.262C16.7059 21.229 16.8746 21.119 16.9883 21.0346C17.0727 20.9722 17.1534 20.9136 17.2414 20.8512L17.4872 20.6641C17.5238 20.6311 17.5642 20.5981 17.6082 20.5688C17.7366 20.4734 17.854 20.3597 18.0447 20.356C18.2684 20.356 18.1841 20.3854 18.0814 20.5394C18.0117 20.6458 17.9677 20.7082 17.8906 20.7815C17.854 20.8145 17.8209 20.8585 17.7843 20.8916L17.6706 20.9942C17.6302 21.0383 17.6009 21.0566 17.5605 21.1006C17.4285 21.2473 17.5312 21.1556 17.3368 21.3097C17.2488 21.3794 17.124 21.5298 17.069 21.5848C17.0507 21.5995 17.0323 21.6105 17.0067 21.6325C16.8966 21.7315 16.7793 21.8452 16.6546 21.9332C16.5629 21.9956 16.5849 22.0139 16.5372 22.0286C16.4602 21.9259 16.5005 21.6178 16.4565 21.4637C16.3868 21.2437 16.3354 21.317 16.5629 21.262ZM18.6866 20.9869C18.6572 20.9502 18.6756 20.9612 18.6939 20.9392C18.7379 20.8952 18.8113 20.7228 18.8223 20.6641C18.8369 20.5724 18.8516 20.6275 18.9066 20.5871C18.936 20.5651 18.9507 20.5028 18.9396 20.4661C18.925 20.4221 18.6976 20.2863 18.6462 20.268C18.4555 20.1873 18.008 20.0993 17.8136 20.191C17.7623 20.213 17.7439 20.2093 17.6962 20.2387L17.5018 20.3707C17.4175 20.4294 17.2854 20.5688 17.1424 20.6605L17.047 20.7302C16.915 20.8109 16.7976 20.9246 16.6582 20.9942C16.6179 21.0126 16.5849 21.0236 16.5445 21.0419C16.3648 21.1336 16.0053 21.0896 15.8329 21.0383C15.7816 21.0236 15.7669 21.0053 15.7156 20.9906C15.6239 20.9649 15.5872 20.9099 15.5542 20.8255C15.5395 20.7925 15.5175 20.7522 15.5138 20.7118C15.5065 20.6641 15.5065 20.6018 15.5175 20.5578C15.5285 20.5064 15.5505 20.4807 15.5652 20.4404C15.6055 20.312 15.6202 20.345 15.7229 20.2753L15.932 20.158C16.0017 20.1323 16.0494 20.1873 16.108 20.213L16.2107 20.2717C16.2621 20.301 16.3061 20.3304 16.3428 20.378C16.3721 20.4147 16.3868 20.4257 16.4125 20.4734C16.4932 20.6091 16.1924 20.7668 16.1521 20.8255C16.0934 20.9136 16.1814 21.0199 16.2841 20.9796C16.2988 20.9722 16.3611 20.9246 16.3795 20.9099L16.4675 20.8329C16.5519 20.7412 16.6362 20.6385 16.6362 20.5064C16.6362 20.4441 16.5959 20.3707 16.5629 20.323L16.4528 20.191C16.4235 20.1543 16.4381 20.18 16.4051 20.1543L16.1631 19.9966C16.1924 19.9562 16.2181 19.9526 16.2584 19.9232C16.3024 19.8902 16.3391 19.8279 16.3831 19.7985C16.4712 19.7398 16.4381 19.7508 16.5078 19.6738C16.5445 19.6335 16.5555 19.6261 16.5995 19.5931C16.6619 19.5491 16.7242 19.4941 16.7683 19.4354C16.8233 19.3657 16.97 19.2703 17.047 19.2153C17.1571 19.1346 17.2341 19.098 17.3441 19.0026C17.4028 18.9512 17.4945 18.9292 17.5679 18.8999C17.854 18.7935 17.8356 18.7092 18.2207 18.7055C18.3234 18.7055 18.3931 18.7312 18.4702 18.8009C18.5068 18.8339 18.5288 18.8375 18.5619 18.8705C18.6646 18.9732 18.8076 19.098 18.9286 19.1786C19.0057 19.23 19.0277 19.2997 19.068 19.3767C19.0937 19.4244 19.1524 19.4831 19.2074 19.5638L19.2844 19.6518C19.3284 19.6995 19.3945 19.7178 19.4458 19.7508C19.5228 19.7985 19.5595 19.7985 19.6109 19.8352C19.7466 19.9306 19.9006 19.9782 20.0327 20.0736L20.5205 20.4221C20.5865 20.4661 20.6562 20.5174 20.7039 20.5724C20.7846 20.6605 20.8763 20.7302 20.9607 20.8145C21.045 20.8989 21.1037 21.0089 21.1807 21.0933C21.2541 21.174 21.3495 21.361 21.4375 21.4234C21.4998 21.4674 21.4595 21.4637 21.5072 21.5151L21.6319 21.6398C21.7126 21.7352 21.6979 21.7315 21.7419 21.7902C21.7676 21.8232 21.7529 21.7975 21.7786 21.8269C21.8446 21.9076 21.984 22.146 21.995 22.278C22.0684 22.3257 22.0133 22.256 22.061 22.3587C22.1784 22.6118 22.1857 22.5384 22.2407 22.6265C22.2958 22.7145 22.3398 22.8209 22.3985 22.9126L22.6772 23.5251C22.7359 23.6535 22.7176 23.6278 22.7396 23.7562C22.7616 23.8919 22.8459 23.9286 22.7983 24.123C22.7836 24.178 22.7726 24.156 22.7359 24.211C22.6295 24.3614 22.6259 24.299 22.5342 24.376C22.4902 24.4127 22.5158 24.4164 22.4645 24.4494L22.3178 24.5191C22.2407 24.5521 22.2004 24.6145 22.1454 24.6365L21.8923 24.7575C21.8263 24.7905 21.852 24.8125 21.7493 24.8272C21.6466 24.8419 21.6209 24.8895 21.5218 24.8932L21.5182 24.9079C21.5182 24.9079 21.5182 24.9116 21.5145 24.9152L21.5108 24.9372C21.4338 24.9299 21.4705 24.9226 21.3861 24.9446C21.3421 24.9556 21.3018 24.9556 21.2541 24.9666C21.1 25.0069 20.946 25.0436 20.7919 25.1023C20.7516 25.117 20.5902 25.139 20.5425 25.1426C20.4178 25.1573 20.3921 25.1316 20.2638 25.1683C20.2051 25.1866 19.7356 25.183 19.6842 25.1646C19.6219 25.1426 19.6402 25.1426 19.5559 25.1426L18.947 25.1316C18.8223 25.128 18.5472 25.1536 18.4482 25.1133C18.4078 25.0949 18.0337 25.0729 17.9713 25.0546C17.9236 25.0436 17.8503 25.0473 17.7953 25.0436C17.6999 25.0399 17.7329 25.0216 17.6559 25.0143C17.5275 24.9996 17.4615 24.9922 17.3515 24.9592C17.2414 24.9262 17.0617 24.8639 16.9627 24.8052L16.6362 24.5998C16.5922 24.5558 16.5262 24.5301 16.4712 24.4934C16.4418 24.4714 16.4565 24.4714 16.4271 24.4494C16.4051 24.4311 16.3905 24.4311 16.3685 24.4091L15.7816 24.0203C15.7449 23.9983 15.7046 23.9579 15.6752 23.9432L15.5615 23.8845C15.5138 23.8552 15.5285 23.8552 15.4992 23.8075C15.4735 23.7672 15.4625 23.7085 15.4368 23.6535C15.2718 23.305 15.3304 22.9969 15.3304 22.6301C15.3304 22.4467 15.3121 22.4724 15.3011 22.3477C15.2938 22.2633 15.2424 22.201 15.2094 22.1313C15.1801 22.0763 15.081 21.9516 15.0333 21.8929C15.004 21.8525 14.9857 21.8012 14.9637 21.7572C14.927 21.6801 14.85 21.5811 14.7949 21.5224C14.6922 21.4124 14.5932 21.339 14.4832 21.2143C14.3841 21.1006 14.2961 20.9686 14.2484 20.8329C14.2117 20.7265 14.2154 20.5908 14.2704 20.5064C14.2814 20.4917 14.3621 20.4147 14.3768 20.4074C14.5418 20.2973 14.5859 20.224 14.8059 20.2203C14.905 20.2203 14.894 20.224 14.971 20.257C15.1911 20.3487 15.059 20.2643 15.2057 20.4331C15.2424 20.4734 15.2461 20.4624 15.2754 20.5138C15.3488 20.6531 15.2571 20.9026 15.5395 21.108C15.7302 21.2473 15.8036 21.2217 15.9173 21.2547C15.9467 21.262 15.943 21.273 15.9907 21.2803C16.053 21.2877 16.108 21.2803 16.1741 21.295C16.1851 21.3207 16.1961 21.3794 16.2071 21.4124C16.2181 21.4601 16.2364 21.4674 16.2474 21.5114C16.2878 21.6691 16.2731 21.8745 16.3061 22.0286C16.3464 22.223 16.4932 22.4357 16.6362 22.5604C16.6692 22.5898 16.6876 22.6045 16.7132 22.6338C16.7793 22.7145 16.8673 22.7622 16.9406 22.8282L17.2267 23.0556C17.3184 23.129 17.3955 23.2207 17.4798 23.305C17.5275 23.3527 17.6779 23.4407 17.7366 23.4811C17.8613 23.5654 18.041 23.5874 18.1877 23.6095C18.3234 23.6315 18.3858 23.5911 18.4445 23.5874C18.5215 23.7232 18.4628 23.7965 18.5985 23.9432C18.6389 23.9872 18.6572 24.0239 18.7489 24.0569C18.7893 24.0716 18.8039 24.0863 18.8406 24.0936C19.024 24.1303 19.2257 24.145 19.4055 24.1596C19.5338 24.1706 19.6329 24.1523 19.7466 24.112C19.7759 24.101 19.7979 24.0863 19.8199 24.0789C19.8383 24.101 19.864 24.211 19.8786 24.2587C19.897 24.321 19.9887 24.4201 20.0437 24.4421C20.2638 24.5301 20.0584 24.4714 20.3261 24.5081C20.4655 24.5264 20.6012 24.5008 20.7222 24.4567C20.9827 24.3614 20.9937 24.2037 21.1661 24.0863C21.1807 24.0753 21.1844 24.0753 21.1991 24.0643L21.3238 23.8955C21.3458 23.8662 21.3531 23.8662 21.3788 23.8295C21.4008 23.8002 21.4081 23.7928 21.4265 23.7672L21.5072 23.6645C21.5182 23.6461 21.5182 23.6498 21.5328 23.6351C21.6282 23.5361 21.7052 23.4334 21.8079 23.3344C21.8373 23.305 21.8336 23.3014 21.8666 23.2867C21.8666 23.2097 21.863 23.162 21.8043 23.14C21.6796 23.0923 21.5512 23.2977 21.4888 23.3857C21.4375 23.4591 21.3605 23.5068 21.3054 23.5838C21.2798 23.6241 21.2871 23.5985 21.2578 23.6351L21.1037 23.8515C21.089 23.8699 21.0744 23.8809 21.056 23.8992C21.0267 23.9322 21.001 23.9652 20.968 23.9983C20.935 24.0313 20.891 24.0569 20.8653 24.0899C20.8359 24.1266 20.8176 24.1633 20.7809 24.189C20.7112 24.2367 20.6269 24.2807 20.5168 24.3027C20.4361 24.3174 20.2454 24.31 20.1794 24.277C20.018 24.2 20.0914 24.1853 20.0327 24.0459C19.963 23.8845 19.9703 23.9029 20.051 23.7708C20.084 23.7158 20.0987 23.7158 20.1501 23.6755C20.1757 23.6535 20.1757 23.6498 20.2014 23.6278C20.2784 23.5691 20.5975 23.228 20.6159 23.2023C20.7002 23.0739 20.7112 23.096 20.7919 23.0079C20.8249 22.9712 20.8506 22.9419 20.8836 22.9052C20.9203 22.8685 20.935 22.8465 20.9753 22.8135C21.012 22.7842 21.0303 22.7365 21.0083 22.6705C20.99 22.6155 20.946 22.6045 20.88 22.6155L20.5865 22.9162C20.5352 22.9566 20.5095 22.9932 20.4692 23.0483C20.4105 23.129 20.3041 23.228 20.2307 23.3087L20.0694 23.4811C20.007 23.5508 19.9813 23.5068 19.8199 23.7415C19.7943 23.7782 19.7906 23.8112 19.7613 23.8479C19.6586 23.9799 19.4238 23.9249 19.2771 23.9212C19.2184 23.9212 19.1597 23.9249 19.101 23.9176C18.9653 23.9029 19.068 23.8845 18.8003 23.8662L18.7232 23.7488C18.7012 23.7048 18.6939 23.6608 18.6792 23.6095C18.6536 23.5214 18.6719 23.4554 18.7122 23.382C18.7636 23.283 18.8003 23.162 18.8516 23.0666L19.0864 22.7365C19.1487 22.6741 19.1854 22.5788 19.2294 22.5128C19.2734 22.4431 19.4055 22.344 19.4752 22.289C19.5559 22.2267 19.6806 22.1643 19.7392 22.0983C19.8419 21.9809 19.7319 21.8599 19.6219 21.9296C19.6072 21.9406 19.5925 21.9552 19.5705 21.9736L19.2991 22.157C19.2184 22.212 19.1304 22.3074 19.0607 22.388C18.991 22.4651 18.9763 22.5494 18.8773 22.6631C18.8479 22.6961 18.8259 22.7438 18.8039 22.7732C18.7489 22.8502 18.7049 22.8905 18.6536 22.9932C18.6389 23.0263 18.6279 23.0299 18.6169 23.0519C18.6059 23.0776 18.6095 23.096 18.5985 23.1216C18.5839 23.1583 18.5582 23.195 18.5362 23.2463C18.5178 23.2903 18.4958 23.3344 18.4775 23.371C18.3895 23.3747 18.3271 23.4041 18.2538 23.4004C18.1841 23.3967 18.1107 23.3747 18.0337 23.3637C17.887 23.3417 17.7843 23.2463 17.6889 23.1876C17.6009 23.1326 17.5569 23.0703 17.4872 23.0006C17.4652 22.9786 17.4505 22.9529 17.4285 22.9272C17.3478 22.8319 17.2781 22.7438 17.2377 22.5971C17.2121 22.5018 17.2414 22.4504 17.2818 22.388C17.3148 22.3404 17.3404 22.2817 17.3808 22.2267C17.4211 22.1753 17.4505 22.135 17.4872 22.0726C17.5679 21.9369 17.6559 21.8709 17.7623 21.7608C17.7806 21.7425 17.7696 21.7462 17.7953 21.7315C17.854 21.6948 17.9163 21.6838 17.9787 21.6508C18.0043 21.6361 18.0373 21.6215 18.0667 21.6068C18.1107 21.5884 18.1804 21.5481 18.2317 21.5188C18.3418 21.4564 18.4518 21.3757 18.5619 21.328C18.7966 21.2217 18.7159 21.229 18.8003 21.1776C18.8773 21.1336 18.958 21.0749 19.0203 21.0053C19.1084 20.9172 19.2147 20.8512 19.3064 20.7705C19.3761 20.7118 19.5522 20.6018 19.5999 20.5541C19.6512 20.5028 19.6696 20.4221 19.5999 20.378C19.5155 20.3267 19.4532 20.3964 19.4128 20.4331C19.3651 20.4734 19.3101 20.4991 19.2588 20.5394C19.2221 20.5688 19.2441 20.5651 19.1891 20.5981C19.1597 20.6165 19.1451 20.6275 19.1157 20.6568C19.079 20.6898 19.09 20.6861 19.0423 20.7118C18.9617 20.7558 18.9066 20.8365 18.8333 20.8952L18.7599 20.9539C18.7159 20.9979 18.7049 20.9979 18.6866 20.9869ZM11.9817 16.4461C11.9046 16.4461 11.4828 16.3874 11.4278 16.3617C11.3288 16.3177 11.2701 16.3324 11.1601 16.314C11.0867 16.2994 10.9913 16.2663 10.907 16.2553C10.8079 16.2443 10.5035 16.1343 10.4301 16.0903C10.3495 16.0463 10.067 15.9729 9.95332 15.9362C9.8873 15.9142 9.78826 15.8629 9.72591 15.8372L8.98866 15.6281C8.83828 15.5988 8.26242 15.232 8.26609 15.0889C8.26609 15.0376 8.2991 15.0119 8.35412 15.0119C8.47516 15.0156 8.79427 15.3457 9.04735 15.4264C9.20874 15.4777 9.38113 15.5291 9.54618 15.5584C9.68923 15.5841 9.76992 15.6318 9.90197 15.6795L10.2504 15.8079C10.3421 15.8372 10.4081 15.8482 10.4925 15.8812C10.5328 15.8959 10.5549 15.9179 10.6025 15.9326C10.6465 15.9472 10.6722 15.9656 10.7126 15.9766C10.7529 15.9912 10.7969 15.9986 10.8373 16.0133C10.874 16.0243 10.9033 16.0426 10.951 16.0536C11.039 16.0719 11.138 16.0903 11.2187 16.105C11.2958 16.116 11.4131 16.127 11.4902 16.1453C11.5378 16.1563 11.5672 16.171 11.6149 16.182L12.0367 16.2297C12.2237 16.2297 12.3961 16.204 12.5795 16.2223C12.7336 16.2407 12.9023 16.2443 13.0637 16.2553L13.5075 16.3324C13.5919 16.358 13.6212 16.3654 13.7129 16.3837C13.8486 16.4094 13.9917 16.4607 14.131 16.4864C14.2007 16.4974 14.2924 16.5048 14.3585 16.5231C14.4758 16.5561 14.6922 16.5708 14.8279 16.5744L15.2974 16.6258C15.5285 16.6515 15.7926 16.6918 16.0237 16.6588C16.1447 16.6405 16.2914 16.6405 16.4125 16.6368C16.4565 16.6368 16.5262 16.6515 16.5959 16.6515H16.8453C17.0323 16.6515 17.3991 16.7285 17.6889 16.6845C18.0594 16.6258 18.6279 16.6551 18.9286 16.6038C18.958 16.6001 19.068 16.5671 19.0974 16.5524C19.1451 16.5268 19.2037 16.5158 19.2404 16.4791C19.2771 16.4424 19.3174 16.4131 19.3541 16.3764C19.3945 16.3397 19.4201 16.303 19.4605 16.2663L19.6402 16.1196C19.6659 16.105 19.6842 16.0939 19.7062 16.0793C19.7392 16.0573 19.8053 16.0059 19.8346 15.9766C19.875 15.9362 19.9006 15.9069 19.9446 15.8665C20.0804 15.7492 20.1904 15.5218 20.3334 15.386L20.4435 15.276C20.4765 15.2467 20.4655 15.2687 20.5022 15.2247C20.5205 15.2027 20.5315 15.188 20.5535 15.166C20.6892 15.0193 20.847 14.7625 20.8066 14.5571C20.7773 14.4031 20.7332 14.4177 20.6746 14.2527C20.6636 14.216 20.6195 14.1463 20.5975 14.1133C20.5719 14.0729 20.5425 14.0033 20.4985 13.9922C20.4948 13.9959 20.4948 13.9996 20.4948 13.9996L20.4728 14.106C20.4545 14.2197 20.4215 14.326 20.3885 14.4361C20.3481 14.5681 20.1904 14.8762 20.117 15.0009C20.051 15.1073 19.8493 15.364 19.7686 15.4704C19.7282 15.5218 19.7319 15.5034 19.6952 15.5364C19.5852 15.6428 19.4421 15.7638 19.2954 15.8335L19.1047 15.9106L18.4261 16.0573C18.3308 16.0683 18.2317 16.0646 18.1327 16.0646C17.8833 16.0646 17.5532 16.1086 17.3735 16.1086C17.2854 16.1086 17.2011 16.1086 17.113 16.1086C16.948 16.1086 16.7939 16.0756 16.6252 16.0683C16.5335 16.0646 16.4638 16.0646 16.3758 16.0536C16.108 16.0243 15.8586 16.0059 15.5945 15.9986C15.4992 15.9986 15.4295 15.9766 15.3341 15.9692C15.2424 15.9619 15.1581 15.9546 15.0627 15.9546C14.8463 15.9546 14.5235 15.9802 14.3364 15.9252C14.1641 15.8775 13.9623 15.8922 13.7863 15.8555L13.2397 15.7748C13.0527 15.7638 12.8693 15.7272 12.6859 15.7052C12.6382 15.6978 12.5905 15.6905 12.5465 15.6831C12.4805 15.6721 12.4768 15.6685 12.4255 15.6501C12.3411 15.6208 11.9743 15.5731 11.8973 15.5474L11.3911 15.4337C11.2958 15.4227 11.2371 15.386 11.1491 15.3714C11.05 15.3567 10.984 15.3274 10.8886 15.3164C10.8409 15.309 10.7969 15.309 10.7493 15.3017C10.6942 15.2907 10.6832 15.2797 10.6282 15.2687C10.5402 15.254 10.4301 15.254 10.3495 15.2357C10.2578 15.2137 10.1844 15.1953 10.0854 15.1843C9.96432 15.1696 9.72224 15.0963 9.5902 15.0596C9.52418 15.0413 9.42881 15.0009 9.36279 14.9716C9.3041 14.9459 9.19773 14.9202 9.12804 14.8982C9.0877 14.8835 9.04001 14.8762 8.996 14.8689L8.52651 14.7185C8.48249 14.7002 8.46049 14.6891 8.40914 14.6855C8.23675 14.6671 7.75625 14.4727 7.64988 14.6231C7.59853 14.6928 7.55819 14.7405 7.54351 14.8322C7.50317 15.1 7.50684 15.0229 7.58386 15.21C7.62788 15.3164 7.71591 15.3824 7.80027 15.4484C7.9103 15.5328 8.06802 15.6061 8.16339 15.7162C8.21841 15.7748 8.29176 15.8005 8.35779 15.8372C8.38346 15.8519 8.37979 15.8519 8.4018 15.8665L8.55218 15.9472C8.62554 15.9766 8.69156 16.0206 8.75759 16.0573C8.94832 16.1563 8.84562 16.1013 8.985 16.1453C9.08403 16.1746 9.43615 16.4277 9.56452 16.4974C9.6012 16.5158 9.63421 16.5268 9.67456 16.5488C9.70757 16.5671 9.74792 16.5781 9.78093 16.5964L10.1881 16.8092C10.2504 16.8422 10.3495 16.8715 10.4155 16.8972L10.7272 17.0513C10.8446 17.132 11.1344 17.2383 11.2481 17.3007C11.3251 17.3447 11.3765 17.3704 11.4572 17.4071C11.5305 17.4401 11.6075 17.4657 11.6809 17.4988C11.8423 17.5684 12.0183 17.5721 12.1871 17.6125C12.2678 17.6308 12.3705 17.6418 12.4548 17.6491C12.5722 17.6565 12.6162 17.6821 12.7226 17.6968C12.8143 17.7115 12.9133 17.7042 13.0087 17.7115C13.1187 17.7188 13.1811 17.7482 13.2728 17.7628C13.4525 17.7885 13.3975 17.8032 13.5185 17.8325C13.6175 17.8582 13.6689 17.8802 13.7789 17.8802C14.1824 17.8875 14.5932 17.8765 14.9967 17.9022C15.0994 17.9096 15.1727 17.9316 15.2791 17.9279L15.5945 17.9389C16.1117 17.9462 16.6289 17.8949 17.1497 17.8729C17.2781 17.8692 17.3881 17.8399 17.5202 17.8399L18.1364 17.8692C18.5472 17.9059 18.5582 17.9132 18.892 17.8105C18.9543 17.7922 19.0497 17.7665 19.101 17.7335C19.1634 17.6968 19.2221 17.6675 19.2808 17.6308C19.3394 17.5941 19.3798 17.5464 19.4421 17.5098C19.4715 17.4914 19.5082 17.4694 19.5338 17.4511C19.6145 17.3924 19.7246 17.2163 19.7796 17.132C19.8126 17.0806 19.7906 17.0916 19.8383 17.0476C19.8713 17.0183 19.8896 17.0146 19.9153 16.9816L20.0033 16.8495C20.0253 16.8202 20.018 16.8385 20.0437 16.8129L20.0804 16.7725C20.117 16.7358 20.1721 16.5818 20.1794 16.5231C20.2124 16.237 20.1537 16.2847 20.106 16.171C20.051 16.0389 20.0437 16.0866 19.963 16.1563C19.9373 16.1783 19.9116 16.1966 19.8823 16.2187C19.8383 16.2553 19.8493 16.248 19.7906 16.2773C19.7319 16.303 19.5962 16.4351 19.5559 16.4791L19.4055 16.6221C19.3248 16.6881 19.2147 16.7358 19.1157 16.7762C19.068 16.7945 19.0534 16.7908 19.002 16.8055C18.859 16.8422 18.6169 16.8495 18.4518 16.8459C18.2648 16.8459 18.1107 16.8789 17.931 16.8825C17.6596 16.8899 17.3808 16.9156 17.1057 16.8899C16.4712 16.8275 15.9723 16.9302 15.3158 16.8349C15.2351 16.8239 15.147 16.8239 15.0627 16.8165C14.971 16.8092 14.927 16.7945 14.8316 16.7908C14.4502 16.7725 14.4135 16.7395 14.1164 16.6992L13.4672 16.5414C13.3938 16.5158 13.3204 16.5158 13.2361 16.5011C13.1591 16.4901 13.1114 16.4681 13.0123 16.4607C12.6566 16.4314 12.3338 16.4461 11.9817 16.4461ZM17.3551 11.3257C17.3221 11.311 17.2598 11.311 17.2194 11.3184C17.1791 11.3257 17.1644 11.344 17.1497 11.3807C17.0727 11.5604 17.3111 11.6595 17.3918 11.5238C17.4211 11.4651 17.4175 11.355 17.3551 11.3257ZM11.2884 11.0359C11.1344 10.9736 10.929 11.2047 11.1307 11.3257C11.3251 11.4394 11.4608 11.1093 11.2884 11.0359ZM18.2281 10.8635C18.107 10.8195 17.9383 11.0506 18.041 11.289C18.1034 11.4321 18.2207 11.4174 18.3161 11.4174C18.4261 11.4174 18.4555 11.377 18.5032 11.322C18.5582 11.2633 18.5472 11.1863 18.5472 11.0873C18.5472 11.0323 18.5472 10.9992 18.5215 10.9699C18.4225 10.8415 18.3088 10.8965 18.2281 10.8635ZM12.3925 10.7022C12.3228 10.6728 12.1797 10.7315 12.1247 10.7572C11.7506 10.9296 11.934 11.3477 12.1467 11.3477C12.2898 11.3477 12.3411 11.3587 12.4585 11.3037C12.6382 11.2193 12.7042 10.9332 12.6199 10.8232C12.5355 10.7132 12.4768 10.7352 12.3925 10.7022ZM17.2561 10.6068C17.1791 10.5848 17.113 10.6691 17.0947 10.7315C17.0654 10.8305 17.124 10.9149 17.1974 10.9296C17.3698 10.9662 17.4982 10.6728 17.2561 10.6068ZM16.2768 11.7842C16.3354 11.7988 16.4602 11.8502 16.5115 11.8429C16.5152 11.7695 16.4602 11.6301 16.4565 11.5164C16.4528 11.3734 16.4822 11.3074 16.4968 11.1826C16.5188 10.9846 16.5519 10.9919 16.5849 10.8965C16.5995 10.8452 16.6032 10.8049 16.6289 10.7535C16.6472 10.7168 16.6839 10.6728 16.6766 10.6435C16.6435 10.6508 16.4125 10.9039 16.3795 10.9369C16.3098 11.0066 16.042 11.3697 16.0273 11.4871C15.9943 11.7328 15.9466 11.7035 16.2768 11.7842ZM11.1564 10.4271C11.1014 10.4051 11.061 10.4197 11.017 10.4527C10.973 10.4857 10.9657 10.4967 10.9436 10.5518C10.9106 10.6398 10.9913 10.7425 11.0574 10.7498C11.1931 10.7682 11.2774 10.6765 11.2884 10.6288C11.3141 10.5151 11.2407 10.4601 11.1564 10.4271ZM18.7159 11.9089C18.7783 11.9162 19.1304 11.8539 19.1891 11.8355C19.3138 11.7952 19.4495 11.7255 19.5485 11.6558C19.7429 11.5164 19.8089 11.4101 19.952 11.245C19.985 11.2047 20.062 11.1606 20.0804 11.113C20.1427 10.9516 19.9263 10.9222 19.7906 10.8709C19.6952 10.8342 19.3394 10.6655 19.2514 10.6068C19.1964 10.5738 19.1487 10.5371 19.0827 10.5041C19.024 10.4747 18.7489 10.35 18.6792 10.394C18.6939 10.4307 18.6829 10.4051 18.7086 10.4344L18.8846 10.7168C18.991 10.9882 19.035 11.322 18.903 11.5898C18.8736 11.6485 18.8516 11.7108 18.8186 11.7658C18.7856 11.8135 18.7232 11.8649 18.7159 11.9089ZM10.4925 10.4307C10.5879 10.3024 10.6062 10.3427 10.6209 10.2803C10.6025 10.2693 10.6172 10.273 10.5915 10.2693C10.5879 10.2693 10.5842 10.2693 10.5805 10.2693L9.82861 10.3427C9.71857 10.3464 9.14638 10.4197 9.09136 10.4637C9.0987 10.5041 9.10604 10.4894 9.15372 10.5041L9.37379 10.5921C9.48383 10.6398 9.57553 10.6545 9.68189 10.6985C9.79193 10.7425 9.87263 10.7755 9.97166 10.8232C10.1257 10.8929 10.144 10.9772 10.1917 10.9919H10.2101C10.2284 10.9626 10.2284 10.9149 10.2394 10.8782C10.2871 10.7022 10.3898 10.5701 10.4925 10.4307ZM13.1701 12.0409C13.4708 12.0666 13.9403 12.0593 14.2007 11.9639C14.2961 11.9309 14.3878 11.8759 14.4685 11.8539C14.5675 11.8245 14.6409 11.7732 14.7583 11.7622C14.7986 11.7585 15.0003 11.8135 14.8976 11.5604L14.5749 10.7498C14.5272 10.6178 14.3511 10.4271 14.2411 10.3354C14.0944 10.2143 14.1274 10.2253 13.9807 10.2217C13.9146 10.218 13.8706 10.207 13.7973 10.207C13.7276 10.207 13.6836 10.218 13.6249 10.218C13.3755 10.218 13.1591 10.2547 12.9096 10.2547C12.95 10.3904 13.2031 10.328 13.1554 11.1606C13.1407 11.4321 13.038 11.7255 12.8693 11.9382C12.8399 11.9786 12.8546 11.9346 12.8436 11.9896L13.1701 12.0409ZM17.2231 10.0676C17.2267 10.0273 17.2451 10.0383 17.2818 10.0163C17.3148 9.99792 17.3258 9.98324 17.3588 9.96124C17.3918 9.93923 17.4138 9.92823 17.4395 9.90989C17.6009 9.81085 17.6669 9.7375 17.887 9.71916C18.2317 9.68981 18.4922 9.64947 18.8369 9.69348C19.013 9.71549 19.3064 9.73016 19.4788 9.81085C19.6622 9.89888 19.6145 9.89888 19.6806 9.99058C19.7026 10.0236 19.7136 10.0309 19.7319 10.0676L19.9997 10.4527C20.0217 10.4821 20.0327 10.4857 20.062 10.5224C20.1464 10.6288 20.1537 10.5848 20.1794 10.6545C20.2014 10.7205 20.2271 10.8672 20.1134 10.7645C20.0584 10.7132 19.8823 10.6691 19.7613 10.6068C19.6439 10.5444 19.5302 10.5078 19.4128 10.4417C19.3541 10.4087 19.2771 10.35 19.1781 10.295C19.024 10.2107 18.8553 10.1666 18.6756 10.1556C18.5985 10.152 18.5325 10.1336 18.4482 10.1336C18.3638 10.1336 18.2831 10.1263 18.2061 10.119C18.085 10.108 17.2451 10.0823 17.2231 10.0676ZM13.5992 9.98691C13.5552 10.0236 13.5332 9.99425 13.4708 9.99792C13.4231 10.0016 13.3718 10.0163 13.3168 10.0163L12.6529 10.0566L10.9473 10.0273C10.7493 10.0273 10.5659 10.0676 10.3825 10.0713C10.2027 10.0749 9.98266 10.1006 9.81761 10.1263C9.57553 10.163 9.24175 10.1776 9.02534 10.2583C8.985 10.273 8.95198 10.284 8.91897 10.3024C8.88596 10.3207 8.85662 10.3537 8.8016 10.35L8.5852 10.2583C8.50817 10.2143 8.54485 10.1923 8.63288 10.0823C8.68423 10.0163 8.6879 9.98691 8.79793 9.86954L8.91531 9.7485C8.96299 9.69348 9.11704 9.60545 9.18306 9.56144C9.24175 9.52476 9.67089 9.38171 9.75892 9.35604C9.97899 9.28635 10.2834 9.23866 10.5292 9.21299C10.5769 9.20932 10.6319 9.20932 10.6722 9.20198L11.2224 9.13963C11.5782 9.12863 11.5782 9.12863 11.9523 9.16531C12.1614 9.18364 12.4438 9.31936 12.6272 9.41472L13.0894 9.72282C13.137 9.75217 13.1334 9.76317 13.1884 9.78885L13.2874 9.84386C13.3168 9.85854 13.3608 9.87321 13.3938 9.89155C13.4341 9.90255 13.5809 9.95757 13.5992 9.98691ZM15.3525 20.29C15.4331 20.29 15.4075 20.2643 15.4478 20.2093C15.5102 20.1286 15.6972 20.0443 15.7963 19.9892C15.8696 19.9489 15.9577 19.8829 16.0163 19.8315C16.0494 19.8022 16.0824 19.7802 16.119 19.7508L16.3171 19.5674C16.4088 19.4611 16.5078 19.4024 16.6069 19.2923C16.6729 19.219 16.7389 19.186 16.8123 19.12C16.904 19.0356 17.0433 18.9622 17.1497 18.8925C17.1974 18.8595 17.2121 18.8375 17.2488 18.8082C17.3148 18.7532 17.4248 18.7312 17.5128 18.6908C17.6082 18.6468 17.6669 18.6028 17.7659 18.5624C17.9567 18.4854 18.2281 18.4671 18.4225 18.5184C18.4885 18.5368 18.6022 18.6248 18.6572 18.6651L18.9617 18.9256C19.101 19.0576 19.079 19.0063 19.1964 18.8852C19.2221 18.8595 19.2331 18.8485 19.2551 18.8265L19.3101 18.7532C19.3761 18.6761 19.4825 18.5588 19.5265 18.4597C19.5705 18.3497 19.6439 18.2213 19.6622 18.0966C19.6806 17.9756 19.6879 17.7298 19.6439 17.6345C19.5925 17.6381 19.5889 17.6491 19.5595 17.6785C19.5302 17.7042 19.5082 17.7152 19.4788 17.7408C19.4275 17.7812 19.3725 17.8215 19.3174 17.8509C19.2844 17.8692 19.2734 17.8802 19.2367 17.9022C19.1451 17.9499 19.0423 17.9939 18.9396 18.0196C18.6536 18.0856 18.87 18.0856 18.4702 18.0966C18.1474 18.104 17.7402 18.0379 17.4285 18.0636C17.2634 18.0746 17.091 18.0966 16.9186 18.1003C16.5665 18.1076 16.2364 18.1516 15.877 18.1516C15.7009 18.1516 15.5138 18.159 15.3378 18.148C15.2424 18.1406 15.1764 18.148 15.0847 18.1296C15.026 18.1186 14.9013 18.1113 14.8353 18.1113C14.6629 18.1076 14.4868 18.0929 14.3034 18.0929C14.0944 18.0929 13.7019 18.1223 13.5148 18.0599L13.3131 17.9902C13.0784 17.9059 12.7519 17.9352 12.5905 17.8875L11.879 17.7738C11.6222 17.7298 11.4168 17.6161 11.1894 17.5171C11.1564 17.5024 11.1344 17.4804 11.1014 17.4657C10.9693 17.4034 10.863 17.3704 10.7272 17.297C10.5292 17.187 10.3825 17.1136 10.1661 17.0329C10.1294 17.0183 10.1147 17.0109 10.078 16.9889C9.98633 16.9412 9.93131 16.9376 9.79927 16.8569C9.72958 16.8129 9.69657 16.8019 9.61587 16.7688C9.46549 16.7028 9.39213 16.6515 9.27109 16.5708C9.21974 16.5378 9.15739 16.5011 9.10237 16.4681C8.8016 16.2883 8.8933 16.38 8.72458 16.292L8.54485 16.2003C8.5045 16.182 8.5045 16.1673 8.46416 16.1526C8.36879 16.1123 8.10103 15.9692 8.03134 15.8996C7.90297 15.7675 7.58386 15.6098 7.46282 15.4447C7.45182 15.4301 7.44815 15.4191 7.43348 15.4007C7.34912 15.2907 7.28309 15.133 7.3051 14.9862C7.31244 14.9422 7.33078 14.7772 7.34178 14.7405C7.37479 14.6415 7.48116 14.4654 7.57286 14.4287C7.68289 14.3847 7.66456 14.3847 7.7966 14.3847C7.96899 14.381 8.10837 14.4214 8.27343 14.4581C8.34311 14.4727 8.40914 14.5021 8.48983 14.5131C8.58153 14.5241 9.20874 14.7258 9.32978 14.7588C9.4875 14.8029 9.55352 14.8505 9.74058 14.9019C9.88363 14.9386 10.0267 14.9789 10.1734 15.0119L10.6429 15.0853C10.7236 15.0926 10.7823 15.122 10.8703 15.133C10.962 15.144 11.0133 15.1586 11.0977 15.177C11.1711 15.1916 11.2554 15.2027 11.3251 15.221C11.6112 15.3054 12.1394 15.4044 12.4475 15.4667C12.5172 15.4814 12.5905 15.4998 12.6712 15.5144C12.7556 15.5291 12.8363 15.5291 12.9133 15.5438C12.9903 15.5584 13.0674 15.5658 13.1517 15.5768C13.2251 15.5878 13.3461 15.5804 13.4121 15.5988C13.7129 15.6758 14.0614 15.6795 14.3695 15.7382C14.6996 15.8005 15.0847 15.7382 15.4221 15.7822L15.9136 15.8335C16.042 15.8409 16.3318 15.8299 16.4381 15.8592C16.6399 15.9106 17.2524 15.9289 17.4688 15.9069L17.9823 15.8775C18.0704 15.8702 18.1621 15.8775 18.2501 15.8739C18.2941 15.8739 18.3381 15.8702 18.3821 15.8665L18.7196 15.7968C18.9176 15.7272 18.9727 15.8079 19.3321 15.5804C19.4128 15.5291 19.4862 15.4631 19.5522 15.4007C19.6292 15.331 19.6732 15.2577 19.7356 15.1733C19.8089 15.0706 19.9006 14.9642 19.963 14.8579C19.985 14.8212 19.9813 14.7992 20.0033 14.7698C20.04 14.7222 20.0253 14.7442 20.051 14.6781L20.2161 14.2893C20.3041 13.9996 20.3041 13.6401 20.1354 13.3907C20.1097 13.3504 20.117 13.3394 20.095 13.3027C20.0584 13.2477 20.0217 13.244 19.974 13.1523C19.941 13.0936 19.7723 12.9396 19.7099 12.8589C19.6879 12.8295 19.6769 12.8075 19.6255 12.8075C19.5705 12.8845 19.5962 12.8809 19.5045 12.9799C19.4825 13.0056 19.4825 13.0093 19.4605 13.0349C19.4275 13.0789 19.2991 13.1816 19.2404 13.2073C19.101 13.2697 18.7196 13.3027 18.5398 13.277C18.4005 13.255 18.4151 13.0863 18.5362 13.0679C18.5765 13.0606 18.6792 13.0716 18.7269 13.0716C18.8956 13.0716 19.1597 13.0496 19.2698 12.9249C19.2954 12.8955 19.3211 12.8515 19.3578 12.8185C19.3835 12.7965 19.3945 12.8002 19.3945 12.7562C19.3431 12.7488 19.2441 12.7745 19.1817 12.7782C19.0937 12.7818 19.0387 12.7672 18.9543 12.7672C18.87 12.7672 18.8039 12.7672 18.7232 12.7598C18.6719 12.7562 18.6646 12.7672 18.6315 12.7268C18.5729 12.6535 18.6132 12.5471 18.7783 12.5581C19.1817 12.5764 19.4091 12.6095 19.7172 12.316C19.7613 12.272 19.7943 12.239 19.8309 12.1913L19.908 12.0813C19.9483 12.0336 20.007 11.9639 20.0327 11.9052C20.0877 11.7878 20.1574 11.6778 20.1684 11.5494C20.1721 11.4981 20.2124 11.388 20.1867 11.344C20.1831 11.3404 20.1757 11.3037 20.1354 11.3624C20.117 11.388 20.1134 11.4064 20.0914 11.4284C20.0584 11.4651 20.0253 11.4907 19.9923 11.5348C19.9153 11.6448 19.8236 11.7108 19.7392 11.7915C19.6329 11.8905 19.4055 12.0153 19.2734 12.0556C19.1707 12.0849 19.0423 12.1143 18.9286 12.1253C18.8039 12.14 18.6829 12.162 18.5692 12.1803C18.4848 12.1913 17.8503 12.184 17.7549 12.1766C17.6265 12.1656 17.5165 12.1473 17.3771 12.1473C17.0287 12.1473 16.5519 12.1363 16.2474 12.0263C16.1154 11.9786 15.8916 11.9786 15.8146 11.8355C15.7889 11.7878 15.7596 11.7402 15.7633 11.6741C15.7816 11.311 15.888 11.2597 15.998 11.0653C16.0347 11.0029 16.086 10.9552 16.1264 10.8892C16.1521 10.8489 16.1447 10.8672 16.1777 10.8305C16.1924 10.8122 16.2034 10.7975 16.2217 10.7755C16.3428 10.6435 16.4638 10.5664 16.5702 10.394C16.6215 10.306 16.6876 10.229 16.7573 10.1593C16.7939 10.1226 16.8233 10.0823 16.8563 10.0529C16.9883 9.94657 17.3441 9.70815 17.4725 9.63846C17.6045 9.5651 17.6412 9.54677 17.7916 9.53209L18.1584 9.48808C18.4225 9.47708 18.6866 9.46974 18.947 9.50275L19.3174 9.5541C19.4165 9.58345 19.5375 9.62012 19.6219 9.66414C19.6806 9.69715 19.7062 9.71182 19.7392 9.75217C19.7613 9.77784 19.7686 9.78151 19.7869 9.80352C19.8419 9.87321 20.0033 10.0969 20.04 10.1703C20.0694 10.2327 20.051 10.1923 20.0877 10.2327C20.128 10.2803 20.1207 10.3427 20.1904 10.3464C20.2124 10.2767 20.2124 9.92456 20.1867 9.82919C20.128 9.60545 20.2087 9.60545 19.985 9.48074C19.7246 9.33403 19.5742 9.29001 19.2661 9.28268C19.2037 9.28268 19.1634 9.26434 19.112 9.257C18.7893 9.21299 17.953 9.19465 17.7072 9.246C17.4065 9.30835 17.1717 9.39638 16.9186 9.5651L16.7059 9.71916C16.6839 9.7375 16.6766 9.73383 16.6546 9.75584C16.6069 9.79985 16.5519 9.83653 16.5078 9.89155C16.4675 9.94657 16.3795 10.0566 16.3098 10.0639C16.1924 10.0749 16.1631 9.9539 16.2364 9.87321C16.2988 9.80719 16.3538 9.74483 16.4161 9.68248C16.4785 9.62012 16.5445 9.57978 16.6142 9.51375C16.6729 9.45507 16.7646 9.41472 16.8343 9.36337C16.9003 9.31569 17.1204 9.20198 17.1901 9.17631C17.5899 9.02959 17.5238 9.07361 17.9493 9.01492C18.129 8.98925 18.4665 9.00759 18.6572 9.01492C18.7159 9.01859 18.7452 9.03326 18.8186 9.03326L19.1781 9.05527C19.2514 9.06627 19.2221 9.07361 19.3321 9.07728C19.5779 9.08094 19.7136 9.12496 19.9446 9.20932C20.0363 9.24233 20.2161 9.35604 20.2748 9.42939C20.3114 9.47341 20.3151 9.50642 20.3811 9.50275C20.3738 9.37804 20.0143 9.17998 19.941 9.12496C19.7759 9.00025 19.6072 8.88288 19.3981 8.83153C19.3248 8.81319 18.7599 8.75817 18.6352 8.75817C18.3675 8.75817 17.5899 8.79852 17.3808 8.89388C17.3368 8.91589 17.3258 8.91589 17.2781 8.93423C17.1974 8.96357 17.047 9.08461 16.9627 9.0406C16.9296 9.00392 16.904 8.97091 16.9296 8.90855C16.959 8.8352 16.9773 8.8572 17.0287 8.82052C17.102 8.76917 17.2488 8.71049 17.3404 8.67748C17.4505 8.63713 17.7989 8.60045 17.909 8.58945C18.2427 8.5601 18.5949 8.52709 18.9396 8.5601C19.0093 8.56744 19.2147 8.60045 19.2698 8.59678C19.2991 8.53443 19.2478 8.49408 19.2184 8.4464C19.1671 8.35837 19.0974 8.29235 19.0387 8.21165C18.9983 8.15664 18.9617 8.10162 18.903 8.04293C18.8149 7.95857 18.7599 7.88521 18.6572 7.80819C18.6315 7.78985 18.6132 7.77884 18.5875 7.7605C18.5545 7.73483 18.5655 7.73483 18.5178 7.70915C18.4555 7.67614 18.4335 7.63946 18.3821 7.60645L18.03 7.3607C17.9567 7.31669 17.8613 7.28735 17.7953 7.236C17.6265 7.11129 17.4321 7.03426 17.2414 6.95357C17.2011 6.9389 17.2047 6.92789 17.1607 6.91322C17.0984 6.89121 17.0323 6.89121 16.9663 6.86921C16.4602 6.71149 16.0787 6.64913 15.5175 6.64913C15.3928 6.64913 15.2057 6.67114 15.0847 6.69315C14.883 6.72616 14.6739 6.73716 14.4795 6.80318C14.3291 6.85453 14.2961 6.88021 14.1164 6.92056C14.032 6.9389 14.043 6.95724 13.9256 6.96824C13.9256 7.00125 13.966 7.03426 13.988 7.05627C14.142 7.21766 14.2447 7.31669 14.3731 7.50742C14.3878 7.53309 14.3915 7.52576 14.4061 7.54777C14.4208 7.56611 14.4245 7.58444 14.4355 7.60278L14.6262 7.91089C14.6519 7.95857 14.7142 8.0466 14.7509 8.12362C14.7949 8.22266 14.8279 8.24833 14.8793 8.33269C14.9416 8.4354 14.9857 8.57111 15.037 8.67381C15.0664 8.73249 15.0847 8.88655 15.0774 8.95257C15.0664 9.0516 14.9857 9.11762 15.07 9.19465C15.1287 9.24967 15.1727 9.31569 15.2277 9.37437C15.3488 9.51009 15.4405 9.57244 15.5358 9.74116C15.5652 9.79618 15.6312 10.0749 15.6385 10.1483C15.6496 10.2363 15.6569 10.3757 15.6606 10.4637C15.6606 10.5408 15.6752 10.7278 15.6496 10.7828C15.6092 10.8745 15.4772 10.8452 15.4552 10.7425C15.4258 10.6215 15.4625 10.2693 15.4258 10.1006C15.3341 9.70815 15.2754 9.7485 15.0443 9.48441L14.8903 9.30469C14.8316 9.24967 14.7362 9.19098 14.6776 9.11762C14.5565 8.97091 14.3364 8.76551 14.1567 8.70315C14.0137 8.65547 13.6946 8.63713 13.5442 8.64813C13.4378 8.65547 13.3278 8.6628 13.2177 8.65914C13.1444 8.65547 12.961 8.61145 12.9243 8.67748C12.9426 8.71782 13.1077 8.76551 13.1554 8.78384C13.2397 8.81319 13.3168 8.84987 13.4048 8.88288C13.5222 8.92322 13.6359 8.98925 13.7312 9.06627C13.7789 9.10662 13.7863 9.09928 13.8303 9.13963C13.944 9.24967 14.076 9.36337 14.1714 9.48074C14.2081 9.52476 14.2117 9.53576 14.2558 9.57244C14.2924 9.60178 14.3144 9.62746 14.3475 9.65313C14.4098 9.70082 14.4832 9.75217 14.5418 9.80352C14.6702 9.91722 14.7619 10.0236 14.8866 10.141L15.0517 10.3097C15.1434 10.3867 15.2314 10.4674 15.3011 10.5701C15.3268 10.6068 15.3525 10.6325 15.3745 10.6728L15.4331 10.7865C15.4955 10.9479 15.5322 10.9589 15.5542 11.1826C15.5652 11.2743 15.6055 11.4284 15.5285 11.4797C15.4918 11.4944 15.4515 11.4981 15.4148 11.4797C15.3818 11.4577 15.3965 11.4761 15.3818 11.4211C15.3745 11.3917 15.3708 11.366 15.3708 11.333C15.3671 11.2303 15.3304 11.1313 15.3121 11.0249C15.3048 10.9772 15.2754 10.9406 15.2534 10.9002C15.2094 10.8122 15.1654 10.7352 15.1177 10.6655C15.0554 10.5811 14.9196 10.4637 14.8353 10.383L14.7399 10.2913C14.6042 10.1703 14.5198 10.0346 14.3621 9.93189C14.1237 9.77417 13.9843 9.58711 13.7863 9.38905C13.5845 9.19098 13.3535 9.05894 13.082 8.97458L12.8179 8.87187C12.6566 8.81686 12.2604 8.64813 12.1064 8.65914C11.8019 8.68114 11.4902 8.63713 11.1894 8.67014C11.0867 8.68114 10.9657 8.70682 10.852 8.70682C10.7272 8.70682 10.6062 8.70682 10.4815 8.70682C10.3164 8.70682 9.9093 8.6518 9.76992 8.69215C9.72958 8.70315 9.67456 8.72149 9.63054 8.73616C9.57553 8.75083 9.51684 8.7545 9.46916 8.76917C9.27476 8.8352 9.0987 8.87921 8.93731 8.97458C8.85662 9.02226 8.8016 9.08828 8.74292 9.14697C8.67689 9.20932 8.61821 9.26067 8.55218 9.33403C8.47149 9.42206 8.35412 9.51742 8.28076 9.61646C8.19273 9.73016 8.07169 9.81452 8.02401 9.92456C7.991 10.0016 7.97999 10.1703 8.02401 10.2327C8.26976 10.251 8.32111 10.119 8.43848 9.96491C8.6879 9.6348 8.53018 9.82919 8.76125 9.59078C8.83461 9.51375 8.97766 9.43306 9.06936 9.37437L9.44715 9.22766C9.53518 9.20565 9.64155 9.17631 9.72591 9.14697C9.86896 9.09562 9.86529 9.11029 10.0083 9.08094C10.1037 9.0626 10.1917 9.04427 10.3018 9.02959C10.4045 9.01492 10.5292 9.01492 10.6209 8.99658C10.7016 8.98191 10.8373 8.9599 10.9216 8.95257L11.2407 8.93056C11.3508 8.93056 11.4572 8.91956 11.5782 8.91956L11.8826 8.9489C12.0037 8.96357 12.077 8.96724 12.1871 9.00759C12.2311 9.02226 12.2824 9.02959 12.3264 9.0406C12.3705 9.05527 12.4035 9.07728 12.4438 9.09928C12.5428 9.15063 12.6529 9.17631 12.7372 9.24233C12.7629 9.26067 12.7519 9.257 12.7886 9.27901C12.9096 9.34503 13.1957 9.56144 13.2581 9.59078C13.2801 9.60545 13.2948 9.60545 13.3168 9.62012C13.4158 9.68615 13.5589 9.7375 13.6726 9.78518C13.7239 9.80719 13.7422 9.82553 13.7863 9.84386C13.944 9.90255 14.1164 9.98691 14.2484 10.0859C14.2888 10.119 14.3071 10.1336 14.3438 10.163C14.3658 10.1813 14.4245 10.2217 14.4391 10.24C14.4978 10.306 14.5602 10.35 14.6115 10.4161L14.7436 10.6398C14.7803 10.7242 14.8059 10.8049 14.8463 10.8892L14.9196 11.0763C14.9893 11.2157 15.0223 11.377 15.0994 11.5054C15.1324 11.5604 15.1104 11.6118 15.1324 11.6558C15.1434 11.6778 15.2534 11.7145 15.2828 11.7365C15.3341 11.7695 15.3671 11.8062 15.4001 11.8465C15.4221 11.8759 15.4295 11.8722 15.4405 11.9162C15.4662 12.0043 15.4808 12.14 15.4515 12.2207C15.3965 12.371 15.1984 12.4811 15.0994 12.5544C14.9123 12.6975 14.7619 12.7048 14.6042 12.8515L14.4355 13.0313C14.3585 13.123 14.2888 13.1743 14.2081 13.2623C14.1677 13.3027 14.142 13.3467 14.1054 13.387C14.01 13.5008 13.933 13.5704 13.8156 13.6621C13.7863 13.6841 13.7679 13.6915 13.7459 13.7098C13.6249 13.8162 13.4965 13.9299 13.3424 13.9922L13.0197 14.128C12.9573 14.1463 12.9206 14.1463 12.8363 14.1756C12.7739 14.1977 12.7299 14.2197 12.6712 14.238C12.6052 14.26 12.5502 14.2637 12.4915 14.2893C12.2641 14.3847 12.0734 14.4727 11.8386 14.5498C11.6992 14.5975 11.5709 14.5754 11.4131 14.5828C11.3545 14.4874 11.3655 14.4801 11.4131 14.381C11.4902 14.381 11.6039 14.3774 11.6772 14.37C11.7653 14.359 11.8533 14.326 11.9303 14.2893C11.9413 14.2857 11.9707 14.2747 11.978 14.271L12.1687 14.194C12.2201 14.1756 12.2237 14.1683 12.2678 14.15C12.2971 14.1353 12.3338 14.1316 12.3668 14.117C12.4181 14.0949 12.3961 14.0876 12.4622 14.0729C12.5502 14.0546 12.5979 14.0436 12.6749 14.0106C12.7483 13.9812 12.7996 13.9629 12.8803 13.9446C12.9757 13.9226 13.005 13.8969 13.0894 13.8712C13.2031 13.8345 13.2764 13.7758 13.3608 13.7428C13.4305 13.7135 13.4598 13.6695 13.5185 13.6291C13.5699 13.5924 13.6139 13.5374 13.6652 13.5044C13.7349 13.4641 13.8413 13.3834 13.8926 13.321C13.9513 13.2513 13.922 13.266 14.0137 13.1706L14.1457 13.0313C14.1861 12.9909 14.2668 12.9249 14.2741 12.8845C14.2594 12.8772 13.988 12.8699 13.9146 12.8552C13.7863 12.8295 13.6395 12.8405 13.5075 12.8405C13.3681 12.8405 13.2324 12.8295 13.1077 12.8295C13.0417 12.8295 12.9793 12.8259 12.9133 12.8149C12.8399 12.8075 12.7959 12.7892 12.7336 12.7782C12.6052 12.7562 12.4805 12.7562 12.3484 12.7488C12.1761 12.7415 11.7322 12.7048 11.5709 12.6791L11.2004 12.6241C11.1307 12.6168 11.083 12.6241 11.0133 12.6021C10.962 12.5874 10.9033 12.5691 10.8483 12.5581C10.7382 12.5324 10.6502 12.4737 10.5365 12.4481C10.3971 12.4151 10.3054 12.338 10.1954 12.2683C10.111 12.2133 10.0854 12.195 10.0157 12.1216C9.86896 11.9712 9.73324 11.8539 9.57919 11.7218C9.50217 11.6558 9.44348 11.5788 9.35178 11.5274C9.30777 11.5018 9.26009 11.4834 9.23074 11.4394C9.2014 11.3954 9.22341 11.3257 9.27843 11.2963C9.38846 11.2377 9.54618 11.4211 9.60854 11.4651C9.6929 11.5311 10.0377 11.8392 10.089 11.8979C10.1184 11.9309 10.122 11.9346 10.1514 11.9639C10.2101 12.0263 10.2211 12.0299 10.2981 12.0776C10.5952 12.2647 10.6025 12.2133 10.8263 12.3197C11.0427 12.4224 11.2628 12.3967 11.4902 12.4371C11.7946 12.4957 12.121 12.5214 12.4255 12.5324C12.5098 12.5361 12.5795 12.5471 12.6639 12.5508C12.8473 12.5581 12.95 12.6095 13.1334 12.6131C13.3021 12.6168 13.4672 12.6241 13.6359 12.6131C13.7936 12.6058 13.9697 12.6388 14.1164 12.6535C14.1934 12.6608 14.2888 12.6608 14.3658 12.6535C14.4355 12.6461 14.5125 12.6095 14.5675 12.5911C14.6299 12.5654 14.6886 12.5398 14.7472 12.5104C14.9453 12.4151 15.059 12.338 15.2167 12.195C15.2498 12.162 15.2498 12.1766 15.2571 12.1106C15.2754 11.9602 15.1324 11.8759 15.0994 11.8832C15.0627 11.9052 15.07 11.9199 15.0187 11.9492C14.9086 12.0153 14.7803 11.9712 14.6702 12.0226L14.1604 12.217C14.0907 12.2573 13.8853 12.2647 13.7973 12.2757C13.6102 12.2977 13.4415 12.294 13.2618 12.2757L12.8766 12.239C12.8289 12.2317 12.8216 12.2243 12.7593 12.217C12.6052 12.2023 12.4328 12.1583 12.2788 12.129C12.1724 12.1106 12.143 12.1106 12.0477 12.0776C12.0147 12.0666 11.9633 12.0629 11.934 12.0483L11.8386 12.0043C11.6626 11.9382 11.3691 11.8502 11.1821 11.8135C11.105 11.7989 11.039 11.7658 10.9693 11.7402C10.9143 11.7218 10.9143 11.7108 10.874 11.6925L10.3751 11.4834L10.2321 11.344C10.1807 11.2963 10.1294 11.2633 10.078 11.2157C10.0193 11.1606 10.0047 11.1313 9.93131 11.0799C9.6929 10.9076 9.42514 10.8635 9.13171 10.7498C9.02167 10.7095 8.86029 10.6251 8.75025 10.5664C8.69156 10.5371 8.60354 10.5114 8.54852 10.4857C8.45315 10.4454 8.43481 10.4161 8.36879 10.3757C8.22207 10.4197 7.98733 10.5004 7.88096 10.35C7.75625 10.1776 7.77459 10.0529 7.83695 9.8512C7.87362 9.73016 7.96165 9.6568 8.05335 9.57611C8.07903 9.5541 8.10103 9.51375 8.12304 9.48441L8.44215 9.15063C8.53384 9.04793 8.68056 8.91956 8.77959 8.8352C8.93365 8.70315 9.04368 8.69215 9.22708 8.62979C9.47649 8.54176 9.35178 8.57844 9.60487 8.51976C9.66722 8.50508 9.67823 8.49775 9.72591 8.47941C9.79927 8.45373 10.2688 8.46841 10.3641 8.47941C10.5695 8.50509 10.7896 8.48308 10.9913 8.47207C11.1931 8.46474 11.4168 8.4354 11.6112 8.43906C11.7653 8.44273 11.9303 8.46107 12.088 8.44273C12.132 8.43906 12.1834 8.42439 12.2201 8.42072C12.3741 8.40605 12.6749 8.4354 12.8399 8.4464C13.0417 8.46107 13.2764 8.4464 13.4818 8.4354C13.6395 8.42806 13.5552 8.39505 13.7679 8.4354C13.8449 8.45007 13.9843 8.45007 14.0687 8.4574C14.2741 8.47941 14.4061 8.55277 14.5272 8.6518L14.6996 8.80585C14.7362 8.8462 14.8133 8.95257 14.8683 8.95624C14.9306 8.84987 14.8169 8.64813 14.7693 8.5491L14.6739 8.37304C14.6372 8.31802 14.5895 8.26667 14.5675 8.19698C14.5382 8.09061 14.4868 8.08328 14.4208 7.92189L14.2631 7.69081C14.1824 7.57344 14.131 7.47441 14.0283 7.37171C13.9807 7.32402 13.933 7.27634 13.8853 7.23233C13.7753 7.12963 13.5845 6.90589 13.4672 6.82519L13.1334 6.59411C13.0233 6.52443 12.8986 6.4474 12.7776 6.39605C12.6602 6.3447 12.7116 6.34837 12.5539 6.33736C12.4732 6.33369 12.3705 6.33369 12.2934 6.32269C12.2127 6.31169 12.2494 6.29335 12.1944 6.28601C11.7983 6.23833 11.4058 6.23466 11.0097 6.20532C10.8409 6.19065 10.6465 6.22366 10.4778 6.23099C10.3898 6.23466 10.3164 6.25667 10.2284 6.264C10.0303 6.27501 9.85062 6.33369 9.65989 6.38505L9.44715 6.45473C9.35178 6.48408 9.24908 6.54643 9.17206 6.60145C9.12071 6.63813 9.06202 6.67848 9.01434 6.71515C8.95565 6.76284 8.94098 6.79952 8.86029 6.84353C8.77593 6.89121 8.66589 7.01959 8.56319 7.10028C8.51184 7.14063 8.45682 7.17731 8.4018 7.21032C8.33578 7.25433 8.22207 7.258 8.2074 7.16997C8.1854 7.04893 8.36879 6.99025 8.49717 6.89121C8.58886 6.81786 8.63655 6.73349 8.7099 6.68948C8.74291 6.67114 8.76125 6.6528 8.79427 6.63079C8.88963 6.56477 8.95932 6.47674 9.10604 6.38871C9.18673 6.33736 9.17573 6.33736 9.27843 6.28968C9.63421 6.12462 10.0267 6.08428 10.4118 6.02192L10.94 5.99258C11.138 5.99625 12.0587 6.04393 12.2347 6.09161C12.3411 6.12096 12.5025 6.13196 12.6162 6.13563C12.7226 6.1393 12.6455 5.99992 12.6199 5.83853C12.6015 5.72483 12.5098 5.56344 12.4512 5.4534C12.3888 5.33603 12.3191 5.19298 12.2421 5.09395L12.121 4.94356C12.0293 4.8482 11.7726 4.65013 11.6552 4.57311C11.4021 4.41172 11.1491 4.32002 10.8373 4.27234C10.6759 4.24667 10.4925 4.25033 10.3311 4.22099C9.99733 4.16597 9.60854 4.17698 9.27109 4.20265C8.96299 4.22833 8.83461 4.22099 8.53384 4.29802C8.41647 4.32736 8.42748 4.32736 8.33945 4.38605C8.22941 4.45574 8.11571 4.49241 7.98366 4.58411C7.78193 4.71982 7.77826 4.63179 7.49583 4.93256C7.44815 4.98391 7.40413 5.01325 7.36012 5.07928C7.32711 5.13063 7.2941 5.20032 7.25375 5.24433C7.18406 5.32136 6.94198 5.6588 6.90897 5.74683C6.8833 5.81652 6.85028 5.86054 6.81727 5.92656C6.78426 5.99625 6.74758 6.0476 6.71824 6.10995C6.63021 6.29702 6.48716 6.43273 6.34778 6.57578L6.08736 6.86921C6.02134 6.9389 6.02134 6.9609 5.96999 7.03426C5.93698 7.08194 5.89663 7.1553 5.85629 7.19198C5.72057 7.30202 5.84161 7.16631 5.72057 7.33503C5.67656 7.39738 5.63254 7.43039 5.58486 7.48174C5.55919 7.50742 5.54085 7.52576 5.51517 7.55143C5.4895 7.57344 5.46015 7.59178 5.44181 7.61746C5.39046 7.68348 5.41981 7.68348 5.32811 7.77518C5.28409 7.81919 5.24008 7.87054 5.21074 7.94023C5.17773 8.01359 5.14472 8.03193 5.1007 8.09795C5.05669 8.16764 5.04201 8.22633 4.998 8.27768C4.95765 8.32903 4.92097 8.37671 4.88796 8.43906C4.84028 8.5381 4.72291 8.68114 4.66055 8.78018L4.51384 9.04793C4.49183 9.10295 4.4845 9.09562 4.45882 9.13596C4.42214 9.20198 4.4038 9.26434 4.36712 9.32669C4.34878 9.35604 4.33411 9.37804 4.31944 9.40739C4.29376 9.45507 4.29376 9.44773 4.26442 9.49175C4.1984 9.59078 4.13238 9.75217 4.0847 9.86587C4.04802 9.9539 3.92698 10.1336 3.87563 10.2217C3.84628 10.2767 3.7876 10.339 3.76559 10.394C3.74358 10.4381 3.76192 10.4417 3.72891 10.4857L3.58953 10.7682C3.53818 10.9076 3.44648 11.0029 3.40614 11.1496C3.3878 11.223 3.34745 11.256 3.3071 11.3257C3.27409 11.3807 3.23741 11.4467 3.21541 11.5128C3.18239 11.6118 3.10904 11.6925 3.06135 11.7842C3.01367 11.8795 2.98066 11.9749 2.92564 12.0593L2.74225 12.4297C2.7129 12.4884 2.66889 12.5544 2.65422 12.6241C2.63588 12.7268 2.5992 12.7232 2.56986 12.8112C2.50383 13.0056 2.47816 12.9983 2.43781 13.1046L2.3131 13.4054C2.30577 13.4311 2.28376 13.4787 2.27643 13.4971C2.26542 13.5374 2.27276 13.5704 2.25075 13.6145C2.2104 13.7098 2.20674 13.7172 2.18473 13.8309C2.16272 13.9409 2.12604 14.0473 2.07469 14.1353C2.05268 14.172 1.994 14.3994 1.98299 14.4544C1.96832 14.5204 1.92798 14.5864 1.91697 14.6708C1.90597 14.7552 1.89863 14.7258 1.88396 14.7772C1.87663 14.8065 1.86929 14.8652 1.86562 14.8982C1.85829 14.9386 1.85829 14.9826 1.85095 15.0266C1.84361 15.0779 1.82528 15.0963 1.81794 15.133C1.80694 15.177 1.81794 15.2027 1.80694 15.254C1.76659 15.4521 1.79593 15.397 1.77759 15.5071C1.77026 15.5548 1.75925 15.5768 1.74825 15.6208C1.72991 15.6978 1.75192 15.7969 1.72624 15.8739C1.66022 16.0793 1.68223 16.1856 1.66756 16.226C1.64922 16.2883 1.63821 16.2333 1.63821 16.336C1.63821 16.4241 1.60887 16.4827 1.6052 16.5854C1.6052 16.8019 1.59053 16.7028 1.56852 16.8349L1.49517 17.1723C1.48416 17.2567 1.48416 17.352 1.46582 17.4254C1.45482 17.4731 1.46582 17.5098 1.45482 17.5574C1.4108 17.7262 1.44748 17.9132 1.4108 18.0783C1.39246 18.1626 1.40714 18.2507 1.38513 18.324C1.33011 18.5074 1.38513 18.7165 1.35212 18.8559C1.33745 18.9109 1.32277 18.8779 1.32277 18.9659C1.32277 19.0246 1.32277 19.0429 1.3081 19.0943C1.27876 19.2007 1.30443 19.2483 1.28976 19.3474C1.28243 19.3951 1.26776 19.4134 1.26042 19.4611C1.25308 19.5088 1.26042 19.5454 1.24942 19.5931C1.1944 19.8132 1.23108 19.6481 1.22007 19.8132C1.21274 19.9526 1.13204 20.1396 1.2054 20.2937L1.25308 20.6715C1.25308 20.7522 1.26776 20.7265 1.28243 20.7852C1.2971 20.8255 1.2861 20.8695 1.29343 20.9136C1.31177 21.0236 1.34478 21.1336 1.38513 21.2363C1.40347 21.2803 1.43281 21.4417 1.44381 21.4601C1.46582 21.5004 1.46949 21.4857 1.48783 21.5444C1.5025 21.5958 1.50617 21.6068 1.52818 21.6435C1.57953 21.7352 1.60887 21.8489 1.63821 21.9479L1.78493 22.2267C1.82161 22.2817 1.86929 22.3404 1.90964 22.3844C1.96099 22.4357 1.98299 22.4944 2.02701 22.5494C2.07469 22.6118 2.11137 22.6375 2.15539 22.6925C2.20307 22.7512 2.23975 22.7768 2.29476 22.8355C2.45982 23.0079 2.44148 22.9602 2.6102 23.0739L2.95499 23.283C3.02101 23.316 3.06135 23.3637 3.13471 23.3857C3.27042 23.4224 3.3878 23.4994 3.51617 23.5618L3.61887 23.5985C3.72524 23.6315 3.78026 23.7158 3.993 23.7892C4.02968 23.8039 4.06636 23.8039 4.10303 23.8185C4.23508 23.8772 4.35979 23.9176 4.5065 23.9689C4.57986 23.9946 4.65322 23.9983 4.73024 24.0276C4.78526 24.0496 4.87696 24.0459 4.96132 24.0789C5.05302 24.1156 5.28409 24.2073 5.38313 24.2147C5.42714 24.2183 5.47116 24.211 5.51517 24.2147C5.56285 24.2183 5.57386 24.2367 5.62521 24.244C5.6839 24.2513 5.6949 24.2403 5.74625 24.266C5.80493 24.2954 5.7866 24.2807 5.86362 24.2843C5.91864 24.288 5.92231 24.299 5.96999 24.31C6.01767 24.321 6.05802 24.31 6.10203 24.3174C6.15705 24.3247 6.15339 24.343 6.21207 24.3504C6.25609 24.354 6.30744 24.3467 6.35145 24.3504C6.39913 24.354 6.41014 24.3724 6.46516 24.3797C6.50917 24.387 6.55685 24.3834 6.60087 24.3834C6.71457 24.3834 6.74758 24.4164 6.84295 24.4237C6.97132 24.4347 7.1107 24.4164 7.23908 24.4457C7.41147 24.4824 7.72324 24.4017 7.8993 24.4824C7.91764 24.4897 9.14271 24.5228 9.26375 24.4787C9.38113 24.4384 9.64155 24.4311 9.76626 24.4274C9.86896 24.4237 9.8873 24.3834 10.0047 24.3834C10.1294 24.3834 10.2798 24.4017 10.3971 24.365C10.5035 24.332 12.0403 24.354 12.2127 24.3504C12.3008 24.3504 12.2861 24.3174 12.4401 24.3137C12.6896 24.3137 13.3351 24.343 13.5258 24.2733C13.5882 24.2513 13.6872 24.2367 13.7533 24.2183C13.8083 24.2037 13.9183 24.1743 13.9513 24.1486C13.977 24.1266 14.1127 24.0899 14.1604 24.0716C14.2998 24.0166 14.2448 24.0166 14.3585 23.9983C14.4135 23.9909 14.4171 23.9762 14.4538 23.9542C14.4868 23.9359 14.5198 23.9396 14.5602 23.9176C14.7583 23.8222 14.6812 23.8919 14.8536 23.6498L14.9637 23.4884C15.0847 23.327 15.147 23.3637 15.114 23.1216C15.0774 22.8612 15.1764 22.6265 15.0957 22.3514C15.0774 22.289 14.9196 22.0726 14.872 22.0103C14.8279 21.9552 14.8169 21.9002 14.7729 21.8342C14.6372 21.6178 14.5639 21.5848 14.3768 21.394C14.3291 21.3464 14.2888 21.3134 14.2447 21.2547C14.2117 21.207 14.1751 21.13 14.142 21.0749C14.0687 20.9502 14.0027 20.8145 14.0357 20.6348C14.0724 20.4404 14.0687 20.4111 14.2227 20.2643C14.4355 20.0589 14.7472 19.9379 15.048 20.0369C15.1067 20.0553 15.2021 20.0919 15.2387 20.1286C15.3121 20.2167 15.3121 20.2057 15.3525 20.29ZM17.7402 6.92789C17.6926 6.91689 17.7329 6.91689 17.6852 6.88755C17.6522 6.86921 17.6449 6.88021 17.6119 6.86187L17.4835 6.79585C17.4248 6.76284 17.3955 6.76284 17.3441 6.73716C17.2414 6.68581 17.3404 6.71882 17.2011 6.68581C17.003 6.6418 17.0213 6.63079 16.8966 6.60145C16.5262 6.50975 16.3061 6.44006 15.8843 6.4364C15.7523 6.43273 15.6349 6.42172 15.5028 6.42172C15.4441 6.42172 15.3891 6.4364 15.3304 6.44006C15.2644 6.44373 15.1984 6.44373 15.136 6.45107C15.0333 6.46574 14.916 6.49508 14.7986 6.50242L14.4722 6.57211C14.4355 6.58311 14.3805 6.60879 14.3291 6.62346C14.2924 6.63446 14.2888 6.6418 14.2631 6.65647C14.2337 6.67114 14.2154 6.66747 14.1824 6.67481C14.0797 6.69315 13.7826 6.82152 13.7056 6.7445C13.4745 6.51342 13.1664 6.34837 12.8803 6.18331C12.8803 6.06594 12.8363 5.7395 12.7923 5.6588C12.7593 5.60012 12.7262 5.52309 12.7006 5.44973C12.6639 5.35437 12.6052 5.30669 12.5979 5.237C12.6309 5.19665 12.906 5.02793 12.917 5.01692C12.9573 4.97658 12.928 4.98391 12.9867 4.95824C13.2104 4.85187 13.2324 4.75283 13.3645 4.65013C13.3865 4.63179 13.4195 4.61345 13.4378 4.59145C13.4598 4.56577 13.4855 4.5401 13.5075 4.52176C13.5515 4.48875 13.8303 4.37137 13.889 4.36404C13.9807 4.35303 13.933 4.34937 13.9953 4.33836C14.0393 4.33103 14.0797 4.32736 14.1237 4.32736L14.6666 4.33103C14.8426 4.34937 15.3525 4.3567 15.4221 4.38605C15.5725 4.4484 15.8183 4.58044 15.8843 4.60612C15.965 4.63913 15.921 4.62079 15.9687 4.66114L16.1557 4.7455C16.2364 4.77851 16.4125 4.89221 16.4822 4.9619C16.6509 5.12696 16.5959 5.05727 16.7316 5.25534L16.9883 5.60745C17.0213 5.63313 16.992 5.58911 17.0177 5.64046C17.0874 5.77251 17.2011 5.93023 17.2781 6.06594C17.3148 6.13196 17.3515 6.16864 17.3808 6.23466C17.4028 6.28968 17.4431 6.35937 17.4762 6.41072C17.5018 6.45474 17.5128 6.44006 17.5862 6.57211C17.6339 6.65647 17.6229 6.61245 17.6852 6.7445C17.7036 6.78851 17.7036 6.81052 17.7292 6.84353C17.7586 6.88021 17.7806 6.87287 17.7402 6.92789ZM14.1127 4.1513C13.9476 4.1513 13.7679 4.19898 13.6285 4.265C13.5368 4.30902 13.4562 4.3457 13.3791 4.40438C13.1627 4.5621 13.2104 4.55844 13.0747 4.68681C13.005 4.75283 12.9133 4.79318 12.8399 4.85554C12.7959 4.89221 12.5245 5.08294 12.4842 5.08294C12.4328 5.08294 12.4108 5.02426 12.3851 4.98758C12.3264 4.89588 12.1907 4.74183 12.0954 4.67948C12.0514 4.65013 12.022 4.62813 11.9853 4.59512C11.7286 4.38971 11.5415 4.27968 11.2371 4.16964C11.1564 4.1403 11.0757 4.12563 10.9877 4.11462C10.9693 4.11095 10.9253 4.10362 10.907 4.09995C10.6172 4.0486 10.3128 4.04493 10.0157 4.01192C9.87263 3.99725 9.59753 3.99358 9.45815 4.01559C9.34078 4.03393 9.20874 4.02292 9.08403 4.03393C9.02534 4.0376 8.97399 4.05594 8.91164 4.05594C8.61454 4.0596 8.4018 4.12929 8.15605 4.27601L7.77826 4.48508C7.73058 4.50709 7.69023 4.52543 7.64988 4.55477C7.56919 4.60979 7.51417 4.66114 7.44815 4.73083C7.13271 5.04627 7.28309 4.91422 7.09236 5.1563C6.93831 5.35437 6.7916 5.58178 6.67422 5.80552C6.61921 5.91189 6.58253 6.03293 6.49817 6.11729C6.42848 6.18331 6.37713 6.253 6.32211 6.33003C6.26342 6.40705 6.1974 6.4474 6.13871 6.52809C6.05802 6.63813 5.92964 6.72983 5.87096 6.8472C5.83061 6.92789 5.73891 7.07094 5.66922 7.13329C5.58486 7.20665 5.51517 7.29835 5.43081 7.38271C5.39413 7.41939 5.36846 7.44507 5.33178 7.48174C5.26576 7.54777 5.22174 7.62479 5.15205 7.69448C5.1007 7.74216 5.03468 7.8632 4.99066 7.92556C4.96499 7.96591 4.93931 8.00258 4.91364 8.04293C4.88796 8.08695 4.87329 8.12729 4.84395 8.16764L4.53585 8.62979C4.51017 8.67014 4.48083 8.70315 4.45515 8.74717C4.32311 8.98925 4.27543 9.11762 4.11771 9.37437C3.993 9.57978 3.90497 9.80719 3.78026 10.0163L3.43548 10.6398C3.41347 10.6838 3.40614 10.7315 3.37679 10.7755C3.32544 10.8599 3.28876 10.9442 3.24475 11.0323L2.97699 11.5494C2.95865 11.5861 2.92931 11.6375 2.90363 11.6741C2.84862 11.7585 2.81927 11.8429 2.77159 11.9346C2.74592 11.9822 2.72758 12.0153 2.7019 12.0593C2.56619 12.3344 2.51484 12.4261 2.3938 12.7158L2.33878 12.8589C2.29843 12.9542 2.23975 13.0203 2.2104 13.123C2.18473 13.2147 2.13338 13.299 2.10037 13.3944C2.08936 13.4237 2.08203 13.4421 2.07469 13.4641C2.06369 13.4934 2.06369 13.5118 2.05635 13.5448L1.92064 13.9959C1.9023 14.0509 1.88029 14.0729 1.86195 14.1316C1.7996 14.3554 1.71524 14.5901 1.67856 14.8139C1.67489 14.8395 1.66389 14.8652 1.65655 14.8909C1.64188 14.9459 1.65288 15.0046 1.63454 15.0633C1.62721 15.0853 1.61621 15.1036 1.60887 15.1366L1.58319 15.3054C1.57953 15.3934 1.58319 15.4998 1.56119 15.5768C1.55018 15.6245 1.54285 15.7015 1.53918 15.7492C1.53184 15.8592 1.4915 15.9582 1.47683 16.0646C1.46582 16.1563 1.48049 16.1563 1.45482 16.237C1.43648 16.2957 1.45115 16.3507 1.43281 16.4094C1.40714 16.4827 1.4108 16.4864 1.4108 16.5854C1.4108 16.7505 1.29343 17.1246 1.28976 17.2347C1.2861 17.3667 1.27876 17.319 1.27142 17.4107C1.26042 17.4951 1.26776 17.5061 1.24575 17.5831C1.21641 17.6895 1.23841 17.8105 1.23108 17.9169L1.2054 18.0856C1.1944 18.1443 1.20173 18.2287 1.1944 18.2727C1.16139 18.4671 1.16872 18.4121 1.16872 18.6285C1.16872 18.6798 1.16506 18.7642 1.15405 18.8082C1.12471 18.9219 1.13571 18.8485 1.12471 18.9769C1.12104 19.0356 1.09537 19.0759 1.0917 19.1383C1.08803 19.252 1.09903 19.2997 1.06969 19.4097C1.05135 19.4794 1.04768 19.5821 1.02568 19.6591C1.00734 19.7215 1.01834 19.7728 1.01467 19.8425C1.01834 19.9122 1 19.9379 1 20.0113L1.03668 20.5394C1.05135 20.5908 1.06235 20.6385 1.06602 20.6935C1.06969 20.7778 1.08436 20.7778 1.09537 20.8365C1.13571 21.0236 1.12471 21.0749 1.1944 21.2803C1.24575 21.4307 1.26409 21.5224 1.33378 21.6728C1.37046 21.7535 1.4108 21.8379 1.43648 21.9259C1.45115 21.9772 1.45849 22.0139 1.48416 22.0616C1.50617 22.1056 1.52451 22.1276 1.54652 22.1753C1.67122 22.4247 1.66756 22.3624 1.79593 22.5421C1.85829 22.6265 1.9133 22.7182 1.99033 22.7952C2.11137 22.9162 2.22141 23.0263 2.34978 23.1436C2.38646 23.1766 2.42681 23.1803 2.47449 23.206C2.51851 23.2317 2.54051 23.25 2.57719 23.2757C2.68356 23.349 2.80827 23.4077 2.91464 23.4811C3.05402 23.5728 3.14572 23.5764 3.27409 23.6461C3.35112 23.6901 3.42814 23.7378 3.5125 23.7672C3.57119 23.7892 3.5932 23.7855 3.64455 23.8222C3.71424 23.8735 3.79126 23.9176 3.87563 23.9506C3.91964 23.9689 3.96365 23.9762 4.00767 23.9909L4.26442 24.0899C4.40747 24.1376 4.54318 24.1596 4.67889 24.2183C4.73758 24.2403 4.77059 24.233 4.82561 24.244C5.01634 24.288 5.17773 24.4017 5.37579 24.3981C5.5005 24.3981 5.90397 24.5008 5.98466 24.5081C6.01767 24.5118 6.04702 24.5044 6.08003 24.5118C6.09837 24.5154 6.12404 24.5264 6.14605 24.5301C6.20474 24.5448 6.24141 24.5338 6.30744 24.5411C6.35879 24.5448 6.3918 24.5704 6.45048 24.5741C6.50917 24.5778 6.56786 24.5814 6.61554 24.5851C6.75492 24.5961 6.6889 24.5998 6.76959 24.6145C6.87963 24.6365 7.01167 24.6035 7.12171 24.6218C7.18406 24.6328 7.2024 24.6511 7.26476 24.6511C7.38213 24.6548 7.50684 24.6511 7.62421 24.6511C7.85162 24.6511 7.86262 24.6841 7.93965 24.6841H9.2014C9.27109 24.6841 9.29677 24.6511 9.3958 24.6511C9.47283 24.6511 9.52051 24.6328 9.59387 24.6218C9.66722 24.6108 9.74792 24.6255 9.81761 24.6181C9.85429 24.6145 9.86896 24.5998 9.8983 24.5924C10.0597 24.5521 10.2724 24.6071 10.4191 24.5558C10.5218 24.5191 10.7272 24.5411 10.852 24.5411H12.1871C12.2934 24.5411 12.3044 24.5154 12.3815 24.5081C12.5502 24.4971 13.0564 24.5081 13.2728 24.5081C13.3645 24.5081 13.7276 24.4201 13.8156 24.3907C13.8743 24.3724 13.944 24.3687 13.9953 24.343C14.1274 24.266 14.4135 24.189 14.4685 24.1523C14.5052 24.1303 14.5088 24.1303 14.5529 24.1156C14.5785 24.1046 14.5969 24.0936 14.6262 24.0826C14.9747 23.9066 15.0554 23.5691 15.1434 23.5471C15.1654 23.5434 15.1727 23.5434 15.1947 23.5434C15.2021 23.5764 15.2131 23.5911 15.2241 23.6205C15.2901 23.7892 15.3231 23.9396 15.4882 24.0386C15.5322 24.0643 15.5799 24.0863 15.6202 24.112C15.6716 24.145 15.6789 24.167 15.7376 24.1926L15.9833 24.3357C16.0127 24.354 16.0163 24.3614 16.0457 24.3797C16.1447 24.4421 16.2437 24.5044 16.3354 24.5814C16.3758 24.6145 16.4088 24.6328 16.4492 24.6621C16.5665 24.7392 16.8159 24.9189 16.9333 24.9702L17.2157 25.0913C17.3625 25.15 17.3881 25.139 17.5312 25.1646C17.6962 25.194 17.7109 25.2123 17.887 25.2123C17.9567 25.2123 17.9897 25.2307 18.0594 25.2343C18.2391 25.249 18.4298 25.2783 18.6132 25.2783C18.7929 25.2783 19.0167 25.2563 19.1927 25.2967C19.3064 25.3224 19.4495 25.3077 19.5705 25.3114C19.6402 25.315 19.6696 25.3334 19.7429 25.3334H20.1867L20.6709 25.2857C20.8176 25.26 20.9423 25.216 21.0817 25.1756C21.1551 25.1536 21.2211 25.139 21.2944 25.128C21.3861 25.1133 21.4155 25.0876 21.4998 25.0693C21.6355 25.0399 21.7676 24.9886 21.885 24.9336L22.0647 24.8529C22.1857 24.8052 22.2811 24.7245 22.3985 24.6658C22.5635 24.5814 22.5268 24.5888 22.6369 24.5118C22.6662 24.4934 22.6919 24.4824 22.7212 24.4641C22.89 24.3394 23 24.1376 23 23.9066C23 23.8552 22.8936 23.5508 22.8643 23.4958C22.7726 23.3124 22.7176 23.1143 22.6259 22.9309C22.5672 22.8099 22.4975 22.7145 22.4278 22.5971C22.3911 22.5384 22.3581 22.5018 22.3178 22.4467C22.1527 22.2193 22.138 21.9993 21.9436 21.7462C21.9033 21.6948 21.874 21.6435 21.8299 21.5884L21.5769 21.3097C21.4411 21.1776 21.2394 20.8219 20.979 20.5724L20.7002 20.3194C20.6746 20.2973 20.6415 20.2827 20.6159 20.2607L20.4031 20.0956C20.2931 20.0186 20.1904 19.9526 20.084 19.8829C19.9777 19.8095 19.8493 19.7618 19.7392 19.6958C19.5889 19.6041 19.4458 19.5711 19.3394 19.4244C19.3174 19.3914 19.3028 19.3804 19.2808 19.3547C19.0974 19.1346 19.2588 19.1163 19.4091 18.9256C19.5852 18.7018 19.6586 18.6395 19.7723 18.3644L19.8309 18.1957C19.864 18.0636 19.886 17.7518 19.8383 17.6198C19.8273 17.5904 19.7869 17.4988 19.7869 17.4657C19.7869 17.3997 19.9703 17.176 20.029 17.121C20.095 17.0586 20.1354 16.9779 20.1941 16.9046C20.3444 16.7175 20.3628 16.5891 20.3628 16.347C20.3628 16.259 20.2858 16.0866 20.2344 16.0206C20.1574 15.9216 20.0987 15.9729 20.3738 15.6098L20.5609 15.4081C20.6305 15.3457 20.7039 15.2907 20.7553 15.21C20.9056 14.9826 20.9937 14.8945 20.9937 14.5791C20.9937 14.4801 20.7956 14.0913 20.7479 14.0106C20.7112 13.9482 20.6526 13.8895 20.6049 13.8382C20.5535 13.7795 20.4838 13.7575 20.4582 13.6805C20.4435 13.6328 20.4325 13.5778 20.4141 13.5264C20.3628 13.3834 20.2858 13.2477 20.1904 13.1303C20.1611 13.0899 20.139 13.0533 20.106 13.0166C20.051 12.9579 19.974 12.8442 19.9153 12.7965C19.6402 12.5691 19.7062 12.5764 19.8566 12.4261C19.908 12.3747 19.941 12.3454 19.985 12.283C20.2491 11.9236 20.1207 12.1253 20.3004 11.7732C20.3371 11.6998 20.3518 11.6448 20.3628 11.5641C20.3921 11.3257 20.4361 11.201 20.3958 10.9479C20.3885 10.9039 20.3958 10.8672 20.3921 10.8232C20.3848 10.7425 20.3591 10.6765 20.3591 10.5848C20.3591 10.4307 20.3921 10.3207 20.3921 10.1703C20.3921 10.1336 20.3811 9.77784 20.3921 9.76684C20.4582 9.73383 20.4985 9.77784 20.5535 9.71182C20.5792 9.67881 20.5975 9.60912 20.5975 9.55043C20.5975 9.37804 20.4068 9.19832 20.2968 9.11396L19.7539 8.75817C19.6806 8.72149 19.5705 8.69215 19.5375 8.61879C19.4605 8.46474 19.3871 8.31069 19.2698 8.18231C19.2404 8.1493 19.2221 8.11996 19.1964 8.08328C19.1414 8.00625 18.925 7.77884 18.8516 7.70915C18.7673 7.62846 18.3308 7.32769 18.2281 7.258C18.1914 7.23233 18.1547 7.20665 18.118 7.18464C18.0887 7.16631 18.019 7.1443 18.0007 7.12596C17.964 7.09295 17.9787 7.02693 17.9677 6.97558C17.9053 6.71149 17.7476 6.49875 17.6119 6.26767C17.5899 6.22733 17.5715 6.19798 17.5495 6.15764L17.2781 5.71382C17.2194 5.59645 17.1314 5.49742 17.0544 5.39472C17.0287 5.35804 17.0103 5.32869 16.9847 5.29201C16.8856 5.1453 16.7939 5.02426 16.6692 4.89955C16.5482 4.77851 16.4088 4.67581 16.2548 4.59878L15.5248 4.23566C15.3635 4.16597 15.0664 4.17331 14.8683 4.17331C14.7583 4.17331 14.6666 4.1513 14.5418 4.1513H14.1127ZM8.64388 13.9189C8.73558 13.9739 8.73558 14.1023 8.64755 14.1243C8.61087 14.1316 8.51917 14.1206 8.47516 14.117C8.41647 14.117 8.36145 14.128 8.30277 14.128C8.07903 14.1316 7.90297 14.1756 7.69757 14.216C7.45915 14.2637 7.21341 14.4287 7.08136 14.6415C7.04468 14.7038 6.98966 14.8212 6.88696 14.7845C6.68156 14.7112 7.03001 14.348 7.12171 14.2783C7.15472 14.2527 7.18773 14.2233 7.21707 14.2013C7.37846 14.0729 7.64988 14.0033 7.85895 13.9702C7.9103 13.9629 7.93231 13.9482 8.002 13.9409C8.08269 13.9299 8.5962 13.8895 8.64388 13.9189ZM17.3808 12.7342C17.5385 12.7342 17.7146 12.7415 17.8613 12.7048C17.931 12.6865 18.063 12.6278 18.0887 12.7378C18.1034 12.8039 18.085 12.8369 18.0447 12.8589C18.0153 12.8772 17.9677 12.9029 17.931 12.9102C17.6229 12.9689 17.4175 12.9432 17.102 12.9249C17.1057 12.9396 17.2121 13.0239 17.2634 13.0899L17.4175 13.2843C17.5238 13.4237 17.7292 13.5888 17.8906 13.8419C17.9163 13.8822 17.9126 13.8785 17.931 13.9226C18.063 14.194 17.8613 14.172 17.8099 14.128C17.7659 14.0913 17.6962 13.9262 17.6339 13.8455C17.6155 13.8199 17.6045 13.8162 17.5825 13.7905C17.5092 13.6988 17.5789 13.7612 17.4798 13.6658L17.3074 13.4897C17.1204 13.288 17.113 13.1926 16.86 13.0166C16.7426 12.9359 16.8123 12.9726 16.7206 12.9286C16.6839 12.9102 16.5775 12.8185 16.4381 12.7525C16.3281 12.6975 16.2291 12.6755 16.13 12.5948C16.009 12.4957 16.119 12.349 16.2841 12.4407C16.3648 12.4847 16.882 12.6535 16.97 12.6755C17.003 12.6828 17.036 12.6828 17.0654 12.6901C17.1791 12.7085 17.2451 12.7342 17.3808 12.7342Z" fill="#000100"/>
</g>
</g>
<defs>
<clipPath id="clip0_4302_10969">
<rect width="24" height="24" fill="white"/>
</clipPath>
</defs>
</svg>
