<svg width="24" height="24" viewBox="0 0 24 24" fill="none" xmlns="http://www.w3.org/2000/svg">
<circle cx="12" cy="12" r="12" fill="#F00500"/>
<path d="M18.3707 11.4951C18.3598 11.5531 18.1893 11.7272 18.0189 11.8541C17.5183 12.2204 16.6225 12.5614 15.7121 12.7246C15.1935 12.8189 14.6748 12.8334 14.5189 12.7572C14.4173 12.7064 14.4028 12.6665 14.4391 12.536C14.5153 12.264 14.7619 11.9666 15.1463 11.6873C15.3422 11.5458 16.1365 11.0635 16.5064 10.8603C17.1158 10.5267 17.609 10.3272 17.9427 10.28C18.0479 10.2655 18.1748 10.2619 18.2147 10.28C18.28 10.3054 18.3525 10.4977 18.3816 10.7298C18.3961 10.8531 18.3888 11.3971 18.3707 11.4951Z" fill="black"/>
<path d="M9.82566 12.6956C9.8039 12.7391 9.69509 12.7862 9.57177 12.8044C9.44846 12.8225 9.07126 12.8116 8.85727 12.7862C8.08837 12.6847 7.27231 12.4489 6.6775 12.1588C6.34382 11.9956 6.10444 11.8324 5.92673 11.6546L5.82517 11.5495L5.81429 11.4116C5.79616 11.1723 5.79978 10.7951 5.8288 10.6609C5.84693 10.5484 5.88683 10.4396 5.94123 10.3417C5.97025 10.3054 5.97025 10.3054 6.10082 10.3054C6.2604 10.3054 6.3946 10.3308 6.61221 10.3997C7.05832 10.5375 7.72205 10.8712 8.53085 11.3572C9.1982 11.7562 9.44846 11.952 9.64069 12.2204C9.77126 12.3873 9.8583 12.623 9.82566 12.6956Z" fill="black"/>
<path d="M14.9614 17.7442C14.9614 17.7551 14.9178 17.9292 14.8634 18.1359C14.809 18.3427 14.7655 18.5095 14.7655 18.5168C14.7256 18.5204 14.6893 18.524 14.6494 18.5204H14.5334L14.3738 18.8976C14.2868 19.1043 14.207 19.2966 14.1961 19.3256L14.1743 19.3763L14.0982 19.253L14.022 19.1297V18.1251L13.993 18.1323C13.9313 18.1468 13.4925 18.2049 13.3002 18.223C12.5059 18.3028 11.708 18.2846 10.9173 18.1722C10.7904 18.1541 10.6816 18.1396 10.678 18.1432C10.6743 18.1468 10.678 18.3789 10.6852 18.6655L10.6961 19.1805L10.6345 19.2748C10.6018 19.3256 10.5692 19.3691 10.5692 19.3727C10.5583 19.3836 10.522 19.3256 10.4386 19.1587C10.3479 18.9846 10.2826 18.7997 10.2355 18.6074L10.2101 18.5023L10.0977 18.5095L9.98523 18.5204L9.95621 18.3862C9.94171 18.3137 9.92357 18.2012 9.91632 18.1396L9.90544 18.0235L9.81114 17.9401C9.75673 17.8929 9.70233 17.8458 9.69145 17.8385C9.67332 17.824 9.66606 17.7986 9.66606 17.7769V17.7334L10.1194 17.737L10.5728 17.7406L10.5873 17.7878L10.6018 17.8349L10.7578 17.8422C10.8448 17.8458 11.1205 17.853 11.3671 17.8603L11.8204 17.8712L11.9365 17.6898L12.0562 17.5085H12.2085L12.2049 17.1313L12.2013 16.7541L12.0018 16.667C11.3598 16.3841 10.9826 16.0613 10.8412 15.6696C10.8122 15.5898 10.8122 15.5608 10.8049 15.1981C10.8013 14.8391 10.8013 14.8064 10.8267 14.7266C10.8775 14.5453 11.0189 14.4038 11.2002 14.3567C11.2619 14.3386 11.4251 14.3386 12.2811 14.3386L13.2894 14.3422L13.4018 14.3966C13.536 14.4619 13.5976 14.509 13.6738 14.6106C13.7608 14.7266 13.7862 14.8173 13.7862 15.0386C13.7862 15.3541 13.7645 15.6261 13.7318 15.7349C13.6847 15.8836 13.6121 16.0251 13.5215 16.152C13.3401 16.3841 13.0101 16.6163 12.709 16.7214L12.622 16.7541L12.6256 17.1349L12.6293 17.5157L12.709 17.523L12.7888 17.5302L12.8976 17.6935L13.0028 17.8567H13.4888C13.7572 17.8567 13.993 17.8603 14.0147 17.8639C14.051 17.8712 14.0583 17.8676 14.0945 17.8059L14.138 17.7406H14.5551C14.8671 17.7261 14.9614 17.7334 14.9614 17.7442Z" fill="black"/>
<path d="M13.0464 18.7852C12.9775 18.8251 12.9303 18.8432 12.9194 18.8359C12.9085 18.8323 12.8578 18.7888 12.8034 18.7489L12.7054 18.6691L12.6039 18.7779C12.3826 19.0173 12.3754 19.0282 12.3101 19.0318C12.2085 19.0427 12.1868 19.0245 12.0635 18.8396C11.9982 18.7453 11.9474 18.6655 11.9474 18.6655C11.9474 18.6655 11.9003 18.6582 11.8459 18.6546L11.7443 18.6437L11.6971 18.7416L11.65 18.8396L11.5666 18.8142C11.5013 18.7924 11.436 18.767 11.3744 18.738L11.2655 18.6836V18.4769L12.2303 18.4805L13.1951 18.4841L13.1987 18.582C13.2023 18.6981 13.2059 18.6945 13.0464 18.7852Z" fill="black"/>
<path d="M22.1136 14.3603C22.11 14.3458 22.11 14.3204 22.1064 14.2805C21.2359 14.1862 18.7515 14.1282 16.4448 16.0323C16.4448 16.0323 15.7013 12.623 12.2194 12.623C8.73758 12.623 7.4464 16.0323 7.4464 16.0323C5.49512 13.9323 2.88374 14.0847 1.94075 14.2225C1.94075 14.2442 1.93712 14.2696 1.93712 14.2914C1.9081 14.8173 1.92261 15.0676 2.00966 15.3976C2.28168 16.4313 3.11949 17.5701 4.43244 18.6872C6.5832 20.5152 9.49924 21.8354 11.708 21.9877C14.0111 22.1437 17.4095 20.7981 19.6727 18.8323C20.0282 18.5168 20.3618 18.1831 20.6738 17.8276C20.8986 17.5665 21.2323 17.1168 21.2069 17.1168C21.1997 17.1168 21.2069 17.1095 21.2214 17.1023C21.2323 17.095 21.2432 17.0841 21.2359 17.0769C21.2323 17.0732 21.2396 17.0624 21.2504 17.0587C21.2613 17.0551 21.2686 17.0479 21.2649 17.0406C21.2613 17.0333 21.2649 17.0261 21.2795 17.0225C21.2903 17.0188 21.294 17.008 21.2903 17.0007C21.2867 16.9934 21.2903 16.9862 21.2976 16.9862C21.3048 16.9862 21.3121 16.9753 21.3121 16.9681C21.3121 16.9608 21.3194 16.9499 21.3266 16.9499C21.3339 16.9499 21.3411 16.9427 21.3411 16.9354C21.352 16.9064 21.3701 16.8774 21.3883 16.852C21.4427 16.7686 21.6603 16.3805 21.6893 16.3152C21.896 15.8473 22.0266 15.4302 22.0883 15.0132C22.11 14.8137 22.1282 14.4474 22.1136 14.3603ZM13.0464 18.7851C12.9774 18.825 12.9303 18.8432 12.9194 18.8359C12.9085 18.8323 12.8578 18.7888 12.8034 18.7489L12.7054 18.6691L12.6039 18.7779C12.3826 19.0173 12.3754 19.0281 12.3101 19.0318C12.2085 19.0427 12.1868 19.0245 12.0635 18.8395C11.9982 18.7452 11.9474 18.6655 11.9474 18.6655C11.9474 18.6655 11.9003 18.6582 11.8459 18.6546L11.7443 18.6437L11.6971 18.7416L11.65 18.8395L11.5666 18.8142C11.5013 18.7924 11.436 18.767 11.3744 18.738L11.2655 18.6836V18.4769L12.2303 18.4805L13.1951 18.4841L13.1987 18.582C13.2023 18.6981 13.2059 18.6945 13.0464 18.7851ZM14.8598 18.1323C14.8054 18.339 14.7619 18.5059 14.7619 18.5131C14.722 18.5168 14.6857 18.5204 14.6458 18.5168H14.5298L14.3738 18.8976C14.2868 19.1043 14.207 19.2965 14.1961 19.3256L14.1743 19.3763L14.0982 19.253L14.022 19.1297V18.125L13.993 18.1323C13.9313 18.1468 13.4925 18.2048 13.3002 18.223C12.5059 18.3028 11.708 18.2846 10.9174 18.1722C10.7904 18.1541 10.6816 18.1396 10.678 18.1432C10.6744 18.1468 10.678 18.3789 10.6852 18.6655L10.6961 19.1805L10.6345 19.2748C10.6018 19.3256 10.5692 19.3691 10.5692 19.3727C10.5583 19.3836 10.522 19.3256 10.4386 19.1587C10.3479 18.9846 10.2827 18.7997 10.2355 18.6074L10.2101 18.5022L10.0977 18.5095L9.98524 18.5204L9.95623 18.3862C9.94172 18.3136 9.92358 18.2012 9.91633 18.1396L9.90545 18.0235L9.81115 17.9401C9.75675 17.8929 9.70234 17.8458 9.69146 17.8385C9.67333 17.824 9.66607 17.7986 9.66607 17.7769V17.7333L10.1194 17.737L10.5728 17.7406L10.5873 17.7877L10.6018 17.8349L10.7578 17.8421C10.8448 17.8458 11.1205 17.853 11.3671 17.8603L11.8205 17.8712L11.9365 17.6898L12.0562 17.5085H12.2085L12.2049 17.1313L12.2013 16.7541L12.0018 16.667C11.3598 16.3841 10.9826 16.0613 10.8412 15.6696C10.8122 15.5898 10.8122 15.5608 10.8049 15.1981C10.8013 14.8391 10.8013 14.8064 10.8267 14.7266C10.8775 14.5453 11.0189 14.4038 11.2003 14.3567C11.2619 14.3385 11.4251 14.3385 12.2811 14.3385L13.2894 14.3422L13.4018 14.3966C13.536 14.4619 13.5976 14.509 13.6738 14.6106C13.7609 14.7266 13.7863 14.8173 13.7863 15.0385C13.7863 15.3541 13.7645 15.6261 13.7318 15.7349C13.6847 15.8836 13.6122 16.0251 13.5215 16.152C13.3401 16.3841 13.0101 16.6162 12.7091 16.7214L12.622 16.7541L12.6256 17.1349L12.6293 17.5157L12.7091 17.523L12.7888 17.5302L12.8977 17.6934L13.0028 17.8567H13.4888C13.7572 17.8567 13.993 17.8603 14.0147 17.8639C14.051 17.8712 14.0583 17.8675 14.0945 17.8059L14.1381 17.7406H14.5552C14.878 17.7406 14.9722 17.7442 14.9722 17.7551C14.9614 17.7515 14.9142 17.9292 14.8598 18.1323Z" fill="white"/>
<path d="M22.0846 13.9904C22.0774 13.8272 22.0629 13.5987 22.052 13.4862C21.896 11.8396 21.4753 10.494 20.6774 9.06864C20.6447 9.01424 20.6157 8.95984 20.5976 8.91631C20.5903 8.90543 20.5867 8.89455 20.5831 8.8873C20.6955 8.55 21.1561 7.13913 21.5225 5.52515C22.0193 3.33449 22.3349 0.77389 21.3701 0.00498426C21.3701 0.00498426 19.7017 -0.118331 17.4676 2.07233C16.8619 2.67802 16.3069 3.33449 15.8137 4.03449L15.6577 3.98371C14.7583 3.68993 13.8261 3.50858 12.8868 3.44693C12.6039 3.42516 11.5484 3.42516 11.2039 3.44693C10.163 3.51584 9.36504 3.67179 8.45831 3.98734C8.42204 4.00184 8.38939 4.01272 8.35675 4.02361C7.84536 3.32724 7.27593 2.67439 6.64848 2.07595C4.32362 -0.125584 2.59359 0.00135713 2.59359 0.00135713C1.5708 0.795651 1.91898 3.47231 2.44851 5.73551C2.79669 7.23343 3.22467 8.55 3.38425 9.02512C3.37337 9.05051 3.35887 9.07952 3.34436 9.10491C2.49929 10.8168 2.04229 12.4671 1.93349 14.2225C2.88011 14.0847 5.48786 13.9287 7.44277 16.0323C7.44277 16.0323 8.73395 12.623 12.2158 12.623C15.6976 12.623 16.4411 16.0323 16.4411 16.0323C18.7479 14.1282 21.2323 14.1898 22.1028 14.2805C22.0991 14.208 22.0919 14.0992 22.0846 13.9904ZM4.06974 7.65777C4.06974 7.65777 2.71327 4.26661 3.06146 2.32984C3.11949 2.00341 3.2283 1.71689 3.39876 1.49927C3.39876 1.49927 4.93657 1.6516 7.41738 4.40806C7.41738 4.40806 6.94588 4.63655 6.3148 5.12256C6.3148 5.12256 6.31117 5.12619 6.30755 5.12619C5.62206 5.65209 4.74435 6.48628 4.06974 7.65777ZM9.82565 12.6956C9.80389 12.7391 9.69508 12.7862 9.57177 12.8044C9.44845 12.8225 9.07126 12.8116 8.85727 12.7862C8.08836 12.6847 7.27231 12.4489 6.67749 12.1588C6.34382 11.9956 6.10444 11.8324 5.92672 11.6546L5.82517 11.5495L5.81429 11.4116C5.79615 11.1723 5.79978 10.7951 5.82879 10.6609C5.84693 10.5484 5.88682 10.4396 5.94123 10.3417C5.97024 10.3054 5.97024 10.3054 6.10081 10.3054C6.2604 10.3054 6.39459 10.3308 6.61221 10.3997C7.05832 10.5375 7.72204 10.8712 8.53085 11.3572C9.1982 11.7562 9.44845 11.952 9.64068 12.2204C9.77125 12.3873 9.85829 12.623 9.82565 12.6956ZM18.3707 11.4951C18.3598 11.5531 18.1893 11.7272 18.0189 11.8541C17.5183 12.2204 16.6225 12.5614 15.7121 12.7246C15.1935 12.8189 14.6748 12.8334 14.5189 12.7572C14.4173 12.7064 14.4028 12.6665 14.4391 12.536C14.5153 12.264 14.7619 11.9665 15.1463 11.6873C15.3422 11.5458 16.1365 11.0634 16.5064 10.8603C17.1158 10.5267 17.609 10.3272 17.9427 10.28C18.0479 10.2655 18.1748 10.2619 18.2147 10.28C18.28 10.3054 18.3525 10.4976 18.3815 10.7298C18.3961 10.8531 18.3888 11.3971 18.3707 11.4951ZM17.7686 5.12256L17.7613 5.11893C17.152 4.63293 16.695 4.40443 16.695 4.40443C19.0924 1.64798 20.5758 1.49565 20.5758 1.49565C20.739 1.71689 20.8442 1.99979 20.9023 2.32621C21.2396 4.26298 19.9302 7.65777 19.9302 7.65777C19.3826 6.68213 18.6463 5.81893 17.7686 5.12256Z" fill="#FFA409"/>
<path d="M20.9059 2.3262C20.623 2.28993 19.2846 2.28268 17.7686 5.12255L17.7613 5.11892C17.152 4.63292 16.695 4.40442 16.695 4.40442C19.0924 1.64797 20.5758 1.49564 20.5758 1.49564C20.7427 1.71688 20.8478 1.99978 20.9059 2.3262Z" fill="#FF9300"/>
<path d="M19.9339 7.6578C19.3826 6.67853 18.6499 5.81895 17.7686 5.12259C19.2847 2.28271 20.6194 2.28997 20.9059 2.32624C21.2432 4.26663 19.9339 7.6578 19.9339 7.6578Z" fill="#FF8300"/>
<path d="M20.9603 2.33708C20.9422 2.33346 20.924 2.32983 20.9059 2.3262L20.9603 2.33708Z" fill="#FF8300"/>
<path d="M7.41738 4.40442C7.41738 4.40442 6.94589 4.63292 6.3148 5.11892C6.3148 5.11892 6.31117 5.12255 6.30755 5.12255C4.73709 2.27905 3.35524 2.28993 3.05783 2.3262C3.11586 1.99978 3.22467 1.71325 3.39514 1.49564C3.39876 1.49564 4.93657 1.64797 7.41738 4.40442Z" fill="#FF9300"/>
<path d="M6.31119 5.12259C5.62207 5.65212 4.74436 6.48268 4.06976 7.6578C4.06976 7.6578 2.71329 4.26663 3.06147 2.32624C3.35525 2.28997 4.74073 2.28271 6.31119 5.12259Z" fill="#FF8300"/>
<path d="M3.06146 2.3262C3.04333 2.32983 3.02157 2.33346 3.00343 2.33708L3.06146 2.3262Z" fill="#FF8300"/>
<path d="M16.2634 9.54016C16.2634 9.54016 15.1028 9.6127 15.2479 8.70597C15.393 7.79924 16.2997 7.69043 16.5536 7.7267C16.8075 7.76297 17.823 8.12566 17.6417 8.88732C17.4603 9.64897 17.2064 9.50389 17.0614 9.54016C16.9163 9.57643 16.2634 9.54016 16.2634 9.54016Z" fill="white"/>
<path d="M7.70391 9.54016C7.70391 9.54016 6.5433 9.6127 6.68838 8.70597C6.83345 7.79924 7.74018 7.69043 7.99407 7.7267C8.24795 7.76297 9.26349 8.12566 9.08214 8.88732C8.90079 9.64897 8.64691 9.50389 8.50183 9.54016C8.35676 9.57643 7.70391 9.54016 7.70391 9.54016Z" fill="white"/>
</svg>
