<svg width="24" height="24" viewBox="0 0 24 24" fill="none" xmlns="http://www.w3.org/2000/svg">
<path d="M19.5657 6.18072V7.27078H11.3124V6.18072H14.9675C14.7822 5.56022 14.5801 4.99003 14.3779 4.48693L15.5401 4.28569C15.7423 4.85587 15.9275 5.47637 16.1128 6.18072H19.5657Z" fill="white"/>
<path fill-rule="evenodd" clip-rule="evenodd" d="M10.7229 8.41115V15.3708H5.18144V8.88072C4.97932 9.09873 4.76035 9.29997 4.54139 9.50121L4.28874 8.31053C5.34987 7.28755 6.14151 5.9627 6.64682 4.31923L7.72479 4.65463C7.59005 5.0068 7.4553 5.34221 7.30371 5.67761H10.0829V6.48258C9.72916 7.25401 9.37545 7.89128 9.02174 8.41115H10.7229ZM5.60252 8.41115H7.85954C8.2301 7.90805 8.58381 7.30432 8.95436 6.63351H6.83209C6.46154 7.27078 6.04045 7.87451 5.60252 8.41115ZM6.22573 11.3962H7.47214V9.40059H6.22573V11.3962ZM8.44906 11.3962H9.67863V9.40059H8.44906V11.3962ZM8.44906 14.3646H9.67863V12.3689H8.44906V14.3646ZM6.22573 14.3646H7.47214V12.3689H6.22573V14.3646Z" fill="white"/>
<path fill-rule="evenodd" clip-rule="evenodd" d="M16.0791 18.3223C16.0791 19.2447 15.6412 19.7143 14.799 19.7143H13.4347L13.1989 18.5907C13.6031 18.641 14.0074 18.6745 14.3948 18.6745C14.7317 18.6745 14.9001 18.4565 14.9001 18.0372V13.5428H12.2051V8.7801H18.7572V13.5428H16.0791V18.3223ZM13.3505 12.4863H17.6119V9.85339H13.3505V12.4863Z" fill="white"/>
<path d="M19.7173 18.3223L18.8246 18.9428C18.353 17.7857 17.6961 16.5112 16.8876 15.1192L17.7803 14.5826C18.6225 16.008 19.2625 17.249 19.7173 18.3223Z" fill="white"/>
<path d="M13.6874 15.1192C13.1484 16.6956 12.5083 18.0708 11.7672 19.2279L10.8577 18.5739C11.5651 17.4671 12.1883 16.159 12.7104 14.6497L13.6874 15.1192Z" fill="white"/>
<path d="M11.1945 17.8863L10.3692 18.0875C10.1671 17.3664 9.93128 16.6789 9.66179 16.008L10.4534 15.7733C10.7229 16.377 10.9587 17.0813 11.1945 17.8863Z" fill="white"/>
<path d="M9.45967 18.9596L8.58381 19.0602C8.49959 17.7521 8.33116 16.7459 8.06166 16.0416L8.90383 15.941C9.17333 16.6789 9.35861 17.6851 9.45967 18.9596Z" fill="white"/>
<path d="M6.04045 16.1254C5.93939 17.4 5.72043 18.5236 5.36672 19.513L4.44033 19.2279C4.81088 18.2888 5.04669 17.2155 5.13091 16.008L6.04045 16.1254Z" fill="white"/>
<path d="M7.65742 19.2112L6.78156 19.3118C6.74788 17.9534 6.69735 16.8969 6.61313 16.159L7.42161 16.0584C7.53952 16.8298 7.62373 17.8863 7.65742 19.2112Z" fill="white"/>
<path fill-rule="evenodd" clip-rule="evenodd" d="M24 12C24 5.37258 18.6274 0 12 0C5.37258 0 0 5.37258 0 12C0 18.6274 5.37258 24 12 24C18.6274 24 24 18.6274 24 12ZM0.847058 12C0.847058 5.8404 5.8404 0.847058 12 0.847058C18.1596 0.847058 23.1529 5.8404 23.1529 12C23.1529 18.1596 18.1596 23.1529 12 23.1529C5.8404 23.1529 0.847058 18.1596 0.847058 12Z" fill="white"/>
</svg>
