<svg width="24" height="24" viewBox="0 0 24 24" fill="none" xmlns="http://www.w3.org/2000/svg">
<g clip-path="url(#clip0_5465_1709)">
<path d="M24 12C24 5.37258 18.6274 0 12 0C5.37258 0 0 5.37258 0 12C0 18.6274 5.37258 24 12 24C18.6274 24 24 18.6274 24 12Z" fill="#162E2F"/>
<mask id="mask0_5465_1709" style="mask-type:alpha" maskUnits="userSpaceOnUse" x="0" y="0" width="25" height="25">
<path d="M12.3707 24.0127C18.9981 24.0127 24.3707 18.6401 24.3707 12.0127C24.3707 5.38528 18.9981 0.0126953 12.3707 0.0126953C5.74325 0.0126953 0.370667 5.38528 0.370667 12.0127C0.370667 18.6401 5.74325 24.0127 12.3707 24.0127Z" fill="#D9D9D9"/>
</mask>
<g mask="url(#mask0_5465_1709)">
<path d="M-4.49445 5.51892H12.585L12.6121 7.30965L14.0711 8.01259L15.0591 9.10037V13.8033V15.0269L14.0711 16.1714L12.585 17.0944V18.5062H-4.49445V5.51892Z" fill="url(#paint0_linear_5465_1709)"/>
<path d="M10.5942 7.52954H0.0324707V16.4839H10.5942V7.52954Z" fill="url(#paint1_linear_5465_1709)"/>
</g>
<path fill-rule="evenodd" clip-rule="evenodd" d="M13.3207 6.59691C15.1578 6.75985 16.6123 7.33034 16.7737 9.03012L16.7746 9.0296C16.8948 10.2737 16.3789 11.0188 15.5538 11.4442C16.9117 11.7752 17.7621 12.5886 17.5934 14.4131C17.3855 16.6782 15.7103 17.2853 13.3182 17.4228V18.4928H11.8954V17.4546C11.5266 17.4552 11.1487 17.4517 10.7589 17.4432V18.4925H9.33738V17.4177C9.00494 17.4156 7.47121 17.4088 7.12659 17.4088L7.1371 16.1618H8.32373V7.87157L7.13664 7.86483L7.14092 6.5999C7.14092 6.5999 9.03284 6.60152 9.34068 6.59562V5.5072H10.7623V6.5493C11.1424 6.54204 11.5245 6.53484 11.8984 6.53484V5.50803H13.3207V6.59691ZM11.0684 15.7102C12.2338 15.727 14.7806 15.7637 14.7806 14.1284H14.7793C14.779 12.4556 12.3291 12.5137 11.136 12.542C11.0038 12.5451 10.8869 12.5479 10.7906 12.5479V15.7072C10.8701 15.7072 10.9635 15.7086 11.0684 15.7102ZM11.0276 11.1046C12.0005 11.1208 14.1204 11.1565 14.1204 9.6704C14.1213 8.15062 12.0833 8.204 11.0861 8.23034C10.9736 8.23326 10.8742 8.23572 10.7927 8.23572V11.1017C10.8598 11.1017 10.9389 11.1031 11.0276 11.1046Z" fill="#C3FCF1"/>
</g>
<defs>
<linearGradient id="paint0_linear_5465_1709" x1="15.0591" y1="12.2385" x2="0.325442" y2="12.0125" gradientUnits="userSpaceOnUse">
<stop stop-color="#498E85"/>
<stop offset="1" stop-color="#32645F"/>
</linearGradient>
<linearGradient id="paint1_linear_5465_1709" x1="0.0324708" y1="12.466" x2="14.4601" y2="12.7633" gradientUnits="userSpaceOnUse">
<stop stop-color="#2F5D59"/>
<stop offset="1" stop-color="#3F8078"/>
</linearGradient>
<clipPath id="clip0_5465_1709">
<rect width="24" height="24" fill="white"/>
</clipPath>
</defs>
</svg>
