<svg width="24" height="24" viewBox="0 0 24 24" fill="none" xmlns="http://www.w3.org/2000/svg">
<path d="M22.6159 12.1933C22.62 11.2214 22.3786 10.2631 21.9123 9.40127C21.9123 9.74828 21.8306 10.119 21.7814 10.4897C21.6833 11.2232 21.5687 11.9882 21.3887 12.8085C21.1597 13.818 20.898 14.7407 20.6199 15.569L20.898 15.4506L21.4625 15.2061C21.4625 15.3559 21.397 15.569 21.3316 15.8133C21.2816 15.9591 21.2213 16.1015 21.1516 16.2393C21.0862 16.3892 21.0125 16.531 20.9388 16.673C20.8653 16.815 20.7997 16.9254 20.7261 17.0517C20.5434 17.3521 20.3384 17.6395 20.1126 17.9113C18.9981 19.2449 17.4143 20.1374 15.6624 20.4194H15.466C15.3144 20.4437 15.1613 20.4596 15.0079 20.4667H14.8198C13.6126 20.4712 12.4214 20.2009 11.3429 19.678C10.3363 19.1952 9.46689 18.4833 8.80978 17.6038C8.15267 16.7244 7.72766 15.7038 7.57157 14.6305C7.57157 14.4096 7.53066 14.1965 7.52248 13.9836C7.52248 13.9363 7.52248 13.8889 7.52248 13.8417C7.52819 13.03 7.69475 12.2269 8.01341 11.4755C8.37022 10.5646 8.97054 9.76093 9.75359 9.14596C10.5366 8.53099 11.4744 8.12653 12.4718 7.97376C12.1781 8.21556 11.9046 8.47924 11.6538 8.76242C11.5586 8.83833 11.4806 8.93231 11.4247 9.03847L14.8606 8.65988H14.9833C16.2911 8.70858 17.5619 9.09241 18.6647 9.77197L19.54 8.92803L19.7281 9.49592L19.8181 9.77197C19.9887 9.4455 20.1364 9.1082 20.2598 8.76242C20.3171 8.6126 20.3745 8.447 20.4234 8.27349C20.5384 7.90223 20.6204 7.5223 20.6689 7.13772C20.6811 6.93283 20.6811 6.72746 20.6689 6.52256C20.5215 6.62957 20.3553 6.70976 20.1781 6.75913C20.0686 6.78824 19.956 6.80413 19.8427 6.8065C19.7132 6.8125 19.5835 6.79918 19.4581 6.76703C19.1174 6.6681 18.8134 6.47633 18.5828 6.21493C18.4118 6.02488 18.2613 5.81875 18.133 5.59977C17.8711 4.81111 14.9425 3.95928 12.6927 2.70524C12.0566 2.3696 11.4681 1.95603 10.9421 1.47486C10.5109 1.08161 10.2238 0.564051 10.124 0C10.1258 0.0183492 10.1258 0.0368508 10.124 0.0552191C10.124 0.0552191 10.124 0.0552189 10.124 0.102533C10.1192 0.133905 10.1192 0.16579 10.124 0.197162C10.1192 0.215273 10.1192 0.234269 10.124 0.25238C10.124 0.291818 10.124 0.331247 10.0831 0.370685C10.0869 0.399479 10.0869 0.428643 10.0831 0.457456C10.0831 0.50477 10.0831 0.54419 10.0831 0.591523C10.087 0.625596 10.087 0.659983 10.0831 0.694056V0.843903C10.0871 0.883246 10.0871 0.922865 10.0831 0.962208C10.0831 1.01743 10.0831 1.06476 10.0831 1.12786C10.079 1.16982 10.079 1.21206 10.0831 1.25403V1.42753C10.0791 1.47477 10.0791 1.52226 10.0831 1.56951C10.0831 1.62473 10.0831 1.68781 10.0831 1.75089C10.0831 1.81401 10.0831 1.84557 10.0831 1.89288L10.1322 2.08217L10.1813 2.23202L10.2549 2.42131C10.279 2.47284 10.3063 2.52288 10.3367 2.57116C10.3367 2.63425 10.394 2.69735 10.4349 2.76044L10.5494 2.91029C10.5882 2.97381 10.632 3.03445 10.6803 3.09171C10.7212 3.1469 10.7784 3.19422 10.8275 3.24943L10.9911 3.41508L11.1466 3.53337C11.2123 3.59212 11.2836 3.64494 11.3593 3.69111L11.5801 3.83308L11.7765 3.95138L11.891 4.01445L9.96857 3.16268L9.01144 2.73678C9.09801 3.11238 9.24716 3.47199 9.4532 3.80152C9.54975 3.96689 9.65923 4.12508 9.78042 4.27471C9.78042 4.27471 5.69003 4.14857 3.43219 7.25606H3.57126C3.80384 7.24293 4.03251 7.31808 4.2083 7.46552C4.38418 7.61296 4.49319 7.8208 4.51203 8.04472C4.52068 8.12605 4.52068 8.20795 4.51203 8.28919C4.51954 8.35206 4.51954 8.41561 4.51203 8.47848C4.38932 8.68357 4.27479 8.89655 4.16026 9.10943C4.04573 9.32241 3.62852 9.75618 3.29312 10.1348C3.07224 10.3792 2.85137 10.6317 2.63045 10.9234C1.88707 11.7737 1.41035 12.8107 1.25611 13.9126C1.24796 14.0307 1.24796 14.1493 1.25611 14.2675C1.36549 14.2006 1.48042 14.1427 1.5997 14.094H1.68149H1.74695C1.88286 14.0554 2.02741 14.0548 2.16363 14.0924C2.29984 14.1301 2.42208 14.2046 2.51594 14.307C2.66177 14.4826 2.76519 14.6874 2.81865 14.9064C2.96571 15.6561 3.05322 16.4154 3.08042 17.1779C3.11942 17.6229 3.18496 18.0651 3.27676 18.5028C3.47756 19.6465 4.05058 20.6989 4.91288 21.5077C4.91211 21.4947 4.91211 21.4815 4.91288 21.4683C4.87873 21.3395 4.86218 21.207 4.86379 21.0739C4.85742 20.9618 4.87606 20.8495 4.91839 20.7449C4.96072 20.6401 5.02579 20.5453 5.10921 20.4667C5.1815 20.4094 5.26493 20.3664 5.35463 20.3405H5.39553C5.52309 20.3232 5.65246 20.3232 5.78002 20.3405C6.59808 20.3879 7.08073 21.6261 8.07058 22.6671C8.67575 23.3375 9.48668 23.8043 10.3858 24H10.4349C10.3888 23.824 10.3888 23.6399 10.4349 23.4638C10.455 23.3885 10.4938 23.3188 10.548 23.2612C10.6021 23.2035 10.67 23.1595 10.7457 23.1325C11.0204 23.0783 11.3057 23.1057 11.5638 23.2113C12.1903 23.423 12.8369 23.5735 13.4944 23.661H13.6253C13.8462 23.661 14.0999 23.7162 14.3207 23.724C14.635 23.7318 14.9497 23.7162 15.2615 23.6767C16.0092 23.584 16.7361 23.3736 17.4129 23.0537C17.2966 22.9399 17.2293 22.7875 17.2248 22.6278C17.2262 22.5323 17.2486 22.4384 17.2902 22.3517C17.386 22.2163 17.5118 22.1032 17.6583 22.0205C17.889 21.8685 18.1393 21.7466 18.4028 21.6577C18.6509 21.5795 18.8941 21.4873 19.131 21.3815L19.2618 21.3106C19.7431 21.042 20.1814 20.7072 20.5626 20.3168C21.484 19.3308 22.1337 18.1376 22.4523 16.8466C22.5866 16.4316 22.669 16.0027 22.6978 15.569C22.6978 15.4506 22.6978 15.3322 22.6978 15.2141C22.7887 14.2074 22.7612 13.1939 22.6159 12.1933Z" fill="white"/>
</svg>
