<svg width="24" height="24" viewBox="0 0 24 24" fill="none" xmlns="http://www.w3.org/2000/svg">
<circle cx="12" cy="12" r="12" fill="#0E0030"/>
<circle cx="12.2498" cy="12.2856" r="6.66003" fill="url(#paint0_linear_930_5767)"/>
<circle cx="12.2498" cy="12.2857" r="6.31818" fill="#4D176D"/>
<path opacity="0.2" fill-rule="evenodd" clip-rule="evenodd" d="M5.57663 13.6474C4.11416 15.0416 1.14049 18.1014 2.29622 19.0328C3.65043 20.124 8.37796 17.4834 10.4817 16.3084C10.6222 16.2299 10.751 16.1579 10.8664 16.094C12.8027 15.0217 17.1285 11.8052 19.1084 9.73823C19.1613 9.68306 19.2154 9.62671 19.2705 9.56931C20.5464 8.24043 22.3674 6.34384 21.8968 5.24133C21.4059 4.0912 18.1243 5.33699 16.5524 6.11609C15.0339 6.86872 12.6838 8.14634 10.552 9.65014C9.10454 10.6712 6.59123 12.6802 5.57663 13.6474ZM6.04263 13.7347C4.60092 15.1066 1.76739 17.8027 2.8227 18.6531C3.91575 19.534 9.06612 16.6535 10.757 15.602C12.3836 14.5905 16.8395 11.2691 18.507 9.66989C19.7665 8.46201 21.6901 6.38234 21.3603 5.60965C20.9545 4.65904 17.9707 5.91232 16.4841 6.64916C15.0479 7.36097 12.97 8.6167 10.9539 10.0389C10.7008 10.2175 10.4182 10.4137 10.1183 10.6218C8.79637 11.5394 7.13886 12.6899 6.19176 13.5927C6.144 13.6383 6.0942 13.6856 6.04263 13.7347Z" fill="url(#paint1_angular_930_5767)"/>
<path d="M5.93163 12.2611C6.60239 11.4631 7.46549 10.5308 7.99729 10.5308C8.36775 10.5308 8.52525 10.8025 8.69255 11.0295C8.88771 11.2942 9.08501 11.5618 9.51992 11.5746C9.88457 11.5853 10.1669 11.446 10.45 11.3062C10.794 11.1364 11.1391 10.9661 11.6343 11.0638C12.382 11.2114 12.8772 11.7583 13.4099 12.3468C13.5203 12.4688 13.6324 12.5926 13.7487 12.715C14.214 13.2047 15.811 15.237 16.867 16.5985C15.7139 17.8325 14.0719 18.6038 12.2498 18.6038C8.76032 18.6038 5.93158 15.7751 5.93158 12.2856C5.93158 12.2775 5.9316 12.2693 5.93163 12.2611Z" fill="url(#paint2_linear_930_5767)"/>
<path d="M5.93164 12.3179C6.52786 12.9233 7.41819 13.5228 8.19767 13.6181C9.2712 13.7494 10.261 13.4327 11.2533 13.1151C12.0912 12.847 12.9309 12.5782 13.8244 12.5782C15.2431 12.5782 17.4211 13.6127 18.2847 14.1619C17.4855 16.7352 15.0859 18.6039 12.2497 18.6039C8.77104 18.6039 5.94898 15.7925 5.93164 12.3179Z" fill="url(#paint3_linear_930_5767)"/>
<path opacity="0.5" d="M9.85077 17.4437C13.3402 17.4437 16.1689 14.615 16.1689 11.1255C16.1689 9.10158 15.2173 7.29989 13.737 6.14355C16.5088 6.81231 18.5679 9.30853 18.5679 12.2857C18.5679 15.7751 15.7392 18.6039 12.2498 18.6039C10.7843 18.6039 9.43534 18.1049 8.36353 17.2677C8.84046 17.3827 9.33849 17.4437 9.85077 17.4437Z" fill="url(#paint4_linear_930_5767)"/>
<path d="M6.30786 14.4386C6.80523 14.2613 8.05727 14.0193 9.45126 14.0882C10.7525 14.1525 11.5753 14.5183 12.3591 14.8667C13.137 15.2125 13.8764 15.5412 15.0067 15.5412C16.111 15.5412 17.2501 15.4052 17.8434 15.2262C16.7854 17.2346 14.6775 18.6039 12.2498 18.6039C9.51632 18.6039 7.1883 16.868 6.30786 14.4386Z" fill="url(#paint5_linear_930_5767)"/>
<path fill-rule="evenodd" clip-rule="evenodd" d="M5.57663 13.6474C4.11416 15.0416 1.14049 18.1014 2.29622 19.0328C3.65043 20.124 8.37796 17.4834 10.4817 16.3084C10.6222 16.2299 10.751 16.1579 10.8664 16.094C12.8027 15.0217 17.1285 11.8052 19.1084 9.73823C19.1613 9.68306 19.2154 9.62671 19.2705 9.56931C20.5464 8.24043 22.3674 6.34384 21.8968 5.24133C21.4059 4.0912 18.1243 5.33699 16.5524 6.11609C15.0339 6.86872 12.6838 8.14634 10.552 9.65014C9.10454 10.6712 6.59123 12.6802 5.57663 13.6474ZM6.04263 13.7347C4.60092 15.1066 1.76739 17.8027 2.8227 18.6531C3.91575 19.534 9.06612 16.6535 10.757 15.602C12.3836 14.5905 16.8395 11.2691 18.507 9.66989C19.7665 8.46201 21.6901 6.38234 21.3603 5.60965C20.9545 4.65904 17.9707 5.91232 16.4841 6.64916C15.0479 7.36097 12.97 8.6167 10.9539 10.0389C10.7008 10.2175 10.4182 10.4137 10.1183 10.6218C8.79637 11.5394 7.13886 12.6899 6.19176 13.5927C6.144 13.6383 6.0942 13.6856 6.04263 13.7347Z" fill="url(#paint6_angular_930_5767)"/>
<g opacity="0.5">
<path d="M6.65936 10.7167V10.5262" stroke="#B9B9B9" stroke-width="0.15"/>
<path d="M7.49921 9.69052V9.55273" stroke="#B9B9B9" stroke-width="0.15"/>
<path d="M7.70233 9.10287V9.04407" stroke="#B9B9B9" stroke-width="0.15"/>
<path d="M8.53046 10.33V10.1395" stroke="#B9B9B9" stroke-width="0.15"/>
<path d="M9.85077 11.0722V10.8817" stroke="#B9B9B9" stroke-width="0.15"/>
<path d="M11.7141 10.1816V9.99109" stroke="#B9B9B9" stroke-width="0.15"/>
<path d="M9.82953 9.35156V9.26099" stroke="#B9B9B9" stroke-width="0.15"/>
<path d="M13.7659 6.46143V6.37085" stroke="#B9B9B9" stroke-width="0.15"/>
<path d="M9.74982 8.46906V8.27856" stroke="#B9B9B9" stroke-width="0.15"/>
<path d="M11.3993 8.8017V8.61121" stroke="#B9B9B9" stroke-width="0.15"/>
<path d="M11.6375 7.68695V7.49646" stroke="#B9B9B9" stroke-width="0.15"/>
<path d="M13.4214 7.52664V7.40527" stroke="#B9B9B9" stroke-width="0.15"/>
<path d="M11.9694 6.32355L11.9694 6.15857" stroke="#B9B9B9" stroke-width="0.15"/>
<path d="M13.1118 9.10284V8.91235" stroke="#B9B9B9" stroke-width="0.15"/>
<path d="M12.3465 9.62161V9.52637" stroke="#B9B9B9" stroke-width="0.15"/>
<path d="M13.0135 10.8828L13.0135 10.7148" stroke="#B9B9B9" stroke-width="0.15"/>
<path d="M13.6512 12.1663V12.0334" stroke="#B9B9B9" stroke-width="0.15"/>
<path d="M14.6786 11.3867V11.2823" stroke="#B9B9B9" stroke-width="0.15"/>
<path d="M13.9388 9.86716V9.76465" stroke="#B9B9B9" stroke-width="0.15"/>
<path d="M14.231 8.89691V8.70642" stroke="#B9B9B9" stroke-width="0.15"/>
<path d="M15.7593 8.51495V8.32446" stroke="#B9B9B9" stroke-width="0.15"/>
<path d="M16.3301 8.75311V8.56262" stroke="#B9B9B9" stroke-width="0.15"/>
<path d="M17.5752 9.66925V9.47876" stroke="#B9B9B9" stroke-width="0.15"/>
<path d="M16.002 11.1255V10.9351" stroke="#B9B9B9" stroke-width="0.15"/>
<path d="M18.1461 12.1905V12" stroke="#B9B9B9" stroke-width="0.15"/>
<path d="M17.8449 13.2692V13.0787" stroke="#B9B9B9" stroke-width="0.15"/>
<path d="M16.7005 10.2216V10.0311" stroke="#B9B9B9" stroke-width="0.15"/>
<path d="M16.148 10.0788L16.148 9.98352" stroke="#B9B9B9" stroke-width="0.15"/>
</g>
<path d="M8.43896 8.52182C8.49609 8.44922 8.68391 8.2604 8.80859 8.15234C8.96662 8.01539 9.11639 7.89886 9.17578 7.86719" stroke="#E7DDEB" stroke-width="0.5" stroke-linecap="round"/>
<path d="M9.99506 7.40525C10.197 7.26273 10.6336 7.05916 11.1172 6.95315C11.6008 6.84715 12.0382 6.8826 12.1926 6.8826" stroke="#E7DDEB" stroke-width="0.5" stroke-linecap="round"/>
<defs>
<linearGradient id="paint0_linear_930_5767" x1="8.798" y1="6.81064" x2="15.5073" y2="18.1488" gradientUnits="userSpaceOnUse">
<stop offset="0.00503013" stop-color="#7B289A"/>
<stop offset="1" stop-color="#998D9E"/>
</linearGradient>
<radialGradient id="paint1_angular_930_5767" cx="0" cy="0" r="1" gradientUnits="userSpaceOnUse" gradientTransform="translate(11.5545 11.7256) rotate(59.1181) scale(8.81574 17.742)">
<stop offset="0.118742" stop-color="#F13AF2"/>
<stop offset="0.470365" stop-color="#D161FC" stop-opacity="0.5"/>
<stop offset="0.537087" stop-color="#D161FC" stop-opacity="0.5"/>
<stop offset="0.816919" stop-color="#E738E7"/>
<stop offset="1" stop-color="#FFA4FF"/>
</radialGradient>
<linearGradient id="paint2_linear_930_5767" x1="9.63016" y1="10.3733" x2="9.42212" y2="13.832" gradientUnits="userSpaceOnUse">
<stop stop-color="#FDFFFF"/>
<stop offset="0.58747" stop-color="#4AFBAF"/>
<stop offset="1" stop-color="#6EF0C2"/>
</linearGradient>
<linearGradient id="paint3_linear_930_5767" x1="5.93164" y1="13.936" x2="18.2847" y2="14.8462" gradientUnits="userSpaceOnUse">
<stop stop-color="#4D5AC6"/>
<stop offset="1" stop-color="#D6D8F1"/>
</linearGradient>
<linearGradient id="paint4_linear_930_5767" x1="22.1785" y1="6.83819" x2="13.4657" y2="18.6039" gradientUnits="userSpaceOnUse">
<stop stop-color="#8E8E8E"/>
<stop offset="1" stop-color="white" stop-opacity="0"/>
</linearGradient>
<linearGradient id="paint5_linear_930_5767" x1="12.0756" y1="14.0762" x2="12.0756" y2="18.6039" gradientUnits="userSpaceOnUse">
<stop stop-color="#FFF3FF"/>
<stop offset="0.457244" stop-color="#FF45FD"/>
<stop offset="0.623806" stop-color="#FF13FF"/>
<stop offset="1" stop-color="#FF6AE3"/>
</linearGradient>
<radialGradient id="paint6_angular_930_5767" cx="0" cy="0" r="1" gradientUnits="userSpaceOnUse" gradientTransform="translate(11.5545 11.7256) rotate(59.1181) scale(8.81574 17.742)">
<stop offset="0.118742" stop-color="#F13AF2"/>
<stop offset="0.363207" stop-color="#4F4F4F" stop-opacity="0"/>
<stop offset="0.567957" stop-color="#4F4F4F" stop-opacity="0"/>
<stop offset="0.816919" stop-color="#E738E7"/>
<stop offset="1" stop-color="#FFA4FF"/>
</radialGradient>
</defs>
</svg>
