<svg width="24" height="24" viewBox="0 0 24 24" fill="none" xmlns="http://www.w3.org/2000/svg">
<g clip-path="url(#clip0_5594_3617)">
<path d="M12.0005 0C5.37312 0 0.000244141 5.37249 0.000244141 11.9998C0.000244141 18.6271 5.37273 24 12.0001 24C18.6274 24 24.0002 18.6276 24.0002 12.0003C24.0002 5.37295 18.6278 0 12.0005 0Z" fill="black"/>
<path d="M12.2523 19.4161C12.3108 19.6715 12.266 19.8282 12.0143 19.9384V19.9376C11.5142 19.6275 11.2345 19.2345 11.1455 18.6393C10.957 17.3729 10.6841 16.1179 10.447 14.8583C10.4241 14.7375 10.4089 14.6151 10.3861 14.4638C10.6886 14.3977 10.9654 14.3369 11.2724 14.27C11.4913 15.4201 11.7042 16.5291 11.914 17.6382C12.0265 18.2311 12.117 18.8285 12.2523 19.4161Z" fill="black"/>
<path fill-rule="evenodd" clip-rule="evenodd" d="M11.6755 4.10128L6.4234 14.4351L11.943 19.5087L17.4681 14.7822L12.0437 4.10134C11.9921 3.99964 11.8678 3.95906 11.7661 4.01071C11.7271 4.03054 11.6953 4.06225 11.6755 4.10128Z" stroke="white"/>
<path d="M8.79901 9.74927L11.8808 11.2439L14.9944 9.74927" stroke="white"/>
<path d="M6.58514 14.5664L8.67029 13.4785L10.8113 14.9277L15.44 13.7869L17.3882 14.8636L11.9457 19.5084L6.58514 14.5664Z" fill="white" stroke="white" stroke-width="0.640124"/>
<path d="M11.765 11.1138L11.0826 15.0258L11.9457 19.5086" stroke="white"/>
<path d="M11.0826 15.0259L11.9457 19.5086" stroke="black" stroke-width="0.95525"/>
<path fill-rule="evenodd" clip-rule="evenodd" d="M12 24C18.6274 24 24 18.6274 24 12C24 5.37258 18.6274 0 12 0C5.37258 0 0 5.37258 0 12C0 18.6274 5.37258 24 12 24ZM22.5 12C22.5 17.799 17.799 22.5 12 22.5C6.20101 22.5 1.5 17.799 1.5 12C1.5 6.20101 6.20101 1.5 12 1.5C17.799 1.5 22.5 6.20101 22.5 12Z" fill="#1BE3C2"/>
<path d="M18.9999 14.375C21.5542 14.375 23.625 16.4457 23.625 18.9999C23.625 21.5542 21.5544 23.625 19.0001 23.625C16.4458 23.625 14.375 21.5543 14.375 19.0001C14.375 16.4458 16.4457 14.375 18.9999 14.375Z" fill="#F47226" stroke="white" stroke-width="0.75"/>
<path d="M20.5873 20.0223V19.6338C20.8275 19.552 21.0014 19.2964 21.0014 18.9948C21.0014 18.6932 20.8275 18.4375 20.5873 18.3557V17.9673C20.8122 17.8906 20.9809 17.6605 20.9962 17.3794H20.7253V17.4969C20.7253 17.589 20.6691 17.6708 20.5873 17.7065V17.6605C20.5873 17.5787 20.5157 17.5123 20.4288 17.5123H20.4135C20.3266 17.5123 20.255 17.5787 20.255 17.6605V17.7168C20.1732 17.6759 20.117 17.5992 20.117 17.5072V17.3896H19.8461C19.8665 17.6656 20.0301 17.9008 20.255 17.9774V18.366C20.0147 18.4478 19.8409 18.7034 19.8409 19.005C19.8409 19.3066 20.0147 19.5622 20.255 19.644V20.0325C20.0301 20.1092 19.8614 20.3392 19.8461 20.6204H20.117V20.5028C20.117 20.4108 20.1732 20.329 20.255 20.2933V20.3495C20.255 20.4313 20.3266 20.4977 20.4135 20.4977H20.4288C20.5157 20.4977 20.5873 20.4313 20.5873 20.3495V20.2933C20.6691 20.3341 20.7253 20.4108 20.7253 20.5028V20.6204H20.9962C20.9809 20.329 20.8122 20.099 20.5873 20.0223ZM20.117 19.1635V18.8261C20.117 18.734 20.1732 18.6522 20.255 18.6165V18.6727C20.255 18.7545 20.3266 18.821 20.4135 18.821H20.4288C20.5157 18.821 20.5873 18.7545 20.5873 18.6727V18.6165C20.6691 18.6574 20.7253 18.734 20.7253 18.8261V19.1635C20.7253 19.2555 20.6691 19.3373 20.5873 19.3731V19.3168C20.5873 19.235 20.5157 19.1686 20.4288 19.1686H20.4135C20.3266 19.1686 20.255 19.235 20.255 19.3168V19.3731C20.1732 19.3373 20.117 19.2555 20.117 19.1635Z" fill="black"/>
<path d="M22.264 19.1992V18.7852C22.5043 18.7034 22.6781 18.4478 22.6781 18.1462C22.6781 17.8445 22.5043 17.589 22.264 17.5072V17.3794H21.9369V17.5072C21.6966 17.589 21.5228 17.8445 21.5228 18.1462C21.5228 18.4478 21.6966 18.7034 21.9369 18.7852V19.1992C21.6966 19.281 21.5228 19.5367 21.5228 19.8383C21.5228 20.1398 21.6966 20.3955 21.9369 20.4773V20.6051H22.264V20.4773C22.5043 20.3955 22.6781 20.1398 22.6781 19.8383C22.6781 19.5367 22.5043 19.281 22.264 19.1992ZM21.7989 18.32V17.9826C21.7989 17.8906 21.8551 17.8088 21.9369 17.773V17.8292C21.9369 17.911 22.0085 17.9774 22.0954 17.9774H22.1107C22.1976 17.9774 22.2692 17.911 22.2692 17.8292V17.773C22.351 17.8139 22.4072 17.8906 22.4072 17.9826V18.32C22.4072 18.412 22.351 18.4938 22.2692 18.5296V18.4785C22.2692 18.3967 22.1976 18.3302 22.1107 18.3302H22.0954C22.0085 18.3302 21.9369 18.3967 21.9369 18.4785V18.5347C21.8551 18.4938 21.7989 18.412 21.7989 18.32ZM22.4021 20.0069C22.4021 20.099 22.3458 20.1808 22.264 20.2166V20.1348C22.264 20.053 22.1925 19.9865 22.1056 19.9865H22.0903C22.0033 19.9865 21.9318 20.053 21.9318 20.1348V20.2166C21.85 20.1757 21.7938 20.099 21.7938 20.0069V19.6696C21.7938 19.5775 21.85 19.4957 21.9318 19.46V19.4906C21.9318 19.5724 22.0033 19.6389 22.0903 19.6389H22.1056C22.1925 19.6389 22.264 19.5724 22.264 19.4906V19.46C22.3458 19.5009 22.4021 19.5775 22.4021 19.6696V20.0069Z" fill="black"/>
<path d="M18.6958 18.6676C18.6907 18.6523 18.6907 18.6369 18.6804 18.6216C18.6804 18.6165 19.1967 17.9519 18.7213 17.5429C18.2459 17.134 17.6938 17.6656 17.6887 17.6707C17.6018 17.6452 17.5098 17.6299 17.4229 17.6196C17.244 17.5941 16.9883 17.6196 16.9883 17.6196C16.9014 17.6247 16.8145 17.64 16.7277 17.6656C16.7225 17.6605 16.1704 17.1288 15.695 17.5378C15.2195 17.9468 15.7308 18.6113 15.7359 18.6165C15.7308 18.6318 15.7257 18.6471 15.7206 18.6625C15.6694 18.9488 15.3218 19.0357 15.3218 19.5315C15.3218 20.0376 15.6848 20.4364 16.4312 20.4364H16.7378C16.7378 20.4364 16.8554 20.5948 17.1008 20.6051C17.1008 20.6051 17.1571 20.6102 17.2848 20.6051C17.5455 20.6051 17.6683 20.4415 17.6683 20.4364H17.9749C18.7213 20.4364 19.0843 20.0376 19.0843 19.5315C19.0996 19.0408 18.7469 18.9488 18.6958 18.6676Z" fill="black"/>
<path d="M8.50374 14.6028H4.6125C2.10483 14.6028 0.0719604 16.6357 0.0719604 19.1433C0.0719604 21.651 2.10483 23.6839 4.6125 23.6839H8.50374C11.0114 23.6839 13.0443 21.651 13.0443 19.1433C13.0443 16.6357 11.0114 14.6028 8.50374 14.6028Z" fill="url(#paint0_radial_5594_3617)"/>
<path d="M3 21.6082L3.71194 17.3198H4.61861L4.03231 20.8607H5.87078L5.74515 21.6082H3Z" fill="white"/>
<path d="M7 21.6082L7.71196 17.3198H9.40383C9.7277 17.3198 9.99364 17.3819 10.2016 17.5062C10.411 17.629 10.5576 17.8 10.6413 18.0192C10.7265 18.2369 10.7461 18.4882 10.7 18.773C10.6525 19.0592 10.5492 19.3111 10.3901 19.5289C10.2323 19.7453 10.0271 19.9142 9.77446 20.0357C9.52182 20.1571 9.23005 20.2178 8.89918 20.2178H7.8208L7.94015 19.4912H8.872C9.04785 19.4912 9.19795 19.4612 9.32216 19.4012C9.44781 19.3398 9.54763 19.2553 9.62158 19.1478C9.69559 19.0389 9.74372 18.914 9.7661 18.773C9.78984 18.6292 9.78212 18.5043 9.74307 18.3982C9.70396 18.2921 9.63209 18.2097 9.5274 18.1511C9.42407 18.0911 9.28519 18.061 9.1107 18.061H8.49929L7.90668 21.6082H7Z" fill="white"/>
</g>
<defs>
<radialGradient id="paint0_radial_5594_3617" cx="0" cy="0" r="1" gradientUnits="userSpaceOnUse" gradientTransform="translate(6.55815 19.1433) rotate(-180) scale(8.54997 16.6314)">
<stop stop-color="#090D18"/>
<stop offset="0.5" stop-color="#090D18" stop-opacity="0.505208"/>
<stop offset="1" stop-color="#090D18" stop-opacity="0"/>
</radialGradient>
<clipPath id="clip0_5594_3617">
<rect width="24" height="24" fill="white"/>
</clipPath>
</defs>
</svg>
