<svg width="24" height="24" viewBox="0 0 24 24" fill="none" xmlns="http://www.w3.org/2000/svg">
<g clip-path="url(#clip0_4218_1403)">
<path d="M12 24C18.6274 24 24 18.6274 24 12C24 5.37258 18.6274 0 12 0C5.37258 0 0 5.37258 0 12C0 18.6274 5.37258 24 12 24Z" fill="#4A126B"/>
<path d="M19.0772 11.6289C19.0799 10.9809 18.919 10.3421 18.6081 9.76751C18.6081 9.99885 18.5537 10.246 18.5209 10.4931C18.4554 10.9821 18.3791 11.4922 18.259 12.039C18.1064 12.712 17.9319 13.3271 17.7465 13.8793L17.9319 13.8004L18.3082 13.6374C18.3082 13.7373 18.2646 13.8793 18.221 14.0422C18.1876 14.1394 18.1475 14.2343 18.101 14.3262C18.0574 14.4261 18.0082 14.5207 17.9591 14.6154C17.9101 14.71 17.8664 14.7836 17.8173 14.8678C17.6955 15.0681 17.5589 15.2597 17.4083 15.4408C16.6653 16.3299 15.6095 16.925 14.4415 17.1129H14.3106C14.2095 17.1292 14.1075 17.1397 14.0052 17.1444H13.8798C13.075 17.1475 12.2809 16.9673 11.5619 16.6187C10.8908 16.2968 10.3112 15.8222 9.87311 15.2359C9.43503 14.6496 9.15169 13.9692 9.04763 13.2536C9.04763 13.1064 9.02036 12.9643 9.01491 12.8224C9.01491 12.7908 9.01491 12.7593 9.01491 12.7278C9.01871 12.1867 9.12975 11.6513 9.34219 11.1504C9.58006 10.5431 9.98028 10.0073 10.5023 9.59731C11.0243 9.18733 11.6495 8.91768 12.3145 8.81584C12.1186 8.97704 11.9363 9.15283 11.7691 9.34162C11.7056 9.39222 11.6537 9.45488 11.6164 9.52565L13.907 9.27325H13.9888C14.8607 9.30572 15.7078 9.5616 16.4431 10.0146L17.0266 9.45202L17.152 9.83061L17.212 10.0146C17.3257 9.797 17.4242 9.57213 17.5065 9.34162C17.5447 9.24174 17.5829 9.13133 17.6155 9.01566C17.6922 8.76815 17.7468 8.51487 17.7792 8.25848C17.7873 8.12188 17.7873 7.98497 17.7792 7.84837C17.6809 7.91972 17.5701 7.97318 17.452 8.00609C17.379 8.02549 17.3039 8.03608 17.2284 8.03767C17.142 8.04166 17.0556 8.03279 16.972 8.01135C16.7449 7.9454 16.5422 7.81755 16.3885 7.64329C16.2744 7.51658 16.1741 7.37916 16.0886 7.23318C15.914 6.7074 13.9616 6.13952 12.4617 5.3035C12.0377 5.07973 11.6453 4.80402 11.2946 4.48324C11.0072 4.22107 10.8158 3.87603 10.7493 3.5C10.7505 3.51223 10.7505 3.52457 10.7493 3.53681C10.7493 3.53681 10.7493 3.53681 10.7493 3.56836C10.7461 3.58927 10.7461 3.61053 10.7493 3.63144C10.746 3.64352 10.746 3.65618 10.7493 3.66825C10.7493 3.69455 10.7493 3.72083 10.722 3.74712C10.7245 3.76632 10.7245 3.78576 10.722 3.80497C10.722 3.83651 10.722 3.86279 10.722 3.89435C10.7246 3.91706 10.7246 3.93999 10.722 3.9627V4.0626C10.7246 4.08883 10.7246 4.11524 10.722 4.14147C10.722 4.17828 10.722 4.20984 10.722 4.2519C10.7193 4.27988 10.7193 4.30804 10.722 4.33602V4.45169C10.7193 4.48318 10.7193 4.51484 10.722 4.54634C10.722 4.58315 10.722 4.6252 10.722 4.66726C10.722 4.70934 10.722 4.73038 10.722 4.76192L10.7547 4.88811L10.7874 4.98802L10.8365 5.11421C10.8526 5.14856 10.8708 5.18192 10.8911 5.2141C10.8911 5.25617 10.9292 5.29823 10.9565 5.3403L11.0328 5.44019C11.0587 5.48254 11.0879 5.52297 11.1201 5.56114C11.1474 5.59793 11.1856 5.62948 11.2183 5.66629L11.3273 5.77672L11.431 5.85558C11.4748 5.89475 11.5223 5.92996 11.5728 5.96074L11.72 6.05539L11.8509 6.13426L11.9273 6.1763L10.6456 5.60845L10.0075 5.32452C10.0653 5.57492 10.1647 5.81466 10.302 6.03435C10.3664 6.14459 10.4394 6.25005 10.5202 6.34981C10.5202 6.34981 7.79327 6.26572 6.28805 8.33737H6.38076C6.53581 8.32862 6.68826 8.37872 6.80545 8.47701C6.92271 8.5753 6.99538 8.71387 7.00794 8.86315C7.01371 8.91737 7.01371 8.97197 7.00794 9.02612C7.01295 9.06804 7.01295 9.1104 7.00794 9.15232C6.92613 9.28904 6.84978 9.43103 6.77343 9.57295C6.69707 9.71494 6.41893 10.0041 6.19533 10.2565C6.04808 10.4195 5.90083 10.5878 5.75355 10.7823C5.25796 11.3492 4.94015 12.0404 4.83732 12.7751C4.83189 12.8538 4.83189 12.9329 4.83732 13.0117C4.91024 12.9671 4.98686 12.9285 5.06639 12.896H5.12091H5.16455C5.25516 12.8702 5.35153 12.8699 5.44234 12.8949C5.53315 12.9201 5.61464 12.9697 5.67721 13.038C5.77443 13.155 5.84338 13.2916 5.87902 13.4376C5.97706 13.9374 6.0354 14.4436 6.05353 14.9519C6.07954 15.2486 6.12323 15.5434 6.18442 15.8352C6.31829 16.5977 6.70031 17.2993 7.27517 17.8385C7.27466 17.8298 7.27466 17.821 7.27517 17.8122C7.2524 17.7263 7.24137 17.638 7.24245 17.5493C7.2382 17.4745 7.25063 17.3997 7.27885 17.3299C7.30707 17.26 7.35044 17.1969 7.40606 17.1444C7.45425 17.1063 7.50987 17.0776 7.56967 17.0603H7.59694C7.68198 17.0488 7.76822 17.0488 7.85326 17.0603C8.39864 17.0919 8.72041 17.9174 9.38031 18.6114C9.78375 19.0583 10.3244 19.3696 10.9238 19.5H10.9565C10.9258 19.3827 10.9258 19.2599 10.9565 19.1425C10.9699 19.0923 10.9958 19.0459 11.0319 19.0075C11.068 18.969 11.1133 18.9397 11.1637 18.9217C11.3469 18.8855 11.5371 18.9038 11.7091 18.9742C12.1268 19.1153 12.5579 19.2156 12.9962 19.274H13.0834C13.2307 19.274 13.3998 19.3108 13.5471 19.316C13.7566 19.3212 13.9664 19.3108 14.1743 19.2845C14.6727 19.2227 15.1573 19.0824 15.6085 18.8691C15.531 18.7932 15.4861 18.6916 15.4831 18.5852C15.484 18.5216 15.499 18.4589 15.5267 18.4011C15.5906 18.3109 15.6745 18.2355 15.7721 18.1803C15.9259 18.079 16.0928 17.9978 16.2684 17.9385C16.4339 17.8863 16.596 17.8249 16.7539 17.7544L16.8411 17.7071C17.162 17.528 17.4542 17.3048 17.7083 17.0446C18.3226 16.3872 18.7557 15.5917 18.9681 14.731C19.0577 14.4544 19.1126 14.1685 19.1318 13.8793C19.1318 13.8004 19.1318 13.7215 19.1318 13.6427C19.1924 12.9716 19.1741 12.2959 19.0772 11.6289Z" fill="white"/>
</g>
<defs>
<clipPath id="clip0_4218_1403">
<rect width="24" height="24" fill="white"/>
</clipPath>
</defs>
</svg>
