<svg width="24" height="24" viewBox="0 0 24 24" fill="none" xmlns="http://www.w3.org/2000/svg">
<g clip-path="url(#clip0_4353_8835)">
<path d="M12 24C18.6274 24 24 18.6274 24 12C24 5.37258 18.6274 0 12 0C5.37258 0 0 5.37258 0 12C0 18.6274 5.37258 24 12 24Z" fill="black"/>
<path fill-rule="evenodd" clip-rule="evenodd" d="M12.0037 22.5C17.5266 22.5 22.0037 18.0228 22.0037 12.5C22.0037 6.97715 17.5266 2.5 12.0037 2.5C6.48086 2.5 2.00371 6.97715 2.00371 12.5C2.00371 18.0228 6.48086 22.5 12.0037 22.5ZM4.60507 14.9651C4.60507 16.8919 5.34102 18.6469 6.54714 19.9642C4.50815 18.3517 3.19978 15.856 3.19978 13.0547C3.19978 8.19238 7.14143 4.25073 12.0037 4.25073C16.866 4.25073 20.8076 8.19238 20.8076 13.0547C20.8076 15.8348 19.519 18.314 17.5064 19.9274C18.6927 18.6143 19.4151 16.874 19.4151 14.9651C19.4151 10.8754 16.0997 7.56006 12.0101 7.56006C7.9204 7.56006 4.60507 10.8754 4.60507 14.9651ZM15.866 20.5755C17.4521 19.3936 18.4793 17.5035 18.4793 15.3734C18.4793 11.7927 15.5766 8.89 11.9959 8.89C8.41521 8.89 5.5125 11.7927 5.5125 15.3734C5.5125 17.5462 6.58135 19.4694 8.22195 20.6458C7.28067 19.6877 6.70007 18.374 6.70007 16.9247C6.70007 13.9921 9.07744 11.6147 12.0101 11.6147C14.9427 11.6147 17.3201 13.9921 17.3201 16.9247C17.3201 18.3389 16.7673 19.6239 15.866 20.5755ZM16.6 17.206C16.6 18.7643 15.8251 20.1416 14.6397 20.9737C15.1681 20.3637 15.4878 19.568 15.4878 18.6976C15.4878 16.7769 13.9308 15.2198 12.0101 15.2198C10.0894 15.2198 8.5323 16.7769 8.5323 18.6976C8.5323 19.585 8.86465 20.3948 9.41166 21.0092C8.19729 20.1811 7.39999 18.7867 7.39999 17.206C7.39999 14.6654 9.45948 12.606 12 12.606C14.5405 12.606 16.6 14.6654 16.6 17.206ZM13.3421 21.3573C14.2195 20.8806 14.815 19.951 14.815 18.8823C14.815 17.3276 13.5547 16.0673 12 16.0673C10.4453 16.0673 9.185 17.3276 9.185 18.8823C9.185 19.951 9.78053 20.8806 10.6578 21.3573C10.2953 21.0064 10.07 20.5147 10.07 19.9704C10.07 18.9045 10.9341 18.0404 12 18.0404C13.0659 18.0404 13.93 18.9045 13.93 19.9704C13.93 20.5147 13.7046 21.0065 13.3421 21.3573Z" fill="white"/>
</g>
<defs>
<clipPath id="clip0_4353_8835">
<rect width="24" height="24" fill="white"/>
</clipPath>
</defs>
</svg>
