<svg width="24" height="24" viewBox="0 0 24 24" fill="none" xmlns="http://www.w3.org/2000/svg">
<g clip-path="url(#clip0_4111_8503)">
<path d="M24 12C24 5.37258 18.6274 0 12 0C5.37258 0 0 5.37258 0 12C0 18.6274 5.37258 24 12 24C18.6274 24 24 18.6274 24 12Z" fill="url(#paint0_linear_4111_8503)"/>
<path fill-rule="evenodd" clip-rule="evenodd" d="M12 2C17.5228 2 22 6.47715 22 12C22 17.5228 17.5228 22 12 22C6.47715 22 2 17.5228 2 12C2 6.47715 6.47715 2 12 2ZM12 2.35193C17.3285 2.35193 21.6481 6.67152 21.6481 12C21.6481 17.3285 17.3285 21.6481 12 21.6481C6.67152 21.6481 2.35193 17.3285 2.35193 12C2.35193 6.67152 6.67152 2.35193 12 2.35193Z" fill="url(#paint1_linear_4111_8503)"/>
<path fill-rule="evenodd" clip-rule="evenodd" d="M7.71956 17.7369C5.97391 16.4326 4.84131 14.3479 4.84131 12C4.84131 8.04783 8.04783 4.84131 12 4.84131C15.2631 4.84131 18.8261 6.79131 19.6869 9.77825C18.7239 6.44131 15.6479 4 12 4C7.58261 4 4 7.58261 4 12C4 16.4174 7.58261 20 12 20C16.4174 20 20 16.4174 20 12V11.5782H19.5609C19.5479 11.5782 19.5282 11.5782 19.5021 11.5782C19.45 11.5782 19.3761 11.5761 19.2804 11.5718C19.0913 11.5652 18.8305 11.5522 18.537 11.5261C17.937 11.4739 17.2522 11.3718 16.787 11.1848C16.037 10.8848 15.6131 10.4892 15.1305 10.0239L15.1021 9.99785C14.6174 9.5326 14.0739 9.0087 13.1283 8.56522C12.1979 8.12826 11.1696 8.19783 10.4152 8.35435C10.0326 8.43261 9.70215 8.53695 9.46955 8.62174C9.35215 8.66304 9.2587 8.70218 9.1935 8.72826C8.81305 8.88913 8.44348 9.07825 8.07174 9.25435C8.07174 9.25435 8.80435 9.45435 9.1652 9.5674C9.17825 9.57175 9.19785 9.57825 9.2261 9.58695C9.28045 9.60435 9.3587 9.6326 9.45215 9.67175C9.6435 9.75 9.8935 9.8652 10.1413 10.0261C10.5326 10.2761 10.8565 10.5935 10.9892 10.9805C10.1609 11.0892 9.3826 11.4543 8.8 11.7957C8.44783 12.0021 8.15435 12.2109 7.94782 12.3652C7.84565 12.4435 7.76305 12.5087 7.70652 12.5543C7.6587 12.5935 6.91087 13.2521 6.91087 13.2521C6.91087 13.2521 7.87609 13.3543 8.35218 13.45C8.66957 13.513 9.09565 13.6174 9.5435 13.7718C9.9913 13.9283 10.4435 14.1326 10.8196 14.3956C11.1957 14.6587 11.4718 14.9608 11.6065 15.3087C12.0022 16.3217 11.6131 17.3065 10.8326 17.8609C10.0609 18.4087 8.88913 18.5392 7.71739 17.7348L7.71956 17.7369ZM10.45 18.9892C10.7652 18.887 11.0587 18.737 11.3239 18.55C12.3848 17.7957 12.9435 16.413 12.3935 15.0043C12.1761 14.45 11.763 14.0283 11.3043 13.7065C10.8435 13.3848 10.3152 13.15 9.8239 12.9782C9.50215 12.8652 9.18915 12.7782 8.91739 12.713C9.0152 12.65 9.1174 12.5848 9.22825 12.5196C9.8761 12.1392 10.6935 11.7892 11.4761 11.7892C12.6565 11.7892 13.5348 12.1522 14.3739 12.5392C14.45 12.5739 14.5261 12.6108 14.6044 12.6456C15.3544 12.9978 16.1413 13.3674 17.0565 13.3674C17.9718 13.3674 18.6348 13.1174 19.1109 12.8565C18.687 16.4043 15.6674 19.1565 12.0043 19.1565C11.4717 19.1565 10.9521 19.0979 10.4543 18.9892H10.45ZM18.1979 12.3413C17.8826 12.4479 17.5 12.5261 17.0543 12.5261C16.3369 12.5261 15.7195 12.2391 14.9369 11.8739C14.8674 11.8413 14.7978 11.8087 14.7261 11.7761C13.9413 11.4131 13.0348 11.0283 11.8544 10.9587C11.6957 10.1783 11.1044 9.6435 10.5957 9.3174C10.5392 9.28045 10.4826 9.24565 10.4261 9.21305C10.4761 9.20215 10.5283 9.18915 10.5826 9.17825C11.2652 9.03695 12.0782 9.00215 12.7674 9.32825C13.5848 9.71305 14.0478 10.1565 14.5282 10.6174L14.5456 10.6326C15.0391 11.1065 15.563 11.6044 16.4739 11.9696C16.9804 12.1718 17.637 12.2805 18.1979 12.3413Z" fill="url(#paint2_linear_4111_8503)"/>
</g>
<defs>
<linearGradient id="paint0_linear_4111_8503" x1="0" y1="0" x2="24" y2="24" gradientUnits="userSpaceOnUse">
<stop stop-color="#010F16"/>
<stop offset="1" stop-color="#401A33"/>
</linearGradient>
<linearGradient id="paint1_linear_4111_8503" x1="12" y1="2" x2="12" y2="22" gradientUnits="userSpaceOnUse">
<stop stop-color="#61B4EA"/>
<stop offset="1" stop-color="#D75B99"/>
</linearGradient>
<linearGradient id="paint2_linear_4111_8503" x1="3.85652" y1="12.1479" x2="20.1435" y2="11.85" gradientUnits="userSpaceOnUse">
<stop stop-color="#29CCB9"/>
<stop offset="0.49" stop-color="#0091FF"/>
<stop offset="1" stop-color="#FF66B7"/>
</linearGradient>
<clipPath id="clip0_4111_8503">
<rect width="24" height="24" fill="white"/>
</clipPath>
</defs>
</svg>
