<svg width="24" height="24" viewBox="0 0 24 24" fill="none" xmlns="http://www.w3.org/2000/svg">
<path d="M22.3923 5.99999C25.706 11.7395 23.7395 19.0786 18 22.3923C12.2605 25.706 4.92139 23.7395 1.60768 18C-1.70602 12.2605 0.260478 4.92139 5.99999 1.60768C11.7395 -1.70602 19.0786 0.260478 22.3923 5.99999Z" fill="url(#paint0_linear_5542_1820)"/>
<path d="M15.3998 14.5368L18.7257 12.6163C18.9019 12.5145 19.0109 12.3254 19.0109 12.1219V8.28143C19.0109 8.07839 18.9014 7.88879 18.7257 7.78703L15.3998 5.86655C15.2237 5.76479 15.0053 5.76527 14.8291 5.86655L11.5032 7.78703C11.327 7.88879 11.2181 8.07839 11.2181 8.28143V15.1449L8.88574 16.4913L6.55343 15.1449V12.4517L8.88574 11.1053L10.4241 11.9933V10.1865L9.17087 9.46318C9.08447 9.41326 8.98559 9.38687 8.88527 9.38687C8.78495 9.38687 8.68607 9.41326 8.60015 9.46318L5.27422 11.3837C5.09806 11.4854 4.98911 11.6745 4.98911 11.8781V15.7185C4.98911 15.9216 5.09854 16.1112 5.27422 16.2129L8.60015 18.1334C8.77583 18.2347 8.99471 18.2347 9.17087 18.1334L12.4968 16.2134C12.6729 16.1117 12.7819 15.9221 12.7819 15.719V8.85551L12.8241 8.83151L15.1142 7.50911L17.4465 8.85551V11.5488L15.1142 12.8952L13.5782 12.0081V13.8149L14.8291 14.5373C15.0053 14.6385 15.2237 14.6385 15.3998 14.5373V14.5368Z" fill="white"/>
<defs>
<linearGradient id="paint0_linear_5542_1820" x1="-4.3923" y1="7.60771" x2="28.3923" y2="16.3923" gradientUnits="userSpaceOnUse">
<stop stop-color="#A229C5"/>
<stop offset="1" stop-color="#7B3FE4"/>
</linearGradient>
</defs>
</svg>
