<svg width="24" height="24" viewBox="0 0 24 24" fill="none" xmlns="http://www.w3.org/2000/svg">
<g clip-path="url(#clip0_5441_1768)">
<path d="M24 12C24 5.37258 18.6274 0 12 0C5.37258 0 0 5.37258 0 12C0 18.6274 5.37258 24 12 24C18.6274 24 24 18.6274 24 12Z" fill="#08050A"/>
<path d="M15.3365 9.64181L16.2736 10.7429C16.3809 10.8665 16.4761 10.9683 16.5146 11.0261C16.7948 11.3046 16.9519 11.6811 16.9517 12.0733C16.9254 12.5361 16.6238 12.8513 16.3445 13.1884L15.6887 13.9583L15.3467 14.3572C15.3344 14.371 15.3265 14.388 15.3239 14.4061C15.3213 14.4243 15.3242 14.4428 15.3322 14.4593C15.3401 14.4759 15.3528 14.4897 15.3687 14.4993C15.3846 14.5088 15.403 14.5135 15.4215 14.5129H18.8402C19.3623 14.5129 20.0201 14.9517 19.9817 15.6179C19.9806 15.9207 19.8581 16.2108 19.6408 16.4249C19.4235 16.6391 19.1292 16.7598 18.8219 16.7609H13.4684C13.1162 16.7609 12.1689 16.7988 11.9038 15.9909C11.8474 15.8221 11.8397 15.6412 11.8816 15.4683C11.9586 15.2127 12.0805 14.9723 12.2418 14.7582C12.511 14.3593 12.8025 13.9603 13.0899 13.5734C13.4603 13.0667 13.8408 12.576 14.2152 12.0594C14.2285 12.0425 14.2358 12.0218 14.2358 12.0005C14.2358 11.9792 14.2285 11.9585 14.2152 11.9417L12.8551 10.3459C12.8462 10.3344 12.8348 10.325 12.8216 10.3185C12.8084 10.3121 12.7939 10.3087 12.7792 10.3087C12.7645 10.3087 12.75 10.3121 12.7368 10.3185C12.7236 10.325 12.7121 10.3344 12.7033 10.3459C12.339 10.8306 10.7441 12.9769 10.404 13.4118C10.064 13.8466 9.22603 13.8705 8.76252 13.4118L6.63528 11.3074C6.62169 11.2939 6.60436 11.2848 6.58548 11.2811C6.5666 11.2773 6.54703 11.2792 6.52925 11.2865C6.51147 11.2938 6.49628 11.3061 6.4856 11.3219C6.47493 11.3377 6.46926 11.3562 6.46931 11.3752V15.4224C6.47431 15.7096 6.38802 15.9912 6.22251 16.2276C6.05699 16.464 5.82057 16.6435 5.54635 16.7409C5.37114 16.801 5.18388 16.8189 5.0002 16.7932C4.81652 16.7675 4.64173 16.6989 4.49042 16.5931C4.3391 16.4873 4.21564 16.3474 4.13034 16.1851C4.04503 16.0227 4.00034 15.8426 4 15.6598V8.38316C4.01219 8.12093 4.10794 7.86915 4.27363 7.66361C4.43932 7.45807 4.66652 7.30922 4.92296 7.23821C5.14292 7.18045 5.37447 7.18103 5.59413 7.23988C5.8138 7.29873 6.01378 7.41376 6.1738 7.57331L9.44464 10.8007C9.45439 10.8105 9.46626 10.8181 9.47933 10.8229C9.49245 10.8276 9.50643 10.8295 9.52031 10.8284C9.53425 10.8273 9.5477 10.8231 9.55981 10.8163C9.57192 10.8094 9.58234 10.8 9.59037 10.7888L11.9139 7.61919C12.0213 7.49052 12.1559 7.38654 12.3084 7.31452C12.4608 7.24251 12.6273 7.20421 12.7964 7.2023H18.8402C19.0055 7.20257 19.169 7.23764 19.3195 7.30517C19.47 7.37269 19.6042 7.47112 19.7131 7.59386C19.8219 7.7166 19.9028 7.86083 19.9506 8.0169C19.9983 8.17297 20.0117 8.33728 19.9898 8.49885C19.9472 8.77912 19.8029 9.03466 19.5837 9.21806C19.3644 9.40146 19.0851 9.50029 18.7976 9.49619H15.4135C15.3965 9.4966 15.3799 9.5015 15.3654 9.51037C15.351 9.51924 15.3392 9.53176 15.3314 9.54663C15.3235 9.5615 15.3199 9.57817 15.3208 9.59491C15.3217 9.61165 15.3271 9.62784 15.3365 9.64181Z" fill="#E42575"/>
</g>
<defs>
<clipPath id="clip0_5441_1768">
<rect width="24" height="24" fill="white"/>
</clipPath>
</defs>
</svg>
