<svg width="24" height="24" viewBox="0 0 24 24" fill="none" xmlns="http://www.w3.org/2000/svg">
<g clip-path="url(#clip0_3827_8452)">
<path d="M12 23C18.0751 23 23 18.0751 23 12C23 5.92486 18.0751 1 12 1C5.92486 1 1 5.92486 1 12C1 18.0751 5.92486 23 12 23Z" fill="black"/>
<path d="M0 11.9912C0 18.6146 5.3693 23.9854 11.9927 23.9854C18.6161 23.9854 23.9854 18.6161 23.9854 11.9927C23.9854 5.3693 18.6153 0 11.992 0C5.36938 0 0 5.36865 0 11.9912ZM17.165 4.69336C17.165 5.09786 17.4929 5.42871 17.8975 5.42871C18.302 5.42871 18.6299 5.75663 18.6299 6.16113C18.6299 6.56563 18.9585 6.89356 19.3631 6.89356C19.7684 6.89356 20.0977 7.22213 20.0977 7.62743V16.4311C20.0977 16.8364 19.7684 17.165 19.3631 17.165C18.9585 17.165 18.6299 17.4929 18.6299 17.8975C18.6299 18.302 18.302 18.6299 17.8975 18.6299C17.4929 18.6299 17.165 18.9585 17.165 19.3631C17.165 19.7684 16.8364 20.0977 16.4311 20.0977H9.09525C8.68987 20.0977 8.3613 19.7691 8.3613 19.3638C8.3613 18.9584 8.03205 18.6299 7.62667 18.6299C7.2222 18.6299 6.89356 18.302 6.89356 17.8975C6.89356 17.4929 6.56563 17.165 6.16113 17.165C5.75663 17.165 5.42871 16.8371 5.42871 16.4326V7.626C5.42871 7.22147 5.75663 6.89356 6.16113 6.89356C6.56563 6.89356 6.89356 6.56563 6.89356 6.16113C6.89356 5.75663 7.2222 5.42871 7.62667 5.42871C8.03205 5.42871 8.3613 5.10013 8.3613 4.69483C8.3613 4.28951 8.68987 3.96094 9.09525 3.96094H16.4326C16.8371 3.96094 17.165 4.28885 17.165 4.69336Z" fill="white"/>
<path d="M15.6973 6.16113V6.89356H17.165V17.165H15.6973V18.6299H17.165V17.165H18.6298V6.89356H17.165V5.42871H15.6973V6.16113Z" fill="white"/>
<path d="M8.36133 12.0294V15.6973H9.82915V12.7617H11.2969V14.2296H12.7617V12.7617H14.2296V15.6973H15.6973V8.36133H12.7617V9.82915H11.2969V8.36133H8.36133V12.0294Z" fill="white"/>
</g>
<defs>
<clipPath id="clip0_3827_8452">
<rect width="24" height="24" fill="white"/>
</clipPath>
</defs>
</svg>
