<svg width="24" height="24" viewBox="0 0 24 24" fill="none" xmlns="http://www.w3.org/2000/svg">
<g clip-path="url(#clip0_4372_1186)">
<path d="M12 24C18.6274 24 24 18.6274 24 12C24 5.37258 18.6274 0 12 0C5.37258 0 0 5.37258 0 12C0 18.6274 5.37258 24 12 24Z" fill="#00D2FF"/>
<path d="M20.0984 11.4009C20.0984 11.3724 19.5789 11.0406 19.3056 10.8675C19.1875 10.7934 19.0779 10.7066 18.9787 10.6088C18.7741 10.4065 18.4333 10.0529 18.3227 9.83533C18.2515 9.69629 18.2808 9.44605 18.3362 9.20733C18.4322 8.78813 18.3595 8.34798 18.1338 7.98189L17.7782 7.40301C17.6147 7.13893 17.483 6.8563 17.3864 6.56109C17.2635 6.18177 17.0498 5.83821 16.7638 5.56029C16.1854 4.99613 14.5846 4.71837 13.2549 4.67405C13.1727 4.64925 13.0892 4.62937 13.0046 4.61453C12.4126 4.51373 11.781 4.35085 11.2142 4.45661C10.373 4.61325 9.52239 4.87693 8.88751 5.52749C8.75951 5.65885 8.55951 5.72077 8.42159 5.84525C8.14815 6.09197 7.77999 6.09197 7.53711 6.36589C7.39487 6.52589 7.32911 7.04765 6.95631 7.24685C6.33967 7.57725 5.88335 7.94125 5.73391 8.12685C5.62095 8.26653 5.53343 8.42989 5.42351 8.57261C5.31151 8.71901 4.78015 8.96685 4.62575 9.12189C4.47135 9.27693 4.26431 9.65421 4.35727 10.1C4.36591 10.1406 4.37327 10.1742 4.37855 10.2014C4.43935 10.428 4.60463 10.8387 4.56639 11.027C4.52191 11.2499 3.94847 12.9115 5.22975 13.3544C5.49647 13.4467 5.60943 13.6264 5.63855 13.9C5.66111 14.1041 5.72175 14.3136 5.82815 14.539C5.94479 14.7849 6.17439 14.9187 6.19311 14.935C6.27039 15.0032 6.63007 15.3785 6.65967 15.4332C7.11423 16.2734 6.98655 16.6932 7.85663 16.9787C8.08017 17.0524 8.29482 17.1508 8.49663 17.2721C8.7425 17.4201 9.00588 17.5368 9.28063 17.6196C9.28863 17.6219 9.30079 17.6262 9.31503 17.6313C9.50831 17.1643 9.70431 16.7212 9.89967 16.3043C8.33343 14.6982 8.74527 12.8988 8.89551 12.4163C8.89996 12.402 8.90791 12.389 8.91866 12.3786C8.9294 12.3681 8.94259 12.3605 8.95702 12.3565C8.97145 12.3525 8.98665 12.3521 9.00126 12.3554C9.01586 12.3588 9.0294 12.3657 9.04063 12.3756C9.36927 12.6636 10.3686 13.7025 10.2514 15.5779C10.597 14.8876 10.9331 14.2806 11.2402 13.7624C10.1099 11.8468 10.9522 10.1678 11.2176 9.72509C11.2254 9.71205 11.2364 9.70118 11.2495 9.6935C11.2626 9.68582 11.2775 9.68158 11.2927 9.68117C11.3079 9.68075 11.323 9.68418 11.3365 9.69112C11.35 9.69808 11.3616 9.70834 11.3701 9.72093C11.6005 10.063 12.2266 11.1844 11.8389 12.8001C12.12 12.3704 12.3482 12.0523 12.4973 11.8526C12.9011 9.18189 14.9181 8.30557 15.4482 8.11981C15.4624 8.11475 15.4776 8.11334 15.4925 8.11573C15.5074 8.11811 15.5214 8.12422 15.5333 8.13347C15.5452 8.14272 15.5546 8.15481 15.5606 8.16864C15.5666 8.18248 15.569 8.1976 15.5677 8.21261C15.5187 8.76493 15.1782 10.8916 12.8387 11.9838C12.5576 12.3542 12.2867 12.7441 12.0277 13.1441C12.9222 12.4459 14.176 12.1168 15.2176 12.3696C15.2323 12.3729 15.2459 12.3799 15.2573 12.3899C15.2686 12.3998 15.2773 12.4124 15.2825 12.4266C15.2877 12.4407 15.2894 12.456 15.2873 12.4709C15.2851 12.4858 15.2794 12.5 15.2704 12.5121C14.9709 12.9086 13.7797 14.2459 11.536 13.9395C11.1568 14.5787 10.8093 15.2264 10.5008 15.8459C11.4696 15.1128 12.8854 14.832 13.984 15.2011C13.9986 15.2058 14.0118 15.2141 14.0224 15.2252C14.033 15.2363 14.0407 15.2499 14.0446 15.2648C14.0486 15.2796 14.0488 15.2952 14.0452 15.3101C14.0416 15.325 14.0343 15.3388 14.024 15.3502C13.6829 15.7182 12.3693 16.9225 10.2096 16.4443C10.0072 16.8721 9.70527 17.5756 9.55791 17.9233C9.50719 18.0428 9.46047 18.1633 9.41903 18.2867C9.32303 18.5699 9.19503 18.9232 9.04127 19.2766C9.01963 19.327 9.0086 19.3814 9.00884 19.4361C9.00908 19.491 9.02062 19.5452 9.0427 19.5955C9.06479 19.6457 9.09697 19.6908 9.13724 19.7281C9.17751 19.7652 9.22502 19.7939 9.27679 19.812C10.981 20.4204 12.8314 20.4891 14.576 20.0083C14.6337 19.992 14.6869 19.9628 14.7317 19.9232C14.7766 19.8833 14.8118 19.834 14.8349 19.7787C14.8712 19.6924 14.907 19.6108 14.907 19.6108C14.907 19.6108 15.6603 17.8611 15.771 17.0988C15.8147 16.7992 15.9018 16.5744 15.9915 16.4108C16.0504 16.304 16.1355 16.2139 16.2387 16.1489C16.3421 16.084 16.4602 16.0464 16.5821 16.0398C17.1562 16.0094 18.3786 15.9292 18.8232 15.7883C19.4142 15.6006 19.1579 14.5243 19.1262 14.4081C19.0946 14.292 19.4106 14.0224 19.4757 13.8649C19.5408 13.7075 19.3157 13.6536 19.224 13.4809C19.1323 13.3083 19.452 13.1838 19.4976 13.027C19.5432 12.8702 19.3936 12.6977 19.333 12.5817C19.2723 12.4657 19.2491 12.3206 19.2491 12.3206C19.2491 12.3206 19.6811 12.004 19.9112 11.8041C20.1413 11.6043 20.0982 11.4396 20.0978 11.4008" fill="black"/>
</g>
<defs>
<clipPath id="clip0_4372_1186">
<rect width="24" height="24" fill="white"/>
</clipPath>
</defs>
</svg>
