<svg width="24" height="24" viewBox="0 0 24 24" fill="none" xmlns="http://www.w3.org/2000/svg">
<g clip-path="url(#clip0_5058_10428)">
<path d="M11.9999 23.0068C18.0431 23.0068 22.9421 18.1077 22.9421 12.0645C22.9421 6.02122 18.0431 1.12219 11.9999 1.12219C5.95659 1.12219 1.05756 6.02122 1.05756 12.0645C1.05756 18.1077 5.95659 23.0068 11.9999 23.0068Z" fill="#EC1C24"/>
<path d="M20.9392 12.1244L20.9702 12.1478C20.9702 12.1478 20.3163 4.89912 17.9009 1.28719C17.6696 0.941163 17.1755 0.891448 16.882 1.18663C16.1906 1.88179 15.0576 3.74269 13.9285 6.85014C13.3229 6.74986 12.6959 6.69676 12.0532 6.69676C11.4106 6.69676 10.7833 6.74986 10.1776 6.85014C9.04889 3.74269 7.91591 1.88179 7.22442 1.18663C6.93094 0.891448 6.4369 0.941163 6.20556 1.28719C3.79016 4.89912 3.13625 12.1478 3.13625 12.1478L3.16732 12.1244C2.95518 12.7456 2.83994 13.3983 2.83994 14.0734C2.83994 16.8829 4.80197 19.3251 7.68852 20.5708C8.98788 21.1315 10.4739 21.4501 12.0535 21.4501C13.6331 21.4501 15.1163 21.1321 16.4146 20.5722C19.3031 19.3271 21.2668 16.884 21.2668 14.0734C21.2668 13.3986 21.1513 12.7456 20.9394 12.1244H20.9392Z" fill="white"/>
<path d="M0.268616 17.971C0.183028 17.971 0.0988517 17.93 0.0468774 17.8538C-0.0367335 17.7315 -0.00537941 17.5642 0.117212 17.4809C2.62187 15.7703 4.35764 16.2386 4.43052 16.2592C4.57316 16.2999 4.65565 16.4485 4.61497 16.5911C4.57429 16.7332 4.42684 16.816 4.28448 16.7759C4.26584 16.7711 2.69616 16.3694 0.419737 17.9241C0.373412 17.9557 0.320873 17.971 0.268616 17.971Z" fill="#231F20"/>
<path d="M1.6903 20.0446C1.64031 20.0446 1.59003 20.0307 1.54483 20.0016C1.42026 19.9211 1.38439 19.755 1.46489 19.6305C2.69928 17.7176 4.75623 17.3348 4.84323 17.3196C4.9887 17.2942 5.12852 17.3913 5.15423 17.5374C5.17993 17.6834 5.08248 17.8224 4.93672 17.8484C4.91045 17.8532 3.01735 18.2145 1.916 19.9217C1.86459 20.0014 1.77815 20.0446 1.6903 20.0446Z" fill="#231F20"/>
<path d="M23.7314 17.9709C23.6791 17.9709 23.6266 17.9557 23.5802 17.924C21.3013 16.3679 19.7308 16.7719 19.7155 16.7758C19.5729 16.8148 19.4251 16.7315 19.3853 16.5894C19.3458 16.4473 19.4274 16.2998 19.5695 16.2592C19.6423 16.2386 21.3778 15.7699 23.8828 17.4809C24.0054 17.5645 24.0367 17.7314 23.9531 17.8537C23.9011 17.93 23.817 17.9709 23.7314 17.9709Z" fill="#231F20"/>
<path d="M22.3097 20.0446C22.2216 20.0446 22.1354 20.0014 22.084 19.9217C20.9756 18.2034 19.0825 17.8518 19.0636 17.8484C18.9175 17.8224 18.8201 17.6831 18.8458 17.5374C18.8718 17.3913 19.0124 17.2942 19.1568 17.3196C19.2438 17.3348 21.3007 17.7176 22.5351 19.6305C22.6156 19.755 22.5797 19.9214 22.4552 20.0016C22.41 20.0307 22.3597 20.0446 22.3097 20.0446Z" fill="#231F20"/>
<path d="M9.75479 13.3393C9.72739 14.7226 8.59949 15.836 7.20974 15.836C5.81999 15.836 4.66187 14.6954 4.66187 13.2882C4.66187 12.8826 4.75903 12.5007 4.92767 12.1603L9.75479 13.339V13.3393Z" fill="#A7DFF8"/>
<path d="M8.92603 13.1376C8.93168 13.1927 8.9427 13.3057 8.9427 13.3625C8.9427 14.2788 8.19981 15.0214 7.28376 15.0214C6.36771 15.0214 5.62482 14.2785 5.62482 13.3625C5.62482 13.0266 5.76775 12.6707 5.9392 12.4094L8.92603 13.1376Z" fill="#231F20"/>
<path d="M14.0667 13.3393C14.0941 14.7226 15.222 15.836 16.6117 15.836C18.0187 15.836 19.1596 14.6954 19.1596 13.2882C19.1596 12.8826 19.0624 12.5007 18.8938 12.1603L14.0667 13.339V13.3393Z" fill="#A7DFF8"/>
<path d="M14.9118 13.1131C14.9062 13.1681 14.8785 13.306 14.8785 13.3625C14.8785 14.2788 15.6214 15.0214 16.5375 15.0214C17.4538 15.0214 18.1964 14.2785 18.1964 13.3625C18.1964 13.0266 18.0701 12.6707 17.8984 12.4094L14.9116 13.1131H14.9118Z" fill="#231F20"/>
<path d="M12.5916 18.1704C12.336 18.1704 12.0631 18.0933 11.7984 17.8871C11.0827 18.4447 10.3062 18.0588 9.97623 17.7535C9.86748 17.6529 9.86099 17.4829 9.96155 17.3741C10.0624 17.2654 10.2322 17.2586 10.3409 17.3594C10.407 17.4193 11.0098 17.9348 11.5778 17.3665C11.6281 17.3162 11.6965 17.288 11.7677 17.288H11.8295C11.9007 17.288 11.9691 17.3162 12.0193 17.3665C12.5871 17.9343 13.1902 17.419 13.2571 17.3586C13.3664 17.2592 13.5359 17.2662 13.6359 17.3755C13.7359 17.4843 13.7294 17.6532 13.6209 17.7535C13.413 17.9461 13.0275 18.1704 12.5916 18.1704Z" fill="#231F20"/>
<path d="M11.7787 17.2131C12.2113 17.2131 12.562 17.0462 12.562 16.8403C12.562 16.6343 12.2113 16.4674 11.7787 16.4674C11.3461 16.4674 10.9954 16.6343 10.9954 16.8403C10.9954 17.0462 11.3461 17.2131 11.7787 17.2131Z" fill="#F7BAD5"/>
<path d="M4.54013 9.6819C4.54013 9.6819 4.96412 4.98359 6.52956 2.64248C6.67955 2.4182 6.99959 2.386 7.18997 2.57723C7.63938 3.0289 8.47803 4.97003 9.21161 6.99364C9.21161 6.99364 8.36024 7.186 4.54013 9.68162V9.6819Z" fill="#F7BAD5"/>
<path d="M19.6539 9.6819C19.6539 9.6819 19.2299 4.98359 17.6645 2.64248C17.5145 2.4182 17.1945 2.386 17.0041 2.57723C16.5547 3.0289 15.672 4.97003 14.9381 6.99364C14.9381 6.99364 16.2731 7.186 19.6537 9.68162L19.6539 9.6819Z" fill="#F7BAD5"/>
<path d="M14.7409 8.86984C15.6112 5.61608 10.7468 6.16548 10.8556 2.91821C10.8663 4.29864 10.6107 5.76494 11.5493 6.88041C10.0279 7.05949 9.55877 5.02261 9.1441 4.07012C9.01417 5.84516 8.68424 8.60291 10.6929 9.36331" fill="#D5E9F8"/>
<path d="M15.1358 8.86977C16.1234 4.82142 10.7796 5.72871 10.8881 2.48145C10.8988 3.86187 10.709 5.17225 11.6476 6.288C10.1263 6.46709 9.54917 4.59714 9.1345 3.64465C9.00457 5.41969 10.0011 8.67232 12.7659 9.36353" fill="white"/>
</g>
<defs>
<clipPath id="clip0_5058_10428">
<rect width="24" height="24" fill="white"/>
</clipPath>
</defs>
</svg>
