<svg width="24" height="24" viewBox="0 0 24 24" fill="none" xmlns="http://www.w3.org/2000/svg">
<path d="M19.2842 4.71829C18.0013 4.24359 16.9898 3.23211 16.5151 1.94922C16.0404 3.23211 15.0289 4.24359 13.7461 4.71829C15.0289 5.193 16.0404 6.20448 16.5151 7.48737C16.9898 6.20448 18.0013 5.193 19.2842 4.71829Z" fill="white"/>
<path fill-rule="evenodd" clip-rule="evenodd" d="M7.37053 12.2038L12.4096 5.43555L15.3228 9.34854C19.6752 8.07369 23.126 8.11481 23.8591 9.68721C24.5919 11.2586 22.4086 13.9261 18.6388 16.4394C17.2313 17.3777 15.6027 18.2945 13.8222 19.1248L17.8645 18.8963C17.5901 19.3787 17.246 19.8314 16.8332 20.2392C14.6857 22.3615 11.3653 22.6183 8.93397 21.0095C4.46104 22.3618 0.888441 22.3505 0.140853 20.7472C-0.560349 19.2435 1.40879 16.7361 4.88314 14.3206C4.74586 14.9483 4.69299 15.5881 4.72349 16.224C4.09123 17.0778 3.8551 17.8589 4.1315 18.4517C4.49334 19.2276 5.6672 19.5382 7.28631 19.4167C5.7673 17.2783 5.75686 14.3712 7.37053 12.2038ZM17.4486 12.2038L15.9088 10.1356C18.1082 9.75389 19.7642 10.0071 20.2065 10.9558C20.6112 11.8236 19.9171 13.0955 18.4895 14.408C18.299 13.6317 17.9532 12.8816 17.4486 12.2038Z" fill="white"/>
</svg>
