<svg width="24" height="24" viewBox="0 0 24 24" fill="none" xmlns="http://www.w3.org/2000/svg">
<g clip-path="url(#clip0_4099_11272)">
<path d="M24.0004 12C24.0004 5.37258 18.6278 0 12.0004 0C5.37295 0 0.000366211 5.37258 0.000366211 12C0.000366211 18.6274 5.37295 24 12.0004 24C18.6278 24 24.0004 18.6274 24.0004 12Z" fill="#634FFC"/>
<path d="M15.0083 4.5C15.3247 5.35526 15.999 6.02958 16.8543 6.34605C15.999 6.66252 15.3247 7.33684 15.0083 8.1921C14.6918 7.33684 14.0175 6.66252 13.1622 6.34605C14.0175 6.02958 14.6918 5.35526 15.0083 4.5Z" fill="white"/>
<path fill-rule="evenodd" clip-rule="evenodd" d="M12.2734 6.82471L8.91405 11.3369C7.83827 12.7818 7.84523 14.7199 8.8579 16.1455C7.7785 16.2265 6.99593 16.0194 6.7547 15.5021C6.57043 15.107 6.72785 14.5862 7.14936 14.017C7.12903 13.5931 7.16428 13.1665 7.25579 12.7481C4.93956 14.3584 3.6268 16.03 4.09427 17.0325C4.59266 18.1013 6.97439 18.1089 9.95635 17.2074C11.5772 18.2798 13.7908 18.1087 15.2225 16.6938C15.4977 16.4219 15.7271 16.1202 15.91 15.7985L13.2152 15.9509C14.4022 15.3974 15.4879 14.7862 16.4262 14.1606C18.9394 12.4851 20.395 10.7068 19.9065 9.65915C19.4177 8.61088 17.1172 8.58347 14.2156 9.43337L12.2734 6.82471ZM14.6062 9.9581L15.6328 11.3369C15.9692 11.7887 16.1997 12.2888 16.3267 12.8063C17.2784 11.9313 17.7412 11.0834 17.4714 10.5049C17.1765 9.87239 16.0725 9.7036 14.6062 9.9581Z" fill="white"/>
</g>
<defs>
<clipPath id="clip0_4099_11272">
<rect width="24" height="24" fill="white" transform="translate(0.000366211)"/>
</clipPath>
</defs>
</svg>
