<svg width="24" height="24" viewBox="0 0 24 24" fill="none" xmlns="http://www.w3.org/2000/svg">
<g clip-path="url(#clip0_4072_2537)">
<path d="M24 12C24 5.37258 18.6274 0 12 0C5.37258 0 0 5.37258 0 12C0 18.6274 5.37258 24 12 24C18.6274 24 24 18.6274 24 12Z" fill="url(#paint0_radial_4072_2537)"/>
<path fill-rule="evenodd" clip-rule="evenodd" d="M2.03999 12C2.03999 6.49929 6.49924 2.04004 12 2.04004C17.5008 2.04004 21.96 6.49929 21.96 12C21.96 17.5008 17.5008 21.96 12 21.96C6.49924 21.96 2.03999 17.5008 2.03999 12ZM4.3192 8.41554C4.29125 8.2863 4.11475 8.26145 4.05985 8.38174C3.55675 9.48399 3.2764 10.7093 3.2764 12C3.2764 13.2908 3.55673 14.5161 4.05985 15.6183C4.11475 15.7386 4.29175 15.7136 4.32135 15.5847C4.4111 15.194 4.53746 14.7918 4.69555 14.3838C5.53441 12.2192 7.01811 10.28 8.64902 8.64906C9.32636 7.97172 10.0257 7.35997 10.7278 6.82176C10.8055 6.76217 10.7988 6.64264 10.7138 6.59401C10.1807 6.28913 9.6621 6.0394 9.16941 5.84847C8.35634 5.53338 7.64191 5.38932 7.06514 5.40164C6.49264 5.41386 6.09518 5.57712 5.83613 5.83617C5.54759 6.12471 5.3764 6.58843 5.40368 7.27198C5.42929 7.91412 5.63071 8.69769 6.01533 9.57275C6.06202 9.67897 6.03952 9.80337 5.95671 9.88463L5.40125 10.4789C5.27642 10.6014 5.07127 10.5769 4.99365 10.4202C4.70831 9.84392 4.45148 9.02714 4.3192 8.41554ZM8.38171 4.05988C8.26142 4.11479 8.28646 4.29179 8.41534 4.32139C8.80604 4.41113 9.20822 4.5375 9.61617 4.69559C11.4354 5.40059 13.482 6.78008 15.351 8.64906C15.9072 9.20522 16.5085 10.2098 16.6889 11.3916C16.7086 11.5203 16.8806 11.5649 16.9518 11.4559C17.4692 10.6623 17.873 9.88828 18.1516 9.16944C18.4667 8.35638 18.6107 7.64195 18.5984 7.06517C18.5862 6.49269 18.4229 6.09522 18.1639 5.83617C17.8688 5.54115 17.3588 5.36161 16.65 5.39892C15.9871 5.43382 15.3593 5.59223 14.4842 5.99217C14.368 6.04531 14.2316 6.03212 14.1294 5.95535L13.4756 5.44811C13.3602 5.36141 13.3676 5.18578 13.4914 5.11138C14.2229 4.67156 14.8396 4.39917 15.4276 4.29243C15.5693 4.26669 15.6113 4.05538 15.4792 3.99787C14.4133 3.5338 13.2367 3.27645 12 3.27645C10.7092 3.27645 9.48395 3.55678 8.38171 4.05988ZM14.474 14.4794C15.7967 13.119 15.8438 10.8905 14.4767 9.52333C13.9691 9.01576 13.451 8.54963 12.9318 8.12804C12.3875 7.68594 11.6125 7.68596 11.0682 8.12804C10.5482 8.55029 10.0301 9.01655 9.52329 9.52333C8.22997 10.8167 8.1998 12.8756 9.33946 14.2724C10.5968 15.8134 13.0759 15.8726 14.474 14.4794ZM12.5999 16.6815C12.47 16.6995 12.4237 16.873 12.5334 16.9448C13.3308 17.4657 14.1085 17.8718 14.8306 18.1516C15.6437 18.4667 16.3582 18.6107 16.9349 18.5985C17.5074 18.5862 17.9048 18.4229 18.1639 18.164C18.4524 17.8754 18.6236 17.4117 18.5963 16.7282C18.571 16.0906 18.374 15.3275 17.9951 14.4621C17.9425 14.3421 17.9597 14.2024 18.0422 14.1008L18.6271 13.3808C18.7138 13.2742 18.8783 13.2808 18.9484 13.3988C19.353 14.079 19.5852 14.8989 19.6955 15.5273C19.7191 15.6624 19.9063 15.6941 19.9625 15.5691C20.4515 14.4796 20.7236 13.2716 20.7236 12C20.7236 10.7093 20.4432 9.48401 19.9402 8.38176C19.8852 8.26148 19.7082 8.28652 19.6787 8.4154C19.5889 8.80609 19.4626 9.20826 19.3045 9.6162C18.5994 11.4355 17.22 13.482 15.351 15.351C14.628 16.074 13.6186 16.5405 12.5999 16.6815ZM15.6182 19.9402C15.7386 19.8852 15.7135 19.7082 15.5846 19.6787C15.1939 19.589 14.7918 19.4626 14.3838 19.3044C12.5646 18.5994 10.518 17.22 8.64902 15.351C8.06606 14.7681 7.48267 13.7765 7.30907 12.6124C7.28984 12.4834 7.1173 12.4383 7.04608 12.5476C6.52959 13.34 6.12659 14.1128 5.84842 14.8306C5.53335 15.6437 5.38928 16.3581 5.4016 16.9349C5.41383 17.5074 5.57708 17.9049 5.83613 18.164C6.12141 18.4492 6.5776 18.6196 7.24853 18.5973C7.87493 18.5763 8.63865 18.3863 9.49288 18.0194C9.61081 17.9687 9.74736 17.9849 9.84817 18.0644L10.4677 18.5525C10.5789 18.6402 10.5704 18.8111 10.4475 18.8816C9.7708 19.2696 9.01269 19.5335 8.41466 19.6763C8.28605 19.707 8.26142 19.8852 8.38172 19.9402C9.48395 20.4432 10.7092 20.7237 12 20.7237C13.2907 20.7237 14.516 20.4432 15.6182 19.9402Z" fill="white"/>
<path d="M11.6257 9.65219C11.6314 9.64722 11.6366 9.64236 11.6421 9.63731C11.8611 9.43721 12.1981 9.44082 12.4128 9.64587C12.4174 9.65025 12.4217 9.65438 12.4264 9.6587C12.4998 9.72697 13.1632 10.3453 13.5506 10.7693C13.9471 11.2547 14.0333 11.9716 13.7659 12.5607C13.0303 14.1816 11.0007 14.1971 10.2439 12.5887C9.96069 11.9871 10.0506 11.2454 10.4667 10.7542C10.7807 10.4017 11.5389 9.72899 11.6257 9.65219Z" fill="white"/>
</g>
<defs>
<radialGradient id="paint0_radial_4072_2537" cx="0" cy="0" r="1" gradientUnits="userSpaceOnUse" gradientTransform="translate(24 -0.539999) rotate(134.363) scale(34.325 22.9646)">
<stop stop-color="#5278FF"/>
<stop offset="0.361196" stop-color="#BE7CFF"/>
<stop offset="0.756992" stop-color="#E69EFE"/>
<stop offset="1" stop-color="#F7D4F5"/>
</radialGradient>
<clipPath id="clip0_4072_2537">
<rect width="24" height="24" fill="white"/>
</clipPath>
</defs>
</svg>
