<svg width="24" height="24" viewBox="0 0 24 24" fill="none" xmlns="http://www.w3.org/2000/svg">
<circle cx="12.0002" cy="12" r="12" fill="#172852"/>
<path d="M10.3318 16.3335C10.7818 17.9985 12.3964 19.2686 13.2118 19.216C13.2404 19.2142 16.3044 18.6429 17.9818 15.841C19.2868 13.66 18.8426 11.5545 17.0674 11.5086C16.4286 11.5552 9.47476 13.1621 10.3322 16.3339L10.3318 16.3335ZM16.9018 5.64037L16.9 5.63879L16.9025 5.63722C15.7842 4.68609 14.42 4.07024 12.9671 3.86061C11.5141 3.65098 10.0314 3.85611 8.68996 4.45237C8.52027 4.52295 8.35498 4.60364 8.19496 4.69402C8.08561 4.75229 7.97626 4.81034 7.87006 4.87402L7.89593 4.88212C7.58193 5.09587 7.30427 5.35864 7.07356 5.66039C4.83886 8.61442 12.3345 10.7625 16.3427 10.7688C18.1856 12.0922 18.7031 7.04257 16.9018 5.64037Z" fill="#0E3CA5"/>
<path d="M9.14266 5.69998C8.11284 7.24798 4.68271 8.33856 4.11864 8.16868L4.11481 8.16148C4.13731 8.11491 4.16139 8.06833 4.18524 8.02221C4.77018 6.89555 5.60712 5.91901 6.63099 5.16853C6.84204 5.01373 7.06051 4.86906 7.28641 4.73451C7.63403 4.54264 8.02341 4.43896 8.42041 4.43256C9.94794 4.46181 9.15031 5.68806 9.14221 5.70043L9.14266 5.69998ZM8.29756 16.6379C8.37159 17.1241 8.29576 19.0454 8.19631 19.207C8.11059 19.2121 7.93216 19.2232 7.41534 18.9331C5.76504 17.9915 4.49182 16.5073 3.81217 14.733C3.13252 12.9587 3.0884 11.0037 3.68731 9.20053C3.71476 9.11803 3.74349 9.03606 3.77349 8.95461C4.36546 9.74211 5.05059 10.4545 5.63289 11.2496C6.18751 12.0067 6.95049 13.2411 7.10574 13.505C8.06964 15.1423 8.22331 16.1526 8.29689 16.6381L8.29756 16.6379ZM19.6927 11.7961C19.694 12.8286 19.5 13.8521 19.121 14.8125C18.1535 15.852 11.6323 13.2931 11.5684 13.2649C10.6763 12.8741 7.96141 11.685 7.71639 9.81748C7.36516 7.12873 12.8169 5.25583 15.2132 5.18496C15.5005 5.18833 16.3748 5.19846 16.8847 5.61246C17.7676 6.3825 18.4752 7.33294 18.9595 8.39966C19.4439 9.46638 19.6939 10.6246 19.6927 11.7961ZM15.278 19.0798C14.5672 19.4117 13.7844 19.1698 13.9878 18.4777C14.3782 17.1482 17.7872 15.7852 18.54 15.7102C18.6329 15.701 18.6723 15.7642 18.6311 15.8365C17.8467 17.2156 16.6832 18.3408 15.2786 19.0787" fill="#5493F7"/>
<path d="M6.90077 20.3822C6.89067 20.5323 6.93989 20.6804 7.03785 20.7946C7.1358 20.9088 7.27467 20.9799 7.42457 20.9928C14.3321 21.0401 21.0002 20.7228 21.0002 19.6878C21.0002 16.5549 6.90077 20.3822 6.90077 20.3822Z" fill="url(#paint0_linear_927_5632)"/>
<path d="M16.3987 20.0244L15.0696 18.6953C13.5146 18.9037 11.8856 19.218 10.4947 19.5195L11.6699 20.6947C13.4033 20.5102 15.019 20.2541 16.3987 20.0244Z" fill="url(#paint1_linear_927_5632)"/>
<path d="M15.0696 18.6953L16.3987 20.0244C19.0971 19.5744 20.892 19.2279 20.892 19.7171C20.892 20.672 14.3283 20.9996 7.42775 20.953C7.40933 20.953 7.39093 20.9519 7.37263 20.9498C7.28239 20.9379 7.19675 20.9029 7.124 20.8482C7.05124 20.7935 6.99382 20.7209 6.95728 20.6375V20.636C6.9448 20.6092 6.93441 20.5815 6.92622 20.5532C6.93441 20.5815 6.9448 20.6092 6.95728 20.636C6.99771 20.7274 7.06343 20.8054 7.14671 20.8607C7.22998 20.9161 7.32734 20.9464 7.4273 20.9483C8.87563 20.9395 10.3089 20.8385 11.6701 20.6936L10.4947 19.5195C8.43687 19.9655 6.9008 20.3822 6.9008 20.3822C6.89055 20.5328 6.94007 20.6813 7.03863 20.7956C7.13719 20.9099 7.27684 20.9808 7.4273 20.9928C14.333 21.0452 20.9919 20.8283 21.0002 19.6878C21.0002 18.2879 18.1843 18.2775 15.0696 18.6953Z" fill="url(#paint2_linear_927_5632)"/>
<path d="M7.42816 11.5102C7.35891 11.5102 7.29033 11.5238 7.22635 11.5503C7.16236 11.5767 7.10422 11.6156 7.05524 11.6645C7.00627 11.7135 6.96741 11.7716 6.94091 11.8356C6.9144 11.8996 6.90076 11.9681 6.90076 12.0374V20.3822C6.90058 20.5215 6.95557 20.6553 7.05373 20.7542C7.15188 20.8531 7.28521 20.9091 7.42456 20.91C14.3318 20.8583 21.0085 18.572 21.0002 19.688V10.2884C21.0085 9.17245 14.3341 11.4584 7.42816 11.5102Z" fill="url(#paint3_linear_927_5632)"/>
<path d="M11.6177 11.2422V20.6413C13.3313 20.449 14.9378 20.1832 16.3202 19.9452V10.5456C14.9369 10.785 13.3306 11.0496 11.6177 11.2422Z" fill="url(#paint4_linear_927_5632)"/>
<path d="M9.62979 15.8842L10.0001 15.6367C9.50696 15.6753 9.01306 15.7041 8.51874 15.7231C8.66679 15.8059 8.74059 15.847 8.88886 15.9285C9.03714 16.0099 9.11094 16.0502 9.25921 16.131C9.40749 16.0318 9.48151 15.9825 9.62979 15.8842Z" fill="url(#paint5_linear_927_5632)"/>
<path d="M9.75198 15.0681C9.60764 15.172 9.43677 15.2328 9.25923 15.2434C9.0869 15.2546 8.91519 15.2135 8.76671 15.1252C8.62536 15.0407 8.51312 14.9152 8.44496 14.7652V14.7792C8.44435 14.8831 8.4652 14.986 8.5062 15.0815C8.5472 15.177 8.60747 15.2629 8.68323 15.334C8.76026 15.4056 8.85112 15.4606 8.95022 15.4958C9.04932 15.5309 9.15456 15.5454 9.25946 15.5383C9.47912 15.5243 9.68522 15.4272 9.83591 15.2668C9.98697 15.1102 10.0723 14.9016 10.0742 14.684V14.6703C10.0048 14.8296 9.89342 14.9671 9.75198 15.0681Z" fill="url(#paint6_linear_927_5632)"/>
<path d="M9.25921 13.7667C9.35893 13.7597 9.45236 13.7154 9.52099 13.6428C9.58963 13.5701 9.62846 13.4743 9.62979 13.3743C9.62979 13.2267 9.53709 13.2146 9.53709 13.1592C9.53709 13.1039 9.59289 13.0265 9.48151 12.9414C9.53709 13.0314 9.44461 13.0539 9.44461 13.1468C9.44461 13.2398 9.48151 13.2368 9.48151 13.3102C9.48124 13.3302 9.47352 13.3493 9.45987 13.3639C9.44621 13.3784 9.42761 13.3874 9.40771 13.3889C9.39818 13.3897 9.38859 13.3885 9.37956 13.3854C9.37052 13.3822 9.36225 13.3772 9.35526 13.3707C9.34826 13.3642 9.34271 13.3563 9.33896 13.3475C9.33521 13.3387 9.33333 13.3292 9.33346 13.3196C9.33346 13.2461 9.40771 13.1675 9.40771 13.0566C9.41214 12.9718 9.38577 12.8882 9.33346 12.8213C9.27789 12.7326 9.18519 12.6638 9.25921 12.5857C9.14806 12.6291 9.20364 12.7736 9.20364 12.866C9.20364 12.9585 9.12984 13.0177 9.12984 13.1284C9.12984 13.2391 9.18519 13.2544 9.18519 13.3282C9.18488 13.3481 9.17707 13.3672 9.16331 13.3817C9.14954 13.3961 9.13084 13.4048 9.11094 13.406C9.1014 13.4067 9.09183 13.4054 9.08282 13.4022C9.07382 13.3989 9.06557 13.3939 9.05861 13.3874C9.05164 13.3808 9.0461 13.3729 9.04232 13.3641C9.03855 13.3553 9.03663 13.3459 9.03668 13.3363C9.03668 13.2625 9.07404 13.2607 9.07404 13.1682C9.07404 13.0757 8.98133 13.0627 9.03668 12.9675C8.92576 13.0656 8.98133 13.136 8.98133 13.1925C8.98133 13.249 8.88863 13.271 8.88863 13.4175C8.88808 13.4654 8.89745 13.5128 8.91616 13.5568C8.93487 13.6009 8.96251 13.6406 8.99734 13.6734C9.03216 13.7062 9.07342 13.7314 9.11849 13.7475C9.16356 13.7636 9.21148 13.7701 9.25921 13.7667Z" fill="url(#paint7_linear_927_5632)"/>
<path d="M9.25925 15.0956C9.41944 15.0852 9.56952 15.0137 9.67843 14.8958C9.78869 14.7795 9.85069 14.6258 9.8519 14.4656C9.85272 14.3897 9.83771 14.3145 9.80784 14.2448C9.77798 14.1751 9.7339 14.1123 9.67843 14.0606C9.62212 14.0091 9.55592 13.9696 9.48386 13.9445C9.41179 13.9194 9.33538 13.9092 9.25925 13.9145C9.09996 13.9243 8.95024 13.9939 8.84008 14.1094C8.72954 14.2233 8.66737 14.3757 8.6666 14.5344C8.66569 14.6111 8.68064 14.6871 8.71052 14.7576C8.7404 14.8282 8.78456 14.8918 8.84022 14.9445C8.89589 14.9972 8.96185 15.0378 9.03396 15.0638C9.10608 15.0897 9.18278 15.1005 9.25925 15.0953V15.0956Z" fill="url(#paint8_linear_927_5632)"/>
<path d="M9.25925 17.4133C9.35287 17.4066 9.44059 17.3651 9.50514 17.297C9.56969 17.2289 9.60638 17.139 9.608 17.0452C9.60825 17.0013 9.5996 16.9579 9.58258 16.9175C9.56556 16.8771 9.54051 16.8405 9.50896 16.8101C9.47741 16.7796 9.44001 16.7559 9.39903 16.7403C9.35804 16.7247 9.31432 16.7176 9.2705 16.7194H9.26015C9.06119 16.7316 8.87414 16.8183 8.73635 16.9624C8.598 17.1046 8.52031 17.295 8.51968 17.4934C8.51862 17.6272 8.55519 17.7585 8.6252 17.8725C8.69356 17.9815 8.79096 18.0693 8.90645 18.1261C8.85062 18.0529 8.8207 17.9632 8.8214 17.8712C8.82223 17.7539 8.86834 17.6414 8.9501 17.5573C9.03128 17.472 9.14172 17.4205 9.25925 17.4133ZM9.25925 16.9183C9.27835 16.917 9.2975 16.9196 9.31552 16.9261C9.33353 16.9326 9.35001 16.9427 9.36392 16.9558C9.37783 16.969 9.38887 16.9849 9.39633 17.0025C9.4038 17.0201 9.40753 17.0391 9.4073 17.0582C9.40697 17.0981 9.39151 17.1364 9.36402 17.1654C9.33654 17.1943 9.29909 17.2118 9.25925 17.2142C9.24023 17.2156 9.22112 17.2131 9.20314 17.2067C9.18515 17.2004 9.16868 17.1903 9.15478 17.1773C9.14088 17.1642 9.12984 17.1484 9.12238 17.1309C9.11491 17.1133 9.11118 17.0944 9.11143 17.0753C9.11194 17.0354 9.12742 16.9972 9.15479 16.9681C9.18217 16.9391 9.21945 16.9214 9.25925 16.9185V16.9183Z" fill="url(#paint9_linear_927_5632)"/>
<path d="M9.61044 16.7859C9.66666 16.8583 9.697 16.9474 9.69661 17.0391C9.69482 17.1569 9.6489 17.2698 9.56791 17.3554C9.48692 17.441 9.37677 17.4931 9.25921 17.5014C9.16556 17.5076 9.07774 17.5491 9.01351 17.6176C8.94825 17.6845 8.91133 17.774 8.91046 17.8675C8.91031 17.9126 8.91937 17.9573 8.93709 17.9988C8.95481 18.0402 8.98082 18.0777 9.01351 18.1087C9.04497 18.1382 9.08196 18.1612 9.12236 18.1764C9.16276 18.1915 9.20575 18.1985 9.24886 18.1969H9.25921C9.45951 18.1838 9.64712 18.0942 9.78324 17.9467C9.9211 17.8013 9.99862 17.6089 10.0001 17.4085C10.0011 17.2757 9.96355 17.1454 9.89214 17.0334C9.8234 16.9261 9.72576 16.8403 9.61044 16.7859ZM9.25921 17.996C9.2402 17.9974 9.22111 17.9948 9.20314 17.9885C9.18517 17.9821 9.16871 17.9721 9.15482 17.9591C9.14092 17.946 9.12988 17.9302 9.12241 17.9127C9.11493 17.8951 9.11118 17.8762 9.11139 17.8572C9.11177 17.8173 9.12723 17.7791 9.15466 17.7502C9.18209 17.7213 9.21945 17.7039 9.25921 17.7015C9.27824 17.7 9.29737 17.7025 9.31538 17.7088C9.33339 17.7151 9.34989 17.7251 9.36382 17.7381C9.37776 17.7511 9.38882 17.767 9.3963 17.7845C9.40377 17.8021 9.40751 17.821 9.40726 17.8401C9.40694 17.88 9.39147 17.9183 9.36398 17.9472C9.3365 17.9762 9.29906 17.9936 9.25921 17.996Z" fill="url(#paint10_linear_927_5632)"/>
<path d="M8.51874 18.3797V18.6746C9.013 18.6561 9.50683 18.6274 9.99991 18.5885V18.2933C9.70381 18.3158 9.48241 18.3306 9.25899 18.3439C9.03556 18.3572 8.81461 18.3675 8.51874 18.3797Z" fill="url(#paint11_linear_927_5632)"/>
<path d="M10.148 19.1669C10.4441 19.1424 10.5919 19.1289 10.8883 19.1008V15.5575C10.6417 15.5814 10.3949 15.6035 10.148 15.6236V19.1669Z" fill="url(#paint12_linear_927_5632)"/>
<path d="M7.62958 19.2925C7.9259 19.2862 8.07418 19.2817 8.3705 19.27V15.7267C8.07463 15.737 7.92635 15.742 7.62958 15.7492V19.2925Z" fill="url(#paint13_linear_927_5632)"/>
<path d="M8.51855 18.8225C8.66638 18.905 8.74063 18.946 8.88868 19.0279C9.03673 19.1098 9.11098 19.1494 9.25926 19.2293C9.40753 19.1323 9.48156 19.0832 9.62983 18.9847C9.77811 18.8861 9.85168 18.836 9.99996 18.7358C9.70386 18.7583 9.55558 18.7691 9.25926 18.7865C8.96293 18.8038 8.81465 18.8103 8.51855 18.8225Z" fill="url(#paint14_linear_927_5632)"/>
<path d="M8.51874 16.3124V16.6078C8.81461 16.5961 9.03624 16.5853 9.25899 16.5718C9.48174 16.5583 9.70516 16.545 10.0004 16.5225V16.2262C9.70404 16.2487 9.48151 16.2635 9.25921 16.2766C9.03691 16.2896 8.81461 16.3009 8.51874 16.3124Z" fill="url(#paint15_linear_927_5632)"/>
<defs>
<linearGradient id="paint0_linear_927_5632" x1="6.90077" y1="19.7263" x2="21.0002" y2="19.7263" gradientUnits="userSpaceOnUse">
<stop stop-color="#700000"/>
<stop offset="0.327" stop-color="#730000"/>
<stop offset="0.59" stop-color="#7D0000"/>
<stop offset="0.83" stop-color="#8E0000"/>
<stop offset="1" stop-color="#9F0000"/>
</linearGradient>
<linearGradient id="paint1_linear_927_5632" x1="13.4467" y1="18.4552" x2="13.4467" y2="21" gradientUnits="userSpaceOnUse">
<stop offset="0.35" stop-color="#0050CF"/>
<stop offset="0.645" stop-color="#004ECD"/>
<stop offset="0.752" stop-color="#0049C6"/>
<stop offset="0.828" stop-color="#003FBB"/>
<stop offset="0.889" stop-color="#0031AA"/>
<stop offset="0.941" stop-color="#001E94"/>
<stop offset="0.987" stop-color="#000879"/>
<stop offset="1" stop-color="#000070"/>
</linearGradient>
<linearGradient id="paint2_linear_927_5632" x1="13.9505" y1="18.4555" x2="13.9505" y2="21" gradientUnits="userSpaceOnUse">
<stop offset="0.35" stop-color="#CF2000"/>
<stop offset="0.645" stop-color="#CD1F00"/>
<stop offset="0.752" stop-color="#C61D00"/>
<stop offset="0.828" stop-color="#BB1900"/>
<stop offset="0.889" stop-color="#AA1300"/>
<stop offset="0.941" stop-color="#940C00"/>
<stop offset="0.987" stop-color="#790300"/>
<stop offset="1" stop-color="#700000"/>
</linearGradient>
<linearGradient id="paint3_linear_927_5632" x1="6.90076" y1="15.4457" x2="21.0002" y2="15.4457" gradientUnits="userSpaceOnUse">
<stop stop-color="#CF2000"/>
<stop offset="0.021" stop-color="#D12201"/>
<stop offset="0.244" stop-color="#E23309"/>
<stop offset="0.487" stop-color="#EC3D0E"/>
<stop offset="0.791" stop-color="#EF4010"/>
<stop offset="0.841" stop-color="#EC3D0F"/>
<stop offset="0.882" stop-color="#E2330D"/>
<stop offset="0.919" stop-color="#D12208"/>
<stop offset="0.954" stop-color="#B90A03"/>
<stop offset="0.966" stop-color="#AF0000"/>
<stop offset="1" stop-color="#EF4010"/>
</linearGradient>
<linearGradient id="paint4_linear_927_5632" x1="6.901" y1="15.5935" x2="21.0002" y2="15.5935" gradientUnits="userSpaceOnUse">
<stop stop-color="#0050CF"/>
<stop offset="0.021" stop-color="#0252D1"/>
<stop offset="0.244" stop-color="#1363E2"/>
<stop offset="0.487" stop-color="#1D6DEC"/>
<stop offset="0.791" stop-color="#2070EF"/>
<stop offset="0.841" stop-color="#1E6DEC"/>
<stop offset="0.882" stop-color="#1963E2"/>
<stop offset="0.919" stop-color="#1152D1"/>
<stop offset="0.954" stop-color="#053AB9"/>
<stop offset="0.966" stop-color="#0030AF"/>
<stop offset="1" stop-color="#2070EF"/>
</linearGradient>
<linearGradient id="paint5_linear_927_5632" x1="6.90099" y1="15.8824" x2="20.9997" y2="15.8824" gradientUnits="userSpaceOnUse">
<stop stop-color="#FBBF00"/>
<stop offset="0.021" stop-color="#FBC102"/>
<stop offset="0.244" stop-color="#FDD213"/>
<stop offset="0.487" stop-color="#FFDC1D"/>
<stop offset="0.791" stop-color="#FFDF20"/>
<stop offset="0.841" stop-color="#FDDC1E"/>
<stop offset="0.882" stop-color="#F8D219"/>
<stop offset="0.919" stop-color="#EEC111"/>
<stop offset="0.954" stop-color="#E1A905"/>
<stop offset="0.966" stop-color="#DB9F00"/>
<stop offset="1" stop-color="#FFDF20"/>
</linearGradient>
<linearGradient id="paint6_linear_927_5632" x1="6.90078" y1="15.105" x2="21.0002" y2="15.105" gradientUnits="userSpaceOnUse">
<stop stop-color="#FBBF00"/>
<stop offset="0.021" stop-color="#FBC102"/>
<stop offset="0.244" stop-color="#FDD213"/>
<stop offset="0.487" stop-color="#FFDC1D"/>
<stop offset="0.791" stop-color="#FFDF20"/>
<stop offset="0.841" stop-color="#FDDC1E"/>
<stop offset="0.882" stop-color="#F8D219"/>
<stop offset="0.919" stop-color="#EEC111"/>
<stop offset="0.954" stop-color="#E1A905"/>
<stop offset="0.966" stop-color="#DB9F00"/>
<stop offset="1" stop-color="#FFDF20"/>
</linearGradient>
<linearGradient id="paint7_linear_927_5632" x1="6.90075" y1="13.1765" x2="21.0007" y2="13.1765" gradientUnits="userSpaceOnUse">
<stop stop-color="#FBBF00"/>
<stop offset="0.021" stop-color="#FBC102"/>
<stop offset="0.244" stop-color="#FDD213"/>
<stop offset="0.487" stop-color="#FFDC1D"/>
<stop offset="0.791" stop-color="#FFDF20"/>
<stop offset="0.841" stop-color="#FDDC1E"/>
<stop offset="0.882" stop-color="#F8D219"/>
<stop offset="0.919" stop-color="#EEC111"/>
<stop offset="0.954" stop-color="#E1A905"/>
<stop offset="0.966" stop-color="#DB9F00"/>
<stop offset="1" stop-color="#FFDF20"/>
</linearGradient>
<linearGradient id="paint8_linear_927_5632" x1="6.90103" y1="14.5052" x2="20.9995" y2="14.5052" gradientUnits="userSpaceOnUse">
<stop stop-color="#FBBF00"/>
<stop offset="0.021" stop-color="#FBC102"/>
<stop offset="0.244" stop-color="#FDD213"/>
<stop offset="0.487" stop-color="#FFDC1D"/>
<stop offset="0.791" stop-color="#FFDF20"/>
<stop offset="0.841" stop-color="#FDDC1E"/>
<stop offset="0.882" stop-color="#F8D219"/>
<stop offset="0.919" stop-color="#EEC111"/>
<stop offset="0.954" stop-color="#E1A905"/>
<stop offset="0.966" stop-color="#DB9F00"/>
<stop offset="1" stop-color="#FFDF20"/>
</linearGradient>
<linearGradient id="paint9_linear_927_5632" x1="6.90102" y1="17.423" x2="20.9995" y2="17.423" gradientUnits="userSpaceOnUse">
<stop stop-color="#FBBF00"/>
<stop offset="0.021" stop-color="#FBC102"/>
<stop offset="0.244" stop-color="#FDD213"/>
<stop offset="0.487" stop-color="#FFDC1D"/>
<stop offset="0.791" stop-color="#FFDF20"/>
<stop offset="0.841" stop-color="#FDDC1E"/>
<stop offset="0.882" stop-color="#F8D219"/>
<stop offset="0.919" stop-color="#EEC111"/>
<stop offset="0.954" stop-color="#E1A905"/>
<stop offset="0.966" stop-color="#DB9F00"/>
<stop offset="1" stop-color="#FFDF20"/>
</linearGradient>
<linearGradient id="paint10_linear_927_5632" x1="6.90054" y1="17.4916" x2="21.0008" y2="17.4916" gradientUnits="userSpaceOnUse">
<stop stop-color="#FBBF00"/>
<stop offset="0.021" stop-color="#FBC102"/>
<stop offset="0.244" stop-color="#FDD213"/>
<stop offset="0.487" stop-color="#FFDC1D"/>
<stop offset="0.791" stop-color="#FFDF20"/>
<stop offset="0.841" stop-color="#FDDC1E"/>
<stop offset="0.882" stop-color="#F8D219"/>
<stop offset="0.919" stop-color="#EEC111"/>
<stop offset="0.954" stop-color="#E1A905"/>
<stop offset="0.966" stop-color="#DB9F00"/>
<stop offset="1" stop-color="#FFDF20"/>
</linearGradient>
<linearGradient id="paint11_linear_927_5632" x1="6.90099" y1="18.4841" x2="20.9997" y2="18.4841" gradientUnits="userSpaceOnUse">
<stop stop-color="#FBBF00"/>
<stop offset="0.021" stop-color="#FBC102"/>
<stop offset="0.244" stop-color="#FDD213"/>
<stop offset="0.487" stop-color="#FFDC1D"/>
<stop offset="0.791" stop-color="#FFDF20"/>
<stop offset="0.841" stop-color="#FDDC1E"/>
<stop offset="0.882" stop-color="#F8D219"/>
<stop offset="0.919" stop-color="#EEC111"/>
<stop offset="0.954" stop-color="#E1A905"/>
<stop offset="0.966" stop-color="#DB9F00"/>
<stop offset="1" stop-color="#FFDF20"/>
</linearGradient>
<linearGradient id="paint12_linear_927_5632" x1="6.90149" y1="17.3622" x2="20.9989" y2="17.3622" gradientUnits="userSpaceOnUse">
<stop stop-color="#FBBF00"/>
<stop offset="0.021" stop-color="#FBC102"/>
<stop offset="0.244" stop-color="#FDD213"/>
<stop offset="0.487" stop-color="#FFDC1D"/>
<stop offset="0.791" stop-color="#FFDF20"/>
<stop offset="0.841" stop-color="#FDDC1E"/>
<stop offset="0.882" stop-color="#F8D219"/>
<stop offset="0.919" stop-color="#EEC111"/>
<stop offset="0.954" stop-color="#E1A905"/>
<stop offset="0.966" stop-color="#DB9F00"/>
<stop offset="1" stop-color="#FFDF20"/>
</linearGradient>
<linearGradient id="paint13_linear_927_5632" x1="6.9008" y1="17.51" x2="21.0004" y2="17.51" gradientUnits="userSpaceOnUse">
<stop stop-color="#FBBF00"/>
<stop offset="0.021" stop-color="#FBC102"/>
<stop offset="0.244" stop-color="#FDD213"/>
<stop offset="0.487" stop-color="#FFDC1D"/>
<stop offset="0.791" stop-color="#FFDF20"/>
<stop offset="0.841" stop-color="#FDDC1E"/>
<stop offset="0.882" stop-color="#F8D219"/>
<stop offset="0.919" stop-color="#EEC111"/>
<stop offset="0.954" stop-color="#E1A905"/>
<stop offset="0.966" stop-color="#DB9F00"/>
<stop offset="1" stop-color="#FFDF20"/>
</linearGradient>
<linearGradient id="paint14_linear_927_5632" x1="6.90103" y1="18.9827" x2="20.9998" y2="18.9827" gradientUnits="userSpaceOnUse">
<stop stop-color="#FBBF00"/>
<stop offset="0.021" stop-color="#FBC102"/>
<stop offset="0.244" stop-color="#FDD213"/>
<stop offset="0.487" stop-color="#FFDC1D"/>
<stop offset="0.791" stop-color="#FFDF20"/>
<stop offset="0.841" stop-color="#FDDC1E"/>
<stop offset="0.882" stop-color="#F8D219"/>
<stop offset="0.919" stop-color="#EEC111"/>
<stop offset="0.954" stop-color="#E1A905"/>
<stop offset="0.966" stop-color="#DB9F00"/>
<stop offset="1" stop-color="#FFDF20"/>
</linearGradient>
<linearGradient id="paint15_linear_927_5632" x1="6.90099" y1="16.417" x2="20.9997" y2="16.417" gradientUnits="userSpaceOnUse">
<stop stop-color="#FBBF00"/>
<stop offset="0.021" stop-color="#FBC102"/>
<stop offset="0.244" stop-color="#FDD213"/>
<stop offset="0.487" stop-color="#FFDC1D"/>
<stop offset="0.791" stop-color="#FFDF20"/>
<stop offset="0.841" stop-color="#FDDC1E"/>
<stop offset="0.882" stop-color="#F8D219"/>
<stop offset="0.919" stop-color="#EEC111"/>
<stop offset="0.954" stop-color="#E1A905"/>
<stop offset="0.966" stop-color="#DB9F00"/>
<stop offset="1" stop-color="#FFDF20"/>
</linearGradient>
</defs>
</svg>
