<svg width="24" height="24" viewBox="0 0 24 24" fill="none" xmlns="http://www.w3.org/2000/svg">
<g clip-path="url(#clip0_3799_8652)">
<path d="M12 24C18.6274 24 24 18.6274 24 12C24 5.37257 18.6274 0 12 0C5.37257 0 0 5.37257 0 12C0 18.6274 5.37257 24 12 24Z" fill="black"/>
<path d="M10.779 4.00674C11.2037 4.10483 9.95692 4.87124 10.0561 5.14359C10.1552 5.41594 10.5395 5.69787 10.8586 5.66055C11.1777 5.62326 11.7978 4.50933 11.9707 4.91981C12.1892 5.43869 11.0632 7.90916 12.1696 8.77387C13.246 9.61511 14.9402 9.69715 16.5508 9.55462C18.6325 9.37039 20.6319 8.0282 21.9759 7.8274C22.6881 7.72099 22.8618 10.5959 21.2848 12.3599C20.4632 13.2788 19.4383 14.3503 18.3864 15.2173C17.0746 16.2984 16.1617 16.614 15.8159 17.7295C15.3714 19.1634 16.6643 19.3411 17.9306 19.0709C19.1772 18.8049 20.3867 18.1067 20.5633 18.2767C20.8026 18.507 19.6189 19.3421 17.5177 19.7685C14.6165 20.3573 10.0409 20.0473 6.00868 15.3839C3.29263 12.2427 2.26718 7.35385 2.54355 6.11784C2.90848 4.48568 5.31604 7.39392 6.92864 6.61697C7.60475 6.29123 8.17114 5.96034 8.69389 5.30503C9.40645 4.41173 10.4766 3.93694 10.779 4.00674Z" fill="url(#paint0_linear_3799_8652)"/>
</g>
<defs>
<linearGradient id="paint0_linear_3799_8652" x1="2.5" y1="10.5" x2="22.5" y2="10.5" gradientUnits="userSpaceOnUse">
<stop stop-color="#C900FE"/>
<stop offset="0.265625" stop-color="#9627EF"/>
<stop offset="0.5625" stop-color="#5857DF"/>
<stop offset="0.770833" stop-color="#3795D2"/>
<stop offset="1" stop-color="#09F0BC"/>
</linearGradient>
<clipPath id="clip0_3799_8652">
<rect width="24" height="24" fill="white"/>
</clipPath>
</defs>
</svg>
