<svg width="24" height="24" viewBox="0 0 24 24" fill="none" xmlns="http://www.w3.org/2000/svg">
<g clip-path="url(#clip0_5486_10985)">
<path d="M12 24C18.6274 24 24 18.6274 24 12C24 5.37258 18.6274 0 12 0C5.37258 0 0 5.37258 0 12C0 18.6274 5.37258 24 12 24Z" fill="#2470FF"/>
<path opacity="0.8" d="M6.99458 14.1839V17.7579C6.99458 17.978 7.18078 18.0693 7.23871 18.09C7.29664 18.115 7.49112 18.1689 7.6649 18.0071L10.3686 15.4087C10.5989 15.1875 10.8211 14.9549 10.9882 14.6828C11.0667 14.5549 11.0993 14.4828 11.0993 14.4828C11.2649 14.1466 11.2649 13.8228 11.1034 13.499C10.8635 13.0175 10.251 12.5276 9.32832 12.0627L7.7518 12.9427C7.28424 13.2084 6.99458 13.6775 6.99458 14.1839Z" fill="white"/>
<path d="M5.44 6.23468V9.98311C5.44 10.4521 5.75448 10.8673 6.20138 11.0001C7.72409 11.4401 10.3764 12.3865 11.0178 13.7771C11.1005 13.9597 11.1502 14.1383 11.1668 14.325C11.593 13.5488 11.7874 12.6563 11.6965 11.7514C11.5722 10.4687 10.8936 9.30231 9.8344 8.55927L6.05655 5.91505C5.99033 5.86524 5.91171 5.84033 5.8331 5.84033C5.76689 5.84033 5.70896 5.85279 5.6469 5.886C5.52275 5.95656 5.44 6.08524 5.44 6.23468Z" fill="white"/>
<path opacity="0.8" d="M17.0509 14.1839V17.7579C17.0509 17.978 16.8647 18.0693 16.8067 18.09C16.7489 18.115 16.5542 18.1689 16.3806 18.0071L13.6138 15.3483C13.4255 15.1673 13.2457 14.9759 13.1038 14.7565C12.9914 14.5828 12.9462 14.4828 12.9462 14.4828C12.7806 14.1466 12.7806 13.8228 12.9419 13.499C13.182 13.0175 13.7944 12.5276 14.717 12.0627L16.2936 12.9427C16.7654 13.2084 17.0509 13.6775 17.0509 14.1839Z" fill="white"/>
<path d="M18.608 6.23444V9.98281C18.608 10.4519 18.2934 10.867 17.8466 10.9998C16.3238 11.4398 13.6716 12.3863 13.0302 13.7769C12.9474 13.9595 12.8977 14.138 12.8812 14.3248C12.455 13.5486 12.2606 12.6561 12.3515 11.7512C12.4756 10.4685 13.1542 9.30209 14.2136 8.55905L17.9914 5.91481C18.0577 5.86499 18.1362 5.84009 18.2149 5.84009C18.281 5.84009 18.339 5.85254 18.401 5.88575C18.5252 5.95632 18.608 6.085 18.608 6.23444Z" fill="white"/>
</g>
<defs>
<clipPath id="clip0_5486_10985">
<rect width="24" height="24" fill="white"/>
</clipPath>
</defs>
</svg>
