<svg width="100" height="100" viewBox="0 0 100 100" fill="none" xmlns="http://www.w3.org/2000/svg">
<path d="M50 0C77.6142 0 100 22.3858 100 50C100 77.6142 77.6142 100 50 100C22.3858 100 0 77.6142 0 50C0 22.3858 22.3858 0 50 0Z" fill="#836EF9"/>
<path d="M38.3604 61.4746C41.8689 63.6675 44 67.5139 44 71.6514V80L25.6396 68.5254C22.1311 66.3325 20 62.4861 20 58.3486V50L38.3604 61.4746Z" fill="#F4F3F8"/>
<path d="M80 58.3486C80 62.4861 77.8689 66.3325 74.3604 68.5254L56 80V71.6514C56 67.5139 58.1311 63.6675 61.6396 61.4746L80 50V58.3486Z" fill="#F4F3F8"/>
<path d="M50 38C50.4074 44.4512 55.5488 49.5926 62 50C55.5488 50.4074 50.4074 55.5488 50 62C49.5926 55.5488 44.4512 50.4074 38 50C44.4512 49.5926 49.5926 44.4512 50 38Z" fill="#F4F3F8"/>
<path d="M44 28.3486C44 32.4861 41.8689 36.3325 38.3604 38.5254L20 50V41.6514C20 37.5139 22.1311 33.6675 25.6396 31.4746L44 20V28.3486Z" fill="#F4F3F8"/>
<path d="M74.3604 31.4746C77.8689 33.6675 80 37.5139 80 41.6514V50L61.6396 38.5254C58.1311 36.3325 56 32.4861 56 28.3486V20L74.3604 31.4746Z" fill="#F4F3F8"/>
</svg>
