<?xml version="1.0" encoding="UTF-8"?>
<svg version="1.1" xmlns="http://www.w3.org/2000/svg" width="64" height="64">
<path d="M0 0 C21.12 0 42.24 0 64 0 C64 21.12 64 42.24 64 64 C42.88 64 21.76 64 0 64 C0 42.88 0 21.76 0 0 Z " fill="#02C3FC" transform="translate(0,0)"/>
<path d="M0 0 C1.65 0 3.3 0 5 0 C5 1.65 5 3.3 5 5 C6.98 4.67 8.96 4.34 11 4 C12.27861615 6.55723229 12.11336609 8.36737102 12.09765625 11.2265625 C12.09443359 12.2578125 12.09121094 13.2890625 12.08789062 14.3515625 C12.07951172 15.43179688 12.07113281 16.51203125 12.0625 17.625 C12.05798828 18.71296875 12.05347656 19.8009375 12.04882812 20.921875 C12.03701776 23.61463789 12.02054778 26.30729188 12 29 C10.00045254 29.04254356 7.99958364 29.04080783 6 29 C5.67 28.67 5.34 28.34 5 28 C3.00045254 27.95745644 0.99958364 27.95919217 -1 28 C-4.66666667 28 -8.33333333 28 -12 28 C-13.35439668 25.29120665 -13.06501451 22.99066732 -13 20 C-11.68 20 -10.36 20 -9 20 C-8.67 20.99 -8.34 21.98 -8 23 C-7.34 23.33 -6.68 23.66 -6 24 C-6 22.35 -6 20.7 -6 19 C-6.969375 18.855625 -7.93875 18.71125 -8.9375 18.5625 C-12 18 -12 18 -13 17 C-13.15091913 15.19187276 -13.22169008 13.37669383 -13.25 11.5625 C-13.27578125 10.57378906 -13.3015625 9.58507812 -13.328125 8.56640625 C-13.21984375 7.71949219 -13.1115625 6.87257813 -13 6 C-9.91111478 3.94074319 -9.29064073 3.7609626 -5.8125 3.875 C-3.9253125 3.936875 -3.9253125 3.936875 -2 4 C-1.34 2.68 -0.68 1.36 0 0 Z " fill="#F5FC09" transform="translate(45,18)"/>
<path d="M0 0 C1.17426264 2.34852528 1.11508173 3.73774065 1.09765625 6.3515625 C1.09443359 7.20234375 1.09121094 8.053125 1.08789062 8.9296875 C1.07951172 9.81914063 1.07113281 10.70859375 1.0625 11.625 C1.05798828 12.5221875 1.05347656 13.419375 1.04882812 14.34375 C1.03702591 16.56256648 1.02056155 18.78125018 1 21 C-4.66666667 21 -10.33333333 21 -16 21 C-16.33 16.71 -16.66 12.42 -17 8 C-17.33 8 -17.66 8 -18 8 C-18.33 12.29 -18.66 16.58 -19 21 C-20.32 21 -21.64 21 -23 21 C-23 15.39 -23 9.78 -23 4 C-21.35 4 -19.7 4 -18 4 C-17.34 3.34 -16.68 2.68 -16 2 C-13.875 2.375 -13.875 2.375 -12 3 C-11.67 5.64 -11.34 8.28 -11 11 C-10.34 10.34 -9.68 9.68 -9 9 C-6.875 8.375 -6.875 8.375 -5 8 C-4.67 6.68 -4.34 5.36 -4 4 C-4.66 4 -5.32 4 -6 4 C-6 5.32 -6 6.64 -6 8 C-7.65 8 -9.3 8 -11 8 C-11.21620175 5.3335118 -11.30894168 3.55995679 -10 1.1875 C-6.76011038 -0.73618446 -3.7174181 -0.18282384 0 0 Z " fill="#DEF71F" transform="translate(30,25)"/>
<path d="M0 0 C1.65 0 3.3 0 5 0 C5 1.65 5 3.3 5 5 C6.98 4.67 8.96 4.34 11 4 C12.27861615 6.55723229 12.11336609 8.36737102 12.09765625 11.2265625 C12.09443359 12.2578125 12.09121094 13.2890625 12.08789062 14.3515625 C12.07951172 15.43179688 12.07113281 16.51203125 12.0625 17.625 C12.05798828 18.71296875 12.05347656 19.8009375 12.04882812 20.921875 C12.03701776 23.61463789 12.02054778 26.30729188 12 29 C6.25 29.125 6.25 29.125 4 28 C4 19.09 4 10.18 4 1 C2.68 0.67 1.36 0.34 0 0 Z " fill="#D6F528" transform="translate(45,18)"/>
<path d="M0 0 C0.99 0 1.98 0 3 0 C3 6.27 3 12.54 3 19 C2.01 19 1.02 19 0 19 C-0.33 14.71 -0.66 10.42 -1 6 C-1.33 6 -1.66 6 -2 6 C-2.33 10.29 -2.66 14.58 -3 19 C-4.32 19 -5.64 19 -7 19 C-7 13.39 -7 7.78 -7 2 C-5.35 2 -3.7 2 -2 2 C-1.34 1.34 -0.68 0.68 0 0 Z " fill="#F8FD06" transform="translate(14,27)"/>
<path d="M0 0 C1.32 0 2.64 0 4 0 C4 8.91 4 17.82 4 27 C2.68 27 1.36 27 0 27 C0 18.09 0 9.18 0 0 Z " fill="#FEFE00" transform="translate(45,19)"/>
<path d="M0 0 C0.33 0 0.66 0 1 0 C1 8.91 1 17.82 1 27 C-1.10827055 23.83759418 -1.33817465 22.49342531 -1.625 18.8125 C-1.69976562 17.91144531 -1.77453125 17.01039062 -1.8515625 16.08203125 C-1.92503906 15.05142578 -1.92503906 15.05142578 -2 14 C-4.475 13.01 -4.475 13.01 -7 12 C-7 10.68 -7 9.36 -7 8 C-6.34 8 -5.68 8 -5 8 C-5 8.99 -5 9.98 -5 11 C-3.68 11 -2.36 11 -1 11 C-0.67 7.37 -0.34 3.74 0 0 Z " fill="#9DE760" transform="translate(44,19)"/>
<path d="M0 0 C0.66 0 1.32 0 2 0 C2.33 2.97 2.66 5.94 3 9 C4.98 9.66 6.96 10.32 9 11 C9 12.65 9 14.3 9 16 C8.01 15.67 7.02 15.34 6 15 C6 14.01 6 13.02 6 12 C4.68 12 3.36 12 2 12 C2.33 14.31 2.66 16.62 3 19 C2.34 19 1.68 19 1 19 C0.67 12.73 0.34 6.46 0 0 Z " fill="#5BD7A3" transform="translate(30,26)"/>
<path d="M0 0 C0.66 0.33 1.32 0.66 2 1 C2 5.29 2 9.58 2 14 C1.01 14 0.02 14 -1 14 C-1.02685938 11.85423363 -1.04633088 9.70837355 -1.0625 7.5625 C-1.07410156 6.36753906 -1.08570313 5.17257813 -1.09765625 3.94140625 C-1 1 -1 1 0 0 Z " fill="#5BD7A3" transform="translate(12,32)"/>
<path d="M0 0 C0.66 0 1.32 0 2 0 C1.8125 2.375 1.8125 2.375 1 5 C-1.4375 6.25 -1.4375 6.25 -4 7 C-4.99 7.495 -4.99 7.495 -6 8 C-6 5.69 -6 3.38 -6 1 C-5.67 1.99 -5.34 2.98 -5 4 C-3.35 4 -1.7 4 0 4 C0 2.68 0 1.36 0 0 Z " fill="#39D0C4" transform="translate(24,29)"/>
<path d="M0 0 C0.66 0 1.32 0 2 0 C2 0.99 2 1.98 2 3 C3.65 3 5.3 3 7 3 C6.67 4.32 6.34 5.64 6 7 C4.02 6.01 2.04 5.02 0 4 C0 2.68 0 1.36 0 0 Z " fill="#43D2BA" transform="translate(37,27)"/>
</svg>
