<svg width="24" height="24" viewBox="0 0 24 24" fill="none" xmlns="http://www.w3.org/2000/svg">
<g clip-path="url(#clip0_5691_1570)">
<path d="M12.0005 0C5.37312 0 0.000244141 5.37249 0.000244141 11.9998C0.000244141 18.6271 5.37273 24 12.0001 24C18.6274 24 24.0002 18.6276 24.0002 12.0003C24.0002 5.37295 18.6278 0 12.0005 0Z" fill="url(#paint0_radial_5691_1570)"/>
<path d="M16.9993 3.99927C17.9413 7.7674 18.2087 11.6605 17.7991 15.4993L15.4993 15.4993L15.4993 16.5012L17.676 16.5012C17.5142 17.6756 17.2883 18.8433 16.9993 19.9993L13.9993 19.9993C13.9993 18.8949 13.1036 17.9995 11.9993 17.9993C10.9121 17.9994 10.0267 18.867 9.99928 19.9475L9.99928 19.9993L6.99928 19.9993C6.7103 18.8433 6.48626 17.6755 6.32447 16.5012L8.49928 16.5012L8.49928 15.4993L6.20143 15.4993C5.79179 11.6605 6.05723 7.76749 6.99928 3.99927L9.99928 3.99927C9.99928 5.10374 10.8948 5.99911 11.9993 5.99927C13.0863 5.99902 13.9709 5.13152 13.9983 4.05103L13.9993 3.99927L16.9993 3.99927ZM13.3235 7.42895L13.3235 11.8303L10.8254 7.42895L9.56861 7.42895L9.56861 13.429L10.6751 13.429L10.6751 8.97388L13.1721 13.429L14.429 13.429L14.429 7.42895L13.3235 7.42895ZM10.7493 15.4993L10.7493 16.5012L13.2493 16.5012L13.2493 15.4993L10.7493 15.4993Z" fill="url(#paint1_linear_5691_1570)"/>
</g>
<defs>
<radialGradient id="paint0_radial_5691_1570" cx="0" cy="0" r="1" gradientUnits="userSpaceOnUse" gradientTransform="translate(12.0002 12) scale(12 28.539)">
<stop offset="0.495" stop-color="#10131C"/>
<stop offset="1" stop-color="#283760"/>
</radialGradient>
<linearGradient id="paint1_linear_5691_1570" x1="11.9994" y1="19.9993" x2="11.9994" y2="3.99927" gradientUnits="userSpaceOnUse">
<stop stop-color="#482BFF"/>
<stop offset="1" stop-color="#007AFF"/>
</linearGradient>
<clipPath id="clip0_5691_1570">
<rect width="24" height="24" fill="white"/>
</clipPath>
</defs>
</svg>
