<svg width="24" height="24" viewBox="0 0 24 24" fill="none" xmlns="http://www.w3.org/2000/svg">
<g clip-path="url(#clip0_4839_10360)">
<path d="M12 24C18.6274 24 24 18.6274 24 12C24 5.37257 18.6274 0 12 0C5.37257 0 0 5.37257 0 12C0 18.6274 5.37257 24 12 24Z" fill="black"/>
<path d="M16.0973 17.3H7.90226C6.39549 17.3 5.44046 15.6747 6.19852 14.3607L11.2562 5.59439C11.5862 5.02199 12.4133 5.02199 12.7434 5.59439L17.802 14.3607C18.5591 15.6726 17.604 17.3 16.0983 17.3H16.0973ZM11.2521 8.22329L10.1506 10.355L7.49284 15.1085C7.31752 15.4127 7.53407 15.8026 7.90123 15.8026H11.251V8.22226L11.2521 8.22329ZM16.5046 15.1095L13.8479 10.354L12.7464 8.22329V15.8036H16.0962C16.4634 15.8036 16.68 15.4137 16.5046 15.1095Z" fill="white"/>
</g>
<defs>
<clipPath id="clip0_4839_10360">
<rect width="24" height="24" fill="white"/>
</clipPath>
</defs>
</svg>
