<svg width="24" height="24" viewBox="0 0 24 24" fill="none" xmlns="http://www.w3.org/2000/svg">
<g clip-path="url(#clip0_3939_1132)">
<path d="M24 12C24 5.37258 18.6274 0 12 0C5.37258 0 0 5.37258 0 12C0 18.6274 5.37258 24 12 24C18.6274 24 24 18.6274 24 12Z" fill="black"/>
<path d="M17.8963 6.10364H6.93896L10.0584 9.7814C10.5771 9.32712 11.2564 9.05181 12 9.05181C13.6283 9.05181 14.9482 10.3717 14.9482 12C14.9482 12.7344 14.6797 13.4062 14.2354 13.9222L17.8963 17.0723V6.10364Z" fill="white"/>
<path d="M16.453 17.8963L13.5537 14.506C13.1026 14.7863 12.5702 14.9481 12 14.9481C10.3717 14.9481 9.05181 13.6282 9.05181 12C9.05181 11.4349 9.21078 10.9069 9.48647 10.4584L6.10364 7.5127V17.8963H16.453Z" fill="white"/>
</g>
<defs>
<clipPath id="clip0_3939_1132">
<rect width="24" height="24" fill="white"/>
</clipPath>
</defs>
</svg>
