<svg width="24" height="24" viewBox="0 0 24 24" fill="none" xmlns="http://www.w3.org/2000/svg">
<g clip-path="url(#clip0_4272_8788)">
<path d="M12 21.3831C17.1822 21.3831 21.3832 17.1821 21.3832 12C21.3832 6.8178 17.1822 2.61682 12 2.61682C6.81783 2.61682 2.61685 6.8178 2.61685 12C2.61685 17.1821 6.81783 21.3831 12 21.3831Z" fill="#585F5A"/>
<path d="M10.7178 0.0218506C5.01377 0.625395 0.497514 5.21016 0 10.9452H1.31052C1.79922 5.93143 5.73524 1.9278 10.7178 1.33509V0.0218506Z" fill="#101C18"/>
<path d="M13.2861 1.33556V0.0222662C18.9883 0.627497 23.5026 5.21147 24 10.9452H22.6895C22.2009 5.93274 18.2668 1.9299 13.2861 1.33556Z" fill="#101C18"/>
<path d="M13.2861 22.6644C18.1126 22.0884 21.9562 18.3118 22.6342 13.5174H23.9509C23.2575 19.0335 18.8341 23.3888 13.2861 23.9776V22.6644Z" fill="#101C18"/>
<path d="M1.36575 13.5174C2.04394 18.3131 5.8895 22.0905 10.7178 22.6648V23.9781C5.16802 23.3908 0.742642 19.0348 0.0491223 13.5174H1.36575Z" fill="#101C18"/>
<path fill-rule="evenodd" clip-rule="evenodd" d="M10.9614 7.70281C11.1915 7.55441 11.3438 7.29583 11.3438 7.00168C11.3438 6.54123 10.9706 6.16797 10.5101 6.16797C10.0497 6.16797 9.67642 6.54123 9.67642 7.00168C9.67642 7.34278 9.88127 7.63604 10.1747 7.76514L8.55469 14.4258L5.3086 12.3079C5.38617 12.2388 5.43502 12.1382 5.43502 12.0261C5.43502 11.8178 5.26613 11.6489 5.0578 11.6489C4.84946 11.6489 4.68057 11.8178 4.68057 12.0261C4.68057 12.2345 4.84946 12.4034 5.0578 12.4034C5.14299 12.4034 5.22158 12.3751 5.28473 12.3275L7.04688 16.168L7.81361 17.7861L7.81744 17.7949C7.89754 17.9787 8.16023 17.9732 8.23248 17.7861L8.95919 15.0256L10.781 16.3831L12.8281 17.8555L12.8948 17.9055C13.0083 17.9906 13.1675 17.9775 13.2656 17.875L14.6211 16.0586L15.5195 17.7617L15.5223 17.7684C15.5789 17.9021 15.7698 17.8978 15.8203 17.7617L17.1755 14.2606L18.6284 10.7038C18.6607 10.7094 18.694 10.7123 18.728 10.7123C19.0508 10.7123 19.3125 10.4506 19.3125 10.1277C19.3125 9.80492 19.0508 9.54321 18.728 9.54321C18.4051 9.54321 18.1434 9.80492 18.1434 10.1277C18.1434 10.2806 18.2021 10.4197 18.2981 10.5239L14.6406 15.1914L10.9614 7.70281ZM13.0039 17.3711L9.03516 14.7344L10.6406 8.39844L14.3555 15.5625L13.0039 17.3711ZM8.5 14.6797L7.94141 17.0898L6.22818 14.03L5.30859 12.3359L6.66406 13.3125L8.5 14.6797ZM15.6641 17.3361L14.8828 15.707L16.563 13.4018L18.3151 10.9558L16.8955 14.45L15.6641 17.3361Z" fill="#FFFEF5"/>
</g>
<defs>
<clipPath id="clip0_4272_8788">
<rect width="24" height="24" fill="white"/>
</clipPath>
</defs>
</svg>
