<svg width="24" height="24" viewBox="0 0 24 24" fill="none" xmlns="http://www.w3.org/2000/svg">
<g clip-path="url(#clip0_4960_11296)">
<path d="M12 24C18.6274 24 24 18.6274 24 12C24 5.37258 18.6274 0 12 0C5.37258 0 0 5.37258 0 12C0 18.6274 5.37258 24 12 24Z" fill="url(#paint0_linear_4960_11296)"/>
<path d="M13.1805 6.68297L12.0035 5.5L10.8195 6.69007L11.9982 7.87304L13.1822 6.68297H13.1805ZM17.5592 7.97591L16.3892 6.77343L13.0877 10.0138C12.4869 10.6026 11.5113 10.6026 10.9123 10.0138L7.609 6.77165L6.43901 7.97591V17.5H8.10643V9.61114L9.74056 11.2145C10.3623 11.8263 11.1821 12.1314 12 12.1314C12.8179 12.1314 13.6359 11.8263 14.2594 11.2145L15.862 9.64129V17.4982H17.561V7.97591H17.5592Z" fill="#252525"/>
</g>
<defs>
<linearGradient id="paint0_linear_4960_11296" x1="18.5178" y1="1.84469" x2="-1.34998" y2="7.45197" gradientUnits="userSpaceOnUse">
<stop offset="0.372396" stop-color="#FF97D6"/>
<stop offset="0.802083" stop-color="#F8B994"/>
</linearGradient>
<clipPath id="clip0_4960_11296">
<rect width="24" height="24" fill="white"/>
</clipPath>
</defs>
</svg>
