<svg width="24" height="24" viewBox="0 0 24 24" fill="none" xmlns="http://www.w3.org/2000/svg">
<g clip-path="url(#clip0_4589_1193)">
<path d="M12 24C18.6274 24 24 18.6274 24 12C24 5.37258 18.6274 0 12 0C5.37258 0 0 5.37258 0 12C0 18.6274 5.37258 24 12 24Z" fill="#0066FF"/>
<path fill-rule="evenodd" clip-rule="evenodd" d="M11.9997 7.98046L14.0092 4.5L17.4897 6.50944L15.4802 9.98992L11.9997 7.98046ZM15.4812 9.99052H19.5001V14.0094H15.4812V9.99052ZM8.51703 14.0094L6.50912 17.4872L9.98963 19.4967L11.9991 16.0163L8.51893 14.007V9.99052H4.5V14.0094H8.51703ZM15.4817 14.0099L12.0012 16.0194L14.0107 19.4998L17.4912 17.4904L15.4817 14.0099ZM6.51068 6.51114L9.99119 4.5017L12.0007 7.98216L8.52013 9.99161L6.51068 6.51114Z" fill="white"/>
</g>
<defs>
<clipPath id="clip0_4589_1193">
<rect width="24" height="24" fill="white"/>
</clipPath>
</defs>
</svg>
