<svg width="24" height="24" viewBox="0 0 24 24" fill="none" xmlns="http://www.w3.org/2000/svg">
<g clip-path="url(#clip0_4833_10378)">
<path d="M12 24C18.6274 24 24 18.6274 24 12C24 5.37258 18.6274 0 12 0C5.37258 0 0 5.37258 0 12C0 18.6274 5.37258 24 12 24Z" fill="white"/>
<path fill-rule="evenodd" clip-rule="evenodd" d="M12 5.14285C8.2129 5.14285 5.14286 8.2129 5.14286 12C5.14286 15.7871 8.2129 18.8571 12 18.8571H16.1229C14.9189 19.5827 13.5082 20 12 20C7.58172 20 4 16.4183 4 12C4 7.58172 7.58172 4 12 4C16.4183 4 20 7.58172 20 12C20 12.388 19.9724 12.7696 19.919 13.1428H18.7623C18.8247 12.7712 18.8571 12.3894 18.8571 12C18.8571 8.2129 15.7871 5.14285 12 5.14285ZM18.5661 16.5714C18.2795 16.9821 17.9555 17.3648 17.5988 17.7143H15.7918H12C8.8441 17.7143 6.28571 15.1559 6.28571 12C6.28571 8.84407 8.8441 6.28571 12 6.28571C15.1559 6.28571 17.7143 8.84407 17.7143 12C17.7143 12.3914 17.6749 12.7736 17.6 13.1428H16.4274C16.5214 12.7775 16.5714 12.3946 16.5714 12C16.5714 9.47527 14.5247 7.42857 12 7.42857C9.47527 7.42857 7.42857 9.47527 7.42857 12C7.42857 14.5247 9.47527 16.5714 12 16.5714H15.4291H17.1111H18.5661ZM19.2301 15.4286C19.4041 15.0622 19.5513 14.6802 19.6687 14.2857H18.4669H17.2388H15.9598H14.5556H12C10.7376 14.2857 9.71429 13.2623 9.71429 12C9.71429 10.7376 10.7376 9.71429 12 9.71429C13.2624 9.71429 14.2857 10.7376 14.2857 12C14.2857 12.4163 14.1744 12.8066 13.9799 13.1428H15.2335C15.3598 12.7854 15.4286 12.4007 15.4286 12C15.4286 10.1064 13.8935 8.57141 12 8.57141C10.1064 8.57141 8.57141 10.1064 8.57141 12C8.57141 13.8935 10.1064 15.4286 12 15.4286H15.0238H16.5718H17.9398H19.2301Z" fill="#06070A"/>
</g>
<defs>
<clipPath id="clip0_4833_10378">
<rect width="24" height="24" fill="white"/>
</clipPath>
</defs>
</svg>
