<svg width="24" height="24" viewBox="0 0 24 24" fill="none" xmlns="http://www.w3.org/2000/svg">
<g clip-path="url(#clip0_4324_1232)">
<path d="M23.9282 11.9641C23.9282 5.3565 18.5717 0 11.9641 0C5.3565 0 0 5.3565 0 11.9641C0 18.5717 5.3565 23.9282 11.9641 23.9282C18.5717 23.9282 23.9282 18.5717 23.9282 11.9641Z" fill="black"/>
<path fill-rule="evenodd" clip-rule="evenodd" d="M6.83944 12.0083C6.8365 12.0102 6.83409 12.013 6.83241 12.0161C6.83073 12.0193 6.82982 12.0228 6.82978 12.0264C6.82973 12.0299 6.83055 12.0334 6.83215 12.0366C6.83375 12.0398 6.8361 12.0426 6.83899 12.0447C7.33266 12.3988 7.44616 12.9632 7.4457 13.533C7.44479 14.5243 7.44479 15.5157 7.4457 16.5073C7.44616 17.0821 7.87054 17.3497 8.39203 17.3465C9.16266 17.3416 9.93346 17.3387 10.7044 17.3378C10.7209 17.3378 10.7291 17.3459 10.7291 17.362L10.7286 19.183C10.7286 19.1955 10.7224 19.2018 10.7099 19.2018C9.16801 19.2111 8.1486 19.2104 7.65174 19.1995C7.42078 19.1943 7.17661 19.1558 6.91922 19.0837C5.70806 18.745 5.19251 17.8124 5.19297 16.5871C5.19358 15.5843 5.19404 14.5814 5.19434 13.5785C5.1948 13.2713 5.1328 12.981 4.75628 12.9778C4.52168 12.976 4.28678 12.9755 4.05156 12.9764C4.03546 12.9764 4.0274 12.9682 4.0274 12.9518V11.1052C4.0274 11.087 4.03637 11.0782 4.0543 11.0788C4.26915 11.0846 4.48217 11.0843 4.69338 11.0779C5.09268 11.0656 5.1989 10.8787 5.19799 10.5017C5.19495 9.49887 5.19419 8.49605 5.1957 7.4932C5.1989 5.76559 6.1917 4.84845 7.90199 4.84937C8.83735 4.84997 9.77286 4.85119 10.7085 4.85302C10.7223 4.85302 10.7291 4.85985 10.7291 4.87352V6.69504C10.7291 6.71053 10.7212 6.71828 10.7054 6.71828C9.95992 6.71889 9.21551 6.71889 8.47225 6.71828C8.0588 6.71828 7.67681 6.78256 7.51362 7.20511C7.46986 7.31755 7.44753 7.53514 7.44662 7.85787C7.44357 8.78446 7.43962 9.71126 7.43476 10.6385C7.43157 11.1827 7.29117 11.7051 6.83944 12.0083ZM17.0726 12.0072C17.0556 11.9926 17.0354 11.9791 17.0157 11.9658C16.9948 11.9518 16.9744 11.9381 16.9586 11.9238C16.5356 11.5354 16.4845 10.972 16.4836 10.4314C16.4818 9.52796 16.482 8.62442 16.4841 7.721C16.4859 7.01446 16.1791 6.7054 15.4803 6.71041C14.7246 6.71619 13.9688 6.71908 13.2131 6.71908C13.1973 6.71908 13.1893 6.71118 13.1893 6.69537V4.8734C13.1893 4.85943 13.1962 4.85243 13.2099 4.85243C14.1158 4.85031 15.0205 4.85091 15.9243 4.85426C16.5871 4.85654 17.239 4.95409 17.7695 5.32286C18.4547 5.79966 18.7186 6.58415 18.7222 7.40192C18.7268 8.45395 18.7277 9.50617 18.725 10.5586C18.7241 10.8321 18.8407 11.0751 19.1508 11.0778C19.3893 11.0799 19.628 11.0812 19.8668 11.0819C19.8827 11.0819 19.8906 11.0898 19.8906 11.1055V12.9512C19.8906 12.9664 19.8829 12.974 19.8678 12.974C19.5475 12.9786 19.3384 12.9794 19.2405 12.9763C18.8996 12.9657 18.7291 13.1322 18.7291 13.4759C18.7291 14.5471 18.7282 15.6183 18.7263 16.6895C18.7261 16.912 18.6948 17.1548 18.6325 17.418C18.3275 18.708 17.2422 19.2071 16.016 19.2071C15.0764 19.2071 14.1373 19.2064 13.1989 19.2048C13.1925 19.2048 13.1893 19.2016 13.1893 19.1953L13.1889 17.3623C13.1889 17.3469 13.1966 17.3391 13.2122 17.3391C13.9922 17.3388 14.7709 17.3386 15.5483 17.3386C16.1915 17.3381 16.4919 17.0027 16.4887 16.3704C16.4835 15.3715 16.482 14.3725 16.4841 13.3733C16.4844 13.2469 16.5107 13.0647 16.563 12.8268C16.6238 12.5506 16.7568 12.3185 16.9622 12.1307C16.973 12.1208 16.9897 12.1098 17.0077 12.0979C17.0309 12.0826 17.0565 12.0658 17.0744 12.0478C17.0884 12.0338 17.0878 12.0203 17.0726 12.0072ZM14.062 14.1317C14.6199 13.5739 14.9332 12.8174 14.9332 12.0286C14.9332 11.2397 14.6199 10.4832 14.062 9.92535C13.5043 9.3676 12.7478 9.0542 11.9589 9.0542C11.17 9.0542 10.4135 9.3676 9.85578 9.92535C9.29794 10.4832 8.98462 11.2397 8.98454 12.0286C8.98462 12.8174 9.29794 13.5739 9.85578 14.1317C10.4135 14.6895 11.17 15.0028 11.9589 15.0028C12.7478 15.0028 13.5043 14.6895 14.062 14.1317ZM13.3327 11.4595C13.4074 11.6399 13.4458 11.8333 13.4458 12.0286C13.4458 12.2238 13.4074 12.4172 13.3327 12.5976C13.2579 12.778 13.1484 12.9419 13.0103 13.08C12.8722 13.218 12.7083 13.3275 12.5279 13.4023C12.3475 13.477 12.1542 13.5155 11.9589 13.5155C11.5645 13.5155 11.1863 13.3588 10.9075 13.08C10.6286 12.8011 10.472 12.4229 10.472 12.0286C10.472 11.6342 10.6286 11.256 10.9075 10.9771C11.1863 10.6983 11.5645 10.5416 11.9589 10.5416C12.1542 10.5416 12.3475 10.5801 12.5279 10.6548C12.7083 10.7295 12.8722 10.839 13.0103 10.9771C13.1484 11.1152 13.2579 11.2791 13.3327 11.4595Z" fill="white"/>
</g>
<defs>
<clipPath id="clip0_4324_1232">
<rect width="24" height="24" fill="white"/>
</clipPath>
</defs>
</svg>
