<svg width="24" height="24" viewBox="0 0 24 24" fill="none" xmlns="http://www.w3.org/2000/svg">
<path fill-rule="evenodd" clip-rule="evenodd" d="M20.6627 1.31361C22.1045 2.36094 22.9054 3.3018 23.1546 4.24258C23.3148 4.77512 23.1724 5.41422 22.8165 5.89352C22.4604 6.37275 21.891 6.63902 21.2323 6.63902C20.9832 6.63902 20.7157 6.60091 20.4668 6.52992C20.5422 6.32818 20.6255 6.11956 20.7159 5.91094C20.7871 5.92869 20.8762 5.92869 20.9651 5.92869C21.1786 5.92869 21.4278 5.89312 21.6238 5.7334C21.766 5.62693 21.9264 5.43164 21.9086 5.07656C21.9086 4.7393 21.6415 4.31324 21.0898 3.79844C20.6983 3.4257 20.1642 3.01738 19.6304 2.64463C18.0995 1.63279 17.0316 1.34877 16.551 1.82807C16.2307 2.14758 16.2662 2.53816 16.373 2.82217C16.1501 2.96807 15.9409 3.0976 15.7494 3.21193C15.2879 2.52041 15.2641 1.68635 15.6612 0.94086C15.9103 0.461557 16.302 0.142049 16.7469 0.0532378C16.9249 0.017746 17.1028 0 17.2988 0C18.2777 0 19.5057 0.479304 20.6627 1.31361ZM15.6185 3.89731C16.188 3.59555 17.0138 3.07062 17.9571 2.32512C18.3131 2.46709 18.7759 2.71562 19.3455 3.08844C20.0218 3.53217 20.6092 4.02922 20.983 4.4198C20.361 5.23496 19.9519 6.35091 19.7027 7.13173C21.0524 8.89716 21.8551 11.1008 21.8551 13.4911C21.8551 19.2958 17.1384 24 11.3183 24C5.49798 24 0.78125 19.2958 0.78125 13.4911C0.78125 7.68635 5.49798 2.98221 11.3183 2.98221C12.8465 2.98221 14.3009 3.30859 15.614 3.89543L15.6185 3.89731ZM11.3183 23.4142C5.81831 23.4142 1.36858 18.9764 1.36858 13.4911C1.36858 8.00594 5.81831 3.56799 11.3183 3.56799C16.8181 3.56799 21.2679 8.00594 21.2679 13.4911C21.2679 18.9764 16.8002 23.4142 11.3183 23.4142ZM21.3923 5.0943C21.3923 5.04107 21.3745 4.95234 21.3212 4.86361C21.1966 5.04107 21.0719 5.21861 20.9651 5.43164C21.0898 5.43164 21.2321 5.39615 21.3032 5.34283C21.3389 5.30734 21.3923 5.2541 21.3923 5.0943ZM17.3521 2.16533C17.1207 2.12984 16.9782 2.16533 16.9249 2.21857C16.8181 2.30738 16.8002 2.4316 16.8181 2.55582C16.996 2.4316 17.174 2.30738 17.3521 2.16533ZM16.3551 11.5739C18.8648 11.7867 20.7692 12.319 20.7692 13.4018C20.7692 18.603 16.5331 22.8279 11.3181 22.8279C6.15115 22.8279 1.9277 18.6806 1.85009 13.5457C1.84936 13.5274 1.84895 13.5092 1.84895 13.491C1.84895 13.4821 1.84903 13.4732 1.84919 13.4642C1.84903 13.4435 1.84903 13.4227 1.84903 13.4018H1.85148C1.91928 12.2147 3.37174 12.2556 5.96052 12.5501C7.1531 12.6922 8.79063 12.7809 10.6061 12.2484C12.7063 11.6093 14.5396 11.4317 16.3551 11.5739ZM10.811 12.9345L10.8077 12.9355C8.85956 13.5069 7.11253 13.4083 5.87776 13.2614C4.52744 13.1079 3.60481 13.0406 3.02509 13.1348C2.74475 13.1806 2.64424 13.2502 2.61521 13.2781L2.61431 13.279C2.6054 13.2872 2.56508 13.324 2.56508 13.491C2.56508 13.7061 2.67916 14.0285 3.04512 14.4121C3.40527 14.7896 3.96586 15.1767 4.72534 15.5022C6.24045 16.1518 8.46425 16.5205 11.1819 16.137C13.1988 15.8496 14.4502 15.3604 15.673 14.8826C16.1356 14.7018 16.5938 14.5226 17.0881 14.3565L17.0902 14.3559L17.0924 14.3551C17.5795 14.1948 18.0467 14.0773 18.459 13.9781C18.533 13.9601 18.6049 13.9431 18.6743 13.9265L18.6799 13.9251L18.6816 13.9247C19.0052 13.8475 19.2771 13.7827 19.5137 13.7111C19.8103 13.6211 19.9584 13.5459 20.0262 13.4918C20.0296 13.489 20.0326 13.4865 20.0352 13.4844C20.0307 13.4161 19.9546 13.1645 19.2263 12.8701C18.5377 12.5919 17.521 12.3916 16.2968 12.2875C14.5745 12.1532 12.8315 12.3198 10.8145 12.9334L10.811 12.9345ZM14.4152 9.01787C15.3 9.01787 16.017 8.30255 16.017 7.42016C16.017 6.53786 15.3 5.82254 14.4152 5.82254C13.5306 5.82254 12.8132 6.53786 12.8132 7.42016C12.8132 8.30255 13.5306 9.01787 14.4152 9.01787ZM17.708 9.53324C17.708 9.90582 17.4051 10.2079 17.0316 10.2079C16.658 10.2079 16.3553 9.90582 16.3553 9.53324C16.3553 9.16082 16.658 8.85873 17.0316 8.85873C17.4051 8.85873 17.708 9.16082 17.708 9.53324Z" fill="white"/>
</svg>
