<svg width="24" height="24" viewBox="0 0 24 24" fill="none" xmlns="http://www.w3.org/2000/svg">
<g clip-path="url(#clip0_5679_4901)">
<path d="M12.0005 0C5.37312 0 0.000244141 5.37249 0.000244141 11.9998C0.000244141 18.6271 5.37273 24 12.0001 24C18.6274 24 24.0002 18.6276 24.0002 12.0003C24.0002 5.37295 18.6278 0 12.0005 0Z" fill="url(#paint0_linear_5679_4901)"/>
<path fill-rule="evenodd" clip-rule="evenodd" d="M5.44808 9.04261L5.46686 9.04678C5.29155 9.95466 5.09328 10.9846 4.6362 12.0125C3.9172 13.6321 3.80763 14.9198 4.30749 15.8423C4.75308 16.6646 5.71001 17.2323 7.15114 17.5318L7.1167 17.4817C7.11357 17.4765 7.1094 17.4703 7.10522 17.465C7.10105 17.4588 7.09583 17.4525 7.0927 17.4452C7.02905 17.3544 6.97374 17.2688 6.91739 17.1833L6.91426 17.1791C6.88817 17.1384 6.86312 17.0967 6.83912 17.056C6.78799 16.9683 6.73477 16.8754 6.68468 16.7784L6.66172 16.7377C6.65546 16.7241 6.64815 16.7116 6.64189 16.6991C6.63563 16.6886 6.63041 16.6772 6.62415 16.6667C6.5511 16.5248 6.49267 16.3975 6.44049 16.2796C6.4217 16.2566 6.40605 16.2337 6.38935 16.2107C6.38414 16.2044 6.37892 16.1971 6.3737 16.1898C6.36953 16.1846 6.36535 16.1783 6.36222 16.1731L6.33509 16.1366C6.32883 16.1283 6.32257 16.1199 6.31631 16.1116C6.30274 16.0928 6.28917 16.074 6.27561 16.0552C6.26309 16.0375 6.25161 16.0187 6.24013 15.9999C6.23387 15.9905 6.22761 15.9801 6.22134 15.9707L6.17438 15.8966C6.16812 15.8872 6.16291 15.8789 6.15664 15.8695C6.14412 15.8496 6.13056 15.8298 6.11908 15.8089C6.10134 15.7787 6.08568 15.7515 6.07107 15.7234L6.02725 15.643L6.02516 15.6388C6.00951 15.6107 5.99385 15.5835 5.97924 15.5543C5.96985 15.5366 5.96046 15.5167 5.95211 15.498C5.94585 15.4854 5.94063 15.4729 5.93437 15.4604L5.8968 15.3821C5.88115 15.3519 5.86654 15.3206 5.85297 15.2903C5.84254 15.2673 5.8321 15.2402 5.82167 15.2141C5.81854 15.2068 5.81541 15.1995 5.81332 15.1912L5.77993 15.1077C5.77471 15.0941 5.76949 15.0805 5.76323 15.067C5.75697 15.0503 5.74966 15.0336 5.7434 15.0179C5.73192 14.9877 5.7194 14.9501 5.70897 14.9177L5.69331 14.8739C5.69123 14.8677 5.68914 14.8624 5.68705 14.8562C5.68392 14.8468 5.68079 14.8364 5.67662 14.827C5.66618 14.7977 5.65679 14.7685 5.64844 14.7383C5.64531 14.7257 5.64114 14.7143 5.638 14.7017C5.6307 14.6767 5.62339 14.6516 5.61713 14.6266L5.59418 14.5442C5.59209 14.5358 5.58896 14.5264 5.58687 14.5181C5.58061 14.4951 5.57435 14.4722 5.56809 14.4492L5.56496 14.4335C5.55661 14.4002 5.5493 14.3657 5.54304 14.3302L5.52426 14.2426C5.52113 14.2248 5.51695 14.2081 5.51278 14.1904C5.50965 14.1768 5.50652 14.1643 5.50443 14.1507C5.5013 14.134 5.49921 14.1184 5.49608 14.1017C5.49191 14.0767 5.48773 14.0527 5.48356 14.0276L5.46791 13.9389C5.46582 13.9222 5.46269 13.9045 5.45956 13.8867C5.45747 13.8732 5.45538 13.8606 5.45225 13.8471C5.44912 13.8231 5.44599 13.797 5.44286 13.7719C5.44077 13.7542 5.43869 13.7365 5.4366 13.7187L5.42617 13.6279C5.42617 13.6175 5.42408 13.6081 5.42304 13.5977C5.42095 13.5778 5.41886 13.558 5.41782 13.5371C5.41469 13.5069 5.4126 13.4756 5.41156 13.4443C5.41156 13.4307 5.41051 13.4161 5.40947 13.4025L5.40321 13.3117C5.40321 13.2971 5.40112 13.2825 5.40008 13.2679C5.39903 13.2523 5.39799 13.2366 5.39695 13.2199C5.39695 13.1959 5.3959 13.1729 5.3959 13.15C5.3959 13.127 5.3959 13.103 5.39486 13.0801V13.0362C5.39486 13.0175 5.39486 13.0008 5.39382 12.983C5.39382 12.9695 5.39382 12.9559 5.39382 12.9423C5.39382 12.9277 5.39382 12.9131 5.39382 12.8985C5.39382 12.8484 5.39486 12.7994 5.39799 12.7493L5.40112 12.6574C5.40112 12.6293 5.40216 12.6 5.40425 12.5729C5.40738 12.5197 5.41156 12.4665 5.41573 12.4122V12.4101L5.41886 12.3726V12.3705C5.42095 12.3538 5.42199 12.3392 5.42199 12.3225C5.42303 12.2953 5.42512 12.2692 5.42825 12.2421C5.43243 12.1951 5.43869 12.1492 5.44391 12.1033L5.44599 12.0845L5.45225 12.0376C5.4533 12.0209 5.45538 12.0063 5.45852 11.9896C5.46165 11.9624 5.46478 11.9363 5.46791 11.9092C5.47208 11.8716 5.47834 11.8341 5.4846 11.7976C5.48773 11.7767 5.49191 11.7558 5.49504 11.7349L5.5013 11.6911C5.50234 11.6838 5.50339 11.6755 5.50443 11.6682C5.50547 11.6598 5.50652 11.6525 5.50861 11.6442C5.51069 11.6316 5.51278 11.6181 5.51487 11.6055C5.51695 11.593 5.51904 11.5795 5.52113 11.5669C5.52948 11.5179 5.53991 11.4699 5.5493 11.4208C5.55243 11.4031 5.55661 11.3854 5.55974 11.3676L5.56391 11.3436C5.566 11.3321 5.56809 11.3196 5.57122 11.3081L5.5733 11.2967C5.57539 11.2873 5.57748 11.2768 5.57852 11.2664C5.58061 11.2528 5.58374 11.2403 5.58583 11.2278C5.59731 11.1777 5.60878 11.1266 5.62131 11.0754C5.62653 11.0556 5.6307 11.0347 5.63592 11.0149L5.64218 10.994C5.64427 10.9857 5.64635 10.9773 5.6474 10.969C5.64948 10.9627 5.65053 10.9565 5.65157 10.9502C5.65366 10.9387 5.65679 10.9272 5.65992 10.9158C5.66201 10.9064 5.66514 10.8959 5.66722 10.8865C5.68705 10.8104 5.70792 10.7363 5.72984 10.6601L5.73401 10.6444C5.73923 10.6288 5.74236 10.6131 5.74549 10.5975C5.74862 10.5829 5.75384 10.5672 5.75801 10.5516L5.76114 10.5411L5.76323 10.5349C5.78514 10.4629 5.80706 10.3909 5.83002 10.3189L5.83732 10.2928C5.83941 10.2865 5.8415 10.2792 5.84358 10.2729C5.84567 10.2656 5.84776 10.2594 5.84984 10.2531C5.8561 10.2333 5.86132 10.2155 5.86863 10.1957C5.89159 10.1237 5.91872 10.0517 5.94585 9.9818L5.95315 9.96093L5.95733 9.94736L5.97089 9.90666C5.97507 9.89518 5.97924 9.88266 5.98342 9.87014C5.9855 9.86388 5.98863 9.85761 5.99072 9.85135C6.02203 9.76683 6.05542 9.68439 6.09299 9.59256C6.09716 9.58108 6.10342 9.56647 6.10864 9.55499C6.11386 9.53829 6.12012 9.52264 6.12847 9.50698C6.15769 9.43602 6.18899 9.36506 6.21926 9.30036C6.22865 9.27949 6.23804 9.25862 6.24639 9.23984C6.25056 9.23045 6.25474 9.2221 6.25787 9.21375L6.261 9.2054C6.26622 9.19392 6.27248 9.17827 6.27978 9.1647C6.31109 9.09374 6.34657 9.02382 6.37996 8.95599C6.3904 8.93408 6.40083 8.91217 6.41127 8.8913C6.41544 8.88399 6.41857 8.87669 6.4217 8.87042C6.4217 8.87042 6.42483 8.86312 6.42692 8.85999L6.4311 8.85164C6.43527 8.84225 6.44049 8.83181 6.44571 8.82242C6.4864 8.73998 6.53023 8.65859 6.56884 8.58554C6.57719 8.56884 6.58658 8.55319 6.59493 8.53753C6.59911 8.52814 6.60432 8.51875 6.61059 8.5104C6.61476 8.50101 6.61998 8.49057 6.62624 8.48223C6.68363 8.37683 6.74207 8.27456 6.78799 8.1963C6.79216 8.1869 6.79738 8.17856 6.80364 8.17021C6.80677 8.16395 6.81095 8.15664 6.81512 8.14934L6.81929 8.14308C6.86938 8.0575 6.92678 7.96254 6.99878 7.84775L7.01026 7.82897C7.01026 7.82897 7.01444 7.82166 7.01652 7.81749C7.01861 7.81332 7.0207 7.81019 7.02278 7.80601L7.03635 7.78514C7.08853 7.70375 7.14488 7.61504 7.21688 7.51173L7.24297 7.47312C7.3035 7.38233 7.37133 7.28633 7.44959 7.1778C7.45168 7.17467 7.45272 7.17258 7.45481 7.16945C7.45481 7.16945 7.45898 7.16319 7.46107 7.16006C7.4642 7.15693 7.46629 7.15275 7.46838 7.14858C7.46838 7.14858 7.47151 7.14336 7.47255 7.14128C7.53934 7.04736 7.61343 6.95135 7.69378 6.847L7.70109 6.83656L7.71674 6.81569C7.795 6.71551 7.87849 6.61116 7.9651 6.50472L7.97241 6.49428C8.0632 6.38575 8.15294 6.28035 8.24164 6.17913C8.28338 6.13321 8.32304 6.08834 8.36269 6.04451L8.394 6.01008L8.43157 5.96833C8.45139 5.94538 8.47226 5.92346 8.49209 5.90259C8.50879 5.88381 8.52653 5.86607 8.54322 5.84728L8.5787 5.80867C8.65071 5.73145 8.72167 5.65736 8.7895 5.58744L8.82394 5.55092C6.12743 5.59266 5.84776 7.03901 5.46165 9.03739H5.4533L5.44808 9.04261ZM9.35197 18.975C8.85211 18.7308 8.39609 18.4063 8.00163 18.0129C8.15607 18.0306 8.30008 18.0463 8.43887 18.0609L8.47644 18.064C8.61314 18.0755 8.76028 18.087 8.92516 18.0953H8.9596C8.96795 18.0974 8.97629 18.0974 8.98569 18.0985C8.99403 18.0985 9.00343 18.0985 9.01177 18.0995C9.17039 18.1079 9.33319 18.1152 9.49806 18.1193L9.60138 18.1225C9.80174 18.1266 9.9687 18.1287 10.1263 18.1287C10.3225 18.1287 10.5228 18.1204 10.7221 18.1079C12.06 18.016 13.3237 17.6049 14.3777 16.9224C15.4243 16.2994 16.3886 15.4635 17.2422 14.4398C17.3674 14.2906 17.4958 14.133 17.622 13.9681C17.6304 13.9566 17.6387 13.9452 17.6471 13.9337C17.6617 13.9139 17.6763 13.893 17.692 13.8732L17.6993 13.8627C17.7128 13.8439 17.7253 13.8262 17.74 13.8085L17.7744 13.7625C17.8422 13.6728 17.9101 13.582 17.9758 13.4912C17.9904 13.4714 18.004 13.4505 18.0186 13.4297C18.0332 13.4088 18.0478 13.3879 18.0614 13.3681L18.1073 13.3023C18.1689 13.2147 18.2388 13.1135 18.3045 13.0143C18.34 12.9611 18.3744 12.9068 18.4068 12.8547L18.4339 12.8129C18.4506 12.7868 18.4663 12.7607 18.483 12.7347C18.5247 12.6679 18.5664 12.6011 18.6071 12.5353C18.6447 12.4738 18.6812 12.4122 18.7178 12.3506L18.7292 12.3298C18.7731 12.2546 18.8284 12.1565 18.8847 12.0574C18.9233 11.9885 18.9599 11.9186 18.9964 11.8497C19.0339 11.7788 19.0694 11.7089 19.1039 11.64C19.1143 11.6202 19.1237 11.5993 19.1341 11.5795C19.1686 11.5106 19.202 11.4417 19.2333 11.3728C19.274 11.2852 19.3136 11.1965 19.3543 11.1036C19.3846 11.0358 19.4128 10.9679 19.4399 10.9022C19.4461 10.8907 19.4503 10.8792 19.4555 10.8678L19.4587 10.8615C19.4587 10.8615 19.4608 10.8552 19.4618 10.8532C19.4628 10.85 19.4639 10.8469 19.466 10.8438C19.8343 11.5513 20.1954 12.5865 19.8782 13.5674C19.6298 14.3313 19.0089 14.9324 18.0311 15.3539C16.352 16.0771 15.2887 17.0445 14.3516 17.8971L14.3464 17.9012C12.8395 19.2735 11.8419 20.1803 9.35301 18.9761L9.35197 18.975ZM11.6812 16.4424C10.935 16.4455 10.2004 16.2608 9.54398 15.9049C8.88759 15.5491 8.33139 15.0357 7.92649 14.4085C6.61372 12.3799 7.18245 9.74074 9.25075 8.27039C10.3809 7.46582 11.7365 7.19554 12.9678 7.52426C14.0761 7.82062 14.9537 8.56362 15.4316 9.61238C16.7152 12.4195 15.6831 14.709 14.0896 15.7338C13.3717 16.1971 12.5348 16.4434 11.6812 16.4424ZM7.64787 17.6237L7.74492 17.6372L7.795 17.6445C7.82631 17.6487 7.85657 17.6539 7.88892 17.6581L7.99328 17.6717L8.07467 17.6821C8.09137 17.6842 8.10807 17.6863 8.12476 17.6884C8.14146 17.6904 8.15816 17.6915 8.17485 17.6946C8.20825 17.6988 8.24373 17.7019 8.27921 17.705L8.37104 17.7134L8.47331 17.7217L8.58497 17.7311L8.68515 17.7384C8.7008 17.7395 8.7175 17.7405 8.73419 17.7426C8.74985 17.7437 8.76654 17.7447 8.7822 17.7457C8.82394 17.7489 8.86672 17.752 8.90846 17.7531L9.01595 17.7593L9.10152 17.7635C9.14639 17.7666 9.19126 17.7677 9.23614 17.7697H9.23822L9.34779 17.7739C9.37493 17.775 9.40415 17.7771 9.43232 17.7771L9.62851 17.7812H9.69947C9.71199 17.7823 9.72451 17.7833 9.73704 17.7833C9.74956 17.7833 9.76208 17.7833 9.7746 17.7833C9.88939 17.7844 10.0063 17.7864 10.1252 17.7864C11.6227 17.7864 13.0305 17.3868 14.1971 16.6312C15.9941 15.4667 17.0314 13.6102 17.0418 11.5388C17.0418 11.401 17.0387 11.2654 17.0335 11.1318C17.0324 11.1161 17.0303 11.1005 17.0293 11.0848V11.0702L17.0272 11.0629C17.0272 11.0525 17.0251 11.0441 17.0251 11.0326C17.0189 10.9356 17.0116 10.8333 17.0011 10.7373C17.0001 10.7279 16.999 10.7185 16.998 10.7091C16.9959 10.6956 16.9949 10.681 16.9928 10.6674C16.9907 10.658 16.9897 10.6497 16.9886 10.6403C16.9886 10.633 16.9865 10.6246 16.9855 10.6163L16.9813 10.5787C16.973 10.5046 16.9615 10.4295 16.95 10.3575C16.9479 10.3481 16.9469 10.3397 16.9448 10.3303C16.9416 10.3157 16.9396 10.3022 16.9364 10.2886C16.9323 10.2698 16.9291 10.2542 16.926 10.2354L16.9187 10.1968L16.9166 10.1853C16.9041 10.1216 16.8905 10.0538 16.8749 9.99014C16.8686 9.9651 16.8623 9.93901 16.854 9.91501C16.8509 9.90353 16.8477 9.89101 16.8436 9.87953L16.8415 9.87327L16.8394 9.86805V9.86388L16.8258 9.81796C16.8196 9.79813 16.8143 9.77726 16.8091 9.75639C16.7987 9.71674 16.7882 9.67708 16.7747 9.63951C16.7663 9.61238 16.7559 9.58525 16.7465 9.55812C16.7423 9.54664 16.7382 9.53516 16.734 9.52264L16.7288 9.50698L16.7121 9.46003C16.6943 9.4068 16.6745 9.35254 16.6547 9.30245C16.6474 9.28262 16.639 9.26488 16.6307 9.2461C16.6265 9.23775 16.6223 9.22836 16.6181 9.22001C16.614 9.21062 16.6098 9.20123 16.6056 9.19183C16.6015 9.18349 16.5973 9.17514 16.5941 9.16679L16.5712 9.11566C16.566 9.10418 16.5618 9.0927 16.5566 9.08122C16.542 9.04678 16.5274 9.0113 16.5096 8.97895C16.4981 8.95495 16.4856 8.93304 16.4731 8.91112L16.47 8.9059L16.4658 8.89756C16.4616 8.88921 16.4574 8.8819 16.4533 8.87355C16.4481 8.86521 16.4439 8.85581 16.4387 8.84747L16.4126 8.79946C16.4053 8.7859 16.3969 8.77129 16.3896 8.75668C16.374 8.72746 16.3583 8.69824 16.3416 8.67006C16.3364 8.66276 16.3322 8.65441 16.327 8.64711C16.3155 8.62728 16.303 8.6085 16.2905 8.58867L16.2863 8.58136C16.278 8.5678 16.2686 8.55423 16.2613 8.53962L16.2331 8.49266C16.2091 8.45405 16.183 8.41231 16.1559 8.3737L16.1454 8.35909C16.1298 8.33717 16.1131 8.31422 16.0964 8.2923L16.0619 8.24639L16.0306 8.20256C16.0223 8.19108 16.0139 8.1796 16.0045 8.16812C15.9858 8.14203 15.967 8.11594 15.9461 8.0909C15.9232 8.06377 15.9002 8.03663 15.8772 8.01055C15.871 8.00324 15.8647 7.99594 15.8585 7.98863C15.8522 7.98133 15.8459 7.97402 15.8397 7.96672L15.8042 7.92498C15.776 7.89054 15.7457 7.8561 15.7155 7.82271C15.6894 7.79558 15.6644 7.76949 15.6372 7.74444L15.5965 7.70374L15.5558 7.66305C15.5245 7.63174 15.4943 7.60148 15.4629 7.57121C15.4379 7.5493 15.4118 7.52634 15.3857 7.50443L15.3742 7.49504C15.3669 7.48982 15.3596 7.48356 15.3523 7.4773C15.344 7.47103 15.3367 7.46373 15.3283 7.45747C15.321 7.45121 15.3137 7.44495 15.3064 7.43868C15.2991 7.43242 15.2918 7.42616 15.2845 7.4199C15.2511 7.39068 15.2188 7.36251 15.1833 7.33433C15.1561 7.31137 15.1311 7.29363 15.1061 7.27485L15.0967 7.26754L15.0862 7.26024C15.0789 7.25502 15.0706 7.24876 15.0633 7.24354C15.0549 7.23728 15.0455 7.23102 15.0372 7.22476L14.9902 7.19032C14.9558 7.16319 14.9214 7.1371 14.8848 7.11206C14.8629 7.0964 14.84 7.08179 14.818 7.06718C14.8045 7.05779 14.7899 7.0484 14.7763 7.03901C14.7669 7.03379 14.7586 7.02857 14.7502 7.02231C14.7419 7.01605 14.7325 7.01083 14.7241 7.00562C14.7106 6.99831 14.698 6.98892 14.6855 6.98057C14.6813 6.97744 14.6772 6.97431 14.673 6.97118C14.6375 6.94718 14.602 6.92422 14.5645 6.9023C14.5551 6.89709 14.5446 6.89083 14.5342 6.88456C14.5039 6.86682 14.4716 6.84804 14.4403 6.83134L14.3891 6.80317C14.3704 6.79273 14.3547 6.78334 14.338 6.77291L14.3255 6.7656C14.2952 6.74786 14.266 6.73116 14.2337 6.71447C14.2201 6.71134 14.2055 6.71029 14.1909 6.70821C14.1794 6.70612 14.169 6.70508 14.1575 6.70299L14.1022 6.69464C14.0896 6.69255 14.0771 6.69047 14.0646 6.68838C14.0521 6.68629 14.0396 6.6842 14.027 6.68212C14.0051 6.67794 13.978 6.67586 13.9529 6.67273H13.9415L13.8736 6.66438L13.8006 6.65499C13.786 6.65394 13.7724 6.6529 13.7588 6.65185C13.7453 6.65081 13.7307 6.64977 13.7171 6.64872L13.6482 6.64246C13.6357 6.64246 13.6232 6.64038 13.6107 6.63933C13.5981 6.63829 13.5856 6.63725 13.5731 6.6362L13.4886 6.63203L13.4124 6.6289C13.3884 6.62785 13.3644 6.62577 13.3383 6.62577C13.308 6.62472 13.2767 6.62472 13.2465 6.62472H13.1776C13.1692 6.62472 13.1609 6.62472 13.1515 6.62472C13.1348 6.62472 13.1171 6.62472 13.1004 6.62472C13.0743 6.62577 13.043 6.62577 13.0148 6.62577H12.9418C12.9157 6.62681 12.8906 6.6289 12.8635 6.62994H12.8593L12.7706 6.63411L12.7007 6.64351L12.6193 6.64768C12.6047 6.64872 12.5901 6.64977 12.5744 6.65081C12.5598 6.65185 12.5452 6.6529 12.5296 6.65394L12.4586 6.6602C12.4429 6.66229 12.4283 6.66333 12.4127 6.66438C12.4002 6.66438 12.3876 6.66646 12.3741 6.66751C12.3459 6.67064 12.3104 6.67481 12.2791 6.67899L12.2081 6.68838C12.181 6.69151 12.1549 6.69464 12.1278 6.69881C12.1038 6.70194 12.0798 6.70612 12.0558 6.71029C12.0485 6.71134 12.0401 6.71342 12.0328 6.71447L11.9619 6.72595L11.8815 6.73951C11.8513 6.74577 11.821 6.75099 11.7907 6.75725L11.7135 6.77291C11.6958 6.77604 11.678 6.77917 11.6592 6.78334C11.6509 6.78543 11.6425 6.78647 11.6332 6.78856C11.606 6.79378 11.5726 6.80212 11.5434 6.80943L11.4662 6.82717C11.4568 6.82926 11.4474 6.83134 11.438 6.83343C11.4213 6.83761 11.4036 6.84074 11.3879 6.84491C11.3733 6.84804 11.3577 6.85326 11.342 6.85743C11.3263 6.86161 11.3117 6.86578 11.2961 6.86995L11.2251 6.88978C11.2105 6.89396 11.1959 6.89709 11.1813 6.90126C11.1677 6.90544 11.1542 6.90857 11.1406 6.91274C11.126 6.91587 11.1114 6.92109 11.0968 6.92526C11.0822 6.92944 11.0676 6.93465 11.0529 6.93779L10.9747 6.96179C10.9611 6.96492 10.9475 6.97013 10.935 6.97431C10.9215 6.97848 10.9089 6.98266 10.8954 6.98683C10.8755 6.99205 10.8536 7.0004 10.8328 7.0077C10.8244 7.01083 10.8161 7.01396 10.8077 7.01709L10.7347 7.04318C10.719 7.0484 10.7034 7.05362 10.6877 7.05884C10.6752 7.06301 10.6627 7.06718 10.6501 7.07136C10.6293 7.07762 10.6063 7.08701 10.5833 7.0964C10.576 7.09953 10.5698 7.10162 10.5625 7.10475L10.4873 7.13293L10.407 7.16319L10.3225 7.19971L10.2494 7.22998C10.2369 7.23519 10.2233 7.24146 10.2098 7.24667C10.1952 7.25293 10.1805 7.25815 10.1659 7.26441C10.1388 7.27589 10.1117 7.28841 10.0845 7.30198L10.0104 7.33642C9.9854 7.34685 9.9614 7.35833 9.9374 7.37086L9.92696 7.37607C9.91757 7.38129 9.90818 7.38546 9.89878 7.38964C9.88313 7.39799 9.86748 7.40529 9.85078 7.4126L9.77252 7.4533C9.74538 7.46686 9.71825 7.48043 9.69112 7.49504C9.66399 7.50965 9.64103 7.52217 9.61703 7.53573L9.53668 7.57956C9.51059 7.59313 9.48554 7.60774 9.45945 7.62339L9.38432 7.66931L9.31127 7.71314C9.29875 7.72044 9.28727 7.72775 9.27579 7.73505C9.26118 7.7434 9.24657 7.75279 9.23196 7.76218C9.20483 7.77888 9.18187 7.79349 9.15787 7.81019L9.089 7.8561C9.0796 7.86236 9.07021 7.86862 9.06082 7.87488C9.04308 7.88636 9.02534 7.89784 9.0076 7.91037C8.98464 7.92602 8.96168 7.94167 8.93977 7.95837L8.86881 8.0095C8.85524 8.01994 8.84168 8.02829 8.82916 8.03768C8.81559 8.04707 8.80307 8.05646 8.7895 8.06585C8.76863 8.08151 8.7488 8.09716 8.72689 8.11386L8.71958 8.11907L8.65488 8.17021C8.64653 8.17647 8.63923 8.18273 8.63088 8.18795C8.6121 8.20256 8.59227 8.21717 8.57453 8.23282C8.56723 8.23908 8.56096 8.2443 8.55366 8.25056C8.54009 8.26204 8.52757 8.27247 8.51401 8.285L8.44617 8.34239L8.442 8.34657C8.41591 8.36848 8.39087 8.38935 8.36582 8.41022L8.30843 8.46449L8.24477 8.52293C8.23225 8.53545 8.21868 8.54693 8.20512 8.55945C8.19155 8.57197 8.17903 8.58345 8.16546 8.59597L8.10702 8.65441L8.04546 8.71598C8.03711 8.72433 8.02876 8.73163 8.02145 8.73998C8.00476 8.75668 7.98806 8.77233 7.97136 8.79007C7.95988 8.80155 7.94945 8.81303 7.93901 8.82555C7.93275 8.83286 7.92649 8.83912 7.92023 8.84642C7.91501 8.85164 7.91084 8.85686 7.90562 8.86208C7.9004 8.86834 7.89414 8.8746 7.88892 8.88086L7.85762 8.9153L7.85553 8.91738C7.83153 8.94243 7.80753 8.96852 7.78457 8.99565L7.77935 9.00191C7.76265 9.02069 7.747 9.03948 7.73135 9.05931L7.67082 9.13235C7.64787 9.15844 7.62491 9.18557 7.60508 9.21271C7.5936 9.22836 7.58317 9.24088 7.57273 9.2534C7.56438 9.2628 7.55708 9.27323 7.54977 9.28262L7.49342 9.35671L7.47777 9.37759C7.46316 9.39637 7.44855 9.4162 7.43394 9.43498C7.41307 9.46211 7.39429 9.49029 7.3755 9.51742L7.36924 9.52681L7.34524 9.56334C7.34106 9.5696 7.33585 9.5769 7.33063 9.58316C7.32541 9.59047 7.32019 9.59673 7.31602 9.60299C7.30037 9.62386 7.28576 9.64473 7.2701 9.66769C7.21688 9.74804 7.16471 9.83048 7.1167 9.91188C6.0189 11.7329 5.86967 14.1142 6.72746 16.1272C6.78799 16.267 6.85164 16.4058 6.92156 16.5425C6.93095 16.5603 6.94034 16.578 6.95078 16.5958C6.95495 16.6031 6.95913 16.6093 6.96226 16.6166C6.96539 16.6229 6.96956 16.6292 6.97269 16.6354C6.98 16.6469 6.98626 16.6594 6.99252 16.6709L7.004 16.6949C7.01444 16.7137 7.02487 16.7325 7.03531 16.7513C7.0687 16.8128 7.10314 16.8765 7.1407 16.936C7.16053 16.9694 7.1814 17.0007 7.20332 17.033C7.20958 17.0424 7.2148 17.0507 7.22106 17.0601C7.22732 17.0695 7.23358 17.0779 7.2388 17.0873L7.26593 17.1311C7.3035 17.1895 7.34315 17.2501 7.38385 17.3075C7.40159 17.3335 7.42142 17.3586 7.44124 17.3826C7.44751 17.3909 7.45481 17.3993 7.46107 17.4076C7.46733 17.417 7.47464 17.4254 7.4809 17.4337C7.4882 17.4421 7.49446 17.4515 7.50073 17.4598L7.5289 17.4974C7.56856 17.5391 7.60612 17.5819 7.6416 17.6268L7.64787 17.6237ZM9.29562 5.5697L9.30292 5.56344C9.32275 5.56344 9.34153 5.56553 9.36136 5.56657C9.40832 5.56866 9.45528 5.57075 9.50433 5.57388C9.65355 5.58222 9.80904 5.59266 9.99375 5.60936L10.1033 5.61875C10.2755 5.6344 10.4268 5.65005 10.5687 5.66675L10.6261 5.67406C10.7587 5.69075 10.8922 5.71058 11.0342 5.73145H11.0728L11.1343 5.74084C11.2836 5.76484 11.4276 5.79093 11.5622 5.81598L11.6123 5.82433L11.6436 5.83059C11.7657 5.85459 11.8899 5.88172 12.0088 5.90885L12.0401 5.91616C12.0474 5.9172 12.0558 5.91929 12.0631 5.92138C12.0704 5.92346 12.0777 5.92451 12.086 5.92659C12.2154 5.95686 12.348 5.99129 12.4795 6.02782C12.492 6.03199 12.5045 6.03512 12.517 6.0393C12.5233 6.04138 12.5306 6.04347 12.5369 6.04451L12.565 6.05391C12.6913 6.09043 12.804 6.12487 12.9125 6.1593L12.9324 6.16556C12.9324 6.16556 12.9397 6.16765 12.9438 6.16869C12.948 6.16974 12.9532 6.17078 12.9564 6.17287C13.0524 6.20418 13.1484 6.23966 13.2517 6.27722C13.1359 6.27409 13.0211 6.27409 12.9094 6.27722C12.9 6.27722 12.8906 6.27722 12.8823 6.27722C12.8729 6.27722 12.8645 6.27722 12.8551 6.27722H12.828C12.6725 6.28453 12.5358 6.29288 12.4095 6.30436C12.3981 6.30436 12.3876 6.3054 12.3762 6.30749C12.372 6.30749 12.3668 6.30853 12.3626 6.30853C12.3626 6.30853 12.3532 6.30853 12.349 6.30957C12.2238 6.32314 12.0975 6.33984 11.9692 6.35966L11.9379 6.36384C11.9285 6.36592 11.9201 6.36697 11.9107 6.36801C11.9034 6.36801 11.8961 6.3701 11.8878 6.37114C11.7678 6.39097 11.6415 6.41497 11.5006 6.44628L11.4777 6.45045C11.4672 6.45254 11.4578 6.45463 11.4474 6.45776C11.4286 6.46193 11.4088 6.4661 11.391 6.47132C11.269 6.50054 11.1448 6.53185 11.0237 6.56837C10.9966 6.57568 10.9695 6.58402 10.9434 6.59237C10.9319 6.5955 10.9204 6.59968 10.9079 6.60281C10.7754 6.64351 10.6585 6.6842 10.5479 6.72386C10.526 6.73325 10.502 6.74264 10.479 6.75099L10.4446 6.76456C10.3329 6.80839 10.2244 6.85221 10.1221 6.89709L10.0198 6.943C9.91757 6.99101 9.81217 7.04214 9.69947 7.09953L9.66294 7.11727C9.63999 7.12771 9.62016 7.13815 9.59825 7.15067C9.49285 7.20702 9.38432 7.26963 9.26849 7.3385C9.25283 7.34894 9.23614 7.35833 9.22048 7.36772C9.20274 7.37816 9.185 7.3886 9.16831 7.40007C9.05665 7.46895 8.94916 7.53991 8.84898 7.61087L8.78533 7.65679L8.76237 7.67348C8.6434 7.75905 8.53905 7.83836 8.44409 7.91454C8.43783 7.91976 8.43157 7.92602 8.4253 7.93124C8.4253 7.93124 8.418 7.9375 8.41487 7.94063L8.39191 7.96046L8.38461 7.96672C8.28964 8.04707 8.19364 8.12847 8.10181 8.21195C8.0945 8.21925 8.08615 8.22552 8.07885 8.23178C8.0705 8.24013 8.06215 8.24847 8.05276 8.25578C7.95988 8.34135 7.86284 8.43631 7.75952 8.54693L7.74283 8.56571C7.74283 8.56571 7.73344 8.57615 7.72822 8.58136C7.71883 8.59076 7.70943 8.60015 7.70213 8.60954C7.6103 8.70763 7.51951 8.81094 7.4329 8.91738L7.42142 8.93199C7.40785 8.94973 7.39429 8.96539 7.37968 8.98208C7.28784 9.09687 7.2054 9.20436 7.1261 9.31497C7.12088 9.32123 7.1167 9.32854 7.11253 9.3348L7.10835 9.34211L7.09166 9.36506C6.99878 9.50072 6.91634 9.62282 6.84747 9.73865C6.78903 9.83674 6.72851 9.94527 6.66276 10.0695C6.6492 10.0935 6.63667 10.1175 6.62519 10.1435L6.6085 10.1749C6.56676 10.2594 6.52815 10.3376 6.49267 10.4159C6.47388 10.4545 6.45614 10.4963 6.43944 10.5349C6.40501 10.6152 6.36953 10.6998 6.33196 10.7968L6.31631 10.8323C6.31318 10.8417 6.309 10.85 6.30587 10.8584C6.3017 10.8688 6.29752 10.8782 6.29335 10.8897C6.24952 11.0097 6.20778 11.1307 6.1723 11.2476C6.17021 11.256 6.16812 11.2643 6.16499 11.2727C6.16291 11.28 6.16082 11.2883 6.15873 11.2956C6.15769 11.3019 6.1556 11.3071 6.15351 11.3134C6.15143 11.3196 6.15038 11.3259 6.1483 11.3311C6.12012 11.4334 6.09403 11.5273 6.07107 11.617L6.0669 11.6327C6.05751 11.6692 6.04812 11.7068 6.04081 11.7433C6.02098 11.831 6.00324 11.9176 5.98655 12.0021L5.98237 12.0282C5.97611 12.0595 5.96985 12.0918 5.96359 12.1252C5.94376 12.2317 5.92707 12.3402 5.9135 12.4519L5.91037 12.4759L5.90619 12.5061C5.89263 12.6251 5.88011 12.7503 5.87176 12.886C5.87176 12.8995 5.87071 12.9131 5.86967 12.9256C5.86967 12.9392 5.86863 12.9517 5.86758 12.9653V13.0018C5.86132 13.0999 5.85924 13.1896 5.85715 13.2752C5.8561 13.319 5.8561 13.3639 5.8561 13.4077C5.8561 13.4954 5.85715 13.5883 5.86237 13.6853V13.726C5.86445 13.7385 5.86445 13.75 5.8655 13.7625C5.8655 13.7751 5.8655 13.7865 5.86654 13.7991C5.87385 13.9368 5.88324 14.06 5.8968 14.1821C5.8968 14.1883 5.89889 14.1956 5.89993 14.2019C5.89993 14.2071 5.90098 14.2123 5.90202 14.2175C5.90202 14.2228 5.90306 14.228 5.90411 14.2332C5.90411 14.2384 5.90515 14.2436 5.90619 14.2488C5.91767 14.3563 5.93228 14.4596 5.94794 14.5588C5.92811 14.4909 5.90933 14.4221 5.89159 14.3511C5.8895 14.3417 5.88741 14.3313 5.88428 14.3198L5.88219 14.3115L5.87593 14.2833L5.87385 14.2739C5.85819 14.205 5.84567 14.1466 5.83523 14.0902C5.83315 14.0787 5.83106 14.0683 5.83002 14.0568C5.82793 14.0453 5.82584 14.0328 5.82375 14.0213L5.81958 13.9942C5.81645 13.9713 5.81228 13.9483 5.80915 13.9253C5.80288 13.8899 5.79767 13.8533 5.79245 13.8179C5.78932 13.7959 5.78723 13.7751 5.7841 13.7542C5.78201 13.7417 5.78097 13.7281 5.77888 13.7145C5.77053 13.6561 5.76532 13.5966 5.75905 13.5371V13.534L5.75592 13.5058C5.75384 13.4871 5.75175 13.4672 5.75071 13.4474V13.438C5.74549 13.3754 5.74132 13.3076 5.73818 13.2241C5.73818 13.2199 5.73818 13.2157 5.73818 13.2116C5.73818 13.2063 5.73818 13.2011 5.73818 13.1949C5.73818 13.1896 5.73818 13.1834 5.73818 13.1771C5.73818 13.1709 5.73818 13.1646 5.73818 13.1573C5.73505 13.0665 5.73401 12.9695 5.73505 12.8724C5.7361 12.862 5.73714 12.8505 5.7361 12.839C5.73714 12.8275 5.73818 12.8171 5.73714 12.8056C5.73818 12.7201 5.74131 12.6491 5.74445 12.5813C5.74549 12.5593 5.74758 12.5364 5.74862 12.5134L5.75175 12.48C5.75384 12.4539 5.75592 12.4289 5.75801 12.4028C5.76114 12.3642 5.76427 12.3256 5.7674 12.2859V12.2755C5.77053 12.2421 5.77262 12.2077 5.7768 12.1753C5.7841 12.1106 5.79245 12.0459 5.8008 11.9812L5.80393 11.9551C5.80706 11.928 5.81019 11.9019 5.81436 11.8748C5.82271 11.8122 5.83419 11.7475 5.8488 11.665L5.85089 11.6535L5.85715 11.6202C5.85924 11.6045 5.86132 11.5889 5.86445 11.5732C5.88219 11.4741 5.90306 11.3708 5.92602 11.2706C5.92811 11.2591 5.9302 11.2487 5.93333 11.2372L5.93959 11.2132L5.94167 11.2048C5.96255 11.1182 5.98133 11.0399 6.00011 10.9659C6.0022 10.9565 6.00533 10.9471 6.00742 10.9377C6.01159 10.922 6.01577 10.9064 6.01994 10.8907L6.02725 10.8605C6.04603 10.7926 6.06481 10.7248 6.08464 10.657C6.09508 10.6194 6.1076 10.5797 6.11908 10.5422C6.1389 10.4764 6.16082 10.4096 6.18378 10.3429L6.19108 10.322C6.20047 10.2928 6.21091 10.2615 6.22134 10.2322C6.24743 10.1592 6.27457 10.0872 6.3017 10.0141L6.31526 9.97762C6.31839 9.97032 6.32048 9.96301 6.32361 9.95571C6.32779 9.94527 6.33196 9.93588 6.33509 9.9244C6.37579 9.819 6.41649 9.71569 6.45823 9.61656C6.46032 9.61238 6.4624 9.60716 6.46449 9.60299C6.46658 9.59882 6.46762 9.5936 6.46971 9.58942L6.47806 9.56855C6.51562 9.47985 6.55319 9.3922 6.59285 9.30767C6.60015 9.29097 6.60954 9.27219 6.61789 9.2534L6.62311 9.24297L6.64189 9.20436C6.65337 9.18036 6.66485 9.15635 6.67737 9.13235C6.69824 9.08852 6.71911 9.0447 6.74103 9.00191L6.74833 8.98626C6.76399 8.95286 6.78068 8.91947 6.79842 8.88712C6.81095 8.86416 6.82347 8.84016 6.83495 8.81616C6.85686 8.77442 6.87878 8.73163 6.90069 8.69093L6.91113 8.67006C6.91947 8.65545 6.92782 8.6398 6.93617 8.62415C6.94452 8.60849 6.95287 8.59389 6.96122 8.57823C6.99983 8.50832 7.03948 8.4384 7.08018 8.36848L7.10418 8.32674C7.1094 8.31735 7.11462 8.309 7.11983 8.29961C7.12505 8.29021 7.13027 8.28187 7.13549 8.27247C7.1981 8.16708 7.25862 8.06794 7.31915 7.97298L7.3275 7.95732C7.3275 7.95732 7.3348 7.94689 7.33793 7.94167C7.39324 7.85401 7.45272 7.76427 7.51221 7.67557C7.52473 7.65574 7.53829 7.63696 7.5529 7.61713L7.56125 7.60565L7.58108 7.57643C7.627 7.51069 7.67291 7.44495 7.71987 7.3792L7.72196 7.37607C7.747 7.34059 7.77413 7.30407 7.80022 7.26859L7.81483 7.24876C7.85553 7.19345 7.89623 7.1371 7.94006 7.08284L7.94632 7.07553C7.96197 7.05466 7.97867 7.03379 7.99432 7.01396C8.00476 7.00144 8.01415 6.98788 8.02458 6.97535C8.07572 6.90857 8.1279 6.84387 8.18112 6.77917L8.20407 6.74995C8.21451 6.73742 8.2239 6.72595 8.23434 6.71447C8.24164 6.70508 8.24895 6.69673 8.25729 6.68733C8.34286 6.58298 8.42322 6.49011 8.49835 6.40558C8.54322 6.35445 8.5881 6.3054 8.63088 6.2574C8.65906 6.22609 8.68723 6.19478 8.71436 6.16452L8.72793 6.14887C8.76446 6.11026 8.79994 6.07269 8.83437 6.03617C8.86464 6.00382 8.89281 5.97251 8.92203 5.94225C8.92516 5.93807 8.92829 5.93494 8.93247 5.93181C8.9356 5.92868 8.93873 5.92555 8.94186 5.92138C8.98464 5.8765 9.02638 5.83372 9.06813 5.79198C9.08378 5.77632 9.09943 5.75963 9.11509 5.74397L9.13804 5.72102C9.19231 5.66675 9.24553 5.61562 9.29771 5.56657L9.29562 5.5697ZM15.3482 7.04005C15.3628 7.05257 15.3784 7.06405 15.393 7.07658C15.4076 7.0891 15.4233 7.10058 15.4379 7.1131C15.4953 7.16006 15.5537 7.21015 15.6226 7.27068L15.6518 7.29676C15.6717 7.31346 15.6884 7.32911 15.7061 7.34581L15.7113 7.35103C15.7718 7.40634 15.8292 7.46477 15.8887 7.52426C15.9023 7.53782 15.9158 7.55243 15.9294 7.566C15.9315 7.56913 15.9346 7.57121 15.9367 7.57435C15.9398 7.57748 15.9419 7.57956 15.9451 7.58269L15.9639 7.60148C16.0421 7.68496 16.1183 7.77366 16.1945 7.86549C16.208 7.88219 16.2206 7.89889 16.232 7.91558C16.2362 7.92185 16.2425 7.92915 16.2477 7.93541C16.2477 7.93541 16.254 7.94376 16.2581 7.94793C16.3166 8.02411 16.3635 8.08568 16.4053 8.14516C16.4136 8.15769 16.422 8.17021 16.4303 8.18273C16.4407 8.19838 16.4512 8.21404 16.4616 8.22969L16.4773 8.25056C16.5232 8.3163 16.5618 8.37787 16.5983 8.4384C16.6213 8.47597 16.6432 8.51353 16.6662 8.55319C16.6995 8.61163 16.734 8.67424 16.7736 8.75042L16.7872 8.77651C16.8029 8.80468 16.8175 8.8339 16.831 8.86416C16.8644 8.93199 16.8968 9.00713 16.9364 9.10105C16.9406 9.11253 16.9458 9.12296 16.9521 9.13444C16.9542 9.1407 16.9573 9.14696 16.9604 9.15218C16.9656 9.16366 16.9709 9.17514 16.975 9.18662C17.0189 9.29723 17.0596 9.40994 17.0961 9.52159C17.1003 9.53516 17.1044 9.54977 17.1076 9.56334C17.1097 9.57273 17.1117 9.57899 17.1138 9.58525C17.1138 9.58838 17.1159 9.59151 17.117 9.59464C17.1472 9.69169 17.1723 9.78248 17.1942 9.86805C17.2004 9.89205 17.2057 9.91501 17.2109 9.93901L17.214 9.95258L17.2224 9.99328C17.2422 10.0809 17.2589 10.1592 17.2725 10.2312C17.2818 10.2782 17.2891 10.3241 17.2965 10.371C17.3079 10.4483 17.3205 10.5286 17.3309 10.61V10.6257C17.3361 10.6528 17.3392 10.681 17.3424 10.7091C17.3445 10.7238 17.3455 10.7384 17.3476 10.7519C17.3549 10.8271 17.3632 10.9116 17.3685 11.017L17.3716 11.0587C17.3716 11.0733 17.3737 11.0869 17.3747 11.1015C17.3758 11.1151 17.3768 11.1297 17.3778 11.1433C17.3841 11.2862 17.3862 11.4188 17.3862 11.545C17.3862 11.6838 17.3799 11.8268 17.3674 11.9812C17.3674 12 17.3643 12.0177 17.3622 12.0376C17.3612 12.048 17.3601 12.0584 17.3591 12.0689C17.3591 12.0772 17.357 12.0866 17.3559 12.096C17.3549 12.1064 17.3538 12.1158 17.3528 12.1263C17.3424 12.2338 17.333 12.3235 17.3215 12.4143C17.3173 12.4456 17.3121 12.4759 17.3069 12.5061L17.3048 12.5186C17.3038 12.526 17.3027 12.5322 17.3017 12.5395L17.2944 12.5813C17.2829 12.6585 17.2662 12.7472 17.2464 12.839C17.237 12.886 17.2255 12.934 17.214 12.9799L17.2067 13.0091C17.1869 13.0936 17.165 13.1761 17.1431 13.2543C17.1368 13.2763 17.1305 13.2982 17.1243 13.319C17.1149 13.3535 17.1044 13.3869 17.093 13.4213C17.07 13.4954 17.0429 13.5737 17.0105 13.6634L17.0001 13.6937C16.9949 13.7083 16.9897 13.7229 16.9844 13.7375C16.974 13.7657 16.9646 13.7939 16.9531 13.821C16.9197 13.9066 16.8822 13.9932 16.8477 14.0714L16.8446 14.0777L16.8415 14.085C16.8362 14.0965 16.8321 14.108 16.8258 14.1194C16.8216 14.1299 16.8164 14.1403 16.8122 14.1507C16.8039 14.1706 16.7956 14.1894 16.7872 14.2081C16.7434 14.301 16.6943 14.3981 16.6328 14.5129C16.6286 14.5202 16.6255 14.5264 16.6223 14.5337C16.6213 14.5369 16.6192 14.54 16.6171 14.5431C16.6161 14.5452 16.614 14.5483 16.6129 14.5515C16.6077 14.5609 16.6025 14.5734 16.5962 14.5838C16.5555 14.6569 16.5138 14.7289 16.4689 14.8019C16.5023 14.7675 16.5336 14.733 16.566 14.6976L16.5775 14.684C16.5879 14.6715 16.5994 14.66 16.6098 14.6496L16.6171 14.6423C16.6255 14.6329 16.6338 14.6245 16.6422 14.6162C16.6505 14.6078 16.6588 14.5984 16.6672 14.5901C16.7757 14.469 16.8822 14.3459 16.9855 14.2238C17.1138 14.0704 17.2432 13.9107 17.3664 13.749C17.3852 13.725 17.4029 13.6999 17.4206 13.6759C17.429 13.6645 17.4373 13.653 17.4457 13.6415C17.4519 13.6321 17.4592 13.6238 17.4655 13.6154C17.477 13.5998 17.4874 13.5851 17.4989 13.5716L17.5427 13.5142C17.6033 13.4338 17.6638 13.3524 17.7222 13.2721C17.7452 13.2397 17.7681 13.2063 17.79 13.174C17.7974 13.1625 17.8057 13.151 17.813 13.1396C17.8203 13.1281 17.8287 13.1166 17.836 13.1051C17.8454 13.0916 17.8537 13.078 17.8631 13.0655L17.9132 12.9945C17.9549 12.934 17.9967 12.8724 18.0374 12.8119L18.052 12.791L18.0614 12.7764C18.0885 12.7347 18.1156 12.6929 18.1407 12.6512C18.149 12.6387 18.1574 12.6251 18.1647 12.6126C18.173 12.6 18.1803 12.5865 18.1887 12.574L18.2346 12.5009C18.2753 12.4373 18.316 12.3736 18.3536 12.3089C18.3817 12.2609 18.4089 12.2118 18.436 12.1638L18.4423 12.1524C18.4537 12.1315 18.4652 12.1096 18.4777 12.0898L18.5153 12.024L18.5299 11.999C18.5623 11.9426 18.5957 11.8863 18.6249 11.831C18.6478 11.7892 18.6687 11.7475 18.6906 11.7057L18.7042 11.6807L18.772 11.5482C18.7762 11.5398 18.7804 11.5315 18.7845 11.5231L18.7918 11.5085C18.8179 11.4574 18.844 11.4073 18.868 11.3551C18.892 11.305 18.9139 11.258 18.9359 11.208C18.94 11.1986 18.9442 11.1881 18.9494 11.1787C18.9557 11.1652 18.9619 11.1527 18.9672 11.1391L18.9953 11.0775C19.0256 11.0128 19.0538 10.9481 19.083 10.8834C19.0997 10.8448 19.1143 10.8062 19.1289 10.7676L19.1341 10.753L19.1393 10.7384L19.1665 10.6695L19.18 10.6351C19.1873 10.6163 19.1947 10.5975 19.202 10.5787C19.2176 10.539 19.2333 10.4994 19.2479 10.4597C19.2322 10.4336 19.2166 10.4086 19.1999 10.3825L19.1905 10.3689C19.1727 10.3418 19.155 10.3136 19.1383 10.2855L19.1279 10.2688L19.0548 10.1613L19.0319 10.1279C19.0152 10.1028 18.9974 10.0778 18.9797 10.0528L18.9703 10.0392C18.9452 10.0037 18.9181 9.96719 18.8931 9.93379V9.93171L18.8722 9.90562C18.8492 9.87431 18.8263 9.84405 18.8033 9.81379L18.7929 9.80126C18.772 9.77413 18.7512 9.747 18.7292 9.72091L18.6938 9.67604C18.6708 9.64682 18.6478 9.61864 18.6259 9.59151C18.6155 9.57899 18.604 9.56542 18.5925 9.55186C18.579 9.5362 18.5664 9.52055 18.5529 9.50385L18.5111 9.45376L18.5028 9.44333C18.4819 9.41828 18.461 9.39428 18.4381 9.36924L18.3567 9.27845L18.3254 9.24401L18.2419 9.15218C18.2336 9.14383 18.2252 9.13444 18.2169 9.12609C18.2002 9.1094 18.1835 9.09166 18.1678 9.07392L18.1094 9.01339C18.0968 9.00087 18.0854 8.98834 18.0728 8.97582C18.0603 8.9633 18.0488 8.95078 18.0363 8.93825C18.0123 8.91217 17.9821 8.88399 17.9549 8.8579L17.8975 8.80259C17.885 8.79007 17.8725 8.77859 17.861 8.76607C17.8485 8.75355 17.836 8.74207 17.8245 8.72955C17.7963 8.70241 17.7692 8.67633 17.74 8.65128L17.6815 8.59702C17.67 8.58658 17.6596 8.57615 17.6481 8.56675C17.6346 8.55319 17.6199 8.54066 17.6064 8.52814C17.5928 8.51562 17.5793 8.50414 17.5657 8.49162C17.55 8.47805 17.5344 8.46344 17.5177 8.44883L17.4519 8.39144C17.4425 8.38309 17.4342 8.37579 17.4248 8.36848C17.4102 8.35596 17.3956 8.34344 17.381 8.32987C17.3538 8.30691 17.3267 8.285 17.3006 8.26308L17.2912 8.25578L17.2182 8.19734C17.2088 8.19004 17.1994 8.18273 17.19 8.17543C17.1754 8.16395 17.1618 8.15247 17.1472 8.13994C17.1284 8.12429 17.1086 8.10968 17.0898 8.09507C17.0794 8.08672 17.0679 8.07838 17.0575 8.07003L16.9823 8.01263C16.9583 7.99385 16.9354 7.97715 16.9114 7.95837C16.8874 7.93958 16.8623 7.92185 16.8383 7.9041C16.8289 7.89784 16.8196 7.89054 16.8112 7.88428L16.7371 7.83001C16.7142 7.81332 16.6922 7.79662 16.6693 7.78201C16.6317 7.75488 16.5941 7.72879 16.5545 7.70374L16.4888 7.66096C16.4783 7.6547 16.4679 7.64739 16.4574 7.64009C16.447 7.63278 16.4366 7.62548 16.4251 7.61922L16.4157 7.61296C16.3708 7.58374 16.327 7.55556 16.2821 7.52843L16.2247 7.49295C16.2174 7.48773 16.2101 7.48356 16.2018 7.47834C16.1924 7.47208 16.184 7.46686 16.1746 7.4606C16.0901 7.40947 16.0056 7.35833 15.9211 7.31137C15.8084 7.24876 15.6894 7.18615 15.5558 7.12667C15.537 7.11727 15.5183 7.10997 15.4995 7.10266C15.4932 7.10058 15.487 7.09745 15.4807 7.09536C15.4703 7.09119 15.4598 7.08701 15.4494 7.08284C15.4442 7.08075 15.4379 7.07762 15.4316 7.07553C15.4045 7.06614 15.3742 7.05466 15.3461 7.04318L15.3482 7.04005ZM14.3453 6.39514C14.3453 6.39514 14.3474 6.39514 14.3484 6.39514C14.3495 6.39514 14.3505 6.39514 14.3516 6.39514H14.3589C14.5133 6.42541 14.6636 6.45984 14.8024 6.49741L14.8222 6.50367C14.9725 6.54437 15.1175 6.58924 15.2532 6.63829L15.2668 6.64455C15.4118 6.69568 15.5506 6.75308 15.681 6.81152L15.6873 6.81465C15.8271 6.87726 15.9607 6.94718 16.088 7.01814C16.1527 7.05466 16.2174 7.09327 16.2853 7.13293C16.3051 7.14441 16.3239 7.15589 16.3447 7.16841C16.3531 7.17363 16.3625 7.17989 16.3708 7.1851C16.3802 7.19137 16.3907 7.19658 16.4 7.20284L16.4314 7.22267C16.4679 7.24563 16.5044 7.26859 16.5409 7.29155C16.5597 7.30302 16.5775 7.3145 16.5962 7.32703C16.6202 7.34268 16.6442 7.35833 16.6693 7.37503L16.7131 7.40529C16.7455 7.42616 16.7757 7.44703 16.807 7.46895C16.8206 7.47834 16.8331 7.48669 16.8467 7.49608C16.8749 7.51591 16.902 7.53469 16.9312 7.55661L16.9688 7.58374C16.9886 7.59835 17.0095 7.61296 17.0303 7.62757C17.0512 7.64218 17.0721 7.65679 17.0919 7.67139C17.1055 7.68079 17.118 7.69122 17.1316 7.70061C17.1493 7.71418 17.1671 7.72775 17.1848 7.74027L17.2015 7.75383C17.2453 7.78723 17.2891 7.81958 17.333 7.85401C17.3424 7.86132 17.3518 7.86967 17.3622 7.87697C17.3883 7.89784 17.4154 7.91976 17.4436 7.94063C17.4561 7.95106 17.4676 7.96046 17.4801 7.96985C17.5104 7.99385 17.5396 8.01889 17.5688 8.04498C17.5793 8.05333 17.5897 8.06168 17.5991 8.07107C17.6252 8.09299 17.6502 8.11386 17.6753 8.13577C17.716 8.17021 17.7567 8.20673 17.7963 8.24326C17.8161 8.261 17.836 8.27874 17.8547 8.29648C17.8694 8.31004 17.885 8.32361 17.8996 8.33717C17.9268 8.36118 17.9539 8.38622 17.98 8.41127C17.9925 8.42379 18.0061 8.43527 18.0186 8.44675C18.028 8.45509 18.0374 8.46449 18.0468 8.47283C18.0708 8.49579 18.0958 8.51875 18.1198 8.5438C18.1584 8.58136 18.197 8.61893 18.2356 8.65859L18.2419 8.66485C18.2492 8.67215 18.2576 8.6805 18.2659 8.6878C18.2889 8.70972 18.3118 8.73268 18.3327 8.75668L18.3358 8.75981C18.3723 8.79738 18.4099 8.83599 18.4464 8.87564L18.4642 8.89547C18.4882 8.92156 18.5122 8.9466 18.5372 8.97374C18.5675 9.00713 18.5977 9.03948 18.628 9.07392L18.6781 9.12922C18.6865 9.13861 18.6948 9.14905 18.7042 9.15844C18.7146 9.16992 18.724 9.1814 18.7345 9.19288C18.7658 9.22836 18.7981 9.26697 18.8273 9.30454L18.8774 9.36506C18.8826 9.37028 18.8868 9.37654 18.892 9.38176C18.9025 9.39428 18.9129 9.40576 18.9223 9.41828C18.9661 9.4715 19.0089 9.52681 19.06 9.5936L19.0726 9.6103L19.0767 9.61656L19.1133 9.66352C19.1686 9.73656 19.2187 9.80544 19.2656 9.87118C19.2771 9.88788 19.2896 9.90562 19.3001 9.92231L19.3449 9.98701C19.3574 10.0037 19.3689 10.0215 19.3794 10.0381C19.3794 10.0381 19.3856 10.0475 19.3888 10.0517C19.7342 8.92051 19.7269 7.95732 19.3658 7.33433C19.1206 6.91065 18.7167 6.64455 18.1668 6.54437C17.9622 6.5068 17.7619 6.47237 17.574 6.44106C17.4979 6.42854 17.4238 6.41497 17.3528 6.40349C15.9357 6.16452 14.7126 5.95581 13.5387 5.13768C12.1988 4.20266 10.9329 4.23814 9.66816 5.24725C9.88626 5.2629 10.0991 5.27855 10.2985 5.30047L10.336 5.30464L10.3621 5.30777C10.576 5.33073 10.7806 5.35578 10.9736 5.38291L11.0269 5.39021C11.2345 5.42048 11.4338 5.45491 11.6175 5.48935L11.6592 5.49874C11.8617 5.53735 12.0527 5.58014 12.229 5.62188L12.2593 5.62918C12.4534 5.67719 12.637 5.72623 12.8103 5.77945L12.827 5.78363C13.0138 5.84102 13.1922 5.89946 13.3581 5.96103C13.5251 6.0226 13.6962 6.09043 13.858 6.16243L13.8747 6.16974C14.027 6.23548 14.1794 6.30957 14.3297 6.38784L14.3391 6.39201C14.3391 6.39201 14.3453 6.3941 14.3474 6.39619L14.3453 6.39514Z" fill="url(#paint1_linear_5679_4901)"/>
</g>
<defs>
<linearGradient id="paint0_linear_5679_4901" x1="24.0002" y1="8.05684e-07" x2="-1.33715" y2="22.4935" gradientUnits="userSpaceOnUse">
<stop stop-color="#EDE60B"/>
<stop offset="0.25" stop-color="#EBE20C"/>
<stop offset="0.5" stop-color="#E4CE24"/>
<stop offset="0.75" stop-color="#E4CA41"/>
<stop offset="1" stop-color="#E4CB4B"/>
</linearGradient>
<linearGradient id="paint1_linear_5679_4901" x1="20" y1="4.4624" x2="4" y2="19.5378" gradientUnits="userSpaceOnUse">
<stop stop-color="#FEFFF0"/>
<stop offset="1" stop-color="white"/>
</linearGradient>
<clipPath id="clip0_5679_4901">
<rect width="24" height="24" fill="white"/>
</clipPath>
</defs>
</svg>
