<svg width="24" height="24" viewBox="0 0 24 24" fill="none" xmlns="http://www.w3.org/2000/svg">
<g clip-path="url(#clip0_4089_1629)">
<path d="M24 12C24 5.37258 18.6274 0 12 0C5.37258 0 0 5.37258 0 12C0 18.6274 5.37258 24 12 24C18.6274 24 24 18.6274 24 12Z" fill="#DEDEDE"/>
<mask id="mask0_4089_1629" style="mask-type:alpha" maskUnits="userSpaceOnUse" x="0" y="0" width="24" height="24">
<path d="M24 12C24 5.37258 18.6274 0 12 0C5.37258 0 0 5.37258 0 12C0 18.6274 5.37258 24 12 24C18.6274 24 24 18.6274 24 12Z" fill="#DEDEDE"/>
</mask>
<g mask="url(#mask0_4089_1629)">
<path d="M6.59998 1V17" stroke="#152E51"/>
<circle cx="6.60001" cy="23.4154" r="6.75143" fill="#152E51"/>
</g>
</g>
<defs>
<clipPath id="clip0_4089_1629">
<rect width="24" height="24" fill="white"/>
</clipPath>
</defs>
</svg>
