<svg width="24" height="24" viewBox="0 0 24 24" fill="none" xmlns="http://www.w3.org/2000/svg">
<circle cx="12" cy="12" r="12" fill="#444546"/>
<path d="M12 3C7.0374 3 3 7.0374 3 12C3 16.9626 7.0374 21 12 21C16.9626 21 21 16.9626 21 12C21 7.0374 16.9626 3 12 3Z" fill="#6F7073"/>
<path fill-rule="evenodd" clip-rule="evenodd" d="M12.5167 7.98854C13.492 8.1395 14.3377 8.7088 14.6543 9.53479C14.7532 9.79264 14.6242 10.0818 14.3664 10.1806C14.1085 10.2794 13.8194 10.1505 13.7206 9.89268C13.5357 9.41044 12.8866 8.94858 11.9962 8.94858C10.89 8.94858 10.2274 9.61282 10.219 10.2084C10.2331 10.4611 10.2948 10.6364 10.3745 10.7649C10.456 10.8964 10.5731 11.0058 10.7335 11.1014C11.0768 11.3058 11.548 11.4113 12.1278 11.5326L12.1828 11.5441C12.7052 11.6532 13.3254 11.7827 13.8142 12.0706C14.0793 12.2268 14.3227 12.4377 14.5001 12.7299C14.678 13.0229 14.7715 13.3683 14.7809 13.7655L14.7812 13.7774H14.7811C14.7811 14.971 13.7325 15.8205 12.5155 16.0091L12.519 17.0755C12.52 17.3516 12.2969 17.5762 12.0207 17.5772C11.7446 17.5781 11.52 17.355 11.5191 17.0788L11.5155 16.013C10.2898 15.8335 9.22652 14.9888 9.22652 13.7774C9.22652 13.5013 9.45038 13.2774 9.72652 13.2774C10.0027 13.2774 10.2265 13.5013 10.2265 13.7774C10.2265 14.3758 10.8905 15.0486 12.0038 15.0486C13.1116 15.0486 13.7769 14.3716 13.781 13.783C13.7743 13.5358 13.7181 13.3688 13.6452 13.2488C13.5712 13.1268 13.462 13.0237 13.3067 12.9323C12.9717 12.735 12.5062 12.6335 11.923 12.5114L11.8929 12.5051C11.362 12.3941 10.7268 12.2613 10.2218 11.9605C9.9533 11.8006 9.70713 11.5862 9.52463 11.2919C9.34164 10.9968 9.2392 10.6479 9.21953 10.2441L9.21893 10.232V10.2198C9.21893 9.00556 10.2872 8.15972 11.5166 7.98295L11.5096 6.92619C11.5077 6.65005 11.7301 6.4247 12.0062 6.42286C12.2824 6.42102 12.5077 6.64338 12.5095 6.91952L12.5167 7.98854Z" fill="white"/>
</svg>
