<svg width="24" height="24" viewBox="0 0 24 24" fill="none" xmlns="http://www.w3.org/2000/svg">
<g clip-path="url(#clip0_4302_11001)">
<path d="M12 24C18.6274 24 24 18.6274 24 12C24 5.37258 18.6274 0 12 0C5.37258 0 0 5.37258 0 12C0 18.6274 5.37258 24 12 24Z" fill="white"/>
<path d="M15.9973 7.37989L4.00229 14.3131L8.00295 16.6202L19.9978 9.68699L15.9973 7.37989Z" fill="#3D587B"/>
<path d="M20 14.3051L19.9979 9.68677L15.9995 11.9981L16.0019 16.6162L20 14.3051Z" fill="#D5F6FF"/>
<path d="M11.999 9.69084L7.99838 7.38376L8.00058 12.002L11.999 9.69084Z" fill="#5A7B92"/>
<path d="M16.0019 16.6162L15.9994 11.998L12.0013 14.3091L16.0019 16.6162Z" fill="#5A7B92"/>
<path d="M8.00057 12.0019L7.99838 7.38368L4 9.69479L4.00221 14.313L8.00057 12.0019Z" fill="#AAEEFF"/>
</g>
<defs>
<clipPath id="clip0_4302_11001">
<rect width="24" height="24" fill="white"/>
</clipPath>
</defs>
</svg>
