<svg width="24" height="24" viewBox="0 0 24 24" fill="none" xmlns="http://www.w3.org/2000/svg">
<g clip-path="url(#clip0_5465_1710)">
<path d="M24 12C24 5.37258 18.6274 0 12 0C5.37258 0 0 5.37258 0 12C0 18.6274 5.37258 24 12 24C18.6274 24 24 18.6274 24 12Z" fill="#162E2F"/>
<mask id="mask0_5465_1710" style="mask-type:alpha" maskUnits="userSpaceOnUse" x="0" y="0" width="25" height="25">
<path d="M12.3707 24.0127C18.9981 24.0127 24.3707 18.6401 24.3707 12.0127C24.3707 5.38528 18.9981 0.0126953 12.3707 0.0126953C5.74325 0.0126953 0.370667 5.38528 0.370667 12.0127C0.370667 18.6401 5.74325 24.0127 12.3707 24.0127Z" fill="#D9D9D9"/>
</mask>
<g mask="url(#mask0_5465_1710)">
<path d="M-4.49445 5.51904H12.585L12.6121 7.30977L14.0711 8.01271L15.0591 9.10049V13.8034V15.0271L14.0711 16.1715L12.585 17.0945V18.5063H-4.49445V5.51904Z" fill="url(#paint0_linear_5465_1710)"/>
<path d="M10.5942 7.52954H0.0324707V16.4839H10.5942V7.52954Z" fill="url(#paint1_linear_5465_1710)"/>
</g>
<path fill-rule="evenodd" clip-rule="evenodd" d="M13.3207 6.59679C15.1578 6.75973 16.6123 7.33022 16.7737 9.03L16.7746 9.02948C16.8948 10.2736 16.3789 11.0187 15.5538 11.4441C16.9117 11.7751 17.7621 12.5885 17.5934 14.4129C17.3855 16.6781 15.7103 17.2852 13.3182 17.4227V18.4927H11.8954V17.4545C11.5266 17.455 11.1487 17.4516 10.7589 17.443V18.4924H9.33738V17.4176C9.00494 17.4155 7.47121 17.4087 7.12659 17.4087L7.1371 16.1616H8.32373V7.87145L7.13664 7.8647L7.14092 6.59977C7.14092 6.59977 9.03284 6.6014 9.34068 6.59549V5.50708H10.7623V6.54918C11.1424 6.54191 11.5245 6.53472 11.8984 6.53472V5.5079H13.3207V6.59679ZM11.0684 15.7101C12.2338 15.7268 14.7806 15.7636 14.7806 14.1283H14.7793C14.779 12.4555 12.3291 12.5136 11.136 12.5419C11.0038 12.545 10.8869 12.5478 10.7906 12.5478V15.7071C10.8701 15.7071 10.9635 15.7085 11.0684 15.7101ZM11.0276 11.1044C12.0005 11.1207 14.1204 11.1563 14.1204 9.67028C14.1213 8.1505 12.0833 8.20388 11.0861 8.23022C10.9736 8.23314 10.8742 8.2356 10.7927 8.2356V11.1016C10.8598 11.1016 10.9389 11.103 11.0276 11.1044Z" fill="#C3FCF1"/>
<path fill-rule="evenodd" clip-rule="evenodd" d="M12 24C18.6274 24 24 18.6274 24 12C24 5.37258 18.6274 0 12 0C5.37258 0 0 5.37258 0 12C0 18.6274 5.37258 24 12 24ZM22.5 12C22.5 17.799 17.799 22.5 12 22.5C6.20101 22.5 1.5 17.799 1.5 12C1.5 6.20101 6.20101 1.5 12 1.5C17.799 1.5 22.5 6.20101 22.5 12Z" fill="#1BE3C2"/>
</g>
<defs>
<linearGradient id="paint0_linear_5465_1710" x1="15.0591" y1="12.2387" x2="0.325442" y2="12.0127" gradientUnits="userSpaceOnUse">
<stop stop-color="#498E85"/>
<stop offset="1" stop-color="#32645F"/>
</linearGradient>
<linearGradient id="paint1_linear_5465_1710" x1="0.0324708" y1="12.466" x2="14.4601" y2="12.7633" gradientUnits="userSpaceOnUse">
<stop stop-color="#2F5D59"/>
<stop offset="1" stop-color="#3F8078"/>
</linearGradient>
<clipPath id="clip0_5465_1710">
<rect width="24" height="24" fill="white"/>
</clipPath>
</defs>
</svg>
