<svg width="24" height="24" viewBox="0 0 24 24" fill="none" xmlns="http://www.w3.org/2000/svg">
<g clip-path="url(#clip0_5363_1677)">
<circle cx="12" cy="12" r="12" fill="#F2F2F2"/>
<mask id="mask0_5363_1677" style="mask-type:luminance" maskUnits="userSpaceOnUse" x="4" y="3" width="16" height="18">
<path d="M19.1923 3.45923H4.80783V20.5407H19.1923V3.45923Z" fill="white"/>
</mask>
<g mask="url(#mask0_5363_1677)">
<path d="M8.26218 10.2966L12.0001 8.46519V3.45923L8.26218 10.2966Z" fill="#FF596E"/>
<path d="M12.0001 8.46521V12.4539L15.7381 10.2967L12.0001 8.46521Z" fill="#FF596E"/>
<path d="M12.0001 8.46521V12.4539L8.26218 10.2967L12.0001 8.46521Z" fill="#800010"/>
<path d="M15.7381 10.2966L12.0001 8.46519V3.45923L15.7381 10.2966Z" fill="#800010"/>
<path d="M11.9995 13.9939V18.2451L8.18973 11.7949L11.9995 13.9939Z" fill="#FF596E"/>
<path d="M12 13.9939V18.2451L15.8098 11.7949L12 13.9939Z" fill="#800010"/>
<path d="M16.4389 12.7693L17.302 15.3277L19.1922 11.9924L16.4389 12.7693Z" fill="#800010"/>
<path d="M17.3018 15.3277L19.1921 14.7361V11.9924L17.3018 15.3277Z" fill="#FF596E"/>
<path d="M19.1914 14.7357L16.4381 19.5949L14.3466 20.5407L17.3011 15.3272L19.1914 14.7357Z" fill="#800010"/>
<path d="M4.80783 14.7361L7.56112 19.5953L9.65255 20.541L6.69809 15.3276L4.80783 14.7361Z" fill="#FF596E"/>
<path d="M12.0001 20.5407L7.56146 12.7689L6.69836 15.3273L9.65289 20.5407H12.0001Z" fill="#800010"/>
<path d="M7.56112 12.7693L6.69809 15.3277L4.80783 11.9924L7.56112 12.7693Z" fill="#FF596E"/>
<path d="M6.69809 15.3277L4.80783 14.7361V11.9924L6.69809 15.3277Z" fill="#800010"/>
<path d="M12.0001 20.5407L16.4388 12.7689L17.3018 15.3273L14.3473 20.5407H12.0001Z" fill="#FF596E"/>
</g>
<path d="M23.25 12C23.25 18.2132 18.2132 23.25 12 23.25C5.7868 23.25 0.75 18.2132 0.75 12C0.75 5.7868 5.7868 0.75 12 0.75C18.2132 0.75 23.25 5.7868 23.25 12Z" stroke="#1BE3C2" stroke-width="1.5"/>
</g>
<defs>
<clipPath id="clip0_5363_1677">
<rect width="24" height="24" fill="white"/>
</clipPath>
</defs>
</svg>
