<svg width="24" height="24" viewBox="0 0 24 24" fill="none" xmlns="http://www.w3.org/2000/svg">
<g clip-path="url(#clip0_5375_1651)">
<path d="M12 24C18.6274 24 24 18.6274 24 12C24 5.37258 18.6274 0 12 0C5.37258 0 0 5.37258 0 12C0 18.6274 5.37258 24 12 24Z" fill="black"/>
<path opacity="0.956" d="M18.6882 18.9302C18.6677 18.5684 18.5676 18.2297 18.388 17.9141C18.2134 17.6666 18.0055 17.6281 17.7644 17.7986C17.9791 17.8959 18.1254 18.0575 18.2032 18.2836C18.2723 18.5906 18.3262 18.8986 18.3649 19.2074C17.8982 19.6028 17.3902 19.9415 16.8406 20.2235C15.2915 20.3797 13.8135 20.7801 12.4065 21.4245C11.9754 21.4245 11.5442 21.4245 11.1132 21.4245C10.2678 21.321 9.43635 21.1285 8.61894 20.8471C8.39279 20.7594 8.17723 20.6593 7.97229 20.5469C7.73741 19.849 7.9376 19.3332 8.57275 18.9995C8.27483 18.8934 8.03617 18.9781 7.85681 19.2536C7.66753 19.6142 7.59824 19.9991 7.64896 20.4083C7.57182 20.3967 7.50254 20.3659 7.44111 20.3159C7.35007 19.7688 7.4963 19.2992 7.87991 18.9071C7.43778 18.7716 6.99898 18.6253 6.56351 18.4683C6.41319 18.625 6.30541 18.8097 6.24018 19.0226C6.13723 19.1453 6.05255 19.1299 5.98614 18.9764C6.07218 18.7658 6.16456 18.558 6.26328 18.3529C5.97615 18.1893 5.71441 17.9891 5.47806 17.7524C5.41303 17.7378 5.35145 17.7532 5.2933 17.7986C5.11519 17.9536 4.93043 18.0999 4.73903 18.2374C4.62607 18.1946 4.58758 18.1176 4.62356 18.0064C4.82471 17.8283 5.03256 17.659 5.24711 17.4984C5.07524 17.2625 4.96746 17.0007 4.92379 16.7131C4.98582 16.6076 4.95503 16.5692 4.83141 16.5977C4.60345 16.6925 4.3802 16.7926 4.16166 16.8979C4.07061 16.908 4.01673 16.8695 4 16.7824C4.0388 16.7008 4.10039 16.6392 4.18476 16.5977C4.35453 16.5128 4.52389 16.4281 4.69284 16.3436C4.51542 16.1039 4.40764 15.8345 4.36952 15.5353C4.54735 15.0479 4.67822 14.5475 4.76212 14.0342C4.80795 13.4074 4.87723 12.7838 4.96998 12.1635C3.93029 9.84755 3.81481 7.48418 4.62356 5.07342C4.75386 4.74273 4.98481 4.52718 5.3164 4.42676C5.46575 4.43601 5.59661 4.4899 5.70901 4.58843C6.94125 5.45099 8.0267 6.47485 8.96536 7.66002C9.00661 7.68686 9.05279 7.70228 9.10393 7.70621C10.4477 7.34381 11.8103 7.14367 13.1917 7.10575C13.5263 6.42067 13.9189 5.774 14.3695 5.16579C14.9761 4.48214 15.5997 3.81239 16.2402 3.15656C16.603 2.91461 16.934 2.9531 17.2333 3.27203C18.2764 4.89301 18.8384 6.67129 18.9192 8.6069C18.9005 8.96686 18.8543 9.32099 18.7806 9.66926C19.2607 10.6014 19.6225 11.5791 19.8661 12.6023C20.0544 13.0251 20.2545 13.4408 20.4665 13.8494C20.7464 13.7824 21.0313 13.7593 21.321 13.7801C21.3826 13.8571 21.3826 13.9341 21.321 14.0111C21.0103 14.0288 20.7023 14.0673 20.3972 14.1265C20.2974 14.3571 20.1742 14.5727 20.0277 14.7732C20.1237 14.8605 20.1853 14.9683 20.2125 15.0965C20.5964 15.1349 20.9814 15.158 21.3672 15.1658C21.3364 15.2274 21.3056 15.289 21.2748 15.3506C20.9043 15.3583 20.5348 15.3814 20.1663 15.4198C20.0454 15.7464 19.8606 16.0312 19.612 16.2743C19.9289 16.3557 20.2368 16.4635 20.5358 16.5977C20.6026 16.7128 20.5718 16.7975 20.4434 16.8517C20.101 16.7145 19.7545 16.5913 19.4042 16.4822C19.0702 16.8762 18.693 17.2226 18.2725 17.5215C18.6782 17.8445 18.8706 18.2679 18.8499 18.7917C18.8019 18.8475 18.748 18.8937 18.6882 18.9302Z" fill="#042520"/>
<path d="M18.9653 10.6623C18.9494 10.787 18.8878 10.8793 18.7806 10.9395C18.6791 10.6273 18.5636 10.3193 18.4342 10.0157C18.2638 9.71551 18.0867 9.42294 17.903 9.13809C18.0013 9.22599 18.109 9.30294 18.2263 9.36904C18.2988 9.31297 18.3372 9.23597 18.3418 9.13809C18.3347 7.59509 18.0575 6.1016 17.5104 4.65772C17.4324 4.4702 17.3323 4.30084 17.2101 4.14964C17.2101 4.11885 17.2101 4.08806 17.2101 4.05726C17.1504 3.75183 16.981 3.53628 16.7021 3.41061C16.6356 3.42072 16.5741 3.44382 16.5173 3.4799C15.4484 4.42746 15.0485 5.96119 14.3464 7.17505C14.0389 7.19814 13.7309 7.20581 13.4226 7.19814C13.8488 6.2871 14.3954 5.45569 15.0623 4.70391C15.5179 4.26375 15.9567 3.80955 16.3787 3.34133C16.5523 3.20882 16.7371 3.19342 16.933 3.29514C17.2778 3.68374 17.5472 4.12254 17.7413 4.61154C18.5229 6.27112 18.8154 8.01093 18.6189 9.83093C18.7663 10.0966 18.8818 10.3738 18.9653 10.6623Z" fill="#F8F9F9"/>
<path d="M16.8406 3.82631C16.4401 4.06512 16.1245 4.38844 15.8937 4.79629C15.5479 5.54143 15.2477 6.30354 14.993 7.08266C15.1758 7.04779 15.3606 7.0016 15.5473 6.9441C16.1846 6.83943 16.3232 7.06271 15.963 7.61384C16.2579 7.6428 16.5504 7.68128 16.8406 7.72931C16.8985 7.8725 16.8831 8.01107 16.7944 8.14502C16.834 8.25375 16.911 8.32303 17.0254 8.35287C17.0683 8.40779 17.0837 8.46936 17.0716 8.53763C16.6573 8.47841 16.5341 8.26289 16.702 7.89098C16.3035 7.84844 15.9109 7.84844 15.5242 7.89098C15.4934 7.86017 15.4934 7.82941 15.5242 7.7986C15.7415 7.60978 15.8878 7.37883 15.963 7.10576C15.5763 7.12548 15.2068 7.21786 14.8545 7.38289C14.7981 7.36502 14.7673 7.32654 14.7621 7.26742C15.0085 6.32816 15.3549 5.42747 15.8013 4.56534C16.0351 4.19299 16.343 3.90046 16.7251 3.68774C16.8059 3.69921 16.8444 3.7454 16.8406 3.82631Z" fill="#0A2925"/>
<path d="M16.8406 3.82629C16.9875 3.86549 17.1107 3.94247 17.2101 4.05724C17.2101 4.08804 17.2101 4.11883 17.2101 4.14962C17.153 5.46856 17.2377 6.77724 17.4642 8.07572C17.543 8.37581 17.6431 8.66833 17.7644 8.95331C17.7587 8.98135 17.7433 8.99673 17.7182 8.9995C17.4887 8.86195 17.2732 8.708 17.0716 8.53761C17.0837 8.46934 17.0683 8.40777 17.0254 8.35285C16.911 8.32301 16.834 8.25373 16.7944 8.145C16.8831 8.01105 16.8985 7.87248 16.8406 7.7293C16.5504 7.68126 16.2579 7.64278 15.963 7.61382C16.3232 7.06269 16.1846 6.83941 15.5473 6.94408C15.3606 7.00158 15.1759 7.04777 14.993 7.08264C15.2477 6.30352 15.5479 5.54141 15.8937 4.79627C16.1245 4.38842 16.4402 4.0651 16.8406 3.82629Z" fill="#DA799E"/>
<path d="M17.2101 4.14954C17.3323 4.30073 17.4323 4.4701 17.5104 4.65762C18.0575 6.1015 18.3347 7.59499 18.3418 9.13799C18.3372 9.23586 18.2988 9.31286 18.2263 9.36894C18.109 9.30284 18.0013 9.22589 17.903 9.13799C17.8396 9.09125 17.778 9.04506 17.7182 8.99942C17.7433 8.99665 17.7587 8.98127 17.7644 8.95323C17.6431 8.66824 17.543 8.37573 17.4642 8.07563C17.2377 6.77716 17.153 5.46848 17.2101 4.14954Z" fill="#F7B1CC"/>
<path d="M8.66509 7.98329C8.04084 7.24325 7.3711 6.53502 6.65586 5.85858C7.10708 6.86985 7.52278 7.9014 7.90297 8.95327C8.23646 8.71341 8.59826 8.52865 8.98842 8.399C9.0038 8.399 9.01923 8.399 9.03461 8.399C9.11636 8.91387 9.29341 9.39114 9.56579 9.83087C9.61401 9.779 9.64477 9.71743 9.65816 9.64611C9.70024 9.15419 9.72334 8.66154 9.72745 8.16805C9.87816 8.12269 10.0322 8.09188 10.1893 8.07567C10.2394 8.88412 10.3548 9.68472 10.5358 10.4775C10.5668 10.6401 10.6208 10.7941 10.6974 10.9394C10.757 10.8398 10.7955 10.732 10.8129 10.6161C10.964 9.70454 11.1256 8.79618 11.2979 7.89091C11.3287 7.89091 11.3441 7.87553 11.3441 7.84472C11.5442 7.84472 11.7444 7.84472 11.9445 7.84472C11.9369 8.1069 11.9446 8.36865 11.9676 8.62994C11.9699 8.83927 12.0084 9.03946 12.0831 9.23041C12.2949 8.77978 12.4797 8.31789 12.6374 7.84472C15.4623 7.87041 17.1867 9.25609 17.8106 12.0018C17.5337 12.2854 17.2104 12.5087 16.8406 12.6715C16.802 12.7182 16.7866 12.7721 16.7944 12.8332C17.1982 12.8412 17.5984 12.8104 17.9953 12.7408C18.0555 13.1716 18.0555 13.6027 17.9953 14.0341C17.9953 14.0495 17.9953 14.0649 17.9953 14.0803C17.6234 14.0676 17.2539 14.0907 16.8868 14.1496C16.7101 14.2312 16.7101 14.3236 16.8868 14.4267C17.1995 14.5626 17.5228 14.6627 17.8568 14.7269C17.4905 15.7939 16.8131 16.6022 15.8244 17.1519C14.9486 17.6206 14.0248 17.9593 13.0531 18.168C12.3332 18.3008 11.6095 18.4087 10.8822 18.4914C9.78029 18.5668 8.68713 18.5053 7.60274 18.3066C7.33489 18.2363 7.07313 18.1516 6.81752 18.0526C6.88084 17.9432 6.97322 17.8663 7.09465 17.8216C7.13756 17.7667 7.15295 17.7051 7.14084 17.6369C7.07743 17.6296 7.01581 17.6373 6.95609 17.66C6.82532 17.7524 6.70218 17.8524 6.58657 17.9602C6.27178 17.8414 5.97925 17.6874 5.70897 17.4983C5.96639 17.3535 6.24353 17.2688 6.54038 17.2443C6.57902 17.1976 6.59442 17.1437 6.58657 17.0826C6.19057 17.0735 5.82876 17.1812 5.50112 17.4059C5.4827 17.3954 5.47501 17.38 5.47803 17.3597C5.72843 17.0589 5.94398 16.7356 6.12468 16.3898C6.15547 16.3898 6.17087 16.3744 6.17087 16.3436C6.2217 16.2813 6.26789 16.212 6.30944 16.1357C6.29404 16.1203 6.27864 16.1049 6.26325 16.0895C6.06802 16.0684 5.88326 16.0915 5.70897 16.1588C5.48403 16.1745 5.26078 16.2053 5.03923 16.2512C4.93506 16.2461 4.85808 16.1999 4.80828 16.1126C4.70005 15.9424 4.63077 15.7576 4.60043 15.5583C4.70272 15.2517 4.7951 14.9437 4.87756 14.6346C5.30779 14.6279 5.72349 14.551 6.12468 14.4036C6.17613 14.3471 6.18382 14.2856 6.14777 14.2189C5.79506 13.9124 5.45634 13.5891 5.13161 13.2489C5.10857 13.0648 5.10087 12.88 5.10851 12.6946C5.19327 11.7866 5.5089 10.9705 6.05539 10.2466C6.09073 10.1742 6.08303 10.1127 6.0323 10.0618C6.12468 9.89244 6.21706 9.72311 6.30944 9.55373C6.42083 9.54477 6.46702 9.4832 6.448 9.36897C6.29527 9.38916 6.15671 9.35835 6.0323 9.2766C6.1208 9.19267 6.22858 9.13877 6.35562 9.11493C6.53984 9.10191 6.71687 9.06343 6.8868 8.99946C6.90135 8.93442 6.88597 8.87285 6.84061 8.8147C6.75595 8.7608 6.67125 8.70694 6.58657 8.65304C6.83082 8.6656 7.07719 8.67332 7.3256 8.67613C6.99096 7.445 6.4521 6.31336 5.70897 5.28121C5.3935 5.02033 5.16255 5.07422 5.01613 5.44288C5.0181 5.4852 5.0335 5.516 5.06232 5.53526C4.58514 7.30145 4.56975 9.07207 5.01613 10.847C4.93312 10.9038 4.84074 10.9346 4.739 10.9394C4.34388 9.74001 4.21301 8.50833 4.34639 7.24426C4.43271 6.47946 4.61746 5.74044 4.90066 5.02717C4.98349 4.89806 5.08356 4.78259 5.20089 4.68075C5.34179 4.64118 5.46496 4.67198 5.57041 4.77313C6.64872 5.57405 7.64181 6.47475 8.54962 7.47521C8.628 7.57678 8.69729 7.68454 8.75747 7.79854C8.69498 7.84583 8.66417 7.9074 8.66509 7.98329Z" fill="#FDFEFE"/>
<path d="M6.30942 9.5537C6.09583 9.5622 5.92647 9.48525 5.80133 9.32276C5.79632 9.22973 5.82712 9.15278 5.89371 9.09181C6.10772 8.97278 6.33867 8.9035 6.58655 8.88396C6.47491 8.80885 6.35943 8.73957 6.24013 8.67611C6.20686 8.60165 6.21456 8.53236 6.26323 8.46825C6.54131 8.45301 6.81847 8.45301 7.09464 8.46825C6.77131 7.56751 6.37869 6.69763 5.91681 5.85855C5.79147 5.69266 5.6606 5.531 5.5242 5.37357C5.35938 5.26167 5.25161 5.30016 5.20087 5.48904C5.16812 5.53079 5.12193 5.54619 5.0623 5.53523C5.03349 5.51597 5.01809 5.48518 5.01611 5.44285C5.16253 5.07419 5.39348 5.0203 5.70895 5.28119C6.45208 6.31333 6.99094 7.44497 7.32558 8.67611C7.07718 8.67329 6.8308 8.66557 6.58655 8.65301C6.67123 8.70691 6.75593 8.76077 6.84059 8.81467C6.88595 8.87283 6.90133 8.9344 6.88678 8.99943C6.71685 9.0634 6.53982 9.10188 6.35561 9.1149C6.22856 9.13874 6.12078 9.19264 6.03228 9.27657C6.15669 9.35832 6.29525 9.38913 6.44798 9.36895C6.467 9.48317 6.42082 9.54474 6.30942 9.5537Z" fill="#0E2A26"/>
<path d="M5.89377 9.09185C5.98724 8.66298 6.07192 8.23189 6.14781 7.79854C6.24371 7.20884 6.12054 6.66995 5.77829 6.18192C5.6095 5.92869 5.41704 5.69774 5.20093 5.48908C5.25166 5.30019 5.35944 5.2617 5.52425 5.3736C5.66066 5.53103 5.79153 5.6927 5.91686 5.85859C6.37875 6.69767 6.77137 7.56755 7.09469 8.46829C6.81853 8.45305 6.54137 8.45305 6.26328 8.46829C6.21462 8.5324 6.20692 8.60168 6.24019 8.67614C6.35949 8.73961 6.47496 8.80889 6.58661 8.88399C6.33872 8.90353 6.10778 8.97282 5.89377 9.09185Z" fill="#D6789C"/>
<path d="M5.20089 5.48914C5.417 5.6978 5.60946 5.92875 5.77826 6.18198C6.1205 6.67001 6.24367 7.2089 6.14777 7.7986C6.07188 8.23195 5.9872 8.66304 5.89373 9.09191C5.82713 9.15288 5.79634 9.22983 5.80135 9.32285C5.6402 9.87602 5.39386 10.3841 5.06232 10.8471C5.04693 10.8471 5.03153 10.8471 5.01613 10.8471C4.56975 9.07214 4.58514 7.30151 5.06232 5.53533C5.12195 5.54629 5.16814 5.53089 5.20089 5.48914Z" fill="#F7B0CB"/>
<path d="M17.2101 4.05717C17.1107 3.9424 16.9876 3.86542 16.8406 3.82623C16.8444 3.74532 16.8059 3.69913 16.7251 3.68766C16.343 3.90037 16.0351 4.1929 15.8014 4.56526C15.3549 5.42739 15.0085 6.32807 14.7621 7.26734C14.7673 7.32646 14.7981 7.36493 14.8545 7.38281C15.2068 7.21777 15.5763 7.1254 15.963 7.10567C15.8878 7.37874 15.7415 7.60969 15.5242 7.79851C15.4934 7.82932 15.4934 7.86008 15.5242 7.89089C15.9109 7.84835 16.3035 7.84835 16.7021 7.89089C16.5342 8.26281 16.6573 8.47833 17.0716 8.53754C17.2732 8.70794 17.4887 8.86189 17.7182 8.99944C17.778 9.04507 17.8396 9.09126 17.903 9.138C18.0867 9.42285 18.2638 9.71542 18.4342 10.0156C18.5636 10.3193 18.6791 10.6272 18.7806 10.9394C18.7806 10.9548 18.7806 10.9702 18.7806 10.9856C18.5225 11.367 18.2146 11.7057 17.8568 12.0017C17.8414 12.0017 17.826 12.0017 17.8106 12.0017C17.1867 9.25606 15.4623 7.87038 12.6374 7.8447C12.6374 7.82932 12.6374 7.81389 12.6374 7.79851C12.6937 7.6696 12.7553 7.53874 12.8221 7.4059C13.0003 7.39773 13.1696 7.37463 13.3302 7.33662C13.3502 7.28073 13.381 7.23454 13.4226 7.19805C13.7309 7.20572 14.0389 7.19805 14.3464 7.17496C15.0485 5.9611 15.4484 4.42738 16.5173 3.47981C16.5741 3.44373 16.6356 3.42063 16.7021 3.41052C16.981 3.53619 17.1504 3.75174 17.2101 4.05717Z" fill="#88D4EE"/>
<path d="M8.66512 7.98335C8.75524 8.03606 8.84762 8.03606 8.94226 7.98335C8.98738 8.11208 9.00277 8.25065 8.98845 8.39906C8.59829 8.52871 8.23648 8.71347 7.903 8.95333C7.52281 7.90146 7.10711 6.86991 6.65588 5.85864C7.37113 6.53509 8.04087 7.24331 8.66512 7.98335Z" fill="#89D5EF"/>
<path d="M13.3302 7.33664C13.1696 7.37465 13.0002 7.39775 12.8221 7.40592C12.7552 7.53876 12.6937 7.66962 12.6374 7.79853C12.4218 7.79853 12.2063 7.79853 11.9907 7.79853C11.9907 7.65996 11.9907 7.5214 11.9907 7.38283C12.4357 7.34163 12.8822 7.32625 13.3302 7.33664Z" fill="#375766"/>
<path d="M11.806 7.429C11.8522 7.429 11.8984 7.429 11.9446 7.429C11.9446 7.56757 11.9446 7.70614 11.9446 7.84471C11.7444 7.84471 11.5443 7.84471 11.3441 7.84471C11.3441 7.72152 11.3441 7.59838 11.3441 7.47519C11.4949 7.43713 11.6489 7.42171 11.806 7.429Z" fill="#87D0EA"/>
<path d="M11.3441 7.47522C11.3441 7.59841 11.3441 7.72155 11.3441 7.84473C11.3441 7.87554 11.3287 7.89092 11.2979 7.89092C10.9238 7.90109 10.5543 7.94728 10.1894 8.02949C10.2033 7.91129 10.1879 7.80349 10.1432 7.70617C10.5356 7.6185 10.9359 7.5415 11.3441 7.47522Z" fill="#3A5868"/>
<path d="M10.1432 7.70618C10.1879 7.8035 10.2033 7.9113 10.1894 8.0295C10.1894 8.04488 10.1894 8.06031 10.1894 8.07569C10.0322 8.0919 9.87819 8.12271 9.72748 8.16807C9.72748 8.04488 9.72748 7.92174 9.72748 7.79856C9.86004 7.74618 9.99861 7.71541 10.1432 7.70618Z" fill="#85D0EA"/>
<path d="M9.72748 7.79858C9.72748 7.92177 9.72748 8.04491 9.72748 8.1681C9.49312 8.23595 9.26217 8.31295 9.03464 8.39905C9.01926 8.39905 9.00383 8.39905 8.98845 8.39905C9.00277 8.25064 8.98739 8.11207 8.94226 7.98334C9.19621 7.91082 9.45797 7.84925 9.72748 7.79858Z" fill="#3B5A6A"/>
<path d="M11.806 7.42899C11.8554 7.38584 11.9169 7.37042 11.9908 7.3828C11.9908 7.52136 11.9908 7.65993 11.9908 7.7985C12.2064 7.7985 12.4219 7.7985 12.6374 7.7985C12.6374 7.81388 12.6374 7.82931 12.6374 7.84469C12.4797 8.31785 12.295 8.77975 12.0832 9.23037C12.0084 9.03942 11.97 8.83924 11.9677 8.62991C11.9446 8.36862 11.9369 8.10686 11.9446 7.84469C11.9446 7.70612 11.9446 7.56755 11.9446 7.42899C11.8984 7.42899 11.8522 7.42899 11.806 7.42899Z" fill="#A2AAAF"/>
<path d="M11.2979 7.89087C11.1256 8.79613 10.964 9.70449 10.8129 10.616C10.7955 10.732 10.757 10.8397 10.6974 10.9394C10.6207 10.794 10.5668 10.6401 10.5358 10.4775C10.3548 9.68468 10.2394 8.88408 10.1893 8.07563C10.1893 8.06025 10.1893 8.04482 10.1893 8.02944C10.5542 7.94722 10.9237 7.90103 11.2979 7.89087Z" fill="#A4ABAF"/>
<path d="M9.72751 8.16809C9.7234 8.66158 9.7003 9.15423 9.65822 9.64615C9.64483 9.71747 9.61407 9.77904 9.56585 9.83091C9.29347 9.39119 9.11642 8.91391 9.03467 8.39904C9.2622 8.31294 9.49314 8.23594 9.72751 8.16809Z" fill="#A6ADB1"/>
<path d="M5.80141 9.32275C5.92654 9.48525 6.09591 9.5622 6.30949 9.5537C6.21711 9.72308 6.12473 9.89241 6.03235 10.0618C5.94593 10.0784 5.87665 10.1246 5.8245 10.2004C5.59117 10.5749 5.38332 10.9598 5.20095 11.3551C5.14537 11.1883 5.09918 11.019 5.06238 10.847C5.39392 10.384 5.64026 9.87592 5.80141 9.32275Z" fill="#D87A9E"/>
<path d="M18.9653 10.6622C19.2414 11.198 19.4262 11.7677 19.5196 12.3712C19.4272 12.402 19.3349 12.4328 19.2425 12.4636C19.2271 12.4636 19.2117 12.4636 19.1963 12.4636C19.0853 11.9574 18.9467 11.4647 18.7806 10.9856C18.7806 10.9702 18.7806 10.9547 18.7806 10.9394C18.8878 10.8792 18.9494 10.7869 18.9653 10.6622Z" fill="#9EA6AA"/>
<path d="M5.01615 10.847C5.03154 10.847 5.04694 10.847 5.06234 10.847C5.09914 11.019 5.14533 11.1884 5.20091 11.3551C5.1825 11.5028 5.13631 11.6413 5.06234 11.7708C4.91815 11.5076 4.81038 11.2305 4.73901 10.9394C4.84076 10.9346 4.93314 10.9039 5.01615 10.847Z" fill="#87CEE8"/>
<path d="M18.7806 10.9856C18.9467 11.4648 19.0853 11.9575 19.1963 12.4637C18.8075 12.5838 18.4072 12.6762 17.9954 12.7408C17.9591 12.4925 17.9129 12.2461 17.8568 12.0018C18.2146 11.7057 18.5225 11.367 18.7806 10.9856Z" fill="#3B596A"/>
<path d="M17.8106 12.0018C17.826 12.0018 17.8414 12.0018 17.8568 12.0018C17.9129 12.2462 17.9591 12.4925 17.9954 12.7409C17.5985 12.8104 17.1982 12.8412 16.7945 12.8332C16.7866 12.7722 16.802 12.7183 16.8407 12.6716C17.2104 12.5087 17.5337 12.2854 17.8106 12.0018Z" fill="#A4ABAF"/>
<path d="M19.5196 12.3713C19.6703 12.7453 19.8397 13.1148 20.0277 13.4799C20.0317 13.5259 20.0163 13.5644 19.9815 13.5954C19.8826 13.6218 19.7903 13.6603 19.7044 13.7108C19.689 13.7108 19.6736 13.7108 19.6582 13.7108C19.4551 13.3172 19.3165 12.9015 19.2425 12.4637C19.3349 12.4329 19.4273 12.4021 19.5196 12.3713Z" fill="#F8F9F9"/>
<path d="M14.8545 12.4175C15.3304 12.393 15.6768 12.5931 15.8937 13.018C16.1908 13.6183 16.1677 14.2034 15.8245 14.7732C15.5303 15.0305 15.207 15.069 14.8545 14.8887C14.2937 14.3604 14.1166 13.7214 14.3233 12.9718C14.4476 12.7321 14.6246 12.5474 14.8545 12.4175Z" fill="#042520"/>
<path d="M19.1963 12.4636C19.2117 12.4636 19.2271 12.4636 19.2425 12.4636C19.3165 12.9014 19.4551 13.3171 19.6582 13.7107C19.1191 13.8879 18.5648 13.9956 17.9954 14.0341C18.0555 13.6027 18.0555 13.1715 17.9954 12.7408C18.4071 12.6762 18.8075 12.5838 19.1963 12.4636Z" fill="#88D4EE"/>
<path d="M15.0393 12.8332C15.4545 12.7636 15.6316 12.933 15.5704 13.3413C15.3242 13.6559 15.0933 13.6405 14.8776 13.2951C14.8468 13.2027 14.8468 13.1103 14.8776 13.018C14.9412 12.9623 14.995 12.9007 15.0393 12.8332Z" fill="#F6F7F7"/>
<path d="M5.10851 12.6946C5.10087 12.88 5.10857 13.0647 5.13161 13.2489C5.45633 13.589 5.79506 13.9124 6.14777 14.2188C6.18382 14.2855 6.17613 14.3471 6.12468 14.4036C5.72349 14.5509 5.30779 14.6279 4.87756 14.6345C4.9855 13.985 5.06249 13.3384 5.10851 12.6946Z" fill="#A2AAAD"/>
<path d="M7.60275 13.526C8.17061 13.5157 8.51703 13.7929 8.64201 14.3574C8.79074 14.9094 8.67527 15.3944 8.29559 15.8124C7.91033 16.0095 7.59472 15.9248 7.34871 15.5584C7.09107 15.0747 7.0295 14.5666 7.16395 14.0341C7.247 13.804 7.39329 13.6346 7.60275 13.526Z" fill="#052621"/>
<path d="M20.0277 13.4799C20.137 13.5933 20.1832 13.7319 20.1662 13.8956C20.087 13.9015 20.01 13.9169 19.9353 13.9418C19.8132 13.912 19.7362 13.835 19.7043 13.7108C19.7902 13.6603 19.8826 13.6218 19.9815 13.5953C20.0162 13.5643 20.0316 13.5259 20.0277 13.4799Z" fill="#A3AAAE"/>
<path d="M19.6582 13.7108C19.6736 13.7108 19.689 13.7108 19.7044 13.7108C19.7362 13.835 19.8132 13.912 19.9353 13.9418C19.4274 14.0343 18.9502 14.2191 18.5035 14.496C18.4606 14.551 18.4452 14.6125 18.4573 14.6808C18.8977 14.4609 19.3596 14.2916 19.843 14.1727C19.7524 14.4771 19.6138 14.7542 19.4273 15.0041C19.4119 15.0041 19.3964 15.0041 19.3811 15.0041C18.8617 14.963 18.3536 14.8706 17.8568 14.727C17.9176 14.5147 17.9637 14.2992 17.9954 14.0803C17.9954 14.0649 17.9954 14.0495 17.9954 14.0341C18.5648 13.9957 19.1191 13.888 19.6582 13.7108Z" fill="#3B5A6A"/>
<path d="M7.87991 13.8955C8.24157 13.8491 8.38781 14.003 8.31871 14.3574C8.09492 14.6151 7.89478 14.5997 7.71825 14.3112C7.67404 14.1329 7.72795 13.9943 7.87991 13.8955Z" fill="#F5F6F6"/>
<path d="M17.9954 14.0803C17.9637 14.2992 17.9176 14.5147 17.8568 14.7269C17.5229 14.6627 17.1995 14.5626 16.8868 14.4267C16.7102 14.3236 16.7102 14.2312 16.8868 14.1496C17.2539 14.0907 17.6234 14.0676 17.9954 14.0803Z" fill="#A7ADB1"/>
<path d="M19.9353 15.0503C19.7645 15.0479 19.5951 15.0324 19.4272 15.0041C19.6138 14.7541 19.7524 14.477 19.843 14.1727C19.9399 14.1389 20.0323 14.1389 20.1201 14.1727C19.9962 14.3899 19.873 14.6055 19.7506 14.8193C19.8117 14.8962 19.8733 14.9732 19.9353 15.0503Z" fill="#9AA3A7"/>
<path d="M17.8568 14.7269C18.3536 14.8706 18.8617 14.963 19.381 15.0041C19.381 15.0811 19.381 15.158 19.381 15.235C19.1485 15.2893 18.9175 15.3509 18.6882 15.4198C18.6882 15.4813 18.6882 15.543 18.6882 15.6045C18.9037 15.5583 19.1193 15.5121 19.3348 15.466C19.3121 15.7339 19.2352 15.9802 19.1039 16.205C18.9031 16.1973 18.703 16.205 18.5034 16.2281C18.4438 16.2878 18.4438 16.3416 18.5034 16.3897C18.6478 16.435 18.8017 16.4504 18.9653 16.4359C18.9131 16.5198 18.8823 16.6121 18.8729 16.7131C18.4213 17.1713 17.8979 17.5331 17.3025 17.7985C16.1267 18.2647 14.9104 18.5726 13.6535 18.7223C13.6149 18.769 13.5995 18.8229 13.6073 18.884C14.3639 18.7345 14.4254 18.8422 13.7921 19.2073C13.2151 19.1537 12.63 19.146 12.0369 19.1842C11.3688 19.2625 10.7068 19.3318 10.0508 19.3921C9.93427 19.3148 9.81112 19.2455 9.68124 19.1842C10.0035 19.2025 10.3268 19.2025 10.6512 19.1842C10.7128 19.1226 10.7128 19.061 10.6512 18.9994C9.31838 18.9885 8.02507 18.7575 6.77131 18.3066C6.6115 18.2196 6.6269 18.1349 6.8175 18.0526C7.07311 18.1516 7.33487 18.2363 7.60272 18.3066C8.68711 18.5053 9.78027 18.5668 10.8822 18.4914C11.6095 18.4086 12.3332 18.3008 13.0531 18.168C14.0248 17.9593 14.9485 17.6206 15.8244 17.1519C16.8131 16.6022 17.4905 15.7939 17.8568 14.7269Z" fill="#88D4EE"/>
<path d="M11.4365 15.0964C11.3197 15.2668 11.1657 15.3977 10.9746 15.489C10.9997 15.5222 11.0305 15.5453 11.067 15.5583C11.3593 15.7885 11.6826 15.8423 12.037 15.72C12.1557 15.6245 12.248 15.509 12.3141 15.3736C12.369 15.3307 12.4306 15.3153 12.4989 15.3274C12.4 15.7644 12.1228 15.9799 11.6674 15.974C11.468 15.9818 11.2833 15.9356 11.1132 15.8355C11.0516 15.7823 10.9823 15.7361 10.9053 15.6969C10.7986 15.8422 10.6831 15.9807 10.5589 16.1126C10.1355 16.3455 9.77368 16.2685 9.47345 15.8817C9.45955 15.762 9.51345 15.7235 9.63511 15.7662C10.0996 16.1622 10.4692 16.0852 10.7437 15.5352C10.469 15.5368 10.2688 15.4213 10.1432 15.1888C10.1445 15.1182 10.1753 15.0643 10.2356 15.0272C10.622 14.8464 11.0147 14.8233 11.4134 14.9579C11.4357 15.0017 11.4434 15.0478 11.4365 15.0964Z" fill="#0A2A26"/>
<path d="M19.381 15.0042C19.3964 15.0042 19.4119 15.0042 19.4272 15.0042C19.5951 15.0325 19.7645 15.0479 19.9353 15.0503C19.9771 15.0831 19.9925 15.1293 19.9815 15.1889C19.7797 15.1874 19.5796 15.2028 19.381 15.2351C19.381 15.1581 19.381 15.0811 19.381 15.0042Z" fill="#E9EDED"/>
<path d="M11.4365 15.0964C11.4315 15.2019 11.393 15.2943 11.321 15.3736C11.228 15.4289 11.1432 15.4904 11.067 15.5583C11.0305 15.5453 10.9997 15.5222 10.9746 15.489C11.1657 15.3977 11.3197 15.2668 11.4365 15.0964Z" fill="#89CBE0"/>
<path d="M19.1039 16.205C19.2352 15.9802 19.3121 15.7339 19.3348 15.466C19.5231 15.3867 19.7232 15.3636 19.9353 15.3967C19.7902 15.7116 19.59 15.9887 19.3348 16.2281C19.2477 16.2642 19.1707 16.2564 19.1039 16.205Z" fill="#F1F4F4"/>
<path d="M11.1131 15.8355C11.0346 15.8281 10.9576 15.8357 10.8822 15.8586C10.7925 15.9719 10.6847 16.0566 10.5588 16.1126C10.683 15.9807 10.7985 15.8422 10.9053 15.6969C10.9822 15.7361 11.0515 15.7823 11.1131 15.8355Z" fill="#8BCDE3"/>
<path d="M6.17088 16.3435C6.17734 16.2685 6.14655 16.2147 6.0785 16.1819C5.95628 16.1589 5.83311 16.1512 5.70898 16.1588C5.88328 16.0914 6.06803 16.0683 6.26326 16.0895C6.27865 16.1049 6.29405 16.1203 6.30945 16.1357C6.2679 16.212 6.22171 16.2813 6.17088 16.3435Z" fill="#ABB2B5"/>
<path d="M6.12473 16.3897C5.94403 16.7355 5.72848 17.0589 5.47808 17.3597C5.20902 17.1067 5.11665 16.7987 5.20094 16.4359C5.50684 16.3953 5.81477 16.3799 6.12473 16.3897Z" fill="#A1A9AD"/>
<path d="M18.5034 16.3898C18.7212 16.3747 18.9367 16.3901 19.1501 16.436C19.1443 16.464 19.129 16.4794 19.1039 16.4821C19.0711 16.4404 19.0249 16.425 18.9653 16.436C18.8017 16.4504 18.6478 16.435 18.5034 16.3898Z" fill="#5E909B"/>
<path d="M18.9653 16.4359C19.0249 16.425 19.0711 16.4403 19.1039 16.4821C19.0423 16.5745 18.9653 16.6515 18.8729 16.713C18.8823 16.6121 18.9131 16.5197 18.9653 16.4359Z" fill="#D6DEDF"/>
<path d="M5.70896 17.4983C5.97923 17.6874 6.27176 17.8413 6.58655 17.9602C6.52479 18.1379 6.41702 18.1764 6.26323 18.0757C6.01415 17.9509 5.7986 17.7815 5.61658 17.5676C5.64171 17.5345 5.67251 17.5114 5.70896 17.4983Z" fill="#84CCE4"/>
<path opacity="0.987" d="M18.6882 18.9302C18.5909 19.033 18.4831 19.1254 18.3649 19.2073C18.3262 18.8985 18.2723 18.5906 18.2032 18.2835C18.1253 18.0575 17.979 17.8958 17.7644 17.7985C18.0055 17.628 18.2134 17.6666 18.388 17.914C18.5676 18.2296 18.6677 18.5683 18.6882 18.9302Z" fill="#324747"/>
<path d="M15.8245 18.9302C15.9945 18.9226 16.1639 18.9303 16.3326 18.9533C16.4557 19.0457 16.4557 19.1381 16.3326 19.2304C15.1634 19.8974 13.9317 20.4209 12.6374 20.8009C12.5265 20.8385 12.4187 20.8308 12.3141 20.7778C12.7866 20.2821 13.2947 19.8279 13.8383 19.4152C14.0775 19.3047 14.3239 19.2123 14.5774 19.1381C15.006 19.1077 15.4217 19.0384 15.8245 18.9302Z" fill="#344949"/>
<path opacity="0.977" d="M7.97227 20.5468C7.84567 20.5372 7.73791 20.491 7.64895 20.4082C7.59823 19.9991 7.66752 19.6141 7.8568 19.2535C8.03615 18.978 8.27482 18.8934 8.57274 18.9995C7.93759 19.3331 7.7374 19.8489 7.97227 20.5468Z" fill="#324847"/>
<path d="M13.7921 19.2073C13.0716 19.743 12.425 20.3589 11.8522 21.0549C11.3087 20.4343 10.7082 19.88 10.0508 19.3921C10.7068 19.3318 11.3688 19.2625 12.0369 19.1842C12.63 19.146 13.2151 19.1538 13.7921 19.2073Z" fill="#FBFCFC"/>
<path d="M8.66515 19.392C8.88127 19.3844 9.09679 19.3921 9.3118 19.4151C10.2112 19.711 10.9503 20.2345 11.5289 20.9856C10.5714 20.7922 9.66298 20.4535 8.80372 19.9694C8.64917 19.8765 8.52603 19.7533 8.4342 19.5999C8.49245 19.5093 8.56945 19.44 8.66515 19.392Z" fill="#334949"/>
<path opacity="0.97" d="M16.8407 20.2235C15.6434 20.8843 14.3656 21.2847 13.007 21.4244C12.8068 21.4244 12.6066 21.4244 12.4065 21.4244C13.8135 20.78 15.2916 20.3797 16.8407 20.2235Z" fill="#344848"/>
</g>
<defs>
<clipPath id="clip0_5375_1651">
<rect width="24" height="24" fill="white"/>
</clipPath>
</defs>
</svg>
