<svg width="24" height="24" viewBox="0 0 24 24" fill="none" xmlns="http://www.w3.org/2000/svg">
<g clip-path="url(#clip0_4669_1857)">
<path d="M12 24C18.6274 24 24 18.6274 24 12C24 5.37258 18.6274 0 12 0C5.37258 0 0 5.37258 0 12C0 18.6274 5.37258 24 12 24Z" fill="#181818"/>
<path d="M17.6232 12.3242H16.2169C15.8289 12.3242 15.5143 12.6388 15.5143 13.0268V14.4342C15.5143 14.8222 15.8289 15.1367 16.2169 15.1367H17.6232C18.0112 15.1367 18.3258 14.8222 18.3258 14.4342V13.0268C18.3258 12.6388 18.0112 12.3242 17.6232 12.3242Z" fill="#F7D509"/>
<path d="M7.78314 12.3242H6.37682C5.9888 12.3242 5.67426 12.6388 5.67426 13.0268V14.4342C5.67426 14.8222 5.9888 15.1367 6.37682 15.1367H7.78314C8.17116 15.1367 8.4857 14.8222 8.4857 14.4342V13.0268C8.4857 12.6388 8.17116 12.3242 7.78314 12.3242Z" fill="#F7D509"/>
<path d="M6.37712 15.6055H8.4857V17.7148C8.4857 18.1032 8.17102 18.418 7.78284 18.418H6.37712C5.98894 18.418 5.67426 18.1032 5.67426 17.7148V16.3086C5.67426 15.9203 5.98894 15.6055 6.37712 15.6055Z" fill="#F7D509"/>
<path d="M5.67426 9.04297H7.78284C8.17102 9.04297 8.4857 9.35777 8.4857 9.74609V11.8555H6.37712C5.98894 11.8555 5.67426 11.5407 5.67426 11.1523V9.04297Z" fill="#BA00FF"/>
<path d="M11.0632 15.6055H9.65685C9.26883 15.6055 8.95428 15.92 8.95428 16.308V17.7154C8.95428 18.1034 9.26883 18.418 9.65685 18.418H11.0632C11.4512 18.418 11.7657 18.1034 11.7657 17.7154V16.308C11.7657 15.92 11.4512 15.6055 11.0632 15.6055Z" fill="#F7D509"/>
<path d="M11.0632 9.04297H9.65685C9.26883 9.04297 8.95428 9.35752 8.95428 9.74553V11.1529C8.95428 11.5409 9.26883 11.8555 9.65685 11.8555H11.0632C11.4512 11.8555 11.7657 11.5409 11.7657 11.1529V9.74553C11.7657 9.35752 11.4512 9.04297 11.0632 9.04297Z" fill="#BA00FF"/>
<path d="M14.3432 15.6055H12.9369C12.5489 15.6055 12.2343 15.92 12.2343 16.308V17.7154C12.2343 18.1034 12.5489 18.418 12.9369 18.418H14.3432C14.7312 18.418 15.0458 18.1034 15.0458 17.7154V16.308C15.0458 15.92 14.7312 15.6055 14.3432 15.6055Z" fill="#F7D509"/>
<path d="M14.3432 9.04297H12.9369C12.5489 9.04297 12.2343 9.35752 12.2343 9.74553V11.1529C12.2343 11.5409 12.5489 11.8555 12.9369 11.8555H14.3432C14.7312 11.8555 15.0458 11.5409 15.0458 11.1529V9.74553C15.0458 9.35752 14.7312 9.04297 14.3432 9.04297Z" fill="#BA00FF"/>
<path d="M15.5143 15.6055H17.6229C18.0111 15.6055 18.3258 15.9203 18.3258 16.3086V17.7148C18.3258 18.1032 18.0111 18.418 17.6229 18.418H16.2172C15.829 18.418 15.5143 18.1032 15.5143 17.7148V15.6055Z" fill="#F7D509"/>
<path d="M16.2172 9.04297H18.3258V11.1523C18.3258 11.5407 18.0111 11.8555 17.6229 11.8555H15.5143V9.74609C15.5143 9.35777 15.829 9.04297 16.2172 9.04297Z" fill="#BA00FF"/>
<path d="M15.1275 7.0757L13.6365 8.56726L12.1455 7.0757C11.8711 6.80112 11.8711 6.35592 12.1455 6.08134L13.1395 5.08697C13.414 4.81238 13.8591 4.81238 14.1335 5.08697L15.1275 6.08134C15.402 6.35592 15.402 6.80112 15.1275 7.0757Z" fill="#BA00FF"/>
<path d="M10.8536 5.08704L11.7623 5.99611L11.677 6.08141C11.4053 6.35325 11.4026 6.79231 11.6689 7.06749L11.677 7.07578L11.7623 7.16108L10.3566 8.56734L8.86556 7.07578C8.59108 6.80119 8.59108 6.356 8.86556 6.08141L9.85956 5.08704C10.134 4.81246 10.5791 4.81246 10.8536 5.08704Z" fill="#F7D509"/>
</g>
<defs>
<clipPath id="clip0_4669_1857">
<rect width="24" height="24" fill="white"/>
</clipPath>
</defs>
</svg>
