<svg width="24" height="24" viewBox="0 0 24 24" fill="none" xmlns="http://www.w3.org/2000/svg">
<g clip-path="url(#clip0_3939_1163)">
<path d="M24 12C24 5.37258 18.6274 0 12 0C5.37258 0 0 5.37258 0 12C0 18.6274 5.37258 24 12 24C18.6274 24 24 18.6274 24 12Z" fill="black"/>
<path d="M13.8208 10.5595C13.8209 10.7594 13.7816 10.9575 13.7051 11.1422C13.6286 11.327 13.5165 11.4949 13.3752 11.6363C13.2339 11.7778 13.066 11.89 12.8813 11.9666C12.6966 12.0432 12.4986 12.0826 12.2987 12.0827V13.6059C12.6986 13.6057 13.0946 13.5268 13.464 13.3737C13.8334 13.2205 14.169 12.9961 14.4517 12.7132C14.7344 12.4303 14.9586 12.0945 15.1115 11.725C15.2644 11.3554 15.3431 10.9594 15.3429 10.5595C15.3431 10.025 15.2027 9.49981 14.9356 9.03679C14.6686 8.57377 14.2844 8.18919 13.8216 7.9217C13.3588 7.65421 12.8338 7.51324 12.2993 7.51294C11.7648 7.51264 11.2396 7.65304 10.7765 7.92001C10.3134 8.18742 9.92883 8.57212 9.66162 9.03538C9.39441 9.49865 9.25395 10.0241 9.2544 10.5589V18.1749L10.6229 19.5456L10.7765 19.6987V10.56C10.7711 10.3567 10.8065 10.1544 10.8806 9.96506C10.9547 9.77568 11.0659 9.60305 11.2078 9.45737C11.3497 9.31169 11.5193 9.1959 11.7067 9.11684C11.894 9.03778 12.0953 8.99705 12.2987 8.99705C12.502 8.99705 12.7033 9.03778 12.8907 9.11684C13.078 9.1959 13.2476 9.31169 13.3895 9.45737C13.5314 9.60305 13.6426 9.77568 13.7167 9.96506C13.7908 10.1544 13.8262 10.3567 13.8208 10.56V10.5595Z" fill="#E6DAFE"/>
<path d="M12.2992 4.4624C11.1899 4.4624 10.1504 4.75947 9.25494 5.2784C8.68323 5.6091 8.16914 6.03061 7.7328 6.5264C6.75013 7.63841 6.20867 9.07176 6.21067 10.5557V15.1264L7.7328 16.6491V10.5557C7.73207 9.91273 7.8673 9.27684 8.12963 8.68978C8.39195 8.10272 8.77544 7.57775 9.25494 7.14934C10.0916 6.39944 11.1757 5.985 12.2992 5.9856C14.8213 5.9856 16.8661 8.032 16.8661 10.5563C16.8661 13.0795 14.8213 15.1259 12.2992 15.1259V16.6491C15.6624 16.6491 18.3883 13.9211 18.3883 10.5557C18.3883 7.1904 15.6624 4.4624 12.2992 4.4624Z" fill="#E6DAFE"/>
</g>
<defs>
<clipPath id="clip0_3939_1163">
<rect width="24" height="24" fill="white"/>
</clipPath>
</defs>
</svg>
