<svg width="24" height="24" viewBox="0 0 24 24" fill="none" xmlns="http://www.w3.org/2000/svg">
<g clip-path="url(#clip0_3856_8542)">
<path d="M24 12C24 5.37258 18.6274 0 12 0C5.37258 0 0 5.37258 0 12C0 18.6274 5.37258 24 12 24C18.6274 24 24 18.6274 24 12Z" fill="#FEA101"/>
<path fill-rule="evenodd" clip-rule="evenodd" d="M19.7812 12C19.7812 8.42741 16.8827 5.53125 13.3073 5.53125C13.1404 5.53125 12.975 5.53755 12.8113 5.54994L3 5.99331L9.67637 6.64359L9.67254 6.64618L12.0587 6.825L9.37463 6.86107C8.57854 7.47022 7.9281 8.2599 7.48459 9.16888L5.08093 9.4587L7.24221 9.73237C6.97781 10.438 6.83325 11.2021 6.83325 12C6.83325 12.7979 6.97781 13.562 7.24221 14.2676L5.08093 14.5413L7.48459 14.8311C7.92797 15.7398 8.57814 16.5293 9.37393 17.1384L12.0587 17.175L9.67252 17.3538L9.67637 17.3564L3 18.0067L12.8113 18.4501C12.975 18.4625 13.1404 18.4688 13.3073 18.4688C16.8827 18.4688 19.7812 15.5726 19.7812 12ZM10.8795 12C10.8795 13.3397 11.9664 14.4258 13.3073 14.4258C14.6481 14.4258 15.735 13.3397 15.735 12C15.735 10.6603 14.6481 9.57422 13.3073 9.57422C11.9664 9.57422 10.8795 10.6603 10.8795 12Z" fill="white"/>
</g>
<defs>
<clipPath id="clip0_3856_8542">
<rect width="24" height="24" fill="white"/>
</clipPath>
</defs>
</svg>
