<svg width="24" height="24" viewBox="0 0 24 24" fill="none" xmlns="http://www.w3.org/2000/svg">
<g clip-path="url(#clip0_4185_1196)">
<path d="M12 24C18.6274 24 24 18.6274 24 12C24 5.37258 18.6274 0 12 0C5.37258 0 0 5.37258 0 12C0 18.6274 5.37258 24 12 24Z" fill="#CF1011"/>
<path fill-rule="evenodd" clip-rule="evenodd" d="M5.79538 6.71976C5.79538 5.61531 6.69072 4.71997 7.79517 4.71997C8.89962 4.71997 9.79496 5.61531 9.79496 6.71976C9.79496 7.82421 8.89962 8.71954 7.79517 8.71954C7.40859 8.71954 7.04763 8.60985 6.74172 8.4199C5.99363 9.44934 5.56141 10.68 5.50607 11.9603C5.44188 13.4452 5.88853 14.9072 6.77156 16.1028C7.65459 17.2983 8.92068 18.1551 10.3588 18.5304C11.7969 18.9056 13.3202 18.7767 14.6748 18.1651C16.0295 17.5535 17.1335 16.4961 17.8031 15.1691C18.4726 13.8422 18.6672 12.3259 18.3544 10.8729C18.0416 9.41991 17.2403 8.11801 16.084 7.18417C14.9277 6.25033 13.4863 5.74097 12 5.74097V4.74097C13.7149 4.74097 15.3781 5.32869 16.7123 6.4062C18.0464 7.4837 18.9711 8.9859 19.332 10.6624C19.693 12.339 19.4684 14.0886 18.6959 15.6196C17.9233 17.1507 16.6494 18.3708 15.0864 19.0765C13.5234 19.7822 11.7657 19.931 10.1063 19.498C8.44694 19.065 6.98607 18.0763 5.96719 16.6969C4.9483 15.3174 4.43294 13.6304 4.507 11.9171C4.57352 10.378 5.11204 8.90121 6.04293 7.68428C5.88516 7.39827 5.79538 7.0695 5.79538 6.71976ZM7.79517 5.71997C7.243 5.71997 6.79538 6.16759 6.79538 6.71976C6.79538 7.27192 7.243 7.71954 7.79517 7.71954C8.34734 7.71954 8.79496 7.27192 8.79496 6.71976C8.79496 6.16759 8.34734 5.71997 7.79517 5.71997ZM12 15.2409C13.6569 15.2409 15 13.8978 15 12.2409C15 10.5841 13.6569 9.24094 12 9.24094C10.3431 9.24094 9 10.5841 9 12.2409C9 13.8978 10.3431 15.2409 12 15.2409Z" fill="white"/>
</g>
<defs>
<clipPath id="clip0_4185_1196">
<rect width="24" height="24" fill="white"/>
</clipPath>
</defs>
</svg>
