<svg width="24" height="24" viewBox="0 0 24 24" fill="none" xmlns="http://www.w3.org/2000/svg">
<circle cx="12" cy="12" r="12" fill="#141416"/>
<path fill-rule="evenodd" clip-rule="evenodd" d="M9.23187 2.9232C13.2906 6.9624 18.3982 9.6336 24.0003 10.6464C23.325 4.6584 18.2222 0 12.0221 0C10.3846 0 8.82439 0.3264 7.39909 0.9144C7.97787 1.6104 8.59527 2.2872 9.23187 2.9232ZM2.49886 19.356C1.08328 17.5464 0.181348 15.3216 0.000488281 12.8952H14.9714C12.4947 13.5696 10.1965 14.424 8.19492 15.42C5.91121 16.5552 4.01813 17.8584 2.56397 19.2912L2.49886 19.356ZM14.4465 14.9124L14.4505 14.9112L14.4529 14.9088L14.4465 14.9124ZM14.4465 14.9124C9.91217 16.2732 6.16132 18.2575 3.81318 20.5824L3.70947 20.6856C4.33406 21.276 5.01894 21.804 5.7593 22.2528L5.91846 22.0584C6.55992 21.276 7.24721 20.52 7.96341 19.8072C9.8837 17.8961 12.0808 16.2414 14.4465 14.9124ZM14.4505 9.09118C9.91439 7.72798 6.16201 5.74559 3.81318 3.41759L3.70947 3.31439C4.33165 2.72399 5.01654 2.19599 5.75688 1.74719L5.91604 1.94159C6.55992 2.72639 7.24722 3.48239 7.96101 4.19279C9.88304 6.10559 12.0824 7.75918 14.4505 9.09118ZM9.23187 21.0767C8.59287 21.7127 7.97547 22.3895 7.39909 23.0855C8.82199 23.6735 10.3846 23.9999 12.0221 23.9999C18.2222 23.9999 23.325 19.3415 24.0027 13.3511C18.4006 14.3639 13.293 17.0351 9.23427 21.0743L9.23187 21.0767ZM2.56397 4.70872C4.01813 6.14152 5.91121 7.44472 8.19492 8.57992L8.19252 8.57752C10.1965 9.57592 12.4923 10.4303 14.969 11.1047H0.000488281C0.181348 8.67832 1.08328 6.45352 2.49886 4.64392L2.56397 4.70872Z" fill="#F5F5F5"/>
</svg>
