<svg width="24" height="24" viewBox="0 0 24 24" fill="none" xmlns="http://www.w3.org/2000/svg">
<g clip-path="url(#clip0_4538_9818)">
<path d="M24.0002 12C24.0002 5.37258 18.6277 0 12.0002 0C5.37283 0 0.000244141 5.37258 0.000244141 12C0.000244141 18.6274 5.37283 24 12.0002 24C18.6277 24 24.0002 18.6274 24.0002 12Z" fill="black"/>
<path d="M11.9996 22C11.1425 21.9627 10.3754 21.6852 9.75341 21.0632C7.4815 18.7939 5.20059 16.5323 2.9441 14.2475C1.67965 12.9663 1.68736 11.026 2.95695 9.74223C5.19931 7.47418 7.45708 5.21897 9.72256 2.97405C11.0294 1.67875 12.9724 1.6749 14.2754 2.96505C16.5421 5.20998 18.7999 7.4639 21.0423 9.73195C22.3363 11.0401 22.326 12.9753 21.0294 14.2848C18.7845 16.5502 16.5216 18.8003 14.2651 21.0542C13.6431 21.6749 12.8799 21.9627 11.9996 22ZM12.0369 5.6199C10.9883 5.6199 9.93845 5.60191 8.89116 5.62375C6.95335 5.66359 5.62593 6.98715 5.60666 8.91853C5.5861 10.9733 5.58867 13.028 5.60666 15.0828C5.62336 17.0694 6.98934 18.4097 8.98754 18.4187C10.9999 18.4277 13.0109 18.4289 15.0233 18.4187C17.051 18.4084 18.3939 17.0604 18.4067 15.0198C18.4183 13.0075 18.4196 10.9964 18.4067 8.98407C18.3926 6.9743 17.0729 5.65459 15.0567 5.62375C14.0505 5.60833 13.0443 5.62118 12.0394 5.62118L12.0369 5.6199Z" fill="white"/>
<path d="M12.0376 5.61982C13.0438 5.61982 14.0499 5.60697 15.0548 5.62239C17.071 5.65323 18.3907 6.97423 18.4048 8.98271C18.419 10.995 18.4177 13.0061 18.4048 15.0184C18.392 17.059 17.0492 18.407 15.0214 18.4173C13.0091 18.4276 10.998 18.4263 8.98568 18.4173C6.98748 18.4083 5.62279 17.0693 5.6048 15.0814C5.58681 13.0267 5.58552 10.9719 5.6048 8.91717C5.62407 6.9858 6.9515 5.66223 8.8893 5.62239C9.93787 5.60055 10.9864 5.61854 12.035 5.61854L12.0376 5.61982ZM17.9268 12.0333C17.7122 11.6568 17.585 11.279 17.3344 11.022C15.9016 9.55069 14.4483 8.10119 12.9846 6.66197C12.3409 6.02974 11.6547 6.03745 11.0044 6.67739C9.54209 8.11789 8.09002 9.56996 6.6508 11.0336C6.01986 11.6761 6.02628 12.3687 6.66365 13.0164C8.10416 14.4787 9.55494 15.9321 11.0199 17.37C11.6585 17.9971 12.3601 17.9894 13.0039 17.3546C14.4663 15.9128 15.9196 14.4633 17.3537 12.9945C17.5914 12.7504 17.7161 12.3957 17.9268 12.0346V12.0333Z" fill="black"/>
<path d="M17.9266 12.0335C17.7159 12.3945 17.5912 12.7505 17.3535 12.9934C15.9194 14.4621 14.4661 15.9129 13.0037 17.3534C12.3599 17.9869 11.6583 17.9959 11.0197 17.3688C9.55475 15.9296 8.10397 14.4776 6.66347 13.0152C6.0261 12.3676 6.01967 11.6749 6.65062 11.0324C8.08983 9.56879 9.5419 8.11672 11.0043 6.67622C11.6532 6.03628 12.3407 6.02857 12.9845 6.6608C14.4481 8.10002 15.9014 9.5508 17.3342 11.0209C17.5848 11.2779 17.712 11.6569 17.9266 12.0322V12.0335Z" fill="white"/>
</g>
<defs>
<clipPath id="clip0_4538_9818">
<rect width="24" height="24" fill="white" transform="translate(0.000244141)"/>
</clipPath>
</defs>
</svg>
