<svg width="24" height="24" viewBox="0 0 24 24" fill="none" xmlns="http://www.w3.org/2000/svg">
<g clip-path="url(#clip0_4538_9817)">
<path d="M24 12C24 5.37258 18.6274 0 12 0C5.37258 0 0 5.37258 0 12C0 18.6274 5.37258 24 12 24C18.6274 24 24 18.6274 24 12Z" fill="black"/>
<path fill-rule="evenodd" clip-rule="evenodd" d="M14.2654 2.93836C13.0142 1.68721 10.9857 1.68721 9.73458 2.93836L2.93836 9.73458C1.68721 10.9857 1.68721 13.0142 2.93836 14.2654L9.73458 21.0616C10.9857 22.3128 13.0142 22.3128 14.2654 21.0616L21.0616 14.2654C22.3128 13.0142 22.3128 10.9857 21.0616 9.73458L14.2654 2.93836ZM18.4075 8.81054C18.4075 7.04113 16.9732 5.60677 15.2038 5.60677H8.79621C7.02683 5.60677 5.59245 7.04113 5.59245 8.81054V15.2181C5.59245 16.9875 7.02683 18.4219 8.79621 18.4219H15.2038C16.9732 18.4219 18.4075 16.9875 18.4075 15.2181V8.81054Z" fill="white"/>
<path d="M11.0939 6.577C11.5943 6.07655 12.4057 6.07655 12.9062 6.577L17.437 11.1078C17.9375 11.6083 17.9375 12.4197 17.437 12.9202L12.9062 17.451C12.4057 17.9514 11.5943 17.9514 11.0939 17.451L6.56302 12.9202C6.06257 12.4197 6.06257 11.6083 6.56302 11.1078L11.0939 6.577Z" fill="white"/>
</g>
<defs>
<clipPath id="clip0_4538_9817">
<rect width="24" height="24" fill="white"/>
</clipPath>
</defs>
</svg>
