<svg width="24" height="24" viewBox="0 0 24 24" fill="none" xmlns="http://www.w3.org/2000/svg">
<g clip-path="url(#clip0_46380_561752)">
<path fill-rule="evenodd" clip-rule="evenodd" d="M6.47931 16.7537C6.4873 16.7682 6.4913 16.7754 6.49692 16.7811L6.57478 16.8734C8.21467 18.5602 10.1611 19.4401 12.5553 19.1873C13.7961 19.0561 14.9494 18.6915 15.9859 17.9769C17.9421 16.6352 17.9275 14.2776 16.7304 12.7998C16.1659 12.0998 15.4214 11.6234 14.6331 11.2296C14.2122 11.0194 13.7865 10.8165 13.3604 10.6134C12.8112 10.3517 12.2607 10.0893 11.7183 9.81019C11.1052 9.49422 10.5261 9.11019 10.1952 8.46852C9.72804 7.56921 9.8205 6.54837 10.9008 5.99907C11.3436 5.77059 11.8253 5.6442 12.3217 5.63934C13.4993 5.63448 14.565 5.98448 15.4895 6.71365C15.7823 6.94503 16.0539 7.19987 16.3308 7.45972C16.4727 7.59292 16.6161 7.72746 16.7645 7.86088C16.7971 7.83237 16.8303 7.80345 16.8639 7.77414C16.8907 7.75083 16.9177 7.72728 16.945 7.7035C17.0884 7.57871 17.2391 7.44752 17.3922 7.31157C17.3193 7.23389 17.2705 7.18025 17.2219 7.12685C15.6793 5.37198 13.7718 4.51642 11.4117 4.80809C10.1563 4.96364 9.03218 5.43517 8.07355 6.27615C6.45312 7.68588 6.56018 9.93172 7.62586 11.2734C8.26333 12.0755 9.1295 12.5567 10.0395 12.9699C10.4137 13.1392 10.7906 13.3037 11.1674 13.4682C11.7212 13.71 12.2756 13.9521 12.8229 14.2095C13.4214 14.4915 13.9713 14.8706 14.2681 15.4831C14.7207 16.4213 14.6185 17.2672 13.6355 17.8262C13.0029 18.1859 12.3168 18.3609 11.5966 18.3366C10.1855 18.288 8.93972 17.7873 7.86917 16.8588C7.69446 16.7092 7.52555 16.5515 7.35514 16.3923C7.25987 16.3033 7.16394 16.2137 7.06626 16.1248C6.86168 16.3292 6.66641 16.5103 6.46679 16.6955L6.45312 16.7081C6.46546 16.7287 6.47346 16.7432 6.47931 16.7537ZM9.18786 6.53379C9.1764 6.61103 9.16495 6.68364 9.15399 6.7531C9.1277 6.91972 9.10427 7.06826 9.09053 7.21921C8.98834 8.22547 9.35817 9.05186 10.0832 9.72756C10.7931 10.3867 11.6561 10.7865 12.5172 11.1854L12.6963 11.2685C12.8353 11.3333 12.9747 11.3971 13.1142 11.461C13.9273 11.8331 14.741 12.2056 15.4554 12.7658C16.234 13.3734 16.672 14.1512 16.672 15.1526C16.6671 16.1832 16.0978 16.854 15.2705 17.3936C15.2858 17.308 15.3036 17.2247 15.3209 17.143C15.3589 16.9649 15.3952 16.7939 15.4019 16.6207C15.4408 15.3665 14.8666 14.4088 13.8156 13.7915C13.2813 13.4751 12.7112 13.2154 12.1414 12.9558C11.8446 12.8206 11.5476 12.6853 11.256 12.5422C11.0807 12.457 10.9042 12.3739 10.7278 12.2909C10.1892 12.0373 9.6511 11.784 9.14893 11.4727C8.12217 10.8359 7.64529 9.8734 7.74261 8.66297C7.801 7.9338 8.19516 7.36505 8.73531 6.89351C8.84354 6.78939 8.96169 6.70176 9.09792 6.60073C9.12696 6.57919 9.1571 6.55684 9.18786 6.53379Z" fill="white"/>
<path fill-rule="evenodd" clip-rule="evenodd" d="M23.9999 12.0508C23.9756 18.7786 18.4525 24.0626 11.8686 23.9994C5.35774 23.9314 -0.0290786 18.5793 0.00011813 11.9924C-0.0290786 5.39102 5.41613 -0.0145541 12.0195 2.94394e-05C18.5012 0.014613 24.0243 5.2695 23.9999 12.0508ZM1.00015 11.9969L1.00011 11.988C0.97339 5.94717 5.96308 0.986656 12.0173 1.00003C17.9624 1.0134 23.0222 5.83488 22.9999 12.0472C22.9776 18.2097 17.9184 23.057 11.8791 22.9995C5.90972 22.9371 0.973425 18.0254 1.00015 11.9969Z" fill="white"/>
</g>
<defs>
<clipPath id="clip0_46380_561752">
<rect width="24" height="24" fill="white"/>
</clipPath>
</defs>
</svg>
