<svg width="24" height="24" viewBox="0 0 24 24" fill="none" xmlns="http://www.w3.org/2000/svg">
<g clip-path="url(#clip0_4060_8909)">
<path fill-rule="evenodd" clip-rule="evenodd" d="M11.9036 24C15.4085 24 18.5615 22.489 20.75 20.0811L20.1677 19.4366C19.447 18.6391 18.2185 18.5709 17.414 19.2839L16.1718 20.3848C14.4818 21.8827 11.9132 21.7882 10.3377 20.1703L9.56096 19.3727C8.81507 18.6067 7.59287 18.5801 6.81424 19.3127L4.53588 21.4565C6.56704 23.0501 9.12468 24 11.9036 24ZM21.8512 17.9154L22.134 18.2284C23.2356 16.4127 23.8701 14.2807 23.8701 12C23.8701 9.23453 22.9372 6.68755 21.3698 4.65823C21.0784 4.73313 20.7999 4.87646 20.5594 5.08961L19.3173 6.19056C17.6273 7.68838 15.0587 7.59397 13.4832 5.97611L12.7065 5.17846C11.9605 4.4125 10.7384 4.3858 9.9597 5.11846L6.7636 8.12585L5.20872 6.47342L8.40483 3.46602C10.085 1.88502 12.7225 1.94264 14.332 3.59551L15.1087 4.39317C15.8389 5.1429 17.0291 5.18665 17.8123 4.49254L19.0545 3.39159C19.263 3.20682 19.4847 3.04637 19.7161 2.91003C17.6197 1.09658 14.8893 0 11.9036 0C5.90045 0 0.929787 4.4328 0.0689709 10.2124C1.70707 9.26676 3.83403 9.51398 5.20993 10.9269L6.10822 11.8493C6.80644 12.5664 7.93276 12.642 8.72058 12.0248L11.3835 9.93859C12.9817 8.68644 15.2444 8.74701 16.7734 10.0829L20.3993 13.2508L18.9065 14.9594L15.2805 11.7916C14.572 11.1725 13.5234 11.1444 12.7828 11.7247L10.1199 13.8109C8.41984 15.1428 5.98936 14.9796 4.48267 13.4323L3.58439 12.5099C2.83849 11.7439 1.61629 11.7172 0.837657 12.4499L0 13.238C0.259054 15.7727 1.30477 18.0736 2.88829 19.8913L5.25937 17.6602C6.93959 16.0793 9.57695 16.1368 11.1865 17.7898L11.9633 18.5874C12.6934 19.3371 13.8837 19.3809 14.6668 18.6868L15.9091 17.5859C17.645 16.0473 20.2961 16.1944 21.8512 17.9154Z" fill="url(#paint0_linear_4060_8909)"/>
</g>
<defs>
<linearGradient id="paint0_linear_4060_8909" x1="11.935" y1="1.78742e-07" x2="16.6767" y2="23.9903" gradientUnits="userSpaceOnUse">
<stop stop-color="#780000"/>
<stop offset="1" stop-color="#C1121F"/>
</linearGradient>
<clipPath id="clip0_4060_8909">
<rect width="24" height="24" fill="white"/>
</clipPath>
</defs>
</svg>
