<svg width="24" height="24" viewBox="0 0 24 24" fill="none" xmlns="http://www.w3.org/2000/svg">
<g clip-path="url(#clip0_4779_2825)">
<path d="M24 12C24 5.37258 18.6274 0 12 0C5.37258 0 0 5.37258 0 12C0 18.6274 5.37258 24 12 24C18.6274 24 24 18.6274 24 12Z" fill="#3B87F7"/>
<path d="M24 12C24 5.37258 18.6274 0 12 0C5.37258 0 0 5.37258 0 12C0 18.6274 5.37258 24 12 24C18.6274 24 24 18.6274 24 12Z" fill="url(#paint0_linear_4779_2825)"/>
<path fill-rule="evenodd" clip-rule="evenodd" d="M14.0895 5.79908C14.0895 6.90308 13.1641 7.79811 12.0226 7.79811C10.8811 7.79811 9.95577 6.90308 9.95577 5.79908C9.95577 4.69504 10.8811 3.80005 12.0226 3.80005C13.1641 3.80005 14.0895 4.69504 14.0895 5.79908ZM16.3746 14.4255V13.254L19 11.7874V15.8913L12 19.8L5 15.8913V11.7444L7.62543 13.2102V14.4255L12 16.8685L16.3746 14.4255ZM14.4543 5.79908C14.4543 5.70628 14.4489 5.61519 14.4371 5.52588L19 8.07388V10.5974L16.3746 12.0632V9.53965L13.281 7.81211C13.9845 7.39965 14.4543 6.65193 14.4543 5.79908ZM9.61263 5.49873C9.59817 5.59679 9.59183 5.69748 9.59183 5.79908C9.59183 6.64313 10.0517 7.38393 10.7425 7.79896L7.62543 9.53965V12.0203L5 10.5545V8.07388L9.61263 5.49873ZM8.33611 12.283V10.7454L12 12.8066L10.6185 13.5797L8.33611 12.283ZM12 12.8066L15.6639 10.7454V12.283L13.3815 13.5797L12 12.8066Z" fill="url(#paint1_linear_4779_2825)"/>
</g>
<defs>
<linearGradient id="paint0_linear_4779_2825" x1="12" y1="0" x2="12" y2="24" gradientUnits="userSpaceOnUse">
<stop stop-color="#000426"/>
<stop offset="1"/>
</linearGradient>
<linearGradient id="paint1_linear_4779_2825" x1="12" y1="3.80005" x2="12" y2="19.8" gradientUnits="userSpaceOnUse">
<stop stop-color="#00A8FF"/>
<stop offset="1" stop-color="#0065FC"/>
</linearGradient>
<clipPath id="clip0_4779_2825">
<rect width="24" height="24" fill="white"/>
</clipPath>
</defs>
</svg>
