<svg width="24" height="24" viewBox="0 0 24 24" fill="none" xmlns="http://www.w3.org/2000/svg">
<path d="M12 24C18.6274 24 24 18.6274 24 12C24 5.37257 18.6274 0 12 0C5.37257 0 0 5.37257 0 12C0 18.6274 5.37257 24 12 24Z" fill="#0B0B0B"/>
<path d="M17.5873 6.75V13.7118L20.6746 11.8831L17.5873 6.75Z" fill="#D3D3D3"/>
<path d="M17.5873 6.75L14.5 11.8831L17.5873 13.7118V10.477V6.75Z" fill="white"/>
<path d="M17.5873 14.7182V17.2499L20.6765 12.8905L17.5873 14.7182Z" fill="#D3D3D3"/>
<path d="M17.5873 17.25V14.7182L14.5 12.8905L17.5873 17.25Z" fill="white"/>
<path d="M17.5873 13.7116L20.6746 11.8829L17.5873 10.4768V13.7116Z" fill="#8D8D8D"/>
<path d="M14.5 11.8829L17.5873 13.7116V10.4768L14.5 11.8829Z" fill="#BCBCBC"/>
<path d="M4.96221 7.30937C5.01878 7.25507 5.09346 7.22339 5.17039 7.22339H12.3525C12.4837 7.22339 12.5493 7.38178 12.4566 7.47456L11.0378 9.39332C10.9835 9.44763 10.9088 9.47931 10.8296 9.47931H3.64754C3.5163 9.47931 3.45067 9.32091 3.54345 9.22814L4.96221 7.30937Z" fill="white"/>
<path d="M10.8296 10.855C10.9088 10.855 10.9835 10.8867 11.0378 10.941L12.4566 12.8598C12.5493 12.9525 12.4837 13.1109 12.3525 13.1109H5.17039C5.09119 13.1109 5.01652 13.0793 4.96221 13.025L3.54345 11.1062C3.45067 11.0134 3.5163 10.855 3.64754 10.855H10.8296Z" fill="#D3D3D3"/>
<path d="M4.96221 14.6066C5.01652 14.5523 5.09119 14.5206 5.17039 14.5206H12.3525C12.4837 14.5206 12.5493 14.679 12.4566 14.7717L11.0378 16.6905C10.9835 16.7448 10.9088 16.7765 10.8296 16.7765H3.64754C3.5163 16.7765 3.45067 16.6181 3.54345 16.5253L4.96221 14.6066Z" fill="#BCBCBC"/>
</svg>
