<svg width="24" height="24" viewBox="0 0 24 24" fill="none" xmlns="http://www.w3.org/2000/svg">
<circle cx="12" cy="12" r="12" fill="#E50571"/>
<path fill-rule="evenodd" clip-rule="evenodd" d="M17.7503 17.5998C17.8555 17.4796 17.9608 17.3595 18.0601 17.2346C20.5487 14.4856 20.9618 9.3576 17.4013 6.04104C17.1336 5.82824 16.8577 5.63804 16.5735 5.47036C18.1059 6.78004 18.4924 7.73344 18.7824 9.04141C19.2783 11.3479 17.8512 14.4574 17.0355 15.5562C15.4751 17.6647 13.3555 15.776 14.6654 14.0314C15.6195 12.7707 17.5937 9.49753 16.8785 7.308C16.4054 5.86412 15.0147 4.79508 14.1301 4.2958C12.8795 3.97638 11.756 3.90695 10.5443 4.13016C12.3253 4.64483 12.7974 5.01387 13.3538 5.44872C13.3762 5.46624 13.3987 5.48386 13.4215 5.5016C16.4516 7.86227 14.6477 10.4773 13.2727 12.4706C13.1633 12.6292 13.0567 12.7838 12.9553 12.9341C11.8674 14.302 11.7454 16.3599 13.1082 17.6374C14.0843 18.5588 15.3289 18.8008 16.447 18.4082C16.7956 18.2873 17.1262 18.1036 17.4448 17.8618C17.5281 17.8023 17.6012 17.7346 17.6697 17.6711C17.6753 17.666 17.6808 17.6608 17.6863 17.6558L17.6958 17.6439C17.7005 17.6379 17.7068 17.6331 17.713 17.6283C17.7192 17.6236 17.7254 17.6188 17.7301 17.6129C17.7325 17.61 17.7363 17.6082 17.7402 17.6064C17.744 17.6046 17.7479 17.6028 17.7502 17.5998L17.7503 17.5998ZM6.2498 6.40026C6.14452 6.52042 6.03924 6.64058 5.93988 6.76546C3.45135 9.51442 3.03828 14.6425 6.59872 17.959C6.8664 18.1718 7.14236 18.362 7.42652 18.5297C5.89412 17.22 5.50764 16.2666 5.21768 14.9587C4.72176 12.6522 6.1488 9.5427 6.96448 8.44386C8.52496 6.33534 10.6445 8.22402 9.33461 9.9687C8.38052 11.2293 6.40636 14.5025 7.12148 16.6921C7.59464 18.1359 8.98536 19.205 9.86992 19.7043C11.1205 20.0237 12.244 20.0931 13.4557 19.8699C11.6747 19.3552 11.2026 18.9862 10.6463 18.5513C10.6238 18.5338 10.6013 18.5162 10.5785 18.4985C7.54844 16.1378 9.35229 13.5228 10.7273 11.5295C10.8367 11.3709 10.9434 11.2162 11.0447 11.0659C12.1326 9.6981 12.2546 7.64014 10.8918 6.36266C9.91577 5.44122 8.67112 5.1993 7.553 5.59186C7.2044 5.71274 6.8738 5.89646 6.55524 6.1383C6.47194 6.1978 6.39888 6.26546 6.33029 6.32897C6.32474 6.33411 6.31922 6.33922 6.31372 6.3443L6.30424 6.35618C6.2995 6.36216 6.29327 6.36695 6.28703 6.37173C6.28084 6.37648 6.27464 6.38122 6.26992 6.38714C6.26756 6.39012 6.26371 6.39191 6.25986 6.3937C6.25601 6.39549 6.25216 6.39728 6.2498 6.40026Z" fill="white"/>
</svg>
