<svg width="24" height="24" viewBox="0 0 24 24" fill="none" xmlns="http://www.w3.org/2000/svg">
<path d="M11.9999 21.4737C17.2321 21.4737 21.4736 17.2322 21.4736 12C21.4736 6.76786 17.2321 2.52637 11.9999 2.52637C6.76775 2.52637 2.52626 6.76786 2.52626 12C2.52626 17.2322 6.76775 21.4737 11.9999 21.4737Z" fill="url(#paint0_linear_4486_1688)"/>
<path d="M24 12C24 13.5758 23.6896 15.1363 23.0866 16.5922C22.4835 18.0481 21.5996 19.371 20.4853 20.4853C19.371 21.5996 18.0481 22.4835 16.5922 23.0866C15.1363 23.6896 13.5758 24 12 24C10.4242 24 8.86368 23.6896 7.40778 23.0866C5.95189 22.4835 4.62902 21.5996 3.51472 20.4853C2.40041 19.371 1.5165 18.0481 0.913446 16.5922C0.310389 15.1363 -1.37766e-07 13.5758 0 12H2.8761C2.8761 13.1981 3.11209 14.3846 3.57061 15.4916C4.02913 16.5985 4.70119 17.6044 5.54843 18.4516C6.39564 19.2988 7.40148 19.9709 8.50842 20.4294C9.61542 20.8879 10.8019 21.1239 12 21.1239C13.1981 21.1239 14.3846 20.8879 15.4916 20.4294C16.5985 19.9709 17.6044 19.2988 18.4516 18.4516C19.2988 17.6044 19.9709 16.5985 20.4294 15.4916C20.8879 14.3846 21.1239 13.1981 21.1239 12H24Z" fill="#C73238"/>
<path d="M21.4736 12C21.4736 13.2441 21.2286 14.476 20.7525 15.6254C20.2764 16.7749 19.5786 17.8192 18.6989 18.6989C17.8191 19.5787 16.7748 20.2765 15.6254 20.7526C14.4759 21.2287 13.244 21.4737 11.9999 21.4737C10.7558 21.4737 9.52391 21.2287 8.37455 20.7526C7.22513 20.2765 6.18077 19.5787 5.30104 18.6989C4.42132 17.8192 3.7235 16.7749 3.2474 15.6254C2.77131 14.476 2.52626 13.2441 2.52626 12H11.9999H21.4736Z" fill="#070B09"/>
<path d="M14.4239 6.73682L6.94745 17.2623H9.24287L16.7581 6.73682H14.4239Z" fill="white"/>
<path d="M9.48203 6.73682L11.6818 9.83834L10.5341 11.5301L7.13873 6.73682H9.48203Z" fill="url(#paint1_linear_4486_1688)"/>
<path d="M14.6465 17.2633L12.2077 13.8329L13.3555 12.1881L16.942 17.2633H14.6465Z" fill="url(#paint2_linear_4486_1688)"/>
<defs>
<linearGradient id="paint0_linear_4486_1688" x1="17.8621" y1="-0.143014" x2="13.2038" y2="19.2231" gradientUnits="userSpaceOnUse">
<stop stop-color="#2C2C3D"/>
<stop offset="1" stop-color="#1A1A27"/>
</linearGradient>
<linearGradient id="paint1_linear_4486_1688" x1="8.95595" y1="7.39472" x2="12.04" y2="11.1835" gradientUnits="userSpaceOnUse">
<stop stop-color="white"/>
<stop offset="1" stop-color="white" stop-opacity="0.55"/>
</linearGradient>
<linearGradient id="paint2_linear_4486_1688" x1="15.1727" y1="16.4644" x2="11.3905" y2="11.2756" gradientUnits="userSpaceOnUse">
<stop stop-color="#6966FF"/>
<stop offset="1" stop-color="#6966FF" stop-opacity="0.36"/>
</linearGradient>
</defs>
</svg>
