<svg width="24" height="24" viewBox="0 0 24 24" fill="none" xmlns="http://www.w3.org/2000/svg">
<path d="M12.0002 21.4737C17.2323 21.4737 21.4739 17.2322 21.4739 12.0001C21.4739 6.76788 17.2323 2.52637 12.0002 2.52637C6.768 2.52637 2.52649 6.76788 2.52649 12.0001C2.52649 17.2322 6.768 21.4737 12.0002 21.4737Z" fill="url(#paint0_linear_4486_1689)"/>
<path d="M24.0002 12C24.0002 13.5759 23.6899 15.1363 23.0867 16.5922C22.4838 18.0481 21.5998 19.371 20.4855 20.4853C19.3712 21.5996 18.0483 22.4836 16.5924 23.0865C15.1365 23.6897 13.576 24 12.0002 24C10.4243 24 8.86389 23.6897 7.40797 23.0865C5.95208 22.4836 4.62921 21.5996 3.5149 20.4853C2.4006 19.371 1.51668 18.0481 0.913627 16.5922C0.310573 15.1363 0.000182968 13.5759 0.000183105 12H2.87629C2.87629 13.1982 3.11227 14.3846 3.57079 15.4916C4.02932 16.5985 4.70138 17.6043 5.5486 18.4516C6.39585 19.2988 7.40166 19.9709 8.50863 20.4294C9.61557 20.8879 10.802 21.124 12.0002 21.124C13.1984 21.124 14.3848 20.8879 15.4917 20.4294C16.5987 19.9709 17.6045 19.2988 18.4518 18.4516C19.299 17.6043 19.971 16.5985 20.4296 15.4916C20.8881 14.3846 21.1242 13.1982 21.1242 12H24.0002Z" fill="#C73238"/>
<path d="M21.4739 12C21.4739 13.2441 21.2288 14.476 20.7527 15.6254C20.2766 16.7748 19.5788 17.8192 18.699 18.6989C17.8193 19.5786 16.775 20.2764 15.6256 20.7525C14.4762 21.2286 13.2442 21.4737 12.0001 21.4737C10.756 21.4737 9.52412 21.2286 8.37471 20.7525C7.2253 20.2764 6.18094 19.5786 5.30122 18.6989C4.42151 17.8192 3.72368 16.7748 3.2476 15.6254C2.77149 14.476 2.52646 13.2441 2.52646 12H12.0001H21.4739Z" fill="#070B09"/>
<path d="M12.0002 18.9473C10.144 18.9473 8.40016 18.2245 7.08789 16.9123C5.7756 15.6 5.0528 13.8561 5.0528 12C5.0528 10.1439 5.7756 8.39998 7.08789 7.08771C8.40016 5.77541 10.144 5.05261 12.0002 5.05261C13.8563 5.05261 15.6001 5.77541 16.9124 7.08771C18.2247 8.39998 18.9475 10.1439 18.9475 12C18.9475 13.8561 18.2247 15.6 16.9124 16.9123C15.6001 18.2245 13.8563 18.9473 12.0002 18.9473ZM12.0002 5.61752C8.48086 5.61752 5.6177 8.48068 5.6177 12C5.6177 15.5193 8.48086 18.3824 12.0002 18.3824C15.5194 18.3824 18.3826 15.5193 18.3826 12C18.3826 8.48068 15.5194 5.61752 12.0002 5.61752ZM11.1721 9.96489L7.11595 8.96137L9.81071 12.1579L7.60016 15.7088L11.4738 14.1333L14.1686 17.3298L13.8668 13.1614L17.7405 11.586L13.6844 10.5824L13.3826 6.41402L11.1721 9.96489Z" fill="white"/>
<defs>
<linearGradient id="paint0_linear_4486_1689" x1="5.58723" y1="5.00409" x2="19.5791" y2="18.5587" gradientUnits="userSpaceOnUse">
<stop stop-color="#A96A74"/>
<stop offset="0.255172" stop-color="#E3B94D"/>
<stop offset="0.498212" stop-color="#B8E287"/>
<stop offset="0.677083" stop-color="#86DABB"/>
<stop offset="1" stop-color="#003896"/>
</linearGradient>
</defs>
</svg>
