<svg width="24" height="24" viewBox="0 0 24 24" fill="none" xmlns="http://www.w3.org/2000/svg">
<path fill-rule="evenodd" clip-rule="evenodd" d="M0 12C0 18.6275 5.37251 24 12 24C18.6275 24 24.0003 18.6275 24.0003 12C24.0003 5.37251 18.6275 0 12 0C5.37251 0 0 5.37251 0 12Z" fill="#0C0C4F"/>
<path fill-rule="evenodd" clip-rule="evenodd" d="M6.70673 9.17312L7.00295 8.25794C7.06313 8.07182 7.21007 7.92698 7.39685 7.86986L8.31653 7.58702C8.44385 7.54814 8.44487 7.36856 8.31857 7.32764L7.40309 7.03142C7.21727 6.97118 7.07243 6.8243 7.01501 6.63746L6.73253 5.71778C6.69365 5.59082 6.51407 5.58944 6.47309 5.7161L6.17687 6.63128C6.11669 6.81704 5.96975 6.96188 5.78293 7.01936L4.86328 7.30184C4.73598 7.34102 4.73461 7.5203 4.86121 7.56122L5.77674 7.85744C5.96253 7.91768 6.10739 8.06492 6.16481 8.25176L6.44729 9.17102C6.48617 9.29834 6.66575 9.29972 6.70673 9.17312Z" fill="#FAFAFA"/>
<path fill-rule="evenodd" clip-rule="evenodd" d="M21.2428 8.64052C20.8637 8.21656 20.2719 7.97782 19.6967 7.87996C19.1168 7.78594 18.5089 7.79464 17.9364 7.89634C16.7782 8.0923 15.726 8.57188 14.8083 9.16348C14.3316 9.45388 13.9253 9.78982 13.5042 10.132C13.3013 10.305 13.1163 10.4894 12.9237 10.671L12.3973 11.1947C11.8254 11.7926 11.2616 12.3371 10.7162 12.7884C10.1685 13.2377 9.65651 13.5789 9.15197 13.8172C8.64767 14.0567 8.10809 14.1975 7.40483 14.2201C6.70775 14.2447 5.88296 14.1189 5.00075 13.9112C4.1138 13.7045 3.18241 13.4097 2.1416 13.1562C2.50476 14.1637 3.05165 15.054 3.75377 15.8679C4.46413 16.6676 5.35116 17.3966 6.49067 17.876C7.61369 18.366 9.02501 18.5418 10.3446 18.2765C11.6678 18.0218 12.8289 17.4095 13.7674 16.7015C14.7083 15.9861 15.4696 15.1713 16.1114 14.3242C16.2885 14.0901 16.3823 13.9592 16.5105 13.7762L16.8648 13.2513C17.1111 12.9266 17.3352 12.557 17.579 12.2353C18.0569 11.5616 18.528 10.8887 19.0755 10.2687C19.3511 9.95422 19.6415 9.65344 19.9845 9.36442C20.1557 9.2233 20.3405 9.08524 20.5452 8.96086C20.7531 8.8267 20.9726 8.7217 21.2428 8.64052Z" fill="url(#paint0_linear_3988_8498)"/>
<path fill-rule="evenodd" clip-rule="evenodd" d="M21.2429 8.6403C20.8355 7.6125 20.0784 6.74736 19.062 6.10896C18.0519 5.4776 16.6488 5.15538 15.2586 5.43005C14.5718 5.5629 13.9064 5.81862 13.3224 6.15918C12.7411 6.49842 12.2202 6.90672 11.7693 7.34484C11.5442 7.56456 11.3398 7.79382 11.1368 8.0244L10.6106 8.6952L9.79798 9.77502C8.76196 11.1644 7.64632 12.7926 5.81552 13.2751C4.01817 13.7487 3.23863 13.3292 2.14166 13.156C2.34224 13.6738 2.5907 14.1767 2.92752 14.6191C3.25808 15.0705 3.64851 15.4945 4.13393 15.8578C4.37924 16.0324 4.63823 16.2046 4.92587 16.3507C5.2122 16.4919 5.521 16.6161 5.85059 16.7096C6.50621 16.8893 7.24427 16.9523 7.95892 16.8556C8.67394 16.7602 9.35734 16.5337 9.9547 16.2327C10.5564 15.9346 11.0807 15.5716 11.5487 15.1885C12.4792 14.4158 13.203 13.562 13.8143 12.6989C14.1218 12.2675 14.4009 11.8278 14.6591 11.3881L14.963 10.8646C15.0558 10.7115 15.1498 10.5575 15.2453 10.4141C15.6302 9.83796 16.0068 9.37596 16.4642 9.02922C16.9152 8.67348 17.5433 8.41068 18.3825 8.3496C19.2183 8.28786 20.1832 8.40198 21.2429 8.6403Z" fill="#FAFAFA"/>
<path fill-rule="evenodd" clip-rule="evenodd" d="M16.7212 17.1795C16.7212 17.9343 17.3334 18.5466 18.0883 18.5466C18.8431 18.5466 19.4546 17.9343 19.4546 17.1795C19.4546 16.4246 18.8431 15.8124 18.0883 15.8124C17.3334 15.8124 16.7212 16.4246 16.7212 17.1795Z" fill="#EC796B"/>
<defs>
<linearGradient id="paint0_linear_3988_8498" x1="21.1406" y1="8.27986" x2="-10.0754" y2="24.521" gradientUnits="userSpaceOnUse">
<stop stop-color="#EC796B"/>
<stop offset="1" stop-color="#D672EF"/>
</linearGradient>
</defs>
</svg>
