<svg width="24" height="24" viewBox="0 0 24 24" fill="none" xmlns="http://www.w3.org/2000/svg">
<path d="M12 24C18.6274 24 24 18.6274 24 12C24 5.37258 18.6274 0 12 0C5.37258 0 0 5.37258 0 12C0 18.6274 5.37258 24 12 24Z" fill="#E50571"/>
<path fill-rule="evenodd" clip-rule="evenodd" d="M20.2513 12.2454C20.2496 12.3011 20.1737 12.3159 20.1517 12.2645C20.1423 12.2423 20.1327 12.22 20.1229 12.1978C20.105 12.1571 20.11 12.1097 20.1368 12.0741C20.1423 12.0668 20.1535 12.0521 20.167 12.0345C20.2031 11.9873 20.2551 11.9944 20.2551 12.0467C20.2551 12.1155 20.2535 12.175 20.2513 12.2454ZM19.8518 11.1543C19.7902 11.2651 19.6325 11.2702 19.5642 11.1633C19.3117 10.7702 19.0164 10.3803 18.686 10.0039C18.6083 9.91531 18.6719 9.77634 18.7897 9.77626H18.7926C19.5321 9.77626 19.9198 9.95894 20.0382 10.182C20.1369 10.3686 20.1066 10.6949 19.8518 11.1543ZM19.6865 15.0218C19.6468 15.1228 19.6053 15.223 19.5617 15.3224C19.2927 15.8635 18.8283 16.2925 18.2021 16.5871C18.0651 16.6514 17.9153 16.5261 17.9561 16.3804C18.1588 15.655 18.3122 14.8684 18.4116 14.0436C18.4301 13.8899 18.506 13.7487 18.6232 13.6474C18.8742 13.4302 19.1086 13.2134 19.3242 12.998L19.3265 12.9956C19.4326 12.8897 19.6136 12.9353 19.6569 13.0789C19.8699 13.7871 19.8817 14.4467 19.6865 15.0218ZM18.0273 17.6408C17.8572 17.8227 17.6772 17.998 17.4919 18.1633C17.4177 18.2295 17.3054 18.1467 17.3474 18.0566C17.4094 17.9234 17.4692 17.7852 17.5268 17.6439C17.5378 17.6171 17.561 17.597 17.5891 17.5898C17.7062 17.5601 17.8203 17.5273 17.9314 17.4914C18.0215 17.4625 18.0921 17.5716 18.0273 17.6408ZM16.8089 16.986C16.5625 17.0216 16.3035 17.0447 16.0324 17.0543C15.371 17.0774 14.6717 17.0204 13.9533 16.8881C13.8657 16.872 13.8489 16.7536 13.9283 16.7134C14.085 16.6341 14.2418 16.553 14.3985 16.4699C15.4977 15.8873 16.5233 15.2505 17.4211 14.5975C17.4884 14.5486 17.5812 14.6064 17.5675 14.6885C17.443 15.4368 17.2706 16.1412 17.0541 16.7807C17.0172 16.8896 16.9228 16.9694 16.8089 16.986ZM16.5549 17.9829C15.9655 19.142 15.2397 19.7928 14.5362 19.7796C13.7715 19.766 13.0091 18.9697 12.4444 17.5951L12.4438 17.5936C12.3863 17.4539 12.5345 17.3144 12.6712 17.3529C13.8834 17.6931 15.1591 17.8781 16.419 17.778C16.5286 17.7693 16.6047 17.885 16.5549 17.9829ZM13.065 20.1871C12.7146 20.2321 12.359 20.2552 12 20.2552C10.3954 20.2552 8.86065 19.8004 7.543 18.9519C7.45235 18.8935 7.49087 18.7528 7.59861 18.7479C7.62095 18.7468 7.64183 18.7457 7.6602 18.7446C7.99506 18.7228 8.36221 18.6737 8.76004 18.5971C9.60628 18.4343 10.547 18.1551 11.532 17.779C11.6203 17.7453 11.7188 17.7891 11.7548 17.8765L11.7554 17.8781C12.1372 18.8075 12.6069 19.5097 13.1344 19.9564C13.2216 20.0303 13.1783 20.1725 13.065 20.1871ZM8.29114 14.403C9.01856 13.8107 9.87088 13.2197 10.8058 12.6601C10.8259 13.8559 10.957 15.004 11.1891 16.041C10.8423 15.8932 10.4966 15.7303 10.1539 15.5523C9.49013 15.2073 8.86558 14.8209 8.29114 14.403ZM6.02891 17.6072C5.85537 17.2798 6.07966 16.5213 7.21907 15.3687C7.33806 15.2485 7.32721 15.0506 7.19439 14.946C7.14873 14.9101 7.10341 14.8739 7.0584 14.8376C6.94492 14.7459 6.78069 14.7543 6.67765 14.8575C6.65507 14.8801 6.63824 14.8971 6.6333 14.9022C6.06371 15.4868 5.66508 16.028 5.44176 16.5148C5.37846 16.6527 5.18728 16.6676 5.10359 16.541C4.21963 15.2048 3.74482 13.6389 3.74482 12C3.74482 11.414 3.80569 10.8374 3.92411 10.2773C3.942 10.1925 4.06155 10.1871 4.08664 10.27C4.25791 10.8355 4.53667 11.4203 4.92187 12.0118C5.44038 12.8081 6.12418 13.5735 6.93448 14.2757C7.21106 14.5154 7.50318 14.7472 7.80784 14.9708C8.42542 15.424 9.09651 15.8422 9.81049 16.2132C10.127 16.3777 10.4352 16.5346 10.7509 16.6768C10.9266 16.7558 11.1266 16.762 11.306 16.6916C11.4548 16.6333 11.6047 16.5727 11.7555 16.5096C11.9195 16.4412 12.0085 16.2624 11.965 16.0901C11.9596 16.0686 11.9553 16.0512 11.9529 16.041C11.6392 14.7209 11.5267 13.3558 11.5507 12.0004C11.5817 10.2773 11.8455 8.64831 12.3032 7.30714C12.3404 7.19827 12.2824 7.0801 12.1735 7.04294C12.0674 7.00668 11.9613 6.97204 11.8555 6.93885C11.7484 6.90526 11.6339 6.96305 11.5978 7.06933C11.1625 8.34699 10.894 9.86278 10.8223 11.4668C10.8132 11.6703 10.7025 11.8555 10.5272 11.9593C9.57722 12.5224 8.70475 13.1192 7.95103 13.7209C7.794 13.8462 7.56971 13.8415 7.41786 13.7098C6.66244 13.0548 6.02664 12.3434 5.54601 11.6053C4.60151 10.155 4.37706 8.78869 4.91418 7.75879C4.91564 7.75636 4.91694 7.75385 4.91831 7.7515C4.98679 7.63786 5.05802 7.52576 5.13216 7.41519C5.74934 6.59825 6.89806 6.12483 8.42154 6.07132C8.51794 6.06792 8.61499 6.06622 8.71293 6.06622C10.6446 6.06622 12.5984 6.68887 14.3 7.57327C15.2513 8.0675 16.1221 8.64688 16.8798 9.28251C15.4337 9.61381 13.7527 10.2529 12.0625 11.1146C11.9846 11.1544 11.9333 11.2328 11.9283 11.3202C11.9224 11.425 11.9146 11.6356 11.9091 11.8029C11.9056 11.908 12.0167 11.9776 12.1098 11.9287L12.1108 11.9282C13.7842 11.0495 15.4542 10.3927 16.8884 10.0456C17.1565 9.98079 17.33 9.72332 17.2924 9.45014C17.266 9.25928 17.2363 9.07142 17.2034 8.88687C17.1622 8.65505 17.0352 8.44776 16.8479 8.30514C16.1762 7.79343 15.4359 7.32405 14.6434 6.91222C14.1094 6.63476 13.5675 6.39161 13.0244 6.18424C12.9083 6.13988 12.8585 6.0026 12.9191 5.89406C13.4786 4.89322 14.144 4.3327 14.7923 4.3327C14.799 4.3327 14.8057 4.3327 14.8124 4.33286C15.5771 4.34654 16.3396 5.14276 16.9042 6.51739C17.19 7.21324 17.4115 8.0157 17.5628 8.88776L17.5605 8.88566C17.7448 9.94785 17.8173 11.0286 17.7979 12.1121C17.7899 12.5572 17.7662 12.996 17.7279 13.4254C16.7048 14.2522 15.44 15.0749 14.0496 15.8117C12.3431 16.7162 10.517 17.5005 8.61928 17.8657C6.97787 18.1817 6.20496 17.9393 6.02891 17.6072ZM7.20782 5.27648C8.5971 4.28163 10.2572 3.74482 12 3.74482C12.4599 3.74482 12.914 3.78246 13.359 3.85587C13.4781 3.87554 13.5181 4.02763 13.4231 4.10218C12.9919 4.44019 12.5913 4.94033 12.2368 5.58891C12.1503 5.74715 11.9668 5.82453 11.7932 5.77564C10.6187 5.445 9.46309 5.28943 8.39539 5.3269C8.00153 5.34075 7.62856 5.38065 7.27816 5.44524C7.17973 5.46337 7.12648 5.33467 7.20782 5.27648ZM18.5395 11.2929C18.537 11.1982 18.6584 11.1578 18.7133 11.2349C18.8704 11.4553 19.0139 11.6792 19.1392 11.8992C19.1838 11.9775 19.1732 12.0756 19.1124 12.1422C18.9809 12.2867 18.8323 12.4399 18.6712 12.5953C18.6177 12.6469 18.5281 12.6076 18.531 12.5333C18.5471 12.1205 18.5498 11.7023 18.5395 11.2929ZM17.6833 6.01272C17.7352 6.06193 17.7865 6.11196 17.8373 6.16271C18.6328 6.9582 19.2455 7.88773 19.6552 8.90006C19.6966 9.00213 19.6099 9.10897 19.5015 9.08947C19.2645 9.04689 18.9977 9.02787 18.7023 9.03281C18.4976 9.03621 18.3197 8.89278 18.2838 8.69124C18.1233 7.79125 17.8912 6.9599 17.5932 6.23434C17.5762 6.19298 17.559 6.1521 17.5416 6.11163C17.5037 6.02332 17.6137 5.94651 17.6833 6.01272ZM20.8056 10.1281C20.4499 8.43829 19.6136 6.88567 18.3639 5.63594C16.664 3.93609 14.404 3 12 3C9.596 3 7.33587 3.93609 5.63602 5.63594C5.22257 6.04939 4.85485 6.4961 4.53424 6.96977C4.4389 7.09669 4.3535 7.23073 4.27758 7.371C3.44477 8.75486 3 10.3432 3 12C3 14.404 3.93617 16.664 5.63602 18.3639C7.33587 20.0638 9.596 21 12 21C14.404 21 16.664 20.0638 18.3639 18.3639C19.1662 17.5617 19.7981 16.6346 20.242 15.6265C20.2962 15.5148 20.3436 15.4005 20.3843 15.2838C20.7883 14.2513 21 13.142 21 12C21 11.3632 20.9386 10.736 20.8056 10.1281Z" fill="white"/>
</svg>
