<svg width="24" height="24" viewBox="0 0 24 24" fill="none" xmlns="http://www.w3.org/2000/svg">
<g clip-path="url(#clip0_4073_2655)">
<path d="M24.0004 12C24.0004 5.37258 18.6278 0 12.0004 0C5.37295 0 0.000366211 5.37258 0.000366211 12C0.000366211 18.6274 5.37295 24 12.0004 24C18.6278 24 24.0004 18.6274 24.0004 12Z" fill="#4CA2FF"/>
<path fill-rule="evenodd" clip-rule="evenodd" d="M15.7574 10.673L15.7571 10.6737C16.4099 11.4922 16.8 12.5288 16.8 13.6563C16.8 14.8006 16.3982 15.8513 15.7278 16.6754L15.6701 16.7463L15.6548 16.6561C15.6418 16.5795 15.6265 16.502 15.6087 16.424C15.2733 14.95 14.1802 13.686 12.3812 12.6625C11.1663 11.9733 10.4709 11.1434 10.2883 10.2005C10.1704 9.59075 10.2581 8.97832 10.4275 8.45374C10.5969 7.92934 10.8488 7.48998 11.0628 7.22547L11.063 7.2253L11.7628 6.36955C11.8855 6.21949 12.1152 6.21949 12.2379 6.36955L15.7574 10.673ZM16.8643 9.81803L16.8645 9.81771L12.1737 4.08213C12.0842 3.97262 11.9165 3.97262 11.8269 4.08213L7.13616 9.81778L7.13629 9.8181L7.12103 9.83702C6.25783 10.9082 5.74127 12.2694 5.74127 13.7512C5.74127 17.2023 8.5435 20 12.0003 20C15.4572 20 18.2594 17.2023 18.2594 13.7512C18.2594 12.2694 17.7428 10.9082 16.8797 9.83702L16.8643 9.81803ZM8.25852 10.6545L8.25871 10.6543L8.67826 10.1412L8.69095 10.236C8.701 10.311 8.71318 10.3864 8.72762 10.4621C8.9991 11.8865 9.96887 13.0742 11.5902 13.994C12.9996 14.7961 13.8202 15.7185 14.0566 16.7301C14.1552 17.1523 14.1728 17.5676 14.1301 17.9308L14.1274 17.9533L14.1071 17.9632C13.471 18.274 12.756 18.4484 12.0002 18.4484C9.34942 18.4484 7.20042 16.303 7.20042 13.6563C7.20042 12.52 7.59657 11.4759 8.25852 10.6545Z" fill="white"/>
</g>
<defs>
<clipPath id="clip0_4073_2655">
<rect width="24" height="24" fill="white" transform="translate(0.000366211)"/>
</clipPath>
</defs>
</svg>
