<svg width="24" height="24" viewBox="0 0 24 24" fill="none" xmlns="http://www.w3.org/2000/svg">
<path d="M12 24C18.6274 24 24 18.6274 24 12C24 5.37258 18.6274 0 12 0C5.37258 0 0 5.37258 0 12C0 18.6274 5.37258 24 12 24Z" fill="url(#paint0_linear_5203_10612)"/>
<mask id="mask0_5203_10612" style="mask-type:alpha" maskUnits="userSpaceOnUse" x="0" y="0" width="24" height="24">
<path d="M12 24C18.6274 24 24 18.6274 24 12C24 5.37258 18.6274 0 12 0C5.37258 0 0 5.37258 0 12C0 18.6274 5.37258 24 12 24Z" fill="white"/>
</mask>
<g mask="url(#mask0_5203_10612)">
<path d="M10.2976 -2.8645V5.49682H10.7189V-2.8645H10.2976Z" fill="white"/>
<path d="M11.5361 -2.8645V5.49682H11.9574V-2.8645H11.5361Z" fill="white"/>
<path d="M13.1622 5.49682V-2.8645H13.5834V5.49682H13.1622Z" fill="white"/>
<path d="M9.42536 3.82079V-1.93555H9.00409V2.98217L6.68927 -1.33536L6.318 -1.1363L9.02909 3.92032L9.42536 3.82079Z" fill="white"/>
<path d="M14.8431 2.82737V-2.09033H14.4218V3.66601L14.8181 3.76553L17.5291 -1.2911L17.1579 -1.49015L14.8431 2.82737Z" fill="white"/>
<path d="M12.3868 27.9484V19.5872H11.9655V27.9484H12.3868Z" fill="white"/>
<path d="M13.6255 19.5872V27.9484H13.2043V19.5872H13.6255Z" fill="white"/>
<path d="M10.761 27.9484V19.5872H10.3397V27.9484H10.761Z" fill="white"/>
<path d="M14.5765 21.3677L14.9728 21.2682L17.6838 26.3248L17.3126 26.5238L14.9978 22.2063V27.1241H14.5765V21.3677Z" fill="white"/>
<path d="M6.68899 26.6012L9.00382 22.2837V27.2014H9.42508V21.4451L9.02882 21.3455L6.68283 25.7212L8.14276 20.8866L7.79218 20.6767L3.72182 24.7471L4.0197 25.045L7.49705 21.5676L6.08087 26.2574L6.35154 26.3391L6.31772 26.4022L6.68899 26.6012Z" fill="white"/>
<path d="M4.9165 12.9675H-3.44479V12.5462H4.9165V12.9675Z" fill="white"/>
<path d="M-3.44479 14.206H4.9165V13.7847H-3.44479V14.206Z" fill="white"/>
<path d="M4.9165 11.3417H-3.44479V10.9205H4.9165V11.3417Z" fill="white"/>
<path d="M3.04696 15.1185H-2.70938V15.5397H2.20832L-2.10919 17.8545L-1.91014 18.2258L-1.80812 18.1711L-1.68939 18.5643L3.00036 17.1482L-0.476983 20.6255L-0.179106 20.9234L3.89124 16.853L3.68141 16.5025L-1.76125 18.146L3.14649 15.5147L3.04696 15.1185Z" fill="white"/>
<path d="M2.75025 9.85539L-1.56726 7.54061L-1.38141 7.19396L-1.4242 7.18104L-1.30242 6.77776L3.38733 8.19389L-0.0900168 4.71657L0.20786 4.41869L4.27821 8.48902L4.06838 8.8396L-1.2461 7.23481L3.68841 9.88039L3.58889 10.2767H-2.16745V9.85539H2.75025Z" fill="white"/>
<path d="M27.3679 12.1165H19.0067V12.5378H27.3679V12.1165Z" fill="white"/>
<path d="M19.0067 10.8777H27.3679V11.299H19.0067V10.8777Z" fill="white"/>
<path d="M27.3679 13.7423H19.0067V14.1635H27.3679V13.7423Z" fill="white"/>
<path d="M20.4944 9.57063L25.551 6.85953L25.7501 7.2308L21.4326 9.54563H26.3503V9.96689H20.5939L20.4944 9.57063Z" fill="white"/>
<path d="M20.9036 15.0411L20.804 15.4373L25.8606 18.1484L26.0597 17.7772L21.7422 15.4623H26.6599V15.0411H20.9036Z" fill="white"/>
<path d="M7.28051 17.8245L1.36818 23.7368L1.0703 23.4389L6.98263 17.5266L7.28051 17.8245Z" fill="white"/>
<path d="M2.24421 24.6125L8.15656 18.7002L7.85868 18.4023L1.94634 24.3147L2.24421 24.6125Z" fill="white"/>
<path d="M6.13074 16.6748L0.218427 22.5871L-0.0794499 22.2893L5.83286 16.3769L6.13074 16.6748Z" fill="white"/>
<path d="M22.555 1.34691L16.6427 7.25925L16.9406 7.55713L22.8529 1.64479L22.555 1.34691Z" fill="white"/>
<path d="M15.7669 6.38353L21.6792 0.471179L21.9771 0.769055L16.0648 6.6814L15.7669 6.38353Z" fill="white"/>
<path d="M23.7047 2.49657L17.7924 8.40889L18.0903 8.70677L24.0026 2.79445L23.7047 2.49657Z" fill="white"/>
<path d="M15.9612 4.37798L17.6198 -1.1146L18.023 -0.992823L16.6069 3.69693L20.0842 0.219581L20.3821 0.517458L16.3118 4.5878L15.9612 4.37798Z" fill="white"/>
<path d="M24.3489 4.3296L20.8715 7.80694L25.5612 6.39081L25.683 6.79409L20.1905 8.45265L19.9806 8.10207L24.051 4.03173L24.3489 4.3296Z" fill="white"/>
<path d="M17.2436 17.2229L23.1559 23.1352L22.858 23.4331L16.9457 17.5208L17.2436 17.2229Z" fill="white"/>
<path d="M24.032 22.2592L18.1196 16.3469L17.8218 16.6448L23.7341 22.5571L24.032 22.2592Z" fill="white"/>
<path d="M16.0939 18.3725L22.0062 24.2849L21.7083 24.5827L15.796 18.6704L16.0939 18.3725Z" fill="white"/>
<path d="M20.3449 16.5025L20.1351 16.853L24.2054 20.9234L24.5033 20.6255L21.0259 17.1482L25.7157 18.5644L25.8375 18.1611L20.3449 16.5025Z" fill="white"/>
<path d="M16.0377 20.8092L16.3883 20.5994L20.4587 24.6697L20.1608 24.9676L16.6834 21.4902L18.0996 26.18L17.6963 26.3018L16.0377 20.8092Z" fill="white"/>
<path d="M0.766437 1.94874L6.67878 7.86107L6.97665 7.5632L1.06431 1.65087L0.766437 1.94874Z" fill="white"/>
<path d="M5.80273 8.73703L-0.109601 2.82472L0.188275 2.52684L6.10061 8.43915L5.80273 8.73703Z" fill="white"/>
<path d="M1.91619 0.799084L7.8285 6.71144L8.12637 6.41356L2.21406 0.501209L1.91619 0.799084Z" fill="white"/>
<path d="M6.00352 -0.760646L7.41965 3.9291L3.94233 0.451764L3.64446 0.74964L7.71478 4.81999L8.06536 4.61016L6.40679 -0.882421L6.00352 -0.760646Z" fill="white"/>
</g>
<path d="M11.9616 20.2321C16.4867 20.2321 20.1551 16.5638 20.1551 12.0387C20.1551 7.51354 16.4867 3.84521 11.9616 3.84521C7.43652 3.84521 3.76819 7.51354 3.76819 12.0387C3.76819 16.5638 7.43652 20.2321 11.9616 20.2321Z" fill="#F8BA3A"/>
<path fill-rule="evenodd" clip-rule="evenodd" d="M11.9616 3.66479C7.3368 3.66479 3.58765 7.41395 3.58765 12.0388C3.58765 16.6636 7.3368 20.4128 11.9616 20.4128C16.5864 20.4128 20.3356 16.6636 20.3356 12.0388C20.3356 7.41395 16.5864 3.66479 11.9616 3.66479ZM3.94873 12.0388C3.94873 7.61337 7.53622 4.02588 11.9616 4.02588C16.387 4.02588 19.9745 7.61337 19.9745 12.0388C19.9745 16.4642 16.387 20.0517 11.9616 20.0517C7.53622 20.0517 3.94873 16.4642 3.94873 12.0388Z" fill="white"/>
<path d="M14.9543 19.6983C18.04 18.5232 20.2323 15.537 20.2323 12.0388C20.2323 7.62798 16.747 4.03124 12.3802 3.85229L11.3422 12.1937H12.4261L12.0002 20.2272L14.9543 19.6983Z" fill="white"/>
<path d="M18.9142 8.02435C19.3716 8.23785 19.738 8.56664 19.798 9.05487C19.8687 9.63098 19.7738 10.5033 19.5142 11.2528C19.3837 11.6298 19.2047 11.9959 18.9671 12.2835C18.7285 12.5723 18.4131 12.8015 18.0156 12.8503C16.0541 13.0911 14.4301 12.9376 13.2358 12.291C12.6059 11.9499 12.1091 11.4793 11.7491 10.8818C11.6994 11.1353 11.6239 11.3943 11.5124 11.6497C10.9969 12.8306 9.76351 13.8635 7.11106 14.1892C6.21123 14.2997 5.48089 13.8787 4.96883 13.2537C4.46176 12.6348 4.14872 11.7977 4.04937 10.9886C3.97745 10.4028 4.1756 9.91981 4.57938 9.54036C4.96593 9.17709 5.53199 8.91564 6.1987 8.71018C7.52624 8.30109 9.41239 8.06951 11.5264 7.80995L11.5582 7.80604C13.7082 7.54207 15.664 7.45501 17.1124 7.6024C17.8339 7.67581 18.4541 7.8096 18.9142 8.02435Z" fill="#01C1AE"/>
<path d="M12.087 17.2503C13.8824 17.1038 15.2292 15.6544 15.0953 14.0129L8.59375 14.5434C8.72767 16.1848 10.2917 17.3968 12.087 17.2503Z" fill="white" stroke="#FE9D51" stroke-width="0.300901" stroke-linejoin="round"/>
<path d="M12.9289 15.4839H14.7095" stroke="#FE9A54" stroke-width="0.240721" stroke-linecap="round" stroke-linejoin="round"/>
<path fill-rule="evenodd" clip-rule="evenodd" d="M11.8453 9.25142C11.9485 9.88369 12.5034 11.2798 13.8969 11.8063C15.6389 12.4643 17.7292 12.3482 18.2712 12.0772C18.8131 11.8063 19.2002 10.1805 19.084 9.0966C18.9679 8.47724 17.5356 8.28369 15.1744 8.28369C12.8131 8.28369 11.8453 8.3998 11.8453 9.25142ZM11.1486 9.17419C11.497 10.3742 10.9163 11.7954 9.79802 12.5324C8.40021 13.4537 6.74538 13.5236 6.23247 13.3161C5.71957 13.1086 4.83889 11.9029 4.76151 10.7613C4.60667 10.0645 6.00021 9.2679 7.81957 8.98064C9.86074 8.65835 10.9502 8.49072 11.1486 9.17419Z" fill="black"/>
<path d="M13.8969 11.8063L13.8863 11.8344L13.8969 11.8063ZM11.8453 9.25142H11.8148L11.8156 9.25627L11.8453 9.25142ZM18.2712 12.0772L18.2846 12.1042L18.2846 12.1042L18.2712 12.0772ZM19.084 9.0966L19.114 9.09338L19.1136 9.09105L19.084 9.0966ZM9.79802 12.5324L9.78146 12.5073L9.78146 12.5073L9.79802 12.5324ZM11.1486 9.17419L11.1775 9.1658V9.1658L11.1486 9.17419ZM6.23247 13.3161L6.24376 13.2882L6.23247 13.3161ZM4.76151 10.7613L4.79188 10.7592L4.79089 10.7548L4.76151 10.7613ZM7.81957 8.98064L7.82426 9.01037L7.82426 9.01037L7.81957 8.98064ZM13.9075 11.7781C12.5281 11.257 11.9773 9.87332 11.875 9.24658L11.8156 9.25627C11.9197 9.89406 12.4786 11.3026 13.8863 11.8344L13.9075 11.7781ZM18.2577 12.0503C18.1269 12.1157 17.8987 12.1733 17.6001 12.2119C17.3025 12.2504 16.9375 12.2697 16.5348 12.2601C15.7291 12.2408 14.7746 12.1056 13.9075 11.7781L13.8863 11.8344C14.7612 12.1649 15.7228 12.3008 16.5333 12.3202C16.9387 12.3299 17.3067 12.3105 17.6079 12.2716C17.9081 12.2328 18.1445 12.1742 18.2846 12.1042L18.2577 12.0503ZM19.0541 9.0998C19.1117 9.63745 19.0445 10.3112 18.8952 10.8842C18.8206 11.1706 18.7258 11.4307 18.6166 11.6354C18.5068 11.8412 18.3847 11.9868 18.2577 12.0503L18.2846 12.1042C18.4286 12.0322 18.5581 11.873 18.6697 11.6638C18.7818 11.4536 18.8781 11.1887 18.9535 10.8993C19.1042 10.3208 19.1725 9.63964 19.1139 9.09339L19.0541 9.0998ZM15.1744 8.31378C16.3547 8.31378 17.3007 8.3622 17.9655 8.48745C18.2981 8.55011 18.5581 8.63161 18.7415 8.73453C18.9246 8.83735 19.0277 8.95932 19.0544 9.10214L19.1136 9.09105C19.0823 8.9242 18.9627 8.78972 18.7709 8.68205C18.5793 8.57448 18.3119 8.49147 17.9767 8.42831C17.306 8.30196 16.3553 8.2536 15.1744 8.2536V8.31378ZM11.8754 9.25142C11.8754 9.04479 11.9339 8.88594 12.055 8.76196C12.177 8.63699 12.3657 8.54449 12.6317 8.47737C13.1645 8.34298 13.9928 8.31378 15.1744 8.31378V8.2536C13.9946 8.2536 13.1584 8.28245 12.617 8.41902C12.346 8.48739 12.1451 8.5836 12.0119 8.71991C11.8778 8.85722 11.8152 9.03225 11.8152 9.25142H11.8754ZM9.81458 12.5576C10.9426 11.8142 11.53 10.3799 11.1775 9.1658L11.1197 9.18258C11.464 10.3684 10.8901 11.7767 9.78146 12.5073L9.81458 12.5576ZM6.22119 13.344C6.35414 13.3978 6.55778 13.4325 6.80841 13.4408C7.05966 13.4491 7.36025 13.4309 7.68826 13.3772C8.3442 13.27 9.11153 13.0209 9.81458 12.5576L9.78146 12.5073C9.0867 12.9652 8.3277 13.2117 7.67855 13.3179C7.35402 13.3709 7.05737 13.3888 6.8104 13.3807C6.56281 13.3725 6.36726 13.3382 6.24376 13.2882L6.22119 13.344ZM4.73149 10.7633C4.77061 11.3405 5.01247 11.9321 5.30816 12.405C5.45611 12.6416 5.61799 12.8492 5.77558 13.0109C5.9327 13.1722 6.08735 13.2899 6.22119 13.344L6.24376 13.2882C6.12114 13.2386 5.97337 13.1277 5.81869 12.9689C5.66448 12.8106 5.50518 12.6065 5.35918 12.3731C5.06696 11.9058 4.82979 11.3237 4.79153 10.7593L4.73149 10.7633ZM7.81487 8.95092C6.90256 9.09497 6.09558 9.36688 5.53514 9.69134C5.25503 9.85351 5.03492 10.0297 4.89438 10.2111C4.75372 10.3926 4.69085 10.582 4.73214 10.7678L4.79089 10.7548C4.75476 10.5922 4.80801 10.4207 4.94195 10.2479C5.07599 10.075 5.28895 9.90341 5.56529 9.74343C6.11775 9.42358 6.91722 9.15358 7.82426 9.01037L7.81487 8.95092ZM11.1775 9.1658C11.1254 8.98614 11.0139 8.86183 10.8445 8.78301C10.6767 8.70494 10.453 8.6718 10.1753 8.67017C9.61992 8.66691 8.83432 8.78996 7.81487 8.95092L7.82426 9.01037C8.84598 8.84904 9.62569 8.72713 10.1749 8.73035C10.4495 8.73196 10.663 8.76491 10.8191 8.83757C10.9736 8.90947 11.0727 9.02051 11.1197 9.18258L11.1775 9.1658Z" fill="black"/>
<path d="M19.4711 5.57397L20.1507 7.41056L21.9872 8.09013L20.1507 8.76971L19.4711 10.6062L18.7915 8.76971L16.955 8.09013L18.7915 7.41056L19.4711 5.57397Z" fill="white"/>
<defs>
<linearGradient id="paint0_linear_5203_10612" x1="12" y1="0" x2="12" y2="24" gradientUnits="userSpaceOnUse">
<stop stop-color="#F5B745"/>
<stop offset="1" stop-color="#FC8B47"/>
</linearGradient>
</defs>
</svg>
