<svg width="24" height="24" viewBox="0 0 24 24" fill="none" xmlns="http://www.w3.org/2000/svg">
<path d="M12 24C18.6274 24 24 18.6274 24 12C24 5.37257 18.6274 0 12 0C5.37257 0 0 5.37257 0 12C0 18.6274 5.37257 24 12 24Z" fill="white"/>
<path fill-rule="evenodd" clip-rule="evenodd" d="M6.16909 6.20869C6.61589 5.75893 7.22245 5.50417 7.8564 5.5H18.5285C18.5285 6.13396 18.2777 6.74219 17.8309 7.19194C17.3841 7.6417 16.7776 7.89646 16.1436 7.90063H10.8315C11.5009 7.91646 12.1397 8.18832 12.6156 8.66153C13.1055 9.14874 13.3829 9.80987 13.3874 10.5008V16.2371H13.3881C13.3881 17.9087 13.5429 18.8184 15.0527 18.9782C14.539 19.3544 13.909 19.5369 13.2737 19.4937C12.9479 19.5075 12.6226 19.4547 12.3179 19.3386C12.0131 19.2225 11.7352 19.0455 11.5011 18.8184C11.267 18.5913 11.0816 18.3189 10.9562 18.0178C10.8309 17.7168 10.7682 17.3933 10.772 17.0672V7.90063H5.47156C5.47154 7.26667 5.7223 6.65844 6.16909 6.20869Z" fill="black"/>
</svg>
