<svg width="24" height="24" viewBox="0 0 24 24" fill="none" xmlns="http://www.w3.org/2000/svg">
<g clip-path="url(#clip0_3662_1114)">
<path d="M12 24C18.6274 24 24 18.6274 24 12C24 5.37257 18.6274 0 12 0C5.37257 0 0 5.37257 0 12C0 18.6274 5.37257 24 12 24Z" fill="#7B2BF9"/>
<path fill-rule="evenodd" clip-rule="evenodd" d="M20.2514 12.2454C20.2497 12.3011 20.1738 12.3159 20.1518 12.2645C20.1424 12.2423 20.1328 12.22 20.123 12.1978C20.1051 12.1571 20.1101 12.1097 20.1369 12.0741C20.1424 12.0668 20.1536 12.0521 20.167 12.0345C20.2031 11.9873 20.2552 11.9944 20.2552 12.0467C20.2552 12.1155 20.2536 12.175 20.2514 12.2454ZM19.8519 11.1543C19.7903 11.2651 19.6326 11.2702 19.5643 11.1633C19.3118 10.7702 19.0165 10.3803 18.6861 10.0039C18.6084 9.91531 18.672 9.77634 18.7898 9.77626H18.7927C19.5322 9.77626 19.9199 9.95894 20.0383 10.182C20.137 10.3686 20.1067 10.6949 19.8519 11.1543ZM19.6866 15.0218C19.6469 15.1228 19.6054 15.223 19.5618 15.3224C19.2928 15.8635 18.8284 16.2925 18.2022 16.5871C18.0652 16.6514 17.9154 16.5261 17.9562 16.3804C18.1589 15.655 18.3123 14.8684 18.4117 14.0436C18.4302 13.8899 18.506 13.7487 18.6232 13.6474C18.8742 13.4302 19.1087 13.2134 19.3243 12.998L19.3266 12.9956C19.4327 12.8897 19.6137 12.9353 19.6569 13.0789C19.87 13.7871 19.8818 14.4467 19.6866 15.0218ZM18.0274 17.6408C17.8573 17.8227 17.6773 17.998 17.492 18.1633C17.4178 18.2295 17.3055 18.1467 17.3475 18.0566C17.4095 17.9234 17.4693 17.7852 17.5269 17.6439C17.5379 17.6171 17.5611 17.597 17.5892 17.5898C17.7063 17.5601 17.8204 17.5273 17.9315 17.4914C18.0216 17.4625 18.0922 17.5716 18.0274 17.6408ZM16.809 16.986C16.5626 17.0216 16.3035 17.0447 16.0325 17.0543C15.3711 17.0774 14.6718 17.0204 13.9534 16.8881C13.8658 16.872 13.849 16.7536 13.9284 16.7134C14.0851 16.6341 14.2419 16.553 14.3986 16.4699C15.4978 15.8873 16.5234 15.2505 17.4212 14.5975C17.4885 14.5486 17.5813 14.6064 17.5676 14.6885C17.4431 15.4368 17.2707 16.1412 17.0542 16.7807C17.0173 16.8896 16.9229 16.9694 16.809 16.986ZM16.5549 17.9829C15.9656 19.142 15.2398 19.7928 14.5363 19.7796C13.7716 19.766 13.0091 18.9697 12.4445 17.5951L12.4439 17.5936C12.3864 17.4539 12.5346 17.3144 12.6713 17.3529C13.8835 17.6931 15.1592 17.8781 16.4191 17.778C16.5286 17.7693 16.6048 17.885 16.5549 17.9829ZM13.0651 20.1871C12.7147 20.2321 12.3591 20.2552 12.0001 20.2552C10.3955 20.2552 8.86074 19.8004 7.54309 18.9519C7.45244 18.8935 7.49096 18.7528 7.5987 18.7479C7.62104 18.7468 7.64192 18.7457 7.66029 18.7446C7.99515 18.7228 8.3623 18.6737 8.76013 18.5971C9.60637 18.4343 10.5471 18.1551 11.532 17.779C11.6204 17.7453 11.7189 17.7891 11.7549 17.8765L11.7555 17.8781C12.1372 18.8075 12.607 19.5097 13.1345 19.9564C13.2217 20.0303 13.1784 20.1725 13.0651 20.1871ZM8.29123 14.403C9.01865 13.8107 9.87097 13.2197 10.8059 12.6601C10.826 13.8559 10.9571 15.004 11.1892 16.041C10.8424 15.8932 10.4967 15.7303 10.154 15.5523C9.49022 15.2073 8.86567 14.8209 8.29123 14.403ZM6.029 17.6072C5.85546 17.2798 6.07975 16.5213 7.21916 15.3687C7.33815 15.2485 7.3273 15.0506 7.19448 14.946C7.14883 14.9101 7.1035 14.8739 7.0585 14.8376C6.94502 14.7459 6.78079 14.7543 6.67775 14.8575C6.65516 14.8801 6.63833 14.8971 6.63339 14.9022C6.06381 15.4868 5.66517 16.028 5.44185 16.5148C5.37856 16.6527 5.18737 16.6676 5.10368 16.541C4.21972 15.2048 3.74491 13.6389 3.74491 12C3.74491 11.414 3.80578 10.8374 3.9242 10.2773C3.94209 10.1925 4.06164 10.1871 4.08673 10.27C4.258 10.8355 4.53676 11.4203 4.92196 12.0118C5.44048 12.8081 6.12427 13.5735 6.93457 14.2757C7.21115 14.5154 7.50327 14.7472 7.80793 14.9708C8.42552 15.424 9.0966 15.8422 9.81058 16.2132C10.1271 16.3777 10.4353 16.5346 10.751 16.6768C10.9267 16.7558 11.1267 16.762 11.3061 16.6916C11.4549 16.6333 11.6048 16.5727 11.7556 16.5096C11.9196 16.4412 12.0085 16.2624 11.9651 16.0901C11.9597 16.0686 11.9554 16.0512 11.9529 16.041C11.6392 14.7209 11.5267 13.3558 11.5508 12.0004C11.5818 10.2773 11.8456 8.64831 12.3033 7.30714C12.3405 7.19827 12.2825 7.0801 12.1736 7.04294C12.0675 7.00668 11.9614 6.97204 11.8556 6.93885C11.7485 6.90526 11.634 6.96305 11.5979 7.06933C11.1626 8.34699 10.8941 9.86278 10.8224 11.4668C10.8133 11.6703 10.7026 11.8555 10.5273 11.9593C9.57731 12.5224 8.70484 13.1192 7.95112 13.7209C7.79409 13.8462 7.5698 13.8415 7.41796 13.7098C6.66253 13.0548 6.02673 12.3434 5.5461 11.6053C4.6016 10.155 4.37715 8.78869 4.91428 7.75879C4.91573 7.75636 4.91703 7.75385 4.9184 7.7515C4.98688 7.63786 5.05811 7.52576 5.13225 7.41519C5.74943 6.59825 6.89815 6.12483 8.42163 6.07132C8.51803 6.06792 8.61508 6.06622 8.71302 6.06622C10.6447 6.06622 12.5985 6.68887 14.3001 7.57327C15.2514 8.0675 16.1222 8.64688 16.8799 9.28251C15.4337 9.61381 13.7528 10.2529 12.0626 11.1146C11.9847 11.1544 11.9334 11.2328 11.9284 11.3202C11.9225 11.425 11.9147 11.6356 11.9092 11.8029C11.9057 11.908 12.0168 11.9776 12.1099 11.9287L12.1109 11.9282C13.7842 11.0495 15.4543 10.3927 16.8885 10.0456C17.1566 9.98079 17.3301 9.72332 17.2925 9.45014C17.2661 9.25928 17.2364 9.07142 17.2035 8.88687C17.1623 8.65505 17.0353 8.44776 16.848 8.30514C16.1763 7.79343 15.436 7.32405 14.6435 6.91222C14.1095 6.63476 13.5676 6.39161 13.0245 6.18424C12.9084 6.13988 12.8586 6.0026 12.9192 5.89406C13.4787 4.89322 14.1441 4.3327 14.7924 4.3327C14.7991 4.3327 14.8058 4.3327 14.8125 4.33286C15.5772 4.34654 16.3396 5.14276 16.9043 6.51739C17.1901 7.21324 17.4116 8.0157 17.5629 8.88776L17.5606 8.88566C17.7449 9.94785 17.8174 11.0286 17.798 12.1121C17.79 12.5572 17.7663 12.996 17.728 13.4254C16.7049 14.2522 15.4401 15.0749 14.0497 15.8117C12.3432 16.7162 10.5171 17.5005 8.61937 17.8657C6.97796 18.1817 6.20505 17.9393 6.029 17.6072ZM7.20791 5.27648C8.59719 4.28163 10.2573 3.74482 12.0001 3.74482C12.46 3.74482 12.9141 3.78246 13.3591 3.85587C13.4782 3.87554 13.5182 4.02763 13.4232 4.10218C12.992 4.44019 12.5914 4.94033 12.2369 5.58891C12.1504 5.74715 11.9669 5.82453 11.7933 5.77564C10.6188 5.445 9.46318 5.28943 8.39549 5.3269C8.00162 5.34075 7.62865 5.38065 7.27825 5.44524C7.17983 5.46337 7.12657 5.33467 7.20791 5.27648ZM18.5396 11.2929C18.5371 11.1982 18.6585 11.1578 18.7134 11.2349C18.8705 11.4553 19.0139 11.6792 19.1393 11.8992C19.1839 11.9775 19.1732 12.0756 19.1125 12.1422C18.981 12.2867 18.8324 12.4399 18.6712 12.5953C18.6178 12.6469 18.5282 12.6076 18.5311 12.5333C18.5472 12.1205 18.5499 11.7023 18.5396 11.2929ZM17.6834 6.01272C17.7353 6.06193 17.7866 6.11196 17.8374 6.16271C18.6329 6.9582 19.2456 7.88773 19.6553 8.90006C19.6967 9.00213 19.61 9.10897 19.5016 9.08947C19.2645 9.04689 18.9978 9.02787 18.7024 9.03281C18.4977 9.03621 18.3198 8.89278 18.2839 8.69124C18.1234 7.79125 17.8913 6.9599 17.5933 6.23434C17.5763 6.19298 17.5591 6.1521 17.5417 6.11163C17.5038 6.02332 17.6137 5.94651 17.6834 6.01272ZM20.8057 10.1281C20.45 8.43829 19.6137 6.88567 18.364 5.63594C16.6641 3.93609 14.4041 3 12.0001 3C9.59609 3 7.33596 3.93609 5.63611 5.63594C5.22266 6.04939 4.85495 6.4961 4.53434 6.96977C4.43899 7.09669 4.35359 7.23073 4.27767 7.371C3.44486 8.75486 3.00009 10.3432 3.00009 12C3.00009 14.404 3.93626 16.664 5.63611 18.3639C7.33596 20.0638 9.59609 21 12.0001 21C14.4041 21 16.6641 20.0638 18.364 18.3639C19.1663 17.5617 19.7982 16.6346 20.2421 15.6265C20.2963 15.5148 20.3437 15.4005 20.3844 15.2838C20.7884 14.2513 21.0001 13.142 21.0001 12C21.0001 11.3632 20.9386 10.736 20.8057 10.1281Z" fill="white"/>
</g>
<defs>
<clipPath id="clip0_3662_1114">
<rect width="24" height="24" fill="white"/>
</clipPath>
</defs>
</svg>
