<svg width="24" height="24" viewBox="0 0 24 24" fill="none" xmlns="http://www.w3.org/2000/svg">
<circle cx="12" cy="12" r="12" fill="url(#paint0_linear_1_6524)"/>
<path d="M23.5 12C23.5 18.3513 18.3513 23.5 12 23.5C5.64873 23.5 0.5 18.3513 0.5 12C0.5 5.64873 5.64873 0.5 12 0.5C18.3513 0.5 23.5 5.64873 23.5 12ZM0.73 12C0.73 18.2242 5.77575 23.27 12 23.27C18.2242 23.27 23.27 18.2242 23.27 12C23.27 5.77575 18.2242 0.73 12 0.73C5.77575 0.73 0.73 5.77575 0.73 12Z" fill="url(#paint1_linear_1_6524)"/>
<path fill-rule="evenodd" clip-rule="evenodd" d="M9.32352 8.92641C9.45829 9.1061 9.40438 9.27681 9.17976 9.4026C9.05398 9.47448 8.79342 9.54636 8.66763 9.54636C8.52387 9.54636 8.35316 9.47448 8.23636 9.35768C8.15549 9.27681 7.01442 7.53376 7.01442 7.53376L5.89132 5.79968L6.95153 7.74041C6.95153 7.74041 7.86798 9.41159 7.86798 9.4655C7.86798 9.5823 7.83204 9.64519 7.68828 9.80692C7.44569 10.0765 7.33787 10.382 7.25701 11.0199C7.16716 11.7297 6.92457 12.2328 6.23274 13.0864C5.82842 13.5895 5.76553 13.6794 5.66669 13.886C5.54091 14.1376 5.50497 14.2814 5.487 14.6048C5.46903 14.9462 5.50497 15.1619 5.6038 15.4853C5.69365 15.7729 5.79248 15.9615 6.03507 16.3299C6.24172 16.6534 6.36751 16.896 6.36751 16.9858C6.36751 17.0577 6.38548 17.0577 6.70894 16.9858C7.48163 16.8061 8.11955 16.5006 8.46996 16.1233C8.6856 15.8897 8.73951 15.7639 8.73951 15.4404C8.73951 15.2338 8.73052 15.1888 8.67661 15.0631C8.58677 14.8654 8.41605 14.7037 8.04768 14.4521C7.5625 14.1196 7.35584 13.8501 7.30193 13.4907C7.25701 13.1852 7.31092 12.9786 7.58046 12.4125C7.85899 11.8285 7.93087 11.5859 7.9758 10.9929C8.00275 10.6156 8.04768 10.4628 8.15549 10.346C8.2723 10.2202 8.37113 10.1753 8.64966 10.1394C9.10789 10.0765 9.40439 9.95966 9.63799 9.73504C9.84464 9.54636 9.93449 9.35768 9.94348 9.07915L9.95246 8.8725L9.83566 8.74671C9.41337 8.26153 5.33725 4.75 5.33725 4.75C5.33725 4.75 8.82771 8.26532 9.32352 8.92641ZM6.60112 14.9912C6.69995 14.8205 6.64604 14.6048 6.48431 14.497C6.33157 14.3982 6.09797 14.4431 6.09797 14.5779C6.09797 14.6138 6.11594 14.6497 6.16985 14.6677C6.25071 14.7126 6.25969 14.7576 6.1968 14.8564C6.13391 14.9552 6.13391 15.0451 6.21477 15.108C6.34056 15.2068 6.51127 15.1529 6.60112 14.9912ZM9.46729 5.79068C9.27861 5.76373 9.26963 5.75474 9.35948 5.74576C9.53019 5.7188 9.92552 5.75474 10.2041 5.81764C10.851 5.97038 11.435 6.36571 12.0549 7.05754L12.2167 7.24622L12.4503 7.21028C13.4476 7.04856 14.4718 7.17435 15.3254 7.56968C15.559 7.6775 15.9274 7.89313 15.9723 7.94704C15.9903 7.96501 16.0172 8.08181 16.0352 8.19862C16.0981 8.6209 16.0711 8.93537 15.9364 9.17796C15.8645 9.31274 15.8645 9.34867 15.9094 9.46548C15.9454 9.55533 16.0532 9.61822 16.152 9.61822C16.3676 9.61822 16.5923 9.2768 16.7001 8.8006L16.745 8.61192L16.8259 8.70177C17.2841 9.2139 17.6435 9.9237 17.6974 10.4269L17.7154 10.5616L17.6345 10.4448C17.4997 10.2382 17.374 10.1034 17.2032 9.9866C16.8978 9.77995 16.5743 9.71705 15.7207 9.67213C14.948 9.6272 14.5078 9.56431 14.0765 9.42055C13.3398 9.17796 12.9624 8.86349 12.0909 7.70445C11.7045 7.19231 11.4619 6.91378 11.2193 6.68018C10.6892 6.16804 10.1591 5.8985 9.46729 5.79068ZM16.161 6.93179C16.179 6.59036 16.2239 6.36574 16.3227 6.15909C16.3587 6.07823 16.3946 6.00635 16.4036 6.00635C16.4126 6.00635 16.3946 6.06924 16.3676 6.14112C16.2958 6.33879 16.2868 6.61732 16.3317 6.93179C16.3946 7.3361 16.4216 7.39001 16.8528 7.83027C17.0505 8.03692 17.2841 8.29748 17.3739 8.4053L17.5267 8.60297L17.3739 8.45921C17.1853 8.27951 16.754 7.93809 16.6552 7.89316C16.5923 7.85722 16.5833 7.85722 16.5384 7.90215C16.5024 7.93809 16.4934 7.992 16.4934 8.25256C16.4844 8.65687 16.4305 8.90845 16.2958 9.16901C16.2239 9.30378 16.2149 9.27683 16.2778 9.12409C16.3227 9.00728 16.3317 8.95337 16.3317 8.56703C16.3317 7.78535 16.2419 7.59666 15.6938 7.2822C15.559 7.20133 15.3254 7.08453 15.1906 7.02164C15.0469 6.95874 14.9391 6.90483 14.948 6.90483C14.966 6.88686 15.4961 7.0396 15.7028 7.12945C16.0172 7.25524 16.0711 7.26423 16.1071 7.25524C16.134 7.22829 16.152 7.15641 16.161 6.93179ZM9.26961 6.33879C9.2157 6.94077 9.45829 7.74941 9.83565 8.27053C10.1322 8.67484 10.5904 8.98931 10.9318 9.02525C11.1564 9.04322 11.2193 8.97134 11.1205 8.82759C10.9767 8.62992 10.806 8.31545 10.7611 8.18068C10.7341 8.09981 10.6712 7.84824 10.6263 7.6326C10.4736 6.89585 10.3119 6.59935 9.95246 6.38371C9.81768 6.30285 9.53915 6.19503 9.37743 6.16808L9.28758 6.15011L9.26961 6.33879ZM15.7027 12.1789C13.9237 11.4601 13.2948 10.8402 13.2948 9.78896C13.2948 9.63622 13.3038 9.51043 13.3038 9.51043C13.3098 9.51043 13.3397 9.53438 13.383 9.56897L13.383 9.56899L13.383 9.56902L13.3831 9.56905C13.4047 9.58634 13.4296 9.60629 13.4565 9.62723C13.8159 9.91475 14.2202 10.0405 15.3434 10.2023C15.9992 10.3011 16.3766 10.373 16.718 10.4898C17.8052 10.8492 18.4791 11.5859 18.6408 12.5832C18.6857 12.8708 18.6588 13.4188 18.5869 13.7063C18.524 13.931 18.3443 14.3443 18.2994 14.3533C18.2904 14.3533 18.2724 14.3083 18.2724 14.2365C18.2544 13.8591 18.0658 13.4997 17.7513 13.2212C17.3739 12.8977 16.8887 12.6551 15.7027 12.1789ZM14.355 12.098C14.382 12.1699 14.4269 12.3406 14.4449 12.4754C14.5886 13.32 14.1484 14.0118 13.2589 14.2903C13.169 14.3263 12.8096 14.3982 12.4592 14.4521C11.7494 14.5779 11.426 14.6587 11.1115 14.8115C10.8869 14.9193 10.6083 15.081 10.6263 15.099C10.6353 15.108 10.6892 15.09 10.7431 15.072C11.1474 14.9283 11.5967 14.8564 12.2705 14.8204C12.4962 14.8054 12.7471 14.7841 12.8861 14.7722L12.9534 14.7665C13.5554 14.6857 13.9777 14.506 14.3011 14.1735C14.4808 13.9849 14.5886 13.8141 14.6785 13.5715C14.7324 13.4188 14.7414 13.3559 14.7414 13.0864C14.7414 12.8078 14.7414 12.7539 14.6785 12.5832C14.5976 12.3586 14.5078 12.1969 14.391 12.0621L14.3101 11.9633L14.355 12.098ZM15.2625 13.922C15.0289 13.4098 14.975 12.9247 15.1008 12.4664C15.1187 12.4215 15.1367 12.3766 15.1547 12.3766C15.1727 12.3766 15.2266 12.4035 15.2805 12.4395C15.3883 12.5114 15.6129 12.6371 16.1879 12.9516C16.9157 13.3469 17.329 13.6524 17.6165 14.0028C17.8681 14.3083 18.0209 14.6587 18.0927 15.09C18.1377 15.3326 18.1107 15.9166 18.0478 16.1592C17.8501 16.9229 17.4009 17.5339 16.745 17.8843C16.6462 17.9382 16.5653 17.9741 16.5563 17.9741C16.5473 17.9741 16.5833 17.8843 16.6372 17.7765C16.8528 17.3182 16.8798 16.878 16.718 16.3838C16.6192 16.0783 16.4126 15.71 15.9993 15.09C15.5051 14.3712 15.3883 14.1825 15.2625 13.922ZM10.806 15.5932C10.0513 15.719 9.23365 16.1143 8.56878 16.6714L8.3801 16.8511L8.55081 16.878C9.44929 17.0128 9.69188 17.1386 10.3208 17.7855C10.6802 18.1539 10.806 18.2347 11.1025 18.3156C11.5428 18.4324 11.974 18.2257 12.1268 17.8304C12.1897 17.6507 12.1807 17.3632 12.1088 17.2194C11.9291 16.869 11.399 16.7612 11.1474 17.0128C10.9408 17.2194 11.0037 17.5429 11.2642 17.5968C11.2886 17.6009 11.3019 17.6031 11.3026 17.601C11.3035 17.5985 11.2857 17.5896 11.2463 17.5698L11.2463 17.5698C11.1295 17.5159 11.0755 17.4441 11.0755 17.3272C11.0666 17.0487 11.381 16.905 11.6685 17.0307C11.8842 17.1296 11.965 17.2554 11.965 17.471C11.965 17.8034 11.6775 18.064 11.3451 18.0191C11.1654 17.9921 10.9498 17.8843 10.833 17.7495C10.5454 17.4261 10.6533 16.896 11.0666 16.6983C11.381 16.5456 11.7943 16.5905 12.1178 16.7971C12.4862 17.0397 12.6479 17.2554 12.9624 17.9831C13.0702 18.2257 13.196 18.4863 13.2589 18.5761C13.5554 19.0254 13.9237 19.25 14.355 19.25C14.5976 19.25 14.7773 19.2141 15.0019 19.0973C15.1636 19.0164 15.4062 18.8547 15.3883 18.8367C15.3883 18.8296 15.3436 18.8449 15.2851 18.8648L15.2355 18.8816C14.7593 19.0613 14.2741 19.0523 13.9956 18.8457C13.8159 18.7109 13.6722 18.4593 13.6003 18.1359L13.5915 18.0847C13.5744 17.986 13.5395 17.784 13.5104 17.5878C13.4116 16.9679 13.3128 16.6893 13.0971 16.3659C12.8725 16.0334 12.4412 15.7639 11.965 15.6381C11.6685 15.5572 11.1295 15.5393 10.806 15.5932ZM9.75479 10.7953C9.81769 10.5617 10.0243 10.328 10.24 10.2652C10.3837 10.2202 10.6623 10.2472 10.797 10.3191C11.0576 10.4538 11.2463 10.7503 11.2014 10.966C11.1564 11.2265 10.7341 11.4422 10.24 11.4422C9.9884 11.4422 9.89855 11.4062 9.79972 11.2804C9.73682 11.1996 9.71885 10.939 9.75479 10.7953ZM10.7252 10.4089C10.8599 10.4898 10.8869 10.6066 10.815 10.7144C10.7611 10.7863 10.5994 10.8582 10.4826 10.8582C10.3029 10.8582 10.1142 10.7324 10.1142 10.6156C10.1142 10.382 10.4826 10.2562 10.7252 10.4089Z" fill="#FF007A"/>
<defs>
<linearGradient id="paint0_linear_1_6524" x1="0" y1="0" x2="24" y2="24" gradientUnits="userSpaceOnUse">
<stop stop-color="white"/>
<stop offset="1" stop-color="#FFD4EC"/>
</linearGradient>
<linearGradient id="paint1_linear_1_6524" x1="0.5" y1="0.5" x2="23.5" y2="23.5" gradientUnits="userSpaceOnUse">
<stop stop-color="#F7EDF4"/>
<stop offset="1" stop-color="#F3BED7"/>
</linearGradient>
</defs>
</svg>
