<svg width="24" height="24" viewBox="0 0 24 24" fill="none" xmlns="http://www.w3.org/2000/svg">
<g clip-path="url(#clip0_5325_1608)">
<path d="M12 24C18.6273 24 24 18.6273 24 12C24 5.3727 18.6273 0 12 0C5.3727 0 0 5.3727 0 12C0 18.6273 5.3727 24 12 24Z" fill="#122A5F"/>
<path fill-rule="evenodd" clip-rule="evenodd" d="M18.6 12C18.6 8.355 15.645 5.4 12 5.4V3C12.6213 3 13.2279 3.063 13.8138 3.183C17.9148 4.0221 21 7.6509 21 12C21 16.9707 16.9707 21 12 21C8.08138 21 4.74749 18.4956 3.51208 15H6.11969C7.21199 17.1369 9.43498 18.6 12 18.6C15.645 18.6 18.6 15.645 18.6 12ZM4.03799 7.8C5.54699 10.6548 8.54638 12.6 12 12.6V10.2C9.04199 10.2 6.53879 8.2542 5.69999 5.5728C5.03439 6.225 4.47375 6.97629 4.03799 7.8ZM6.71519 4.7142C7.22849 7.1622 9.39958 9 12 9C13.6569 9 15 10.3431 15 12C15 13.6569 13.6569 15 12 15H7.50929C8.47829 16.4472 10.1277 17.4 12 17.4C14.9823 17.4 17.4 14.9823 17.4 12C17.4 9.0177 14.9823 6.6 12 6.6C10.3431 6.6 8.99998 5.2569 8.99998 3.6V3.5121C8.18443 3.80059 7.41487 4.20548 6.71519 4.7142Z" fill="white"/>
</g>
<defs>
<clipPath id="clip0_5325_1608">
<rect width="24" height="24" fill="white"/>
</clipPath>
</defs>
</svg>
