<svg width="24" height="24" viewBox="0 0 24 24" fill="none" xmlns="http://www.w3.org/2000/svg">
<g clip-path="url(#clip0_5396_11054)">
<path d="M12 0C18.627 0 24 5.373 24 12C24 18.627 18.627 24 12 24C5.373 24 0 18.627 0 12C0 5.373 5.373 0 12 0Z" fill="url(#paint0_linear_5396_11054)"/>
<path fill-rule="evenodd" clip-rule="evenodd" d="M14.9053 12.3797C16.172 11.9377 17.3658 11.1835 18.2782 10.3647L18.2788 10.3661C18.3144 10.3329 18.3363 10.2877 18.3405 10.2393C18.3446 10.1909 18.3306 10.1428 18.3012 10.104C18.2718 10.0653 18.229 10.0388 18.1812 10.0296C18.1333 10.0204 18.0838 10.0292 18.042 10.0542C17.1268 10.6014 16.1167 11.0346 15.0813 11.299C15.1122 10.9052 15.1057 10.509 15.0548 10.1149C14.9377 9.24001 14.6406 8.36577 14.0228 7.69992C13.3385 6.94298 12.2151 6.66007 11.2454 6.96298C10.0804 7.30937 9.10943 8.35887 9.07203 9.61123C9.02493 11.2603 10.5611 12.6045 12.1243 12.7556C12.3067 12.7755 12.4907 12.7852 12.6756 12.7855C12.3874 13.4154 12.0133 14.0172 11.6131 14.5744C10.3841 12.5471 8.54157 10.8865 6.35147 9.97831C5.8414 9.76252 5.31258 9.59368 4.77163 9.47392C4.58739 9.43596 4.41216 9.40216 4.21754 9.38077C4.17028 9.3763 4.12298 9.38883 4.0842 9.41609C4.04541 9.44335 4.01769 9.48354 4.00606 9.52939C3.99443 9.57524 3.99965 9.62372 4.02078 9.66607C4.04191 9.70842 4.07756 9.74183 4.12127 9.76027C5.34402 10.3649 6.46546 11.1544 7.44578 12.1008C8.71617 13.323 9.71701 14.7954 10.3845 16.4243C10.6789 17.1261 11.6021 17.3828 12.2199 16.9315C12.3148 16.8616 12.4014 16.7813 12.4783 16.692C13.0322 16.0917 13.5198 15.4337 13.9327 14.7297C14.3547 14.0102 14.7022 13.211 14.9053 12.3797ZM12.1643 15.5939L12.1645 15.5943L12.1804 15.6267C12.1753 15.6156 12.17 15.6046 12.1643 15.5939ZM13.1073 11.5485C13.204 11.1353 13.2521 10.7152 13.2367 10.2923C13.1958 9.53325 12.9036 8.46099 12.0011 8.44443C11.224 8.43546 10.5092 9.16962 10.7315 9.94933C11.0606 11.0873 12.0433 11.5023 13.1073 11.5485Z" fill="url(#paint1_linear_5396_11054)"/>
<path d="M18.8787 9.59057C18.9583 9.96179 19.0809 10.1971 19.439 10.1495C19.7465 10.1088 20 9.80032 20 9.49189C20 9.18346 19.7451 8.98404 19.439 9.03234C19.0504 9.09376 18.8136 9.28903 18.8787 9.59057Z" fill="url(#paint2_linear_5396_11054)"/>
</g>
<defs>
<linearGradient id="paint0_linear_5396_11054" x1="0" y1="0" x2="24" y2="24" gradientUnits="userSpaceOnUse">
<stop stop-color="#C5F0F3"/>
<stop offset="0.99982" stop-color="#F0FED5"/>
</linearGradient>
<linearGradient id="paint1_linear_5396_11054" x1="4" y1="6.84351" x2="19.9853" y2="17.1566" gradientUnits="userSpaceOnUse">
<stop stop-color="#44BCC3"/>
<stop offset="1" stop-color="#236D66"/>
</linearGradient>
<linearGradient id="paint2_linear_5396_11054" x1="4.00002" y1="6.84354" x2="19.9853" y2="17.1566" gradientUnits="userSpaceOnUse">
<stop stop-color="#44BCC3"/>
<stop offset="1" stop-color="#236D66"/>
</linearGradient>
<clipPath id="clip0_5396_11054">
<rect width="24" height="24" fill="white"/>
</clipPath>
</defs>
</svg>
