<svg width="24" height="24" viewBox="0 0 24 24" fill="none" xmlns="http://www.w3.org/2000/svg">
<g clip-path="url(#clip0_4406_1222)">
<path d="M12 24C18.6274 24 24 18.6274 24 12C24 5.37258 18.6274 0 12 0C5.37258 0 0 5.37258 0 12C0 18.6274 5.37258 24 12 24Z" fill="white"/>
<path d="M18.0696 16.056C17.7593 16.5959 17.3122 17.0443 16.7732 17.3561C16.2343 17.668 15.6227 17.8321 15 17.832H12.948V10.9176L9.98881 16.0584C9.67844 16.5984 9.23109 17.047 8.69192 17.3588C8.15276 17.6707 7.54086 17.8347 6.91801 17.8344H4.88161V7.62964H8.97841V14.5272L12.9492 7.63204V7.62964H17.0436V14.556L21.3456 7.08004C21.4317 6.93144 21.4756 6.76219 21.4726 6.5905C21.4696 6.41882 21.4199 6.25118 21.3288 6.10564C20.3195 4.50572 18.9155 3.19237 17.2519 2.29185C15.5884 1.39133 13.7211 0.933938 11.8296 0.96364C8.91727 0.99435 6.13638 2.18065 4.09865 4.26159C2.06091 6.34253 0.933217 9.14769 0.963612 12.06C0.979152 14.9769 2.14877 17.7689 4.21681 19.826C6.28486 21.883 9.08314 23.0377 12 23.0376C18.0744 23.0376 23.0364 18.0972 23.0364 12.0012C23.0367 11.0419 22.9116 10.0866 22.6644 9.15964C22.6485 9.0988 22.6149 9.04405 22.5679 9.00229C22.5209 8.96054 22.4626 8.93366 22.4003 8.92505C22.338 8.91645 22.2745 8.9265 22.218 8.95395C22.1614 8.98139 22.1142 9.02499 22.0824 9.07924L18.0684 16.0536L18.0696 16.056Z" fill="black"/>
</g>
<defs>
<clipPath id="clip0_4406_1222">
<rect width="24" height="24" fill="white"/>
</clipPath>
</defs>
</svg>
