<svg width="24" height="24" viewBox="0 0 24 24" fill="none" xmlns="http://www.w3.org/2000/svg">
<g clip-path="url(#clip0_4406_1222)">
<path d="M12 24C18.6274 24 24 18.6274 24 12C24 5.37258 18.6274 0 12 0C5.37258 0 0 5.37258 0 12C0 18.6274 5.37258 24 12 24Z" fill="white"/>
<path d="M12.3 21.5158C9.78241 21.5142 7.36827 20.5115 5.58727 18.7276C3.80627 16.9437 2.80386 14.5245 2.79999 12.0006C2.80386 9.4766 3.80621 7.0572 5.58719 5.27314C7.36816 3.48909 9.7823 2.48607 12.3 2.48413C14.8177 2.48607 17.2318 3.48909 19.0128 5.27314C20.7938 7.0572 21.7961 9.4766 21.8 12.0006C21.7961 14.5245 20.7938 16.9437 19.0128 18.7276C17.2317 20.5115 14.8176 21.5142 12.3 21.5158ZM12.3 3.21673C9.97602 3.21834 7.74756 4.14408 6.10355 5.79082C4.45957 7.43755 3.5343 9.67078 3.53076 12.0006C3.53302 14.3307 4.45791 16.5645 6.10222 18.2114C7.74652 19.8582 9.97572 20.7832 12.3 20.7832C14.6243 20.7832 16.8535 19.8582 18.4978 18.2114C20.1421 16.5645 21.067 14.3307 21.0692 12.0006C21.0657 9.67078 20.1404 7.43755 18.4964 5.79082C16.8524 4.14408 14.624 3.21834 12.3 3.21673Z" fill="url(#paint0_linear_4406_1222)"/>
<path d="M13.5011 20.0103C11.4153 20.0087 9.41532 19.1777 7.93986 17.6997C6.46438 16.2217 5.63396 14.2173 5.63074 12.1263C5.63396 10.0353 6.46438 8.03089 7.93986 6.5529C9.41532 5.07488 11.4153 4.24392 13.5011 4.24231C15.5869 4.24392 17.5869 5.07488 19.0624 6.5529C20.5379 8.03089 21.3683 10.0353 21.3715 12.1263C21.3683 14.2173 20.5379 16.2217 19.0624 17.6997C17.5869 19.1777 15.5869 20.0087 13.5011 20.0103ZM13.5011 4.8113C11.566 4.81291 9.71042 5.58397 8.34159 6.95531C6.97276 8.32665 6.20241 10.1863 6.19952 12.1263C6.20274 14.0661 6.97325 15.9254 8.34206 17.2965C9.71083 18.6676 11.5662 19.4384 13.5011 19.4401C15.4361 19.4384 17.2914 18.6676 18.6602 17.2965C20.029 15.9254 20.7995 14.0661 20.8027 12.1263C20.7995 10.1865 20.029 8.32714 18.6602 6.95607C17.2914 5.58501 15.4361 4.81414 13.5011 4.81252V4.8113Z" fill="url(#paint1_linear_4406_1222)"/>
<path d="M14.7017 18.5061C13.0478 18.5048 11.4619 17.8459 10.292 16.6739C9.12202 15.5019 8.46353 13.9126 8.46094 12.2546C8.46353 10.5965 9.12202 9.00719 10.292 7.83521C11.4619 6.66324 13.0478 6.00436 14.7017 6.00305C16.3557 6.00403 17.9418 6.66283 19.1118 7.83486C20.2818 9.00689 20.9402 10.5964 20.9425 12.2546C20.9399 13.9126 20.2814 15.5019 19.1114 16.6739C17.9415 17.8459 16.3556 18.5048 14.7017 18.5061ZM14.7017 6.40966C13.1553 6.41062 11.6723 7.02657 10.5784 8.12236C9.4844 9.21814 8.86875 10.7043 8.86651 12.2546C8.86908 13.8047 9.48489 15.2905 10.5788 16.386C11.6728 17.4815 13.1555 18.0973 14.7017 18.0983C16.248 18.0973 17.7307 17.4815 18.8246 16.386C19.9185 15.2905 20.5344 13.8047 20.537 12.2546C20.5347 10.7043 19.919 9.21814 18.825 8.12236C17.7311 7.02657 16.2482 6.41062 14.7017 6.40966Z" fill="url(#paint2_linear_4406_1222)"/>
<path d="M15.9028 17.0004C14.6808 16.9994 13.5091 16.5126 12.6446 15.6466C11.7802 14.7807 11.2936 13.6064 11.2917 12.3814C11.2933 11.1561 11.7797 9.98145 12.6442 9.11527C13.5087 8.24906 14.6806 7.76206 15.9028 7.76111C17.1251 7.76206 18.297 8.24906 19.1615 9.11527C20.026 9.98145 20.5123 11.1561 20.514 12.3814C20.512 13.6064 20.0255 14.7807 19.1611 15.6466C18.2966 16.5126 17.1249 16.9994 15.9028 17.0004ZM15.9028 8.0053C14.7452 8.00629 13.6352 8.46754 12.8164 9.28794C11.9976 10.1083 11.5369 11.2208 11.5353 12.3814C11.5372 13.5417 11.9981 14.6539 12.8169 15.474C13.6356 16.2941 14.7454 16.7552 15.9028 16.7562C17.0603 16.7552 18.17 16.2941 18.9888 15.474C19.8076 14.6539 20.2685 13.5417 20.2704 12.3814C20.2688 11.2208 19.8081 10.1083 18.9893 9.28794C18.1705 8.46754 17.0605 8.00629 15.9028 8.0053Z" fill="url(#paint3_linear_4406_1222)"/>
</g>
<defs>
<linearGradient id="paint0_linear_4406_1222" x1="21.9187" y1="19.3888" x2="0.968132" y2="5.236" gradientUnits="userSpaceOnUse">
<stop stop-color="#0F0C48"/>
<stop offset="1" stop-color="#262769"/>
</linearGradient>
<linearGradient id="paint1_linear_4406_1222" x1="21.4699" y1="18.248" x2="4.11246" y2="6.52323" gradientUnits="userSpaceOnUse">
<stop stop-color="#0F0C48"/>
<stop offset="1" stop-color="#262769"/>
</linearGradient>
<linearGradient id="paint2_linear_4406_1222" x1="21.0205" y1="17.1087" x2="7.25708" y2="7.81163" gradientUnits="userSpaceOnUse">
<stop stop-color="#0F0C48"/>
<stop offset="1" stop-color="#262769"/>
</linearGradient>
<linearGradient id="paint3_linear_4406_1222" x1="20.5716" y1="15.9678" x2="10.4014" y2="9.09869" gradientUnits="userSpaceOnUse">
<stop stop-color="#0F0C48"/>
<stop offset="1" stop-color="#262769"/>
</linearGradient>
<clipPath id="clip0_4406_1222">
<rect width="24" height="24" fill="white"/>
</clipPath>
</defs>
</svg>
