<svg width="24" height="24" viewBox="0 0 24 24" fill="none" xmlns="http://www.w3.org/2000/svg">
<g clip-path="url(#clip0_5679_4900)">
<path d="M12.0005 0C5.37312 0 0.000244141 5.37249 0.000244141 11.9998C0.000244141 18.6271 5.37273 24 12.0001 24C18.6274 24 24.0002 18.6276 24.0002 12.0003C24.0002 5.37295 18.6278 0 12.0005 0Z" fill="#97F0E5"/>
<path d="M10.0152 18.7291H7.50771V15.3858H6.67189V12.0425H5.83606V9.53505H5.00024V7.02759H6.67189V9.53505H7.50771V12.0425H8.34353V16.2216H9.17935V13.7142H10.0152V9.53505H10.851V7.02759H13.3585V9.53505H14.1943V13.7142H15.0301V16.2216H15.8834V12.0425H16.7017V9.53505H17.5376V7.02759H19.0002V9.53505H18.3734V12.0425H17.5376V15.3858H16.7017V18.7291H14.1943V17.0574H13.3585V13.7142H12.5226V9.53505H11.6868V13.7142H10.851V17.0574H10.0152V18.7291Z" fill="black"/>
</g>
<defs>
<clipPath id="clip0_5679_4900">
<rect width="24" height="24" fill="white"/>
</clipPath>
</defs>
</svg>
