<svg width="24" height="24" viewBox="0 0 24 24" fill="none" xmlns="http://www.w3.org/2000/svg">
<circle cx="12" cy="12" r="12" fill="white"/>
<path d="M15.7343 12.4748C16.101 11.8413 16.6928 11.8413 17.0596 12.4748L19.3435 16.4841C19.7103 17.1176 19.4102 17.6344 18.6767 17.6344H14.0755C13.3504 17.6344 13.0503 17.1176 13.4087 16.4841L15.7343 12.4748ZM11.3165 4.75624C11.6833 4.12276 12.2668 4.12276 12.6335 4.75624L13.142 5.67314L14.3423 7.78199C14.634 8.38213 14.634 9.09064 14.3423 9.69079L10.3163 16.6675C9.94953 17.2343 9.34104 17.5927 8.66588 17.6344H5.32339C4.58988 17.6344 4.2898 17.1259 4.65656 16.4841L11.3165 4.75624Z" fill="black"/>
</svg>
