<svg width="24" height="24" viewBox="0 0 24 24" fill="none" xmlns="http://www.w3.org/2000/svg">
<g clip-path="url(#clip0_2625_7109)">
<path d="M6.56773 24C12.7264 24 12.7264 23.9083 13.7706 23.5983C15.1353 23.1932 9.91767 19.5815 6.56773 19.5815C3.2178 19.5815 0.502136 20.5706 0.502136 21.7907C0.502136 23.0109 3.21793 24 6.56773 24Z" fill="black"/>
<path d="M20.5521 5.21346L20.8354 5.51872L20.5878 5.85355C12.5558 16.7134 7.92881 21.6305 5.96564 20.971C4.76987 20.5693 3.57068 19.3613 2.37146 17.6071C1.94994 16.9905 1.55412 16.3412 1.19412 15.6951C0.954396 15.2648 0.75149 14.8724 0.646137 14.6514C0.511745 14.3694 0.455006 14.1957 0.409991 13.9676C0.407244 13.9536 0.407244 13.9536 0.404635 13.9402C0.385846 13.8434 0.379346 13.8128 0.365301 13.7598C0.123614 12.8489 0 11.9052 0 10.9456C0 4.90052 4.90052 0 10.9456 0C12.8395 0 14.6645 0.481991 16.2819 1.38677L16.3237 1.4129C17.6479 2.33485 19.0565 3.60169 20.5521 5.21346ZM15.7702 2.25119C14.307 1.4374 12.6583 1.00418 10.9456 1.00418C5.45511 1.00418 1.00418 5.45511 1.00418 10.9456C1.00418 11.8181 1.11646 12.6753 1.3359 13.5023C1.3576 13.5841 1.36742 13.6303 1.39044 13.7489C1.39285 13.7614 1.39285 13.7614 1.39517 13.7732C1.42423 13.9204 1.45488 14.0143 1.55261 14.2193C1.64872 14.4209 1.84186 14.7944 2.07134 15.2063C2.41734 15.8273 2.79757 16.451 3.20045 17.0404C4.28392 18.6252 5.35845 19.7077 6.28541 20.0191C7.52173 20.4344 12.176 15.5076 19.5313 5.59277C18.1959 4.18326 16.9415 3.06939 15.7702 2.25119Z" fill="black"/>
<path d="M15.7702 2.25128C14.307 1.43749 12.6583 1.00427 10.9456 1.00427C5.45508 1.00427 1.00415 5.4552 1.00415 10.9457C1.00415 11.8182 1.11643 12.6753 1.33587 13.5024C1.35757 13.5842 1.36738 13.6304 1.3904 13.749C1.39282 13.7615 1.39282 13.7615 1.39514 13.7733C1.42419 13.9205 1.45484 14.0143 1.55258 14.2194C1.64869 14.421 1.84183 14.7945 2.0713 15.2064C2.41731 15.8274 2.79754 16.4511 3.20042 17.0404C4.28389 18.6253 5.35841 19.7078 6.28538 20.0192C7.52169 20.4345 12.1759 15.5077 19.5312 5.59286C18.1959 4.18335 16.9414 3.06948 15.7702 2.25128Z" fill="#EC1C79"/>
<path d="M12.954 23.8995C6.90888 23.8995 2.00836 18.999 2.00836 12.9539C2.00836 6.90882 6.90888 2.0083 12.954 2.0083C18.9991 2.0083 23.8996 6.90882 23.8996 12.9539C23.8996 18.999 18.9991 23.8995 12.954 23.8995ZM12.954 22.8953C18.4445 22.8953 22.8954 18.4444 22.8954 12.9539C22.8954 7.46341 18.4445 3.01248 12.954 3.01248C7.46347 3.01248 3.01255 7.46341 3.01255 12.9539C3.01255 18.4444 7.46347 22.8953 12.954 22.8953Z" fill="black"/>
<path d="M12.9539 22.8954C18.4444 22.8954 22.8954 18.4445 22.8954 12.954C22.8954 7.4635 18.4444 3.01257 12.9539 3.01257C7.46344 3.01257 3.01251 7.4635 3.01251 12.954C3.01251 18.4445 7.46344 22.8954 12.9539 22.8954Z" fill="white"/>
<path fill-rule="evenodd" clip-rule="evenodd" d="M5.51742 14.9904L4.20154 11.0259H5.35434L6.0404 13.3034L6.79956 11.0146H7.73868L8.49784 13.3034L9.1839 11.0259H10.3142L8.99832 14.9904H8.04796L7.25506 12.7242L6.46778 14.9904H5.51742ZM10.7472 14.9623V11.0259H13.9132V11.9538H11.8269V12.5498H13.7164V13.4102H11.8269V14.0344H13.9413V14.9623H10.7472ZM15.4596 14.9623V11.9819H14.2787V11.0259H17.7315V11.9819H16.5506V14.9623H15.4596ZM18.2095 14.9623V11.0259H19.3005V12.4992H20.7007V11.0259H21.7916V14.9623H20.7007V13.4665H19.3005V14.9623H18.2095Z" fill="black"/>
<path d="M0.652287 9.84181C0.374502 9.70292 0.261907 9.36513 0.4008 9.08735C0.539693 8.80956 0.877477 8.69697 1.15526 8.83586L2.76196 9.63921C3.03974 9.7781 3.15234 10.1159 3.01344 10.3937C2.87455 10.6715 2.53677 10.784 2.25898 10.6452L0.652287 9.84181Z" fill="black"/>
<path d="M0.467277 12.5059C0.185286 12.3758 0.0621886 12.0417 0.192331 11.7597C0.322473 11.4777 0.656573 11.3546 0.938564 11.4848L2.54526 12.2263C2.82725 12.3564 2.95035 12.6905 2.8202 12.9725C2.69006 13.2545 2.35596 13.3776 2.07397 13.2474L0.467277 12.5059Z" fill="black"/>
</g>
<defs>
<clipPath id="clip0_2625_7109">
<rect width="24" height="24" fill="white"/>
</clipPath>
</defs>
</svg>
