<svg width="24" height="24" viewBox="0 0 24 24" fill="none" xmlns="http://www.w3.org/2000/svg">
<path d="M24.0002 11.7399C24.0002 18.2927 19.3505 23.953 12.4106 23.953C5.78316 23.953 0.000183105 18.2927 0.000183105 11.7399C0.000183105 5.18715 5.68799 0.0469971 12.0002 0.0469971C18.6276 0.0469971 24.0002 5.18715 24.0002 11.7399Z" fill="#231F20"/>
<path fill-rule="evenodd" clip-rule="evenodd" d="M12.4106 23.953C19.3505 23.953 24.0002 18.2927 24.0002 11.7399C24.0002 5.18715 18.6276 0.0469971 12.0002 0.0469971C5.68799 0.0469971 0.000183105 5.18715 0.000183105 11.7399C0.000183105 18.2927 5.78316 23.953 12.4106 23.953ZM12.4106 22.5189C18.4322 22.5189 22.5661 17.6332 22.5661 11.7399C22.5661 6.66717 17.9012 1.18484 11.3417 1.18484C6.41038 1.18484 1.67188 6.39168 1.67188 11.7399C1.67188 17.4768 6.55106 22.5189 12.4106 22.5189ZM2.73148 4.90292C4.79534 2.20404 6.84449 1.04732 9.87697 0.572284C6.46431 1.60195 5.06928 2.49511 2.73148 4.90292ZM16.8575 2.05121C21.2282 4.20165 23.7951 9.51258 22.6038 13.7455C23.3686 9.21103 21.1125 4.65611 16.8575 2.05121ZM5.85937 21.5713C0.349484 17.6318 -1.49631 10.4965 3.02183 5.01415C-1.06749 11.1527 0.625001 17.0533 5.85937 21.5713ZM8.33982 22.1999C3.73811 20.6026 0.538413 15.6471 1.20082 11.2999C0.998734 15.894 3.79711 20.1373 8.33982 22.1999ZM15.0956 22.9831C12.171 24.1619 8.75725 23.6208 6.69179 22.1947C9.29845 23.6346 12.1434 23.8217 15.0956 22.9831ZM22.0875 18.0364C20.849 20.3122 19.4229 21.3566 16.4214 22.6808C18.9019 21.4573 20.849 19.9407 22.0875 18.0364ZM23.4669 10.5419C23.8939 12.5074 23.3382 15 22.4651 16.6193C23.2112 14.5554 23.583 12.7355 23.4669 10.5419ZM22.1097 6.52969C23.1267 7.77627 23.5638 8.91132 23.7442 10.5419C23.5276 9.20231 22.8629 7.61761 22.1097 6.52969Z" fill="#8A93B2"/>
<path d="M15.5162 18.25L13.1914 17.9043L13.8568 13.4102L8.9911 17.1553L7.56219 15.2856L11.8287 11.9986L7.56219 8.71439L8.9911 6.84472L13.8568 10.5898L13.1914 6.0957L15.5162 5.75L16.4381 11.9986L15.5162 18.25Z" fill="white"/>
</svg>
