<svg width="24" height="24" viewBox="0 0 24 24" fill="none" xmlns="http://www.w3.org/2000/svg">
<g clip-path="url(#clip0_4046_1144)">
<path d="M24 12C24 5.37258 18.6274 0 12 0C5.37258 0 0 5.37258 0 12C0 18.6274 5.37258 24 12 24C18.6274 24 24 18.6274 24 12Z" fill="white"/>
<path d="M21.1984 8.11354C20.6922 6.92576 19.9766 5.86026 19.0515 4.9345C18.1264 4.00873 17.0792 3.29258 15.8923 2.78602C14.6531 2.26201 13.344 2 12 2C10.6386 2 9.3295 2.26201 8.10769 2.78602C6.92079 3.29258 5.85609 4.00873 4.93101 4.9345C4.00593 5.86026 3.29031 6.92576 2.78413 8.11354C2.2605 9.33625 1.99869 10.6463 1.99869 12.0087C1.99869 13.3537 2.2605 14.6637 2.78413 15.9039C3.29031 17.0917 4.00593 18.1572 4.93101 19.083C5.85609 20.0087 6.92079 20.7249 8.10769 21.214C9.34694 21.738 10.656 22 12 22C13.344 22 14.6531 21.738 15.8923 21.214C17.0792 20.7074 18.1439 19.9912 19.069 19.0655C19.9941 18.1397 20.7097 17.0743 21.2159 15.8864C21.7395 14.6463 22.0013 13.3363 22.0013 11.9913C22.0013 10.6463 21.7221 9.33625 21.1984 8.11354ZM8.68369 11.0655C9.08513 9.4585 10.5513 8.28819 12.2793 8.28819H19.2261C19.6799 9.14412 19.9591 10.0873 20.0639 11.0655H8.68369ZM20.0639 12.9519C19.9591 13.9301 19.6624 14.8734 19.2261 15.7292H12.2793C10.5513 15.7292 9.10256 14.5415 8.68369 12.9519H20.0639ZM6.25753 6.26201C7.79351 4.72489 9.83569 3.88646 12 3.88646C14.1643 3.88646 16.2065 4.72489 17.7424 6.26201C17.7948 6.31441 17.8298 6.34934 17.8821 6.40175H12.2793C10.7782 6.40175 9.38188 6.97817 8.31713 8.04367C7.47933 8.88213 6.93825 9.93012 6.76371 11.0655H3.93611C4.14556 9.24894 4.94846 7.57205 6.25753 6.26201ZM12 20.131C9.83569 20.131 7.79351 19.2926 6.25753 17.7554C4.94846 16.4454 4.14556 14.7511 3.93611 12.9519H6.76371C6.95571 14.0873 7.49679 15.1354 8.31713 15.9738C9.38188 17.0393 10.7782 17.6158 12.2793 17.6158H17.8821C17.8298 17.6681 17.7948 17.7031 17.7424 17.7554C16.2065 19.2926 14.1643 20.131 12 20.131Z" fill="black"/>
</g>
<defs>
<clipPath id="clip0_4046_1144">
<rect width="24" height="24" fill="white"/>
</clipPath>
</defs>
</svg>
