<svg width="24" height="24" viewBox="0 0 24 24" fill="none" xmlns="http://www.w3.org/2000/svg">
<g clip-path="url(#clip0_3943_1163)">
<path d="M24 12C24 5.37258 18.6274 0 12 0C5.37258 0 0 5.37258 0 12C0 18.6274 5.37258 24 12 24C18.6274 24 24 18.6274 24 12Z" fill="black"/>
<path d="M11.9998 4C11.3988 4.003 10.8044 4.12497 10.2504 4.35898C9.69632 4.59299 9.19357 4.93447 8.7708 5.36387C8.34803 5.79325 8.01354 6.30218 7.78641 6.86155C7.55928 7.42094 7.44398 8.01982 7.44708 8.62401V10.1514H11.1462V7.93854C11.1461 7.83462 11.1665 7.73171 11.206 7.63569C11.2455 7.53967 11.3035 7.45243 11.3765 7.37894C11.4496 7.30545 11.5364 7.24718 11.6319 7.20742C11.7274 7.16765 11.8297 7.1472 11.9331 7.14722H12.0665C12.1698 7.1472 12.2722 7.16765 12.3677 7.20742C12.4632 7.24718 12.5499 7.30545 12.6231 7.37894C12.6961 7.45242 12.7541 7.53967 12.7937 7.63569C12.8332 7.73171 12.8535 7.83462 12.8535 7.93854V13.8706C13.3393 13.8706 13.8203 13.7744 14.2691 13.5875C14.7179 13.4006 15.1257 13.1266 15.4692 12.7813C15.8127 12.4359 16.0852 12.0259 16.2711 11.5747C16.457 11.1234 16.5526 10.6398 16.5526 10.1514V8.62401C16.5553 7.39985 16.0758 6.22439 15.219 5.35457C14.7987 4.92533 14.2976 4.58451 13.7448 4.35195C13.1922 4.1194 12.5989 3.99975 11.9998 4Z" fill="white"/>
<path d="M12.0666 16.8733H11.9333C11.8299 16.8733 11.7276 16.8529 11.6321 16.8131C11.5366 16.7734 11.4499 16.7151 11.3768 16.6416C11.3037 16.5681 11.2457 16.4809 11.2062 16.3849C11.1667 16.2889 11.1463 16.186 11.1463 16.0821V10.1501C10.6606 10.1501 10.1795 10.2462 9.73071 10.4331C9.2819 10.62 8.87411 10.894 8.53061 11.2393C8.18711 11.5847 7.91463 11.9947 7.72875 12.446C7.54287 12.8972 7.44722 13.3809 7.44726 13.8693V15.3754C7.4411 15.9805 7.55431 16.5808 7.78034 17.1416C8.00637 17.7024 8.34075 18.2126 8.76412 18.6426C9.1875 19.0727 9.69147 19.4141 10.2469 19.6471C10.8023 19.8801 11.3982 20 12 20C12.6019 20 13.1977 19.8801 13.7532 19.6471C14.3086 19.4141 14.8126 19.0727 15.2359 18.6426C15.6593 18.2126 15.9937 17.7024 16.2197 17.1416C16.4458 16.5808 16.5589 15.9805 16.5528 15.3754V13.8693H12.8537V16.0821C12.8537 16.186 12.8333 16.2889 12.7938 16.3849C12.7542 16.4809 12.6962 16.5682 12.6232 16.6416C12.5501 16.7151 12.4633 16.7734 12.3678 16.8131C12.2723 16.8529 12.17 16.8733 12.0666 16.8733Z" fill="white"/>
</g>
<defs>
<clipPath id="clip0_3943_1163">
<rect width="24" height="24" fill="white"/>
</clipPath>
</defs>
</svg>
