<svg width="24" height="24" viewBox="0 0 24 24" fill="none" xmlns="http://www.w3.org/2000/svg">
<path d="M1.60815 5.99997L12.0001 11.9999L22.392 5.99997L12.0001 0L1.60815 5.99997Z" fill="#EE2F51"/>
<path d="M1.60815 5.99997L12.0001 11.9999V24L1.60815 18V5.99997Z" fill="#C32942"/>
<path d="M22.392 5.99997L12.0001 11.9999V24L22.392 18V5.99997Z" fill="#7D1729"/>
<path d="M5.07421 16L8.53776 14V18L5.07421 16Z" fill="#EE2F51"/>
<path d="M8.53651 14L5.07171 11.9999V16L8.53651 14Z" fill="#7D1729"/>
<path d="M18.9259 16L15.4623 14V18L18.9259 16Z" fill="#EE2F51"/>
<path d="M15.4636 14L18.9285 11.9999V16L15.4636 14Z" fill="#C32942"/>
<path d="M8.5365 6.00005L12.0001 4.00006V8.00004L8.5365 6.00005Z" fill="#7D1729"/>
<path d="M15.4636 6.00005L12.0001 4.00006V8.00004L15.4636 6.00005Z" fill="#C32942"/>
</svg>
