<svg width="24" height="24" viewBox="0 0 24 24" fill="none" xmlns="http://www.w3.org/2000/svg">
<g clip-path="url(#clip0_2066_7299)">
<rect width="24" height="24" rx="4" fill="#2C374B"/>
<g clip-path="url(#clip1_2066_7299)">
<path d="M14.0281 11.2474L15.35 9.00443L18.913 14.554L18.9147 15.619L18.9031 8.29032C18.8947 8.11117 18.7995 7.94728 18.6478 7.85064L12.233 4.16075C12.0829 4.08701 11.8926 4.08779 11.7428 4.16304C11.7226 4.1732 11.7036 4.18421 11.6854 4.19622L11.6631 4.21029L5.43646 7.81858L5.41227 7.82953C5.38122 7.84383 5.34982 7.86198 5.32033 7.8831C5.2023 7.96778 5.12387 8.09296 5.09851 8.23339C5.09471 8.25468 5.09192 8.27635 5.09057 8.29819L5.10035 14.2704L8.41917 9.12638C8.837 8.44427 9.74741 8.22457 10.5925 8.23652L11.5844 8.26272L5.74012 17.6353L6.42904 18.032L12.3434 8.27222L14.9575 8.26272L9.05843 18.2688L11.8104 19.8516C11.9347 19.9021 12.0811 19.9046 12.2064 19.8594L18.7114 16.0897L17.4677 16.8104L14.0281 11.2474ZM14.5324 18.5114L12.0495 14.6145L13.5652 12.0426L16.826 17.1822L14.5324 18.5114Z" fill="#2D374B"/>
<path d="M12.0495 14.6145L14.5324 18.5114L16.826 17.1822L13.5652 12.0426L12.0495 14.6145Z" fill="#28A0F0"/>
<path d="M18.9147 15.619L18.913 14.554L15.35 9.00443L14.0281 11.2474L17.4677 16.8104L18.7114 16.0897C18.8334 15.9907 18.9072 15.8453 18.9149 15.6884L18.9147 15.619Z" fill="#28A0F0"/>
<path d="M3.98382 16.6234L5.74012 17.6353L11.5844 8.26272L10.5925 8.23652C9.74741 8.22457 8.837 8.44427 8.41917 9.12638L5.10035 14.2704L3.98376 15.9859L3.98382 16.6234Z" fill="white"/>
<path d="M14.9575 8.26272L12.3434 8.27222L6.42904 18.032L8.49626 19.2223L14.9575 8.26272Z" fill="white"/>
<path d="M20.0163 8.24926C19.9944 7.70256 19.6984 7.20205 19.2347 6.91068L12.7359 3.17336C12.2772 2.94238 11.7042 2.9421 11.2448 3.17319C11.1905 3.20057 4.92473 6.83449 4.92473 6.83449C4.83803 6.87605 4.75452 6.9256 4.67593 6.98179C4.262 7.27847 4.00968 7.73942 3.98376 8.24591V15.9859L5.1003 14.2704L5.09052 8.29825C5.09186 8.27641 5.0946 8.25496 5.09845 8.23373C5.12365 8.09319 5.20213 7.96784 5.32027 7.88315C5.34977 7.86204 11.7225 4.17326 11.7428 4.16309C11.8926 4.08785 12.0829 4.08707 12.2329 4.1608L18.6477 7.8507C18.7995 7.94734 18.8946 8.11123 18.9031 8.29037V15.6884C18.8953 15.8453 18.8333 15.9907 18.7113 16.0898L17.4676 16.8104L16.8259 17.1823L14.5323 18.5115L12.2063 19.8595C12.081 19.9048 11.9346 19.9022 11.8103 19.8517L9.05832 18.2688L8.49614 19.2223L10.9693 20.6462C11.0511 20.6927 11.124 20.7339 11.1837 20.7675C11.2764 20.8195 11.3394 20.8541 11.3617 20.8649C11.5375 20.9503 11.7904 21 12.0183 21C12.2273 21 12.431 20.9616 12.6238 20.8861L19.3798 16.9735C19.7676 16.6731 19.9957 16.22 20.0163 15.7292V8.24926Z" fill="#96BEDC"/>
</g>
</g>
<defs>
<clipPath id="clip0_2066_7299">
<rect width="24" height="24" fill="white"/>
</clipPath>
<clipPath id="clip1_2066_7299">
<rect width="18" height="18" fill="white" transform="translate(3 3)"/>
</clipPath>
</defs>
</svg>
