<svg width="32" height="32" viewBox="0 0 32 32" fill="none" xmlns="http://www.w3.org/2000/svg">
<g clip-path="url(#clip0_2046_7738)">
<path d="M19.6054 14.6621L21.9555 10.6745L28.2898 20.5405L28.2928 22.4338L28.2721 9.405C28.2571 9.08652 28.088 8.79516 27.8182 8.62336L16.4141 2.06354C16.1474 1.93246 15.809 1.93385 15.5428 2.06761C15.5068 2.08569 15.473 2.10525 15.4407 2.1266L15.401 2.15163L4.33144 8.56635L4.28844 8.58582C4.23323 8.61124 4.17742 8.64351 4.12498 8.68105C3.91515 8.8316 3.77572 9.05415 3.73064 9.30381C3.72388 9.34164 3.71892 9.38017 3.71653 9.419L3.73391 20.0362L9.63403 10.8913C10.3768 9.67869 11.9953 9.28812 13.4978 9.30937L15.2612 9.35594L4.87127 26.0183L6.09603 26.7235L16.6104 9.37283L21.2578 9.35594L10.7705 27.1445L15.663 29.9584C15.8838 30.0482 16.1442 30.0527 16.3669 29.9723L27.9313 23.2706L25.7204 24.5518L19.6054 14.6621ZM20.5021 27.5759L16.088 20.648L18.7825 16.0757L24.5795 25.2129L20.5021 27.5759Z" fill="#2D374B"/>
<path d="M16.088 20.648L20.5021 27.5759L24.5795 25.2129L18.7825 16.0757L16.088 20.648Z" fill="#28A0F0"/>
<path d="M28.2928 22.4338L28.2898 20.5405L21.9555 10.6745L19.6054 14.6621L25.7204 24.5518L27.9313 23.2706C28.1482 23.0945 28.2794 22.8361 28.2932 22.5571L28.2928 22.4338Z" fill="#28A0F0"/>
<path d="M1.74897 24.2193L4.87127 26.0183L15.2612 9.35594L13.4978 9.30937C11.9953 9.28812 10.3768 9.67869 9.63403 10.8913L3.73391 20.0362L1.74887 23.086L1.74897 24.2193Z" fill="white"/>
<path d="M21.2578 9.35594L16.6104 9.37283L6.09603 26.7235L9.77108 28.8396L21.2578 9.35594Z" fill="white"/>
<path d="M30.2512 9.33202C30.2124 8.3601 29.6862 7.47031 28.8618 6.95233L17.3083 0.308199C16.4929 -0.102435 15.4742 -0.102932 14.6575 0.307901C14.5609 0.356561 3.42179 6.81687 3.42179 6.81687C3.26766 6.89076 3.1192 6.97884 2.97947 7.07874C2.24361 7.60616 1.79504 8.42564 1.74896 9.32606V23.0861L3.73391 20.0363L3.71653 9.41911C3.71891 9.38028 3.72378 9.34214 3.73063 9.30441C3.77542 9.05455 3.91494 8.83171 4.12498 8.68116C4.17741 8.64362 15.5067 2.08579 15.5428 2.06772C15.8091 1.93395 16.1475 1.93256 16.4141 2.06365L27.8182 8.62346C28.088 8.79526 28.2571 9.08663 28.2721 9.40511V22.5572C28.2583 22.8362 28.1481 23.0946 27.9312 23.2707L25.7202 24.5519L24.5795 25.213L20.502 27.576L16.3668 29.9725C16.1441 30.0529 15.8837 30.0484 15.6628 29.9585L10.7704 27.1446L9.77097 28.8396L14.1677 31.371C14.3131 31.4536 14.4427 31.5269 14.5489 31.5867C14.7136 31.679 14.8257 31.7407 14.8653 31.7599C15.1778 31.9116 15.6274 32 16.0326 32C16.4041 32 16.7662 31.9318 17.1091 31.7975L29.1197 24.8418C29.8091 24.3077 30.2147 23.5022 30.2512 22.6296V9.33202Z" fill="#96BEDC"/>
</g>
<defs>
<clipPath id="clip0_2046_7738">
<rect width="32" height="32" fill="white"/>
</clipPath>
</defs>
</svg>
