<svg width="24" height="24" viewBox="0 0 24 24" fill="none" xmlns="http://www.w3.org/2000/svg">
<g clip-path="url(#clip0_5332_1694)">
<path fill-rule="evenodd" clip-rule="evenodd" d="M15.8612 7.70631C16.2211 8.3402 16.2211 9.11725 15.8612 9.74705H15.8571L9.17867 21.4067C8.8188 22.0365 8.15215 22.425 7.42828 22.425H0.946186C0.218227 22.425 -0.235726 21.6316 0.128254 20.9977L10.9822 2.05031C11.3462 1.41642 12.2541 1.41642 12.6181 2.05031L15.8612 7.70631ZM19.9144 14.2458C19.5463 13.6119 18.6221 13.6119 18.2499 14.2458H18.2458L14.2911 21.0019C13.923 21.6358 14.3852 22.4251 15.1254 22.4251H23.0348C23.775 22.4251 24.2413 21.6358 23.8691 21.0019L19.9144 14.2458Z" fill="#FF394A"/>
</g>
<defs>
<clipPath id="clip0_5332_1694">
<rect width="24" height="24" fill="white"/>
</clipPath>
</defs>
</svg>
