<svg width="24" height="24" viewBox="0 0 24 24" fill="none" xmlns="http://www.w3.org/2000/svg">
<rect width="24" height="24" rx="4" fill="#E84142"/>
<path d="M15.9832 13.7399C16.3744 13.0642 17.0057 13.0642 17.3969 13.7399L19.833 18.0165C20.2242 18.6923 19.9042 19.2435 19.1218 19.2435H14.2139C13.4404 19.2435 13.1203 18.6923 13.5026 18.0165L15.9832 13.7399ZM11.2709 5.50679C11.6621 4.83107 12.2845 4.83107 12.6757 5.50679L13.2181 6.48481L14.4984 8.73425C14.8096 9.37441 14.8096 10.1301 14.4984 10.7703L12.3512 14.4912L10.204 18.2121C9.8128 18.8167 9.16375 19.199 8.44357 19.2435H4.87825C4.09584 19.2435 3.77576 18.7011 4.16696 18.0165L11.2709 5.50679Z" fill="white"/>
</svg>
