<svg width="24" height="24" viewBox="0 0 24 24" fill="none" xmlns="http://www.w3.org/2000/svg">
<g clip-path="url(#clip0_2066_7498)">
<rect y="0.0012207" width="24" height="24" rx="4" fill="url(#paint0_linear_2066_7498)"/>
<g clip-path="url(#clip1_2066_7498)">
<path d="M13.0094 10.6378L18.3113 5.36618L16.3002 3.36634L12.0039 7.63801L7.70763 3.36634L5.6957 5.36618L10.998 10.6378C11.276 10.9141 11.64 11.0522 12.0039 11.0522C12.3679 11.0522 12.7318 10.9141 13.0094 10.6378ZM20.685 16.269L16.3887 11.9978L20.6846 7.72609L18.6735 5.72625L13.3717 10.9978C13.2397 11.1288 13.1349 11.2845 13.0634 11.4562C12.9919 11.6278 12.9551 11.8119 12.9551 11.9978C12.9551 12.1837 12.9919 12.3678 13.0634 12.5394C13.1349 12.711 13.2397 12.8668 13.3717 12.9977L18.6735 18.2693L20.685 16.269ZM11.9966 16.3644L16.2924 20.6361L18.3044 18.6363L13.0021 13.3647C12.7346 13.0994 12.3731 12.9505 11.9964 12.9505C11.6196 12.9505 11.2581 13.0994 10.9906 13.3647L5.68879 18.6363L7.69986 20.6361L11.9966 16.3644ZM10.6288 13.0046C10.7605 12.8736 10.8651 12.7178 10.9364 12.5462C11.0077 12.3747 11.0444 12.1907 11.0444 12.0049C11.0444 11.8191 11.0077 11.6351 10.9364 11.4636C10.8651 11.292 10.7605 11.1362 10.6288 11.0052L5.32699 5.73359L3.31506 7.73343L7.61178 12.0047L3.31549 16.2764L5.32656 18.2762L10.6288 13.0046Z" fill="white"/>
</g>
</g>
<defs>
<linearGradient id="paint0_linear_2066_7498" x1="12" y1="0.0012207" x2="12" y2="24.0012" gradientUnits="userSpaceOnUse">
<stop stop-color="#252525"/>
<stop offset="1"/>
</linearGradient>
<clipPath id="clip0_2066_7498">
<rect width="24" height="24" fill="white" transform="translate(0 0.0012207)"/>
</clipPath>
<clipPath id="clip1_2066_7498">
<rect width="18" height="18" fill="white" transform="translate(3 3.00122)"/>
</clipPath>
</defs>
</svg>
