<svg width="32" height="32" viewBox="0 0 32 32" fill="none" xmlns="http://www.w3.org/2000/svg">
<g clip-path="url(#clip0_1847_6064)">
<path d="M17.7946 13.5761L27.22 4.20438L23.6448 0.649109L16.007 8.2432L8.36913 0.649109L4.79236 4.20438L14.2186 13.5761C14.7129 14.0673 15.3599 14.313 16.007 14.313C16.654 14.313 17.301 14.0673 17.7946 13.5761ZM31.44 23.5872L23.8022 15.9939L31.4392 8.39978L27.864 4.84451L18.4386 14.2162C18.2039 14.449 18.0176 14.7259 17.8905 15.031C17.7634 15.3361 17.698 15.6634 17.698 15.9939C17.698 16.3244 17.7634 16.6516 17.8905 16.9567C18.0176 17.2618 18.2039 17.5388 18.4386 17.7715L27.864 27.1432L31.44 23.5872ZM15.9939 23.7568L23.631 31.3509L27.2078 27.7957L17.7815 18.4239C17.306 17.9523 16.6633 17.6876 15.9935 17.6876C15.3237 17.6876 14.6811 17.9523 14.2055 18.4239L4.78008 27.7957L8.35531 31.3509L15.9939 23.7568ZM13.5623 17.7838C13.7965 17.5508 13.9824 17.2739 14.1092 16.9689C14.236 16.6639 14.3012 16.3369 14.3012 16.0065C14.3012 15.6762 14.236 15.3492 14.1092 15.0442C13.9824 14.7392 13.7965 14.4622 13.5623 14.2293L4.13688 4.85756L0.56012 8.41283L8.19873 16.0062L0.560887 23.6002L4.13611 27.1555L13.5623 17.7838Z" fill="black"/>
</g>
<defs>
<clipPath id="clip0_1847_6064">
<rect width="32" height="32" fill="white"/>
</clipPath>
</defs>
</svg>
