<svg width="24" height="24" viewBox="0 0 24 24" fill="none" xmlns="http://www.w3.org/2000/svg">
<g clip-path="url(#clip0_5579_1732)">
<path d="M12 24C18.6274 24 24 18.6274 24 12C24 5.37258 18.6274 0 12 0C5.37258 0 0 5.37258 0 12C0 18.6274 5.37258 24 12 24Z" fill="#814625"/>
<path fill-rule="evenodd" clip-rule="evenodd" d="M11.5524 11.3925C11.5392 11.3526 11.53 11.3117 11.5229 11.2704C11.5196 11.2513 11.5158 11.2323 11.5115 11.2134C11.5021 11.1723 11.4916 11.1315 11.4803 11.0908C11.6674 10.818 12.562 9.39479 11.544 8.48137C10.4142 7.46759 9.09414 8.79637 9.09414 8.79637L9.09823 8.80226C8.5049 8.62859 7.86155 8.60823 7.23564 8.79629C7.22791 8.78853 5.91215 7.47056 4.78569 8.48137C3.66077 9.49075 4.87149 11.1227 4.88195 11.1368L4.88199 11.1369C4.86905 11.1753 4.85859 11.2146 4.85169 11.2545C4.80276 11.5355 4.63977 11.7385 4.46217 11.9597C4.19729 12.2896 3.8999 12.66 3.8999 13.3899C3.8999 14.6092 4.76806 15.6121 6.54009 15.6121H7.26721C7.27048 15.6166 7.56995 16.0253 8.18469 16.0249C8.75209 16.0245 9.12791 15.6203 9.13541 15.6122L9.1355 15.6121H9.82933C11.6014 15.6121 12.4695 14.6328 12.4695 13.3899C12.4695 12.66 12.1721 12.2896 11.9073 11.9597C11.7601 11.7763 11.6229 11.6055 11.5524 11.3925ZM20.0208 9.99929C20.0208 9.99929 20.1526 8.82408 19.1508 8.57156V8.10022H18.375V8.55978C17.3183 8.78493 17.4545 9.99929 17.4545 9.99929V10.2008C17.4545 10.2008 17.3182 11.4154 18.3754 11.6403L18.3753 12.6492C17.2615 12.8446 17.4022 14.0989 17.4022 14.0989V14.3004C17.4022 14.3004 17.266 15.5147 18.3227 15.7398V16.1994H19.0985V15.7281C20.1003 15.4756 19.9685 14.3004 19.9685 14.3004C20.0123 14.3004 20.0478 14.2662 20.0478 14.224V14.1753C20.0478 14.1331 20.0123 14.0989 19.9685 14.0989C19.9685 14.0989 20.0992 12.9339 19.1115 12.6745V11.6403H19.0998C20.157 11.4154 20.0208 10.2008 20.0208 10.2008C20.0645 10.2008 20.1 10.1666 20.1 10.1244V10.0756C20.1 10.0335 20.0646 9.99929 20.0208 9.99929ZM19.3886 14.0989H19.3176C19.2738 14.0989 19.2383 14.1331 19.2383 14.1753V14.224C19.2383 14.2662 19.2738 14.3004 19.3176 14.3004H19.3886C19.3886 15.0294 19.1372 15.152 19.0527 15.1727C19.0387 15.1761 19.0252 15.1661 19.0252 15.1523V14.92C19.0252 14.7915 18.9403 14.7211 18.8553 14.6829C18.7479 14.6345 18.6228 14.6345 18.5154 14.6829C18.4304 14.7211 18.3454 14.7915 18.3454 14.92V15.1523C18.3454 15.1659 18.3321 15.1761 18.3184 15.1728C18.2344 15.1525 17.9821 15.0308 17.9821 14.3004V14.0989C17.9821 13.3699 18.2334 13.2472 18.318 13.2266C18.3319 13.2232 18.3454 13.2331 18.3454 13.2469V13.4793C18.3454 13.6077 18.4304 13.6781 18.5154 13.7164C18.6228 13.7647 18.7479 13.7647 18.8553 13.7164C18.9403 13.6781 19.0252 13.6077 19.0252 13.4793V13.2469C19.0252 13.2333 19.0385 13.2231 19.0522 13.2265C19.1363 13.2468 19.3886 13.3685 19.3886 14.0989ZM19.3699 10.2008H19.4409C19.4409 10.9312 19.1886 11.0529 19.1045 11.0732C19.0908 11.0765 19.0776 11.0663 19.0776 11.0527V10.8204C19.0776 10.6919 18.9926 10.6215 18.9076 10.5832C18.8002 10.5349 18.6751 10.5349 18.5676 10.5832C18.4827 10.6215 18.3977 10.6919 18.3977 10.8204V11.0527C18.3977 11.0665 18.3842 11.0764 18.3703 11.0731C18.2857 11.0524 18.0344 10.9298 18.0344 10.2008V9.99929C18.0344 9.26887 18.2866 9.14711 18.3708 9.12686C18.3844 9.12356 18.3977 9.13379 18.3977 9.14733V9.37968C18.3977 9.50816 18.4827 9.57851 18.5676 9.61679C18.6751 9.66517 18.8002 9.66517 18.9076 9.61679C18.9926 9.57851 19.0776 9.50816 19.0776 9.37968V9.14733C19.0776 9.13353 19.0911 9.12359 19.105 9.12697C19.1895 9.14763 19.4409 9.27029 19.4409 9.99929H19.3699C19.3261 9.99929 19.2906 10.0335 19.2906 10.0756V10.1244C19.2906 10.1666 19.3261 10.2008 19.3699 10.2008ZM15.2087 10.6333C16.2755 10.8532 16.1385 12.0747 16.1385 12.0747C16.1823 12.0747 16.2178 12.1087 16.2178 12.1509V12.1997C16.2178 12.2418 16.1823 12.276 16.1385 12.276C16.1385 12.276 16.2755 13.4974 15.2087 13.7174V14.7643C16.2471 14.9987 16.1124 16.2001 16.1124 16.2001H15.5324C15.5324 15.4711 15.2811 15.3484 15.1965 15.3278C15.1826 15.3244 15.1691 15.3343 15.1691 15.3481V15.5805C15.1691 15.7089 15.0841 15.7793 14.9991 15.8176C14.8917 15.8659 14.7666 15.8659 14.6592 15.8176C14.5742 15.7793 14.4892 15.7089 14.4892 15.5805V15.3481C14.4892 15.3345 14.476 15.3243 14.4623 15.3277C14.3782 15.3479 14.1259 15.4697 14.1259 16.2001H13.546C13.546 16.2001 13.4062 14.9535 14.509 14.7523V13.7189C13.4346 13.5029 13.5721 12.2761 13.5721 12.2761V12.0746C13.5721 12.0746 13.4346 10.8478 14.509 10.6318V9.54806C13.4062 9.34687 13.546 8.10022 13.546 8.10022H14.1259C14.1259 8.82922 14.3773 8.95188 14.4618 8.97254C14.4757 8.97592 14.4892 8.96598 14.4892 8.95218V8.71979C14.4892 8.59136 14.5742 8.52101 14.6592 8.48272C14.7666 8.43434 14.8917 8.43434 14.9991 8.48272C15.0841 8.52101 15.1691 8.59136 15.1691 8.71979V8.95218C15.1691 8.96572 15.1824 8.97596 15.196 8.97262C15.2802 8.95237 15.5324 8.83064 15.5324 8.10022H16.1124C16.1124 8.10022 16.2471 9.30157 15.2087 9.53594V10.6333ZM15.5586 12.2761H15.4876C15.4438 12.2761 15.4083 12.2419 15.4083 12.1998V12.151C15.4083 12.1089 15.4438 12.0747 15.4876 12.0747H15.5586C15.5586 11.3457 15.3072 11.223 15.2227 11.2023C15.2088 11.199 15.1953 11.2089 15.1953 11.2227V11.455C15.1953 11.5835 15.1103 11.6539 15.0253 11.6922C14.9179 11.7405 14.7928 11.7405 14.6854 11.6922C14.6004 11.6539 14.5154 11.5835 14.5154 11.455V11.2227C14.5154 11.2091 14.5021 11.1989 14.4885 11.2022C14.4043 11.2225 14.1521 11.3442 14.1521 12.0747V12.2761C14.1521 13.0051 14.4034 13.1278 14.488 13.1484C14.5019 13.1518 14.5154 13.1419 14.5154 13.1281V12.8957C14.5154 12.7673 14.6004 12.6969 14.6854 12.6586C14.7928 12.6103 14.9179 12.6103 15.0253 12.6586C15.1103 12.6969 15.1953 12.7673 15.1953 12.8957V13.1281C15.1953 13.1417 15.2085 13.1519 15.2222 13.1485C15.3063 13.1283 15.5586 13.0065 15.5586 12.2761Z" fill="white"/>
</g>
<defs>
<clipPath id="clip0_5579_1732">
<rect width="24" height="24" fill="white"/>
</clipPath>
</defs>
</svg>
