<svg width="24" height="24" viewBox="0 0 24 24" fill="none" xmlns="http://www.w3.org/2000/svg">
<g clip-path="url(#clip0_2066_7344)">
<rect width="24" height="24" rx="4" fill="#F0B90B"/>
<path d="M13.7585 17.9483V19.9655L11.9999 21L10.293 19.9655V17.9483L11.9999 18.9828L13.7585 17.9483ZM4.34473 10.9655L6.05162 12V15.4655L8.9999 17.2241V19.2414L4.34473 16.5V10.9655ZM19.6551 10.9655V16.5L14.9482 19.2414V17.2241L17.8964 15.4655V12L19.6551 10.9655ZM14.9482 8.22414L16.7068 9.25862V11.2759L13.7585 13.0345V16.5517L12.0516 17.5862L10.3447 16.5517V13.0345L7.293 11.2759V9.25862L9.05162 8.22414L11.9999 9.98276L14.9482 8.22414ZM7.293 12.7241L8.9999 13.7586V15.7759L7.293 14.7414V12.7241ZM16.7068 12.7241V14.7414L14.9999 15.7759V13.7586L16.7068 12.7241ZM6.05162 6.46552L7.81024 7.5L6.05162 8.53448V10.5517L4.34473 9.51724V7.5L6.05162 6.46552ZM17.9482 6.46552L19.7068 7.5V9.51724L17.9482 10.5517V8.53448L16.2413 7.5L17.9482 6.46552ZM11.9999 6.46552L13.7585 7.5L11.9999 8.53448L10.293 7.5L11.9999 6.46552ZM11.9999 3L16.7068 5.74138L14.9999 6.77586L12.0516 5.01724L9.05162 6.77586L7.34473 5.74138L11.9999 3Z" fill="white"/>
</g>
<defs>
<clipPath id="clip0_2066_7344">
<rect width="24" height="24" fill="white"/>
</clipPath>
</defs>
</svg>
