<svg width="24" height="24" viewBox="0 0 24 24" fill="none" xmlns="http://www.w3.org/2000/svg">
<path d="M14.3061 19.9296V22.6209L11.9595 24L9.67956 22.6209V19.9296L11.9595 21.3086L14.3061 19.9296ZM1.75 10.6209L4.02989 12V16.6154L7.95575 18.962V21.6534L1.75 17.9944V10.6209ZM22.2356 10.6209V18.0056L15.9632 21.6645V18.9731L19.889 16.6265V12.0111L22.2356 10.6209ZM15.8853 6.962L18.2319 8.34106V11.0324L14.3061 13.3791V18.0612L12.0262 19.4402L9.75741 18.0612V13.3679L5.68698 11.0213V8.32993L8.0336 6.95088L11.9595 9.2975L15.8853 6.962ZM5.68698 12.9564L7.96687 14.3355V17.0269L5.68698 15.6478V12.9564ZM18.2319 12.9564V15.6478L15.952 17.0269V14.3355L18.2319 12.9564ZM4.02989 4.61538L6.37651 5.99444L4.02989 7.37349V10.0649L1.75 8.68582V5.99444L4.02989 4.61538ZM19.889 4.61538L22.2356 5.99444V8.68582L19.889 10.0649V7.37349L17.6091 5.99444L19.889 4.61538ZM11.9595 4.61538L14.3061 5.99444L11.9595 7.37349L9.67956 5.99444L11.9595 4.61538ZM11.9595 0L18.2319 3.65894L15.952 5.038L12.0262 2.69138L8.02247 5.038L5.74259 3.65894L11.9595 0Z" fill="#F0B90B"/>
</svg>
