<svg width="24" height="24" viewBox="0 0 24 24" fill="none" xmlns="http://www.w3.org/2000/svg">
<g clip-path="url(#clip0_3284_7794)">
<rect width="24" height="24" rx="4" fill="#F7931A"/>
<path d="M17.6589 10.182C17.91 8.50084 16.63 7.59711 14.8798 6.99422L15.4475 4.71691L14.0609 4.37144L13.5082 6.58874C13.1442 6.49793 12.7699 6.41226 12.398 6.32737L12.9547 4.09547L11.5692 3.75L11.0011 6.02652C10.6995 5.95782 10.4033 5.88991 10.1159 5.81845L10.1175 5.81134L8.20579 5.33401L7.83703 6.81458C7.83703 6.81458 8.86553 7.05028 8.84382 7.06489C9.40525 7.20505 9.50711 7.57658 9.48974 7.87111L7.93415 14.1096C7.86546 14.2802 7.69134 14.536 7.29889 14.4389C7.31271 14.459 6.29132 14.1874 6.29132 14.1874L5.60315 15.7746L7.40747 16.2243C7.74306 16.3084 8.07195 16.3964 8.3953 16.4793L7.82163 18.7831L9.20626 19.1286L9.7748 16.8497C10.1526 16.9523 10.5198 17.0471 10.8791 17.1363L10.3129 19.4045L11.6991 19.75L12.2728 17.451C14.6366 17.8983 16.4145 17.7179 17.1618 15.5803C17.7647 13.8589 17.1322 12.866 15.8886 12.2181C16.7943 12.0084 17.4769 11.4126 17.6589 10.182ZM14.4913 14.6233C14.0625 16.3447 11.1646 15.4145 10.2245 15.1808L10.9857 12.1292C11.9254 12.3637 14.9378 12.8281 14.4913 14.6233ZM11.3335 10.7324L12.0237 7.96468C12.8066 8.15972 15.3271 8.52374 14.9197 10.1571C14.5288 11.723 12.1165 10.9274 11.3335 10.7324Z" fill="white"/>
</g>
<defs>
<clipPath id="clip0_3284_7794">
<rect width="24" height="24" fill="white"/>
</clipPath>
</defs>
</svg>
