<svg width="24" height="24" viewBox="0 0 24 24" fill="none" xmlns="http://www.w3.org/2000/svg">
<path d="M21.0837 9.64797C21.4603 7.12627 19.5403 5.77066 16.915 4.86633L17.7666 1.45036L15.6867 0.932165L14.8576 4.25811C14.3115 4.1219 13.7501 3.99339 13.1922 3.86606L14.0273 0.518198L11.9491 0L11.0969 3.41478C10.6445 3.31173 10.2003 3.20987 9.76915 3.10268L9.77152 3.09202L6.90396 2.37602L6.35082 4.59687C6.35082 4.59687 7.89357 4.95043 7.861 4.97234C8.70315 5.18258 8.85594 5.73987 8.82988 6.18167L6.49651 15.5394C6.39346 15.7953 6.13229 16.1791 5.54362 16.0334C5.56434 16.0636 4.03225 15.6561 4.03225 15.6561L3 18.0369L5.70648 18.7114C6.20987 18.8376 6.7032 18.9696 7.18823 19.094L6.32772 22.5496L8.40466 23.0678L9.25747 19.6495C9.82423 19.8035 10.375 19.9456 10.9139 20.0795L10.0647 23.4818L12.144 24L13.0045 20.5515C16.5502 21.2225 19.217 20.9518 20.338 17.7455C21.2424 15.1634 20.2936 13.6739 18.4281 12.7021C19.7867 12.3876 20.8106 11.4939 21.0837 9.64797ZM16.3322 16.3099C15.6891 18.892 11.3421 17.4968 9.93202 17.1462L11.0738 12.5688C12.4833 12.9206 17.002 13.6171 16.3322 16.3099ZM11.5956 10.4735L12.6308 6.32202C13.8052 6.61458 17.586 7.16062 16.9748 9.61066C16.3885 11.9594 12.77 10.7661 11.5956 10.4735Z" fill="#F7931A"/>
</svg>
