<svg width="24" height="24" viewBox="0 0 24 24" fill="none" xmlns="http://www.w3.org/2000/svg">
<g clip-path="url(#clip0_3620_1828)">
<rect width="24" height="24" rx="4" fill="#063C4F"/>
<path d="M4 13.7272C4.0772 13.7293 4.15466 13.7304 4.23238 13.7304C5.83064 13.7304 7.32173 13.2716 8.58112 12.4785C9.09668 15.1321 11.4331 17.1354 14.2375 17.1354C16.5326 17.1354 18.5144 15.7935 19.441 13.8515C19.5129 13.8136 19.5838 13.7741 19.6538 13.7332C18.6411 17.0958 15.5205 19.5451 11.8278 19.5451C8.13291 19.5451 5.01075 17.0929 4 13.7272Z" fill="url(#paint0_radial_3620_1828)"/>
<path d="M4 13.7272C4.0772 13.7293 4.15466 13.7304 4.23238 13.7304C5.83064 13.7304 7.32173 13.2716 8.58112 12.4785C9.09668 15.1321 11.4331 17.1354 14.2375 17.1354C16.5326 17.1354 18.5144 15.7935 19.441 13.8515C19.5129 13.8136 19.5838 13.7741 19.6538 13.7332C18.6411 17.0958 15.5205 19.5451 11.8278 19.5451C8.13291 19.5451 5.01075 17.0929 4 13.7272Z" fill="#04171E" fill-opacity="0.88"/>
<path d="M4.03918 13.8539C4.1034 13.8554 4.1678 13.8561 4.23237 13.8561C5.84027 13.8561 7.33971 13.3917 8.60389 12.5898C9.16235 15.1879 11.4725 17.1353 14.2375 17.1353C16.5326 17.1353 18.5144 15.7935 19.441 13.8515C19.5128 13.8135 19.5838 13.7741 19.6538 13.7332C18.6411 17.0958 15.5205 19.545 11.8278 19.545C8.17944 19.545 5.08949 17.1542 4.03918 13.8539Z" fill="url(#paint1_radial_3620_1828)"/>
<path d="M4.03918 13.8539C4.1034 13.8554 4.1678 13.8561 4.23237 13.8561C5.84027 13.8561 7.33971 13.3917 8.60389 12.5898C9.16235 15.1879 11.4725 17.1353 14.2375 17.1353C16.5326 17.1353 18.5144 15.7935 19.441 13.8515C19.5128 13.8135 19.5838 13.7741 19.6538 13.7332C18.6411 17.0958 15.5205 19.545 11.8278 19.545C8.17944 19.545 5.08949 17.1542 4.03918 13.8539Z" fill="#04171E" fill-opacity="0.4"/>
<path d="M15.6939 16.9497C14.532 17.9161 13.0383 18.4973 11.409 18.4973C8.36745 18.4973 5.79892 16.4722 4.97815 13.6968C6.29395 13.5778 7.51974 13.1468 8.58101 12.4785C9.09657 15.1321 11.433 17.1354 14.2374 17.1354C14.7406 17.1354 15.2287 17.0709 15.6939 16.9497Z" fill="url(#paint2_linear_3620_1828)" fill-opacity="0.64"/>
<path d="M18.5335 11.3731C18.5335 15.0763 15.5314 18.0783 11.8282 18.0783C8.12507 18.0783 5.12305 15.0763 5.12305 11.3731C5.12305 7.6699 8.12507 4.66788 11.8282 4.66788C15.5314 4.66788 18.5335 7.6699 18.5335 11.3731Z" fill="url(#paint3_radial_3620_1828)"/>
<path d="M18.5335 11.3731C18.5335 15.0763 15.5314 18.0783 11.8282 18.0783C8.12507 18.0783 5.12305 15.0763 5.12305 11.3731C5.12305 7.6699 8.12507 4.66788 11.8282 4.66788C15.5314 4.66788 18.5335 7.6699 18.5335 11.3731Z" fill="black" fill-opacity="0.2"/>
<g opacity="0.64">
<path d="M12.2677 5.40969C12.1626 5.40406 12.0567 5.40121 11.9501 5.40121C10.947 5.40121 10.0029 5.6536 9.17773 6.09833C9.61903 6.00108 10.0776 5.94982 10.5481 5.94982C11.0277 5.94982 11.4949 6.00308 11.944 6.104L12.2677 5.40969Z" fill="url(#paint4_linear_3620_1828)" fill-opacity="0.64"/>
<path d="M12.6557 6.30858C15.1208 7.17727 16.8876 9.52696 16.8876 12.2893C16.8876 13.4249 16.589 14.4908 16.066 15.4128C17.1379 14.3521 17.8019 12.8801 17.8019 11.253C17.8019 8.39088 15.7471 6.00865 13.0322 5.50107L12.6557 6.30858Z" fill="url(#paint5_linear_3620_1828)" fill-opacity="0.64"/>
</g>
<path d="M11.9444 14.4174V18.0012L15.357 12.7928L11.9444 14.4174Z" fill="#8784FE"/>
<path d="M11.9444 18.0012V14.4174L8.53333 12.7928L11.9444 18.0012Z" fill="#A8A6FB"/>
<path d="M15.3552 11.8973L11.9443 7.33453V10.4286L15.3552 11.8973Z" fill="#CEC0F9"/>
<path d="M15.3552 11.8973L11.9443 10.4286V13.5212L15.3552 11.8973Z" fill="#A8A6FB"/>
<path d="M11.9443 10.4286L8.53334 11.8973L10.2388 12.7092L11.9443 13.5212V10.4286Z" fill="#CEC0F9"/>
<path d="M11.9443 7.33453L8.53334 11.8973L11.9443 10.4286V7.33453Z" fill="#E7E3F2"/>
<path d="M15.4114 17.0415C14.3749 17.6981 13.1459 18.0783 11.8281 18.0783C9.7397 18.0783 7.87427 17.1235 6.64453 15.6266C6.98353 15.6887 7.33291 15.7212 7.68986 15.7212C10.2817 15.7212 12.4739 14.0099 13.1983 11.6556C13.4373 11.6766 13.6792 11.6874 13.9236 11.6874C15.5982 11.6874 17.155 11.1837 18.4511 10.3196C18.5052 10.6628 18.5333 11.0147 18.5333 11.3731C18.5333 11.5955 18.5225 11.8155 18.5013 12.0324C18.1247 14.0666 16.9946 15.8364 15.4114 17.0415Z" fill="url(#paint6_linear_3620_1828)" fill-opacity="0.64"/>
<path d="M4.00208 13.7332C5.01467 17.0959 8.13537 19.5453 11.8281 19.5453C16.324 19.5453 19.9719 15.9147 19.9999 11.4254C19.5514 11.4226 19.1115 11.3836 18.6829 11.3113C17.6756 11.7552 16.5618 12.0017 15.3903 12.0017C14.9841 12.0017 14.5848 11.9721 14.1945 11.9148C13.471 14.2705 11.2781 15.983 8.68528 15.983C6.87721 15.983 5.26364 15.1503 4.20718 13.8474C4.13796 13.8107 4.06958 13.7726 4.00208 13.7332Z" fill="url(#paint7_linear_3620_1828)"/>
<path d="M19.9977 11.4326C18.7958 12.1279 17.4003 12.5258 15.912 12.5258C15.6283 12.5258 15.348 12.5113 15.0718 12.4831C14.5545 15.1345 12.2191 17.1356 9.4163 17.1356C7.12115 17.1356 5.1394 15.7937 4.21277 13.8517C4.14093 13.8138 4.07 13.7743 4 13.7334C5.01269 17.096 8.13331 19.5453 11.826 19.5453C16.3194 19.5453 19.9658 15.9186 19.9977 11.4326Z" fill="url(#paint8_radial_3620_1828)"/>
<path d="M19.4041 11.7051C18.9119 11.938 18.3926 12.1231 17.8524 12.2545C17.7824 12.8512 17.6477 13.4496 17.444 14.041C16.9477 15.4824 16.1029 16.7048 15.0361 17.6464C16.8602 16.7686 18.3463 15.1905 19.0574 13.1253C19.2194 12.6551 19.3341 12.1799 19.4041 11.7051Z" fill="url(#paint9_linear_3620_1828)" fill-opacity="0.64"/>
<path opacity="0.2" fill-rule="evenodd" clip-rule="evenodd" d="M14.1911 11.9289C14.2003 11.9166 14.2176 11.9143 14.2296 11.9238C14.5023 12.1402 14.7971 12.331 15.1131 12.493C15.1267 12.4999 15.1322 12.5169 15.1255 12.5308C15.1187 12.5448 15.1023 12.5505 15.0887 12.5436C14.7695 12.38 14.4717 12.1871 14.1961 11.9685C14.1841 11.959 14.1819 11.9413 14.1911 11.9289Z" fill="url(#paint10_linear_3620_1828)"/>
</g>
<defs>
<radialGradient id="paint0_radial_3620_1828" cx="0" cy="0" r="1" gradientUnits="userSpaceOnUse" gradientTransform="translate(19.6538 17.819) rotate(179.948) scale(59.3353 172.406)">
<stop offset="0.104167" stop-color="#24537E"/>
<stop offset="0.520341" stop-color="#4FC1C0"/>
<stop offset="1" stop-color="#DAFFF4"/>
</radialGradient>
<radialGradient id="paint1_radial_3620_1828" cx="0" cy="0" r="1" gradientUnits="userSpaceOnUse" gradientTransform="translate(19.6538 17.819) rotate(179.948) scale(59.3354 172.406)">
<stop offset="0.104167" stop-color="#24537E"/>
<stop offset="0.520341" stop-color="#4FC1C0"/>
<stop offset="1" stop-color="#DAFFF4"/>
</radialGradient>
<linearGradient id="paint2_linear_3620_1828" x1="15.4935" y1="19.6269" x2="12.7976" y2="5.60425" gradientUnits="userSpaceOnUse">
<stop stop-color="#04171E"/>
<stop offset="1" stop-color="#04171E" stop-opacity="0"/>
</linearGradient>
<radialGradient id="paint3_radial_3620_1828" cx="0" cy="0" r="1" gradientUnits="userSpaceOnUse" gradientTransform="translate(2.46894 20.1525) rotate(-37.2925) scale(16.7906 243.305)">
<stop offset="0.104167" stop-color="#04171E"/>
<stop offset="0.520341" stop-color="#0E6585"/>
<stop offset="1" stop-color="#4FC1C0"/>
</radialGradient>
<linearGradient id="paint4_linear_3620_1828" x1="16.0713" y1="8.02228" x2="9.15653" y2="11.0344" gradientUnits="userSpaceOnUse">
<stop stop-color="white"/>
<stop offset="0.732381" stop-color="white" stop-opacity="0"/>
</linearGradient>
<linearGradient id="paint5_linear_3620_1828" x1="16.0713" y1="8.02228" x2="9.15653" y2="11.0344" gradientUnits="userSpaceOnUse">
<stop stop-color="white"/>
<stop offset="0.732381" stop-color="white" stop-opacity="0"/>
</linearGradient>
<linearGradient id="paint6_linear_3620_1828" x1="28.9062" y1="-6.30727" x2="0.625435" y2="17.2545" gradientUnits="userSpaceOnUse">
<stop stop-color="#04171E"/>
<stop offset="1" stop-color="#04171E" stop-opacity="0"/>
</linearGradient>
<linearGradient id="paint7_linear_3620_1828" x1="17.0141" y1="12.447" x2="6.40623" y2="16.1925" gradientUnits="userSpaceOnUse">
<stop stop-color="#0E6585"/>
<stop offset="1" stop-color="#04171E"/>
</linearGradient>
<radialGradient id="paint8_radial_3620_1828" cx="0" cy="0" r="1" gradientUnits="userSpaceOnUse" gradientTransform="translate(0.833819 20.8001) rotate(-21.1171) scale(17.0822 172.589)">
<stop offset="0.104167" stop-color="#04171E"/>
<stop offset="0.520341" stop-color="#0E6585"/>
<stop offset="1" stop-color="#4FC1C0"/>
</radialGradient>
<linearGradient id="paint9_linear_3620_1828" x1="19.4238" y1="11.6998" x2="15.3443" y2="17.8833" gradientUnits="userSpaceOnUse">
<stop stop-color="white" stop-opacity="0.64"/>
<stop offset="1" stop-color="white" stop-opacity="0"/>
</linearGradient>
<linearGradient id="paint10_linear_3620_1828" x1="15.1228" y1="12.5167" x2="13.7967" y2="11.6969" gradientUnits="userSpaceOnUse">
<stop stop-color="#8CF2FD"/>
<stop offset="1" stop-color="#8CF2FD" stop-opacity="0"/>
</linearGradient>
<clipPath id="clip0_3620_1828">
<rect width="24" height="24" fill="white"/>
</clipPath>
</defs>
</svg>
