<svg width="24" height="24" viewBox="0 0 24 24" fill="none" xmlns="http://www.w3.org/2000/svg">
<g clip-path="url(#clip0_2066_7364)">
<rect width="24" height="24" rx="4" fill="#063C4F"/>
<path d="M4 13.7272C4.0772 13.7293 4.15466 13.7304 4.23238 13.7304C5.83064 13.7304 7.32173 13.2716 8.58112 12.4785C9.09668 15.1321 11.4331 17.1354 14.2375 17.1354C16.5326 17.1354 18.5144 15.7935 19.441 13.8515C19.5129 13.8136 19.5838 13.7741 19.6538 13.7332C18.6411 17.0958 15.5205 19.5451 11.8278 19.5451C8.13291 19.5451 5.01075 17.0929 4 13.7272Z" fill="url(#paint0_radial_2066_7364)"/>
<path d="M4 13.7272C4.0772 13.7293 4.15466 13.7304 4.23238 13.7304C5.83064 13.7304 7.32173 13.2716 8.58112 12.4785C9.09668 15.1321 11.4331 17.1354 14.2375 17.1354C16.5326 17.1354 18.5144 15.7935 19.441 13.8515C19.5129 13.8136 19.5838 13.7741 19.6538 13.7332C18.6411 17.0958 15.5205 19.5451 11.8278 19.5451C8.13291 19.5451 5.01075 17.0929 4 13.7272Z" fill="#04171E" fill-opacity="0.88"/>
<path d="M4.03918 13.8539C4.1034 13.8554 4.1678 13.8561 4.23237 13.8561C5.84027 13.8561 7.33971 13.3918 8.60389 12.5898C9.16235 15.1879 11.4725 17.1354 14.2375 17.1354C16.5326 17.1354 18.5144 15.7935 19.441 13.8515C19.5128 13.8136 19.5838 13.7741 19.6538 13.7332C18.6411 17.0958 15.5205 19.5451 11.8278 19.5451C8.17944 19.5451 5.08949 17.1543 4.03918 13.8539Z" fill="url(#paint1_radial_2066_7364)"/>
<path d="M4.03918 13.8539C4.1034 13.8554 4.1678 13.8561 4.23237 13.8561C5.84027 13.8561 7.33971 13.3918 8.60389 12.5898C9.16235 15.1879 11.4725 17.1354 14.2375 17.1354C16.5326 17.1354 18.5144 15.7935 19.441 13.8515C19.5128 13.8136 19.5838 13.7741 19.6538 13.7332C18.6411 17.0958 15.5205 19.5451 11.8278 19.5451C8.17944 19.5451 5.08949 17.1543 4.03918 13.8539Z" fill="#04171E" fill-opacity="0.4"/>
<path d="M15.694 16.9497C14.5321 17.9161 13.0385 18.4973 11.4091 18.4973C8.36757 18.4973 5.79904 16.4722 4.97827 13.6968C6.29407 13.5778 7.51986 13.1468 8.58113 12.4785C9.09669 15.1321 11.4331 17.1354 14.2375 17.1354C14.7407 17.1354 15.2288 17.0709 15.694 16.9497Z" fill="url(#paint2_linear_2066_7364)" fill-opacity="0.64"/>
<path d="M18.5335 11.3731C18.5335 15.0763 15.5314 18.0783 11.8282 18.0783C8.12507 18.0783 5.12305 15.0763 5.12305 11.3731C5.12305 7.6699 8.12507 4.66788 11.8282 4.66788C15.5314 4.66788 18.5335 7.6699 18.5335 11.3731Z" fill="url(#paint3_radial_2066_7364)"/>
<path d="M18.0875 10.114C18.0875 12.7178 15.9767 14.8286 13.3729 14.8286C10.7691 14.8286 8.65833 12.7178 8.65833 10.114C8.65833 7.51021 10.7691 5.39941 13.3729 5.39941C15.9767 5.39941 18.0875 7.51021 18.0875 10.114Z" fill="url(#paint4_radial_2066_7364)" fill-opacity="0.6"/>
<path d="M12.2679 5.40789C12.1627 5.40226 12.0568 5.39941 11.9502 5.39941C10.9471 5.39941 10.003 5.6518 9.17786 6.09652C9.61916 5.99928 10.0777 5.94802 10.5482 5.94802C11.0278 5.94802 11.495 6.00128 11.9441 6.1022L12.2679 5.40789Z" fill="url(#paint5_linear_2066_7364)" fill-opacity="0.64"/>
<path d="M12.6558 6.30678C15.1209 7.17547 16.8877 9.52516 16.8877 12.2875C16.8877 13.4231 16.5891 14.489 16.0661 15.411C17.138 14.3503 17.802 12.8783 17.802 11.2512C17.802 8.38908 15.7472 6.00685 13.0323 5.49927L12.6558 6.30678Z" fill="url(#paint6_linear_2066_7364)" fill-opacity="0.64"/>
<path d="M15.4114 17.0417C14.3749 17.6983 13.1459 18.0784 11.8281 18.0784C9.7397 18.0784 7.87427 17.1236 6.64453 15.6268C6.98353 15.6889 7.33291 15.7213 7.68986 15.7213C10.2817 15.7213 12.4739 14.0101 13.1983 11.6558C13.4373 11.6768 13.6792 11.6875 13.9236 11.6875C15.5982 11.6875 17.155 11.1839 18.4511 10.3198C18.5052 10.663 18.5333 11.0148 18.5333 11.3732C18.5333 11.5957 18.5225 11.8156 18.5013 12.0325C18.1247 14.0667 16.9946 15.8365 15.4114 17.0417Z" fill="url(#paint7_linear_2066_7364)" fill-opacity="0.64"/>
<path d="M4.00208 13.7332C5.01467 17.0959 8.13537 19.5453 11.8281 19.5453C16.324 19.5453 19.9719 15.9147 19.9999 11.4254C19.5514 11.4226 19.1115 11.3836 18.6829 11.3113C17.6756 11.7552 16.5618 12.0017 15.3903 12.0017C14.9841 12.0017 14.5848 11.9721 14.1945 11.9148C13.471 14.2705 11.2781 15.983 8.68528 15.983C6.87721 15.983 5.26364 15.1503 4.20718 13.8474C4.13796 13.8107 4.06958 13.7726 4.00208 13.7332Z" fill="url(#paint8_linear_2066_7364)"/>
<path d="M19.9999 11.4326C18.798 12.1278 17.4025 12.5257 15.9142 12.5257C15.6305 12.5257 15.3502 12.5112 15.074 12.483C14.5567 15.1344 12.2213 17.1355 9.4185 17.1355C7.12334 17.1355 5.1416 15.7937 4.21497 13.8517C4.14313 13.8137 4.07219 13.7743 4.0022 13.7334C5.01488 17.096 8.13551 19.5452 11.8282 19.5452C16.3216 19.5452 19.968 15.9185 19.9999 11.4326Z" fill="url(#paint9_radial_2066_7364)"/>
<path d="M19.4041 11.7451C18.9119 11.978 18.3926 12.1631 17.8524 12.2945C17.7824 12.8912 17.6477 13.4897 17.444 14.081C16.9477 15.5224 16.1029 16.7448 15.0361 17.6864C16.8602 16.8086 18.3463 15.2305 19.0574 13.1653C19.2194 12.6951 19.3341 12.2199 19.4041 11.7451Z" fill="url(#paint10_linear_2066_7364)" fill-opacity="0.64"/>
<path opacity="0.2" fill-rule="evenodd" clip-rule="evenodd" d="M14.1911 11.9289C14.2003 11.9166 14.2176 11.9143 14.2296 11.9238C14.5023 12.1402 14.7971 12.331 15.1131 12.493C15.1267 12.4999 15.1322 12.5169 15.1255 12.5308C15.1187 12.5448 15.1023 12.5505 15.0887 12.5436C14.7695 12.38 14.4717 12.1871 14.1961 11.9685C14.1841 11.959 14.1819 11.9413 14.1911 11.9289Z" fill="url(#paint11_linear_2066_7364)"/>
</g>
<defs>
<radialGradient id="paint0_radial_2066_7364" cx="0" cy="0" r="1" gradientUnits="userSpaceOnUse" gradientTransform="translate(19.6538 17.819) rotate(179.948) scale(59.3353 172.406)">
<stop offset="0.104167" stop-color="#24537E"/>
<stop offset="0.520341" stop-color="#4FC1C0"/>
<stop offset="1" stop-color="#DAFFF4"/>
</radialGradient>
<radialGradient id="paint1_radial_2066_7364" cx="0" cy="0" r="1" gradientUnits="userSpaceOnUse" gradientTransform="translate(19.6538 17.819) rotate(179.948) scale(59.3354 172.406)">
<stop offset="0.104167" stop-color="#24537E"/>
<stop offset="0.520341" stop-color="#4FC1C0"/>
<stop offset="1" stop-color="#DAFFF4"/>
</radialGradient>
<linearGradient id="paint2_linear_2066_7364" x1="15.4936" y1="19.6269" x2="12.7977" y2="5.60425" gradientUnits="userSpaceOnUse">
<stop stop-color="#04171E"/>
<stop offset="1" stop-color="#04171E" stop-opacity="0"/>
</linearGradient>
<radialGradient id="paint3_radial_2066_7364" cx="0" cy="0" r="1" gradientUnits="userSpaceOnUse" gradientTransform="translate(6.92125 16.6153) rotate(-57.5402) scale(11.8117 171.158)">
<stop offset="0.104167" stop-color="#3A78B1"/>
<stop offset="0.520341" stop-color="#4FC1C0"/>
<stop offset="1" stop-color="#8CF2FD"/>
</radialGradient>
<radialGradient id="paint4_radial_2066_7364" cx="0" cy="0" r="1" gradientUnits="userSpaceOnUse" gradientTransform="translate(18.0618 5.40126) rotate(144.267) scale(11.6159 11.5335)">
<stop offset="0.216485" stop-color="white"/>
<stop offset="0.906332" stop-color="white" stop-opacity="0"/>
</radialGradient>
<linearGradient id="paint5_linear_2066_7364" x1="16.0714" y1="8.02048" x2="9.15665" y2="11.0326" gradientUnits="userSpaceOnUse">
<stop stop-color="white"/>
<stop offset="0.732381" stop-color="white" stop-opacity="0"/>
</linearGradient>
<linearGradient id="paint6_linear_2066_7364" x1="16.0714" y1="8.02048" x2="9.15665" y2="11.0326" gradientUnits="userSpaceOnUse">
<stop stop-color="white"/>
<stop offset="0.732381" stop-color="white" stop-opacity="0"/>
</linearGradient>
<linearGradient id="paint7_linear_2066_7364" x1="28.9062" y1="-6.30711" x2="0.625434" y2="17.2547" gradientUnits="userSpaceOnUse">
<stop stop-color="#04171E"/>
<stop offset="1" stop-color="#04171E" stop-opacity="0"/>
</linearGradient>
<linearGradient id="paint8_linear_2066_7364" x1="17.0141" y1="12.447" x2="6.40623" y2="16.1925" gradientUnits="userSpaceOnUse">
<stop stop-color="#0E6585"/>
<stop offset="1" stop-color="#04171E"/>
</linearGradient>
<radialGradient id="paint9_radial_2066_7364" cx="0" cy="0" r="1" gradientUnits="userSpaceOnUse" gradientTransform="translate(6.14734 18.6602) rotate(-38.5632) scale(9.67178 150.849)">
<stop offset="0.104167" stop-color="#3A78B1"/>
<stop offset="0.520341" stop-color="#4FC1C0"/>
<stop offset="1" stop-color="#8CF2FD"/>
</radialGradient>
<linearGradient id="paint10_linear_2066_7364" x1="19.4238" y1="11.7398" x2="15.3443" y2="17.9233" gradientUnits="userSpaceOnUse">
<stop stop-color="white" stop-opacity="0.64"/>
<stop offset="1" stop-color="white" stop-opacity="0"/>
</linearGradient>
<linearGradient id="paint11_linear_2066_7364" x1="15.1228" y1="12.5167" x2="13.7967" y2="11.6969" gradientUnits="userSpaceOnUse">
<stop stop-color="#8CF2FD"/>
<stop offset="1" stop-color="#8CF2FD" stop-opacity="0"/>
</linearGradient>
<clipPath id="clip0_2066_7364">
<rect width="24" height="24" fill="white"/>
</clipPath>
</defs>
</svg>
