<svg width="32" height="32" viewBox="0 0 32 32" fill="none" xmlns="http://www.w3.org/2000/svg">
<path d="M0 19.4519C0.154397 19.4562 0.309328 19.4584 0.464768 19.4584C3.66127 19.4584 6.64345 18.5408 9.16225 16.9545C10.1934 22.2618 14.8663 26.2684 20.475 26.2684C25.0653 26.2684 29.0288 23.5847 30.882 19.7007C31.0257 19.6247 31.1676 19.5458 31.3076 19.4641C29.2822 26.1892 23.041 31.0877 15.6556 31.0877C8.26583 31.0877 2.02151 26.1833 0 19.4519Z" fill="url(#paint0_radial_729_4748)"/>
<path d="M0 19.4519C0.154397 19.4562 0.309328 19.4584 0.464768 19.4584C3.66127 19.4584 6.64345 18.5408 9.16225 16.9545C10.1934 22.2618 14.8663 26.2684 20.475 26.2684C25.0653 26.2684 29.0288 23.5847 30.882 19.7007C31.0257 19.6247 31.1676 19.5458 31.3076 19.4641C29.2822 26.1892 23.041 31.0877 15.6556 31.0877C8.26583 31.0877 2.02151 26.1833 0 19.4519Z" fill="#04171E" fill-opacity="0.88"/>
<path d="M0.0784302 19.7054C0.206862 19.7083 0.335655 19.7098 0.464803 19.7098C3.6806 19.7098 6.67948 18.7811 9.20785 17.1772C10.3248 22.3734 14.945 26.2683 20.475 26.2683C25.0653 26.2683 29.0288 23.5846 30.8821 19.7006C31.0258 19.6247 31.1676 19.5458 31.3076 19.464C29.2823 26.1892 23.041 31.0877 15.6557 31.0877C8.35894 31.0877 2.17904 26.3061 0.0784302 19.7054Z" fill="url(#paint1_radial_729_4748)"/>
<path d="M0.0784302 19.7054C0.206862 19.7083 0.335655 19.7098 0.464803 19.7098C3.6806 19.7098 6.67948 18.7811 9.20785 17.1772C10.3248 22.3734 14.945 26.2683 20.475 26.2683C25.0653 26.2683 29.0288 23.5846 30.8821 19.7006C31.0258 19.6247 31.1676 19.5458 31.3076 19.464C29.2823 26.1892 23.041 31.0877 15.6557 31.0877C8.35894 31.0877 2.17904 26.3061 0.0784302 19.7054Z" fill="#04171E" fill-opacity="0.4"/>
<path d="M23.3881 25.897C21.0642 27.8298 18.0769 28.9921 14.8182 28.9921C8.73514 28.9921 3.59809 24.942 1.95654 19.3912C4.58814 19.1531 7.03973 18.2912 9.16226 16.9545C10.1934 22.2617 14.8663 26.2684 20.475 26.2684C21.4814 26.2684 22.4576 26.1394 23.3881 25.897Z" fill="url(#paint2_linear_729_4748)" fill-opacity="0.64"/>
<path d="M29.0668 14.7437C29.0668 22.1501 23.0628 28.1541 15.6564 28.1541C8.25004 28.1541 2.246 22.1501 2.246 14.7437C2.246 7.33737 8.25004 1.33333 15.6564 1.33333C23.0628 1.33333 29.0668 7.33737 29.0668 14.7437Z" fill="url(#paint3_radial_729_4748)"/>
<path d="M28.1751 12.2256C28.1751 17.4332 23.9535 21.6548 18.7459 21.6548C13.5383 21.6548 9.31668 17.4332 9.31668 12.2256C9.31668 7.01801 13.5383 2.79641 18.7459 2.79641C23.9535 2.79641 28.1751 7.01801 28.1751 12.2256Z" fill="url(#paint4_radial_729_4748)" fill-opacity="0.6"/>
<path d="M16.5356 2.81336C16.3253 2.80211 16.1135 2.79641 15.9003 2.79641C13.8942 2.79641 12.0059 3.30118 10.3556 4.19063C11.2382 3.99615 12.1553 3.89363 13.0963 3.89363C14.0555 3.89363 14.9898 4.00014 15.8881 4.20198L16.5356 2.81336Z" fill="url(#paint5_linear_729_4748)" fill-opacity="0.64"/>
<path d="M17.3115 4.61114C22.2418 6.34853 25.7753 11.0479 25.7753 16.5726C25.7753 18.8439 25.178 20.9757 24.132 22.8195C26.2758 20.6982 27.604 17.7542 27.604 14.5C27.604 8.77574 23.4944 4.01129 18.0646 2.99612L17.3115 4.61114Z" fill="url(#paint6_linear_729_4748)" fill-opacity="0.64"/>
<path d="M22.8228 26.0809C20.7497 27.3941 18.2918 28.1544 15.6562 28.1544C11.4793 28.1544 7.74844 26.2448 5.28897 23.2511C5.96698 23.3753 6.66572 23.4402 7.37963 23.4402C12.5634 23.4402 16.9478 20.0177 18.3965 15.3091C18.8744 15.3511 19.3583 15.3726 19.8472 15.3726C23.1962 15.3726 26.31 14.3653 28.9021 12.6371C29.0104 13.3235 29.0666 14.0272 29.0666 14.744C29.0666 15.1889 29.0449 15.6288 29.0026 16.0626C28.2493 20.131 25.9891 23.6706 22.8228 26.0809Z" fill="url(#paint7_linear_729_4748)" fill-opacity="0.64"/>
<path d="M0.00427246 19.4639C2.02947 26.1894 8.27086 31.0881 15.6564 31.0881C24.6481 31.0881 31.9439 23.827 32 14.8484C31.103 14.8428 30.2231 14.7649 29.3659 14.6202C27.3514 15.5081 25.1236 16.001 22.7808 16.001C21.9684 16.001 21.1698 15.9417 20.3891 15.8273C18.9421 20.5386 14.5564 23.9636 9.37069 23.9636C5.75455 23.9636 2.5274 22.2982 0.414482 19.6924C0.276046 19.619 0.139285 19.5428 0.00427246 19.4639Z" fill="url(#paint8_linear_729_4748)"/>
<path d="M32 14.8627C29.5961 16.2531 26.8052 17.0489 23.8284 17.0489C23.2611 17.0489 22.7005 17.02 22.1481 16.9636C21.1135 22.2664 16.4427 26.2686 10.8371 26.2686C6.24678 26.2686 2.28328 23.5849 0.430028 19.7009C0.286355 19.625 0.144481 19.5461 0.00448608 19.4643C2.02986 26.1895 8.2711 31.088 15.6565 31.088C24.6434 31.088 31.9362 23.8346 32 14.8627Z" fill="url(#paint9_radial_729_4748)"/>
<path d="M30.8083 15.4878C29.8238 15.9535 28.7854 16.3237 27.7049 16.5865C27.5648 17.78 27.2954 18.9768 26.8882 20.1596C25.8956 23.0424 24.2058 25.4872 22.0724 27.3703C25.7205 25.6148 28.6928 22.4586 30.115 18.3282C30.4389 17.3877 30.6683 16.4374 30.8083 15.4878Z" fill="url(#paint10_linear_729_4748)" fill-opacity="0.64"/>
<path opacity="0.2" fill-rule="evenodd" clip-rule="evenodd" d="M20.3822 15.8554C20.4006 15.8307 20.4351 15.8261 20.459 15.8451C21.0046 16.2779 21.5942 16.6596 22.2262 16.9835C22.2533 16.9974 22.2644 17.0313 22.2509 17.0592C22.2374 17.0872 22.2045 17.0986 22.1774 17.0847C21.539 16.7575 20.9433 16.3718 20.3922 15.9346C20.3682 15.9156 20.3637 15.8801 20.3822 15.8554Z" fill="url(#paint11_linear_729_4748)"/>
<defs>
<radialGradient id="paint0_radial_729_4748" cx="0" cy="0" r="1" gradientUnits="userSpaceOnUse" gradientTransform="translate(31.3076 27.6355) rotate(179.948) scale(118.671 344.812)">
<stop offset="0.104167" stop-color="#24537E"/>
<stop offset="0.520341" stop-color="#4FC1C0"/>
<stop offset="1" stop-color="#DAFFF4"/>
</radialGradient>
<radialGradient id="paint1_radial_729_4748" cx="0" cy="0" r="1" gradientUnits="userSpaceOnUse" gradientTransform="translate(31.3076 27.6355) rotate(179.948) scale(118.671 344.812)">
<stop offset="0.104167" stop-color="#24537E"/>
<stop offset="0.520341" stop-color="#4FC1C0"/>
<stop offset="1" stop-color="#DAFFF4"/>
</radialGradient>
<linearGradient id="paint2_linear_729_4748" x1="22.9872" y1="31.2514" x2="17.5955" y2="3.20608" gradientUnits="userSpaceOnUse">
<stop stop-color="#04171E"/>
<stop offset="1" stop-color="#04171E" stop-opacity="0"/>
</linearGradient>
<radialGradient id="paint3_radial_729_4748" cx="0" cy="0" r="1" gradientUnits="userSpaceOnUse" gradientTransform="translate(5.84241 25.2282) rotate(-57.5402) scale(23.6235 342.317)">
<stop offset="0.104167" stop-color="#3A78B1"/>
<stop offset="0.520341" stop-color="#4FC1C0"/>
<stop offset="1" stop-color="#8CF2FD"/>
</radialGradient>
<radialGradient id="paint4_radial_729_4748" cx="0" cy="0" r="1" gradientUnits="userSpaceOnUse" gradientTransform="translate(28.1236 2.8001) rotate(144.267) scale(23.2318 23.0669)">
<stop offset="0.216485" stop-color="white"/>
<stop offset="0.906332" stop-color="white" stop-opacity="0"/>
</radialGradient>
<linearGradient id="paint5_linear_729_4748" x1="24.1427" y1="8.03854" x2="10.3132" y2="14.0627" gradientUnits="userSpaceOnUse">
<stop stop-color="white"/>
<stop offset="0.732381" stop-color="white" stop-opacity="0"/>
</linearGradient>
<linearGradient id="paint6_linear_729_4748" x1="24.1427" y1="8.03854" x2="10.3132" y2="14.0627" gradientUnits="userSpaceOnUse">
<stop stop-color="white"/>
<stop offset="0.732381" stop-color="white" stop-opacity="0"/>
</linearGradient>
<linearGradient id="paint7_linear_729_4748" x1="49.8124" y1="-20.6167" x2="-6.74922" y2="26.5069" gradientUnits="userSpaceOnUse">
<stop stop-color="#04171E"/>
<stop offset="1" stop-color="#04171E" stop-opacity="0"/>
</linearGradient>
<linearGradient id="paint8_linear_729_4748" x1="26.0283" y1="16.8916" x2="4.81258" y2="24.3825" gradientUnits="userSpaceOnUse">
<stop stop-color="#0E6585"/>
<stop offset="1" stop-color="#04171E"/>
</linearGradient>
<radialGradient id="paint9_radial_729_4748" cx="0" cy="0" r="1" gradientUnits="userSpaceOnUse" gradientTransform="translate(4.29476 29.3179) rotate(-38.5632) scale(19.3436 301.699)">
<stop offset="0.104167" stop-color="#3A78B1"/>
<stop offset="0.520341" stop-color="#4FC1C0"/>
<stop offset="1" stop-color="#8CF2FD"/>
</radialGradient>
<linearGradient id="paint10_linear_729_4748" x1="30.8477" y1="15.4772" x2="22.6888" y2="27.8442" gradientUnits="userSpaceOnUse">
<stop stop-color="white" stop-opacity="0.64"/>
<stop offset="1" stop-color="white" stop-opacity="0"/>
</linearGradient>
<linearGradient id="paint11_linear_729_4748" x1="22.2456" y1="17.031" x2="19.5932" y2="15.3914" gradientUnits="userSpaceOnUse">
<stop stop-color="#8CF2FD"/>
<stop offset="1" stop-color="#8CF2FD" stop-opacity="0"/>
</linearGradient>
</defs>
</svg>
