<svg width="32" height="32" viewBox="0 0 32 32" fill="none" xmlns="http://www.w3.org/2000/svg">
<g clip-path="url(#clip0_2046_7730)">
<path d="M26.3364 3.49223C26.1673 3.49223 26.075 3.49223 25.9879 3.49223C20.8536 3.49223 15.7193 3.49223 10.5799 3.48711C10.3186 3.48711 10.2417 3.55372 10.252 3.81504C10.2725 4.39406 10.252 4.97308 10.2622 5.55722C10.2673 5.74681 10.2007 5.80829 10.0111 5.80317C9.13491 5.79292 8.25358 5.79292 7.37736 5.80317C7.17752 5.80317 7.13653 5.73143 7.13653 5.54697C7.14165 4.3172 7.13653 3.09256 7.14166 1.86279C7.14678 1.04294 7.83853 0.356323 8.6635 0.356323C15.9294 0.356323 23.2004 0.356323 30.4664 0.356323C31.0864 0.356323 31.6808 0.776493 31.9011 1.36063C32.1214 1.93452 31.9626 2.64676 31.5168 3.05156C29.5645 4.81423 27.6071 6.57177 25.6549 8.32932C25.2296 8.71362 24.8094 9.10817 24.379 9.48735C24.051 9.76917 23.6667 9.89727 23.2312 9.89727C16.6775 9.89215 10.129 9.89727 3.57531 9.89727C3.4882 9.89727 3.40622 9.90239 3.31911 9.89727C3.19613 9.89215 3.15001 9.94851 3.15514 10.0664C3.16026 10.1176 3.15514 10.1688 3.15514 10.2201C3.15514 16.1998 3.15514 22.1796 3.15514 28.1593C3.15514 28.4873 3.15514 28.4924 3.4882 28.4924C9.81641 28.4924 16.1497 28.4924 22.478 28.4924C22.6061 28.4924 22.7239 28.4924 22.8315 28.395C23.9383 27.3958 25.0451 26.3967 26.157 25.4026C26.1929 25.3718 26.239 25.3462 26.3005 25.3104C26.1519 25.2335 26.0392 25.2591 25.9316 25.2591C20.249 25.2591 14.5664 25.2591 8.88896 25.2591C8.28432 25.2591 7.76167 25.0849 7.40811 24.5674C7.24414 24.3265 7.14166 24.0601 7.14166 23.7578C7.14678 19.5356 7.14678 15.3134 7.13653 11.0912C7.13653 10.8913 7.20827 10.8503 7.38761 10.8555C8.2382 10.8606 9.09392 10.8657 9.94451 10.8555C10.1905 10.8503 10.2622 10.917 10.2622 11.168C10.252 14.6421 10.2571 18.1111 10.2571 21.5852C10.2571 22.1949 10.1751 22.113 10.7849 22.113C17.2873 22.113 23.7846 22.113 30.287 22.113C30.9531 22.113 31.4809 22.3435 31.8089 22.9431C32.1522 23.5682 32.0241 24.3522 31.4963 24.8338C30.1282 26.0738 28.7498 27.3087 27.3766 28.5436C26.3825 29.4403 25.3884 30.337 24.3944 31.2286C24.1177 31.4797 23.7948 31.6488 23.4054 31.6385C23.3388 31.6385 23.2671 31.6385 23.2005 31.6385C16.0268 31.6385 8.85309 31.6385 1.67941 31.6437C1.00303 31.6437 0.500877 31.3772 0.183185 30.7828C0.0550836 30.5369 0.00384304 30.2653 0.00384304 29.9937C-0.00128101 22.8098 -0.00128101 15.6259 0.00384304 8.44717C0.00384304 7.43774 0.726336 6.77161 1.68453 6.77673C8.58664 6.79211 15.4887 6.78186 22.3909 6.78698C22.6112 6.78698 22.7752 6.72549 22.9391 6.5769C24.0459 5.54697 25.1578 4.54778 26.3364 3.49223Z" fill="#EB1B48"/>
</g>
<defs>
<clipPath id="clip0_2046_7730">
<rect width="32" height="32" fill="white"/>
</clipPath>
</defs>
</svg>
