<svg width="24" height="24" viewBox="0 0 24 24" fill="none" xmlns="http://www.w3.org/2000/svg">
<g clip-path="url(#clip0_2066_7513)">
<rect width="24" height="24" rx="4" fill="#0D4064"/>
<g clip-path="url(#clip1_2066_7513)">
<path d="M15.8761 7.30959C15.8127 7.30959 15.7781 7.30959 15.7455 7.30959C13.8201 7.30959 11.8947 7.30959 9.96746 7.30767C9.86946 7.30767 9.84064 7.33265 9.84448 7.43065C9.85217 7.64778 9.84448 7.86491 9.84833 8.08396C9.85025 8.15506 9.82527 8.17811 9.75417 8.17619C9.42559 8.17235 9.09509 8.17235 8.76651 8.17619C8.69157 8.17619 8.6762 8.14929 8.6762 8.08012C8.67812 7.61895 8.6762 7.15971 8.67812 6.69855C8.68004 6.39111 8.93945 6.13363 9.24881 6.13363C11.9735 6.13363 14.7002 6.13363 17.4249 6.13363C17.6574 6.13363 17.8803 6.29119 17.9629 6.51024C18.0455 6.72545 17.986 6.99254 17.8188 7.14434C17.0867 7.80534 16.3527 8.46442 15.6206 9.1235C15.4611 9.26761 15.3035 9.41557 15.1421 9.55776C15.0191 9.66344 14.875 9.71148 14.7117 9.71148C12.2541 9.70956 9.79837 9.71148 7.34074 9.71148C7.30808 9.71148 7.27733 9.7134 7.24467 9.71148C7.19855 9.70956 7.18126 9.7307 7.18318 9.77489C7.1851 9.79411 7.18318 9.81332 7.18318 9.83254C7.18318 12.0749 7.18318 14.3173 7.18318 16.5597C7.18318 16.6827 7.18318 16.6846 7.30808 16.6846C9.68115 16.6846 12.0562 16.6846 14.4292 16.6846C14.4773 16.6846 14.5215 16.6846 14.5618 16.6481C14.9769 16.2734 15.3919 15.8987 15.8089 15.526C15.8223 15.5144 15.8396 15.5048 15.8627 15.4914C15.807 15.4626 15.7647 15.4722 15.7243 15.4722C13.5934 15.4722 11.4624 15.4722 9.33336 15.4722C9.10662 15.4722 8.91062 15.4068 8.77804 15.2128C8.71655 15.1225 8.67812 15.0225 8.67812 14.9092C8.68004 13.3258 8.68004 11.7425 8.6762 10.1592C8.6762 10.0843 8.7031 10.0689 8.77035 10.0708C9.08933 10.0727 9.41022 10.0746 9.72919 10.0708C9.82143 10.0689 9.84833 10.0939 9.84833 10.188C9.84448 11.4908 9.84641 12.7917 9.84641 14.0944C9.84641 14.3231 9.81566 14.2924 10.0443 14.2924C12.4827 14.2924 14.9192 14.2924 17.3576 14.2924C17.6074 14.2924 17.8053 14.3788 17.9283 14.6037C18.0571 14.8381 18.009 15.1321 17.8111 15.3127C17.2981 15.7777 16.7812 16.2408 16.2662 16.7039C15.8934 17.0401 15.5207 17.3764 15.1479 17.7107C15.0441 17.8049 14.9231 17.8683 14.777 17.8645C14.7521 17.8645 14.7251 17.8645 14.7002 17.8645C12.01 17.8645 9.31991 17.8645 6.62978 17.8664C6.37614 17.8664 6.18783 17.7665 6.06869 17.5436C6.02066 17.4513 6.00144 17.3495 6.00144 17.2477C5.99952 14.5537 5.99952 11.8597 6.00144 9.16769C6.00144 8.78915 6.27238 8.53936 6.6317 8.54128C9.21999 8.54704 11.8083 8.5432 14.3966 8.54512C14.4792 8.54512 14.5407 8.52206 14.6022 8.46634C15.0172 8.08012 15.4342 7.70542 15.8761 7.30959Z" fill="#EB1B48"/>
</g>
</g>
<defs>
<clipPath id="clip0_2066_7513">
<rect width="24" height="24" fill="white"/>
</clipPath>
<clipPath id="clip1_2066_7513">
<rect width="12" height="12" fill="white" transform="translate(6 6)"/>
</clipPath>
</defs>
</svg>
