<svg width="24" height="24" viewBox="0 0 24 24" fill="none" xmlns="http://www.w3.org/2000/svg">
<g clip-path="url(#clip0_2066_7420)">
<rect width="24" height="24" rx="4" fill="#5064FB"/>
<g clip-path="url(#clip1_2066_7420)">
<path fill-rule="evenodd" clip-rule="evenodd" d="M13.707 9.03064L9.18468 13.4434C9.12637 13.333 9.07373 13.218 9.02657 13.0986C8.86864 12.6977 8.78967 12.2723 8.78967 11.823C8.78967 11.3734 8.86864 10.9482 9.02657 10.5472C9.18468 10.1461 9.40366 9.79811 9.6837 9.50275C9.96374 9.20757 10.3003 8.9741 10.6931 8.80216C11.0861 8.6304 11.5173 8.54443 11.9869 8.54443C12.4567 8.54443 12.8902 8.63254 13.2874 8.80894C13.4351 8.8744 13.575 8.94824 13.707 9.03064ZM13.3081 14.8689C12.9151 15.0408 12.4839 15.1266 12.0143 15.1266C11.5446 15.1266 11.111 15.0385 10.7136 14.8623C10.5661 14.7966 10.4262 14.7228 10.2944 14.6402L14.8165 10.2278C14.8748 10.338 14.9275 10.4529 14.9747 10.5724C15.1325 10.9733 15.2115 11.3987 15.2115 11.8482C15.2115 12.2976 15.1325 12.7228 14.9747 13.124C14.8165 13.5249 14.5975 13.8729 14.3175 14.1681C14.0374 14.4633 13.7011 14.6969 13.3081 14.8689ZM13.9915 16.2377C14.5967 15.9821 15.1206 15.6362 15.5632 15.1998C16.0057 14.7637 16.3488 14.2547 16.5927 13.673C16.8366 13.0914 16.9586 12.4745 16.9586 11.8224C16.9586 11.1701 16.8366 10.5532 16.5927 9.97136C16.4481 9.62643 16.27 9.30787 16.0587 9.01553L19 6.14555L17.8312 5.00513L14.881 7.88384C14.6161 7.70763 14.3286 7.55531 14.0186 7.42671C13.4133 7.17558 12.7451 7.04984 12.0135 7.04984C11.2818 7.04984 10.6135 7.17772 10.0083 7.43331C9.40309 7.6889 8.8792 8.03474 8.43666 8.471C7.99412 8.90727 7.65084 9.4163 7.407 9.99796C7.16315 10.5796 7.04123 11.1965 7.04123 11.8488C7.04123 12.5008 7.16315 13.1176 7.407 13.6994C7.55177 14.0446 7.72981 14.3631 7.94112 14.6556L5 17.5252L6.16877 18.6657L9.11884 15.7871C9.38371 15.9634 9.67123 16.1156 9.98124 16.2442C10.5865 16.4954 11.2548 16.621 11.9863 16.621C12.718 16.621 13.3863 16.4931 13.9915 16.2377Z" fill="white"/>
</g>
</g>
<defs>
<clipPath id="clip0_2066_7420">
<rect width="24" height="24" fill="white"/>
</clipPath>
<clipPath id="clip1_2066_7420">
<rect width="14" height="14" fill="white" transform="translate(5 5)"/>
</clipPath>
</defs>
</svg>
