<svg width="32" height="32" viewBox="0 0 32 32" fill="none" xmlns="http://www.w3.org/2000/svg">
<g clip-path="url(#clip0_1356_5542)">
<path fill-rule="evenodd" clip-rule="evenodd" d="M19.9016 9.21289L9.56499 19.2993C9.43171 19.0469 9.31138 18.7839 9.20359 18.5112C8.8426 17.5948 8.66211 16.6224 8.66211 15.5955C8.66211 14.5677 8.8426 13.5958 9.20359 12.6794C9.56499 11.7625 10.0655 10.9671 10.7056 10.292C11.3457 9.61731 12.1149 9.08366 13.0128 8.69066C13.911 8.29806 14.8967 8.10156 15.97 8.10156C17.0438 8.10156 18.0348 8.30296 18.9427 8.70615C19.2803 8.85577 19.5999 9.02455 19.9016 9.21289ZM18.99 22.5574C18.0917 22.9504 17.1061 23.1465 16.0327 23.1465C14.959 23.1465 13.9679 22.9451 13.0596 22.5423C12.7224 22.3923 12.4028 22.2235 12.1016 22.0348L22.4377 11.9492C22.571 12.2012 22.6914 12.4637 22.7992 12.7369C23.1601 13.6533 23.3406 14.6256 23.3406 15.653C23.3406 16.6803 23.1601 17.6522 22.7992 18.5691C22.4377 19.4856 21.9372 20.2809 21.2971 20.9556C20.657 21.6304 19.8883 22.1644 18.99 22.5574ZM20.552 25.6861C21.9354 25.1019 23.1328 24.3114 24.1444 23.3138C25.1559 22.317 25.9401 21.1535 26.4975 19.8241C27.0552 18.4946 27.3339 17.0845 27.3339 15.594C27.3339 14.1031 27.0552 12.693 26.4975 11.3631C26.167 10.5747 25.76 9.84655 25.277 9.17836L32 2.61841L29.3285 0.0117188L22.5851 6.59164C21.9797 6.18886 21.3225 5.8407 20.6139 5.54676C19.2305 4.97275 17.703 4.68534 16.0309 4.68534C14.3584 4.68534 12.8309 4.97765 11.4476 5.56185C10.0642 6.14605 8.86674 6.93654 7.85523 7.93372C6.84371 8.9309 6.05907 10.0944 5.50171 11.4239C4.94435 12.7533 4.66567 14.1634 4.66567 15.6543C4.66567 17.1448 4.94435 18.5546 5.50171 19.8844C5.83262 20.6733 6.23956 21.4014 6.72255 22.07L0 28.6291L2.67147 31.2358L9.41449 24.6563C10.0199 25.0591 10.6771 25.4072 11.3857 25.7011C12.7691 26.2752 14.2966 26.5622 15.9687 26.5622C17.6412 26.5622 19.1687 26.2699 20.552 25.6861Z" fill="black"/>
</g>
<defs>
<clipPath id="clip0_1356_5542">
<rect width="32" height="32" fill="white"/>
</clipPath>
</defs>
</svg>
