<svg width="24" height="24" viewBox="0 0 24 24" fill="none" xmlns="http://www.w3.org/2000/svg">
<g clip-path="url(#clip0_4356_1408)">
<path d="M1.21876 14.9344C0.679942 14.3955 0.318588 13.7732 0.134705 13.0674C-0.0449016 12.3574 -0.0449018 11.6474 0.134705 10.9374C0.318588 10.2231 0.677798 9.59861 1.21234 9.06396C1.75544 8.52075 2.38193 8.15933 3.0918 7.97969C3.80168 7.80005 4.51156 7.80005 5.22143 7.97969C5.93131 8.15933 6.55565 8.51863 7.09448 9.05756L8.4287 10.3921L10.4043 8.41596L9.07013 7.08147C8.53132 6.54254 8.16996 5.92021 7.98608 5.21446C7.80647 4.50445 7.80435 3.79658 7.97968 3.09083C8.15928 2.38082 8.52064 1.75421 9.06374 1.211C9.60255 0.672074 10.2269 0.312793 10.9367 0.13315C11.6466 -0.0464929 12.3544 -0.0443601 13.06 0.13956C13.7699 0.319202 14.3942 0.678495 14.933 1.21742C15.4719 1.75635 15.8311 2.38082 16.0107 3.09083C16.1945 3.79658 16.1966 4.50445 16.017 5.21446C15.8418 5.92876 15.4847 6.55538 14.9458 7.09431L13.6181 8.42239L15.5873 10.3921L16.9151 9.06396C17.4539 8.52503 18.0762 8.16361 18.7818 7.97969C19.4916 7.80005 20.1993 7.80218 20.9049 7.9861C21.6148 8.16574 22.2413 8.52718 22.7844 9.07038C23.3232 9.60931 23.6825 10.2338 23.8621 10.9438C24.046 11.6495 24.046 12.3553 23.8621 13.061C23.6825 13.7711 23.3232 14.3955 22.7844 14.9344C22.2413 15.4777 21.6148 15.8391 20.9049 16.0187C20.1993 16.1941 19.4916 16.192 18.7818 16.0123C18.0804 15.8327 17.4603 15.4734 16.9215 14.9344L15.5937 13.6064L13.6181 15.5824L14.9458 16.9105C15.4847 17.4494 15.8418 18.0718 16.017 18.7775C16.1966 19.4875 16.1966 20.1975 16.017 20.9076C15.8374 21.6176 15.4761 22.2442 14.933 22.7873C14.3985 23.3221 13.7741 23.6813 13.06 23.8653C12.3501 24.0449 11.6402 24.0449 10.9303 23.8653C10.2291 23.6856 9.60895 23.3263 9.07013 22.7873C8.52703 22.2442 8.16356 21.6197 7.97968 20.9139C7.80007 20.2039 7.80007 19.494 7.97968 18.7839C8.16784 18.0739 8.52919 17.4515 9.06374 16.9169L10.4043 15.576L8.43511 13.6064L7.09448 14.9472C6.55993 15.4819 5.93344 15.8391 5.21501 16.0187C4.50514 16.1984 3.79527 16.1984 3.0854 16.0187C2.37979 15.8348 1.75759 15.4734 1.21876 14.9344ZM2.82239 13.3305C3.06614 13.5742 3.34838 13.7368 3.6691 13.818C3.99411 13.9036 4.31698 13.9058 4.63771 13.8245C4.95844 13.7433 5.24068 13.5807 5.48443 13.3369L6.82506 11.996L5.49084 10.6615C5.24709 10.4177 4.96271 10.2573 4.63771 10.1803C4.31698 10.099 3.99626 10.099 3.67553 10.1803C3.35481 10.2616 3.07042 10.4262 2.82239 10.6743C2.57863 10.9181 2.41401 11.1983 2.32848 11.5148C2.24723 11.8356 2.24723 12.1564 2.32848 12.4772C2.41401 12.8022 2.57863 13.0867 2.82239 13.3305ZM10.6738 5.47752L12.008 6.812L13.3358 5.48393C13.5838 5.23586 13.7464 4.95357 13.8234 4.63705C13.9045 4.31626 13.9024 3.99333 13.8169 3.66825C13.7357 3.34747 13.5731 3.06517 13.3294 2.82136C13.0857 2.57757 12.8034 2.41504 12.4826 2.33377C12.162 2.25251 11.8412 2.25251 11.5205 2.33377C11.204 2.41076 10.9218 2.57329 10.6738 2.82136C10.43 3.06517 10.2633 3.34747 10.1735 3.66825C10.0922 3.98905 10.0922 4.30984 10.1735 4.63063C10.2633 4.95142 10.43 5.23372 10.6738 5.47752ZM16.8217 12.0024L18.1495 13.3305C18.3932 13.5742 18.6734 13.7389 18.9899 13.8245C19.3105 13.9058 20.0048 13.9036 20.3212 13.818C20.642 13.7368 20.9264 13.5721 21.1744 13.324C21.4223 13.076 21.5849 12.7937 21.6618 12.4772C21.7474 12.1607 21.7495 11.842 21.6683 11.5212C21.587 11.2004 21.4246 10.9181 21.1808 10.6743C20.9328 10.4262 20.6483 10.2616 20.3277 10.1803C20.0069 10.099 19.3105 10.099 18.9899 10.1803C18.6776 10.2616 18.3976 10.4262 18.1495 10.6743L16.8217 12.0024ZM10.6738 21.1834C10.9176 21.4272 11.1998 21.5898 11.5205 21.6711C11.8412 21.7523 12.1599 21.7502 12.4763 21.6647C12.797 21.5834 13.0793 21.4208 13.323 21.177C13.571 20.929 13.7357 20.6446 13.8169 20.3237C13.9024 20.0072 13.9045 19.6886 13.8234 19.3677C13.7464 19.0427 13.586 18.7583 13.3422 18.5145L12.0144 17.1864L10.6738 18.5273C10.43 18.7711 10.2654 19.0513 10.1799 19.3677C10.0986 19.6886 10.0986 20.0093 10.1799 20.3301C10.2611 20.6509 10.4257 20.9354 10.6738 21.1834ZM10.0387 12.0024L12.008 13.9721L13.9837 11.996L12.0144 10.0263L10.0387 12.0024Z" fill="#24201F"/>
</g>
<defs>
<clipPath id="clip0_4356_1408">
<rect width="24" height="24" fill="white"/>
</clipPath>
</defs>
</svg>
