<svg width="24" height="24" viewBox="0 0 24 24" fill="none" xmlns="http://www.w3.org/2000/svg">
<g clip-path="url(#clip0_4356_2457)">
<rect width="24" height="24" rx="4" fill="#24201F"/>
<g clip-path="url(#clip1_4356_2457)">
<path d="M4.81239 13.9563C4.45317 13.597 4.21227 13.1821 4.08968 12.7116C3.96994 12.2383 3.96994 11.765 4.08968 11.2916C4.21227 10.8154 4.45174 10.3991 4.80811 10.0426C5.17017 9.6805 5.58783 9.43955 6.06108 9.31979C6.53433 9.20003 7.00759 9.20003 7.48083 9.31979C7.95409 9.43955 8.37031 9.67908 8.72953 10.0384L9.61901 10.9281L10.9361 9.61064L10.0466 8.72098C9.68742 8.3617 9.44652 7.94681 9.32393 7.47631C9.20419 7.00297 9.20278 6.53105 9.31966 6.06056C9.4394 5.58722 9.6803 5.16947 10.0424 4.80733C10.4016 4.44805 10.8178 4.20853 11.291 4.08877C11.7643 3.969 12.2362 3.97043 12.7065 4.09304C13.1798 4.2128 13.596 4.45233 13.9552 4.81162C14.3145 5.1709 14.554 5.58722 14.6737 6.06056C14.7962 6.53105 14.7976 7.00297 14.6779 7.47631C14.561 7.95251 14.323 8.37025 13.9638 8.72954L13.0786 9.61492L14.3914 10.9281L15.2766 10.0426C15.6358 9.68335 16.0507 9.4424 16.521 9.31979C16.9943 9.20003 17.4661 9.20145 17.9365 9.32407C18.4097 9.44383 18.8274 9.68479 19.1895 10.0469C19.5487 10.4062 19.7882 10.8225 19.9079 11.2959C20.0305 11.7664 20.0305 12.2369 19.9079 12.7073C19.7882 13.1807 19.5487 13.597 19.1895 13.9563C18.8274 14.3184 18.4097 14.5594 17.9365 14.6792C17.4661 14.796 16.9943 14.7946 16.521 14.6749C16.0535 14.5551 15.6401 14.3156 15.2809 13.9563L14.3957 13.0709L13.0786 14.3883L13.9638 15.2736C14.323 15.633 14.561 16.0479 14.6779 16.5183C14.7976 16.9917 14.7976 17.465 14.6779 17.9384C14.5582 18.4117 14.3173 18.8294 13.9552 19.1916C13.5989 19.5481 13.1826 19.7875 12.7065 19.9102C12.2333 20.0299 11.76 20.0299 11.2868 19.9102C10.8192 19.7904 10.4058 19.5509 10.0466 19.1916C9.68457 18.8294 9.44225 18.4131 9.31966 17.9426C9.19993 17.4693 9.19993 16.996 9.31966 16.5226C9.44511 16.0493 9.686 15.6344 10.0424 15.2779L10.9361 14.384L9.62329 13.0709L8.72953 13.9648C8.37316 14.3213 7.9555 14.5594 7.47655 14.6792C7.0033 14.7989 6.53006 14.7989 6.05681 14.6792C5.58641 14.5565 5.1716 14.3156 4.81239 13.9563ZM5.88147 12.887C6.04397 13.0495 6.23213 13.1579 6.44595 13.212C6.66262 13.2691 6.87786 13.2705 7.09168 13.2163C7.3055 13.1622 7.49366 13.0538 7.65616 12.8913L8.54992 11.9973L7.66044 11.1076C7.49794 10.9451 7.30835 10.8382 7.09168 10.7869C6.87786 10.7327 6.66405 10.7327 6.45023 10.7869C6.23642 10.8411 6.04682 10.9508 5.88147 11.1162C5.71897 11.2787 5.60922 11.4655 5.5522 11.6765C5.49803 11.8904 5.49803 12.1043 5.5522 12.3181C5.60922 12.5348 5.71897 12.7244 5.88147 12.887ZM11.1157 7.65168L12.0052 8.54133L12.8904 7.65596C13.0558 7.49058 13.1641 7.30238 13.2154 7.09136C13.2696 6.87751 13.2682 6.66222 13.2112 6.4455C13.157 6.23164 13.0486 6.04345 12.8861 5.88091C12.7237 5.71838 12.5355 5.61002 12.3216 5.55585C12.1079 5.50167 11.894 5.50167 11.6802 5.55585C11.4692 5.60717 11.2811 5.71553 11.1157 5.88091C10.9532 6.04345 10.8421 6.23164 10.7822 6.4455C10.728 6.65937 10.728 6.87322 10.7822 7.08709C10.8421 7.30095 10.9532 7.48914 11.1157 7.65168ZM15.2143 12.0016L16.0996 12.887C16.262 13.0495 16.4488 13.1593 16.6598 13.2163C16.8736 13.2705 17.3364 13.2691 17.5474 13.212C17.7612 13.1579 17.9508 13.0481 18.1162 12.8827C18.2814 12.7174 18.3898 12.5291 18.4411 12.3181C18.4982 12.1071 18.4996 11.8947 18.4454 11.6808C18.3912 11.4669 18.2829 11.2787 18.1204 11.1162C17.9551 10.9508 17.7654 10.8411 17.5516 10.7869C17.3378 10.7327 16.8736 10.7327 16.6598 10.7869C16.4516 10.8411 16.2649 10.9508 16.0996 11.1162L15.2143 12.0016ZM11.1157 18.1223C11.2783 18.2848 11.4664 18.3932 11.6802 18.4474C11.894 18.5015 12.1064 18.5001 12.3174 18.4431C12.5312 18.3889 12.7194 18.2805 12.8819 18.118C13.0472 17.9527 13.157 17.763 13.2112 17.5491C13.2682 17.3382 13.2696 17.1257 13.2154 16.9118C13.1641 16.6952 13.0572 16.5055 12.8947 16.343L12.0095 15.4576L11.1157 16.3515C10.9532 16.5141 10.8435 16.7008 10.7865 16.9118C10.7323 17.1257 10.7323 17.3396 10.7865 17.5534C10.8406 17.7672 10.9504 17.9569 11.1157 18.1223ZM10.6924 12.0016L12.0052 13.3147L13.3223 11.9973L12.0095 10.6842L10.6924 12.0016Z" fill="#F1E1D4"/>
</g>
</g>
<defs>
<clipPath id="clip0_4356_2457">
<rect width="24" height="24" fill="white"/>
</clipPath>
<clipPath id="clip1_4356_2457">
<rect width="16" height="16" fill="white" transform="translate(4 4)"/>
</clipPath>
</defs>
</svg>
