<svg width="24" height="24" viewBox="0 0 24 24" fill="none" xmlns="http://www.w3.org/2000/svg">
<g clip-path="url(#clip0_2066_7493)">
<rect width="24" height="24" rx="4" fill="url(#paint0_linear_2066_7493)"/>
<path d="M10.0018 7.10006C6.89089 8.22315 6.60593 11.0994 5.71391 12.4427C4.81133 13.8019 2.74357 14.5519 3.02633 15.2445C3.30909 15.9372 5.37931 15.1932 7.01716 15.6352C8.63561 16.0719 10.8938 18.0303 14.0046 16.9071C15.5894 16.3351 16.7369 15.1574 17.2646 13.7626C17.3213 13.6129 17.2153 13.4528 17.0469 13.438C16.9423 13.4288 16.8419 13.4803 16.7947 13.5685C16.3173 14.4627 15.4985 15.199 14.4269 15.5858C12.6579 16.2244 10.7223 15.723 9.53352 14.4655C9.26353 14.1799 9.03261 13.8548 8.85032 13.4955C8.8002 13.3967 8.75255 13.2962 8.71029 13.1922C8.66779 13.0882 8.63168 12.9836 8.59851 12.8784C9.53352 12.4686 10.6125 12.0344 11.8356 11.5929C13.035 11.1599 14.1265 10.8087 15.0984 10.5278C15.7557 10.3379 16.3583 10.1799 16.9025 10.0507C16.9418 10.0415 16.9807 10.0322 17.0192 10.0232C17.1015 10.004 17.186 10.0454 17.2164 10.1198L17.217 10.1212C17.2349 10.1653 17.2503 10.2097 17.267 10.254C17.3747 10.5403 17.4553 10.8295 17.5086 11.1195C17.5318 11.2463 17.6793 11.3154 17.8001 11.2544C18.2467 11.0289 18.6553 10.809 19.0204 10.5973C20.3807 9.80949 21.1348 9.14131 20.9801 8.76264C20.8256 8.38373 19.7898 8.36201 18.2183 8.63233C17.7188 8.71828 17.1651 8.8338 16.5684 8.97681C16.4652 9.00153 16.3608 9.02718 16.2552 9.05351C15.753 9.17874 15.2233 9.32222 14.6718 9.4828C13.6462 9.78153 12.5459 10.1394 11.4099 10.5495C10.3472 10.9333 9.33993 11.3311 8.41623 11.7276C8.40493 10.0449 9.4866 8.45419 11.2556 7.81559C12.327 7.42883 13.4595 7.46048 14.4505 7.82484C14.5482 7.86088 14.6596 7.83592 14.7311 7.76315C14.8456 7.64647 14.8104 7.46071 14.6618 7.38493C13.2772 6.68094 11.5865 6.52799 10.0018 7.10006Z" fill="white"/>
</g>
<defs>
<linearGradient id="paint0_linear_2066_7493" x1="12" y1="0" x2="12" y2="24" gradientUnits="userSpaceOnUse">
<stop stop-color="#DB482F"/>
<stop offset="1" stop-color="#B9351E"/>
</linearGradient>
<clipPath id="clip0_2066_7493">
<rect width="24" height="24" fill="white"/>
</clipPath>
</defs>
</svg>
