<svg width="32" height="32" viewBox="0 0 32 32" fill="none" xmlns="http://www.w3.org/2000/svg">
<path d="M12.4476 7.28901C6.91714 9.28562 6.41053 14.399 4.82473 16.787C3.22015 19.2034 -0.455872 20.5367 0.0468149 21.7681C0.549501 22.9995 4.22989 21.6769 7.14162 22.4626C10.0189 23.2389 14.0334 26.7205 19.5638 24.7238C22.3811 23.7068 24.4212 21.6132 25.3593 19.1336C25.4601 18.8674 25.2716 18.5828 24.9723 18.5565C24.7863 18.5401 24.6077 18.6316 24.5239 18.7886C23.6752 20.3781 22.2196 21.6872 20.3145 22.3747C17.1696 23.51 13.7285 22.6187 11.6151 20.3831C11.1352 19.8754 10.7246 19.2975 10.4006 18.6588C10.3115 18.483 10.2267 18.3043 10.1516 18.1195C10.0761 17.9346 10.0119 17.7486 9.95291 17.5617C11.6151 16.833 13.5333 16.0612 15.7078 15.2763C17.84 14.5066 19.7804 13.8822 21.5082 13.3828C22.6769 13.0452 23.7482 12.7642 24.7155 12.5346C24.7854 12.5182 24.8545 12.5017 24.923 12.4857C25.0693 12.4516 25.2195 12.5251 25.2736 12.6574L25.2747 12.6599C25.3064 12.7383 25.3339 12.8172 25.3636 12.896C25.555 13.405 25.6983 13.9192 25.793 14.4347C25.8344 14.6602 26.0965 14.783 26.3113 14.6746C27.1053 14.2737 27.8317 13.8827 28.4807 13.5064C30.899 12.1058 32.2396 10.9179 31.9645 10.2447C31.6899 9.5711 29.8486 9.53248 27.0547 10.0131C26.1668 10.1658 25.1824 10.3712 24.1216 10.6255C23.9382 10.6694 23.7525 10.715 23.5647 10.7618C22.672 10.9845 21.7304 11.2395 20.7499 11.525C18.9266 12.0561 16.9704 12.6923 14.9509 13.4214C13.0616 14.1036 11.271 14.8109 9.62886 15.5158C9.60877 12.5243 11.5317 9.69637 14.6767 8.56107C16.5813 7.87349 18.5947 7.92977 20.3564 8.57751C20.5302 8.64158 20.7282 8.59721 20.8552 8.46784C21.0588 8.26041 20.9963 7.93018 20.7321 7.79545C18.2706 6.54392 15.265 6.27201 12.4476 7.28901Z" fill="#ED4E33"/>
</svg>
