<svg width="24" height="24" viewBox="0 0 24 24" fill="none" xmlns="http://www.w3.org/2000/svg">
<g clip-path="url(#clip0_2066_7415)">
<rect width="24" height="24" rx="4" fill="#45277A"/>
<path d="M12 2C17.525 2 22 6.475 22 12C22 17.525 17.525 22 12 22C6.475 22 2 17.525 2 12C2 6.475 6.475 2 12 2ZM12 2.25C6.625 2.25 2.25 6.625 2.25 12C2.25 17.375 6.625 21.75 12 21.75C17.375 21.75 21.75 17.375 21.75 12C21.75 6.625 17.375 2.25 12 2.25ZM15.45 14.975C15.625 14.325 16.25 13.9 16.925 14.025C17.55 14.125 18 14.675 18 15.3C18.0024 15.6359 17.8737 15.9594 17.6413 16.2019C17.4089 16.4444 17.0912 16.5868 16.7555 16.5988L16.7 16.6H16.625C16.1 16.575 15.65 16.225 15.475 15.725C15.425 15.575 15.4 15.45 15.4 15.3C15.4 15.2 15.425 15.075 15.45 14.975ZM6.975 14.05C7.65 13.875 8.375 14.275 8.55 14.975C8.5715 15.0608 8.59275 15.165 8.5985 15.2872L8.6 15.35V15.425L8.585 15.485L8.565 15.615L8.55 15.675L8.525 15.75V15.725L8.5 15.775C8.35 16.15 8.025 16.45 7.625 16.55C6.95 16.725 6.225 16.325 6.05 15.625C5.875 14.95 6.275 14.225 6.975 14.05ZM7.3 14.7C6.95 14.7 6.675 14.975 6.675 15.325C6.675 15.675 6.95 15.95 7.3 15.95C7.65 15.95 7.925 15.675 7.925 15.325C7.925 14.975 7.65 14.7 7.3 14.7ZM16.75 14.675H16.65C16.35 14.7 16.1 14.95 16.075 15.25C16.05 15.6 16.3 15.9 16.65 15.925C17 15.95 17.3 15.7 17.325 15.35C17.349 15.014 17.1195 14.724 16.7915 14.6792L16.75 14.675ZM15.15 14.975L15.125 15.05C15.1 15.125 15.1 15.225 15.1 15.3C15.1 15.4285 15.1182 15.5573 15.155 15.67L15.175 15.725L8.825 15.7L8.85 15.625C8.875 15.525 8.9 15.4 8.9 15.3C8.9 15.22 8.884 15.124 8.865 15.0375L8.85 14.975H15.15ZM10.975 8.375L11.05 8.45C11.09 8.49 11.146 8.53 11.205 8.57L11.25 8.6C11.3357 8.66425 11.4583 8.71 11.57 8.73775L11.625 8.75L8.45 14.25L8.4 14.2C8.26494 14.0407 8.08616 13.9244 7.88575 13.8655L7.825 13.85L10.975 8.375ZM13.075 8.375L16.225 13.85L16.15 13.875C16.075 13.9 16 13.925 15.925 13.975C15.8177 14.0178 15.729 14.0975 15.643 14.1825L15.6 14.225L12.425 8.725L12.5 8.7C12.625 8.675 12.725 8.625 12.825 8.575C12.885 8.535 12.961 8.479 13.0275 8.42L13.075 8.375ZM12 5.85C12.725 5.85 13.3 6.45 13.3 7.15C13.3 7.875 12.725 8.45 12 8.45C11.275 8.45 10.7 7.875 10.7 7.15C10.7 6.425 11.275 5.85 12 5.85ZM12.575 6.925C12.45 6.6 12.075 6.45 11.75 6.575C11.525 6.675 11.375 6.9 11.35 7.175C11.35 7.525 11.625 7.8 11.975 7.8C12.075 7.8 12.15 7.775 12.225 7.75C12.55 7.625 12.7 7.25 12.575 6.925Z" fill="white"/>
</g>
<defs>
<clipPath id="clip0_2066_7415">
<rect width="24" height="24" fill="white"/>
</clipPath>
</defs>
</svg>
