<svg width="24" height="24" viewBox="0 0 24 24" fill="none" xmlns="http://www.w3.org/2000/svg">
<path d="M12 24C18.6274 24 24 18.6274 24 12C24 5.37258 18.6274 0 12 0C5.37258 0 0 5.37258 0 12C0 18.6274 5.37258 24 12 24Z" fill="#6155C5"/>
<path fill-rule="evenodd" clip-rule="evenodd" d="M11.7941 21L4 16.4984V7.50163L11.7941 3L19.5882 7.49837V16.4984L11.7941 21ZM4.65037 16.1222L11.7941 20.2488L18.9379 16.1244V7.87559L11.7941 3.75117L4.65037 7.87559V16.1222ZM11.7941 8.94303C11.5878 8.94303 11.3862 8.88188 11.2148 8.7673C11.0433 8.65272 10.9096 8.48986 10.8307 8.29932C10.7518 8.10878 10.7311 7.89912 10.7714 7.69684C10.8116 7.49457 10.9109 7.30877 11.0567 7.16294C11.2026 7.0171 11.3884 6.91779 11.5906 6.87756C11.7929 6.83732 12.0026 6.85797 12.1931 6.9369C12.3837 7.01582 12.5465 7.14947 12.6611 7.32095C12.7757 7.49243 12.8368 7.69404 12.8368 7.90028C12.8365 8.17674 12.7266 8.44181 12.5311 8.6373C12.3356 8.83279 12.0705 8.94274 11.7941 8.94303ZM11.7941 7.40003C11.695 7.40003 11.5982 7.42942 11.5158 7.48447C11.4334 7.53952 11.3692 7.61776 11.3314 7.7093C11.2935 7.80084 11.2836 7.90156 11.303 7.99871C11.3223 8.09587 11.3701 8.1851 11.4402 8.25512C11.5103 8.32513 11.5995 8.37278 11.6967 8.39204C11.7939 8.41131 11.8946 8.40131 11.9861 8.36333C12.0776 8.32534 12.1558 8.26107 12.2107 8.17864C12.2657 8.09622 12.295 7.99934 12.2949 7.90028C12.2946 7.7676 12.2417 7.64044 12.1478 7.54668C12.054 7.45291 11.9268 7.40018 11.7941 7.40003ZM7.60596 15.2299C7.77744 15.3445 7.97905 15.4056 8.18529 15.4056C8.46175 15.4053 8.72682 15.2954 8.92231 15.0999C9.1178 14.9044 9.22775 14.6393 9.22804 14.3629C9.22804 14.1566 9.16688 13.955 9.0523 13.7835C8.93773 13.6121 8.77487 13.4784 8.58433 13.3995C8.39379 13.3206 8.18413 13.2999 7.98185 13.3402C7.77958 13.3804 7.59378 13.4797 7.44795 13.6255C7.30211 13.7714 7.2028 13.9572 7.16257 14.1594C7.12233 14.3617 7.14298 14.5714 7.2219 14.7619C7.30083 14.9525 7.43448 15.1153 7.60596 15.2299ZM7.90701 13.9471C7.98937 13.892 8.08622 13.8626 8.18529 13.8626C8.31801 13.8626 8.4453 13.9153 8.5392 14.0091C8.6331 14.1029 8.68592 14.2302 8.68607 14.3629C8.68618 14.4619 8.6569 14.5588 8.60193 14.6412C8.54697 14.7237 8.4688 14.7879 8.3773 14.8259C8.28581 14.8639 8.1851 14.8739 8.08792 14.8546C7.99074 14.8354 7.90146 14.7877 7.83137 14.7177C7.76128 14.6477 7.71353 14.5585 7.69416 14.4613C7.6748 14.3642 7.68468 14.2634 7.72257 14.1719C7.76046 14.0804 7.82464 14.0021 7.90701 13.9471ZM15.3809 15.4056C15.1747 15.4056 14.973 15.3445 14.8016 15.2299C14.6301 15.1153 14.4964 14.9525 14.4175 14.7619C14.3386 14.5714 14.3179 14.3617 14.3582 14.1594C14.3984 13.9572 14.4977 13.7714 14.6436 13.6255C14.7894 13.4797 14.9752 13.3804 15.1775 13.3402C15.3797 13.2999 15.5894 13.3206 15.7799 13.3995C15.9705 13.4784 16.1333 13.6121 16.2479 13.7835C16.3625 13.955 16.4236 14.1566 16.4236 14.3629C16.4234 14.6393 16.3134 14.9044 16.1179 15.0999C15.9224 15.2954 15.6574 15.4053 15.3809 15.4056ZM15.3809 13.8626C15.2818 13.8626 15.185 13.892 15.1026 13.9471C15.0203 14.0021 14.9561 14.0804 14.9182 14.1719C14.8803 14.2634 14.8704 14.3642 14.8898 14.4613C14.9091 14.5585 14.9569 14.6477 15.027 14.7177C15.0971 14.7877 15.1863 14.8354 15.2835 14.8546C15.3807 14.8739 15.4814 14.8639 15.5729 14.8259C15.6644 14.7879 15.7426 14.7237 15.7975 14.6412C15.8525 14.5588 15.8818 14.4619 15.8817 14.3629C15.8815 14.2302 15.8287 14.1029 15.7348 14.0091C15.6409 13.9153 15.5136 13.8626 15.3809 13.8626ZM12.162 9.1332C12.3369 9.08098 12.4986 8.99191 12.6362 8.87197L15.0019 13.1346C14.8275 13.1887 14.6666 13.2792 14.5298 13.4002L12.162 9.1332ZM11.433 9.13543C11.2576 9.0839 11.0952 8.99558 10.9566 8.87637L8.58877 13.1439C8.76212 13.2014 8.92121 13.2953 9.05541 13.4192L11.433 9.13543ZM14.1139 14.1463C14.1014 14.2179 14.0951 14.2904 14.095 14.3631C14.0947 14.4728 14.1085 14.5821 14.1362 14.6883H9.43076C9.45815 14.582 9.47199 14.4728 9.47195 14.3631C9.47161 14.2904 9.46526 14.2179 9.45298 14.1463H14.1139Z" fill="white"/>
</svg>
