<svg width="24" height="24" viewBox="0 0 24 24" fill="none" xmlns="http://www.w3.org/2000/svg">
<g clip-path="url(#clip0_4624_1235)">
<path fill-rule="evenodd" clip-rule="evenodd" d="M20.6322 20.3921C20.7878 20.2143 20.9434 20.0366 21.0903 19.8518C24.8232 15.7284 25.4427 8.03635 20.102 3.06153C19.7006 2.74236 19.2865 2.45701 18.8603 2.20554C21.159 4.17003 21.7386 5.60015 22.1736 7.56208C22.9174 11.0218 20.7771 15.686 19.5533 17.3343C17.2127 20.497 14.0333 17.664 15.9982 15.047C17.4294 13.156 20.3905 8.24629 19.3179 4.96198C18.6082 2.79617 16.5221 1.19262 15.1952 0.443667C13.3194 -0.0354233 11.6342 -0.139583 9.81665 0.195254C12.488 0.967214 13.1963 1.52079 14.0307 2.17304C14.0644 2.19932 14.0982 2.22576 14.1324 2.25238C18.6774 5.79345 15.9716 9.71604 13.9091 12.706C13.7451 12.9439 13.5851 13.1758 13.4331 13.4012C11.8013 15.4529 11.6182 18.5399 13.6625 20.4561C15.1265 21.8382 16.9935 22.201 18.6706 21.6124C19.1936 21.431 19.6895 21.1553 20.1672 20.7926C20.2939 20.7021 20.4049 20.5991 20.5088 20.5027C20.5158 20.4963 20.5226 20.4899 20.5295 20.4836L20.5436 20.4657C20.5508 20.4569 20.56 20.4498 20.5693 20.4427C20.5787 20.4355 20.588 20.4283 20.5952 20.4194C20.5987 20.4148 20.6046 20.4121 20.6105 20.4094C20.6163 20.4067 20.622 20.4041 20.6255 20.3997L20.6322 20.3921ZM3.37467 3.60028C3.21675 3.7805 3.05883 3.96076 2.90983 4.14808C-0.822973 8.27151 -1.44258 15.9636 3.89807 20.9383C4.29961 21.2576 4.71352 21.5429 5.13978 21.7945C2.84117 19.83 2.26143 18.3999 1.8265 16.4379C1.08265 12.9782 3.22317 8.31392 4.44674 6.66565C6.78742 3.50286 9.96678 6.33592 8.00189 8.9529C6.57076 10.8439 3.60954 15.7537 4.68224 19.038C5.39196 21.2038 7.47804 22.8073 8.80491 23.5563C10.6807 24.0353 12.366 24.1397 14.1835 23.8047C11.5119 23.0326 10.8037 22.4791 9.96917 21.8267C9.93562 21.8004 9.90187 21.7741 9.86778 21.7475C5.32264 18.2065 8.02843 14.284 10.0909 11.294C10.255 11.0562 10.415 10.8242 10.567 10.5988C12.1989 8.547 12.3819 5.4601 10.3377 3.54389C8.8736 2.16172 7.00665 1.79884 5.32951 2.38765C4.80661 2.56898 4.3107 2.84458 3.83285 3.20733C3.70737 3.29701 3.59733 3.39894 3.49406 3.49458C3.48619 3.50187 3.47837 3.50912 3.47057 3.51633L3.45637 3.53416C3.44928 3.54307 3.43996 3.55022 3.43064 3.55736C3.42131 3.56452 3.41198 3.57167 3.40489 3.5806C3.40134 3.58506 3.39556 3.58775 3.38978 3.59044C3.384 3.59313 3.37822 3.59582 3.37467 3.60028Z" fill="url(#paint0_linear_4624_1235)"/>
</g>
<defs>
<linearGradient id="paint0_linear_4624_1235" x1="0.000156748" y1="12" x2="24.0001" y2="12" gradientUnits="userSpaceOnUse">
<stop stop-color="#0082FA"/>
<stop offset="1" stop-color="#00F2FE"/>
</linearGradient>
<clipPath id="clip0_4624_1235">
<rect width="24" height="24" fill="white"/>
</clipPath>
</defs>
</svg>
