<svg width="24" height="24" viewBox="0 0 24 24" fill="none" xmlns="http://www.w3.org/2000/svg">
<g clip-path="url(#clip0_4643_1235)">
<rect width="24" height="24" rx="4" fill="#14151A"/>
<g clip-path="url(#clip1_4643_1235)">
<path fill-rule="evenodd" clip-rule="evenodd" d="M17.7548 17.5947C17.8586 17.4761 17.9623 17.3577 18.0602 17.2345C20.5488 14.4856 20.9618 9.35757 17.4014 6.04102C17.1337 5.82824 16.8577 5.63801 16.5736 5.47036C18.106 6.78002 18.4924 7.73343 18.7824 9.04139C19.2782 11.3479 17.8514 14.4574 17.0355 15.5562C15.4751 17.6647 13.3556 15.776 14.6655 14.0314C15.6196 12.7707 17.5937 9.49752 16.8786 7.30799C16.4055 5.86411 15.0147 4.79508 14.1301 4.29578C12.8796 3.97638 11.7561 3.90694 10.5444 4.13017C12.3253 4.64481 12.7975 5.01386 13.3538 5.44869C13.3762 5.46621 13.3988 5.48384 13.4216 5.50159C16.4516 7.8623 14.6477 10.4774 13.2727 12.4707C13.1634 12.6292 13.0567 12.7839 12.9554 12.9341C11.8675 14.302 11.7455 16.3599 13.1083 17.6374C14.0844 18.5588 15.329 18.8007 16.4471 18.4082C16.7957 18.2873 17.1263 18.1036 17.4448 17.8617C17.5293 17.8014 17.6033 17.7328 17.6726 17.6685C17.6772 17.6642 17.6818 17.66 17.6863 17.6557L17.6958 17.6438C17.7005 17.6379 17.7067 17.6332 17.7129 17.6285C17.7191 17.6237 17.7254 17.6189 17.7301 17.613C17.7325 17.6099 17.7364 17.6081 17.7403 17.6063C17.7442 17.6045 17.748 17.6027 17.7503 17.5998L17.7548 17.5947ZM6.24978 6.40018C6.1445 6.52034 6.03922 6.6405 5.93989 6.76539C3.45135 9.51434 3.03828 14.6424 6.59872 17.9589C6.8664 18.1718 7.14235 18.3619 7.42652 18.5297C5.89411 17.22 5.50762 16.2666 5.21767 14.9586C4.72177 12.6521 6.14878 9.54261 6.96449 8.44377C8.52495 6.33524 10.6445 8.22395 9.3346 9.9686C8.38051 11.2293 6.40636 14.5024 7.12149 16.692C7.59464 18.1359 8.98536 19.2049 9.86994 19.7042C11.1205 20.0235 12.244 20.0931 13.4557 19.8698C11.6746 19.3551 11.2025 18.986 10.6461 18.5511C10.6237 18.5336 10.6012 18.516 10.5785 18.4983C7.54843 16.1377 9.35229 13.5227 10.7273 11.5294C10.8367 11.3708 10.9434 11.2161 11.0447 11.0658C12.1326 9.698 12.2546 7.64007 10.8918 6.36259C9.91573 5.44115 8.6711 5.19923 7.55301 5.59176C7.20441 5.71266 6.8738 5.89639 6.55523 6.13822C6.47158 6.198 6.39822 6.26596 6.32937 6.32972C6.32413 6.33458 6.31891 6.33941 6.31371 6.34422L6.30425 6.35611C6.29952 6.36205 6.29331 6.36681 6.28709 6.37158C6.28087 6.37635 6.27465 6.38111 6.26993 6.38706C6.26756 6.39004 6.26371 6.39183 6.25985 6.39362C6.256 6.39542 6.25215 6.39721 6.24978 6.40018Z" fill="url(#paint0_linear_4643_1235)"/>
</g>
</g>
<defs>
<linearGradient id="paint0_linear_4643_1235" x1="4.0001" y1="12" x2="20.0001" y2="12" gradientUnits="userSpaceOnUse">
<stop stop-color="#0082FA"/>
<stop offset="1" stop-color="#00F2FE"/>
</linearGradient>
<clipPath id="clip0_4643_1235">
<rect width="24" height="24" fill="white"/>
</clipPath>
<clipPath id="clip1_4643_1235">
<rect width="16" height="16" fill="white" transform="translate(4 4)"/>
</clipPath>
</defs>
</svg>
