<svg width="24" height="24" viewBox="0 0 24 24" fill="none" xmlns="http://www.w3.org/2000/svg">
<g clip-path="url(#clip0_3492_1814)">
<rect y="-0.0012207" width="24" height="24" rx="4" fill="#F9FAFC"/>
<g clip-path="url(#clip1_3492_1814)">
<path d="M8.856 15.594L5.1856 16.0068L7.3408 11.034L5.1344 8.02597L10.4992 7.41477L11.9568 4.06277L15.1504 8.40357L18.8208 7.99077L16.6752 12.9396L18.8656 15.9268L13.528 16.5348L12.048 19.9348L8.856 15.594ZM10.3808 15.2644C10.24 15.3332 10.0896 15.3908 9.9344 15.434L9.7936 15.4724L11.8624 18.2852L12.5968 16.5956L12.464 16.578C11.7408 16.4868 11.0832 16.0964 10.6592 15.5108L10.4528 15.226L10.3808 15.2644ZM9.6608 12.714L11.3296 15.0228C11.6688 15.4916 12.2176 15.7716 12.7968 15.7716C12.864 15.7716 12.9312 15.7684 12.9968 15.7604L17.352 15.2644L15.6176 12.898C15.5312 12.7812 15.432 12.6756 15.3216 12.5828L15.2192 12.498L13.9776 15.3028L11.8176 12.4436L9.6608 12.714ZM9.7328 9.90277C9.0864 9.97157 8.5232 10.386 8.264 10.9844L6.5152 15.0212L9.4208 14.6948C9.5648 14.6788 9.7056 14.6452 9.8416 14.5956L9.9664 14.5492L8.168 12.066L11.7136 11.6164L12.5568 9.60197L9.7328 9.90277ZM12.4768 11.9396L13.7904 13.6788L14.592 11.8692L14.944 11.0724C15.208 10.4756 15.1328 9.77957 14.7456 9.25478L12.1424 5.71237L10.9712 8.40357C10.9136 8.53637 10.872 8.67557 10.8464 8.81957L10.824 8.95077L13.8624 8.62917L12.4768 11.9396ZM15.6688 9.18117L15.72 9.30438C16.0016 9.97797 15.9952 10.746 15.7008 11.41L15.5584 11.73L15.6272 11.7764C15.7584 11.8644 15.8816 11.9668 15.9952 12.0804L16.0992 12.1828L17.4896 8.97477L15.6688 9.18117ZM6.648 8.68837L7.7552 10.1988L7.8368 10.0932C8.2768 9.52198 8.9376 9.15077 9.6464 9.07557L9.9936 9.03877L10 8.95398C10.0112 8.77957 10.0416 8.60517 10.088 8.43557L10.128 8.29157L6.648 8.68837Z" fill="url(#paint0_linear_3492_1814)"/>
<path d="M11.2256 19.9988C8.92157 19.7764 6.85117 18.578 5.49597 16.6788L6.42397 16.5748C6.57757 16.7636 6.74077 16.9444 6.90877 17.114C7.91517 18.1252 9.17437 18.8068 10.5552 19.0884L11.2256 19.9988Z" fill="url(#paint1_linear_3492_1814)"/>
<path d="M13.1584 19.1396C14.6528 18.898 16.0112 18.1988 17.0912 17.114C17.1872 17.0164 17.2848 16.9124 17.3824 16.8036L18.5072 16.6756C17.1568 18.5732 15.0896 19.7732 12.7856 19.9988L13.1584 19.1396Z" fill="url(#paint2_linear_3492_1814)"/>
<path d="M18.736 14.5636C19.0432 13.746 19.2 12.8836 19.2 11.9988C19.2 11.218 19.0768 10.45 18.8352 9.71719L19.2864 8.67719C19.76 9.72198 20 10.8388 20 11.9988C20 13.1572 19.76 14.2724 19.288 15.3172L18.736 14.5636Z" fill="url(#paint3_linear_3492_1814)"/>
<path d="M4.7168 15.3284C4.2416 14.2804 4 13.162 4 11.9988C4 10.8292 4.2432 9.70438 4.7248 8.65318L5.2752 9.40518C4.96 10.2308 4.8 11.1028 4.8 11.9988C4.8 12.7828 4.9232 13.5524 5.1664 14.2884L4.7168 15.3284Z" fill="url(#paint4_linear_3492_1814)"/>
<path d="M5.52954 7.27238C6.88314 5.40358 8.93754 4.21958 11.2207 3.99878L10.8479 4.85638C9.35194 5.09638 7.99034 5.79718 6.90874 6.88358C6.82714 6.96518 6.74554 7.05318 6.66394 7.14278L5.52954 7.27238Z" fill="url(#paint5_linear_3492_1814)"/>
<path d="M17.5776 7.42278C17.424 7.23398 17.2608 7.05318 17.0912 6.88358C16.0864 5.87398 14.8288 5.19238 13.4512 4.91078L12.7808 3.99878C15.0832 4.22278 17.1504 5.42118 18.504 7.31878L17.5776 7.42278Z" fill="url(#paint6_linear_3492_1814)"/>
</g>
</g>
<defs>
<linearGradient id="paint0_linear_3492_1814" x1="5.53756" y1="18.4388" x2="18.0172" y2="5.95914" gradientUnits="userSpaceOnUse">
<stop stop-color="#009DDE"/>
<stop offset="0.5" stop-color="#694D9F"/>
<stop offset="1" stop-color="#ED3554"/>
</linearGradient>
<linearGradient id="paint1_linear_3492_1814" x1="6.89913" y1="19.8004" x2="19.3788" y2="7.32074" gradientUnits="userSpaceOnUse">
<stop stop-color="#009DDE"/>
<stop offset="0.5" stop-color="#694D9F"/>
<stop offset="1" stop-color="#ED3554"/>
</linearGradient>
<linearGradient id="paint2_linear_3492_1814" x1="10.4597" y1="23.3609" x2="22.9394" y2="10.8812" gradientUnits="userSpaceOnUse">
<stop stop-color="#009DDE"/>
<stop offset="0.5" stop-color="#694D9F"/>
<stop offset="1" stop-color="#ED3554"/>
</linearGradient>
<linearGradient id="paint3_linear_3492_1814" x1="9.19152" y1="22.0928" x2="21.6712" y2="9.61315" gradientUnits="userSpaceOnUse">
<stop stop-color="#009DDE"/>
<stop offset="0.5" stop-color="#694D9F"/>
<stop offset="1" stop-color="#ED3554"/>
</linearGradient>
<linearGradient id="paint4_linear_3492_1814" x1="1.90516" y1="14.8064" x2="14.3848" y2="2.32675" gradientUnits="userSpaceOnUse">
<stop stop-color="#009DDE"/>
<stop offset="0.5" stop-color="#694D9F"/>
<stop offset="1" stop-color="#ED3554"/>
</linearGradient>
<linearGradient id="paint5_linear_3492_1814" x1="0.639667" y1="13.541" x2="13.1193" y2="1.0613" gradientUnits="userSpaceOnUse">
<stop stop-color="#009DDE"/>
<stop offset="0.5" stop-color="#694D9F"/>
<stop offset="1" stop-color="#ED3554"/>
</linearGradient>
<linearGradient id="paint6_linear_3492_1814" x1="4.19992" y1="17.1012" x2="16.6796" y2="4.62154" gradientUnits="userSpaceOnUse">
<stop stop-color="#009DDE"/>
<stop offset="0.5" stop-color="#694D9F"/>
<stop offset="1" stop-color="#ED3554"/>
</linearGradient>
<clipPath id="clip0_3492_1814">
<rect width="24" height="24" fill="white" transform="translate(0 -0.0012207)"/>
</clipPath>
<clipPath id="clip1_3492_1814">
<rect width="16" height="16" fill="white" transform="translate(4 3.99878)"/>
</clipPath>
</defs>
</svg>
