<svg width="24" height="24" viewBox="0 0 24 24" fill="none" xmlns="http://www.w3.org/2000/svg">
<g clip-path="url(#clip0_3492_1814)">
<rect width="24" height="24" rx="4" fill="#F9FAFC"/>
<g clip-path="url(#clip1_3492_1814)">
<path d="M8.856 15.5952L5.1856 16.008L7.3408 11.0352L5.1344 8.0272L10.4992 7.416L11.9568 4.064L15.1504 8.4048L18.8208 7.992L16.6752 12.9408L18.8656 15.928L13.528 16.536L12.048 19.936L8.856 15.5952ZM10.3808 15.2656C10.24 15.3344 10.0896 15.392 9.9344 15.4352L9.7936 15.4736L11.8624 18.2864L12.5968 16.5968L12.464 16.5792C11.7408 16.488 11.0832 16.0976 10.6592 15.512L10.4528 15.2272L10.3808 15.2656ZM9.6608 12.7152L11.3296 15.024C11.6688 15.4928 12.2176 15.7728 12.7968 15.7728C12.864 15.7728 12.9312 15.7696 12.9968 15.7616L17.352 15.2656L15.6176 12.8992C15.5312 12.7824 15.432 12.6768 15.3216 12.584L15.2192 12.4992L13.9776 15.304L11.8176 12.4448L9.6608 12.7152ZM9.7328 9.904C9.0864 9.9728 8.5232 10.3872 8.264 10.9856L6.5152 15.0224L9.4208 14.696C9.5648 14.68 9.7056 14.6464 9.8416 14.5968L9.9664 14.5504L8.168 12.0672L11.7136 11.6176L12.5568 9.6032L9.7328 9.904ZM12.4768 11.9408L13.7904 13.68L14.592 11.8704L14.944 11.0736C15.208 10.4768 15.1328 9.7808 14.7456 9.256L12.1424 5.7136L10.9712 8.4048C10.9136 8.5376 10.872 8.6768 10.8464 8.8208L10.824 8.952L13.8624 8.6304L12.4768 11.9408ZM15.6688 9.1824L15.72 9.3056C16.0016 9.9792 15.9952 10.7472 15.7008 11.4112L15.5584 11.7312L15.6272 11.7776C15.7584 11.8656 15.8816 11.968 15.9952 12.0816L16.0992 12.184L17.4896 8.976L15.6688 9.1824ZM6.648 8.6896L7.7552 10.2L7.8368 10.0944C8.2768 9.5232 8.9376 9.152 9.6464 9.0768L9.9936 9.04L10 8.9552C10.0112 8.7808 10.0416 8.6064 10.088 8.4368L10.128 8.2928L6.648 8.6896Z" fill="url(#paint0_linear_3492_1814)"/>
<path d="M11.2256 20C8.92157 19.7776 6.85117 18.5792 5.49597 16.68L6.42397 16.576C6.57757 16.7648 6.74077 16.9456 6.90877 17.1152C7.91517 18.1264 9.17437 18.808 10.5552 19.0896L11.2256 20Z" fill="url(#paint1_linear_3492_1814)"/>
<path d="M13.1584 19.1408C14.6528 18.8992 16.0112 18.2 17.0912 17.1152C17.1872 17.0176 17.2848 16.9136 17.3824 16.8048L18.5072 16.6768C17.1568 18.5744 15.0896 19.7744 12.7856 20L13.1584 19.1408Z" fill="url(#paint2_linear_3492_1814)"/>
<path d="M18.736 14.5648C19.0432 13.7472 19.2 12.8848 19.2 12C19.2 11.2192 19.0768 10.4512 18.8352 9.71841L19.2864 8.67841C19.76 9.72321 20 10.84 20 12C20 13.1584 19.76 14.2736 19.288 15.3184L18.736 14.5648Z" fill="url(#paint3_linear_3492_1814)"/>
<path d="M4.7168 15.3296C4.2416 14.2816 4 13.1632 4 12C4 10.8304 4.2432 9.7056 4.7248 8.6544L5.2752 9.4064C4.96 10.232 4.8 11.104 4.8 12C4.8 12.784 4.9232 13.5536 5.1664 14.2896L4.7168 15.3296Z" fill="url(#paint4_linear_3492_1814)"/>
<path d="M5.52954 7.2736C6.88314 5.4048 8.93754 4.2208 11.2207 4L10.8479 4.8576C9.35194 5.0976 7.99034 5.7984 6.90874 6.8848C6.82714 6.9664 6.74554 7.0544 6.66394 7.144L5.52954 7.2736Z" fill="url(#paint5_linear_3492_1814)"/>
<path d="M17.5776 7.424C17.424 7.2352 17.2608 7.0544 17.0912 6.8848C16.0864 5.8752 14.8288 5.1936 13.4512 4.912L12.7808 4C15.0832 4.224 17.1504 5.4224 18.504 7.32L17.5776 7.424Z" fill="url(#paint6_linear_3492_1814)"/>
</g>
</g>
<defs>
<linearGradient id="paint0_linear_3492_1814" x1="5.53756" y1="18.44" x2="18.0172" y2="5.96036" gradientUnits="userSpaceOnUse">
<stop stop-color="#009DDE"/>
<stop offset="0.5" stop-color="#694D9F"/>
<stop offset="1" stop-color="#ED3554"/>
</linearGradient>
<linearGradient id="paint1_linear_3492_1814" x1="6.89913" y1="19.8016" x2="19.3788" y2="7.32196" gradientUnits="userSpaceOnUse">
<stop stop-color="#009DDE"/>
<stop offset="0.5" stop-color="#694D9F"/>
<stop offset="1" stop-color="#ED3554"/>
</linearGradient>
<linearGradient id="paint2_linear_3492_1814" x1="10.4597" y1="23.3621" x2="22.9394" y2="10.8824" gradientUnits="userSpaceOnUse">
<stop stop-color="#009DDE"/>
<stop offset="0.5" stop-color="#694D9F"/>
<stop offset="1" stop-color="#ED3554"/>
</linearGradient>
<linearGradient id="paint3_linear_3492_1814" x1="9.19152" y1="22.094" x2="21.6712" y2="9.61437" gradientUnits="userSpaceOnUse">
<stop stop-color="#009DDE"/>
<stop offset="0.5" stop-color="#694D9F"/>
<stop offset="1" stop-color="#ED3554"/>
</linearGradient>
<linearGradient id="paint4_linear_3492_1814" x1="1.90516" y1="14.8076" x2="14.3848" y2="2.32797" gradientUnits="userSpaceOnUse">
<stop stop-color="#009DDE"/>
<stop offset="0.5" stop-color="#694D9F"/>
<stop offset="1" stop-color="#ED3554"/>
</linearGradient>
<linearGradient id="paint5_linear_3492_1814" x1="0.639667" y1="13.5422" x2="13.1193" y2="1.06253" gradientUnits="userSpaceOnUse">
<stop stop-color="#009DDE"/>
<stop offset="0.5" stop-color="#694D9F"/>
<stop offset="1" stop-color="#ED3554"/>
</linearGradient>
<linearGradient id="paint6_linear_3492_1814" x1="4.19992" y1="17.1024" x2="16.6796" y2="4.62276" gradientUnits="userSpaceOnUse">
<stop stop-color="#009DDE"/>
<stop offset="0.5" stop-color="#694D9F"/>
<stop offset="1" stop-color="#ED3554"/>
</linearGradient>
<clipPath id="clip0_3492_1814">
<rect width="24" height="24" fill="white"/>
</clipPath>
<clipPath id="clip1_3492_1814">
<rect width="16" height="16" fill="white" transform="translate(4 4)"/>
</clipPath>
</defs>
</svg>
