<svg width="24" height="24" viewBox="0 0 24 24" fill="none" xmlns="http://www.w3.org/2000/svg">
<g clip-path="url(#clip0_3492_980)">
<path d="M7.28406 17.3928L1.77846 18.012L5.01126 10.5528L1.70166 6.04081L9.74886 5.12401L11.9353 0.0960083L16.7257 6.60721L22.2313 5.98801L19.0129 13.4112L22.2985 17.892L14.2921 18.804L12.0721 23.904L7.28406 17.3928ZM9.57126 16.8984C9.36006 17.0016 9.13446 17.088 8.90166 17.1528L8.69046 17.2104L11.7937 21.4296L12.8953 18.8952L12.6961 18.8688C11.6113 18.732 10.6249 18.1464 9.98886 17.268L9.67926 16.8408L9.57126 16.8984ZM8.49126 13.0728L10.9945 16.536C11.5033 17.2392 12.3265 17.6592 13.1953 17.6592C13.2961 17.6592 13.3969 17.6544 13.4953 17.6424L20.0281 16.8984L17.4265 13.3488C17.2969 13.1736 17.1481 13.0152 16.9825 12.876L16.8289 12.7488L14.9665 16.956L11.7265 12.6672L8.49126 13.0728ZM8.59926 8.85601C7.62966 8.95921 6.78486 9.58081 6.39606 10.4784L3.77286 16.5336L8.13126 16.044C8.34726 16.02 8.55846 15.9696 8.76246 15.8952L8.94966 15.8256L6.25206 12.1008L11.5705 11.4264L12.8353 8.40481L8.59926 8.85601ZM12.7153 11.9112L14.6857 14.52L15.8881 11.8056L16.4161 10.6104C16.8121 9.71521 16.6993 8.67121 16.1185 7.88401L12.2137 2.57041L10.4569 6.60721C10.3705 6.80641 10.3081 7.01521 10.2697 7.23121L10.2361 7.42801L14.7937 6.94561L12.7153 11.9112ZM17.5033 7.77361L17.5801 7.95841C18.0025 8.96881 17.9929 10.1208 17.5513 11.1168L17.3377 11.5968L17.4409 11.6664C17.6377 11.7984 17.8225 11.952 17.9929 12.1224L18.1489 12.276L20.2345 7.46401L17.5033 7.77361ZM3.97206 7.03441L5.63286 9.30001L5.75526 9.14161C6.41526 8.28481 7.40646 7.72801 8.46966 7.61521L8.99046 7.56001L9.00006 7.43281C9.01686 7.17121 9.06246 6.90961 9.13206 6.65521L9.19206 6.43921L3.97206 7.03441Z" fill="url(#paint0_linear_3492_980)"/>
<path d="M10.8383 24C7.3823 23.6664 4.2767 21.8688 2.2439 19.02L3.6359 18.864C3.8663 19.1472 4.1111 19.4184 4.3631 19.6728C5.8727 21.1896 7.7615 22.212 9.8327 22.6344L10.8383 24Z" fill="url(#paint1_linear_3492_980)"/>
<path d="M13.7377 22.7112C15.9793 22.3488 18.0169 21.3 19.6369 19.6728C19.7809 19.5264 19.9273 19.3704 20.0737 19.2072L21.7609 19.0152C19.7353 21.8616 16.6345 23.6616 13.1785 24L13.7377 22.7112Z" fill="url(#paint2_linear_3492_980)"/>
<path d="M22.104 15.8472C22.5648 14.6208 22.8 13.3272 22.8 12C22.8 10.8288 22.6152 9.67681 22.2528 8.57761L22.9296 7.01761C23.64 8.58481 24 10.26 24 12C24 13.7376 23.64 15.4104 22.932 16.9776L22.104 15.8472Z" fill="url(#paint3_linear_3492_980)"/>
<path d="M1.0752 16.9944C0.3624 15.4224 0 13.7448 0 12C0 10.2456 0.3648 8.5584 1.0872 6.9816L1.9128 8.1096C1.44 9.348 1.2 10.656 1.2 12C1.2 13.176 1.3848 14.3304 1.7496 15.4344L1.0752 16.9944Z" fill="url(#paint4_linear_3492_980)"/>
<path d="M2.29443 4.9104C4.32483 2.1072 7.40643 0.3312 10.8312 0L10.272 1.2864C8.02803 1.6464 5.98563 2.6976 4.36323 4.3272C4.24083 4.4496 4.11843 4.5816 3.99603 4.716L2.29443 4.9104Z" fill="url(#paint5_linear_3492_980)"/>
<path d="M20.3663 5.136C20.1359 4.8528 19.8911 4.5816 19.6367 4.3272C18.1295 2.8128 16.2431 1.7904 14.1767 1.368L13.1711 0C16.6247 0.336 19.7255 2.1336 21.7559 4.98L20.3663 5.136Z" fill="url(#paint6_linear_3492_980)"/>
</g>
<defs>
<linearGradient id="paint0_linear_3492_980" x1="2.3064" y1="21.6601" x2="21.0259" y2="2.94055" gradientUnits="userSpaceOnUse">
<stop stop-color="#009DDE"/>
<stop offset="0.5" stop-color="#694D9F"/>
<stop offset="1" stop-color="#ED3554"/>
</linearGradient>
<linearGradient id="paint1_linear_3492_980" x1="4.34863" y1="23.7025" x2="23.0682" y2="4.98296" gradientUnits="userSpaceOnUse">
<stop stop-color="#009DDE"/>
<stop offset="0.5" stop-color="#694D9F"/>
<stop offset="1" stop-color="#ED3554"/>
</linearGradient>
<linearGradient id="paint2_linear_3492_980" x1="9.68951" y1="29.0432" x2="28.409" y2="10.3236" gradientUnits="userSpaceOnUse">
<stop stop-color="#009DDE"/>
<stop offset="0.5" stop-color="#694D9F"/>
<stop offset="1" stop-color="#ED3554"/>
</linearGradient>
<linearGradient id="paint3_linear_3492_980" x1="7.78734" y1="27.1411" x2="26.5069" y2="8.42155" gradientUnits="userSpaceOnUse">
<stop stop-color="#009DDE"/>
<stop offset="0.5" stop-color="#694D9F"/>
<stop offset="1" stop-color="#ED3554"/>
</linearGradient>
<linearGradient id="paint4_linear_3492_980" x1="-3.14226" y1="16.2115" x2="15.5773" y2="-2.50806" gradientUnits="userSpaceOnUse">
<stop stop-color="#009DDE"/>
<stop offset="0.5" stop-color="#694D9F"/>
<stop offset="1" stop-color="#ED3554"/>
</linearGradient>
<linearGradient id="paint5_linear_3492_980" x1="-5.04038" y1="14.3133" x2="13.6791" y2="-4.40621" gradientUnits="userSpaceOnUse">
<stop stop-color="#009DDE"/>
<stop offset="0.5" stop-color="#694D9F"/>
<stop offset="1" stop-color="#ED3554"/>
</linearGradient>
<linearGradient id="paint6_linear_3492_980" x1="0.299879" y1="19.6537" x2="19.0194" y2="0.934143" gradientUnits="userSpaceOnUse">
<stop stop-color="#009DDE"/>
<stop offset="0.5" stop-color="#694D9F"/>
<stop offset="1" stop-color="#ED3554"/>
</linearGradient>
<clipPath id="clip0_3492_980">
<rect width="24" height="24" fill="white"/>
</clipPath>
</defs>
</svg>
