<svg width="32" height="32" viewBox="0 0 32 32" fill="none" xmlns="http://www.w3.org/2000/svg">
<g clip-path="url(#clip0_2046_7728)">
<circle cx="16" cy="16" r="16" fill="#E53935"/>
<circle cx="16" cy="16" r="14.6667" fill="#263238"/>
<path d="M25.1499 10.2783V8.95944H20.9723C20.7482 8.10727 20.524 7.35654 20.2795 6.66669L18.8734 6.91017C19.1179 7.51886 19.3624 8.20872 19.5866 8.95944H15.1645V10.2783H25.1499ZM14.4512 20.0783V11.658H12.393C12.821 11.029 13.2489 10.258 13.6768 9.32466V8.35075H10.3144C10.4978 7.94495 10.6608 7.53915 10.8239 7.11306L9.51964 6.70727C8.90829 8.69567 7.9505 10.2986 6.66666 11.5363L6.97233 12.9768C7.23725 12.7334 7.50217 12.4899 7.74671 12.2261V20.0783H14.4512ZM10.9869 11.658H8.25618C8.78602 11.0087 9.29548 10.2783 9.7438 9.50727H12.3115C11.8632 10.3189 11.4352 11.0493 10.9869 11.658ZM19.3828 25.3334C20.4017 25.3334 20.9316 24.7652 20.9316 23.6493V17.8667H24.1718V12.1044H16.2445V17.8667H19.5051V23.3044C19.5051 23.8116 19.3013 24.0754 18.8937 24.0754C18.425 24.0754 17.9359 24.0348 17.4469 23.9739L17.7322 25.3334H19.3828ZM10.5182 15.2696H9.01018V12.8551H10.5182V15.2696ZM13.1878 15.2696H11.7001V12.8551H13.1878V15.2696ZM22.786 16.5884H17.6303V13.4029H22.786V16.5884ZM13.1878 18.8609H11.7001V16.4464H13.1878V18.8609ZM10.5182 18.8609H9.01018V16.4464H10.5182V18.8609ZM24.2533 24.4L25.3333 23.6493C24.7831 22.3507 24.0087 20.8493 22.9898 19.1247L21.9097 19.7739C22.8879 21.458 23.6827 23 24.2533 24.4ZM15.7147 24.7449C16.6113 23.3449 17.3857 21.6812 18.0378 19.7739L16.8559 19.2058C16.2242 21.0319 15.4701 22.6145 14.6143 23.9536L15.7147 24.7449ZM14.0233 23.3652L15.0218 23.1218C14.7365 22.1478 14.4512 21.2957 14.1252 20.5652L13.1674 20.8493C13.4934 21.6609 13.7787 22.4928 14.0233 23.3652ZM11.8632 24.542L12.9228 24.4203C12.8006 22.8783 12.5764 21.6609 12.2504 20.7681L11.2314 20.8899C11.5575 21.7421 11.7613 22.9594 11.8632 24.542ZM7.97088 25.0899C8.39883 23.8928 8.66375 22.5334 8.78602 20.9913L7.68558 20.8493C7.58369 22.3102 7.29839 23.6087 6.85006 24.7449L7.97088 25.0899ZM9.68267 24.8464L10.7423 24.7247C10.7016 23.1218 10.5997 21.8435 10.457 20.9102L9.47888 21.0319C9.58078 21.9247 9.64191 23.2029 9.68267 24.8464Z" fill="#E53935"/>
<g style="mix-blend-mode:multiply">
<path fill-rule="evenodd" clip-rule="evenodd" d="M21.7054 11.7067C18.4058 9.13793 15.2101 9.22827 12.1183 11.9777C9.02641 14.7272 9.1039 18.193 12.3507 22.3751L13.105 14.7031L21.2355 12.8751L21.7054 11.7067Z" fill="url(#paint0_linear_2046_7728)"/>
<path fill-rule="evenodd" clip-rule="evenodd" d="M14.4951 10.1529C12.345 9.59903 9.90629 10.3543 10.2366 11.3409C10.342 11.6558 11.1184 11.1478 12.1431 11.5111C12.6433 11.2822 14.3349 10.3728 14.4951 10.1529Z" fill="#263238"/>
<path fill-rule="evenodd" clip-rule="evenodd" d="M17.0428 9.61401C18.8801 9.61401 20.5604 10.2865 21.8509 11.3987L21.6375 11.9097C20.4229 10.8089 18.8112 10.1382 17.0428 10.1382C13.2629 10.1382 10.1986 13.2025 10.1986 16.9824C10.1986 20.7624 13.2629 23.8266 17.0428 23.8266C17.4536 23.8266 17.8559 23.7904 18.2467 23.7211L18.1044 24.275C17.7577 24.325 17.4033 24.3509 17.0428 24.3509C12.9733 24.3509 9.67438 21.0519 9.67438 16.9824C9.67438 12.913 12.9733 9.61401 17.0428 9.61401Z" fill="url(#paint1_linear_2046_7728)"/>
<path fill-rule="evenodd" clip-rule="evenodd" d="M16.8244 10.8081C18.571 10.8081 20.1576 11.5067 21.3304 12.6449L21.167 13.0363C20.0533 11.8925 18.5251 11.1868 16.8389 11.1868C13.4316 11.1868 10.6694 14.0684 10.6694 17.6232C10.6694 21.178 13.4316 24.0596 16.8389 24.0596C17.3554 24.0596 17.8571 23.9934 18.3365 23.8687L18.3108 23.9739C17.8333 24.0871 17.3357 24.147 16.8244 24.147C13.2133 24.147 10.286 21.161 10.286 17.4776C10.286 13.7941 13.2133 10.8081 16.8244 10.8081Z" fill="url(#paint2_linear_2046_7728)"/>
<path fill-rule="evenodd" clip-rule="evenodd" d="M14.4109 22.2373C13.2944 21.6945 12.1702 19.5475 15.0083 17.3767C17.552 15.4311 22.0373 16.1911 22.0373 11.7725C22.0373 11.6417 21.8242 11.2105 21.6509 11.386C21.3204 11.7208 20.7266 12.8606 19.1681 12.6612C15.1704 12.15 10.4863 12.2335 11.1721 20.1962C11.1721 21.7838 13.4919 22.9127 14.4109 22.2373Z" fill="url(#paint3_linear_2046_7728)"/>
<path fill-rule="evenodd" clip-rule="evenodd" d="M13.746 13.1275C12.8914 12.9593 12.0497 12.8752 11.2212 12.8752C8.36066 12.8752 8.02659 14.8583 8.25807 15.0578C8.55675 15.3153 10.6663 13.8732 11.6806 15.6995C12.3568 16.9171 13.0453 16.0598 13.746 13.1275Z" fill="#263238"/>
<path fill-rule="evenodd" clip-rule="evenodd" d="M14.3961 22.2395C14.4746 21.7761 14.6031 21.4353 14.7814 21.2171C15.1036 20.8229 15.7489 20.3169 15.8822 20.4445C15.9734 20.5318 15.8913 20.6771 15.8272 20.8727C15.7594 21.08 15.6827 21.3232 15.8822 21.7362C16.1407 22.2713 16.219 22.6445 16.1173 22.8558C16.724 22.7659 17.2375 22.9172 17.6576 23.3094C18.2877 23.8978 18.949 23.622 18.6528 24.1522C18.6229 24.2056 17.5305 24.4962 15.6973 24.1824C15.3456 24.1222 14.7968 23.8764 14.0512 23.445C13.3879 23.0961 12.9555 22.8346 12.754 22.6605C12.5525 22.4865 12.3969 22.2401 12.2872 21.9215L13.8294 22.3821C14.1529 22.3167 14.3249 22.2649 14.3456 22.2267C14.3477 22.2228 14.3955 22.2434 14.3961 22.2395Z" fill="#263238"/>
</g>
<path fill-rule="evenodd" clip-rule="evenodd" d="M22.0981 11.2155C18.7985 8.64672 15.6028 8.73706 12.511 11.4865C9.41915 14.236 9.49663 17.7018 12.7435 21.8839L13.4977 14.2118L21.6282 12.3839L22.0981 11.2155Z" fill="url(#paint4_linear_2046_7728)"/>
<path fill-rule="evenodd" clip-rule="evenodd" d="M14.8878 9.66163C12.7377 9.10781 10.299 9.86311 10.6293 10.8497C10.7348 11.1646 11.5111 10.6566 12.5358 11.0199C13.0361 10.791 14.7276 9.8816 14.8878 9.66163Z" fill="#546E7A"/>
<path fill-rule="evenodd" clip-rule="evenodd" d="M17.4355 9.1228C19.2729 9.1228 20.9531 9.79528 22.2436 10.9075L22.0302 11.4185C20.8156 10.3177 19.2039 9.64704 17.4355 9.64704C13.6556 9.64704 10.5914 12.7113 10.5914 16.4912C10.5914 20.2712 13.6556 23.3354 17.4355 23.3354C17.8463 23.3354 18.2486 23.2992 18.6395 23.2299L18.4971 23.7837C18.1505 23.8338 17.796 23.8596 17.4355 23.8596C13.3661 23.8596 10.0671 20.5607 10.0671 16.4912C10.0671 12.4218 13.3661 9.1228 17.4355 9.1228Z" fill="url(#paint5_linear_2046_7728)"/>
<path fill-rule="evenodd" clip-rule="evenodd" d="M17.2186 10.3169C18.9652 10.3169 20.5519 11.0155 21.7247 12.1537L21.5612 12.5451C20.4476 11.4013 18.9194 10.6955 17.2332 10.6955C13.8259 10.6955 11.0637 13.5772 11.0637 17.132C11.0637 20.6867 13.8259 23.5684 17.2332 23.5684C17.7497 23.5684 18.2513 23.5022 18.7308 23.3775L18.7051 23.4827C18.2276 23.5959 17.7299 23.6558 17.2186 23.6558C13.6076 23.6558 10.6802 20.6698 10.6802 16.9863C10.6802 13.3029 13.6076 10.3169 17.2186 10.3169Z" fill="url(#paint6_linear_2046_7728)"/>
<path fill-rule="evenodd" clip-rule="evenodd" d="M14.8036 21.7461C13.6871 21.2033 12.563 19.0563 15.401 16.8855C17.9448 14.9399 22.43 15.6999 22.43 11.2813C22.43 11.1504 22.2169 10.7192 22.0436 10.8948C21.7131 11.2295 21.1193 12.3693 19.5608 12.17C15.5632 11.6587 10.879 11.7423 11.5649 19.7049C11.5649 21.2925 13.8847 22.4215 14.8036 21.7461Z" fill="url(#paint7_linear_2046_7728)"/>
<path fill-rule="evenodd" clip-rule="evenodd" d="M14.1406 12.6363C13.2859 12.4681 12.4443 12.3839 11.6157 12.3839C8.75523 12.3839 8.42115 14.3671 8.65263 14.5666C8.95131 14.8241 11.0609 13.3819 12.0752 15.2083C12.7513 16.4259 13.4398 15.5685 14.1406 12.6363Z" fill="#607D8B"/>
<path fill-rule="evenodd" clip-rule="evenodd" d="M14.7907 21.7482C14.8692 21.2849 14.9976 20.9441 15.176 20.7258C15.4982 20.3316 16.1435 19.8256 16.2768 19.9532C16.368 20.0405 16.2858 20.1858 16.2218 20.3814C16.1539 20.5887 16.0773 20.8319 16.2768 21.2449C16.5352 21.78 16.6136 22.1532 16.5118 22.3645C17.1186 22.2747 17.6321 22.4259 18.0521 22.8181C18.6823 23.4065 19.3435 23.1307 19.0473 23.6609C19.0175 23.7143 17.925 24.005 16.0919 23.6911C15.7401 23.6309 15.1914 23.3851 14.4457 22.9537C13.7825 22.6048 13.3501 22.3433 13.1486 22.1693C12.947 21.9952 12.7914 21.7489 12.6818 21.4302L14.224 21.8908C14.5474 21.8254 14.7195 21.7736 14.7402 21.7354C14.7422 21.7316 14.79 21.7522 14.7907 21.7482Z" fill="#546E7A"/>
</g>
<defs>
<linearGradient id="paint0_linear_2046_7728" x1="14.2434" y1="11.156" x2="10.5777" y2="14.7661" gradientUnits="userSpaceOnUse">
<stop stop-color="#263238"/>
<stop offset="1" stop-color="#263238"/>
</linearGradient>
<linearGradient id="paint1_linear_2046_7728" x1="11.2188" y1="13.3735" x2="12.1184" y2="21.7984" gradientUnits="userSpaceOnUse">
<stop stop-color="#263238"/>
<stop offset="1" stop-color="#263238"/>
</linearGradient>
<linearGradient id="paint2_linear_2046_7728" x1="11.839" y1="12.4275" x2="12.8474" y2="22.6837" gradientUnits="userSpaceOnUse">
<stop stop-color="#263238"/>
<stop offset="1" stop-color="#263238"/>
</linearGradient>
<linearGradient id="paint3_linear_2046_7728" x1="14.8508" y1="16.9824" x2="15.1536" y2="23.5784" gradientUnits="userSpaceOnUse">
<stop stop-color="#263238"/>
<stop offset="1" stop-color="#263238"/>
</linearGradient>
<linearGradient id="paint4_linear_2046_7728" x1="14.6372" y1="10.6647" x2="10.9715" y2="14.2744" gradientUnits="userSpaceOnUse">
<stop stop-color="white"/>
<stop offset="1" stop-color="#CFD8DC"/>
</linearGradient>
<linearGradient id="paint5_linear_2046_7728" x1="11.6129" y1="12.8823" x2="12.5126" y2="21.3071" gradientUnits="userSpaceOnUse">
<stop stop-color="#607D8B"/>
<stop offset="1" stop-color="#546E7A"/>
</linearGradient>
<linearGradient id="paint6_linear_2046_7728" x1="12.2331" y1="11.9363" x2="13.2416" y2="22.1924" gradientUnits="userSpaceOnUse">
<stop stop-color="#607D8B"/>
<stop offset="1" stop-color="#546E7A"/>
</linearGradient>
<linearGradient id="paint7_linear_2046_7728" x1="15.2445" y1="16.4912" x2="15.5473" y2="23.0872" gradientUnits="userSpaceOnUse">
<stop stop-color="#607D8B"/>
<stop offset="1" stop-color="#546E7A"/>
</linearGradient>
<clipPath id="clip0_2046_7728">
<rect width="32" height="32" fill="white"/>
</clipPath>
</defs>
</svg>
