<svg width="24" height="24" viewBox="0 0 24 24" fill="none" xmlns="http://www.w3.org/2000/svg">
<g clip-path="url(#clip0_2066_7508)">
<rect y="0.0012207" width="24" height="24" rx="4" fill="#121212"/>
<g clip-path="url(#clip1_2066_7508)">
<circle cx="12" cy="12.0012" r="10" fill="#E53935"/>
<circle cx="12" cy="12.0012" r="9.16667" fill="#263238"/>
<path d="M17.7187 8.42513V7.60086H15.1077C14.9676 7.06825 14.8275 6.59905 14.6746 6.16789L13.7958 6.32006C13.9486 6.7005 14.1015 7.13166 14.2416 7.60086H11.4778V8.42513H17.7187ZM11.032 14.5501V9.28745H9.74559C10.0131 8.89434 10.2805 8.41245 10.548 7.82912V7.22042H8.44647C8.56109 6.9668 8.66299 6.71318 8.76488 6.44687L7.94974 6.19325C7.56764 7.436 6.96903 8.43781 6.16663 9.21137L6.35767 10.1117C6.52325 9.95955 6.68882 9.80738 6.84166 9.64252V14.5501H11.032ZM8.86677 9.28745H7.16008C7.49123 8.88166 7.80964 8.42513 8.08984 7.94325H9.69465C9.41444 8.4505 9.14698 8.90702 8.86677 9.28745ZM14.1142 17.8346C14.751 17.8346 15.0822 17.4795 15.0822 16.782V13.1679H17.1073V9.56644H12.1528V13.1679H14.1906V16.5664C14.1906 16.8835 14.0633 17.0483 13.8085 17.0483C13.5156 17.0483 13.2099 17.023 12.9043 16.9849L13.0826 17.8346H14.1142ZM8.57383 11.5447H7.63133V10.0356H8.57383V11.5447ZM10.2423 11.5447H9.31255V10.0356H10.2423V11.5447ZM16.2412 12.369H13.0189V10.378H16.2412V12.369ZM10.2423 13.7893H9.31255V12.2802H10.2423V13.7893ZM8.57383 13.7893H7.63133V12.2802H8.57383V13.7893ZM17.1583 17.2512L17.8333 16.782C17.4894 15.9704 17.0054 15.032 16.3686 13.9541L15.6936 14.3599C16.3049 15.4125 16.8016 16.3762 17.1583 17.2512ZM11.8216 17.4668C12.3821 16.5918 12.866 15.5519 13.2736 14.3599L12.5349 14.0048C12.1401 15.1461 11.6688 16.1353 11.1339 16.9722L11.8216 17.4668ZM10.7645 16.6045L11.3886 16.4523C11.2103 15.8436 11.032 15.311 10.8282 14.8545L10.2296 15.032C10.4334 15.5393 10.6117 16.0592 10.7645 16.6045ZM9.41444 17.34L10.0767 17.2639C10.0003 16.3001 9.86022 15.5393 9.65644 14.9813L9.01961 15.0574C9.22339 15.59 9.35076 16.3509 9.41444 17.34ZM6.98176 17.6824C7.24923 16.9342 7.41481 16.0846 7.49123 15.1208L6.80345 15.032C6.73977 15.9451 6.56146 16.7567 6.28125 17.4668L6.98176 17.6824ZM8.05163 17.5302L8.71393 17.4541C8.68846 16.4523 8.62478 15.6534 8.53562 15.0701L7.92427 15.1461C7.98795 15.7041 8.02616 16.503 8.05163 17.5302Z" fill="#E53935"/>
<g style="mix-blend-mode:multiply">
<path fill-rule="evenodd" clip-rule="evenodd" d="M15.5659 9.31791C13.5036 7.71241 11.5063 7.76887 9.57392 9.4873C7.64151 11.2057 7.68994 13.3718 9.7192 15.9857L10.1906 11.1906L15.2722 10.0482L15.5659 9.31791Z" fill="url(#paint0_linear_2066_7508)"/>
<path fill-rule="evenodd" clip-rule="evenodd" d="M11.0594 8.34674C9.71562 8.0006 8.19144 8.47266 8.39788 9.0893C8.46377 9.28609 8.94899 8.96859 9.58943 9.19564C9.90208 9.05259 10.9593 8.48422 11.0594 8.34674Z" fill="#263238"/>
<path fill-rule="evenodd" clip-rule="evenodd" d="M12.6518 8.00997C13.8001 8.00997 14.8503 8.43026 15.6568 9.12541L15.5234 9.44478C14.7643 8.75677 13.757 8.33761 12.6518 8.33761C10.2893 8.33761 8.37414 10.2528 8.37414 12.6152C8.37414 14.9777 10.2893 16.8928 12.6518 16.8928C12.9085 16.8928 13.1599 16.8702 13.4042 16.8269L13.3152 17.1731C13.0986 17.2043 12.8771 17.2205 12.6518 17.2205C10.1083 17.2205 8.0465 15.1586 8.0465 12.6152C8.0465 10.0718 10.1083 8.00997 12.6518 8.00997Z" fill="url(#paint1_linear_2066_7508)"/>
<path fill-rule="evenodd" clip-rule="evenodd" d="M12.5152 8.75629C13.6069 8.75629 14.5985 9.19291 15.3315 9.90428L15.2294 10.1489C14.5333 9.43402 13.5782 8.99293 12.5243 8.99293C10.3948 8.99293 8.66839 10.794 8.66839 13.0157C8.66839 15.2374 10.3948 17.0385 12.5243 17.0385C12.8471 17.0385 13.1607 16.9971 13.4603 16.9191L13.4443 16.9849C13.1458 17.0557 12.8348 17.0931 12.5152 17.0931C10.2583 17.0931 8.42874 15.2268 8.42874 12.9247C8.42874 10.6226 10.2583 8.75629 12.5152 8.75629Z" fill="url(#paint2_linear_2066_7508)"/>
<path fill-rule="evenodd" clip-rule="evenodd" d="M11.0068 15.8995C10.309 15.5603 9.60639 14.2184 11.3802 12.8617C12.97 11.6457 15.7733 12.1207 15.7733 9.35902C15.7733 9.27726 15.6401 9.00776 15.5318 9.11748C15.3252 9.32669 14.9541 10.0391 13.98 9.91447C11.4815 9.59493 8.55393 9.64716 8.98259 14.6238C8.98259 15.6161 10.4325 16.3216 11.0068 15.8995Z" fill="url(#paint3_linear_2066_7508)"/>
<path fill-rule="evenodd" clip-rule="evenodd" d="M10.5913 10.2059C10.0571 10.1008 9.53109 10.0482 9.01324 10.0482C7.22542 10.0482 7.01663 11.2876 7.1613 11.4124C7.34798 11.5733 8.66648 10.6719 9.30039 11.8134C9.723 12.5744 10.1533 12.0386 10.5913 10.2059Z" fill="#263238"/>
<path fill-rule="evenodd" clip-rule="evenodd" d="M10.9976 15.9009C11.0467 15.6113 11.1269 15.3983 11.2384 15.2619C11.4398 15.0155 11.8431 14.6993 11.9264 14.779C11.9834 14.8336 11.932 14.9244 11.892 15.0466C11.8496 15.1762 11.8017 15.3282 11.9264 15.5863C12.0879 15.9208 12.1369 16.154 12.0733 16.2861C12.4525 16.2299 12.7734 16.3244 13.036 16.5696C13.4298 16.9373 13.8431 16.7649 13.658 17.0963C13.6393 17.1297 12.9566 17.3113 11.8108 17.1152C11.591 17.0776 11.248 16.9239 10.782 16.6543C10.3675 16.4363 10.0972 16.2728 9.97127 16.1641C9.84531 16.0553 9.74806 15.9013 9.67952 15.7021L10.6434 15.99C10.8455 15.9491 10.9531 15.9168 10.966 15.8929C10.9673 15.8905 10.9972 15.9034 10.9976 15.9009Z" fill="#263238"/>
</g>
<path fill-rule="evenodd" clip-rule="evenodd" d="M15.8113 9.01092C13.7491 7.40542 11.7518 7.46188 9.81936 9.1803C7.88696 10.8987 7.93539 13.0648 9.96465 15.6787L10.436 10.8836L15.5176 9.74118L15.8113 9.01092Z" fill="url(#paint4_linear_2066_7508)"/>
<path fill-rule="evenodd" clip-rule="evenodd" d="M11.3049 8.03974C9.96107 7.6936 8.43688 8.16566 8.64333 8.7823C8.70921 8.97908 9.19443 8.66158 9.83488 8.88863C10.1475 8.74559 11.2048 8.17722 11.3049 8.03974Z" fill="#546E7A"/>
<path fill-rule="evenodd" clip-rule="evenodd" d="M12.8972 7.70297C14.0455 7.70297 15.0957 8.12326 15.9023 8.81842L15.7689 9.13779C15.0097 8.44977 14.0024 8.03062 12.8972 8.03062C10.5347 8.03062 8.61959 9.94577 8.61959 12.3082C8.61959 14.6707 10.5347 16.5858 12.8972 16.5858C13.1539 16.5858 13.4054 16.5632 13.6496 16.5199L13.5607 16.8661C13.344 16.8973 13.1225 16.9135 12.8972 16.9135C10.3538 16.9135 8.29194 14.8516 8.29194 12.3082C8.29194 9.76482 10.3538 7.70297 12.8972 7.70297Z" fill="url(#paint5_linear_2066_7508)"/>
<path fill-rule="evenodd" clip-rule="evenodd" d="M12.7616 8.44928C13.8533 8.44928 14.8449 8.8859 15.5779 9.59727L15.4758 9.84188C14.7797 9.127 13.8246 8.68591 12.7707 8.68591C10.6411 8.68591 8.91478 10.487 8.91478 12.7087C8.91478 14.9304 10.6411 16.7315 12.7707 16.7315C13.0935 16.7315 13.4071 16.6901 13.7067 16.6121L13.6907 16.6779C13.3922 16.7487 13.0812 16.7861 12.7616 16.7861C10.5047 16.7861 8.67513 14.9198 8.67513 12.6177C8.67513 10.3155 10.5047 8.44928 12.7616 8.44928Z" fill="url(#paint6_linear_2066_7508)"/>
<path fill-rule="evenodd" clip-rule="evenodd" d="M11.2522 15.5925C10.5544 15.2533 9.85183 13.9114 11.6256 12.5547C13.2155 11.3386 16.0188 11.8136 16.0188 9.05201C16.0188 8.97024 15.8856 8.70074 15.7772 8.81046C15.5707 9.01968 15.1996 9.73204 14.2255 9.60746C11.727 9.28791 8.79938 9.34014 9.22803 14.3168C9.22803 15.3091 10.6779 16.0146 11.2522 15.5925Z" fill="url(#paint7_linear_2066_7508)"/>
<path fill-rule="evenodd" clip-rule="evenodd" d="M10.8379 9.89889C10.3037 9.79375 9.77768 9.74118 9.25982 9.74118C7.472 9.74118 7.26321 10.9806 7.40788 11.1054C7.59456 11.2663 8.91306 10.3649 9.54697 11.5064C9.96958 12.2674 10.3999 11.7315 10.8379 9.89889Z" fill="#607D8B"/>
<path fill-rule="evenodd" clip-rule="evenodd" d="M11.2442 15.5938C11.2932 15.3043 11.3735 15.0913 11.485 14.9549C11.6864 14.7085 12.0897 14.3922 12.173 14.472C12.23 14.5266 12.1786 14.6173 12.1386 14.7396C12.0962 14.8692 12.0483 15.0212 12.173 15.2793C12.3345 15.6137 12.3835 15.847 12.3199 15.979C12.6991 15.9229 13.02 16.0174 13.2826 16.2626C13.6764 16.6303 14.0897 16.4579 13.9046 16.7893C13.8859 16.8227 13.2031 17.0043 12.0574 16.8082C11.8376 16.7705 11.4946 16.6169 11.0286 16.3473C10.614 16.1292 10.3438 15.9658 10.2178 15.857C10.0919 15.7482 9.99464 15.5943 9.92611 15.3951L10.89 15.683C11.0921 15.6421 11.1997 15.6097 11.2126 15.5858C11.2139 15.5834 11.2438 15.5963 11.2442 15.5938Z" fill="#546E7A"/>
</g>
</g>
<defs>
<linearGradient id="paint0_linear_2066_7508" x1="10.9021" y1="8.97368" x2="8.61108" y2="11.23" gradientUnits="userSpaceOnUse">
<stop stop-color="#263238"/>
<stop offset="1" stop-color="#263238"/>
</linearGradient>
<linearGradient id="paint1_linear_2066_7508" x1="9.01173" y1="10.3597" x2="9.57398" y2="15.6252" gradientUnits="userSpaceOnUse">
<stop stop-color="#263238"/>
<stop offset="1" stop-color="#263238"/>
</linearGradient>
<linearGradient id="paint2_linear_2066_7508" x1="9.3994" y1="9.76842" x2="10.0296" y2="16.1785" gradientUnits="userSpaceOnUse">
<stop stop-color="#263238"/>
<stop offset="1" stop-color="#263238"/>
</linearGradient>
<linearGradient id="paint3_linear_2066_7508" x1="11.2818" y1="12.6152" x2="11.471" y2="16.7377" gradientUnits="userSpaceOnUse">
<stop stop-color="#263238"/>
<stop offset="1" stop-color="#263238"/>
</linearGradient>
<linearGradient id="paint4_linear_2066_7508" x1="11.1482" y1="8.66668" x2="8.85717" y2="10.9227" gradientUnits="userSpaceOnUse">
<stop stop-color="white"/>
<stop offset="1" stop-color="#CFD8DC"/>
</linearGradient>
<linearGradient id="paint5_linear_2066_7508" x1="9.25807" y1="10.0527" x2="9.82038" y2="15.3182" gradientUnits="userSpaceOnUse">
<stop stop-color="#607D8B"/>
<stop offset="1" stop-color="#546E7A"/>
</linearGradient>
<linearGradient id="paint6_linear_2066_7508" x1="9.64568" y1="9.46142" x2="10.276" y2="15.8715" gradientUnits="userSpaceOnUse">
<stop stop-color="#607D8B"/>
<stop offset="1" stop-color="#546E7A"/>
</linearGradient>
<linearGradient id="paint7_linear_2066_7508" x1="11.5278" y1="12.3082" x2="11.717" y2="16.4307" gradientUnits="userSpaceOnUse">
<stop stop-color="#607D8B"/>
<stop offset="1" stop-color="#546E7A"/>
</linearGradient>
<clipPath id="clip0_2066_7508">
<rect width="24" height="24" fill="white" transform="translate(0 0.0012207)"/>
</clipPath>
<clipPath id="clip1_2066_7508">
<rect width="20" height="20" fill="white" transform="translate(2 2.00122)"/>
</clipPath>
</defs>
</svg>
