<svg width="24" height="24" viewBox="0 0 24 24" fill="none" xmlns="http://www.w3.org/2000/svg">
<g clip-path="url(#clip0_5320_10893)">
<path fill-rule="evenodd" clip-rule="evenodd" d="M13.2384 4.11279L13.8552 0.1424C13.2455 0.0480001 12.6215 0 11.9999 0H11.9904V8.1H11.9999C12.3415 8.1 12.6792 8.144 13.0047 8.23036L14.0527 4.28321C13.7847 4.212 13.5119 4.156 13.2384 4.11279ZM10.0472 8.62321L8.03115 5.15036C7.79352 5.28879 7.56073 5.43836 7.33915 5.6L4.93194 2.30159C5.43836 1.93199 5.97758 1.59999 6.53436 1.31439L8.36636 4.89036C8.73836 4.70079 9.12394 4.54 9.52073 4.41036L8.27436 0.590394C8.87036 0.395994 9.48636 0.247194 10.1064 0.148794L10.7472 4.18158C10.4759 4.22479 10.2064 4.284 9.94073 4.35521L10.9839 8.23279C10.6567 8.32079 10.3415 8.45279 10.0472 8.62321ZM1.30002 6.56249L4.93921 8.41527C4.752 8.78327 4.59285 9.16891 4.46564 9.5617L0.580024 8.30491C0.772824 7.70812 1.01522 7.1217 1.30002 6.56249ZM18.8472 8.02715L15.3752 10.0448C15.5464 10.3392 15.6776 10.6544 15.7656 10.9816L19.6432 9.93679C19.7144 10.2024 19.7736 10.472 19.8168 10.7424L23.8496 10.1C23.7512 9.48 23.6024 8.864 23.4072 8.268L19.588 9.51679C19.4584 9.12 19.2976 8.73436 19.1072 8.36236L22.6824 6.528C22.3968 5.97115 22.0648 5.43279 21.6944 4.92636L18.3968 7.33515C18.5584 7.55679 18.7096 7.78958 18.8472 8.02715ZM15.688 0.577618C16.2847 0.770382 16.871 1.01193 17.4308 1.29665L15.5808 4.93679C15.212 4.74964 14.8264 4.59042 14.4336 4.464L15.688 0.577618ZM15.9815 5.07927L13.9423 8.6177C14.2375 8.78806 14.5095 8.99606 14.7519 9.2377L20.4703 3.50006C20.0271 3.0577 19.5447 2.64727 19.0383 2.28007L16.6799 5.53206C16.4552 5.36885 16.2223 5.2177 15.9815 5.07927ZM8.61921 10.0553L5.08158 8.01442C5.22079 7.77442 5.37121 7.54164 5.53442 7.31685L2.2832 4.95685C2.65121 4.45042 3.06158 3.96885 3.504 3.52564L9.24 9.24564C8.99842 9.48806 8.78958 9.76006 8.61921 10.0553ZM4.28479 9.94327L8.23121 10.9937C8.14485 11.3193 8.1 11.6577 8.1 12.0001H0C0 11.3769 0.0488 10.7505 0.144 10.1385L4.11442 10.7569C4.15679 10.4833 4.21358 10.2113 4.28479 9.94327ZM19.0608 15.5847L22.6999 17.4375C22.9848 16.8783 23.2272 16.2919 23.4199 15.6951L19.5344 14.4383C19.4072 14.8312 19.2479 15.2167 19.0608 15.5847ZM13.9527 15.3768L15.9687 18.8496C16.2064 18.7112 16.4392 18.5624 16.6607 18.4008L19.0679 21.6992C18.5615 22.0688 18.0223 22.4008 17.4655 22.6864L15.6335 19.1104C15.2615 19.3 14.8759 19.4608 14.4792 19.5904L15.7255 23.4104C15.1295 23.6048 14.5135 23.7536 13.8935 23.852L13.2527 19.8184C13.5239 19.7752 13.7935 19.716 14.0592 19.6448L13.0159 15.7672C13.3432 15.6792 13.6583 15.5472 13.9527 15.3768ZM5.15279 15.9728L8.62479 13.9552C8.45358 13.6608 8.32242 13.3456 8.23442 13.0184L4.35679 14.0632C4.28558 13.7976 4.22642 13.528 4.18321 13.2576L0.149612 13.9C0.248012 14.52 0.396812 15.136 0.592006 15.732L4.41121 14.4832C4.54079 14.88 4.70158 15.2656 4.892 15.6376L1.31681 17.472C1.60241 18.0288 1.93441 18.5672 2.30481 19.0736L5.60242 16.6648C5.44079 16.4432 5.29042 16.2104 5.15279 15.9728ZM6.56903 22.7033C7.12897 22.9881 7.71521 23.2296 8.31194 23.4224L9.5663 19.5359C9.17351 19.4095 8.78794 19.2504 8.41909 19.0632L6.56903 22.7033ZM8.01836 18.9207L10.0576 15.3824C9.76236 15.2119 9.49036 15.0039 9.24794 14.7624L3.53036 20.4999C3.97358 20.9424 4.45594 21.3527 4.96236 21.7199L7.32073 18.4679C7.54539 18.631 7.77776 18.7824 8.01836 18.9207ZM15.3816 13.9447L18.9191 15.9855C18.7799 16.2255 18.6288 16.4592 18.4656 16.6839L21.7168 19.0439C21.3488 19.5503 20.9384 20.0319 20.4959 20.4751L14.7608 14.7543C15.0024 14.5119 15.2112 14.2399 15.3816 13.9447ZM10.9952 15.7696L9.94715 19.7168C10.2152 19.788 10.4872 19.844 10.7608 19.8872L10.144 23.8576C10.7536 23.952 11.3776 24 11.9992 24H12.0088V15.9H11.9992C11.6578 15.9 11.3205 15.8558 10.9952 15.7696ZM15.7696 13.0064C15.8559 12.681 15.8999 12.3429 15.8999 12.0008H23.9999C23.9999 12.624 23.9511 13.2504 23.8559 13.8624L19.8864 13.2432C19.8439 13.5168 19.7872 13.7888 19.7159 14.0568L15.7696 13.0064Z" fill="black"/>
</g>
<defs>
<clipPath id="clip0_5320_10893">
<rect width="24" height="24" fill="white"/>
</clipPath>
</defs>
</svg>
