<svg width="24" height="24" viewBox="0 0 24 24" fill="none" xmlns="http://www.w3.org/2000/svg">
<g clip-path="url(#clip0_5320_10894)">
<rect width="24" height="24" rx="4" fill="black"/>
<g clip-path="url(#clip1_5320_10894)">
<path fill-rule="evenodd" clip-rule="evenodd" d="M12.8256 6.74186L13.2368 4.09493C12.8303 4.032 12.4143 4 12 4H11.9936V9.4H12C12.2277 9.4 12.4528 9.42933 12.6698 9.48691L13.3685 6.85547C13.1898 6.808 13.008 6.77067 12.8256 6.74186ZM10.6981 9.74881L9.3541 7.43358C9.19568 7.52586 9.04048 7.62558 8.89277 7.73333L7.28796 5.53439C7.62558 5.288 7.98505 5.06666 8.35624 4.87626L9.57758 7.26024C9.82558 7.13386 10.0826 7.02667 10.3472 6.94024L9.51624 4.3936C9.91358 4.264 10.3242 4.1648 10.7376 4.0992L11.1648 6.78772C10.984 6.81653 10.8042 6.856 10.6272 6.90347L11.3226 9.48853C11.1045 9.54719 10.8943 9.63519 10.6981 9.74881ZM4.86668 8.37499L7.29281 9.61018C7.168 9.85552 7.0619 10.1126 6.97709 10.3745L4.38668 9.53661C4.51522 9.13875 4.67682 8.7478 4.86668 8.37499ZM16.5648 9.35143L14.2501 10.6965C14.3643 10.8928 14.4518 11.1029 14.5104 11.3211L17.0955 10.6245C17.1429 10.8016 17.1824 10.9813 17.2112 11.1616L19.8998 10.7333C19.8341 10.32 19.7349 9.90933 19.6048 9.512L17.0587 10.3445C16.9723 10.08 16.8651 9.82291 16.7381 9.57491L19.1216 8.352C18.9312 7.98077 18.7099 7.62186 18.4629 7.28424L16.2646 8.8901C16.3723 9.03786 16.4731 9.19305 16.5648 9.35143ZM14.4587 4.38508C14.8564 4.51359 15.2473 4.67462 15.6206 4.86444L14.3872 7.29119C14.1413 7.16642 13.8842 7.06028 13.6224 6.976L14.4587 4.38508ZM14.6543 7.38618L13.2949 9.74513C13.4917 9.85871 13.673 9.99737 13.8346 10.1585L17.6469 6.33337C17.3514 6.03846 17.0298 5.76485 16.6922 5.52005L15.12 7.68804C14.9701 7.57923 14.8149 7.47846 14.6543 7.38618ZM9.74614 10.7035L7.38772 9.34295C7.48052 9.18295 7.58081 9.02776 7.68962 8.8779L5.52213 7.30457C5.76747 6.96695 6.04105 6.6459 6.336 6.35042L10.16 10.1638C9.99895 10.3254 9.85972 10.5067 9.74614 10.7035ZM6.85653 10.6288L9.48747 11.3291C9.4299 11.5462 9.4 11.7718 9.4 12.0001H4C4 11.5846 4.03253 11.167 4.096 10.759L6.74295 11.1713C6.77119 10.9889 6.80905 10.8075 6.85653 10.6288ZM16.7072 14.3898L19.1333 15.625C19.3232 15.2522 19.4848 14.8613 19.6133 14.4634L17.0229 13.6255C16.9381 13.8874 16.832 14.1445 16.7072 14.3898ZM13.3018 14.2512L14.6458 16.5664C14.8042 16.4741 14.9594 16.3749 15.1072 16.2672L16.712 18.4661C16.3743 18.7125 16.0149 18.9339 15.6437 19.1243L14.4223 16.7403C14.1743 16.8667 13.9173 16.9739 13.6528 17.0603L14.4837 19.6069C14.0863 19.7365 13.6757 19.8357 13.2623 19.9013L12.8352 17.2123C13.016 17.1835 13.1957 17.144 13.3728 17.0965L12.6773 14.5115C12.8954 14.4528 13.1055 14.3648 13.3018 14.2512ZM7.43519 14.6485L9.74986 13.3035C9.63572 13.1072 9.54828 12.8971 9.48962 12.6789L6.90452 13.3755C6.85705 13.1984 6.81762 13.0187 6.78881 12.8384L4.09974 13.2667C4.16534 13.68 4.26454 14.0907 4.39467 14.488L6.94081 13.6555C7.02719 13.92 7.13438 14.177 7.26133 14.425L4.87787 15.648C5.06827 16.0192 5.2896 16.3781 5.53654 16.7157L7.73495 15.1099C7.62719 14.9621 7.52695 14.8069 7.43519 14.6485ZM8.37935 19.1356C8.75265 19.3254 9.14347 19.4864 9.54129 19.6149L10.3775 17.024C10.1157 16.9397 9.85863 16.8336 9.61273 16.7088L8.37935 19.1356ZM9.34558 16.6138L10.7051 14.2549C10.5082 14.1413 10.3269 14.0026 10.1653 13.8416L6.35358 17.6666C6.64905 17.9616 6.97063 18.2352 7.30824 18.48L8.88049 16.312C9.03026 16.4207 9.18517 16.5216 9.34558 16.6138ZM14.2544 13.2965L16.6128 14.657C16.52 14.817 16.4192 14.9728 16.3104 15.1226L18.4779 16.696C18.2325 17.0335 17.9589 17.3546 17.664 17.6501L13.8405 13.8362C14.0016 13.6746 14.1408 13.4933 14.2544 13.2965ZM11.3301 14.5131L10.6314 17.1445C10.8101 17.192 10.9914 17.2293 11.1739 17.2581L10.7627 19.905C11.1691 19.968 11.5851 20 11.9994 20H12.0059V14.6H11.9994C11.7719 14.6 11.547 14.5705 11.3301 14.5131ZM14.5131 12.6709C14.5706 12.454 14.5999 12.2286 14.6 12.0005H20C20 12.416 19.9674 12.8336 19.904 13.2416L17.2576 12.8288C17.2293 13.0112 17.1914 13.1925 17.144 13.3712L14.5131 12.6709Z" fill="white"/>
</g>
</g>
<defs>
<clipPath id="clip0_5320_10894">
<rect width="24" height="24" fill="white"/>
</clipPath>
<clipPath id="clip1_5320_10894">
<rect width="16" height="16" fill="white" transform="translate(4 4)"/>
</clipPath>
</defs>
</svg>
