<svg width="24" height="24" viewBox="0 0 24 24" fill="none" xmlns="http://www.w3.org/2000/svg">
<g clip-path="url(#clip0_3627_2396)">
<rect width="24" height="24" rx="4" fill="black"/>
<g clip-path="url(#clip1_3627_2396)">
<path d="M17.7683 4.00034C17.1774 4.00188 16.6111 4.23752 16.1936 4.65565C15.7761 5.07378 15.5413 5.64033 15.5407 6.23121V7.40435C14.8835 6.06597 13.758 5.01532 12.3775 4.45169C10.9971 3.88806 9.45783 3.85065 8.05167 4.34655C6.86729 4.76645 5.84194 5.54273 5.11646 6.56878C4.39099 7.59483 4.00098 8.82031 4 10.0769V17.7683C4 18.3602 4.23513 18.9278 4.65367 19.3464C5.0722 19.7649 5.63985 20 6.23175 20C6.82365 20 7.3913 19.7649 7.80984 19.3464C8.22836 18.9278 8.46352 18.3602 8.46352 17.7683V16.5977C9.12051 17.9355 10.2457 18.9857 11.6257 19.5489C13.0058 20.1121 14.5445 20.1491 15.95 19.653C17.134 19.2332 18.159 18.4571 18.8842 17.4314C19.6094 16.4056 19.9992 15.1805 20 13.9243V6.23121C19.9991 5.63967 19.7637 5.07263 19.3453 4.65443C18.927 4.23622 18.3598 4.001 17.7683 4.00034ZM13.9233 19.3823C12.7566 19.3872 11.6194 19.0162 10.68 18.3243C9.74058 17.6324 9.04898 16.6564 8.7076 15.5408L8.69848 15.5084C8.54177 14.995 8.46261 14.461 8.46352 13.9243V10.0769C8.46395 9.64883 8.63422 9.23844 8.93702 8.93584C9.23978 8.63324 9.65029 8.46312 10.0784 8.46293C10.506 8.46403 10.9158 8.63442 11.2182 8.9369C11.5205 9.23939 11.6907 9.64927 11.6916 10.0769V13.9226C11.6923 14.5144 11.9279 15.0818 12.3466 15.5001C12.6591 15.8112 13.0566 16.0228 13.4891 16.1083C13.9215 16.1939 14.3697 16.1496 14.777 15.9809C15.1843 15.8122 15.5326 15.5267 15.778 15.1605C16.0234 14.7942 16.1549 14.3635 16.1559 13.9226V6.23121C16.1559 6.01937 16.1976 5.8096 16.2787 5.61388C16.3598 5.41816 16.4786 5.24033 16.6284 5.09053C16.7782 4.94073 16.956 4.82191 17.1517 4.74084C17.3475 4.65977 17.5572 4.61805 17.7691 4.61805C17.9809 4.61805 18.1907 4.65977 18.3864 4.74084C18.5822 4.82191 18.76 4.94073 18.9098 5.09053C19.0596 5.24033 19.1784 5.41816 19.2595 5.61388C19.3406 5.8096 19.3823 6.01937 19.3823 6.23121V13.9226C19.3828 14.6397 19.242 15.3498 18.9679 16.0124C18.6938 16.675 18.2917 17.2771 17.7847 17.7841C17.2777 18.2912 16.6756 18.6934 16.0131 18.9676C15.3505 19.2418 14.6404 19.3828 13.9233 19.3823ZM15.5407 13.9226C15.5403 14.2416 15.4456 14.5534 15.2683 14.8186C15.0911 15.0838 14.8393 15.2907 14.5447 15.413C14.2501 15.5353 13.9258 15.5677 13.6128 15.5061C13.2998 15.4445 13.0121 15.2916 12.7859 15.0667C12.6202 14.9026 12.4924 14.7042 12.4114 14.4855C12.3965 14.4465 12.3832 14.4025 12.3699 14.3585L12.3649 14.3361L12.3599 14.3153C12.3525 14.2862 12.345 14.2572 12.34 14.2265C12.34 14.2157 12.34 14.2041 12.3342 14.1925V14.175C12.3342 14.1476 12.3259 14.1202 12.3234 14.092C12.3209 14.0637 12.3234 14.0579 12.3234 14.0355C12.3234 14.0131 12.3234 13.9799 12.3234 13.9525V10.0769C12.3229 9.78285 12.2643 9.49177 12.1512 9.22031C12.038 8.9489 11.8724 8.70245 11.6639 8.49509C11.4554 8.28774 11.208 8.12352 10.9359 8.01184C10.6638 7.9002 10.3724 7.84329 10.0784 7.84438C9.48646 7.84504 8.91897 8.08046 8.5004 8.49899C8.08187 8.91756 7.84644 9.48501 7.84578 10.0769V17.7683C7.84578 18.1964 7.67573 18.6069 7.37304 18.9096C7.07035 19.2123 6.65982 19.3823 6.23175 19.3823C5.80368 19.3823 5.39315 19.2123 5.09045 18.9096C4.78777 18.6069 4.61772 18.1964 4.61772 17.7683V10.0769C4.61868 8.76805 5.08973 7.5031 5.9451 6.5124C6.80047 5.52171 7.98325 4.8712 9.27797 4.67936C10.5727 4.48752 11.8933 4.7671 12.9992 5.46719C14.1051 6.16728 14.9227 7.2413 15.3032 8.49364L15.3256 8.5667C15.4677 9.05755 15.5401 9.56594 15.5407 10.0769V13.9226Z" fill="url(#paint0_linear_3627_2396)"/>
</g>
</g>
<defs>
<linearGradient id="paint0_linear_3627_2396" x1="5.09722" y1="18.8804" x2="24.164" y2="-0.215498" gradientUnits="userSpaceOnUse">
<stop offset="0.05" stop-color="white"/>
<stop offset="0.38" stop-color="#A7B3FF"/>
<stop offset="1" stop-color="#74A4FF"/>
</linearGradient>
<clipPath id="clip0_3627_2396">
<rect width="24" height="24" fill="white"/>
</clipPath>
<clipPath id="clip1_3627_2396">
<rect width="16" height="16" fill="white" transform="translate(4 4)"/>
</clipPath>
</defs>
</svg>
