<svg width="24" height="24" viewBox="0 0 24 24" fill="none" xmlns="http://www.w3.org/2000/svg">
<g clip-path="url(#clip0_2528_6734)">
<rect width="24" height="24" rx="4" fill="#131313"/>
<g clip-path="url(#clip1_2528_6734)">
<path d="M14.3135 9.33318H9.69113C9.49476 9.33318 9.33557 9.49236 9.33557 9.68873V14.311C9.33557 14.5074 9.49476 14.6666 9.69113 14.6666H14.3135C14.5098 14.6666 14.669 14.5074 14.669 14.311V9.68873C14.669 9.49236 14.5098 9.33318 14.3135 9.33318Z" fill="white"/>
<path d="M8.97737 4.00014H4.35507C4.1587 4.00014 3.99951 4.15933 3.99951 4.3557V8.97798C3.99951 9.17435 4.1587 9.33354 4.35507 9.33354H8.97737C9.17377 9.33354 9.33296 9.17435 9.33296 8.97798V4.3557C9.33296 4.15933 9.17377 4.00014 8.97737 4.00014Z" fill="white"/>
<path d="M19.6449 4H15.0226C14.8262 4 14.667 4.15919 14.667 4.35556V8.97785C14.667 9.17422 14.8262 9.33341 15.0226 9.33341H19.6449C19.8412 9.33341 20.0004 9.17422 20.0004 8.97785V4.35556C20.0004 4.15919 19.8412 4 19.6449 4Z" fill="white"/>
<path d="M8.9774 14.6666H4.35507C4.1587 14.6666 3.99951 14.8258 3.99951 15.0221V19.6444C3.99951 19.8408 4.1587 20 4.35507 20H8.9774C9.17377 20 9.33295 19.8408 9.33295 19.6444V15.0221C9.33295 14.8258 9.17377 14.6666 8.9774 14.6666Z" fill="white"/>
<path d="M19.6449 14.6666H15.0226C14.8262 14.6666 14.667 14.8258 14.667 15.0221V19.6444C14.667 19.8408 14.8262 20 15.0226 20H19.6449C19.8412 20 20.0004 19.8408 20.0004 19.6444V15.0221C20.0004 14.8258 19.8412 14.6666 19.6449 14.6666Z" fill="white"/>
</g>
</g>
<defs>
<clipPath id="clip0_2528_6734">
<rect width="24" height="24" fill="white"/>
</clipPath>
<clipPath id="clip1_2528_6734">
<rect width="16" height="16" fill="white" transform="translate(4 4)"/>
</clipPath>
</defs>
</svg>
