<svg width="32" height="32" viewBox="0 0 32 32" fill="none" xmlns="http://www.w3.org/2000/svg">
<g clip-path="url(#clip0_2528_6783)">
<path d="M20.6269 10.6664H11.3823C10.9895 10.6664 10.6711 10.9848 10.6711 11.3775V20.622C10.6711 21.0148 10.9895 21.3332 11.3823 21.3332H20.6269C21.0197 21.3332 21.338 21.0148 21.338 20.622V11.3775C21.338 10.9848 21.0197 10.6664 20.6269 10.6664Z" fill="#131313"/>
<path d="M9.9552 0.00012207H0.710596C0.31786 0.00012207 -0.000518799 0.3185 -0.000518799 0.711242V9.95582C-0.000518799 10.3486 0.31786 10.6669 0.710596 10.6669H9.9552C10.348 10.6669 10.6664 10.3486 10.6664 9.95582V0.711242C10.6664 0.3185 10.348 0.00012207 9.9552 0.00012207Z" fill="#131313"/>
<path d="M31.2898 0H22.0452C21.6524 0 21.334 0.318382 21.334 0.711124V9.9557C21.334 10.3484 21.6524 10.6668 22.0452 10.6668H31.2898C31.6825 10.6668 32.0009 10.3484 32.0009 9.9557V0.711124C32.0009 0.318382 31.6825 0 31.2898 0Z" fill="#131313"/>
<path d="M9.9548 21.3331H0.710138C0.317402 21.3331 -0.000976562 21.6515 -0.000976562 22.0442V31.2888C-0.000976562 31.6816 0.317402 32 0.710138 32H9.9548C10.3475 32 10.6659 31.6816 10.6659 31.2888V22.0442C10.6659 21.6515 10.3475 21.3331 9.9548 21.3331Z" fill="#131313"/>
<path d="M31.2898 21.3331H22.0452C21.6524 21.3331 21.334 21.6515 21.334 22.0442V31.2888C21.334 31.6816 21.6524 32 22.0452 32H31.2898C31.6825 32 32.0009 31.6816 32.0009 31.2888V22.0442C32.0009 21.6515 31.6825 21.3331 31.2898 21.3331Z" fill="#131313"/>
</g>
<defs>
<clipPath id="clip0_2528_6783">
<rect width="32" height="32" fill="white"/>
</clipPath>
</defs>
</svg>
