<svg width="32" height="32" viewBox="0 0 32 32" fill="none" xmlns="http://www.w3.org/2000/svg">
<g clip-path="url(#clip0_2397_6480)">
<path d="M16 31.6C24.6156 31.6 31.6 24.6157 31.6 16C31.6 7.38438 24.6156 0.400024 16 0.400024C7.38435 0.400024 0.399994 7.38438 0.399994 16C0.399994 24.6157 7.38435 31.6 16 31.6Z" fill="#252525"/>
<path d="M10.8888 23.8865L10.5369 24.089L10.5372 23.6835C10.5372 23.6835 10.5322 23.8909 10.626 23.9427C10.7178 23.9935 10.8888 23.8865 10.8888 23.8865Z" fill="#8E3315"/>
<path d="M1.85669 23.4674C3.84034 27.2115 7.23313 30.0153 11.2885 31.2627C15.3439 32.5102 19.7298 32.0985 23.4813 30.1185C27.2328 28.1384 30.0427 24.7521 31.2928 20.7044C32.5428 16.6567 32.1222 12.2792 30.1385 8.53503C31.9272 14.162 25.6996 16.1388 25.6996 16.1388L10.3288 24.1486C10.3288 24.1486 4.98992 27.579 1.85669 23.4674Z" fill="#473ADE"/>
<path d="M1.82861 23.4961C3.81227 27.2402 7.20498 30.0445 11.2604 31.2919C15.3158 32.5394 19.7017 32.1277 23.4532 30.1477C27.2048 28.1676 30.0146 24.7813 31.2647 20.7336C32.5148 16.686 32.1026 12.3085 30.1189 8.56433C31.9076 14.1913 25.6715 16.1679 25.6715 16.1679L10.3007 24.1777C10.3007 24.1777 4.96178 27.6077 1.82861 23.4961Z" fill="url(#paint0_linear_2397_6480)"/>
<path d="M25.499 15.7499L26.0808 16.0322L25.4666 16.2782C25.4666 16.2782 25.7301 16.154 25.7616 16.0322C25.7924 15.9129 25.499 15.7499 25.499 15.7499Z" fill="#251E73"/>
<path d="M30.2354 23.3015C32.1725 19.5331 32.5304 15.1509 31.2303 11.119C29.9301 7.08716 27.0785 3.73575 23.3027 1.80219C19.5269 -0.13143 15.1363 -0.488807 11.0966 0.808602C7.05697 2.10601 3.69928 4.95199 1.76221 8.72037C5.35672 4.03235 10.5538 8.00006 10.5538 8.00006L25.9394 15.9814C25.9394 15.9814 31.8154 18.3823 30.2354 23.3015Z" fill="#D71D6A"/>
<path d="M30.197 23.285C32.1284 19.5278 32.4852 15.1587 31.1889 11.1388C29.8927 7.1189 27.0495 3.77749 23.285 1.84969C19.5204 -0.0781781 15.1428 -0.434514 11.1152 0.85908C7.08758 2.1526 3.7399 4.99004 1.80859 8.74726C5.3924 4.07318 10.574 8.0291 10.574 8.0291L25.9138 15.9867C25.9138 15.9867 31.7722 18.3804 30.197 23.285Z" fill="url(#paint1_linear_2397_6480)"/>
<path d="M10.5391 8.37754L10.5325 7.953L10.9042 8.15962C10.9042 8.15962 10.7166 8.04958 10.6213 8.10883C10.5281 8.1669 10.5391 8.37754 10.5391 8.37754Z" fill="#741039"/>
<path d="M16 0.0369873C11.7565 0.0369873 7.68686 1.7196 4.68626 4.71474C1.68565 7.70988 0 11.7721 0 16.0078C0 20.2436 1.68565 24.3058 4.68626 27.301C7.68686 30.2961 11.751 31.9706 15.9945 31.9706C10.5483 31.058 10.5538 24.0234 10.5538 24.0234V7.85044C10.5538 7.85044 10.5538 1.00991 16 0.0369873Z" fill="#FF5B25"/>
<path d="M16 -0.00012207C11.7565 -0.00012207 7.68686 1.68248 4.68626 4.67762C1.68565 7.6727 0 11.735 0 15.9707C0 20.2064 1.68565 24.2687 4.68626 27.2638C7.68686 30.259 11.751 31.9706 15.9945 31.9706C10.5483 30.2338 10.5538 24.0324 10.5538 24.0324L10.5538 8.00006C10.5538 8.00006 10.3557 1.03482 16 -0.00012207Z" fill="url(#paint2_linear_2397_6480)"/>
<path d="M16 -0.00012207C11.7565 -0.00012207 7.68686 1.68248 4.68626 4.67762C1.68565 7.6727 0 11.735 0 15.9707C0 20.2064 1.68565 24.2687 4.68626 27.2638C7.68686 30.259 11.751 31.9706 15.9945 31.9706C10.5483 30.2338 10.5538 24.0324 10.5538 24.0324L10.5538 8.00006C10.5538 8.00006 10.3557 1.03482 16 -0.00012207Z" fill="url(#paint3_linear_2397_6480)" fill-opacity="0.3"/>
<path d="M15.9945 31.9706C10.5903 29.5137 10.5602 24.0306 10.5602 24.0306C10.5602 24.0306 3.86206 27.8019 1.60718 22.9784C1.60718 22.9784 5.42369 32.0026 15.9945 31.9706Z" fill="#473ADE"/>
</g>
<defs>
<linearGradient id="paint0_linear_2397_6480" x1="30.0314" y1="7.67783" x2="-0.635475" y2="31.261" gradientUnits="userSpaceOnUse">
<stop stop-opacity="0.6"/>
<stop offset="0.655513" stop-opacity="0"/>
</linearGradient>
<linearGradient id="paint1_linear_2397_6480" x1="4.88495" y1="7.50547" x2="39.3956" y2="12.3852" gradientUnits="userSpaceOnUse">
<stop stop-opacity="0.6"/>
<stop offset="0.645833" stop-opacity="0"/>
</linearGradient>
<linearGradient id="paint2_linear_2397_6480" x1="17.1369" y1="29.9899" x2="12.0212" y2="-1.5557" gradientUnits="userSpaceOnUse">
<stop stop-opacity="0.6"/>
<stop offset="0.675464" stop-opacity="0"/>
</linearGradient>
<linearGradient id="paint3_linear_2397_6480" x1="17.1369" y1="29.9899" x2="12.0212" y2="-1.5557" gradientUnits="userSpaceOnUse">
<stop stop-opacity="0.6"/>
<stop offset="0.675464" stop-opacity="0"/>
</linearGradient>
<clipPath id="clip0_2397_6480">
<rect width="32" height="32" fill="white"/>
</clipPath>
</defs>
</svg>
