<svg width="24" height="24" viewBox="0 0 24 24" fill="none" xmlns="http://www.w3.org/2000/svg">
<g clip-path="url(#clip0_2317_6438)">
<rect width="24" height="24" rx="4" fill="#252525"/>
<g clip-path="url(#clip1_2317_6438)">
<path d="M12 19.8C16.3078 19.8 19.8 16.3078 19.8 12C19.8 7.69218 16.3078 4.2 12 4.2C7.69213 4.2 4.19995 7.69218 4.19995 12C4.19995 16.3078 7.69213 19.8 12 19.8Z" fill="#252525"/>
<path d="M9.44442 15.9432L9.26845 16.0444L9.26859 15.8417C9.26859 15.8417 9.26612 15.9453 9.31301 15.9713C9.35892 15.9966 9.44442 15.9432 9.44442 15.9432Z" fill="#8E3315"/>
<path d="M4.92835 15.7336C5.92017 17.6057 7.61657 19.0076 9.64425 19.6313C11.672 20.255 13.8649 20.0492 15.7407 19.0592C17.6164 18.0691 19.0214 16.376 19.6464 14.3521C20.2714 12.3283 20.0611 10.1395 19.0693 8.26743C19.9636 11.0809 16.8498 12.0693 16.8498 12.0693L9.16438 16.0742C9.16438 16.0742 6.49496 17.7894 4.92835 15.7336Z" fill="#473ADE"/>
<path d="M4.91431 15.7479C5.90613 17.62 7.60249 19.0222 9.63021 19.6459C11.6579 20.2696 13.8509 20.0638 15.7266 19.0738C17.6024 18.0837 19.0073 16.3905 19.6323 14.3667C20.2574 12.3429 20.0513 10.1542 19.0595 8.28207C19.9538 11.0955 16.8357 12.0839 16.8357 12.0839L9.15034 16.0888C9.15034 16.0888 6.48089 17.8037 4.91431 15.7479Z" fill="url(#paint0_linear_2317_6438)"/>
<path d="M16.7495 11.8749L17.0404 12.016L16.7333 12.139C16.7333 12.139 16.8651 12.0769 16.8808 12.016C16.8962 11.9564 16.7495 11.8749 16.7495 11.8749Z" fill="#251E73"/>
<path d="M19.1177 15.6507C20.0863 13.7665 20.2652 11.5754 19.6151 9.55943C18.9651 7.54349 17.5393 5.86778 15.6514 4.90101C13.7635 3.93419 11.5681 3.75551 9.54831 4.40421C7.52848 5.05291 5.84964 6.4759 4.8811 8.36009C6.67836 6.01608 9.27691 7.99994 9.27691 7.99994L16.9697 11.9906C16.9697 11.9906 19.9077 13.1911 19.1177 15.6507Z" fill="#D71D6A"/>
<path d="M19.0985 15.6424C20.0642 13.7638 20.2426 11.5792 19.5945 9.5693C18.9463 7.55936 17.5247 5.88865 15.6425 4.92475C13.7602 3.96082 11.5714 3.78265 9.55761 4.42945C7.54379 5.07621 5.86995 6.49493 4.9043 8.37354C6.6962 6.0365 9.287 8.01446 9.287 8.01446L16.9569 11.9932C16.9569 11.9932 19.8861 13.1901 19.0985 15.6424Z" fill="url(#paint1_linear_2317_6438)"/>
<path d="M9.26956 8.18868L9.26626 7.97641L9.45209 8.07972C9.45209 8.07972 9.35829 8.0247 9.31067 8.05432C9.26403 8.08336 9.26956 8.18868 9.26956 8.18868Z" fill="#741039"/>
<path d="M12 4.0184C9.87827 4.0184 7.84343 4.85971 6.34313 6.35728C4.84283 7.85485 4 9.88595 4 12.0038C4 14.1217 4.84283 16.1528 6.34313 17.6504C7.84343 19.148 9.87549 19.9852 11.9972 19.9852C9.27415 19.5289 9.2769 16.0116 9.2769 16.0116V7.92513C9.2769 7.92513 9.2769 4.50486 12 4.0184Z" fill="#FF5B25"/>
<path d="M12 3.99985C9.87827 3.99985 7.84343 4.84115 6.34313 6.33872C4.84283 7.83626 4 9.8674 4 11.9853C4 14.1031 4.84283 16.1343 6.34313 17.6318C7.84343 19.1294 9.87549 19.9852 11.9972 19.9852C9.27415 19.1168 9.2769 16.0161 9.2769 16.0161L9.27691 7.99994C9.27691 7.99994 9.17784 4.51732 12 3.99985Z" fill="url(#paint2_linear_2317_6438)"/>
<path d="M12 3.99985C9.87827 3.99985 7.84343 4.84115 6.34313 6.33872C4.84283 7.83626 4 9.8674 4 11.9853C4 14.1031 4.84283 16.1343 6.34313 17.6318C7.84343 19.1294 9.87549 19.9852 11.9972 19.9852C9.27415 19.1168 9.2769 16.0161 9.2769 16.0161L9.27691 7.99994C9.27691 7.99994 9.17784 4.51732 12 3.99985Z" fill="url(#paint3_linear_2317_6438)" fill-opacity="0.3"/>
<path d="M11.9972 19.9852C9.29514 18.7568 9.2801 16.0152 9.2801 16.0152C9.2801 16.0152 5.93103 17.9009 4.80359 15.4891C4.80359 15.4891 6.71184 20.0012 11.9972 19.9852Z" fill="#473ADE"/>
</g>
</g>
<defs>
<linearGradient id="paint0_linear_2317_6438" x1="19.0157" y1="7.83883" x2="3.68226" y2="19.6304" gradientUnits="userSpaceOnUse">
<stop stop-opacity="0.6"/>
<stop offset="0.655513" stop-opacity="0"/>
</linearGradient>
<linearGradient id="paint1_linear_2317_6438" x1="6.44248" y1="7.75264" x2="23.6978" y2="10.1925" gradientUnits="userSpaceOnUse">
<stop stop-opacity="0.6"/>
<stop offset="0.645833" stop-opacity="0"/>
</linearGradient>
<linearGradient id="paint2_linear_2317_6438" x1="12.5685" y1="18.9949" x2="10.0106" y2="3.22206" gradientUnits="userSpaceOnUse">
<stop stop-opacity="0.6"/>
<stop offset="0.675464" stop-opacity="0"/>
</linearGradient>
<linearGradient id="paint3_linear_2317_6438" x1="12.5685" y1="18.9949" x2="10.0106" y2="3.22206" gradientUnits="userSpaceOnUse">
<stop stop-opacity="0.6"/>
<stop offset="0.675464" stop-opacity="0"/>
</linearGradient>
<clipPath id="clip0_2317_6438">
<rect width="24" height="24" fill="white"/>
</clipPath>
<clipPath id="clip1_2317_6438">
<rect width="16" height="16" fill="white" transform="translate(4 4)"/>
</clipPath>
</defs>
</svg>
