<svg width="24" height="24" viewBox="0 0 24 24" fill="none" xmlns="http://www.w3.org/2000/svg">
<g clip-path="url(#clip0_3516_1839)">
<rect width="24" height="24" rx="4" fill="#FF0420"/>
<path d="M12 4C7.58173 4 4 7.58173 4 12C4 16.4183 7.58173 20 12 20C16.4183 20 20 16.4183 20 12C20 7.5817 16.4183 4 12 4ZM12 16.0733V19.4139C8.8279 19.4139 6.25641 16.8424 6.25641 13.6703C6.25641 10.4982 8.8279 7.92674 12 7.92674V4.58608C15.1721 4.58608 17.7436 7.15757 17.7436 10.3297C17.7436 13.5018 15.1721 16.0733 12 16.0733ZM14.7546 11.9744V12.0256C13.5404 12.6307 12.6307 13.5404 12.0256 14.7546H11.9744C11.3693 13.5404 10.4596 12.6307 9.24542 12.0256V11.9744C10.4596 11.3692 11.3693 10.4596 11.9744 9.24542H12.0256C12.6307 10.4596 13.5404 11.3692 14.7546 11.9744Z" fill="#FF0420"/>
<path fill-rule="evenodd" clip-rule="evenodd" d="M12 16.0733V19.4139C8.8279 19.4139 6.25641 16.8424 6.25641 13.6703C6.25641 10.4982 8.8279 7.92674 12 7.92674V4.58608C15.1721 4.58608 17.7436 7.15757 17.7436 10.3297C17.7436 13.5018 15.1721 16.0733 12 16.0733ZM14.7546 12.0256V11.9744C13.5404 11.3692 12.6307 10.4596 12.0256 9.24542H11.9744C11.3693 10.4596 10.4596 11.3692 9.24542 11.9744V12.0256C10.4596 12.6307 11.3693 13.5404 11.9744 14.7546H12.0256C12.6307 13.5404 13.5404 12.6307 14.7546 12.0256Z" fill="white"/>
</g>
<defs>
<clipPath id="clip0_3516_1839">
<rect width="24" height="24" fill="white"/>
</clipPath>
</defs>
</svg>
