<svg width="24" height="24" viewBox="0 0 24 24" fill="none" xmlns="http://www.w3.org/2000/svg">
<path d="M12 0C5.3726 0 0 5.3726 0 12C0 18.6274 5.3726 24 12 24C18.6274 24 24 18.6274 24 12C24 5.37255 18.6274 0 12 0ZM12 18.1099V23.1209C7.24184 23.1209 3.38462 19.2637 3.38462 14.5055C3.38462 9.74736 7.24184 5.89011 12 5.89011V0.879121C16.7582 0.879121 20.6154 4.73635 20.6154 9.49451C20.6154 14.2526 16.7582 18.1099 12 18.1099ZM16.1319 11.9616V12.0384C14.3106 12.9461 12.9461 14.3106 12.0384 16.1319H11.9616C11.0539 14.3106 9.68939 12.9461 7.86813 12.0384V11.9616C9.68939 11.0539 11.0539 9.68937 11.9616 7.86813H12.0384C12.9461 9.68937 14.3106 11.0539 16.1319 11.9616Z" fill="#FF0420"/>
<path fill-rule="evenodd" clip-rule="evenodd" d="M12 18.1099V23.1209C7.24184 23.1209 3.38462 19.2637 3.38462 14.5055C3.38462 9.74736 7.24184 5.89011 12 5.89011V0.879121C16.7582 0.879121 20.6154 4.73635 20.6154 9.49451C20.6154 14.2526 16.7582 18.1099 12 18.1099ZM16.1319 12.0384V11.9616C14.3106 11.0539 12.9461 9.68937 12.0384 7.86813H11.9616C11.0539 9.68937 9.68939 11.0539 7.86813 11.9616V12.0384C9.68939 12.9461 11.0539 14.3106 11.9616 16.1319H12.0384C12.9461 14.3106 14.3106 12.9461 16.1319 12.0384Z" fill="white"/>
</svg>
