<svg width="32" height="32" viewBox="0 0 32 32" fill="none" xmlns="http://www.w3.org/2000/svg">
<path d="M30.4571 5.89809C30.1346 4.67706 29.0979 3.45604 27.2318 2.09679C25.7343 1.014 24.1447 0.391968 22.8776 0.391968C22.6241 0.391968 22.3938 0.415006 22.1634 0.461082C21.5874 0.576273 21.0806 0.99096 20.7581 1.61299C20.3664 2.35021 20.2743 3.34085 20.5277 3.93984C20.6198 4.12415 20.735 4.35453 20.8732 4.56187C19.6522 5.2991 18.9611 5.50644 18.8689 5.52948C22.0482 6.58923 24.6976 8.8009 26.3563 11.6807L26.3794 11.4042C26.4485 10.6439 26.6789 9.7685 27.0014 8.87001C27.3239 8.96216 27.6465 9.00824 27.969 9.00824C28.8214 9.00824 29.5586 8.66267 30.0194 8.04064C30.4802 7.41861 30.6645 6.58923 30.4571 5.89809Z" fill="#5E12A0"/>
<path d="M27.1389 8.20166C29.2354 8.77761 30.0878 7.16494 29.8113 6.08215C29.5118 4.99936 28.5442 3.89353 26.8394 2.64947C25.1346 1.4054 23.4067 0.898565 22.3009 1.12895C21.195 1.35933 20.8725 3.04111 21.149 3.68618C21.2642 3.9396 21.5176 4.30821 21.8631 4.7229C21.4254 5.0224 21.0107 5.25278 20.6652 5.46012C22.7847 6.40468 24.6277 7.87913 26.01 9.72218C26.1713 9.10015 26.4017 8.54723 26.609 8.06343C26.7703 8.08647 26.9546 8.13255 27.1389 8.20166Z" fill="url(#paint0_radial_1847_6152)"/>
<path d="M15.1357 30.7788C22.2483 30.7788 28.014 25.013 28.014 17.9004C28.014 10.7879 22.2483 5.02209 15.1357 5.02209C8.02315 5.02209 2.25739 10.7879 2.25739 17.9004C2.25739 25.013 8.02315 30.7788 15.1357 30.7788Z" fill="url(#paint1_radial_1847_6152)"/>
<path d="M28.7524 5.02269C27.0015 3.17964 25.527 2.69583 23.7531 2.30419C22.3708 1.98165 22.7394 1.19835 24.4212 1.35962C23.6149 1.08316 22.8546 1.01405 22.3017 1.12924C21.1958 1.35962 20.8733 3.04141 21.1498 3.68648C21.265 3.9399 21.5184 4.30851 21.864 4.72319C21.2419 5.13788 20.712 5.43738 20.2743 5.66776C20.4817 5.75991 20.7351 5.8751 21.0346 6.03637C21.8179 6.45106 22.6703 7.1422 22.6703 7.1422C21.3802 6.03637 21.6566 5.52953 23.4305 4.28547C23.9835 3.89382 24.9971 3.9399 25.9417 4.4237C26.8863 4.9075 27.9921 6.12852 27.9921 6.12852L26.9323 8.15588C27.0015 8.17892 27.0706 8.20195 27.1397 8.22499C27.8078 8.4093 28.3377 8.36322 28.7524 8.20195C29.2362 7.90246 30.5033 6.88878 28.7524 5.02269Z" fill="#A98698" fill-opacity="0.6"/>
<path d="M23.7293 3.40993C24.1901 3.59424 24.7891 3.91677 25.5263 4.40057C26.4017 4.97653 27.162 5.62159 27.6458 6.12843C26.8395 7.18819 26.3096 8.63959 25.987 9.65327C26.1483 9.88365 26.3326 10.114 26.4939 10.3444C26.6551 9.76846 26.9316 8.91605 27.3002 8.06364C27.3924 8.08668 27.5076 8.08668 27.6228 8.08668C27.8992 8.08668 28.2217 8.0406 28.4752 7.83326C28.6595 7.69503 28.8668 7.44161 28.8438 6.98085C28.8438 6.54312 28.4982 5.99021 27.784 5.3221C27.2772 4.8383 26.586 4.30842 25.8949 3.82462C23.9136 2.51144 22.5313 2.14283 21.9093 2.76486C21.4946 3.17955 21.5407 3.68639 21.6789 4.055C20.9417 4.5388 20.3197 4.88437 19.905 5.11476C20.1814 5.20691 20.4348 5.3221 20.7113 5.43729C21.4485 5.04564 22.5083 4.37753 23.7293 3.40993ZM28.0835 6.70439C28.1526 6.81958 28.1757 6.93477 28.1757 7.00388C28.1757 7.21123 28.1066 7.28034 28.0605 7.32642C27.9683 7.39553 27.784 7.44161 27.6228 7.44161C27.761 7.16515 27.9222 6.93477 28.0835 6.70439ZM22.3931 3.2717C22.4622 3.20259 22.6465 3.15651 22.946 3.20259C22.7156 3.38689 22.4852 3.54816 22.2549 3.70943C22.2318 3.54816 22.2549 3.38689 22.3931 3.2717Z" fill="#5E12A0"/>
<path d="M15.1358 4.26187C7.6023 4.26187 1.49719 10.367 1.49719 17.9005C1.49719 25.4339 7.6023 31.5391 15.1358 31.5391C22.6693 31.5391 28.7744 25.4339 28.7744 17.9005C28.7744 10.367 22.6462 4.26187 15.1358 4.26187ZM15.1358 30.7788C8.01699 30.7788 2.25745 25.0193 2.25745 17.9005C2.25745 10.7817 8.01699 5.02213 15.1358 5.02213C22.2546 5.02213 28.0141 10.7817 28.0141 17.9005C28.0141 25.0193 22.2315 30.7788 15.1358 30.7788Z" fill="#5E12A0"/>
<path d="M15.1357 30.7788C22.2483 30.7788 28.014 25.013 28.014 17.9004C28.014 10.7879 22.2483 5.02209 15.1357 5.02209C8.02315 5.02209 2.25739 10.7879 2.25739 17.9004C2.25739 25.013 8.02315 30.7788 15.1357 30.7788Z" fill="url(#paint2_linear_1847_6152)"/>
<path d="M15.0438 29.2126C8.01717 28.0837 3.24827 21.4718 4.40018 14.4451C4.90702 11.335 6.47361 8.6856 8.68527 6.77344C5.45993 8.63953 3.06397 11.8879 2.4189 15.8505C1.29003 22.8771 6.05893 29.4891 13.0625 30.6179C16.979 31.263 20.7573 30.042 23.5449 27.646C21.0798 29.0744 18.0848 29.6964 15.0438 29.2126Z" fill="#A98698" fill-opacity="0.6"/>
<path d="M17.187 5.20647C13.9387 4.67659 10.7824 5.41381 8.20217 7.04952C8.15609 7.09559 8.11001 7.14167 8.11001 7.14167C9.10065 6.54268 10.5521 6.0128 10.5521 6.0128C6.81988 8.17839 5.66797 10.6435 5.66797 10.6435C7.11937 7.83282 11.3814 5.85153 14.722 5.7133C18.0625 5.57508 20.2511 6.56572 22.9235 8.70827C25.596 10.8739 27.2086 15.2972 27.0474 18.799C26.9092 22.3008 25.0661 25.1345 25.0661 25.1345C26.3332 23.4988 27.0935 22.3008 27.5773 21.0798C27.6694 20.7111 27.7616 20.3425 27.8076 19.9509C28.9595 12.9473 24.2137 6.33534 17.187 5.20647Z" fill="url(#paint3_linear_1847_6152)"/>
<path d="M27.3702 17.7853C27.3702 24.5355 21.8871 30.0185 15.1369 30.0185C8.38677 30.0185 2.88065 24.5355 2.88065 17.7853H27.3702Z" fill="url(#paint4_linear_1847_6152)"/>
<path d="M26.4025 17.7853C26.4025 24.3742 21.1959 29.7651 14.653 30.0185H15.1368C21.887 30.0185 27.3701 24.5355 27.3701 17.7853H26.4025Z" fill="url(#paint5_linear_1847_6152)"/>
<path d="M4.60851 17.7853H2.88065C2.88065 24.5355 8.36373 30.0185 15.1139 30.0185C15.4134 30.0185 15.6899 30.0185 15.9663 29.9955C9.63083 29.5347 4.60851 24.236 4.60851 17.7853Z" fill="url(#paint6_linear_1847_6152)"/>
<path d="M27.3472 17.9006C27.3472 16.4952 24.9051 15.6889 21.6567 15.4125C19.3069 15.2281 16.9339 15.4585 14.2154 16.2879C11.8655 16.979 9.74602 16.8639 8.20246 16.6796C4.76978 16.2879 2.88065 16.2418 2.88065 17.9006C2.88065 20.2965 7.76474 23.2915 15.0909 22.2548C18.8 21.7249 20.7122 20.6421 22.9008 19.9049C25.2737 19.1216 27.3472 19.1446 27.3472 17.9006Z" fill="url(#paint7_linear_1847_6152)"/>
<path d="M19.1442 12.095C20.2894 12.095 21.2176 11.1668 21.2176 10.0215C21.2176 8.8763 20.2894 7.94809 19.1442 7.94809C17.9989 7.94809 17.0707 8.8763 17.0707 10.0215C17.0707 11.1668 17.9989 12.095 19.1442 12.095Z" fill="white"/>
<path d="M22.5313 13.6383C23.0148 13.6383 23.4067 13.2464 23.4067 12.7628C23.4067 12.2793 23.0148 11.8874 22.5313 11.8874C22.0477 11.8874 21.6558 12.2793 21.6558 12.7628C21.6558 13.2464 22.0477 13.6383 22.5313 13.6383Z" fill="white"/>
<path d="M25.6658 8.36298H25.6197C25.4815 8.33994 25.3894 8.20171 25.4124 8.04044C25.6197 6.98069 26.4952 5.96701 26.5413 5.92093C26.6334 5.80574 26.8177 5.80574 26.9099 5.8979C27.0251 5.99005 27.0251 6.17435 26.9329 6.26651C26.9099 6.28954 26.1035 7.23411 25.9192 8.15564C25.8962 8.29386 25.781 8.36298 25.6658 8.36298Z" fill="url(#paint8_linear_1847_6152)"/>
<path d="M22.8764 0.391649C24.1665 0.391649 25.7562 1.01368 27.2306 2.09647C29.0967 3.45572 30.1334 4.65371 30.456 5.89777C30.6403 6.61195 30.479 7.41829 30.0182 8.01728C29.5344 8.63931 28.8203 8.98488 27.9678 8.98488C27.6683 8.98488 27.3458 8.93881 27.0002 8.84665C26.7929 9.37653 26.6316 9.90641 26.5164 10.4132C27.9218 12.5558 28.7511 15.1361 28.7511 17.9006C28.7511 25.4341 22.646 31.5392 15.1125 31.5392C7.57906 31.5392 1.49699 25.4341 1.49699 17.9006C1.49699 10.3672 7.6021 4.26206 15.1356 4.26206C16.7943 4.26206 18.384 4.56156 19.8584 5.11447C20.1349 4.97624 20.4804 4.79194 20.8721 4.56155C20.7339 4.35421 20.5956 4.14687 20.5265 3.93953C20.2731 3.31749 20.3652 2.34989 20.7569 1.61267C21.0794 1.01368 21.5632 0.598992 22.1622 0.460763C22.3696 0.414687 22.623 0.391649 22.8764 0.391649ZM22.8764 0C22.5999 0 22.3235 0.0230382 22.0701 0.0921526C21.3789 0.25342 20.7799 0.714183 20.3883 1.4514C19.9506 2.30382 19.8354 3.40965 20.1349 4.12383C20.1809 4.21598 20.227 4.33117 20.2961 4.44636C20.1349 4.53852 19.9736 4.63067 19.8123 4.69978C18.2918 4.16991 16.7252 3.89345 15.1125 3.89345C13.2234 3.89345 11.3804 4.26206 9.6525 4.99928C7.97071 5.71346 6.47323 6.72714 5.1831 8.01728C3.89296 9.30742 2.87928 10.8049 2.1651 12.4867C1.42788 14.2145 1.05927 16.0576 1.05927 17.9467C1.05927 19.8359 1.42788 21.6789 2.1651 23.4068C2.87928 25.0886 3.89296 26.586 5.1831 27.8762C6.47323 29.1663 7.97071 30.18 9.6525 30.8942C11.3804 31.6314 13.2234 32 15.1125 32C17.0017 32 18.8447 31.6314 20.5726 30.8942C22.2544 30.18 23.7519 29.1663 25.042 27.8762C26.3321 26.586 27.3458 25.0886 28.06 23.4068C28.7972 21.6789 29.1658 19.8359 29.1658 17.9467C29.1658 15.2513 28.4056 12.6479 26.9542 10.3902C27.0233 10.0446 27.1385 9.69906 27.2537 9.35349C27.484 9.39957 27.7375 9.42261 27.9678 9.42261C28.9354 9.42261 29.7879 9.03096 30.3408 8.29374C30.8706 7.60259 31.078 6.63499 30.8476 5.82865C30.479 4.49244 29.4192 3.22534 27.461 1.82001C25.9174 0.645068 24.2357 0 22.8764 0Z" fill="white"/>
<path d="M14.2835 27.5073C14.6397 27.5073 14.9286 27.2184 14.9286 26.8623C14.9286 26.5061 14.6397 26.2172 14.2835 26.2172C13.9274 26.2172 13.6385 26.5061 13.6385 26.8623C13.6385 27.2184 13.9274 27.5073 14.2835 27.5073Z" fill="white" fill-opacity="0.2"/>
<path d="M13.9148 27.2773C13.6614 27.0239 13.6614 26.6092 13.9148 26.3558C13.9609 26.3097 14.007 26.2867 14.053 26.2406C13.9609 26.2637 13.8918 26.3097 13.8227 26.3789C13.5692 26.6323 13.5692 27.047 13.8227 27.3004C14.03 27.5077 14.3525 27.5538 14.606 27.4156C14.3756 27.5077 14.0991 27.4617 13.9148 27.2773Z" fill="url(#paint9_linear_1847_6152)"/>
<path d="M14.5137 26.6783C14.5899 26.6783 14.6519 26.6163 14.6519 26.5401C14.6519 26.4638 14.5899 26.4018 14.5137 26.4018C14.4374 26.4018 14.3754 26.4638 14.3754 26.5401C14.3754 26.6163 14.4374 26.6783 14.5137 26.6783Z" fill="white" fill-opacity="0.3"/>
<path d="M17.6474 27.1848C18.0036 27.1848 18.2925 26.8959 18.2925 26.5397C18.2925 26.1836 18.0036 25.8947 17.6474 25.8947C17.2913 25.8947 17.0024 26.1836 17.0024 26.5397C17.0024 26.8959 17.2913 27.1848 17.6474 27.1848Z" fill="white" fill-opacity="0.2"/>
<path d="M17.2787 26.9548C17.0253 26.7014 17.0253 26.2867 17.2787 26.0333C17.3248 25.9872 17.3709 25.9642 17.417 25.9181C17.3248 25.9411 17.2557 25.9872 17.1866 26.0563C16.9332 26.3097 16.9332 26.7244 17.1866 26.9778C17.3939 27.1852 17.7165 27.2313 17.9699 27.093C17.7395 27.1852 17.463 27.1391 17.2787 26.9548Z" fill="url(#paint10_linear_1847_6152)"/>
<path d="M17.8774 26.3558C17.9537 26.3558 18.0156 26.2938 18.0156 26.2176C18.0156 26.1413 17.9537 26.0793 17.8774 26.0793C17.8011 26.0793 17.7392 26.1413 17.7392 26.2176C17.7392 26.2938 17.8011 26.3558 17.8774 26.3558Z" fill="white" fill-opacity="0.3"/>
<path d="M15.9892 28.683C16.2565 28.683 16.473 28.4664 16.473 28.1992C16.473 27.9319 16.2565 27.7154 15.9892 27.7154C15.722 27.7154 15.5054 27.9319 15.5054 28.1992C15.5054 28.4664 15.722 28.683 15.9892 28.683Z" fill="white" fill-opacity="0.2"/>
<path d="M15.7128 28.498C15.5285 28.3137 15.5285 27.9912 15.7128 27.8069C15.7358 27.7838 15.7819 27.7608 15.8049 27.7378C15.7358 27.7608 15.6897 27.8069 15.6437 27.853C15.4594 28.0373 15.4594 28.3598 15.6437 28.5441C15.8049 28.7054 16.0353 28.7284 16.2427 28.6132C16.0583 28.6823 15.851 28.6363 15.7128 28.498Z" fill="url(#paint11_linear_1847_6152)"/>
<path d="M16.1503 28.0373C16.2012 28.0373 16.2425 27.9961 16.2425 27.9452C16.2425 27.8942 16.2012 27.853 16.1503 27.853C16.0994 27.853 16.0582 27.8942 16.0582 27.9452C16.0582 27.9961 16.0994 28.0373 16.1503 28.0373Z" fill="white" fill-opacity="0.3"/>
<path d="M18.9599 28.337C19.2272 28.337 19.4437 28.1204 19.4437 27.8532C19.4437 27.5859 19.2272 27.3694 18.9599 27.3694C18.6927 27.3694 18.4761 27.5859 18.4761 27.8532C18.4761 28.1204 18.6927 28.337 18.9599 28.337Z" fill="white" fill-opacity="0.2"/>
<path d="M18.6835 28.153C18.4992 27.9687 18.4992 27.6462 18.6835 27.4619C18.7065 27.4389 18.7526 27.4158 18.7756 27.3928C18.7065 27.4158 18.6604 27.4619 18.6144 27.508C18.4301 27.6923 18.4301 28.0148 18.6144 28.1991C18.7756 28.3604 19.006 28.3834 19.2134 28.2682C19.0291 28.3374 18.8217 28.2913 18.6835 28.153Z" fill="url(#paint12_linear_1847_6152)"/>
<path d="M19.1212 27.6914C19.1721 27.6914 19.2134 27.6502 19.2134 27.5993C19.2134 27.5484 19.1721 27.5071 19.1212 27.5071C19.0703 27.5071 19.0291 27.5484 19.0291 27.5993C19.0291 27.6502 19.0703 27.6914 19.1212 27.6914Z" fill="white" fill-opacity="0.3"/>
<path d="M11.542 27.2772C12.1274 27.2772 12.6017 26.8028 12.6017 26.2174C12.6017 25.6323 12.1274 25.1577 11.542 25.1577C10.9568 25.1577 10.4822 25.6323 10.4822 26.2174C10.4822 26.8028 10.9568 27.2772 11.542 27.2772Z" fill="white" fill-opacity="0.2"/>
<path d="M10.9432 26.8858C10.5285 26.4711 10.5285 25.803 10.9432 25.3883C11.0123 25.3192 11.0814 25.2732 11.1736 25.2271C11.0353 25.2732 10.9201 25.3653 10.8049 25.4575C10.3903 25.8721 10.3903 26.5403 10.8049 26.9549C11.1505 27.3005 11.6804 27.3696 12.0951 27.1162C11.7034 27.2775 11.2427 27.2084 10.9432 26.8858Z" fill="url(#paint13_linear_1847_6152)"/>
<path d="M11.9105 25.895C12.0377 25.895 12.1409 25.7918 12.1409 25.6646C12.1409 25.5375 12.0377 25.4343 11.9105 25.4343C11.7833 25.4343 11.6801 25.5375 11.6801 25.6646C11.6801 25.7918 11.7833 25.895 11.9105 25.895Z" fill="white" fill-opacity="0.3"/>
<path d="M21.0116 24.6737C21.597 24.6737 22.0714 24.1994 22.0714 23.614C22.0714 23.0288 21.597 22.5542 21.0116 22.5542C20.4264 22.5542 19.9518 23.0288 19.9518 23.614C19.9518 24.1994 20.4264 24.6737 21.0116 24.6737Z" fill="white" fill-opacity="0.2"/>
<path d="M20.3894 24.2824C19.9747 23.8677 19.9747 23.1996 20.3894 22.7849C20.4585 22.7158 20.5276 22.6697 20.6198 22.6236C20.4815 22.6697 20.3663 22.7619 20.2511 22.854C19.8365 23.2687 19.8365 23.9368 20.2511 24.3515C20.5967 24.6971 21.1266 24.7662 21.5413 24.5128C21.1496 24.674 20.7119 24.6049 20.3894 24.2824Z" fill="url(#paint14_linear_1847_6152)"/>
<path d="M21.3806 23.2916C21.5077 23.2916 21.6109 23.1884 21.6109 23.0612C21.6109 22.9341 21.5077 22.8308 21.3806 22.8308C21.2534 22.8308 21.1502 22.9341 21.1502 23.0612C21.1502 23.1884 21.2534 23.2916 21.3806 23.2916Z" fill="white" fill-opacity="0.3"/>
<defs>
<radialGradient id="paint0_radial_1847_6152" cx="0" cy="0" r="1" gradientUnits="userSpaceOnUse" gradientTransform="translate(29.3911 4.63072) scale(10.2968 10.2968)">
<stop stop-color="#FFEAFF" stop-opacity="0.6"/>
<stop offset="0.68" stop-color="#A087C9"/>
<stop offset="1" stop-color="#10002F"/>
</radialGradient>
<radialGradient id="paint1_radial_1847_6152" cx="0" cy="0" r="1" gradientUnits="userSpaceOnUse" gradientTransform="translate(23.6623 9.02184) scale(25.1925)">
<stop stop-color="#FFEAFF" stop-opacity="0.6"/>
<stop offset="0.68" stop-color="#A087C9"/>
<stop offset="1" stop-color="#10002F"/>
</radialGradient>
<linearGradient id="paint2_linear_1847_6152" x1="13.0699" y1="30.5961" x2="17.1891" y2="5.18336" gradientUnits="userSpaceOnUse">
<stop stop-color="#81FFFF" stop-opacity="0.6"/>
<stop offset="0.62" stop-color="white" stop-opacity="0"/>
<stop offset="1" stop-color="white" stop-opacity="0"/>
</linearGradient>
<linearGradient id="paint3_linear_1847_6152" x1="24.2125" y1="9.15442" x2="13.5634" y2="18.9253" gradientUnits="userSpaceOnUse">
<stop stop-color="white" stop-opacity="0.6"/>
<stop offset="0.29" stop-color="white" stop-opacity="0.6"/>
<stop offset="0.78" stop-color="white" stop-opacity="0"/>
<stop offset="1" stop-color="white" stop-opacity="0"/>
</linearGradient>
<linearGradient id="paint4_linear_1847_6152" x1="2.89102" y1="23.8948" x2="27.3642" y2="23.8948" gradientUnits="userSpaceOnUse">
<stop stop-color="#0002E9"/>
<stop offset="1" stop-color="#FF00C7"/>
</linearGradient>
<linearGradient id="paint5_linear_1847_6152" x1="28.5227" y1="18.8587" x2="15.2019" y2="31.4476" gradientUnits="userSpaceOnUse">
<stop stop-color="white" stop-opacity="0.6"/>
<stop offset="0.29" stop-color="white" stop-opacity="0.6"/>
<stop offset="0.78" stop-color="white" stop-opacity="0"/>
<stop offset="1" stop-color="white" stop-opacity="0"/>
</linearGradient>
<linearGradient id="paint6_linear_1847_6152" x1="2.89102" y1="23.8948" x2="15.9841" y2="23.8948" gradientUnits="userSpaceOnUse">
<stop stop-color="#000292" stop-opacity="0.7"/>
<stop offset="1" stop-color="#7D00C7" stop-opacity="0.7"/>
</linearGradient>
<linearGradient id="paint7_linear_1847_6152" x1="2.90744" y1="18.9169" x2="27.3479" y2="18.9169" gradientUnits="userSpaceOnUse">
<stop stop-color="#000292"/>
<stop offset="1" stop-color="#BE00C7"/>
</linearGradient>
<linearGradient id="paint8_linear_1847_6152" x1="26.9472" y1="5.80874" x2="25.1908" y2="8.66317" gradientUnits="userSpaceOnUse">
<stop stop-color="white" stop-opacity="0.6"/>
<stop offset="0.29" stop-color="white" stop-opacity="0.6"/>
<stop offset="0.78" stop-color="white" stop-opacity="0"/>
<stop offset="1" stop-color="white" stop-opacity="0"/>
</linearGradient>
<linearGradient id="paint9_linear_1847_6152" x1="13.632" y1="26.8825" x2="14.6067" y2="26.8825" gradientUnits="userSpaceOnUse">
<stop stop-color="white" stop-opacity="0.6"/>
<stop offset="0.29" stop-color="white" stop-opacity="0.6"/>
<stop offset="0.78" stop-color="white" stop-opacity="0"/>
<stop offset="1" stop-color="white" stop-opacity="0"/>
</linearGradient>
<linearGradient id="paint10_linear_1847_6152" x1="16.9935" y1="26.5556" x2="17.9682" y2="26.5556" gradientUnits="userSpaceOnUse">
<stop stop-color="white" stop-opacity="0.6"/>
<stop offset="0.29" stop-color="white" stop-opacity="0.6"/>
<stop offset="0.78" stop-color="white" stop-opacity="0"/>
<stop offset="1" stop-color="white" stop-opacity="0"/>
</linearGradient>
<linearGradient id="paint11_linear_1847_6152" x1="15.5024" y1="28.2041" x2="16.2342" y2="28.2041" gradientUnits="userSpaceOnUse">
<stop stop-color="white" stop-opacity="0.6"/>
<stop offset="0.29" stop-color="white" stop-opacity="0.6"/>
<stop offset="0.78" stop-color="white" stop-opacity="0"/>
<stop offset="1" stop-color="white" stop-opacity="0"/>
</linearGradient>
<linearGradient id="paint12_linear_1847_6152" x1="18.4632" y1="27.8582" x2="19.1949" y2="27.8582" gradientUnits="userSpaceOnUse">
<stop stop-color="white" stop-opacity="0.6"/>
<stop offset="0.29" stop-color="white" stop-opacity="0.6"/>
<stop offset="0.78" stop-color="white" stop-opacity="0"/>
<stop offset="1" stop-color="white" stop-opacity="0"/>
</linearGradient>
<linearGradient id="paint13_linear_1847_6152" x1="10.4834" y1="26.2447" x2="12.0752" y2="26.2447" gradientUnits="userSpaceOnUse">
<stop stop-color="white" stop-opacity="0.6"/>
<stop offset="0.29" stop-color="white" stop-opacity="0.6"/>
<stop offset="0.78" stop-color="white" stop-opacity="0"/>
<stop offset="1" stop-color="white" stop-opacity="0"/>
</linearGradient>
<linearGradient id="paint14_linear_1847_6152" x1="19.9384" y1="23.6405" x2="21.5302" y2="23.6405" gradientUnits="userSpaceOnUse">
<stop stop-color="white" stop-opacity="0.6"/>
<stop offset="0.29" stop-color="white" stop-opacity="0.6"/>
<stop offset="0.78" stop-color="white" stop-opacity="0"/>
<stop offset="1" stop-color="white" stop-opacity="0"/>
</linearGradient>
</defs>
</svg>
