<svg width="24" height="24" viewBox="0 0 24 24" fill="none" xmlns="http://www.w3.org/2000/svg">
<g clip-path="url(#clip0_2066_7433)">
<rect width="24" height="24" rx="4" fill="#5E12A0"/>
<path d="M20.1321 6.31767C19.9507 5.63084 19.3675 4.94402 18.3179 4.17944C17.4755 3.57037 16.5814 3.22047 15.8686 3.22047C15.7261 3.22047 15.5965 3.23343 15.4669 3.25935C15.1429 3.32415 14.8578 3.55741 14.6764 3.9073C14.4561 4.32199 14.4043 4.87922 14.5468 5.21615C14.5987 5.31983 14.6634 5.44942 14.7412 5.56605C14.0544 5.98073 13.6656 6.09736 13.6138 6.11032C15.4021 6.70644 16.8924 7.9505 17.8254 9.57037L17.8384 9.41486C17.8773 8.98721 18.0069 8.49477 18.1883 7.98937C18.3697 8.04121 18.5511 8.06713 18.7326 8.06713C19.212 8.06713 19.6267 7.87274 19.8859 7.52285C20.1451 7.17296 20.2488 6.70644 20.1321 6.31767Z" fill="#5E12A0"/>
<path d="M18.2656 7.61343C19.4449 7.93741 19.9244 7.03028 19.7689 6.42121C19.6004 5.81214 19.0561 5.19011 18.0971 4.49032C17.1382 3.79054 16.1663 3.50544 15.5442 3.63503C14.9222 3.76462 14.7408 4.71063 14.8963 5.07348C14.9611 5.21603 15.1036 5.42337 15.298 5.65663C15.0518 5.8251 14.8185 5.95469 14.6241 6.07132C15.8164 6.60263 16.8531 7.43201 17.6306 8.46873C17.7213 8.11883 17.8509 7.80782 17.9676 7.53568C18.0583 7.54864 18.1619 7.57456 18.2656 7.61343Z" fill="url(#paint0_radial_2066_7433)"/>
<path d="M11.5138 20.3131C15.5147 20.3131 18.7579 17.0698 18.7579 13.069C18.7579 9.06818 15.5147 5.82494 11.5138 5.82494C7.51302 5.82494 4.26978 9.06818 4.26978 13.069C4.26978 17.0698 7.51302 20.3131 11.5138 20.3131Z" fill="url(#paint1_radial_2066_7433)"/>
<path d="M19.1732 5.82526C18.1883 4.78855 17.3589 4.51641 16.3611 4.2961C15.5836 4.11468 15.7909 3.67407 16.7369 3.76479C16.2833 3.60928 15.8557 3.5704 15.5447 3.6352C14.9227 3.76479 14.7412 4.71079 14.8967 5.07364C14.9615 5.21619 15.1041 5.42353 15.2985 5.6568C14.9486 5.89006 14.6505 6.05852 14.4043 6.18811C14.5209 6.23995 14.6635 6.30474 14.8319 6.39546C15.2725 6.62872 15.752 7.01749 15.752 7.01749C15.0263 6.39546 15.1818 6.11036 16.1797 5.41058C16.4907 5.19027 17.0609 5.21619 17.5922 5.48833C18.1235 5.76047 18.7456 6.44729 18.7456 6.44729L18.1494 7.58768C18.1883 7.60064 18.2272 7.6136 18.2661 7.62656C18.6419 7.73023 18.9399 7.70431 19.1732 7.6136C19.4453 7.44513 20.1581 6.87494 19.1732 5.82526Z" fill="#A98698" fill-opacity="0.6"/>
<path d="M16.3477 4.91809C16.6069 5.02176 16.9438 5.20318 17.3585 5.47532C17.851 5.79929 18.2786 6.16215 18.5507 6.44724C18.0972 7.04335 17.7991 7.85977 17.6177 8.42996C17.7084 8.55955 17.8121 8.68914 17.9028 8.81873C17.9935 8.49476 18.149 8.01528 18.3564 7.5358C18.4082 7.54875 18.473 7.54875 18.5378 7.54875C18.6933 7.54875 18.8747 7.52284 19.0173 7.40621C19.1209 7.32845 19.2376 7.1859 19.2246 6.92672C19.2246 6.6805 19.0302 6.36949 18.6285 5.99368C18.3434 5.72154 17.9546 5.42348 17.5659 5.15135C16.4514 4.41269 15.6739 4.20534 15.324 4.55523C15.0907 4.7885 15.1166 5.07359 15.1944 5.28094C14.7797 5.55307 14.4298 5.74746 14.1965 5.87705C14.352 5.92888 14.4946 5.99368 14.6501 6.05847C15.0648 5.83817 15.6609 5.46236 16.3477 4.91809ZM18.797 6.77122C18.8358 6.83601 18.8488 6.90081 18.8488 6.93968C18.8488 7.05631 18.8099 7.09519 18.784 7.12111C18.7322 7.15999 18.6285 7.1859 18.5378 7.1859C18.6155 7.0304 18.7063 6.90081 18.797 6.77122ZM15.5961 4.84033C15.635 4.80145 15.7386 4.77554 15.9071 4.80145C15.7775 4.90513 15.6479 4.99584 15.5183 5.08655C15.5054 4.99584 15.5183 4.90513 15.5961 4.84033Z" fill="#5E12A0"/>
<path d="M11.5139 5.39731C7.27629 5.39731 3.84216 8.83143 3.84216 13.069C3.84216 17.3066 7.27629 20.7407 11.5139 20.7407C15.7515 20.7407 19.1856 17.3066 19.1856 13.069C19.1856 8.83143 15.7385 5.39731 11.5139 5.39731ZM11.5139 20.3131C7.50955 20.3131 4.26981 17.0733 4.26981 13.069C4.26981 9.06469 7.50955 5.82495 11.5139 5.82495C15.5182 5.82495 18.7579 9.06469 18.7579 13.069C18.7579 17.0733 15.5052 20.3131 11.5139 20.3131Z" fill="#5E12A0"/>
<path d="M11.5138 20.3131C15.5147 20.3131 18.7579 17.0698 18.7579 13.069C18.7579 9.06818 15.5147 5.82494 11.5138 5.82494C7.51302 5.82494 4.26978 9.06818 4.26978 13.069C4.26978 17.0698 7.51302 20.3131 11.5138 20.3131Z" fill="url(#paint2_linear_2066_7433)"/>
<path d="M11.4621 19.4321C7.50965 18.7971 4.82715 15.0779 5.4751 11.1254C5.76019 9.37593 6.6414 7.88565 7.88546 6.81006C6.07121 7.85973 4.72348 9.68695 4.36063 11.9159C3.72564 15.8684 6.40814 19.5876 10.3477 20.2226C12.5507 20.5854 14.676 19.8986 16.244 18.5509C14.8574 19.3543 13.1727 19.7042 11.4621 19.4321Z" fill="#A98698" fill-opacity="0.6"/>
<path d="M12.6677 5.92864C10.8405 5.63059 9.06512 6.04528 7.61372 6.96536C7.5878 6.99128 7.56188 7.0172 7.56188 7.0172C8.11912 6.68026 8.93553 6.38221 8.93553 6.38221C6.83618 7.60035 6.18823 8.98696 6.18823 8.98696C7.00465 7.40597 9.40206 6.2915 11.2811 6.21374C13.1602 6.13599 14.3913 6.69322 15.8945 7.89841C17.3977 9.11655 18.3049 11.6047 18.2142 13.5744C18.1364 15.5442 17.0997 17.1381 17.0997 17.1381C17.8124 16.2181 18.2401 15.5442 18.5122 14.8574C18.564 14.65 18.6159 14.4427 18.6418 14.2224C19.2897 10.2829 16.6202 6.56363 12.6677 5.92864Z" fill="url(#paint3_linear_2066_7433)"/>
<path d="M18.3957 13.0042C18.3957 16.8012 15.3115 19.8854 11.5145 19.8854C7.71755 19.8854 4.62036 16.8012 4.62036 13.0042H18.3957Z" fill="url(#paint4_linear_2066_7433)"/>
<path d="M17.8514 13.0042C17.8514 16.7105 14.9227 19.7429 11.2423 19.8854H11.5144C15.3114 19.8854 18.3957 16.8012 18.3957 13.0042H17.8514Z" fill="url(#paint5_linear_2066_7433)"/>
<path d="M5.59228 13.0042H4.62036C4.62036 16.8012 7.7046 19.8854 11.5016 19.8854C11.67 19.8854 11.8255 19.8854 11.9811 19.8725C8.41734 19.6133 5.59228 16.6327 5.59228 13.0042Z" fill="url(#paint6_linear_2066_7433)"/>
<path d="M18.3828 13.0691C18.3828 12.2786 17.0091 11.825 15.1819 11.6695C13.8601 11.5658 12.5253 11.6954 10.9962 12.1619C9.67436 12.5507 8.48213 12.4859 7.61388 12.3822C5.683 12.1619 4.62036 12.136 4.62036 13.0691C4.62036 14.4168 7.36766 16.1015 11.4886 15.5183C13.575 15.2203 14.6506 14.6112 15.8817 14.1965C17.2165 13.7559 18.3828 13.7688 18.3828 13.0691Z" fill="url(#paint7_linear_2066_7433)"/>
<path d="M13.7686 9.80341C14.4128 9.80341 14.9349 9.28129 14.9349 8.6371C14.9349 7.99291 14.4128 7.47079 13.7686 7.47079C13.1244 7.47079 12.6023 7.99291 12.6023 8.6371C12.6023 9.28129 13.1244 9.80341 13.7686 9.80341Z" fill="white"/>
<path d="M15.6738 10.6715C15.9458 10.6715 16.1663 10.4511 16.1663 10.1791C16.1663 9.90708 15.9458 9.68665 15.6738 9.68665C15.4018 9.68665 15.1814 9.90708 15.1814 10.1791C15.1814 10.4511 15.4018 10.6715 15.6738 10.6715Z" fill="white"/>
<path d="M17.437 7.70417H17.4111C17.3333 7.69121 17.2815 7.61346 17.2945 7.52274C17.4111 6.92663 17.9035 6.35644 17.9295 6.33052C17.9813 6.26572 18.085 6.26572 18.1368 6.31756C18.2016 6.36939 18.2016 6.47307 18.1498 6.5249C18.1368 6.53786 17.6832 7.06918 17.5796 7.58754C17.5666 7.66529 17.5018 7.70417 17.437 7.70417Z" fill="url(#paint8_linear_2066_7433)"/>
<path d="M15.868 3.2203C16.5937 3.2203 17.4878 3.57019 18.3172 4.17927C19.3669 4.94384 19.95 5.61771 20.1315 6.31749C20.2351 6.71922 20.1444 7.17279 19.8852 7.50972C19.6131 7.85961 19.2114 8.054 18.7319 8.054C18.5634 8.054 18.382 8.02808 18.1876 7.97624C18.071 8.2743 17.9803 8.57235 17.9155 8.85745C18.706 10.0626 19.1725 11.514 19.1725 13.0691C19.1725 17.3067 15.7384 20.7408 11.5008 20.7408C7.26321 20.7408 3.84205 17.3067 3.84205 13.0691C3.84205 8.83153 7.27617 5.39741 11.5138 5.39741C12.4468 5.39741 13.341 5.56587 14.1703 5.87689C14.3258 5.79914 14.5202 5.69546 14.7405 5.56587C14.6628 5.44924 14.585 5.33261 14.5462 5.21598C14.4036 4.86609 14.4554 4.32181 14.6757 3.90713C14.8572 3.57019 15.1293 3.33693 15.4662 3.25918C15.5829 3.23326 15.7254 3.2203 15.868 3.2203ZM15.868 3C15.7125 3 15.5569 3.01296 15.4144 3.05184C15.0256 3.14255 14.6887 3.40173 14.4684 3.81641C14.2222 4.2959 14.1574 4.91793 14.3258 5.31965C14.3518 5.37149 14.3777 5.43629 14.4166 5.50108C14.3258 5.55292 14.2351 5.60475 14.1444 5.64363C13.2891 5.34557 12.4079 5.19006 11.5008 5.19006C10.4382 5.19006 9.40144 5.39741 8.42952 5.8121C7.48351 6.21382 6.64118 6.78402 5.91548 7.50972C5.18978 8.23542 4.61958 9.07775 4.21786 10.0238C3.80317 10.9957 3.59583 12.0324 3.59583 13.095C3.59583 14.1577 3.80317 15.1944 4.21786 16.1663C4.61958 17.1123 5.18978 17.9546 5.91548 18.6803C6.64118 19.406 7.48351 19.9762 8.42952 20.378C9.40144 20.7927 10.4382 21 11.5008 21C12.5634 21 13.6001 20.7927 14.5721 20.378C15.5181 19.9762 16.3604 19.406 17.0861 18.6803C17.8118 17.9546 18.382 17.1123 18.7837 16.1663C19.1984 15.1944 19.4058 14.1577 19.4058 13.095C19.4058 11.5788 18.9781 10.1145 18.1617 8.84449C18.2006 8.65011 18.2654 8.45572 18.3302 8.26134C18.4598 8.28726 18.6023 8.30022 18.7319 8.30022C19.2762 8.30022 19.7557 8.07991 20.0667 7.66523C20.3647 7.27646 20.4814 6.73218 20.3518 6.27862C20.1444 5.527 19.5483 4.81425 18.4468 4.02376C17.5785 3.36285 16.6325 3 15.868 3Z" fill="white"/>
<path d="M11.0345 18.4729C11.2348 18.4729 11.3973 18.3104 11.3973 18.11C11.3973 17.9097 11.2348 17.7472 11.0345 17.7472C10.8341 17.7472 10.6716 17.9097 10.6716 18.11C10.6716 18.3104 10.8341 18.4729 11.0345 18.4729Z" fill="white" fill-opacity="0.2"/>
<path d="M10.8271 18.3435C10.6845 18.201 10.6845 17.9677 10.8271 17.8252C10.853 17.7992 10.8789 17.7863 10.9048 17.7604C10.853 17.7733 10.8141 17.7992 10.7752 17.8381C10.6327 17.9807 10.6327 18.2139 10.7752 18.3565C10.8919 18.4731 11.0733 18.499 11.2159 18.4213C11.0863 18.4731 10.9308 18.4472 10.8271 18.3435Z" fill="url(#paint9_linear_2066_7433)"/>
<path d="M11.1639 18.0065C11.2068 18.0065 11.2417 17.9717 11.2417 17.9288C11.2417 17.8859 11.2068 17.851 11.1639 17.851C11.121 17.851 11.0862 17.8859 11.0862 17.9288C11.0862 17.9717 11.121 18.0065 11.1639 18.0065Z" fill="white" fill-opacity="0.3"/>
<path d="M12.9267 18.2914C13.127 18.2914 13.2895 18.1289 13.2895 17.9286C13.2895 17.7282 13.127 17.5657 12.9267 17.5657C12.7263 17.5657 12.5638 17.7282 12.5638 17.9286C12.5638 18.1289 12.7263 18.2914 12.9267 18.2914Z" fill="white" fill-opacity="0.2"/>
<path d="M12.7193 18.1621C12.5767 18.0195 12.5767 17.7863 12.7193 17.6437C12.7452 17.6178 12.7711 17.6048 12.797 17.5789C12.7452 17.5919 12.7063 17.6178 12.6675 17.6567C12.5249 17.7992 12.5249 18.0325 12.6675 18.175C12.7841 18.2917 12.9655 18.3176 13.1081 18.2398C12.9785 18.2917 12.823 18.2657 12.7193 18.1621Z" fill="url(#paint10_linear_2066_7433)"/>
<path d="M13.056 17.8252C13.0989 17.8252 13.1338 17.7903 13.1338 17.7474C13.1338 17.7045 13.0989 17.6696 13.056 17.6696C13.0131 17.6696 12.9783 17.7045 12.9783 17.7474C12.9783 17.7903 13.0131 17.8252 13.056 17.8252Z" fill="white" fill-opacity="0.3"/>
<path d="M11.9939 19.1342C12.1443 19.1342 12.2661 19.0124 12.2661 18.862C12.2661 18.7117 12.1443 18.5899 11.9939 18.5899C11.8436 18.5899 11.7218 18.7117 11.7218 18.862C11.7218 19.0124 11.8436 19.1342 11.9939 19.1342Z" fill="white" fill-opacity="0.2"/>
<path d="M11.8384 19.0301C11.7348 18.9265 11.7348 18.745 11.8384 18.6414C11.8514 18.6284 11.8773 18.6155 11.8903 18.6025C11.8514 18.6155 11.8255 18.6414 11.7996 18.6673C11.6959 18.771 11.6959 18.9524 11.7996 19.0561C11.8903 19.1468 12.0199 19.1597 12.1365 19.0949C12.0328 19.1338 11.9162 19.1079 11.8384 19.0301Z" fill="url(#paint11_linear_2066_7433)"/>
<path d="M12.0846 18.771C12.1132 18.771 12.1364 18.7478 12.1364 18.7191C12.1364 18.6905 12.1132 18.6673 12.0846 18.6673C12.0559 18.6673 12.0327 18.6905 12.0327 18.7191C12.0327 18.7478 12.0559 18.771 12.0846 18.771Z" fill="white" fill-opacity="0.3"/>
<path d="M13.665 18.9395C13.8153 18.9395 13.9371 18.8177 13.9371 18.6674C13.9371 18.5171 13.8153 18.3953 13.665 18.3953C13.5146 18.3953 13.3928 18.5171 13.3928 18.6674C13.3928 18.8177 13.5146 18.9395 13.665 18.9395Z" fill="white" fill-opacity="0.2"/>
<path d="M13.5095 18.8361C13.4058 18.7324 13.4058 18.551 13.5095 18.4473C13.5224 18.4344 13.5483 18.4214 13.5613 18.4084C13.5224 18.4214 13.4965 18.4473 13.4706 18.4732C13.3669 18.5769 13.3669 18.7583 13.4706 18.862C13.5613 18.9527 13.6909 18.9657 13.8075 18.9009C13.7038 18.9398 13.5872 18.9138 13.5095 18.8361Z" fill="url(#paint12_linear_2066_7433)"/>
<path d="M13.7557 18.5765C13.7843 18.5765 13.8075 18.5533 13.8075 18.5246C13.8075 18.496 13.7843 18.4728 13.7557 18.4728C13.7271 18.4728 13.7039 18.496 13.7039 18.5246C13.7039 18.5533 13.7271 18.5765 13.7557 18.5765Z" fill="white" fill-opacity="0.3"/>
<path d="M9.49235 18.3434C9.82164 18.3434 10.0885 18.0766 10.0885 17.7473C10.0885 17.4182 9.82164 17.1512 9.49235 17.1512C9.16319 17.1512 8.89624 17.4182 8.89624 17.7473C8.89624 18.0766 9.16319 18.3434 9.49235 18.3434Z" fill="white" fill-opacity="0.2"/>
<path d="M9.15553 18.1233C8.92227 17.89 8.92227 17.5142 9.15553 17.2809C9.19441 17.2421 9.23329 17.2161 9.28512 17.1902C9.20737 17.2161 9.14257 17.268 9.07778 17.3198C8.84452 17.5531 8.84452 17.9289 9.07778 18.1622C9.27216 18.3565 9.57022 18.3954 9.80348 18.2529C9.58318 18.3436 9.324 18.3047 9.15553 18.1233Z" fill="url(#paint13_linear_2066_7433)"/>
<path d="M9.69966 17.5659C9.77119 17.5659 9.82925 17.5079 9.82925 17.4364C9.82925 17.3648 9.77119 17.3068 9.69966 17.3068C9.62812 17.3068 9.57007 17.3648 9.57007 17.4364C9.57007 17.5079 9.62812 17.5659 9.69966 17.5659Z" fill="white" fill-opacity="0.3"/>
<path d="M14.819 16.879C15.1483 16.879 15.4151 16.6122 15.4151 16.2829C15.4151 15.9537 15.1483 15.6868 14.819 15.6868C14.4899 15.6868 14.2229 15.9537 14.2229 16.2829C14.2229 16.6122 14.4899 16.879 14.819 16.879Z" fill="white" fill-opacity="0.2"/>
<path d="M14.469 16.6588C14.2357 16.4256 14.2357 16.0498 14.469 15.8165C14.5079 15.7776 14.5468 15.7517 14.5986 15.7258C14.5208 15.7517 14.456 15.8035 14.3913 15.8554C14.158 16.0886 14.158 16.4644 14.3913 16.6977C14.5856 16.8921 14.8837 16.931 15.117 16.7884C14.8967 16.8791 14.6504 16.8403 14.469 16.6588Z" fill="url(#paint14_linear_2066_7433)"/>
<path d="M15.0266 16.1015C15.0981 16.1015 15.1562 16.0435 15.1562 15.9719C15.1562 15.9004 15.0981 15.8423 15.0266 15.8423C14.955 15.8423 14.897 15.9004 14.897 15.9719C14.897 16.0435 14.955 16.1015 15.0266 16.1015Z" fill="white" fill-opacity="0.3"/>
</g>
<defs>
<radialGradient id="paint0_radial_2066_7433" cx="0" cy="0" r="1" gradientUnits="userSpaceOnUse" gradientTransform="translate(19.5325 5.60478) scale(5.79193 5.79193)">
<stop stop-color="#FFEAFF" stop-opacity="0.6"/>
<stop offset="0.68" stop-color="#A087C9"/>
<stop offset="1" stop-color="#10002F"/>
</radialGradient>
<radialGradient id="paint1_radial_2066_7433" cx="0" cy="0" r="1" gradientUnits="userSpaceOnUse" gradientTransform="translate(16.31 8.07479) scale(14.1708)">
<stop stop-color="#FFEAFF" stop-opacity="0.6"/>
<stop offset="0.68" stop-color="#A087C9"/>
<stop offset="1" stop-color="#10002F"/>
</radialGradient>
<linearGradient id="paint2_linear_2066_7433" x1="10.3518" y1="20.2103" x2="12.6689" y2="5.91565" gradientUnits="userSpaceOnUse">
<stop stop-color="#81FFFF" stop-opacity="0.6"/>
<stop offset="0.62" stop-color="white" stop-opacity="0"/>
<stop offset="1" stop-color="white" stop-opacity="0"/>
</linearGradient>
<linearGradient id="paint3_linear_2066_7433" x1="16.6196" y1="8.14937" x2="10.6294" y2="13.6455" gradientUnits="userSpaceOnUse">
<stop stop-color="white" stop-opacity="0.6"/>
<stop offset="0.29" stop-color="white" stop-opacity="0.6"/>
<stop offset="0.78" stop-color="white" stop-opacity="0"/>
<stop offset="1" stop-color="white" stop-opacity="0"/>
</linearGradient>
<linearGradient id="paint4_linear_2066_7433" x1="4.6262" y1="16.4408" x2="18.3924" y2="16.4408" gradientUnits="userSpaceOnUse">
<stop stop-color="#0002E9"/>
<stop offset="1" stop-color="#FF00C7"/>
</linearGradient>
<linearGradient id="paint5_linear_2066_7433" x1="19.044" y1="13.608" x2="11.5511" y2="20.6893" gradientUnits="userSpaceOnUse">
<stop stop-color="white" stop-opacity="0.6"/>
<stop offset="0.29" stop-color="white" stop-opacity="0.6"/>
<stop offset="0.78" stop-color="white" stop-opacity="0"/>
<stop offset="1" stop-color="white" stop-opacity="0"/>
</linearGradient>
<linearGradient id="paint6_linear_2066_7433" x1="4.6262" y1="16.4408" x2="11.991" y2="16.4408" gradientUnits="userSpaceOnUse">
<stop stop-color="#000292" stop-opacity="0.7"/>
<stop offset="1" stop-color="#7D00C7" stop-opacity="0.7"/>
</linearGradient>
<linearGradient id="paint7_linear_2066_7433" x1="4.63544" y1="13.6407" x2="18.3832" y2="13.6407" gradientUnits="userSpaceOnUse">
<stop stop-color="#000292"/>
<stop offset="1" stop-color="#BE00C7"/>
</linearGradient>
<linearGradient id="paint8_linear_2066_7433" x1="18.1578" y1="6.26741" x2="17.1698" y2="7.87302" gradientUnits="userSpaceOnUse">
<stop stop-color="white" stop-opacity="0.6"/>
<stop offset="0.29" stop-color="white" stop-opacity="0.6"/>
<stop offset="0.78" stop-color="white" stop-opacity="0"/>
<stop offset="1" stop-color="white" stop-opacity="0"/>
</linearGradient>
<linearGradient id="paint9_linear_2066_7433" x1="10.668" y1="18.1214" x2="11.2163" y2="18.1214" gradientUnits="userSpaceOnUse">
<stop stop-color="white" stop-opacity="0.6"/>
<stop offset="0.29" stop-color="white" stop-opacity="0.6"/>
<stop offset="0.78" stop-color="white" stop-opacity="0"/>
<stop offset="1" stop-color="white" stop-opacity="0"/>
</linearGradient>
<linearGradient id="paint10_linear_2066_7433" x1="12.5589" y1="17.9375" x2="13.1071" y2="17.9375" gradientUnits="userSpaceOnUse">
<stop stop-color="white" stop-opacity="0.6"/>
<stop offset="0.29" stop-color="white" stop-opacity="0.6"/>
<stop offset="0.78" stop-color="white" stop-opacity="0"/>
<stop offset="1" stop-color="white" stop-opacity="0"/>
</linearGradient>
<linearGradient id="paint11_linear_2066_7433" x1="11.7201" y1="18.8648" x2="12.1317" y2="18.8648" gradientUnits="userSpaceOnUse">
<stop stop-color="white" stop-opacity="0.6"/>
<stop offset="0.29" stop-color="white" stop-opacity="0.6"/>
<stop offset="0.78" stop-color="white" stop-opacity="0"/>
<stop offset="1" stop-color="white" stop-opacity="0"/>
</linearGradient>
<linearGradient id="paint12_linear_2066_7433" x1="13.3855" y1="18.6702" x2="13.7971" y2="18.6702" gradientUnits="userSpaceOnUse">
<stop stop-color="white" stop-opacity="0.6"/>
<stop offset="0.29" stop-color="white" stop-opacity="0.6"/>
<stop offset="0.78" stop-color="white" stop-opacity="0"/>
<stop offset="1" stop-color="white" stop-opacity="0"/>
</linearGradient>
<linearGradient id="paint13_linear_2066_7433" x1="8.89688" y1="17.7626" x2="9.79227" y2="17.7626" gradientUnits="userSpaceOnUse">
<stop stop-color="white" stop-opacity="0.6"/>
<stop offset="0.29" stop-color="white" stop-opacity="0.6"/>
<stop offset="0.78" stop-color="white" stop-opacity="0"/>
<stop offset="1" stop-color="white" stop-opacity="0"/>
</linearGradient>
<linearGradient id="paint14_linear_2066_7433" x1="14.2153" y1="16.2978" x2="15.1107" y2="16.2978" gradientUnits="userSpaceOnUse">
<stop stop-color="white" stop-opacity="0.6"/>
<stop offset="0.29" stop-color="white" stop-opacity="0.6"/>
<stop offset="0.78" stop-color="white" stop-opacity="0"/>
<stop offset="1" stop-color="white" stop-opacity="0"/>
</linearGradient>
<clipPath id="clip0_2066_7433">
<rect width="24" height="24" fill="white"/>
</clipPath>
</defs>
</svg>
