<svg width="24" height="24" viewBox="0 0 24 24" fill="none" xmlns="http://www.w3.org/2000/svg">
<g clip-path="url(#clip0_2066_7523)">
<rect y="0.0012207" width="24" height="24" rx="4" fill="#25262A"/>
<g clip-path="url(#clip1_2066_7523)">
<path d="M7.72425 13.4175C7.72425 11.6232 7.72739 9.8258 7.72112 8.03149C7.72112 7.88719 7.74621 7.84014 7.90306 7.84014C9.34916 7.84642 10.7953 7.84014 12.2382 7.84641C13.1887 7.84955 14.089 8.03463 14.8795 8.60241C15.6951 9.18587 16.0935 10.0015 16.2001 10.9833C16.2817 11.7424 16.1719 12.4702 15.8111 13.1478C15.3939 13.932 14.7226 14.4182 13.9039 14.7194C13.3612 14.9201 12.7903 14.9829 12.2163 14.9923C11.6799 14.9985 11.1403 15.0017 10.6039 14.9891C10.4502 14.986 10.4314 15.0393 10.4314 15.1711C10.4377 16.3913 10.4314 17.6147 10.4377 18.835C10.4377 18.9604 10.4126 19.0012 10.2777 19.0012C9.47777 18.9949 8.68101 18.9949 7.8811 19.0012C7.75249 19.0012 7.71484 18.9699 7.71484 18.8381C7.72425 17.0312 7.72425 15.2244 7.72425 13.4175ZM10.4377 11.4256C10.4377 11.8522 10.4408 12.282 10.4345 12.7086C10.4345 12.8121 10.4628 12.8372 10.5663 12.8372C11.0462 12.8309 11.5262 12.8372 12.0061 12.8341C12.2257 12.8309 12.4421 12.7996 12.6492 12.7243C13.2138 12.5173 13.4397 12.0781 13.4616 11.5134C13.493 10.6947 13.0915 10.1207 12.1943 10.0517C11.6485 10.0109 11.0995 10.0454 10.5506 10.0297C10.4439 10.0266 10.4345 10.0705 10.4345 10.1583C10.4408 10.5787 10.4377 11.0021 10.4377 11.4256Z" fill="white"/>
<path d="M12.0093 5.00749C13.3832 5.00749 14.7541 5.00749 16.128 5.00436C16.2472 5.00436 16.288 5.03259 16.2849 5.15806C16.2786 5.65996 16.2786 6.15873 16.2849 6.66062C16.2849 6.761 16.2692 6.80492 16.1531 6.80492C13.3864 6.80178 10.6196 6.80178 7.85604 6.80492C7.73683 6.80492 7.72429 6.75787 7.72429 6.65749C7.72742 6.15559 7.73056 5.65683 7.72429 5.15493C7.72115 5.02632 7.76193 5.00122 7.88113 5.00122C9.25509 5.01063 10.6322 5.00749 12.0093 5.00749Z" fill="#ED1F25"/>
</g>
</g>
<defs>
<clipPath id="clip0_2066_7523">
<rect width="24" height="24" fill="white" transform="translate(0 0.0012207)"/>
</clipPath>
<clipPath id="clip1_2066_7523">
<rect width="14" height="14" fill="white" transform="translate(5 5.00122)"/>
</clipPath>
</defs>
</svg>
