<svg width="32" height="32" viewBox="0 0 32 32" fill="none" xmlns="http://www.w3.org/2000/svg">
<path d="M6.22693 19.2373C6.22693 15.136 6.23409 11.0276 6.21975 6.92633C6.21975 6.5965 6.27711 6.48895 6.63562 6.48895C9.941 6.50329 13.2464 6.48895 16.5446 6.50329C18.7171 6.51046 20.7749 6.93349 22.5817 8.23127C24.446 9.5649 25.3565 11.4291 25.6003 13.6733C25.7867 15.4085 25.5358 17.0719 24.7112 18.6207C23.7576 20.4132 22.2232 21.5245 20.3519 22.2129C19.1115 22.6718 17.8065 22.8152 16.4944 22.8367C15.2683 22.851 14.0351 22.8582 12.809 22.8295C12.4577 22.8223 12.4147 22.9442 12.4147 23.2454C12.429 26.0345 12.4147 28.8308 12.429 31.62C12.429 31.9068 12.3716 32 12.0633 32C10.235 31.9857 8.41378 31.9857 6.58543 32C6.29146 32 6.20541 31.9283 6.20541 31.6271C6.22692 27.4972 6.22693 23.3672 6.22693 19.2373ZM12.429 14.6843C12.429 15.6594 12.4362 16.6417 12.4218 17.6169C12.4218 17.8535 12.4864 17.9108 12.723 17.9108C13.82 17.8965 14.917 17.9108 16.014 17.9037C16.5159 17.8965 17.0106 17.8248 17.4839 17.6527C18.7745 17.1795 19.2907 16.1757 19.3409 14.8851C19.4126 13.0137 18.4948 11.7016 16.4442 11.5438C15.1966 11.4506 13.9419 11.5295 12.6871 11.4936C12.4433 11.4865 12.4218 11.5869 12.4218 11.7876C12.4362 12.7484 12.429 13.7164 12.429 14.6843Z" fill="#25262A"/>
<path d="M16.0214 0.0143398C19.1619 0.0143398 22.2952 0.0143393 25.4357 0.00716933C25.7081 0.00716933 25.8013 0.0716999 25.7942 0.358499C25.7798 1.5057 25.7798 2.64572 25.7942 3.79292C25.7942 4.02236 25.7583 4.12274 25.493 4.12274C19.169 4.11557 12.845 4.11557 6.52824 4.12274C6.25577 4.12274 6.2271 4.01519 6.2271 3.78575C6.23427 2.63855 6.24144 1.49853 6.2271 0.351329C6.21993 0.0573595 6.31314 0 6.5856 0C9.72608 0.02151 12.8737 0.0143398 16.0214 0.0143398Z" fill="#ED1F25"/>
</svg>
