<svg width="24" height="24" viewBox="0 0 24 24" fill="none" xmlns="http://www.w3.org/2000/svg">
<path d="M5.88931 8.28513C6.33216 8.02416 6.90779 8.02416 7.39481 8.28513L10.8487 10.2859L13.1956 11.5908L16.6495 13.5916C17.0923 13.8526 17.6679 13.8526 18.155 13.5916L20.9004 12.0257C21.3432 11.7648 21.6531 11.2864 21.6531 10.7644V7.67619C21.6531 7.15424 21.3875 6.67579 20.9004 6.41482L18.1993 4.89247C17.7565 4.63149 17.1808 4.63149 16.6937 4.89247L13.9926 6.41482C13.5498 6.67579 13.2399 7.15424 13.2399 7.67619V9.677L10.893 8.32863V6.32783C10.893 5.80587 11.1586 5.32742 11.6458 5.06645L16.6495 2.19573C17.0923 1.93476 17.6679 1.93476 18.155 2.19573L23.2472 5.06645C23.7343 5.32742 24 5.80587 24 6.32783V12.1128C24 12.6347 23.7343 13.1132 23.2472 13.3742L18.155 16.2449C17.7122 16.5058 17.1365 16.5058 16.6495 16.2449L13.1956 14.2875L10.8487 12.9392L7.39481 10.9819C6.95205 10.7209 6.37642 10.7209 5.88931 10.9819L3.18821 12.5042C2.74545 12.7652 2.43546 13.2437 2.43546 13.7656V16.8538C2.43546 17.3758 2.7011 17.8542 3.18821 18.1152L5.88931 19.681C6.33216 19.942 6.90779 19.942 7.39481 19.681L10.0959 18.1587C10.5388 17.8977 10.8487 17.4192 10.8487 16.8973V14.8965L13.1956 16.2449V18.2456C13.1956 18.7676 12.9299 19.2461 12.4429 19.507L7.35055 22.3777C6.90779 22.6387 6.33216 22.6387 5.84505 22.3777L0.75275 19.507C0.30999 19.2461 0 18.7676 0 18.2456V12.4607C0 11.9388 0.265732 11.4604 0.75275 11.1994L5.88931 8.28513Z" fill="#6600FF"/>
</svg>
