<svg width="32" height="32" viewBox="0 0 32 32" fill="none" xmlns="http://www.w3.org/2000/svg">
<path d="M24.1476 11.0468C23.5571 10.6989 22.7896 10.6989 22.1403 11.0468L17.535 13.7146L14.4059 15.4544L9.80073 18.1221C9.21032 18.4701 8.4428 18.4701 7.79335 18.1221L4.13284 16.0343C3.54243 15.6863 3.12915 15.0485 3.12915 14.3525V10.2349C3.12915 9.53898 3.4834 8.90104 4.13284 8.55308L7.73431 6.52328C8.32472 6.17531 9.09224 6.17531 9.74169 6.52328L13.3432 8.55308C13.9335 8.90104 14.3469 9.53898 14.3469 10.2349V12.9027L17.476 11.1048V8.4371C17.476 7.74116 17.1218 7.10322 16.4723 6.75525L9.80073 2.92763C9.21032 2.57966 8.4428 2.57966 7.79335 2.92763L1.00369 6.75525C0.354243 7.10322 0 7.74116 0 8.4371V16.1504C0 16.8463 0.354243 17.4843 1.00369 17.8322L7.79335 21.6598C8.38375 22.0078 9.15129 22.0078 9.80073 21.6598L14.4059 19.0501L17.535 17.2522L22.1403 14.6425C22.7306 14.2945 23.4981 14.2945 24.1476 14.6425L27.7491 16.6723C28.3394 17.0202 28.7527 17.6582 28.7527 18.3541V22.4717C28.7527 23.1677 28.3985 23.8056 27.7491 24.1535L24.1476 26.2414C23.5571 26.5893 22.7896 26.5893 22.1403 26.2414L18.5388 24.2116C17.9483 23.8636 17.535 23.2256 17.535 22.5297V19.862L14.4059 21.6598V24.3275C14.4059 25.0234 14.7602 25.6614 15.4095 26.0094L22.1993 29.837C22.7896 30.1849 23.5571 30.1849 24.2066 29.837L30.9963 26.0094C31.5867 25.6614 32 25.0234 32 24.3275V16.6143C32 15.9183 31.6457 15.2805 30.9963 14.9325L24.1476 11.0468Z" fill="#8247E5"/>
</svg>
