<svg width="24" height="24" viewBox="0 0 24 24" fill="none" xmlns="http://www.w3.org/2000/svg">
<g clip-path="url(#clip0_2066_7314)">
<rect y="-0.0012207" width="24" height="24" rx="4" fill="#8247E5"/>
<path d="M16.0738 9.52221C15.7786 9.34823 15.3948 9.34823 15.0701 9.52221L12.7675 10.8561L11.2029 11.726L8.90037 13.0599C8.60516 13.2338 8.2214 13.2338 7.89668 13.0599L6.06642 12.0159C5.77122 11.842 5.56458 11.523 5.56458 11.1751V9.11625C5.56458 8.76828 5.7417 8.44932 6.06642 8.27533L7.86715 7.26043C8.16236 7.08645 8.54612 7.08645 8.87084 7.26043L10.6716 8.27533C10.9668 8.44932 11.1734 8.76828 11.1734 9.11625V10.4501L12.738 9.55121V8.21734C12.738 7.86937 12.5609 7.5504 12.2362 7.37642L8.90037 5.46261C8.60516 5.28863 8.2214 5.28863 7.89668 5.46261L4.50184 7.37642C4.17712 7.5504 4 7.86937 4 8.21734V12.074C4 12.4219 4.17712 12.7409 4.50184 12.9149L7.89668 14.8287C8.19187 15.0027 8.57564 15.0027 8.90037 14.8287L11.2029 13.5238L12.7675 12.6249L15.0701 11.32C15.3653 11.1461 15.7491 11.1461 16.0738 11.32L17.8745 12.3349C18.1697 12.5089 18.3764 12.8279 18.3764 13.1759V15.2346C18.3764 15.5826 18.1993 15.9016 17.8745 16.0756L16.0738 17.1195C15.7786 17.2935 15.3948 17.2935 15.0701 17.1195L13.2694 16.1046C12.9742 15.9306 12.7675 15.6116 12.7675 15.2636V13.9298L11.2029 14.8287V16.1625C11.2029 16.5105 11.3801 16.8295 11.7048 17.0035L15.0996 18.9173C15.3948 19.0913 15.7786 19.0913 16.1033 18.9173L19.4982 17.0035C19.7933 16.8295 20 16.5105 20 16.1625V12.3059C20 11.958 19.8228 11.639 19.4982 11.4651L16.0738 9.52221Z" fill="white"/>
</g>
<defs>
<clipPath id="clip0_2066_7314">
<rect width="24" height="24" fill="white" transform="translate(0 -0.0012207)"/>
</clipPath>
</defs>
</svg>
