<svg width="24" height="24" viewBox="0 0 24 24" fill="none" xmlns="http://www.w3.org/2000/svg">
<g clip-path="url(#clip0_2066_7314)">
<rect width="24" height="24" rx="4" fill="#6600FF"/>
<path d="M7.92621 9.52343C8.22144 9.34945 8.60519 9.34945 8.92987 9.52343L11.2325 10.8573L12.7971 11.7272L15.0996 13.0611C15.3948 13.2351 15.7786 13.2351 16.1033 13.0611L17.9336 12.0172C18.2288 11.8432 18.4354 11.5242 18.4354 11.1763V9.11747C18.4354 8.76951 18.2583 8.45054 17.9336 8.27655L16.1328 7.26166C15.8376 7.08767 15.4539 7.08767 15.1292 7.26166L13.3284 8.27655C13.0332 8.45054 12.8266 8.76951 12.8266 9.11747V10.4513L11.262 9.55243V8.21856C11.262 7.87059 11.4391 7.55163 11.7638 7.37764L15.0996 5.46383C15.3948 5.28985 15.7786 5.28985 16.1033 5.46383L19.4982 7.37764C19.8229 7.55163 20 7.87059 20 8.21856V12.0752C20 12.4231 19.8229 12.7421 19.4982 12.9161L16.1033 14.8299C15.8081 15.0039 15.4244 15.0039 15.0996 14.8299L12.7971 13.525L11.2325 12.6261L8.92987 11.3213C8.6347 11.1473 8.25095 11.1473 7.92621 11.3213L6.12547 12.3362C5.8303 12.5101 5.62364 12.8291 5.62364 13.1771V15.2359C5.62364 15.5839 5.80073 15.9028 6.12547 16.0768L7.92621 17.1207C8.22144 17.2947 8.60519 17.2947 8.92987 17.1207L10.7306 16.1058C11.0258 15.9318 11.2325 15.6128 11.2325 15.2649V13.931L12.7971 14.8299V16.1638C12.7971 16.5117 12.6199 16.8307 12.2952 17.0047L8.90037 18.9185C8.60519 19.0925 8.22144 19.0925 7.8967 18.9185L4.50183 17.0047C4.20666 16.8307 4 16.5117 4 16.1638V12.3071C4 11.9592 4.17715 11.6403 4.50183 11.4663L7.92621 9.52343Z" fill="white"/>
</g>
<defs>
<clipPath id="clip0_2066_7314">
<rect width="24" height="24" fill="white"/>
</clipPath>
</defs>
</svg>
