<svg width="24" height="24" viewBox="0 0 24 24" fill="none" xmlns="http://www.w3.org/2000/svg">
<g clip-path="url(#clip0_2317_6430)">
<rect y="0.0012207" width="24" height="24" rx="4" fill="black"/>
<g clip-path="url(#clip1_2317_6430)">
<path d="M3.99996 11.9962C3.98049 7.59524 7.61063 3.99152 12.0129 4.00124C16.334 4.01096 20.016 7.51422 19.9998 12.0351C19.9836 16.5203 16.3016 20.043 11.9123 20.0008C7.5717 19.9555 3.98049 16.3874 3.99996 11.9962Z" fill="black"/>
<path d="M4.24995 11.9951L4.24996 11.9973C4.23111 16.2489 7.7097 19.7069 11.9149 19.7509C16.168 19.7916 19.7341 16.3781 19.7498 12.0342C19.7655 7.65557 16.1993 4.26067 12.0123 4.25124L4.24995 11.9951ZM4.24995 11.9951C4.23111 7.73428 7.74736 4.24183 12.0123 4.25124L4.24995 11.9951Z" stroke="white" stroke-width="0.5"/>
<path fill-rule="evenodd" clip-rule="evenodd" d="M8.31922 15.1701C8.31531 15.1631 8.30998 15.1534 8.30176 15.1397L8.31087 15.1313C8.44395 15.0078 8.57413 14.8871 8.71051 14.7508C8.77565 14.8101 8.83953 14.8698 8.90306 14.9291C9.01668 15.0352 9.1293 15.1404 9.24579 15.2402C9.95949 15.8592 10.79 16.193 11.7308 16.2254C12.2109 16.2416 12.6683 16.1249 13.09 15.8851C13.7453 15.5124 13.8135 14.9485 13.5118 14.323C13.3139 13.9147 12.9473 13.6619 12.5483 13.474C12.1834 13.3023 11.8139 13.141 11.4446 12.9798C11.1934 12.8701 10.9422 12.7604 10.6927 12.6476C10.086 12.3721 9.50856 12.0513 9.08358 11.5165C8.37313 10.6221 8.30176 9.12487 9.38204 8.18505C10.0211 7.6244 10.7705 7.31005 11.6075 7.20635C13.1809 7.0119 14.4526 7.58227 15.4809 8.75219C15.5133 8.78779 15.5459 8.82355 15.5945 8.87533C15.4924 8.96597 15.3919 9.05343 15.2964 9.13662C15.2552 9.17241 15.215 9.20742 15.176 9.24154C15.0771 9.15259 14.9815 9.0629 14.8869 8.9741C14.7022 8.80087 14.5212 8.63097 14.326 8.47672C13.7097 7.99061 12.9992 7.75727 12.2141 7.76052C11.8832 7.76376 11.5621 7.84802 11.2669 8.00033C10.5467 8.36654 10.485 9.04709 10.7965 9.64663C11.0171 10.0744 11.4031 10.3304 11.8119 10.5411C12.1736 10.7272 12.5404 10.902 12.9066 11.0766C13.1907 11.212 13.4744 11.3472 13.7551 11.4874C14.2806 11.7499 14.777 12.0675 15.1533 12.5341C15.9513 13.5193 15.9611 15.0911 14.6569 15.9856C13.9659 16.4619 13.1971 16.705 12.3699 16.7925C10.7738 16.961 9.47612 16.3744 8.38286 15.2499L8.33095 15.1883C8.32721 15.1846 8.32454 15.1798 8.31922 15.1701ZM10.1023 8.50302C10.1096 8.45671 10.1173 8.40831 10.1249 8.35681C10.1043 8.37223 10.0844 8.38704 10.065 8.40144C9.97414 8.4688 9.89537 8.52721 9.82321 8.59663C9.46312 8.91098 9.20034 9.29015 9.16142 9.77627C9.09653 10.5832 9.41445 11.2249 10.099 11.6494C10.4337 11.8569 10.7925 12.0258 11.1515 12.1949C11.2691 12.2502 11.3868 12.3056 11.5037 12.3624C11.6981 12.4579 11.896 12.548 12.0939 12.6382C12.4738 12.8112 12.8538 12.9843 13.21 13.1953C13.9108 13.6069 14.2936 14.2453 14.2676 15.0814C14.2632 15.1969 14.2389 15.3109 14.2136 15.4296C14.202 15.4841 14.1902 15.5396 14.18 15.5967C14.7315 15.237 15.1111 14.7897 15.1143 14.1027C15.1143 13.4351 14.8224 12.9166 14.3033 12.5115C13.827 12.138 13.2845 11.8897 12.7425 11.6416C12.6495 11.599 12.5565 11.5565 12.4639 11.5133C12.4241 11.4948 12.3843 11.4764 12.3445 11.4579C11.7704 11.192 11.1951 10.9254 10.7218 10.486C10.2385 10.0355 9.9919 9.4846 10.06 8.81376C10.0692 8.71313 10.0848 8.6141 10.1023 8.50302Z" fill="white"/>
</g>
</g>
<defs>
<clipPath id="clip0_2317_6430">
<rect width="24" height="24" fill="white" transform="translate(0 0.0012207)"/>
</clipPath>
<clipPath id="clip1_2317_6430">
<rect width="16" height="16" fill="white" transform="translate(4 4.00122)"/>
</clipPath>
</defs>
</svg>
