<svg width="24" height="24" viewBox="0 0 24 24" fill="none" xmlns="http://www.w3.org/2000/svg">
<g clip-path="url(#clip0_2317_6430)">
<rect width="24" height="24" rx="4" fill="black"/>
<g clip-path="url(#clip1_2317_6430)">
<path d="M17.6571 6.344C16.1454 4.832 14.1371 4 12.0008 4C7.58883 4 4 7.5888 4 12C4 16.4112 7.58883 20 12.0008 20C14.1371 20 16.1469 19.168 17.6571 17.656C19.1689 16.144 20 14.136 20 12C20 9.86398 19.1689 7.85439 17.6571 6.344ZM12.0008 19.4464C7.89471 19.4464 4.5541 16.1056 4.5541 12C4.5541 7.8944 7.89471 4.5536 12.0008 4.5536C16.1069 4.5536 19.4475 7.8944 19.4475 12C19.4475 16.1056 16.1069 19.4464 12.0008 19.4464Z" fill="white"/>
<path fill-rule="evenodd" clip-rule="evenodd" d="M8.31922 15.1689C8.31531 15.1618 8.30998 15.1522 8.30176 15.1385L8.31087 15.13C8.44395 15.0066 8.57413 14.8858 8.71051 14.7496C8.77565 14.8089 8.83953 14.8685 8.90306 14.9279C9.01668 15.034 9.1293 15.1392 9.24579 15.239C9.95949 15.8579 10.79 16.1917 11.7308 16.2241C12.2109 16.2404 12.6683 16.1237 13.09 15.8839C13.7453 15.5112 13.8135 14.9473 13.5118 14.3218C13.3139 13.9135 12.9473 13.6607 12.5483 13.4727C12.1834 13.3011 11.8139 13.1398 11.4446 12.9785C11.1934 12.8689 10.9422 12.7592 10.6927 12.6464C10.086 12.3709 9.50856 12.0501 9.08358 11.5153C8.37313 10.6209 8.30176 9.12365 9.38204 8.18383C10.0211 7.62318 10.7705 7.30883 11.6075 7.20512C13.1809 7.01068 14.4526 7.58105 15.4809 8.75097C15.5133 8.78657 15.5459 8.82233 15.5945 8.87411C15.4924 8.96475 15.3919 9.05221 15.2964 9.1354C15.2552 9.17119 15.215 9.2062 15.176 9.24032C15.0771 9.15137 14.9815 9.06168 14.8869 8.97288C14.7022 8.79965 14.5212 8.62975 14.326 8.4755C13.7097 7.98939 12.9992 7.75605 12.2141 7.75929C11.8832 7.76254 11.5621 7.84679 11.2669 7.99911C10.5467 8.36532 10.485 9.04587 10.7965 9.64541C11.0171 10.0732 11.4031 10.3292 11.8119 10.5399C12.1736 10.726 12.5404 10.9008 12.9066 11.0754C13.1907 11.2108 13.4744 11.346 13.7551 11.4862C14.2806 11.7487 14.777 12.0663 15.1533 12.5329C15.9513 13.5181 15.9611 15.0899 14.6569 15.9843C13.9659 16.4607 13.1971 16.7038 12.3699 16.7913C10.7738 16.9598 9.47612 16.3732 8.38286 15.2487L8.33095 15.1871C8.32721 15.1834 8.32454 15.1785 8.31922 15.1689ZM10.1023 8.5018C10.1096 8.45549 10.1173 8.40709 10.1249 8.35559C10.1043 8.37101 10.0844 8.38582 10.065 8.40022C9.97414 8.46757 9.89537 8.52599 9.82321 8.59541C9.46312 8.90976 9.20034 9.28893 9.16142 9.77505C9.09653 10.582 9.41445 11.2237 10.099 11.6482C10.4337 11.8557 10.7925 12.0246 11.1515 12.1936C11.2691 12.249 11.3868 12.3044 11.5037 12.3612C11.6981 12.4566 11.896 12.5468 12.0939 12.6369C12.4738 12.81 12.8538 12.9831 13.21 13.1941C13.9108 13.6056 14.2936 14.2441 14.2676 15.0802C14.2632 15.1957 14.2389 15.3097 14.2136 15.4284C14.202 15.4829 14.1902 15.5384 14.18 15.5955C14.7315 15.2357 15.1111 14.7885 15.1143 14.1015C15.1143 13.4339 14.8224 12.9154 14.3033 12.5103C13.827 12.1368 13.2845 11.8885 12.7425 11.6404C12.6495 11.5978 12.5565 11.5553 12.4639 11.5121C12.4241 11.4936 12.3843 11.4751 12.3445 11.4567C11.7704 11.1908 11.1951 10.9242 10.7218 10.4848C10.2385 10.0343 9.9919 9.48338 10.06 8.81254C10.0692 8.7119 10.0848 8.61288 10.1023 8.5018Z" fill="white"/>
</g>
</g>
<defs>
<clipPath id="clip0_2317_6430">
<rect width="24" height="24" fill="white"/>
</clipPath>
<clipPath id="clip1_2317_6430">
<rect width="16" height="16" fill="white" transform="translate(4 4)"/>
</clipPath>
</defs>
</svg>
