<svg width="32" height="32" viewBox="0 0 32 32" fill="none" xmlns="http://www.w3.org/2000/svg">
<g clip-path="url(#clip0_2397_6473)">
<path d="M9.64724e-05 15.9899C-0.0388326 7.18803 7.22145 -0.0194053 16.0259 3.92516e-05C24.6682 0.0194838 32.0323 7.026 31.9998 16.0677C31.9674 25.0381 24.6033 32.0835 15.8248 31.9993C7.14359 31.9085 -0.0388326 24.7724 9.64724e-05 15.9899Z" fill="black"/>
<path d="M0.250104 15.991L0.250094 15.9888C0.211785 7.32707 7.35818 0.230897 16.0254 0.250039C24.5335 0.269181 31.7818 7.16734 31.7498 16.0668C31.7179 24.8959 24.4698 31.8321 15.8274 31.7493C7.28159 31.6599 0.211784 24.6339 0.250104 15.991Z" stroke="white" stroke-width="0.5"/>
<path fill-rule="evenodd" clip-rule="evenodd" d="M8.63843 22.3378C8.63063 22.3237 8.61997 22.3044 8.60352 22.277L8.62174 22.2601C8.88789 22.0132 9.14826 21.7717 9.42103 21.4992C9.5513 21.6177 9.67906 21.7371 9.80612 21.8557C10.0334 22.068 10.2586 22.2784 10.4916 22.4779C11.919 23.7159 13.58 24.3835 15.4615 24.4483C16.4218 24.4807 17.3366 24.2474 18.1801 23.7677C19.4907 23.0223 19.6269 21.8946 19.0235 20.6436C18.6278 19.827 17.8946 19.3214 17.0965 18.9455C16.3668 18.6022 15.6278 18.2795 14.8892 17.957C14.3868 17.7377 13.8843 17.5183 13.3853 17.2927C12.172 16.7418 11.0171 16.1001 10.1672 15.0306C8.74626 13.2417 8.60352 10.2473 10.7641 8.36765C12.0423 7.24635 13.541 6.61764 15.215 6.41023C18.3617 6.02134 20.9051 7.16209 22.9619 9.50191C23.0267 9.57312 23.0918 9.64464 23.189 9.74821C22.9848 9.92948 22.7839 10.1044 22.5927 10.2708C22.5105 10.3424 22.4301 10.4124 22.352 10.4806C22.1541 10.3027 21.963 10.1233 21.7737 9.94575C21.4045 9.59928 21.0424 9.25949 20.6521 8.95099C19.4193 7.97876 17.9984 7.51209 16.4283 7.51857C15.7665 7.52506 15.1241 7.69357 14.5337 7.9982C13.0933 8.73062 12.9701 10.0917 13.5929 11.2908C14.0341 12.1464 14.8062 12.6584 15.6237 13.0797C16.3471 13.452 17.0808 13.8016 17.8132 14.1507C18.3814 14.4215 18.9489 14.692 19.5102 14.9723C20.5612 15.4973 21.5539 16.1325 22.3066 17.0658C23.9027 19.0362 23.9221 22.1797 21.3139 23.9686C19.9319 24.9214 18.3942 25.4075 16.7397 25.5825C13.5475 25.9196 10.9522 24.7464 8.76572 22.4973L8.66191 22.3742C8.65442 22.3667 8.64909 22.3571 8.63843 22.3378ZM12.2047 9.00359C12.2193 8.91097 12.2346 8.81416 12.2498 8.71117C12.2087 8.742 12.1687 8.77162 12.1299 8.80043C11.9483 8.93513 11.7907 9.05197 11.6464 9.1908C10.9262 9.81951 10.4007 10.5779 10.3228 11.5501C10.1931 13.164 10.8289 14.4473 12.1979 15.2964C12.8675 15.7114 13.5849 16.0492 14.3031 16.3873C14.5383 16.498 14.7736 16.6088 15.0073 16.7223C15.3962 16.9133 15.792 17.0935 16.1878 17.2739C16.9476 17.62 17.7077 17.9662 18.4201 18.3881C19.8215 19.2113 20.5871 20.4881 20.5352 22.1603C20.5263 22.3914 20.4778 22.6194 20.4273 22.8568C20.4041 22.9658 20.3805 23.0767 20.3601 23.1909C21.4631 22.4715 22.2222 21.577 22.2287 20.2029C22.2287 18.8677 21.6447 17.8307 20.6066 17.0205C19.654 16.2736 18.5691 15.777 17.4849 15.2807C17.299 15.1956 17.113 15.1105 16.9278 15.0242C16.8482 14.9872 16.7686 14.9503 16.6889 14.9134C15.5409 14.3815 14.3901 13.8484 13.4436 12.9695C12.4769 12.0686 11.9838 10.9667 12.1201 9.62507C12.1384 9.42379 12.1696 9.22575 12.2047 9.00359Z" fill="white"/>
</g>
<defs>
<clipPath id="clip0_2397_6473">
<rect width="32" height="32" fill="white"/>
</clipPath>
</defs>
</svg>
