<svg width="32" height="32" viewBox="0 0 32 32" fill="none" xmlns="http://www.w3.org/2000/svg">
<path d="M31.9428 10.9156C32.0072 11.5399 31.6383 12.2084 30.8909 12.885C30.145 13.5602 29.0313 14.2347 27.6305 14.8699C24.8295 16.1401 20.8904 17.2486 16.4775 17.8932C12.0646 18.5377 8.01724 18.5956 5.04145 18.1693C3.55318 17.9561 2.33603 17.6222 1.47572 17.1821C0.613958 16.7413 0.121543 16.2002 0.0572249 15.5771C-0.00721325 14.9528 0.361695 14.2843 1.10913 13.6077C1.85503 12.9325 2.96866 12.258 4.36947 11.6228C7.17051 10.3526 11.1096 9.24402 15.5225 8.59947C19.9354 7.95492 23.9827 7.89701 26.9585 8.3233C28.4468 8.5365 29.6639 8.8704 30.5243 9.3105C31.386 9.75135 31.8785 10.2925 31.9428 10.9156Z" fill="white" stroke="#979797" stroke-width="0.1"/>
<path fill-rule="evenodd" clip-rule="evenodd" d="M16.3941 17.2031C24.6894 15.9915 31.2318 13.243 31.0069 11.0641C30.782 8.88519 23.875 8.10106 15.5797 9.31268C7.28436 10.5243 0.742003 13.2728 0.966902 15.4518C1.19181 17.6306 8.09883 18.4147 16.3941 17.2031Z" fill="#000002"/>
<path fill-rule="evenodd" clip-rule="evenodd" d="M15.8859 23.933C20.2695 23.933 23.9827 20.5121 25.2497 15.7877C25.2788 15.6791 25.1176 15.8082 24.8144 15.9188C24.2901 16.1099 23.2952 16.4427 21.794 16.8138C19.7404 17.3216 16.7607 17.7742 15.7552 17.9166C14.7138 18.0642 12.6231 18.2598 10.7903 18.3349C9.71038 18.3791 8.90423 18.4535 8.30702 18.4281C7.89064 18.4104 7.47116 18.2349 7.5722 18.4281C9.30767 21.7464 12.3641 23.933 15.8859 23.933Z" fill="#6758FF"/>
<path fill-rule="evenodd" clip-rule="evenodd" d="M16.5292 22.9835C18.5048 22.9835 19.9159 21.6006 19.9159 21.346C19.9159 21.0914 18.5048 21.9697 16.5292 21.9697C14.5537 21.9697 12.584 21.7151 12.584 21.9697C12.584 22.1303 13.5832 22.6097 14.8032 22.801C15.5178 22.913 15.7995 22.9835 16.5292 22.9835Z" fill="#FF7FA7"/>
</svg>
