<svg width="24" height="24" viewBox="0 0 24 24" fill="none" xmlns="http://www.w3.org/2000/svg">
<g clip-path="url(#clip0_2066_7518)">
<rect width="24" height="24" rx="4" fill="#6758FF"/>
<path d="M20.9461 9.14226C20.9812 9.48286 20.7802 9.85251 20.3614 10.2316C19.9442 10.6092 19.32 10.9875 18.5331 11.3444C16.9599 12.0578 14.7462 12.6809 12.2654 13.0433C9.78463 13.4056 7.51018 13.438 5.83892 13.1986C5.00292 13.0788 4.32094 12.8915 3.84005 12.6455C3.35772 12.3987 3.08899 12.0993 3.05395 11.7599C3.01879 11.4193 3.21981 11.0496 3.63857 10.6705C4.05579 10.2929 4.67994 9.91457 5.46686 9.55773C7.04012 8.84431 9.25379 8.22119 11.7346 7.85885C14.2154 7.4965 16.4898 7.4641 18.1611 7.70351C18.9971 7.82327 19.679 8.01063 20.1599 8.25663C20.6423 8.50338 20.911 8.80282 20.9461 9.14226Z" fill="white" stroke="#979797" stroke-width="0.1"/>
<path fill-rule="evenodd" clip-rule="evenodd" d="M12.2217 12.6767C16.8879 11.9952 20.5679 10.4492 20.4415 9.22353C20.3149 7.99791 16.4297 7.55684 11.7636 8.23837C7.09751 8.91991 3.41743 10.466 3.54394 11.6916C3.67045 12.9172 7.55565 13.3583 12.2217 12.6767Z" fill="#000002"/>
<path d="M7.67263 13.3658C7.89466 13.3753 8.16803 13.3602 8.50326 13.3417C8.67524 13.3322 8.86351 13.3218 9.06947 13.3134C10.1004 13.2711 11.2765 13.1611 11.8622 13.0781C12.4278 12.998 14.1039 12.7434 15.2591 12.4578C16.1035 12.249 16.6631 12.0618 16.958 11.9543C16.9983 11.9396 17.0342 11.9243 17.0652 11.9104C17.0509 11.962 17.036 12.0133 17.0206 12.0644M7.67263 13.3658C7.58742 13.3622 7.50199 13.3468 7.4305 13.334C7.41236 13.3307 7.39511 13.3276 7.37899 13.3249C7.40387 13.3722 7.42923 13.419 7.45506 13.4654M7.67263 13.3658L7.66733 13.4907C7.59488 13.4876 7.51918 13.4763 7.45506 13.4654M7.67263 13.3658L17.0206 12.0644M7.45506 13.4654C7.43543 13.462 7.41689 13.4586 7.39986 13.4556C7.37585 13.4513 7.35484 13.4475 7.33803 13.4449C7.31996 13.4422 7.30736 13.4408 7.29886 13.4404C8.28153 15.265 9.98121 16.4623 11.9358 16.4623C14.3645 16.4623 16.4274 14.5955 17.1698 11.9999C17.1695 12 17.1692 12.0001 17.1689 12.0003C17.1331 12.017 17.0802 12.0416 17.0206 12.0644M7.45506 13.4654C8.42683 15.2103 10.0663 16.3373 11.9358 16.3373C14.2645 16.3373 16.2662 14.5683 17.0206 12.0644M7.2593 13.3658L7.34709 13.3199C7.35581 13.3211 7.365 13.3226 7.37461 13.3242C7.37599 13.3328 7.37648 13.3443 7.37391 13.3577C7.36413 13.4088 7.32459 13.4312 7.30614 13.4373C7.30313 13.4383 7.30049 13.4389 7.29834 13.4394C7.2852 13.415 7.27218 13.3905 7.2593 13.3658ZM7.2593 13.3658L7.34709 13.3199C7.27213 13.3093 7.23204 13.3137 7.2593 13.3658Z" fill="#6758FF" stroke="white" stroke-width="0.25"/>
<path fill-rule="evenodd" clip-rule="evenodd" d="M12.2977 15.9282C13.4089 15.9282 14.2027 15.1503 14.2027 15.0071C14.2027 14.8639 13.4089 15.358 12.2977 15.358C11.1865 15.358 10.0785 15.2148 10.0785 15.358C10.0785 15.4483 10.6405 15.7179 11.3268 15.8255C11.7288 15.8886 11.8872 15.9282 12.2977 15.9282Z" fill="#FF7FA7"/>
</g>
<defs>
<clipPath id="clip0_2066_7518">
<rect width="24" height="24" fill="white"/>
</clipPath>
</defs>
</svg>
