<svg width="32" height="32" viewBox="0 0 32 32" fill="none" xmlns="http://www.w3.org/2000/svg">
<g clip-path="url(#clip0_2046_7736)">
<path d="M16 32C11.7253 32 7.70909 30.3354 4.68687 27.3131C1.66465 24.2909 0 20.2747 0 16C0 11.7253 1.66465 7.70909 4.68687 4.68687C7.70909 1.66465 11.7253 0 16 0C20.2747 0 24.2909 1.66465 27.3131 4.68687C30.3354 7.70909 32 11.7253 32 16C32 20.2747 30.3354 24.2909 27.3131 27.3131C24.2909 30.3354 20.2747 32 16 32ZM16 1.30101C7.89495 1.30101 1.30101 7.89495 1.30101 16C1.30101 24.1051 7.89495 30.699 16 30.699C24.1051 30.699 30.699 24.1051 30.699 16C30.699 7.89495 24.1051 1.30101 16 1.30101ZM14.0929 11.3131L4.75152 9.00202L10.9576 16.3636L5.86667 24.5414L14.7879 20.9131L20.9939 28.2747L20.299 18.6747L29.2202 15.0465L19.8788 12.7354L19.1838 3.13535L14.0929 11.3131Z" fill="url(#paint0_linear_2046_7736)"/>
</g>
<defs>
<linearGradient id="paint0_linear_2046_7736" x1="2.38238" y1="12.635" x2="33.4603" y2="20.3145" gradientUnits="userSpaceOnUse">
<stop stop-color="#FEF5A0"/>
<stop offset="0.6354" stop-color="#93D4CB"/>
<stop offset="1" stop-color="#719AD1"/>
</linearGradient>
<clipPath id="clip0_2046_7736">
<rect width="32" height="32" fill="white"/>
</clipPath>
</defs>
</svg>
