<svg width="24" height="24" viewBox="0 0 24 24" fill="none" xmlns="http://www.w3.org/2000/svg">
<g clip-path="url(#clip0_2066_7503)">
<rect width="24" height="24" rx="4" fill="#E50571"/>
<g clip-path="url(#clip1_2066_7503)">
<path d="M18.7533 17.0284C17.1983 17.0284 15.9401 15.7679 15.9401 14.2153V10.0027H19.5684V7.55241H15.9401V3.5L13.16 4.98431V7.55241H7.88715C4.21169 7.55241 3.24571 11.9818 6.07298 13.631L8.94737 15.563C9.5835 16.0342 9.32433 17.0238 8.42903 17.0238H4.51798V19.4976H8.42903C12.128 19.4976 13.0705 15.0682 10.2432 13.419L7.39237 11.487C6.75623 11.0158 6.99184 10.0027 7.88715 10.0027H13.16V14.2483C13.16 17.4525 15.3746 19.5 18.7203 19.5H19.5684V17.0284H18.7533Z" fill="white"/>
</g>
</g>
<defs>
<clipPath id="clip0_2066_7503">
<rect width="24" height="24" fill="white"/>
</clipPath>
<clipPath id="clip1_2066_7503">
<rect width="16" height="16" fill="white" transform="translate(4 3.5)"/>
</clipPath>
</defs>
</svg>
