<svg width="32" height="32" viewBox="0 0 32 32" fill="none" xmlns="http://www.w3.org/2000/svg">
<path d="M16.6512 30.6666C13.123 30.6666 10.2313 29.8831 7.97601 28.3156C5.90491 26.876 4.58532 24.8697 4.01749 22.297C3.93074 21.9038 4.17558 21.5208 4.55588 21.4197L9.43738 20.1243C9.85856 20.0127 10.2812 20.2883 10.3989 20.7182C10.654 21.6508 11.0103 22.4107 11.4681 22.9974C12.0862 23.7439 12.8319 24.285 13.705 24.6209C14.6144 24.9195 15.5965 25.0687 16.6512 25.0687C18.2517 25.0687 19.4339 24.7887 20.1978 24.2289C20.9615 23.6319 21.3436 22.9041 21.3436 22.0459C21.3436 21.1876 20.9798 20.5345 20.2523 20.0865C19.5247 19.6014 18.3608 19.2094 16.7604 18.9108L15.2328 18.6311C13.3411 18.2579 11.6135 17.7539 10.0494 17.1197C8.48518 16.4478 7.23038 15.5334 6.28463 14.3766C5.339 13.2197 4.86618 11.7268 4.86618 9.89822C4.86618 7.13649 5.84817 5.028 7.81237 3.57239C9.77668 2.07963 12.359 1.33331 15.56 1.33331C18.5791 1.33331 21.0888 2.02369 23.0894 3.40444C24.8701 4.63354 26.1033 6.20251 26.7887 8.11158C26.9313 8.50818 26.7033 8.93389 26.3096 9.05812L21.4276 10.5995C21.0016 10.7339 20.5604 10.4611 20.4159 10.0285C20.0839 9.03536 19.5562 8.3015 18.8337 7.82698C17.9607 7.22981 16.8695 6.93128 15.56 6.93128C14.2505 6.93128 13.2502 7.17386 12.5591 7.65903C11.8681 8.10682 11.5224 8.74125 11.5224 9.56243C11.5224 10.458 11.8863 11.1298 12.6138 11.5776C13.3411 11.988 14.3231 12.3054 15.56 12.5291L17.0876 12.8091C19.1246 13.1823 20.9615 13.686 22.5984 14.3204C24.2716 14.9177 25.5811 15.7947 26.5267 16.9516C27.5088 18.0713 28 19.6014 28 21.5422C28 24.4529 26.9632 26.7108 24.8898 28.3156C22.853 29.8831 20.1067 30.6666 16.6512 30.6666Z" fill="#E50571"/>
</svg>
