<svg width="24" height="24" viewBox="0 0 24 24" fill="none" xmlns="http://www.w3.org/2000/svg">
<g clip-path="url(#clip0_1727_5841)">
<path d="M22.13 20.2927C19.7976 20.2927 17.9103 18.4019 17.9103 16.073V9.75406H23.3528V6.07862H17.9103V0L13.7401 2.22647V6.07862H5.83084C0.317662 6.07862 -1.13132 12.7227 3.10959 15.1965L7.42118 18.0945C8.37537 18.8013 7.98662 20.2857 6.64367 20.2857H0.777086V23.9963H6.64367C12.1921 23.9963 13.6059 17.3524 9.36493 14.8784L5.08868 11.9805C4.13447 11.2738 4.48788 9.75406 5.83084 9.75406H13.7401V16.1225C13.7401 20.9288 17.0621 24 22.0805 24H23.3528V20.2927H22.13Z" fill="#E50571"/>
</g>
<defs>
<clipPath id="clip0_1727_5841">
<rect width="24" height="24" fill="white"/>
</clipPath>
</defs>
</svg>
