<svg width="24" height="24" viewBox="0 0 24 24" fill="none" xmlns="http://www.w3.org/2000/svg">
<g clip-path="url(#clip0_2066_7395)">
<rect width="24" height="24" rx="4" fill="#172852"/>
<g clip-path="url(#clip1_2066_7395)">
<path d="M10.8801 16.7048C11.3185 18.3266 12.8913 19.5648 13.6855 19.513C13.7135 19.5112 16.6983 18.9548 18.3323 16.2246C19.6039 14.1 19.1709 12.049 17.4415 12.0046C16.8193 12.05 10.0447 13.6152 10.8801 16.7046V16.7048ZM17.2813 6.28779L17.2795 6.28619L17.2819 6.28479C16.1926 5.35829 14.8637 4.75837 13.4483 4.55413C12.033 4.34989 10.5887 4.54965 9.2819 5.13039C9.11674 5.19923 8.95585 5.2779 8.8001 5.36599C8.6937 5.42259 8.5871 5.47899 8.4837 5.54059L8.5089 5.54839C8.20332 5.75669 7.93321 6.01276 7.7089 6.30679C5.5299 9.185 12.8319 11.277 16.7359 11.2832C18.5319 12.5732 19.0361 7.65379 17.2813 6.28779Z" fill="#0E3CA5"/>
<path d="M9.72179 6.34619C8.71999 7.85379 5.37759 8.91619 4.82799 8.75079L4.82439 8.74319C4.84679 8.69779 4.86979 8.65259 4.89299 8.60759C5.46281 7.51002 6.27815 6.55869 7.27559 5.82759C7.48119 5.67679 7.69405 5.53586 7.91419 5.40479C8.25284 5.21807 8.63212 5.11726 9.01879 5.11119C10.5068 5.13959 9.72979 6.33419 9.72179 6.34619ZM8.89999 17.0014C8.97199 17.4752 8.89819 19.3464 8.80119 19.5042C8.71779 19.5092 8.54399 19.5198 8.04119 19.2374C6.43337 18.3201 5.19283 16.8744 4.53045 15.1459C3.86807 13.4174 3.82472 11.5128 4.40779 9.75599C4.43445 9.67599 4.46245 9.59599 4.49179 9.51599C5.06919 10.2832 5.73659 10.9772 6.30399 11.752C6.84399 12.4896 7.58739 13.692 7.73859 13.9492C8.67859 15.5444 8.82739 16.5292 8.89859 17.0014H8.89999ZM20 12.2846C20.0013 13.2905 19.8123 14.2875 19.4432 15.2232C18.501 16.2358 12.1478 13.7432 12.0856 13.7156C11.2164 13.3356 8.57159 12.1756 8.33299 10.3556C7.98979 7.73779 13.3018 5.91319 15.6362 5.84319C15.9162 5.84659 16.768 5.85639 17.2646 6.25979C18.1248 7.01006 18.8141 7.9361 19.286 8.97542C19.7578 10.0147 20.0013 11.1432 20 12.2846ZM15.7 19.3804C15.0074 19.7036 14.245 19.4682 14.443 18.7938C14.823 17.4986 18.1444 16.1708 18.8778 16.0988C18.9682 16.0898 19.0066 16.1514 18.9666 16.2218C18.2023 17.5655 17.0686 18.6617 15.7 19.3804Z" fill="#5493F7"/>
</g>
</g>
<defs>
<clipPath id="clip0_2066_7395">
<rect width="24" height="24" fill="white"/>
</clipPath>
<clipPath id="clip1_2066_7395">
<rect width="16" height="16" fill="white" transform="translate(4 4)"/>
</clipPath>
</defs>
</svg>
